M48
;DRILL file {KiCad 4.0.4-stable} date 03/22/17 00:01:15
;FORMAT={-:-/ absolute / inch / decimal}
FMAT,2
INCH,TZ
T1C0.016
T2C0.032
T3C0.039
T4C0.040
T5C0.118
T6C0.039
T7C0.098
%
G90
G05
M72
T1
X4.7835Y-5.748
X4.8031Y-5.8465
X4.8425Y-5.2953
X4.8425Y-5.6102
X4.8425Y-5.9055
X4.8425Y-5.9843
X4.9213Y-5.7283
X4.9606Y-5.7677
X4.9803Y-5.9843
X5.0197Y-6.063
X5.0394Y-5.7677
X5.0591Y-5.2953
X5.0591Y-6.7126
X5.0787Y-5.9646
X5.0984Y-5.7283
X5.1378Y-5.4134
X5.1969Y-5.7638
X5.1969Y-5.8465
X5.2165Y-5.9843
X5.2756Y-5.7283
T2
X4.8394Y-6.6142
X4.9394Y-6.6142
X4.9606Y-6.4567
X5.0394Y-6.6142
X5.0606Y-6.4567
X5.1606Y-6.4567
T3
X4.8319Y-4.9705
X4.8319Y-5.187
X4.9319Y-4.9705
X4.9319Y-5.187
X5.0681Y-4.8917
X5.0681Y-5.1083
X5.1681Y-4.8917
X5.1681Y-5.1083
T4
X4.85Y-7.
X4.95Y-7.
X5.05Y-7.
X5.15Y-7.
T5
X5.Y-5.5315
T6
X4.7854Y-5.2618
X5.2146Y-5.1831
T7
X4.8071Y-5.0787
X4.9567Y-5.0787
X5.0433Y-5.
X5.1929Y-5.
T0
M30
