G04 #@! TF.FileFunction,Legend,Top*
%FSLAX46Y46*%
G04 Gerber Fmt 4.6, Leading zero omitted, Abs format (unit mm)*
G04 Created by KiCad (PCBNEW 4.0.4-stable) date 03/22/17 00:01:14*
%MOMM*%
%LPD*%
G01*
G04 APERTURE LIST*
%ADD10C,0.100000*%
%ADD11C,0.200000*%
%ADD12C,0.150000*%
G04 APERTURE END LIST*
D10*
X128880953Y-131726190D02*
X128714286Y-131488095D01*
X128595239Y-131726190D02*
X128595239Y-131226190D01*
X128785715Y-131226190D01*
X128833334Y-131250000D01*
X128857143Y-131273810D01*
X128880953Y-131321429D01*
X128880953Y-131392857D01*
X128857143Y-131440476D01*
X128833334Y-131464286D01*
X128785715Y-131488095D01*
X128595239Y-131488095D01*
X129285715Y-131702381D02*
X129238096Y-131726190D01*
X129142858Y-131726190D01*
X129095239Y-131702381D01*
X129071429Y-131654762D01*
X129071429Y-131464286D01*
X129095239Y-131416667D01*
X129142858Y-131392857D01*
X129238096Y-131392857D01*
X129285715Y-131416667D01*
X129309524Y-131464286D01*
X129309524Y-131511905D01*
X129071429Y-131559524D01*
X129738095Y-131726190D02*
X129738095Y-131464286D01*
X129714286Y-131416667D01*
X129666667Y-131392857D01*
X129571429Y-131392857D01*
X129523810Y-131416667D01*
X129738095Y-131702381D02*
X129690476Y-131726190D01*
X129571429Y-131726190D01*
X129523810Y-131702381D01*
X129500000Y-131654762D01*
X129500000Y-131607143D01*
X129523810Y-131559524D01*
X129571429Y-131535714D01*
X129690476Y-131535714D01*
X129738095Y-131511905D01*
X130190476Y-131726190D02*
X130190476Y-131226190D01*
X130190476Y-131702381D02*
X130142857Y-131726190D01*
X130047619Y-131726190D01*
X130000000Y-131702381D01*
X129976191Y-131678571D01*
X129952381Y-131630952D01*
X129952381Y-131488095D01*
X129976191Y-131440476D01*
X130000000Y-131416667D01*
X130047619Y-131392857D01*
X130142857Y-131392857D01*
X130190476Y-131416667D01*
X130619048Y-131702381D02*
X130571429Y-131726190D01*
X130476191Y-131726190D01*
X130428572Y-131702381D01*
X130404762Y-131654762D01*
X130404762Y-131464286D01*
X130428572Y-131416667D01*
X130476191Y-131392857D01*
X130571429Y-131392857D01*
X130619048Y-131416667D01*
X130642857Y-131464286D01*
X130642857Y-131511905D01*
X130404762Y-131559524D01*
X130857143Y-131726190D02*
X130857143Y-131392857D01*
X130857143Y-131488095D02*
X130880952Y-131440476D01*
X130904762Y-131416667D01*
X130952381Y-131392857D01*
X131000000Y-131392857D01*
X131428571Y-131726190D02*
X131142857Y-131726190D01*
X131285714Y-131726190D02*
X131285714Y-131226190D01*
X131238095Y-131297619D01*
X131190476Y-131345238D01*
X131142857Y-131369048D01*
D11*
X122575000Y-174392857D02*
X122503571Y-174535714D01*
X122503571Y-174750000D01*
X122575000Y-174964285D01*
X122717857Y-175107143D01*
X122860714Y-175178571D01*
X123146429Y-175250000D01*
X123360714Y-175250000D01*
X123646429Y-175178571D01*
X123789286Y-175107143D01*
X123932143Y-174964285D01*
X124003571Y-174750000D01*
X124003571Y-174607143D01*
X123932143Y-174392857D01*
X123860714Y-174321428D01*
X123360714Y-174321428D01*
X123360714Y-174607143D01*
X124003571Y-173678571D02*
X122503571Y-173678571D01*
X124003571Y-172821428D01*
X122503571Y-172821428D01*
X124003571Y-172107142D02*
X122503571Y-172107142D01*
X122503571Y-171749999D01*
X122575000Y-171535714D01*
X122717857Y-171392856D01*
X122860714Y-171321428D01*
X123146429Y-171249999D01*
X123360714Y-171249999D01*
X123646429Y-171321428D01*
X123789286Y-171392856D01*
X123932143Y-171535714D01*
X124003571Y-171749999D01*
X124003571Y-172107142D01*
X126453571Y-174249999D02*
X125739286Y-174749999D01*
X126453571Y-175107142D02*
X124953571Y-175107142D01*
X124953571Y-174535714D01*
X125025000Y-174392856D01*
X125096429Y-174321428D01*
X125239286Y-174249999D01*
X125453571Y-174249999D01*
X125596429Y-174321428D01*
X125667857Y-174392856D01*
X125739286Y-174535714D01*
X125739286Y-175107142D01*
X126453571Y-173607142D02*
X124953571Y-173607142D01*
X124953571Y-173249999D01*
X125025000Y-173035714D01*
X125167857Y-172892856D01*
X125310714Y-172821428D01*
X125596429Y-172749999D01*
X125810714Y-172749999D01*
X126096429Y-172821428D01*
X126239286Y-172892856D01*
X126382143Y-173035714D01*
X126453571Y-173249999D01*
X126453571Y-173607142D01*
X126453571Y-171321428D02*
X126453571Y-172178571D01*
X126453571Y-171749999D02*
X124953571Y-171749999D01*
X125167857Y-171892856D01*
X125310714Y-172035714D01*
X125382143Y-172178571D01*
X128903571Y-174249999D02*
X128189286Y-174749999D01*
X128903571Y-175107142D02*
X127403571Y-175107142D01*
X127403571Y-174535714D01*
X127475000Y-174392856D01*
X127546429Y-174321428D01*
X127689286Y-174249999D01*
X127903571Y-174249999D01*
X128046429Y-174321428D01*
X128117857Y-174392856D01*
X128189286Y-174535714D01*
X128189286Y-175107142D01*
X128903571Y-173607142D02*
X127403571Y-173607142D01*
X127403571Y-173249999D01*
X127475000Y-173035714D01*
X127617857Y-172892856D01*
X127760714Y-172821428D01*
X128046429Y-172749999D01*
X128260714Y-172749999D01*
X128546429Y-172821428D01*
X128689286Y-172892856D01*
X128832143Y-173035714D01*
X128903571Y-173249999D01*
X128903571Y-173607142D01*
X127546429Y-172178571D02*
X127475000Y-172107142D01*
X127403571Y-171964285D01*
X127403571Y-171607142D01*
X127475000Y-171464285D01*
X127546429Y-171392856D01*
X127689286Y-171321428D01*
X127832143Y-171321428D01*
X128046429Y-171392856D01*
X128903571Y-172249999D01*
X128903571Y-171321428D01*
X129853571Y-175178571D02*
X131353571Y-174678571D01*
X129853571Y-174178571D01*
X129853571Y-173821428D02*
X129853571Y-172892857D01*
X130425000Y-173392857D01*
X130425000Y-173178571D01*
X130496429Y-173035714D01*
X130567857Y-172964285D01*
X130710714Y-172892857D01*
X131067857Y-172892857D01*
X131210714Y-172964285D01*
X131282143Y-173035714D01*
X131353571Y-173178571D01*
X131353571Y-173607143D01*
X131282143Y-173750000D01*
X131210714Y-173821428D01*
X129853571Y-172392857D02*
X129853571Y-171464286D01*
X130425000Y-171964286D01*
X130425000Y-171750000D01*
X130496429Y-171607143D01*
X130567857Y-171535714D01*
X130710714Y-171464286D01*
X131067857Y-171464286D01*
X131210714Y-171535714D01*
X131282143Y-171607143D01*
X131353571Y-171750000D01*
X131353571Y-172178572D01*
X131282143Y-172321429D01*
X131210714Y-172392857D01*
X123500000Y-174000000D02*
X123500000Y-164000000D01*
X133500000Y-174000000D02*
X123500000Y-174000000D01*
X133500000Y-164000000D02*
X133500000Y-174000000D01*
D12*
X130925000Y-135500000D02*
X130925000Y-133500000D01*
X133075000Y-133500000D02*
X133075000Y-135500000D01*
X130075000Y-133500000D02*
X130075000Y-135500000D01*
X127925000Y-135500000D02*
X127925000Y-133500000D01*
X125575000Y-134500000D02*
X125575000Y-136500000D01*
X123425000Y-136500000D02*
X123425000Y-134500000D01*
X120925000Y-138500000D02*
X120925000Y-136500000D01*
X123075000Y-136500000D02*
X123075000Y-138500000D01*
X124460000Y-179070000D02*
X132080000Y-179070000D01*
X124460000Y-176530000D02*
X132080000Y-176530000D01*
X121640000Y-176250000D02*
X123190000Y-176250000D01*
X132080000Y-179070000D02*
X132080000Y-176530000D01*
X124460000Y-176530000D02*
X124460000Y-179070000D01*
X123190000Y-179350000D02*
X121640000Y-179350000D01*
X121640000Y-179350000D02*
X121640000Y-176250000D01*
X124984000Y-161968000D02*
X124984000Y-163238000D01*
X125771400Y-162717300D02*
X125733300Y-162463300D01*
X125733300Y-162463300D02*
X125555500Y-162183900D01*
X125555500Y-162183900D02*
X125238000Y-161968000D01*
X125238000Y-161968000D02*
X124793500Y-161955300D01*
X124793500Y-161955300D02*
X124437900Y-162158500D01*
X124437900Y-162158500D02*
X124260100Y-162450600D01*
X124260100Y-162450600D02*
X124209300Y-162768100D01*
X124209300Y-162768100D02*
X124310900Y-163174500D01*
X124310900Y-163174500D02*
X124653800Y-163428500D01*
X124653800Y-163428500D02*
X124831600Y-163517400D01*
X133366000Y-165778000D02*
X123714000Y-165778000D01*
X123714000Y-162730000D02*
X123714000Y-161460000D01*
X123714000Y-161460000D02*
X133366000Y-161460000D01*
X133366000Y-161460000D02*
X133366000Y-166540000D01*
X123714000Y-166540000D02*
X123714000Y-164000000D01*
X123714000Y-164000000D02*
X123714000Y-162730000D01*
X130500000Y-157975000D02*
X128500000Y-157975000D01*
X128500000Y-160025000D02*
X130500000Y-160025000D01*
X132850000Y-155500000D02*
X132850000Y-154500000D01*
X131150000Y-154500000D02*
X131150000Y-155500000D01*
X122850000Y-155500000D02*
X122850000Y-154500000D01*
X121150000Y-154500000D02*
X121150000Y-155500000D01*
X122750000Y-152600000D02*
X122750000Y-149900000D01*
X121250000Y-152600000D02*
X121250000Y-149900000D01*
X122150000Y-151100000D02*
X121900000Y-151100000D01*
X121900000Y-151100000D02*
X122050000Y-151250000D01*
X121650000Y-151350000D02*
X122350000Y-151350000D01*
X122000000Y-151000000D02*
X122000000Y-150650000D01*
X122000000Y-151350000D02*
X121650000Y-151000000D01*
X121650000Y-151000000D02*
X122350000Y-151000000D01*
X122350000Y-151000000D02*
X122000000Y-151350000D01*
X123075000Y-145000000D02*
X123075000Y-147000000D01*
X120925000Y-147000000D02*
X120925000Y-145000000D01*
X133075000Y-145000000D02*
X133075000Y-147000000D01*
X130925000Y-147000000D02*
X130925000Y-145000000D01*
X132750000Y-152600000D02*
X132750000Y-149900000D01*
X131250000Y-152600000D02*
X131250000Y-149900000D01*
X132150000Y-151100000D02*
X131900000Y-151100000D01*
X131900000Y-151100000D02*
X132050000Y-151250000D01*
X131650000Y-151350000D02*
X132350000Y-151350000D01*
X132000000Y-151000000D02*
X132000000Y-150650000D01*
X132000000Y-151350000D02*
X131650000Y-151000000D01*
X131650000Y-151000000D02*
X132350000Y-151000000D01*
X132350000Y-151000000D02*
X132000000Y-151350000D01*
X127925000Y-147000000D02*
X127925000Y-145000000D01*
X130075000Y-145000000D02*
X130075000Y-147000000D01*
X123925000Y-147000000D02*
X123925000Y-145000000D01*
X126075000Y-145000000D02*
X126075000Y-147000000D01*
X124000000Y-159850000D02*
X125000000Y-159850000D01*
X125000000Y-158150000D02*
X124000000Y-158150000D01*
D10*
X131770000Y-129750000D02*
G75*
G03X131770000Y-129750000I-500000J0D01*
G01*
X132900000Y-131100000D02*
X132900000Y-123964214D01*
X127100000Y-123964214D02*
X127100000Y-131100000D01*
X128100000Y-132100000D02*
X131900000Y-132100000D01*
X129164214Y-121900000D02*
X130835786Y-121900000D01*
X128457107Y-122192893D02*
X127392893Y-123257107D01*
X132607107Y-123257107D02*
X131542893Y-122192893D01*
X128457107Y-122192893D02*
G75*
G02X129164214Y-121900000I707107J-707107D01*
G01*
X127100000Y-123964214D02*
G75*
G02X127392893Y-123257107I1000000J0D01*
G01*
X128100000Y-132100000D02*
G75*
G02X127100000Y-131100000I0J1000000D01*
G01*
X132900000Y-131100000D02*
G75*
G02X131900000Y-132100000I-1000000J0D01*
G01*
X132607107Y-123257107D02*
G75*
G02X132900000Y-123964214I-707107J-707107D01*
G01*
X130835786Y-121900000D02*
G75*
G02X131542893Y-122192893I0J-1000000D01*
G01*
X129350000Y-127000000D02*
X130650000Y-127000000D01*
X130000000Y-132100000D02*
X130000000Y-121900000D01*
D12*
X129575000Y-150925000D02*
X129430000Y-150925000D01*
X129575000Y-155075000D02*
X129430000Y-155075000D01*
X124425000Y-155075000D02*
X124570000Y-155075000D01*
X124425000Y-150925000D02*
X124570000Y-150925000D01*
X129575000Y-150925000D02*
X129575000Y-155075000D01*
X124425000Y-150925000D02*
X124425000Y-155075000D01*
X129430000Y-150925000D02*
X129430000Y-149525000D01*
D10*
X133726190Y-134583333D02*
X133488095Y-134750000D01*
X133726190Y-134869047D02*
X133226190Y-134869047D01*
X133226190Y-134678571D01*
X133250000Y-134630952D01*
X133273810Y-134607143D01*
X133321429Y-134583333D01*
X133392857Y-134583333D01*
X133440476Y-134607143D01*
X133464286Y-134630952D01*
X133488095Y-134678571D01*
X133488095Y-134869047D01*
X133226190Y-134416666D02*
X133226190Y-134107143D01*
X133416667Y-134273809D01*
X133416667Y-134202381D01*
X133440476Y-134154762D01*
X133464286Y-134130952D01*
X133511905Y-134107143D01*
X133630952Y-134107143D01*
X133678571Y-134130952D01*
X133702381Y-134154762D01*
X133726190Y-134202381D01*
X133726190Y-134345238D01*
X133702381Y-134392857D01*
X133678571Y-134416666D01*
X132226190Y-134845238D02*
X132226190Y-135130952D01*
X132226190Y-134988095D02*
X131726190Y-134988095D01*
X131797619Y-135035714D01*
X131845238Y-135083333D01*
X131869048Y-135130952D01*
X131726190Y-134535714D02*
X131726190Y-134488095D01*
X131750000Y-134440476D01*
X131773810Y-134416667D01*
X131821429Y-134392857D01*
X131916667Y-134369048D01*
X132035714Y-134369048D01*
X132130952Y-134392857D01*
X132178571Y-134416667D01*
X132202381Y-134440476D01*
X132226190Y-134488095D01*
X132226190Y-134535714D01*
X132202381Y-134583333D01*
X132178571Y-134607143D01*
X132130952Y-134630952D01*
X132035714Y-134654762D01*
X131916667Y-134654762D01*
X131821429Y-134630952D01*
X131773810Y-134607143D01*
X131750000Y-134583333D01*
X131726190Y-134535714D01*
X132226190Y-134154762D02*
X131726190Y-134154762D01*
X132226190Y-133869048D02*
X131940476Y-134083334D01*
X131726190Y-133869048D02*
X132011905Y-134154762D01*
X127726190Y-134583333D02*
X127488095Y-134750000D01*
X127726190Y-134869047D02*
X127226190Y-134869047D01*
X127226190Y-134678571D01*
X127250000Y-134630952D01*
X127273810Y-134607143D01*
X127321429Y-134583333D01*
X127392857Y-134583333D01*
X127440476Y-134607143D01*
X127464286Y-134630952D01*
X127488095Y-134678571D01*
X127488095Y-134869047D01*
X127273810Y-134392857D02*
X127250000Y-134369047D01*
X127226190Y-134321428D01*
X127226190Y-134202381D01*
X127250000Y-134154762D01*
X127273810Y-134130952D01*
X127321429Y-134107143D01*
X127369048Y-134107143D01*
X127440476Y-134130952D01*
X127726190Y-134416666D01*
X127726190Y-134107143D01*
X129226190Y-134845238D02*
X129226190Y-135130952D01*
X129226190Y-134988095D02*
X128726190Y-134988095D01*
X128797619Y-135035714D01*
X128845238Y-135083333D01*
X128869048Y-135130952D01*
X128726190Y-134535714D02*
X128726190Y-134488095D01*
X128750000Y-134440476D01*
X128773810Y-134416667D01*
X128821429Y-134392857D01*
X128916667Y-134369048D01*
X129035714Y-134369048D01*
X129130952Y-134392857D01*
X129178571Y-134416667D01*
X129202381Y-134440476D01*
X129226190Y-134488095D01*
X129226190Y-134535714D01*
X129202381Y-134583333D01*
X129178571Y-134607143D01*
X129130952Y-134630952D01*
X129035714Y-134654762D01*
X128916667Y-134654762D01*
X128821429Y-134630952D01*
X128773810Y-134607143D01*
X128750000Y-134583333D01*
X128726190Y-134535714D01*
X129226190Y-134154762D02*
X128726190Y-134154762D01*
X129226190Y-133869048D02*
X128940476Y-134083334D01*
X128726190Y-133869048D02*
X129011905Y-134154762D01*
X126226190Y-135583333D02*
X125988095Y-135750000D01*
X126226190Y-135869047D02*
X125726190Y-135869047D01*
X125726190Y-135678571D01*
X125750000Y-135630952D01*
X125773810Y-135607143D01*
X125821429Y-135583333D01*
X125892857Y-135583333D01*
X125940476Y-135607143D01*
X125964286Y-135630952D01*
X125988095Y-135678571D01*
X125988095Y-135869047D01*
X125726190Y-135154762D02*
X125726190Y-135250000D01*
X125750000Y-135297619D01*
X125773810Y-135321428D01*
X125845238Y-135369047D01*
X125940476Y-135392857D01*
X126130952Y-135392857D01*
X126178571Y-135369047D01*
X126202381Y-135345238D01*
X126226190Y-135297619D01*
X126226190Y-135202381D01*
X126202381Y-135154762D01*
X126178571Y-135130952D01*
X126130952Y-135107143D01*
X126011905Y-135107143D01*
X125964286Y-135130952D01*
X125940476Y-135154762D01*
X125916667Y-135202381D01*
X125916667Y-135297619D01*
X125940476Y-135345238D01*
X125964286Y-135369047D01*
X126011905Y-135392857D01*
X124726190Y-135845238D02*
X124726190Y-136130952D01*
X124726190Y-135988095D02*
X124226190Y-135988095D01*
X124297619Y-136035714D01*
X124345238Y-136083333D01*
X124369048Y-136130952D01*
X124226190Y-135535714D02*
X124226190Y-135488095D01*
X124250000Y-135440476D01*
X124273810Y-135416667D01*
X124321429Y-135392857D01*
X124416667Y-135369048D01*
X124535714Y-135369048D01*
X124630952Y-135392857D01*
X124678571Y-135416667D01*
X124702381Y-135440476D01*
X124726190Y-135488095D01*
X124726190Y-135535714D01*
X124702381Y-135583333D01*
X124678571Y-135607143D01*
X124630952Y-135630952D01*
X124535714Y-135654762D01*
X124416667Y-135654762D01*
X124321429Y-135630952D01*
X124273810Y-135607143D01*
X124250000Y-135583333D01*
X124226190Y-135535714D01*
X124726190Y-135154762D02*
X124226190Y-135154762D01*
X124726190Y-134869048D02*
X124440476Y-135083334D01*
X124226190Y-134869048D02*
X124511905Y-135154762D01*
X120726190Y-137583333D02*
X120488095Y-137750000D01*
X120726190Y-137869047D02*
X120226190Y-137869047D01*
X120226190Y-137678571D01*
X120250000Y-137630952D01*
X120273810Y-137607143D01*
X120321429Y-137583333D01*
X120392857Y-137583333D01*
X120440476Y-137607143D01*
X120464286Y-137630952D01*
X120488095Y-137678571D01*
X120488095Y-137869047D01*
X120226190Y-137416666D02*
X120226190Y-137083333D01*
X120726190Y-137297619D01*
X122226190Y-137845238D02*
X122226190Y-138130952D01*
X122226190Y-137988095D02*
X121726190Y-137988095D01*
X121797619Y-138035714D01*
X121845238Y-138083333D01*
X121869048Y-138130952D01*
X121726190Y-137535714D02*
X121726190Y-137488095D01*
X121750000Y-137440476D01*
X121773810Y-137416667D01*
X121821429Y-137392857D01*
X121916667Y-137369048D01*
X122035714Y-137369048D01*
X122130952Y-137392857D01*
X122178571Y-137416667D01*
X122202381Y-137440476D01*
X122226190Y-137488095D01*
X122226190Y-137535714D01*
X122202381Y-137583333D01*
X122178571Y-137607143D01*
X122130952Y-137630952D01*
X122035714Y-137654762D01*
X121916667Y-137654762D01*
X121821429Y-137630952D01*
X121773810Y-137607143D01*
X121750000Y-137583333D01*
X121726190Y-137535714D01*
X122226190Y-137154762D02*
X121726190Y-137154762D01*
X122226190Y-136869048D02*
X121940476Y-137083334D01*
X121726190Y-136869048D02*
X122011905Y-137154762D01*
X128702382Y-162226190D02*
X128535715Y-161988095D01*
X128416668Y-162226190D02*
X128416668Y-161726190D01*
X128607144Y-161726190D01*
X128654763Y-161750000D01*
X128678572Y-161773810D01*
X128702382Y-161821429D01*
X128702382Y-161892857D01*
X128678572Y-161940476D01*
X128654763Y-161964286D01*
X128607144Y-161988095D01*
X128416668Y-161988095D01*
X128845239Y-161726190D02*
X129011906Y-162226190D01*
X129178572Y-161726190D01*
X129607143Y-162226190D02*
X129321429Y-162226190D01*
X129464286Y-162226190D02*
X129464286Y-161726190D01*
X129416667Y-161797619D01*
X129369048Y-161845238D01*
X129321429Y-161869048D01*
X127301905Y-166766190D02*
X127016191Y-166766190D01*
X127159048Y-166766190D02*
X127159048Y-166266190D01*
X127111429Y-166337619D01*
X127063810Y-166385238D01*
X127016191Y-166409048D01*
X127611429Y-166266190D02*
X127659048Y-166266190D01*
X127706667Y-166290000D01*
X127730476Y-166313810D01*
X127754286Y-166361429D01*
X127778095Y-166456667D01*
X127778095Y-166575714D01*
X127754286Y-166670952D01*
X127730476Y-166718571D01*
X127706667Y-166742381D01*
X127659048Y-166766190D01*
X127611429Y-166766190D01*
X127563810Y-166742381D01*
X127540000Y-166718571D01*
X127516191Y-166670952D01*
X127492381Y-166575714D01*
X127492381Y-166456667D01*
X127516191Y-166361429D01*
X127540000Y-166313810D01*
X127563810Y-166290000D01*
X127611429Y-166266190D01*
X127992381Y-166766190D02*
X127992381Y-166266190D01*
X128278095Y-166766190D02*
X128063809Y-166480476D01*
X128278095Y-166266190D02*
X127992381Y-166551905D01*
X128873333Y-166766190D02*
X128873333Y-166266190D01*
X129063809Y-166266190D01*
X129111428Y-166290000D01*
X129135237Y-166313810D01*
X129159047Y-166361429D01*
X129159047Y-166432857D01*
X129135237Y-166480476D01*
X129111428Y-166504286D01*
X129063809Y-166528095D01*
X128873333Y-166528095D01*
X129468571Y-166266190D02*
X129563809Y-166266190D01*
X129611428Y-166290000D01*
X129659047Y-166337619D01*
X129682856Y-166432857D01*
X129682856Y-166599524D01*
X129659047Y-166694762D01*
X129611428Y-166742381D01*
X129563809Y-166766190D01*
X129468571Y-166766190D01*
X129420952Y-166742381D01*
X129373333Y-166694762D01*
X129349523Y-166599524D01*
X129349523Y-166432857D01*
X129373333Y-166337619D01*
X129420952Y-166290000D01*
X129468571Y-166266190D01*
X129825714Y-166266190D02*
X130111428Y-166266190D01*
X129968571Y-166766190D02*
X129968571Y-166266190D01*
X132416667Y-159178571D02*
X132392857Y-159202381D01*
X132321429Y-159226190D01*
X132273810Y-159226190D01*
X132202381Y-159202381D01*
X132154762Y-159154762D01*
X132130953Y-159107143D01*
X132107143Y-159011905D01*
X132107143Y-158940476D01*
X132130953Y-158845238D01*
X132154762Y-158797619D01*
X132202381Y-158750000D01*
X132273810Y-158726190D01*
X132321429Y-158726190D01*
X132392857Y-158750000D01*
X132416667Y-158773810D01*
X132892857Y-159226190D02*
X132607143Y-159226190D01*
X132750000Y-159226190D02*
X132750000Y-158726190D01*
X132702381Y-158797619D01*
X132654762Y-158845238D01*
X132607143Y-158869048D01*
X129726190Y-159535714D02*
X129726190Y-159821428D01*
X129726190Y-159678571D02*
X129226190Y-159678571D01*
X129297619Y-159726190D01*
X129345238Y-159773809D01*
X129369048Y-159821428D01*
X129226190Y-159226190D02*
X129226190Y-159178571D01*
X129250000Y-159130952D01*
X129273810Y-159107143D01*
X129321429Y-159083333D01*
X129416667Y-159059524D01*
X129535714Y-159059524D01*
X129630952Y-159083333D01*
X129678571Y-159107143D01*
X129702381Y-159130952D01*
X129726190Y-159178571D01*
X129726190Y-159226190D01*
X129702381Y-159273809D01*
X129678571Y-159297619D01*
X129630952Y-159321428D01*
X129535714Y-159345238D01*
X129416667Y-159345238D01*
X129321429Y-159321428D01*
X129273810Y-159297619D01*
X129250000Y-159273809D01*
X129226190Y-159226190D01*
X129392857Y-158630953D02*
X129726190Y-158630953D01*
X129392857Y-158845238D02*
X129654762Y-158845238D01*
X129702381Y-158821429D01*
X129726190Y-158773810D01*
X129726190Y-158702381D01*
X129702381Y-158654762D01*
X129678571Y-158630953D01*
X129464286Y-158226191D02*
X129464286Y-158392857D01*
X129726190Y-158392857D02*
X129226190Y-158392857D01*
X129226190Y-158154762D01*
X133678571Y-155083333D02*
X133702381Y-155107143D01*
X133726190Y-155178571D01*
X133726190Y-155226190D01*
X133702381Y-155297619D01*
X133654762Y-155345238D01*
X133607143Y-155369047D01*
X133511905Y-155392857D01*
X133440476Y-155392857D01*
X133345238Y-155369047D01*
X133297619Y-155345238D01*
X133250000Y-155297619D01*
X133226190Y-155226190D01*
X133226190Y-155178571D01*
X133250000Y-155107143D01*
X133273810Y-155083333D01*
X133226190Y-154916666D02*
X133226190Y-154607143D01*
X133416667Y-154773809D01*
X133416667Y-154702381D01*
X133440476Y-154654762D01*
X133464286Y-154630952D01*
X133511905Y-154607143D01*
X133630952Y-154607143D01*
X133678571Y-154630952D01*
X133702381Y-154654762D01*
X133726190Y-154702381D01*
X133726190Y-154845238D01*
X133702381Y-154892857D01*
X133678571Y-154916666D01*
X131178573Y-154726190D02*
X131226192Y-154726190D01*
X131273811Y-154750000D01*
X131297620Y-154773810D01*
X131321430Y-154821429D01*
X131345239Y-154916667D01*
X131345239Y-155035714D01*
X131321430Y-155130952D01*
X131297620Y-155178571D01*
X131273811Y-155202381D01*
X131226192Y-155226190D01*
X131178573Y-155226190D01*
X131130954Y-155202381D01*
X131107144Y-155178571D01*
X131083335Y-155130952D01*
X131059525Y-155035714D01*
X131059525Y-154916667D01*
X131083335Y-154821429D01*
X131107144Y-154773810D01*
X131130954Y-154750000D01*
X131178573Y-154726190D01*
X131559525Y-155178571D02*
X131583334Y-155202381D01*
X131559525Y-155226190D01*
X131535715Y-155202381D01*
X131559525Y-155178571D01*
X131559525Y-155226190D01*
X132059524Y-155226190D02*
X131773810Y-155226190D01*
X131916667Y-155226190D02*
X131916667Y-154726190D01*
X131869048Y-154797619D01*
X131821429Y-154845238D01*
X131773810Y-154869048D01*
X132488095Y-154892857D02*
X132488095Y-155226190D01*
X132273810Y-154892857D02*
X132273810Y-155154762D01*
X132297619Y-155202381D01*
X132345238Y-155226190D01*
X132416667Y-155226190D01*
X132464286Y-155202381D01*
X132488095Y-155178571D01*
X132892857Y-154964286D02*
X132726191Y-154964286D01*
X132726191Y-155226190D02*
X132726191Y-154726190D01*
X132964286Y-154726190D01*
X120678571Y-155083333D02*
X120702381Y-155107143D01*
X120726190Y-155178571D01*
X120726190Y-155226190D01*
X120702381Y-155297619D01*
X120654762Y-155345238D01*
X120607143Y-155369047D01*
X120511905Y-155392857D01*
X120440476Y-155392857D01*
X120345238Y-155369047D01*
X120297619Y-155345238D01*
X120250000Y-155297619D01*
X120226190Y-155226190D01*
X120226190Y-155178571D01*
X120250000Y-155107143D01*
X120273810Y-155083333D01*
X120392857Y-154654762D02*
X120726190Y-154654762D01*
X120202381Y-154773809D02*
X120559524Y-154892857D01*
X120559524Y-154583333D01*
X121178573Y-154726190D02*
X121226192Y-154726190D01*
X121273811Y-154750000D01*
X121297620Y-154773810D01*
X121321430Y-154821429D01*
X121345239Y-154916667D01*
X121345239Y-155035714D01*
X121321430Y-155130952D01*
X121297620Y-155178571D01*
X121273811Y-155202381D01*
X121226192Y-155226190D01*
X121178573Y-155226190D01*
X121130954Y-155202381D01*
X121107144Y-155178571D01*
X121083335Y-155130952D01*
X121059525Y-155035714D01*
X121059525Y-154916667D01*
X121083335Y-154821429D01*
X121107144Y-154773810D01*
X121130954Y-154750000D01*
X121178573Y-154726190D01*
X121559525Y-155178571D02*
X121583334Y-155202381D01*
X121559525Y-155226190D01*
X121535715Y-155202381D01*
X121559525Y-155178571D01*
X121559525Y-155226190D01*
X122059524Y-155226190D02*
X121773810Y-155226190D01*
X121916667Y-155226190D02*
X121916667Y-154726190D01*
X121869048Y-154797619D01*
X121821429Y-154845238D01*
X121773810Y-154869048D01*
X122488095Y-154892857D02*
X122488095Y-155226190D01*
X122273810Y-154892857D02*
X122273810Y-155154762D01*
X122297619Y-155202381D01*
X122345238Y-155226190D01*
X122416667Y-155226190D01*
X122464286Y-155202381D01*
X122488095Y-155178571D01*
X122892857Y-154964286D02*
X122726191Y-154964286D01*
X122726191Y-155226190D02*
X122726191Y-154726190D01*
X122964286Y-154726190D01*
X120726190Y-151369047D02*
X120226190Y-151369047D01*
X120226190Y-151250000D01*
X120250000Y-151178571D01*
X120297619Y-151130952D01*
X120345238Y-151107143D01*
X120440476Y-151083333D01*
X120511905Y-151083333D01*
X120607143Y-151107143D01*
X120654762Y-151130952D01*
X120702381Y-151178571D01*
X120726190Y-151250000D01*
X120726190Y-151369047D01*
X120273810Y-150892857D02*
X120250000Y-150869047D01*
X120226190Y-150821428D01*
X120226190Y-150702381D01*
X120250000Y-150654762D01*
X120273810Y-150630952D01*
X120321429Y-150607143D01*
X120369048Y-150607143D01*
X120440476Y-150630952D01*
X120726190Y-150916666D01*
X120726190Y-150607143D01*
X120726190Y-146083333D02*
X120488095Y-146250000D01*
X120726190Y-146369047D02*
X120226190Y-146369047D01*
X120226190Y-146178571D01*
X120250000Y-146130952D01*
X120273810Y-146107143D01*
X120321429Y-146083333D01*
X120392857Y-146083333D01*
X120440476Y-146107143D01*
X120464286Y-146130952D01*
X120488095Y-146178571D01*
X120488095Y-146369047D01*
X120440476Y-145797619D02*
X120416667Y-145845238D01*
X120392857Y-145869047D01*
X120345238Y-145892857D01*
X120321429Y-145892857D01*
X120273810Y-145869047D01*
X120250000Y-145845238D01*
X120226190Y-145797619D01*
X120226190Y-145702381D01*
X120250000Y-145654762D01*
X120273810Y-145630952D01*
X120321429Y-145607143D01*
X120345238Y-145607143D01*
X120392857Y-145630952D01*
X120416667Y-145654762D01*
X120440476Y-145702381D01*
X120440476Y-145797619D01*
X120464286Y-145845238D01*
X120488095Y-145869047D01*
X120535714Y-145892857D01*
X120630952Y-145892857D01*
X120678571Y-145869047D01*
X120702381Y-145845238D01*
X120726190Y-145797619D01*
X120726190Y-145702381D01*
X120702381Y-145654762D01*
X120678571Y-145630952D01*
X120630952Y-145607143D01*
X120535714Y-145607143D01*
X120488095Y-145630952D01*
X120464286Y-145654762D01*
X120440476Y-145702381D01*
X122226190Y-146107143D02*
X122226190Y-146392857D01*
X122226190Y-146250000D02*
X121726190Y-146250000D01*
X121797619Y-146297619D01*
X121845238Y-146345238D01*
X121869048Y-146392857D01*
X122226190Y-145892857D02*
X121726190Y-145892857D01*
X122226190Y-145607143D02*
X121940476Y-145821429D01*
X121726190Y-145607143D02*
X122011905Y-145892857D01*
X133726190Y-146083333D02*
X133488095Y-146250000D01*
X133726190Y-146369047D02*
X133226190Y-146369047D01*
X133226190Y-146178571D01*
X133250000Y-146130952D01*
X133273810Y-146107143D01*
X133321429Y-146083333D01*
X133392857Y-146083333D01*
X133440476Y-146107143D01*
X133464286Y-146130952D01*
X133488095Y-146178571D01*
X133488095Y-146369047D01*
X133392857Y-145654762D02*
X133726190Y-145654762D01*
X133202381Y-145773809D02*
X133559524Y-145892857D01*
X133559524Y-145583333D01*
X132226190Y-146107143D02*
X132226190Y-146392857D01*
X132226190Y-146250000D02*
X131726190Y-146250000D01*
X131797619Y-146297619D01*
X131845238Y-146345238D01*
X131869048Y-146392857D01*
X132226190Y-145892857D02*
X131726190Y-145892857D01*
X132226190Y-145607143D02*
X131940476Y-145821429D01*
X131726190Y-145607143D02*
X132011905Y-145892857D01*
X133726190Y-151369047D02*
X133226190Y-151369047D01*
X133226190Y-151250000D01*
X133250000Y-151178571D01*
X133297619Y-151130952D01*
X133345238Y-151107143D01*
X133440476Y-151083333D01*
X133511905Y-151083333D01*
X133607143Y-151107143D01*
X133654762Y-151130952D01*
X133702381Y-151178571D01*
X133726190Y-151250000D01*
X133726190Y-151369047D01*
X133726190Y-150607143D02*
X133726190Y-150892857D01*
X133726190Y-150750000D02*
X133226190Y-150750000D01*
X133297619Y-150797619D01*
X133345238Y-150845238D01*
X133369048Y-150892857D01*
X127726190Y-146083333D02*
X127488095Y-146250000D01*
X127726190Y-146369047D02*
X127226190Y-146369047D01*
X127226190Y-146178571D01*
X127250000Y-146130952D01*
X127273810Y-146107143D01*
X127321429Y-146083333D01*
X127392857Y-146083333D01*
X127440476Y-146107143D01*
X127464286Y-146130952D01*
X127488095Y-146178571D01*
X127488095Y-146369047D01*
X127726190Y-145607143D02*
X127726190Y-145892857D01*
X127726190Y-145750000D02*
X127226190Y-145750000D01*
X127297619Y-145797619D01*
X127345238Y-145845238D01*
X127369048Y-145892857D01*
X129226190Y-146107143D02*
X129226190Y-146392857D01*
X129226190Y-146250000D02*
X128726190Y-146250000D01*
X128797619Y-146297619D01*
X128845238Y-146345238D01*
X128869048Y-146392857D01*
X129226190Y-145892857D02*
X128726190Y-145892857D01*
X129226190Y-145607143D02*
X128940476Y-145821429D01*
X128726190Y-145607143D02*
X129011905Y-145892857D01*
X126726190Y-146083333D02*
X126488095Y-146250000D01*
X126726190Y-146369047D02*
X126226190Y-146369047D01*
X126226190Y-146178571D01*
X126250000Y-146130952D01*
X126273810Y-146107143D01*
X126321429Y-146083333D01*
X126392857Y-146083333D01*
X126440476Y-146107143D01*
X126464286Y-146130952D01*
X126488095Y-146178571D01*
X126488095Y-146369047D01*
X126226190Y-145630952D02*
X126226190Y-145869047D01*
X126464286Y-145892857D01*
X126440476Y-145869047D01*
X126416667Y-145821428D01*
X126416667Y-145702381D01*
X126440476Y-145654762D01*
X126464286Y-145630952D01*
X126511905Y-145607143D01*
X126630952Y-145607143D01*
X126678571Y-145630952D01*
X126702381Y-145654762D01*
X126726190Y-145702381D01*
X126726190Y-145821428D01*
X126702381Y-145869047D01*
X126678571Y-145892857D01*
X125226190Y-146107143D02*
X125226190Y-146392857D01*
X125226190Y-146250000D02*
X124726190Y-146250000D01*
X124797619Y-146297619D01*
X124845238Y-146345238D01*
X124869048Y-146392857D01*
X125226190Y-145892857D02*
X124726190Y-145892857D01*
X125226190Y-145607143D02*
X124940476Y-145821429D01*
X124726190Y-145607143D02*
X125011905Y-145892857D01*
X121916667Y-159178571D02*
X121892857Y-159202381D01*
X121821429Y-159226190D01*
X121773810Y-159226190D01*
X121702381Y-159202381D01*
X121654762Y-159154762D01*
X121630953Y-159107143D01*
X121607143Y-159011905D01*
X121607143Y-158940476D01*
X121630953Y-158845238D01*
X121654762Y-158797619D01*
X121702381Y-158750000D01*
X121773810Y-158726190D01*
X121821429Y-158726190D01*
X121892857Y-158750000D01*
X121916667Y-158773810D01*
X122107143Y-158773810D02*
X122130953Y-158750000D01*
X122178572Y-158726190D01*
X122297619Y-158726190D01*
X122345238Y-158750000D01*
X122369048Y-158773810D01*
X122392857Y-158821429D01*
X122392857Y-158869048D01*
X122369048Y-158940476D01*
X122083334Y-159226190D01*
X122392857Y-159226190D01*
X124226190Y-159821427D02*
X124226190Y-159773808D01*
X124250000Y-159726189D01*
X124273810Y-159702380D01*
X124321429Y-159678570D01*
X124416667Y-159654761D01*
X124535714Y-159654761D01*
X124630952Y-159678570D01*
X124678571Y-159702380D01*
X124702381Y-159726189D01*
X124726190Y-159773808D01*
X124726190Y-159821427D01*
X124702381Y-159869046D01*
X124678571Y-159892856D01*
X124630952Y-159916665D01*
X124535714Y-159940475D01*
X124416667Y-159940475D01*
X124321429Y-159916665D01*
X124273810Y-159892856D01*
X124250000Y-159869046D01*
X124226190Y-159821427D01*
X124678571Y-159440475D02*
X124702381Y-159416666D01*
X124726190Y-159440475D01*
X124702381Y-159464285D01*
X124678571Y-159440475D01*
X124726190Y-159440475D01*
X124726190Y-158940476D02*
X124726190Y-159226190D01*
X124726190Y-159083333D02*
X124226190Y-159083333D01*
X124297619Y-159130952D01*
X124345238Y-159178571D01*
X124369048Y-159226190D01*
X124392857Y-158511905D02*
X124726190Y-158511905D01*
X124392857Y-158726190D02*
X124654762Y-158726190D01*
X124702381Y-158702381D01*
X124726190Y-158654762D01*
X124726190Y-158583333D01*
X124702381Y-158535714D01*
X124678571Y-158511905D01*
X124464286Y-158107143D02*
X124464286Y-158273809D01*
X124726190Y-158273809D02*
X124226190Y-158273809D01*
X124226190Y-158035714D01*
X129619048Y-127226190D02*
X129619048Y-127630952D01*
X129642857Y-127678571D01*
X129666667Y-127702381D01*
X129714286Y-127726190D01*
X129809524Y-127726190D01*
X129857143Y-127702381D01*
X129880952Y-127678571D01*
X129904762Y-127630952D01*
X129904762Y-127226190D01*
X130404762Y-127726190D02*
X130119048Y-127726190D01*
X130261905Y-127726190D02*
X130261905Y-127226190D01*
X130214286Y-127297619D01*
X130166667Y-127345238D01*
X130119048Y-127369048D01*
X133726190Y-128785713D02*
X133726190Y-128499999D01*
X134226190Y-128642856D02*
X133726190Y-128642856D01*
X134178571Y-128047618D02*
X134202381Y-128071428D01*
X134226190Y-128142856D01*
X134226190Y-128190475D01*
X134202381Y-128261904D01*
X134154762Y-128309523D01*
X134107143Y-128333332D01*
X134011905Y-128357142D01*
X133940476Y-128357142D01*
X133845238Y-128333332D01*
X133797619Y-128309523D01*
X133750000Y-128261904D01*
X133726190Y-128190475D01*
X133726190Y-128142856D01*
X133750000Y-128071428D01*
X133773810Y-128047618D01*
X134226190Y-127547618D02*
X133988095Y-127714285D01*
X134226190Y-127833332D02*
X133726190Y-127833332D01*
X133726190Y-127642856D01*
X133750000Y-127595237D01*
X133773810Y-127571428D01*
X133821429Y-127547618D01*
X133892857Y-127547618D01*
X133940476Y-127571428D01*
X133964286Y-127595237D01*
X133988095Y-127642856D01*
X133988095Y-127833332D01*
X133726190Y-127404761D02*
X133726190Y-127119047D01*
X134226190Y-127261904D02*
X133726190Y-127261904D01*
X133726190Y-126714285D02*
X133726190Y-126952380D01*
X133964286Y-126976190D01*
X133940476Y-126952380D01*
X133916667Y-126904761D01*
X133916667Y-126785714D01*
X133940476Y-126738095D01*
X133964286Y-126714285D01*
X134011905Y-126690476D01*
X134130952Y-126690476D01*
X134178571Y-126714285D01*
X134202381Y-126738095D01*
X134226190Y-126785714D01*
X134226190Y-126904761D01*
X134202381Y-126952380D01*
X134178571Y-126976190D01*
X133726190Y-126380952D02*
X133726190Y-126333333D01*
X133750000Y-126285714D01*
X133773810Y-126261905D01*
X133821429Y-126238095D01*
X133916667Y-126214286D01*
X134035714Y-126214286D01*
X134130952Y-126238095D01*
X134178571Y-126261905D01*
X134202381Y-126285714D01*
X134226190Y-126333333D01*
X134226190Y-126380952D01*
X134202381Y-126428571D01*
X134178571Y-126452381D01*
X134130952Y-126476190D01*
X134035714Y-126500000D01*
X133916667Y-126500000D01*
X133821429Y-126476190D01*
X133773810Y-126452381D01*
X133750000Y-126428571D01*
X133726190Y-126380952D01*
X133726190Y-125904762D02*
X133726190Y-125857143D01*
X133750000Y-125809524D01*
X133773810Y-125785715D01*
X133821429Y-125761905D01*
X133916667Y-125738096D01*
X134035714Y-125738096D01*
X134130952Y-125761905D01*
X134178571Y-125785715D01*
X134202381Y-125809524D01*
X134226190Y-125857143D01*
X134226190Y-125904762D01*
X134202381Y-125952381D01*
X134178571Y-125976191D01*
X134130952Y-126000000D01*
X134035714Y-126023810D01*
X133916667Y-126023810D01*
X133821429Y-126000000D01*
X133773810Y-125976191D01*
X133750000Y-125952381D01*
X133726190Y-125904762D01*
X133726190Y-125428572D02*
X133726190Y-125380953D01*
X133750000Y-125333334D01*
X133773810Y-125309525D01*
X133821429Y-125285715D01*
X133916667Y-125261906D01*
X134035714Y-125261906D01*
X134130952Y-125285715D01*
X134178571Y-125309525D01*
X134202381Y-125333334D01*
X134226190Y-125380953D01*
X134226190Y-125428572D01*
X134202381Y-125476191D01*
X134178571Y-125500001D01*
X134130952Y-125523810D01*
X134035714Y-125547620D01*
X133916667Y-125547620D01*
X133821429Y-125523810D01*
X133773810Y-125500001D01*
X133750000Y-125476191D01*
X133726190Y-125428572D01*
X129976190Y-153380952D02*
X130380952Y-153380952D01*
X130428571Y-153357143D01*
X130452381Y-153333333D01*
X130476190Y-153285714D01*
X130476190Y-153190476D01*
X130452381Y-153142857D01*
X130428571Y-153119048D01*
X130380952Y-153095238D01*
X129976190Y-153095238D01*
X129976190Y-152904761D02*
X129976190Y-152595238D01*
X130166667Y-152761904D01*
X130166667Y-152690476D01*
X130190476Y-152642857D01*
X130214286Y-152619047D01*
X130261905Y-152595238D01*
X130380952Y-152595238D01*
X130428571Y-152619047D01*
X130452381Y-152642857D01*
X130476190Y-152690476D01*
X130476190Y-152833333D01*
X130452381Y-152880952D01*
X130428571Y-152904761D01*
X127226190Y-153845237D02*
X127226190Y-154083332D01*
X126726190Y-154083332D01*
X127226190Y-153678570D02*
X126726190Y-153678570D01*
X127083333Y-153511904D01*
X126726190Y-153345237D01*
X127226190Y-153345237D01*
X126726190Y-153154760D02*
X126726190Y-152845237D01*
X126916667Y-153011903D01*
X126916667Y-152940475D01*
X126940476Y-152892856D01*
X126964286Y-152869046D01*
X127011905Y-152845237D01*
X127130952Y-152845237D01*
X127178571Y-152869046D01*
X127202381Y-152892856D01*
X127226190Y-152940475D01*
X127226190Y-153083332D01*
X127202381Y-153130951D01*
X127178571Y-153154760D01*
X127226190Y-152607142D02*
X127226190Y-152511904D01*
X127202381Y-152464285D01*
X127178571Y-152440475D01*
X127107143Y-152392856D01*
X127011905Y-152369047D01*
X126821429Y-152369047D01*
X126773810Y-152392856D01*
X126750000Y-152416666D01*
X126726190Y-152464285D01*
X126726190Y-152559523D01*
X126750000Y-152607142D01*
X126773810Y-152630951D01*
X126821429Y-152654761D01*
X126940476Y-152654761D01*
X126988095Y-152630951D01*
X127011905Y-152607142D01*
X127035714Y-152559523D01*
X127035714Y-152464285D01*
X127011905Y-152416666D01*
X126988095Y-152392856D01*
X126940476Y-152369047D01*
X126726190Y-152202380D02*
X126726190Y-151892857D01*
X126916667Y-152059523D01*
X126916667Y-151988095D01*
X126940476Y-151940476D01*
X126964286Y-151916666D01*
X127011905Y-151892857D01*
X127130952Y-151892857D01*
X127178571Y-151916666D01*
X127202381Y-151940476D01*
X127226190Y-151988095D01*
X127226190Y-152130952D01*
X127202381Y-152178571D01*
X127178571Y-152202380D01*
M02*
