G04 #@! TF.FileFunction,Legend,Bot*
%FSLAX46Y46*%
G04 Gerber Fmt 4.6, Leading zero omitted, Abs format (unit mm)*
G04 Created by KiCad (PCBNEW 4.0.4-stable) date 03/22/17 00:22:46*
%MOMM*%
%LPD*%
G01*
G04 APERTURE LIST*
%ADD10C,0.100000*%
%ADD11C,0.300000*%
%ADD12C,0.200000*%
%ADD13C,0.150000*%
G04 APERTURE END LIST*
D10*
X125119047Y-133726190D02*
X125285714Y-133488095D01*
X125404761Y-133726190D02*
X125404761Y-133226190D01*
X125214285Y-133226190D01*
X125166666Y-133250000D01*
X125142857Y-133273810D01*
X125119047Y-133321429D01*
X125119047Y-133392857D01*
X125142857Y-133440476D01*
X125166666Y-133464286D01*
X125214285Y-133488095D01*
X125404761Y-133488095D01*
X124714285Y-133702381D02*
X124761904Y-133726190D01*
X124857142Y-133726190D01*
X124904761Y-133702381D01*
X124928571Y-133654762D01*
X124928571Y-133464286D01*
X124904761Y-133416667D01*
X124857142Y-133392857D01*
X124761904Y-133392857D01*
X124714285Y-133416667D01*
X124690476Y-133464286D01*
X124690476Y-133511905D01*
X124928571Y-133559524D01*
X124261905Y-133726190D02*
X124261905Y-133464286D01*
X124285714Y-133416667D01*
X124333333Y-133392857D01*
X124428571Y-133392857D01*
X124476190Y-133416667D01*
X124261905Y-133702381D02*
X124309524Y-133726190D01*
X124428571Y-133726190D01*
X124476190Y-133702381D01*
X124500000Y-133654762D01*
X124500000Y-133607143D01*
X124476190Y-133559524D01*
X124428571Y-133535714D01*
X124309524Y-133535714D01*
X124261905Y-133511905D01*
X123809524Y-133726190D02*
X123809524Y-133226190D01*
X123809524Y-133702381D02*
X123857143Y-133726190D01*
X123952381Y-133726190D01*
X124000000Y-133702381D01*
X124023809Y-133678571D01*
X124047619Y-133630952D01*
X124047619Y-133488095D01*
X124023809Y-133440476D01*
X124000000Y-133416667D01*
X123952381Y-133392857D01*
X123857143Y-133392857D01*
X123809524Y-133416667D01*
X123380952Y-133702381D02*
X123428571Y-133726190D01*
X123523809Y-133726190D01*
X123571428Y-133702381D01*
X123595238Y-133654762D01*
X123595238Y-133464286D01*
X123571428Y-133416667D01*
X123523809Y-133392857D01*
X123428571Y-133392857D01*
X123380952Y-133416667D01*
X123357143Y-133464286D01*
X123357143Y-133511905D01*
X123595238Y-133559524D01*
X123142857Y-133726190D02*
X123142857Y-133392857D01*
X123142857Y-133488095D02*
X123119048Y-133440476D01*
X123095238Y-133416667D01*
X123047619Y-133392857D01*
X123000000Y-133392857D01*
X122857143Y-133273810D02*
X122833333Y-133250000D01*
X122785714Y-133226190D01*
X122666667Y-133226190D01*
X122619048Y-133250000D01*
X122595238Y-133273810D01*
X122571429Y-133321429D01*
X122571429Y-133369048D01*
X122595238Y-133440476D01*
X122880952Y-133726190D01*
X122571429Y-133726190D01*
D11*
X123700000Y-144964286D02*
X123628571Y-144821429D01*
X123628571Y-144607143D01*
X123700000Y-144392858D01*
X123842857Y-144250000D01*
X123985714Y-144178572D01*
X124271429Y-144107143D01*
X124485714Y-144107143D01*
X124771429Y-144178572D01*
X124914286Y-144250000D01*
X125057143Y-144392858D01*
X125128571Y-144607143D01*
X125128571Y-144750000D01*
X125057143Y-144964286D01*
X124985714Y-145035715D01*
X124485714Y-145035715D01*
X124485714Y-144750000D01*
X123628571Y-145964286D02*
X123628571Y-146250000D01*
X123700000Y-146392858D01*
X123842857Y-146535715D01*
X124128571Y-146607143D01*
X124628571Y-146607143D01*
X124914286Y-146535715D01*
X125057143Y-146392858D01*
X125128571Y-146250000D01*
X125128571Y-145964286D01*
X125057143Y-145821429D01*
X124914286Y-145678572D01*
X124628571Y-145607143D01*
X124128571Y-145607143D01*
X123842857Y-145678572D01*
X123700000Y-145821429D01*
X123628571Y-145964286D01*
X125128571Y-147964287D02*
X125128571Y-147250001D01*
X123628571Y-147250001D01*
X125128571Y-149321430D02*
X124414286Y-148821430D01*
X125128571Y-148464287D02*
X123628571Y-148464287D01*
X123628571Y-149035715D01*
X123700000Y-149178573D01*
X123771429Y-149250001D01*
X123914286Y-149321430D01*
X124128571Y-149321430D01*
X124271429Y-149250001D01*
X124342857Y-149178573D01*
X124414286Y-149035715D01*
X124414286Y-148464287D01*
X125057143Y-150535715D02*
X125128571Y-150392858D01*
X125128571Y-150107144D01*
X125057143Y-149964287D01*
X124914286Y-149892858D01*
X124342857Y-149892858D01*
X124200000Y-149964287D01*
X124128571Y-150107144D01*
X124128571Y-150392858D01*
X124200000Y-150535715D01*
X124342857Y-150607144D01*
X124485714Y-150607144D01*
X124628571Y-149892858D01*
X125128571Y-151892858D02*
X124342857Y-151892858D01*
X124200000Y-151821429D01*
X124128571Y-151678572D01*
X124128571Y-151392858D01*
X124200000Y-151250001D01*
X125057143Y-151892858D02*
X125128571Y-151750001D01*
X125128571Y-151392858D01*
X125057143Y-151250001D01*
X124914286Y-151178572D01*
X124771429Y-151178572D01*
X124628571Y-151250001D01*
X124557143Y-151392858D01*
X124557143Y-151750001D01*
X124485714Y-151892858D01*
X125128571Y-153250001D02*
X123628571Y-153250001D01*
X125057143Y-153250001D02*
X125128571Y-153107144D01*
X125128571Y-152821430D01*
X125057143Y-152678572D01*
X124985714Y-152607144D01*
X124842857Y-152535715D01*
X124414286Y-152535715D01*
X124271429Y-152607144D01*
X124200000Y-152678572D01*
X124128571Y-152821430D01*
X124128571Y-153107144D01*
X124200000Y-153250001D01*
X125057143Y-154535715D02*
X125128571Y-154392858D01*
X125128571Y-154107144D01*
X125057143Y-153964287D01*
X124914286Y-153892858D01*
X124342857Y-153892858D01*
X124200000Y-153964287D01*
X124128571Y-154107144D01*
X124128571Y-154392858D01*
X124200000Y-154535715D01*
X124342857Y-154607144D01*
X124485714Y-154607144D01*
X124628571Y-153892858D01*
X125128571Y-155250001D02*
X124128571Y-155250001D01*
X124414286Y-155250001D02*
X124271429Y-155321429D01*
X124200000Y-155392858D01*
X124128571Y-155535715D01*
X124128571Y-155678572D01*
X125128571Y-158178572D02*
X124414286Y-157678572D01*
X125128571Y-157321429D02*
X123628571Y-157321429D01*
X123628571Y-157892857D01*
X123700000Y-158035715D01*
X123771429Y-158107143D01*
X123914286Y-158178572D01*
X124128571Y-158178572D01*
X124271429Y-158107143D01*
X124342857Y-158035715D01*
X124414286Y-157892857D01*
X124414286Y-157321429D01*
X125057143Y-159392857D02*
X125128571Y-159250000D01*
X125128571Y-158964286D01*
X125057143Y-158821429D01*
X124914286Y-158750000D01*
X124342857Y-158750000D01*
X124200000Y-158821429D01*
X124128571Y-158964286D01*
X124128571Y-159250000D01*
X124200000Y-159392857D01*
X124342857Y-159464286D01*
X124485714Y-159464286D01*
X124628571Y-158750000D01*
X124128571Y-159964286D02*
X125128571Y-160321429D01*
X124128571Y-160678571D01*
X124700000Y-161178571D02*
X124700000Y-161892857D01*
X125128571Y-161035714D02*
X123628571Y-161535714D01*
X125128571Y-162035714D01*
X127678571Y-144607143D02*
X126178571Y-144607143D01*
X127250000Y-145107143D01*
X126178571Y-145607143D01*
X127678571Y-145607143D01*
X127678571Y-146964286D02*
X126892857Y-146964286D01*
X126750000Y-146892857D01*
X126678571Y-146750000D01*
X126678571Y-146464286D01*
X126750000Y-146321429D01*
X127607143Y-146964286D02*
X127678571Y-146821429D01*
X127678571Y-146464286D01*
X127607143Y-146321429D01*
X127464286Y-146250000D01*
X127321429Y-146250000D01*
X127178571Y-146321429D01*
X127107143Y-146464286D01*
X127107143Y-146821429D01*
X127035714Y-146964286D01*
X126678571Y-147464286D02*
X126678571Y-148035715D01*
X126178571Y-147678572D02*
X127464286Y-147678572D01*
X127607143Y-147750000D01*
X127678571Y-147892858D01*
X127678571Y-148035715D01*
X126678571Y-148321429D02*
X126678571Y-148892858D01*
X126178571Y-148535715D02*
X127464286Y-148535715D01*
X127607143Y-148607143D01*
X127678571Y-148750001D01*
X127678571Y-148892858D01*
X127678571Y-149392858D02*
X126178571Y-149392858D01*
X127678571Y-150035715D02*
X126892857Y-150035715D01*
X126750000Y-149964286D01*
X126678571Y-149821429D01*
X126678571Y-149607144D01*
X126750000Y-149464286D01*
X126821429Y-149392858D01*
X127607143Y-151321429D02*
X127678571Y-151178572D01*
X127678571Y-150892858D01*
X127607143Y-150750001D01*
X127464286Y-150678572D01*
X126892857Y-150678572D01*
X126750000Y-150750001D01*
X126678571Y-150892858D01*
X126678571Y-151178572D01*
X126750000Y-151321429D01*
X126892857Y-151392858D01*
X127035714Y-151392858D01*
X127178571Y-150678572D01*
X126678571Y-151892858D02*
X127678571Y-152178572D01*
X126964286Y-152464286D01*
X127678571Y-152750001D01*
X126678571Y-153035715D01*
X127607143Y-154678572D02*
X127678571Y-154892858D01*
X127678571Y-155250001D01*
X127607143Y-155392858D01*
X127535714Y-155464287D01*
X127392857Y-155535715D01*
X127250000Y-155535715D01*
X127107143Y-155464287D01*
X127035714Y-155392858D01*
X126964286Y-155250001D01*
X126892857Y-154964287D01*
X126821429Y-154821429D01*
X126750000Y-154750001D01*
X126607143Y-154678572D01*
X126464286Y-154678572D01*
X126321429Y-154750001D01*
X126250000Y-154821429D01*
X126178571Y-154964287D01*
X126178571Y-155321429D01*
X126250000Y-155535715D01*
X126678571Y-156035715D02*
X127678571Y-156321429D01*
X126964286Y-156607143D01*
X127678571Y-156892858D01*
X126678571Y-157178572D01*
X127678571Y-158392858D02*
X126892857Y-158392858D01*
X126750000Y-158321429D01*
X126678571Y-158178572D01*
X126678571Y-157892858D01*
X126750000Y-157750001D01*
X127607143Y-158392858D02*
X127678571Y-158250001D01*
X127678571Y-157892858D01*
X127607143Y-157750001D01*
X127464286Y-157678572D01*
X127321429Y-157678572D01*
X127178571Y-157750001D01*
X127107143Y-157892858D01*
X127107143Y-158250001D01*
X127035714Y-158392858D01*
X127678571Y-159107144D02*
X126678571Y-159107144D01*
X126964286Y-159107144D02*
X126821429Y-159178572D01*
X126750000Y-159250001D01*
X126678571Y-159392858D01*
X126678571Y-159535715D01*
X126678571Y-159821429D02*
X126678571Y-160392858D01*
X126178571Y-160035715D02*
X127464286Y-160035715D01*
X127607143Y-160107143D01*
X127678571Y-160250001D01*
X127678571Y-160392858D01*
X127607143Y-160821429D02*
X127678571Y-160964286D01*
X127678571Y-161250001D01*
X127607143Y-161392858D01*
X127464286Y-161464286D01*
X127392857Y-161464286D01*
X127250000Y-161392858D01*
X127178571Y-161250001D01*
X127178571Y-161035715D01*
X127107143Y-160892858D01*
X126964286Y-160821429D01*
X126892857Y-160821429D01*
X126750000Y-160892858D01*
X126678571Y-161035715D01*
X126678571Y-161250001D01*
X126750000Y-161392858D01*
X128871429Y-146857144D02*
X128800000Y-146928573D01*
X128728571Y-147071430D01*
X128728571Y-147428573D01*
X128800000Y-147571430D01*
X128871429Y-147642859D01*
X129014286Y-147714287D01*
X129157143Y-147714287D01*
X129371429Y-147642859D01*
X130228571Y-146785716D01*
X130228571Y-147714287D01*
X128728571Y-148642858D02*
X128728571Y-148785715D01*
X128800000Y-148928572D01*
X128871429Y-149000001D01*
X129014286Y-149071430D01*
X129300000Y-149142858D01*
X129657143Y-149142858D01*
X129942857Y-149071430D01*
X130085714Y-149000001D01*
X130157143Y-148928572D01*
X130228571Y-148785715D01*
X130228571Y-148642858D01*
X130157143Y-148500001D01*
X130085714Y-148428572D01*
X129942857Y-148357144D01*
X129657143Y-148285715D01*
X129300000Y-148285715D01*
X129014286Y-148357144D01*
X128871429Y-148428572D01*
X128800000Y-148500001D01*
X128728571Y-148642858D01*
X130228571Y-150571429D02*
X130228571Y-149714286D01*
X130228571Y-150142858D02*
X128728571Y-150142858D01*
X128942857Y-150000001D01*
X129085714Y-149857143D01*
X129157143Y-149714286D01*
X128728571Y-151071429D02*
X128728571Y-152071429D01*
X130228571Y-151428572D01*
X130085714Y-152642857D02*
X130157143Y-152714285D01*
X130228571Y-152642857D01*
X130157143Y-152571428D01*
X130085714Y-152642857D01*
X130228571Y-152642857D01*
X128728571Y-153642857D02*
X128728571Y-153785714D01*
X128800000Y-153928571D01*
X128871429Y-154000000D01*
X129014286Y-154071429D01*
X129300000Y-154142857D01*
X129657143Y-154142857D01*
X129942857Y-154071429D01*
X130085714Y-154000000D01*
X130157143Y-153928571D01*
X130228571Y-153785714D01*
X130228571Y-153642857D01*
X130157143Y-153500000D01*
X130085714Y-153428571D01*
X129942857Y-153357143D01*
X129657143Y-153285714D01*
X129300000Y-153285714D01*
X129014286Y-153357143D01*
X128871429Y-153428571D01*
X128800000Y-153500000D01*
X128728571Y-153642857D01*
X128728571Y-154642857D02*
X128728571Y-155571428D01*
X129300000Y-155071428D01*
X129300000Y-155285714D01*
X129371429Y-155428571D01*
X129442857Y-155500000D01*
X129585714Y-155571428D01*
X129942857Y-155571428D01*
X130085714Y-155500000D01*
X130157143Y-155428571D01*
X130228571Y-155285714D01*
X130228571Y-154857142D01*
X130157143Y-154714285D01*
X130085714Y-154642857D01*
X130085714Y-156214285D02*
X130157143Y-156285713D01*
X130228571Y-156214285D01*
X130157143Y-156142856D01*
X130085714Y-156214285D01*
X130228571Y-156214285D01*
X128871429Y-156857142D02*
X128800000Y-156928571D01*
X128728571Y-157071428D01*
X128728571Y-157428571D01*
X128800000Y-157571428D01*
X128871429Y-157642857D01*
X129014286Y-157714285D01*
X129157143Y-157714285D01*
X129371429Y-157642857D01*
X130228571Y-156785714D01*
X130228571Y-157714285D01*
X130228571Y-159142856D02*
X130228571Y-158285713D01*
X130228571Y-158714285D02*
X128728571Y-158714285D01*
X128942857Y-158571428D01*
X129085714Y-158428570D01*
X129157143Y-158285713D01*
D12*
X131496429Y-175178571D02*
X129996429Y-174678571D01*
X131496429Y-174178571D01*
X131496429Y-173821428D02*
X131496429Y-172892857D01*
X130925000Y-173392857D01*
X130925000Y-173178571D01*
X130853571Y-173035714D01*
X130782143Y-172964285D01*
X130639286Y-172892857D01*
X130282143Y-172892857D01*
X130139286Y-172964285D01*
X130067857Y-173035714D01*
X129996429Y-173178571D01*
X129996429Y-173607143D01*
X130067857Y-173750000D01*
X130139286Y-173821428D01*
X131496429Y-172392857D02*
X131496429Y-171464286D01*
X130925000Y-171964286D01*
X130925000Y-171750000D01*
X130853571Y-171607143D01*
X130782143Y-171535714D01*
X130639286Y-171464286D01*
X130282143Y-171464286D01*
X130139286Y-171535714D01*
X130067857Y-171607143D01*
X129996429Y-171750000D01*
X129996429Y-172178572D01*
X130067857Y-172321429D01*
X130139286Y-172392857D01*
X127546429Y-174249999D02*
X128260714Y-174749999D01*
X127546429Y-175107142D02*
X129046429Y-175107142D01*
X129046429Y-174535714D01*
X128975000Y-174392856D01*
X128903571Y-174321428D01*
X128760714Y-174249999D01*
X128546429Y-174249999D01*
X128403571Y-174321428D01*
X128332143Y-174392856D01*
X128260714Y-174535714D01*
X128260714Y-175107142D01*
X127546429Y-173607142D02*
X129046429Y-173607142D01*
X129046429Y-173249999D01*
X128975000Y-173035714D01*
X128832143Y-172892856D01*
X128689286Y-172821428D01*
X128403571Y-172749999D01*
X128189286Y-172749999D01*
X127903571Y-172821428D01*
X127760714Y-172892856D01*
X127617857Y-173035714D01*
X127546429Y-173249999D01*
X127546429Y-173607142D01*
X128903571Y-172178571D02*
X128975000Y-172107142D01*
X129046429Y-171964285D01*
X129046429Y-171607142D01*
X128975000Y-171464285D01*
X128903571Y-171392856D01*
X128760714Y-171321428D01*
X128617857Y-171321428D01*
X128403571Y-171392856D01*
X127546429Y-172249999D01*
X127546429Y-171321428D01*
X125096429Y-174249999D02*
X125810714Y-174749999D01*
X125096429Y-175107142D02*
X126596429Y-175107142D01*
X126596429Y-174535714D01*
X126525000Y-174392856D01*
X126453571Y-174321428D01*
X126310714Y-174249999D01*
X126096429Y-174249999D01*
X125953571Y-174321428D01*
X125882143Y-174392856D01*
X125810714Y-174535714D01*
X125810714Y-175107142D01*
X125096429Y-173607142D02*
X126596429Y-173607142D01*
X126596429Y-173249999D01*
X126525000Y-173035714D01*
X126382143Y-172892856D01*
X126239286Y-172821428D01*
X125953571Y-172749999D01*
X125739286Y-172749999D01*
X125453571Y-172821428D01*
X125310714Y-172892856D01*
X125167857Y-173035714D01*
X125096429Y-173249999D01*
X125096429Y-173607142D01*
X125096429Y-171321428D02*
X125096429Y-172178571D01*
X125096429Y-171749999D02*
X126596429Y-171749999D01*
X126382143Y-171892856D01*
X126239286Y-172035714D01*
X126167857Y-172178571D01*
X124075000Y-174392857D02*
X124146429Y-174535714D01*
X124146429Y-174750000D01*
X124075000Y-174964285D01*
X123932143Y-175107143D01*
X123789286Y-175178571D01*
X123503571Y-175250000D01*
X123289286Y-175250000D01*
X123003571Y-175178571D01*
X122860714Y-175107143D01*
X122717857Y-174964285D01*
X122646429Y-174750000D01*
X122646429Y-174607143D01*
X122717857Y-174392857D01*
X122789286Y-174321428D01*
X123289286Y-174321428D01*
X123289286Y-174607143D01*
X122646429Y-173678571D02*
X124146429Y-173678571D01*
X122646429Y-172821428D01*
X124146429Y-172821428D01*
X122646429Y-172107142D02*
X124146429Y-172107142D01*
X124146429Y-171749999D01*
X124075000Y-171535714D01*
X123932143Y-171392856D01*
X123789286Y-171321428D01*
X123503571Y-171249999D01*
X123289286Y-171249999D01*
X123003571Y-171321428D01*
X122860714Y-171392856D01*
X122717857Y-171535714D01*
X122646429Y-171749999D01*
X122646429Y-172107142D01*
X120500000Y-178000000D02*
X120500000Y-168000000D01*
X130500000Y-178000000D02*
X120500000Y-178000000D01*
X130500000Y-168000000D02*
X130500000Y-178000000D01*
D13*
X129016000Y-165968000D02*
X129016000Y-167238000D01*
X128228600Y-166717300D02*
X128266700Y-166463300D01*
X128266700Y-166463300D02*
X128444500Y-166183900D01*
X128444500Y-166183900D02*
X128762000Y-165968000D01*
X128762000Y-165968000D02*
X129206500Y-165955300D01*
X129206500Y-165955300D02*
X129562100Y-166158500D01*
X129562100Y-166158500D02*
X129739900Y-166450600D01*
X129739900Y-166450600D02*
X129790700Y-166768100D01*
X129790700Y-166768100D02*
X129689100Y-167174500D01*
X129689100Y-167174500D02*
X129346200Y-167428500D01*
X129346200Y-167428500D02*
X129168400Y-167517400D01*
X120634000Y-169778000D02*
X130286000Y-169778000D01*
X130286000Y-166730000D02*
X130286000Y-165460000D01*
X130286000Y-165460000D02*
X120634000Y-165460000D01*
X120634000Y-165460000D02*
X120634000Y-170540000D01*
X130286000Y-170540000D02*
X130286000Y-168000000D01*
X130286000Y-168000000D02*
X130286000Y-166730000D01*
D10*
X123230000Y-131750000D02*
G75*
G03X123230000Y-131750000I-500000J0D01*
G01*
X121100000Y-133100000D02*
X121100000Y-125964214D01*
X126900000Y-125964214D02*
X126900000Y-133100000D01*
X125900000Y-134100000D02*
X122100000Y-134100000D01*
X124835786Y-123900000D02*
X123164214Y-123900000D01*
X125542893Y-124192893D02*
X126607107Y-125257107D01*
X121392893Y-125257107D02*
X122457107Y-124192893D01*
X125542893Y-124192893D02*
G75*
G03X124835786Y-123900000I-707107J-707107D01*
G01*
X126900000Y-125964214D02*
G75*
G03X126607107Y-125257107I-1000000J0D01*
G01*
X125900000Y-134100000D02*
G75*
G03X126900000Y-133100000I0J1000000D01*
G01*
X121100000Y-133100000D02*
G75*
G03X122100000Y-134100000I1000000J0D01*
G01*
X121392893Y-125257107D02*
G75*
G03X121100000Y-125964214I707107J-707107D01*
G01*
X123164214Y-123900000D02*
G75*
G03X122457107Y-124192893I0J-1000000D01*
G01*
X124650000Y-129000000D02*
X123350000Y-129000000D01*
X124000000Y-134100000D02*
X124000000Y-123900000D01*
X125297618Y-166226190D02*
X125464285Y-165988095D01*
X125583332Y-166226190D02*
X125583332Y-165726190D01*
X125392856Y-165726190D01*
X125345237Y-165750000D01*
X125321428Y-165773810D01*
X125297618Y-165821429D01*
X125297618Y-165892857D01*
X125321428Y-165940476D01*
X125345237Y-165964286D01*
X125392856Y-165988095D01*
X125583332Y-165988095D01*
X125154761Y-165726190D02*
X124988094Y-166226190D01*
X124821428Y-165726190D01*
X124678571Y-165773810D02*
X124654761Y-165750000D01*
X124607142Y-165726190D01*
X124488095Y-165726190D01*
X124440476Y-165750000D01*
X124416666Y-165773810D01*
X124392857Y-165821429D01*
X124392857Y-165869048D01*
X124416666Y-165940476D01*
X124702380Y-166226190D01*
X124392857Y-166226190D01*
X126698095Y-170766190D02*
X126983809Y-170766190D01*
X126840952Y-170766190D02*
X126840952Y-170266190D01*
X126888571Y-170337619D01*
X126936190Y-170385238D01*
X126983809Y-170409048D01*
X126388571Y-170266190D02*
X126340952Y-170266190D01*
X126293333Y-170290000D01*
X126269524Y-170313810D01*
X126245714Y-170361429D01*
X126221905Y-170456667D01*
X126221905Y-170575714D01*
X126245714Y-170670952D01*
X126269524Y-170718571D01*
X126293333Y-170742381D01*
X126340952Y-170766190D01*
X126388571Y-170766190D01*
X126436190Y-170742381D01*
X126460000Y-170718571D01*
X126483809Y-170670952D01*
X126507619Y-170575714D01*
X126507619Y-170456667D01*
X126483809Y-170361429D01*
X126460000Y-170313810D01*
X126436190Y-170290000D01*
X126388571Y-170266190D01*
X126007619Y-170766190D02*
X126007619Y-170266190D01*
X125721905Y-170766190D02*
X125936191Y-170480476D01*
X125721905Y-170266190D02*
X126007619Y-170551905D01*
X125126667Y-170766190D02*
X125126667Y-170266190D01*
X124936191Y-170266190D01*
X124888572Y-170290000D01*
X124864763Y-170313810D01*
X124840953Y-170361429D01*
X124840953Y-170432857D01*
X124864763Y-170480476D01*
X124888572Y-170504286D01*
X124936191Y-170528095D01*
X125126667Y-170528095D01*
X124531429Y-170266190D02*
X124436191Y-170266190D01*
X124388572Y-170290000D01*
X124340953Y-170337619D01*
X124317144Y-170432857D01*
X124317144Y-170599524D01*
X124340953Y-170694762D01*
X124388572Y-170742381D01*
X124436191Y-170766190D01*
X124531429Y-170766190D01*
X124579048Y-170742381D01*
X124626667Y-170694762D01*
X124650477Y-170599524D01*
X124650477Y-170432857D01*
X124626667Y-170337619D01*
X124579048Y-170290000D01*
X124531429Y-170266190D01*
X124174286Y-170266190D02*
X123888572Y-170266190D01*
X124031429Y-170766190D02*
X124031429Y-170266190D01*
X124380952Y-129226190D02*
X124380952Y-129630952D01*
X124357143Y-129678571D01*
X124333333Y-129702381D01*
X124285714Y-129726190D01*
X124190476Y-129726190D01*
X124142857Y-129702381D01*
X124119048Y-129678571D01*
X124095238Y-129630952D01*
X124095238Y-129226190D01*
X123880952Y-129273810D02*
X123857142Y-129250000D01*
X123809523Y-129226190D01*
X123690476Y-129226190D01*
X123642857Y-129250000D01*
X123619047Y-129273810D01*
X123595238Y-129321429D01*
X123595238Y-129369048D01*
X123619047Y-129440476D01*
X123904761Y-129726190D01*
X123595238Y-129726190D01*
X119726190Y-127214287D02*
X119726190Y-127500001D01*
X120226190Y-127357144D02*
X119726190Y-127357144D01*
X120178571Y-127952382D02*
X120202381Y-127928572D01*
X120226190Y-127857144D01*
X120226190Y-127809525D01*
X120202381Y-127738096D01*
X120154762Y-127690477D01*
X120107143Y-127666668D01*
X120011905Y-127642858D01*
X119940476Y-127642858D01*
X119845238Y-127666668D01*
X119797619Y-127690477D01*
X119750000Y-127738096D01*
X119726190Y-127809525D01*
X119726190Y-127857144D01*
X119750000Y-127928572D01*
X119773810Y-127952382D01*
X120226190Y-128452382D02*
X119988095Y-128285715D01*
X120226190Y-128166668D02*
X119726190Y-128166668D01*
X119726190Y-128357144D01*
X119750000Y-128404763D01*
X119773810Y-128428572D01*
X119821429Y-128452382D01*
X119892857Y-128452382D01*
X119940476Y-128428572D01*
X119964286Y-128404763D01*
X119988095Y-128357144D01*
X119988095Y-128166668D01*
X119726190Y-128595239D02*
X119726190Y-128880953D01*
X120226190Y-128738096D02*
X119726190Y-128738096D01*
X119726190Y-129285715D02*
X119726190Y-129047620D01*
X119964286Y-129023810D01*
X119940476Y-129047620D01*
X119916667Y-129095239D01*
X119916667Y-129214286D01*
X119940476Y-129261905D01*
X119964286Y-129285715D01*
X120011905Y-129309524D01*
X120130952Y-129309524D01*
X120178571Y-129285715D01*
X120202381Y-129261905D01*
X120226190Y-129214286D01*
X120226190Y-129095239D01*
X120202381Y-129047620D01*
X120178571Y-129023810D01*
X119726190Y-129619048D02*
X119726190Y-129666667D01*
X119750000Y-129714286D01*
X119773810Y-129738095D01*
X119821429Y-129761905D01*
X119916667Y-129785714D01*
X120035714Y-129785714D01*
X120130952Y-129761905D01*
X120178571Y-129738095D01*
X120202381Y-129714286D01*
X120226190Y-129666667D01*
X120226190Y-129619048D01*
X120202381Y-129571429D01*
X120178571Y-129547619D01*
X120130952Y-129523810D01*
X120035714Y-129500000D01*
X119916667Y-129500000D01*
X119821429Y-129523810D01*
X119773810Y-129547619D01*
X119750000Y-129571429D01*
X119726190Y-129619048D01*
X119726190Y-130095238D02*
X119726190Y-130142857D01*
X119750000Y-130190476D01*
X119773810Y-130214285D01*
X119821429Y-130238095D01*
X119916667Y-130261904D01*
X120035714Y-130261904D01*
X120130952Y-130238095D01*
X120178571Y-130214285D01*
X120202381Y-130190476D01*
X120226190Y-130142857D01*
X120226190Y-130095238D01*
X120202381Y-130047619D01*
X120178571Y-130023809D01*
X120130952Y-130000000D01*
X120035714Y-129976190D01*
X119916667Y-129976190D01*
X119821429Y-130000000D01*
X119773810Y-130023809D01*
X119750000Y-130047619D01*
X119726190Y-130095238D01*
X119726190Y-130571428D02*
X119726190Y-130619047D01*
X119750000Y-130666666D01*
X119773810Y-130690475D01*
X119821429Y-130714285D01*
X119916667Y-130738094D01*
X120035714Y-130738094D01*
X120130952Y-130714285D01*
X120178571Y-130690475D01*
X120202381Y-130666666D01*
X120226190Y-130619047D01*
X120226190Y-130571428D01*
X120202381Y-130523809D01*
X120178571Y-130499999D01*
X120130952Y-130476190D01*
X120035714Y-130452380D01*
X119916667Y-130452380D01*
X119821429Y-130476190D01*
X119773810Y-130499999D01*
X119750000Y-130523809D01*
X119726190Y-130571428D01*
M02*
