G04 #@! TF.FileFunction,Copper,L2,Bot,Signal*
%FSLAX46Y46*%
G04 Gerber Fmt 4.6, Leading zero omitted, Abs format (unit mm)*
G04 Created by KiCad (PCBNEW 4.0.4-stable) date 03/22/17 00:22:46*
%MOMM*%
%LPD*%
G01*
G04 APERTURE LIST*
%ADD10C,0.100000*%
%ADD11R,2.000000X4.000000*%
%ADD12O,2.000000X4.000000*%
%ADD13C,1.524000*%
%ADD14C,2.000000*%
%ADD15C,0.600000*%
%ADD16C,0.600000*%
%ADD17C,0.250000*%
%ADD18C,0.254000*%
G04 APERTURE END LIST*
D10*
D11*
X123190000Y-177800000D03*
D12*
X125730000Y-177800000D03*
X128270000Y-177800000D03*
X130810000Y-177800000D03*
D13*
X125460000Y-168000000D03*
X122920000Y-168000000D03*
X128000000Y-168000000D03*
X128540000Y-164000000D03*
X131080000Y-164000000D03*
X126000000Y-164000000D03*
D14*
X128730000Y-124250000D03*
X131270000Y-124250000D03*
X131270000Y-129750000D03*
X128730000Y-129750000D03*
X125270000Y-126250000D03*
X122730000Y-126250000D03*
X122730000Y-131750000D03*
X125270000Y-131750000D03*
D15*
X123000000Y-150000000D03*
X125000000Y-145500000D03*
X134000000Y-145500000D03*
X129500000Y-145500000D03*
X130500000Y-137500000D03*
X128500000Y-134500000D03*
X123000000Y-142500000D03*
X123000000Y-134500000D03*
X132500000Y-152000000D03*
X132000000Y-148500000D03*
X122000000Y-148500000D03*
X123000000Y-152000000D03*
X128500000Y-170500000D03*
X129000000Y-151500000D03*
X132000000Y-146400000D03*
X127500000Y-154000000D03*
X121500000Y-146000000D03*
X128000000Y-146500000D03*
X126000000Y-146500000D03*
X126500000Y-152000000D03*
D16*
X123000000Y-147500000D02*
X123000000Y-150000000D01*
X125000000Y-145500000D02*
X123000000Y-147500000D01*
X129500000Y-145500000D02*
X134000000Y-145500000D01*
X123500000Y-133500000D02*
X122730000Y-132730000D01*
X122730000Y-132730000D02*
X122730000Y-131750000D01*
X131270000Y-129750000D02*
X131270000Y-131230000D01*
X130500000Y-132000000D02*
X128000000Y-132000000D01*
X131270000Y-131230000D02*
X130500000Y-132000000D01*
X128000000Y-132000000D02*
X126500000Y-133500000D01*
X126500000Y-133500000D02*
X123500000Y-133500000D01*
X131080000Y-164000000D02*
X129080000Y-166000000D01*
X124920000Y-166000000D02*
X122920000Y-168000000D01*
X129080000Y-166000000D02*
X124920000Y-166000000D01*
D17*
X130500000Y-136500000D02*
X130500000Y-137500000D01*
X128500000Y-134500000D02*
X130500000Y-136500000D01*
X123000000Y-134500000D02*
X123000000Y-142500000D01*
X132500000Y-149000000D02*
X132500000Y-152000000D01*
X132000000Y-148500000D02*
X132500000Y-149000000D01*
X122000000Y-151000000D02*
X123000000Y-152000000D01*
X122000000Y-148500000D02*
X122000000Y-151000000D01*
X133500000Y-156000000D02*
X133500000Y-165500000D01*
X129000000Y-151500000D02*
X133500000Y-156000000D01*
X133500000Y-165500000D02*
X128500000Y-170500000D01*
X129000000Y-149400000D02*
X129000000Y-151500000D01*
X132000000Y-146400000D02*
X129000000Y-149400000D01*
X128270000Y-175270000D02*
X128270000Y-177800000D01*
X120500000Y-155000000D02*
X120500000Y-171000000D01*
X120500000Y-171000000D02*
X123500000Y-174000000D01*
X123500000Y-174000000D02*
X127000000Y-174000000D01*
X127000000Y-174000000D02*
X128270000Y-175270000D01*
X120500000Y-155000000D02*
X126500000Y-155000000D01*
X126500000Y-155000000D02*
X127500000Y-154000000D01*
X120500000Y-146500000D02*
X120500000Y-155000000D01*
X121000000Y-146000000D02*
X120500000Y-146500000D01*
X121500000Y-146000000D02*
X121000000Y-146000000D01*
X128000000Y-144500000D02*
X128000000Y-146500000D01*
X128730000Y-124250000D02*
X128750000Y-124250000D01*
X128730000Y-124250000D02*
X128750000Y-124250000D01*
X129000000Y-143500000D02*
X128000000Y-144500000D01*
X133000000Y-143500000D02*
X129000000Y-143500000D01*
X134000000Y-142500000D02*
X133000000Y-143500000D01*
X134000000Y-124500000D02*
X134000000Y-142500000D01*
X132000000Y-122500000D02*
X134000000Y-124500000D01*
X130500000Y-122500000D02*
X132000000Y-122500000D01*
X128750000Y-124250000D02*
X130500000Y-122500000D01*
X121500000Y-143500000D02*
X121000000Y-143500000D01*
X121500000Y-143500000D02*
X121000000Y-143500000D01*
X122000000Y-124500000D02*
X120000000Y-126500000D01*
X121000000Y-143500000D02*
X120000000Y-142500000D01*
X121500000Y-143500000D02*
X121000000Y-143500000D01*
X121500000Y-143500000D02*
X121000000Y-143500000D01*
X125270000Y-126250000D02*
X123520000Y-124500000D01*
X123520000Y-124500000D02*
X122000000Y-124500000D01*
X120000000Y-126500000D02*
X120000000Y-142500000D01*
X121500000Y-143500000D02*
X125000000Y-143500000D01*
X126000000Y-144500000D02*
X126000000Y-146500000D01*
X125000000Y-143500000D02*
X126000000Y-144500000D01*
X128540000Y-153540000D02*
X128540000Y-164000000D01*
X127000000Y-152000000D02*
X128540000Y-153540000D01*
X126500000Y-152000000D02*
X127000000Y-152000000D01*
D18*
G36*
X127288000Y-162567732D02*
X127096382Y-162376114D01*
X126868604Y-162603892D01*
X126808883Y-162252082D01*
X126078411Y-162075589D01*
X125336003Y-162192069D01*
X125191117Y-162252082D01*
X125131396Y-162603894D01*
X126000000Y-163472498D01*
X126014142Y-163458356D01*
X126541644Y-163985858D01*
X126527502Y-164000000D01*
X126541644Y-164014142D01*
X126014142Y-164541644D01*
X126000000Y-164527502D01*
X125985858Y-164541644D01*
X125458356Y-164014142D01*
X125472498Y-164000000D01*
X124603894Y-163131396D01*
X124252082Y-163191117D01*
X124075589Y-163921589D01*
X124192069Y-164663997D01*
X124237206Y-164772968D01*
X123910959Y-164990959D01*
X122791031Y-166110887D01*
X122545903Y-166110673D01*
X121851365Y-166397650D01*
X121752000Y-166496842D01*
X121752000Y-156252000D01*
X126500000Y-156252000D01*
X126979120Y-156156697D01*
X127288000Y-155950310D01*
X127288000Y-162567732D01*
X127288000Y-162567732D01*
G37*
X127288000Y-162567732D02*
X127096382Y-162376114D01*
X126868604Y-162603892D01*
X126808883Y-162252082D01*
X126078411Y-162075589D01*
X125336003Y-162192069D01*
X125191117Y-162252082D01*
X125131396Y-162603894D01*
X126000000Y-163472498D01*
X126014142Y-163458356D01*
X126541644Y-163985858D01*
X126527502Y-164000000D01*
X126541644Y-164014142D01*
X126014142Y-164541644D01*
X126000000Y-164527502D01*
X125985858Y-164541644D01*
X125458356Y-164014142D01*
X125472498Y-164000000D01*
X124603894Y-163131396D01*
X124252082Y-163191117D01*
X124075589Y-163921589D01*
X124192069Y-164663997D01*
X124237206Y-164772968D01*
X123910959Y-164990959D01*
X122791031Y-166110887D01*
X122545903Y-166110673D01*
X121851365Y-166397650D01*
X121752000Y-166496842D01*
X121752000Y-156252000D01*
X126500000Y-156252000D01*
X126979120Y-156156697D01*
X127288000Y-155950310D01*
X127288000Y-162567732D01*
G36*
X133798000Y-151404594D02*
X133752000Y-151293266D01*
X133752000Y-149000005D01*
X133752001Y-149000000D01*
X133656697Y-148520881D01*
X133656697Y-148520880D01*
X133385298Y-148114702D01*
X133384475Y-148113879D01*
X133210457Y-147692725D01*
X132968084Y-147449928D01*
X133209047Y-147209386D01*
X133426752Y-146685093D01*
X133427248Y-146117397D01*
X133210457Y-145592725D01*
X132809386Y-145190953D01*
X132285093Y-144973248D01*
X131717397Y-144972752D01*
X131192725Y-145189543D01*
X130790953Y-145590614D01*
X130614966Y-146014439D01*
X128114702Y-148514702D01*
X127843303Y-148920880D01*
X127748000Y-149400000D01*
X127748000Y-150794057D01*
X127673594Y-150973246D01*
X127479120Y-150843303D01*
X127332539Y-150814146D01*
X127309386Y-150790953D01*
X126785093Y-150573248D01*
X126217397Y-150572752D01*
X125692725Y-150789543D01*
X125290953Y-151190614D01*
X125073248Y-151714907D01*
X125072752Y-152282603D01*
X125289543Y-152807275D01*
X125690614Y-153209047D01*
X126196137Y-153418958D01*
X126114966Y-153614438D01*
X125981404Y-153748000D01*
X121752000Y-153748000D01*
X121752000Y-152716414D01*
X121789543Y-152807275D01*
X122190614Y-153209047D01*
X122714907Y-153426752D01*
X123282603Y-153427248D01*
X123807275Y-153210457D01*
X124209047Y-152809386D01*
X124426752Y-152285093D01*
X124427248Y-151717397D01*
X124210457Y-151192725D01*
X123809386Y-150790953D01*
X123385562Y-150614966D01*
X123252000Y-150481404D01*
X123252000Y-149205943D01*
X123426752Y-148785093D01*
X123427248Y-148217397D01*
X123210457Y-147692725D01*
X122809386Y-147290953D01*
X122397830Y-147120060D01*
X122709047Y-146809386D01*
X122926752Y-146285093D01*
X122927248Y-145717397D01*
X122710457Y-145192725D01*
X122309386Y-144790953D01*
X122215577Y-144752000D01*
X124481404Y-144752000D01*
X124748000Y-145018595D01*
X124748000Y-145794057D01*
X124573248Y-146214907D01*
X124572752Y-146782603D01*
X124789543Y-147307275D01*
X125190614Y-147709047D01*
X125714907Y-147926752D01*
X126282603Y-147927248D01*
X126807275Y-147710457D01*
X126999984Y-147518084D01*
X127190614Y-147709047D01*
X127714907Y-147926752D01*
X128282603Y-147927248D01*
X128807275Y-147710457D01*
X129209047Y-147309386D01*
X129426752Y-146785093D01*
X129427248Y-146217397D01*
X129252000Y-145793266D01*
X129252000Y-145018596D01*
X129518595Y-144752000D01*
X133000000Y-144752000D01*
X133479120Y-144656697D01*
X133798000Y-144443629D01*
X133798000Y-151404594D01*
X133798000Y-151404594D01*
G37*
X133798000Y-151404594D02*
X133752000Y-151293266D01*
X133752000Y-149000005D01*
X133752001Y-149000000D01*
X133656697Y-148520881D01*
X133656697Y-148520880D01*
X133385298Y-148114702D01*
X133384475Y-148113879D01*
X133210457Y-147692725D01*
X132968084Y-147449928D01*
X133209047Y-147209386D01*
X133426752Y-146685093D01*
X133427248Y-146117397D01*
X133210457Y-145592725D01*
X132809386Y-145190953D01*
X132285093Y-144973248D01*
X131717397Y-144972752D01*
X131192725Y-145189543D01*
X130790953Y-145590614D01*
X130614966Y-146014439D01*
X128114702Y-148514702D01*
X127843303Y-148920880D01*
X127748000Y-149400000D01*
X127748000Y-150794057D01*
X127673594Y-150973246D01*
X127479120Y-150843303D01*
X127332539Y-150814146D01*
X127309386Y-150790953D01*
X126785093Y-150573248D01*
X126217397Y-150572752D01*
X125692725Y-150789543D01*
X125290953Y-151190614D01*
X125073248Y-151714907D01*
X125072752Y-152282603D01*
X125289543Y-152807275D01*
X125690614Y-153209047D01*
X126196137Y-153418958D01*
X126114966Y-153614438D01*
X125981404Y-153748000D01*
X121752000Y-153748000D01*
X121752000Y-152716414D01*
X121789543Y-152807275D01*
X122190614Y-153209047D01*
X122714907Y-153426752D01*
X123282603Y-153427248D01*
X123807275Y-153210457D01*
X124209047Y-152809386D01*
X124426752Y-152285093D01*
X124427248Y-151717397D01*
X124210457Y-151192725D01*
X123809386Y-150790953D01*
X123385562Y-150614966D01*
X123252000Y-150481404D01*
X123252000Y-149205943D01*
X123426752Y-148785093D01*
X123427248Y-148217397D01*
X123210457Y-147692725D01*
X122809386Y-147290953D01*
X122397830Y-147120060D01*
X122709047Y-146809386D01*
X122926752Y-146285093D01*
X122927248Y-145717397D01*
X122710457Y-145192725D01*
X122309386Y-144790953D01*
X122215577Y-144752000D01*
X124481404Y-144752000D01*
X124748000Y-145018595D01*
X124748000Y-145794057D01*
X124573248Y-146214907D01*
X124572752Y-146782603D01*
X124789543Y-147307275D01*
X125190614Y-147709047D01*
X125714907Y-147926752D01*
X126282603Y-147927248D01*
X126807275Y-147710457D01*
X126999984Y-147518084D01*
X127190614Y-147709047D01*
X127714907Y-147926752D01*
X128282603Y-147927248D01*
X128807275Y-147710457D01*
X129209047Y-147309386D01*
X129426752Y-146785093D01*
X129427248Y-146217397D01*
X129252000Y-145793266D01*
X129252000Y-145018596D01*
X129518595Y-144752000D01*
X133000000Y-144752000D01*
X133479120Y-144656697D01*
X133798000Y-144443629D01*
X133798000Y-151404594D01*
G36*
X122402405Y-174673000D02*
X121965826Y-174673000D01*
X121551606Y-174844576D01*
X121234575Y-175161606D01*
X121063000Y-175575826D01*
X121063000Y-177145250D01*
X121344750Y-177427000D01*
X122817000Y-177427000D01*
X122817000Y-177407000D01*
X123563000Y-177407000D01*
X123563000Y-177427000D01*
X123583000Y-177427000D01*
X123583000Y-178173000D01*
X123563000Y-178173000D01*
X123563000Y-178193000D01*
X122817000Y-178193000D01*
X122817000Y-178173000D01*
X121344750Y-178173000D01*
X121063000Y-178454750D01*
X121063000Y-180024174D01*
X121234575Y-180438394D01*
X121551606Y-180755424D01*
X121654393Y-180798000D01*
X120202000Y-180798000D01*
X120202000Y-172472596D01*
X122402405Y-174673000D01*
X122402405Y-174673000D01*
G37*
X122402405Y-174673000D02*
X121965826Y-174673000D01*
X121551606Y-174844576D01*
X121234575Y-175161606D01*
X121063000Y-175575826D01*
X121063000Y-177145250D01*
X121344750Y-177427000D01*
X122817000Y-177427000D01*
X122817000Y-177407000D01*
X123563000Y-177407000D01*
X123563000Y-177427000D01*
X123583000Y-177427000D01*
X123583000Y-178173000D01*
X123563000Y-178173000D01*
X123563000Y-178193000D01*
X122817000Y-178193000D01*
X122817000Y-178173000D01*
X121344750Y-178173000D01*
X121063000Y-178454750D01*
X121063000Y-180024174D01*
X121234575Y-180438394D01*
X121551606Y-180755424D01*
X121654393Y-180798000D01*
X120202000Y-180798000D01*
X120202000Y-172472596D01*
X122402405Y-174673000D01*
G36*
X130316047Y-131697589D02*
X130822840Y-131831927D01*
X130822718Y-131972211D01*
X131069892Y-132570418D01*
X131527175Y-133028499D01*
X132124950Y-133276717D01*
X132748000Y-133277261D01*
X132748000Y-141981405D01*
X132481404Y-142248000D01*
X129000005Y-142248000D01*
X129000000Y-142247999D01*
X128959204Y-142256114D01*
X129225764Y-141990019D01*
X129626543Y-141024835D01*
X129627455Y-139979750D01*
X129228361Y-139013868D01*
X128490019Y-138274236D01*
X127524835Y-137873457D01*
X126479750Y-137872545D01*
X125513868Y-138271639D01*
X124774236Y-139009981D01*
X124373457Y-139975165D01*
X124372545Y-141020250D01*
X124771639Y-141986132D01*
X125041239Y-142256203D01*
X125000000Y-142248000D01*
X124427221Y-142248000D01*
X124427248Y-142217397D01*
X124252000Y-141793266D01*
X124252000Y-135205943D01*
X124426752Y-134785093D01*
X124426754Y-134782603D01*
X127072752Y-134782603D01*
X127289543Y-135307275D01*
X127690614Y-135709047D01*
X128114438Y-135885034D01*
X129182119Y-136952715D01*
X129073248Y-137214907D01*
X129072752Y-137782603D01*
X129289543Y-138307275D01*
X129690614Y-138709047D01*
X130214907Y-138926752D01*
X130782603Y-138927248D01*
X131307275Y-138710457D01*
X131709047Y-138309386D01*
X131926752Y-137785093D01*
X131927248Y-137217397D01*
X131752000Y-136793266D01*
X131752000Y-136500000D01*
X131656697Y-136020880D01*
X131385298Y-135614702D01*
X129884475Y-134113879D01*
X129710457Y-133692725D01*
X129309386Y-133290953D01*
X128785093Y-133073248D01*
X128217397Y-133072752D01*
X127692725Y-133289543D01*
X127290953Y-133690614D01*
X127073248Y-134214907D01*
X127072752Y-134782603D01*
X124426754Y-134782603D01*
X124427248Y-134217397D01*
X124210457Y-133692725D01*
X124074732Y-133556762D01*
X124845057Y-133876630D01*
X125691230Y-133877368D01*
X126473274Y-133554234D01*
X127072131Y-132956422D01*
X127396630Y-132174943D01*
X127397284Y-131425616D01*
X127523578Y-131552131D01*
X128305057Y-131876630D01*
X129151230Y-131877368D01*
X129933274Y-131554234D01*
X129972066Y-131515510D01*
X130002030Y-131545474D01*
X130225826Y-131321678D01*
X130316047Y-131697589D01*
X130316047Y-131697589D01*
G37*
X130316047Y-131697589D02*
X130822840Y-131831927D01*
X130822718Y-131972211D01*
X131069892Y-132570418D01*
X131527175Y-133028499D01*
X132124950Y-133276717D01*
X132748000Y-133277261D01*
X132748000Y-141981405D01*
X132481404Y-142248000D01*
X129000005Y-142248000D01*
X129000000Y-142247999D01*
X128959204Y-142256114D01*
X129225764Y-141990019D01*
X129626543Y-141024835D01*
X129627455Y-139979750D01*
X129228361Y-139013868D01*
X128490019Y-138274236D01*
X127524835Y-137873457D01*
X126479750Y-137872545D01*
X125513868Y-138271639D01*
X124774236Y-139009981D01*
X124373457Y-139975165D01*
X124372545Y-141020250D01*
X124771639Y-141986132D01*
X125041239Y-142256203D01*
X125000000Y-142248000D01*
X124427221Y-142248000D01*
X124427248Y-142217397D01*
X124252000Y-141793266D01*
X124252000Y-135205943D01*
X124426752Y-134785093D01*
X124426754Y-134782603D01*
X127072752Y-134782603D01*
X127289543Y-135307275D01*
X127690614Y-135709047D01*
X128114438Y-135885034D01*
X129182119Y-136952715D01*
X129073248Y-137214907D01*
X129072752Y-137782603D01*
X129289543Y-138307275D01*
X129690614Y-138709047D01*
X130214907Y-138926752D01*
X130782603Y-138927248D01*
X131307275Y-138710457D01*
X131709047Y-138309386D01*
X131926752Y-137785093D01*
X131927248Y-137217397D01*
X131752000Y-136793266D01*
X131752000Y-136500000D01*
X131656697Y-136020880D01*
X131385298Y-135614702D01*
X129884475Y-134113879D01*
X129710457Y-133692725D01*
X129309386Y-133290953D01*
X128785093Y-133073248D01*
X128217397Y-133072752D01*
X127692725Y-133289543D01*
X127290953Y-133690614D01*
X127073248Y-134214907D01*
X127072752Y-134782603D01*
X124426754Y-134782603D01*
X124427248Y-134217397D01*
X124210457Y-133692725D01*
X124074732Y-133556762D01*
X124845057Y-133876630D01*
X125691230Y-133877368D01*
X126473274Y-133554234D01*
X127072131Y-132956422D01*
X127396630Y-132174943D01*
X127397284Y-131425616D01*
X127523578Y-131552131D01*
X128305057Y-131876630D01*
X129151230Y-131877368D01*
X129933274Y-131554234D01*
X129972066Y-131515510D01*
X130002030Y-131545474D01*
X130225826Y-131321678D01*
X130316047Y-131697589D01*
G36*
X123143124Y-131607338D02*
X123142875Y-131892911D01*
X122744142Y-132291644D01*
X122730000Y-132277502D01*
X122715858Y-132291644D01*
X122188356Y-131764142D01*
X122202498Y-131750000D01*
X122188356Y-131735858D01*
X122546823Y-131377391D01*
X122570740Y-131377412D01*
X122813069Y-131277283D01*
X123143124Y-131607338D01*
X123143124Y-131607338D01*
G37*
X123143124Y-131607338D02*
X123142875Y-131892911D01*
X122744142Y-132291644D01*
X122730000Y-132277502D01*
X122715858Y-132291644D01*
X122188356Y-131764142D01*
X122202498Y-131750000D01*
X122188356Y-131735858D01*
X122546823Y-131377391D01*
X122570740Y-131377412D01*
X122813069Y-131277283D01*
X123143124Y-131607338D01*
G36*
X131425111Y-129376586D02*
X131452396Y-129376610D01*
X131811644Y-129735858D01*
X131797502Y-129750000D01*
X131811644Y-129764142D01*
X131284142Y-130291644D01*
X131270000Y-130277502D01*
X131255858Y-130291644D01*
X130856876Y-129892662D01*
X130857125Y-129607089D01*
X131186647Y-129277567D01*
X131425111Y-129376586D01*
X131425111Y-129376586D01*
G37*
X131425111Y-129376586D02*
X131452396Y-129376610D01*
X131811644Y-129735858D01*
X131797502Y-129750000D01*
X131811644Y-129764142D01*
X131284142Y-130291644D01*
X131270000Y-130277502D01*
X131255858Y-130291644D01*
X130856876Y-129892662D01*
X130857125Y-129607089D01*
X131186647Y-129277567D01*
X131425111Y-129376586D01*
G36*
X123143124Y-126107338D02*
X123142875Y-126392911D01*
X122813353Y-126722433D01*
X122574889Y-126623414D01*
X122547604Y-126623390D01*
X122188356Y-126264142D01*
X122202498Y-126250000D01*
X122188356Y-126235858D01*
X122672214Y-125752000D01*
X122787786Y-125752000D01*
X123143124Y-126107338D01*
X123143124Y-126107338D01*
G37*
X123143124Y-126107338D02*
X123142875Y-126392911D01*
X122813353Y-126722433D01*
X122574889Y-126623414D01*
X122547604Y-126623390D01*
X122188356Y-126264142D01*
X122202498Y-126250000D01*
X122188356Y-126235858D01*
X122672214Y-125752000D01*
X122787786Y-125752000D01*
X123143124Y-126107338D01*
G36*
X131811644Y-124235858D02*
X131797502Y-124250000D01*
X131811644Y-124264142D01*
X131453177Y-124622609D01*
X131429260Y-124622588D01*
X131186931Y-124722717D01*
X130856876Y-124392662D01*
X130857125Y-124107089D01*
X131212214Y-123752000D01*
X131327786Y-123752000D01*
X131811644Y-124235858D01*
X131811644Y-124235858D01*
G37*
X131811644Y-124235858D02*
X131797502Y-124250000D01*
X131811644Y-124264142D01*
X131453177Y-124622609D01*
X131429260Y-124622588D01*
X131186931Y-124722717D01*
X130856876Y-124392662D01*
X130857125Y-124107089D01*
X131212214Y-123752000D01*
X131327786Y-123752000D01*
X131811644Y-124235858D01*
M02*
