G04 #@! TF.FileFunction,Copper,L1,Top,Signal*
%FSLAX46Y46*%
G04 Gerber Fmt 4.6, Leading zero omitted, Abs format (unit mm)*
G04 Created by KiCad (PCBNEW 4.0.4-stable) date 03/22/17 00:22:46*
%MOMM*%
%LPD*%
G01*
G04 APERTURE LIST*
%ADD10C,0.100000*%
%ADD11R,1.700000X0.900000*%
%ADD12R,2.000000X4.000000*%
%ADD13O,2.000000X4.000000*%
%ADD14C,1.524000*%
%ADD15R,1.000000X1.600000*%
%ADD16R,1.250000X1.000000*%
%ADD17R,1.198880X1.198880*%
%ADD18R,1.000000X1.250000*%
%ADD19C,2.000000*%
%ADD20R,0.600000X1.550000*%
%ADD21C,0.600000*%
%ADD22C,0.600000*%
%ADD23C,0.900000*%
%ADD24C,0.250000*%
%ADD25C,0.254000*%
G04 APERTURE END LIST*
D10*
D11*
X132000000Y-133050000D03*
X132000000Y-135950000D03*
X129000000Y-135950000D03*
X129000000Y-133050000D03*
X124500000Y-136950000D03*
X124500000Y-134050000D03*
X122000000Y-136050000D03*
X122000000Y-138950000D03*
D12*
X123190000Y-177800000D03*
D13*
X125730000Y-177800000D03*
X128270000Y-177800000D03*
X130810000Y-177800000D03*
D14*
X125460000Y-168000000D03*
X122920000Y-168000000D03*
X128000000Y-168000000D03*
X128540000Y-164000000D03*
X131080000Y-164000000D03*
X126000000Y-164000000D03*
D15*
X128000000Y-159000000D03*
X131000000Y-159000000D03*
D16*
X132000000Y-154000000D03*
X132000000Y-156000000D03*
X122000000Y-154000000D03*
X122000000Y-156000000D03*
D17*
X122000000Y-149950980D03*
X122000000Y-152049020D03*
D11*
X122000000Y-147450000D03*
X122000000Y-144550000D03*
X132000000Y-147450000D03*
X132000000Y-144550000D03*
D17*
X132000000Y-149950980D03*
X132000000Y-152049020D03*
D11*
X129000000Y-144550000D03*
X129000000Y-147450000D03*
X125000000Y-144550000D03*
X125000000Y-147450000D03*
D18*
X125500000Y-159000000D03*
X123500000Y-159000000D03*
D19*
X128730000Y-124250000D03*
X131270000Y-124250000D03*
X131270000Y-129750000D03*
X128730000Y-129750000D03*
X125270000Y-126250000D03*
X122730000Y-126250000D03*
X122730000Y-131750000D03*
X125270000Y-131750000D03*
D20*
X128905000Y-150300000D03*
X127635000Y-150300000D03*
X126365000Y-150300000D03*
X125095000Y-150300000D03*
X125095000Y-155700000D03*
X126365000Y-155700000D03*
X127635000Y-155700000D03*
X128905000Y-155700000D03*
D21*
X123000000Y-150000000D03*
X125000000Y-145500000D03*
X134000000Y-145500000D03*
X129500000Y-145500000D03*
X130500000Y-137500000D03*
X128500000Y-134500000D03*
X123000000Y-142500000D03*
X123000000Y-134500000D03*
X132500000Y-152000000D03*
X132000000Y-148500000D03*
X122000000Y-148500000D03*
X123000000Y-152000000D03*
X128500000Y-170500000D03*
X129000000Y-151500000D03*
X132000000Y-146400000D03*
X127500000Y-154000000D03*
X121500000Y-146000000D03*
X128000000Y-146500000D03*
X126000000Y-146500000D03*
X126500000Y-152000000D03*
D22*
X128000000Y-159000000D02*
X128905000Y-158095000D01*
X128905000Y-158095000D02*
X128905000Y-155700000D01*
X124500000Y-136050000D02*
X128900000Y-136050000D01*
X122000000Y-136050000D02*
X124500000Y-136050000D01*
X124500000Y-136950000D02*
X124500000Y-136050000D01*
D23*
X134000000Y-133000000D02*
X134000000Y-125500000D01*
X134000000Y-133000000D02*
X134000000Y-125500000D01*
X134000000Y-168000000D02*
X134000000Y-150000000D01*
X134000000Y-145500000D02*
X134000000Y-133000000D01*
D24*
X132000000Y-133050000D02*
X132050000Y-133000000D01*
X131900000Y-133050000D02*
X132000000Y-133050000D01*
X123000000Y-150000000D02*
X122950980Y-149950980D01*
D22*
X128900000Y-136050000D02*
X129000000Y-135950000D01*
X128900000Y-136050000D02*
X129000000Y-135950000D01*
D24*
X123000000Y-150000000D02*
X122950980Y-149950980D01*
X131900000Y-133050000D02*
X132000000Y-133050000D01*
X132000000Y-133050000D02*
X132050000Y-133000000D01*
D23*
X134000000Y-145500000D02*
X134000000Y-133000000D01*
X134000000Y-145500000D02*
X134000000Y-133000000D01*
D24*
X132000000Y-133050000D02*
X132050000Y-133000000D01*
X131900000Y-133050000D02*
X132000000Y-133050000D01*
X123000000Y-150000000D02*
X122950980Y-149950980D01*
D22*
X128900000Y-136050000D02*
X129000000Y-135950000D01*
X128900000Y-136050000D02*
X129000000Y-135950000D01*
X125000000Y-144550000D02*
X125000000Y-145500000D01*
X122950980Y-149950980D02*
X122000000Y-149950980D01*
D24*
X123000000Y-150000000D02*
X122950980Y-149950980D01*
D22*
X129000000Y-144550000D02*
X129500000Y-145050000D01*
X129500000Y-145050000D02*
X129500000Y-145500000D01*
X128000000Y-168000000D02*
X134000000Y-168000000D01*
X128000000Y-168000000D02*
X126000000Y-166000000D01*
X126000000Y-166000000D02*
X126000000Y-164000000D01*
X126000000Y-164000000D02*
X125500000Y-163500000D01*
X125500000Y-163500000D02*
X125500000Y-159000000D01*
X125500000Y-159000000D02*
X128000000Y-159000000D01*
D24*
X132000000Y-149950980D02*
X132049020Y-150000000D01*
D22*
X132049020Y-150000000D02*
X134000000Y-150000000D01*
X125000000Y-144550000D02*
X129000000Y-144550000D01*
X129000000Y-135950000D02*
X131900000Y-133050000D01*
D24*
X131900000Y-133050000D02*
X132000000Y-133050000D01*
X132000000Y-133050000D02*
X132050000Y-133000000D01*
D22*
X132050000Y-133000000D02*
X134000000Y-133000000D01*
D23*
X130810000Y-177800000D02*
X134000000Y-174610000D01*
X134000000Y-174610000D02*
X134000000Y-168000000D01*
X134000000Y-150000000D02*
X134000000Y-145500000D01*
X134000000Y-145500000D02*
X134000000Y-133000000D01*
D22*
X131270000Y-129750000D02*
X131270000Y-129270000D01*
X131270000Y-129270000D02*
X130000000Y-128000000D01*
X130000000Y-128000000D02*
X130000000Y-125520000D01*
X130000000Y-125520000D02*
X131270000Y-124250000D01*
X132000000Y-158000000D02*
X132000000Y-156000000D01*
D23*
X120000000Y-174500000D02*
X123190000Y-177690000D01*
X120000000Y-152000000D02*
X120000000Y-132000000D01*
D22*
X120000000Y-131750000D02*
X120000000Y-132000000D01*
X120000000Y-131750000D02*
X120000000Y-132000000D01*
D23*
X120000000Y-152000000D02*
X120000000Y-132000000D01*
X120000000Y-152000000D02*
X120000000Y-132000000D01*
D22*
X120000000Y-131750000D02*
X120000000Y-132000000D01*
X125095000Y-150300000D02*
X125095000Y-152595000D01*
X128500000Y-153000000D02*
X131500000Y-156000000D01*
X125500000Y-153000000D02*
X128500000Y-153000000D01*
X125095000Y-152595000D02*
X125500000Y-153000000D01*
X131500000Y-156000000D02*
X132000000Y-156000000D01*
X131080000Y-164000000D02*
X131000000Y-163920000D01*
X131000000Y-163920000D02*
X131000000Y-159000000D01*
X122920000Y-168000000D02*
X120000000Y-168000000D01*
X131000000Y-159000000D02*
X132000000Y-158000000D01*
X123500000Y-159000000D02*
X120000000Y-159000000D01*
X120000000Y-156000000D02*
X122000000Y-156000000D01*
X122730000Y-131750000D02*
X120000000Y-131750000D01*
X120000000Y-131750000D02*
X120000000Y-132000000D01*
D23*
X120000000Y-174500000D02*
X120000000Y-168000000D01*
X120000000Y-168000000D02*
X120000000Y-159000000D01*
X120000000Y-159000000D02*
X120000000Y-156000000D01*
X120000000Y-156000000D02*
X120000000Y-152000000D01*
X120000000Y-152000000D02*
X120000000Y-132000000D01*
X123190000Y-177800000D02*
X123190000Y-177690000D01*
D22*
X122730000Y-126250000D02*
X121250000Y-126250000D01*
D23*
X120000000Y-132000000D02*
X120000000Y-127500000D01*
D22*
X121250000Y-126250000D02*
X120000000Y-127500000D01*
D24*
X130500000Y-137500000D02*
X130500000Y-148500000D01*
X131000000Y-154000000D02*
X132000000Y-154000000D01*
X130500000Y-153500000D02*
X131000000Y-154000000D01*
X130500000Y-148500000D02*
X130500000Y-153500000D01*
X127635000Y-150300000D02*
X127635000Y-148865000D01*
X127635000Y-148865000D02*
X128000000Y-148500000D01*
X128000000Y-148500000D02*
X130500000Y-148500000D01*
X127635000Y-150300000D02*
X127635000Y-148865000D01*
X129000000Y-133050000D02*
X129000000Y-134000000D01*
X129000000Y-134000000D02*
X128500000Y-134500000D01*
X128730000Y-129750000D02*
X129000000Y-130020000D01*
X129000000Y-130020000D02*
X129000000Y-133050000D01*
X124000000Y-153500000D02*
X124000000Y-154000000D01*
X124000000Y-149500000D02*
X124000000Y-153500000D01*
X123500000Y-149000000D02*
X124000000Y-149500000D01*
X123500000Y-149000000D02*
X124000000Y-149500000D01*
X123500000Y-149000000D02*
X124000000Y-149500000D01*
X123500000Y-154000000D02*
X124000000Y-154000000D01*
X124000000Y-154000000D02*
X126000000Y-154000000D01*
X126000000Y-154000000D02*
X126365000Y-154365000D01*
X126365000Y-154365000D02*
X126365000Y-155700000D01*
X124500000Y-134050000D02*
X123450000Y-134050000D01*
X123500000Y-154000000D02*
X122000000Y-154000000D01*
X123500000Y-149000000D02*
X124000000Y-149500000D01*
X123500000Y-143000000D02*
X123500000Y-149000000D01*
X123000000Y-142500000D02*
X123500000Y-143000000D01*
X123450000Y-134050000D02*
X123000000Y-134500000D01*
X125270000Y-131750000D02*
X124500000Y-132520000D01*
X124500000Y-132520000D02*
X124500000Y-134050000D01*
X132500000Y-152000000D02*
X132450980Y-152049020D01*
X132500000Y-152000000D02*
X132450980Y-152049020D01*
X132500000Y-152000000D02*
X132450980Y-152049020D01*
X132000000Y-147450000D02*
X132000000Y-148500000D01*
X132500000Y-152000000D02*
X132450980Y-152049020D01*
X132450980Y-152049020D02*
X132000000Y-152049020D01*
X123000000Y-152000000D02*
X122049020Y-152000000D01*
X122000000Y-147450000D02*
X122000000Y-148500000D01*
X122049020Y-152000000D02*
X122000000Y-152049020D01*
X129000000Y-151500000D02*
X129000000Y-150395000D01*
X129000000Y-150395000D02*
X128905000Y-150300000D01*
X129000000Y-151500000D02*
X128905000Y-151405000D01*
X132000000Y-144550000D02*
X132000000Y-146400000D01*
X132000000Y-144550000D02*
X132000000Y-146400000D01*
X129000000Y-151500000D02*
X128905000Y-151405000D01*
X129000000Y-151500000D02*
X128905000Y-151405000D01*
X132000000Y-144550000D02*
X132000000Y-146400000D01*
X125730000Y-173270000D02*
X125730000Y-177800000D01*
X128500000Y-170500000D02*
X125730000Y-173270000D01*
X132000000Y-144550000D02*
X132000000Y-146400000D01*
X129000000Y-151500000D02*
X128905000Y-151405000D01*
X132000000Y-144550000D02*
X132000000Y-135950000D01*
X122000000Y-138950000D02*
X122000000Y-144550000D01*
X127635000Y-154135000D02*
X127635000Y-155700000D01*
X127500000Y-154000000D02*
X127635000Y-154135000D01*
X122000000Y-144550000D02*
X121500000Y-145050000D01*
X121500000Y-145050000D02*
X121500000Y-146000000D01*
X128000000Y-146500000D02*
X128950000Y-147450000D01*
X128950000Y-147450000D02*
X129000000Y-147450000D01*
X126000000Y-146500000D02*
X125050000Y-147450000D01*
X125050000Y-147450000D02*
X125000000Y-147450000D01*
X126365000Y-150300000D02*
X126365000Y-151865000D01*
X126365000Y-151865000D02*
X126500000Y-152000000D01*
X126365000Y-150300000D02*
X126365000Y-151865000D01*
X125460000Y-168000000D02*
X124500000Y-167040000D01*
X125095000Y-156905000D02*
X125095000Y-155700000D01*
X124500000Y-157500000D02*
X125095000Y-156905000D01*
X124500000Y-167040000D02*
X124500000Y-157500000D01*
D25*
G36*
X120326331Y-148701219D02*
X120431703Y-148773217D01*
X120342012Y-148904484D01*
X120251481Y-149351540D01*
X120251481Y-150550420D01*
X120330066Y-150968061D01*
X120347281Y-150994813D01*
X120342012Y-151002524D01*
X120251481Y-151449580D01*
X120251481Y-152648460D01*
X120325185Y-153040162D01*
X120316452Y-153052944D01*
X120225921Y-153500000D01*
X120225921Y-154500000D01*
X120304506Y-154917641D01*
X120360391Y-155004489D01*
X120248000Y-155275826D01*
X120248000Y-155468250D01*
X120529750Y-155750000D01*
X121687500Y-155750000D01*
X121687500Y-155649079D01*
X122312500Y-155649079D01*
X122312500Y-155750000D01*
X122393000Y-155750000D01*
X122393000Y-156250000D01*
X122312500Y-156250000D01*
X122312500Y-157345250D01*
X122379439Y-157412189D01*
X122361606Y-157419575D01*
X122044576Y-157736606D01*
X121873000Y-158150826D01*
X121873000Y-158405750D01*
X122154750Y-158687500D01*
X123248000Y-158687500D01*
X123248000Y-159312500D01*
X122154750Y-159312500D01*
X121873000Y-159594250D01*
X121873000Y-159849174D01*
X122044576Y-160263394D01*
X122361606Y-160580425D01*
X122775826Y-160752000D01*
X122968250Y-160752000D01*
X123126998Y-160593252D01*
X123126998Y-160752000D01*
X123248000Y-160752000D01*
X123248000Y-166135893D01*
X122998411Y-166075589D01*
X122256003Y-166192069D01*
X122111117Y-166252082D01*
X122051396Y-166603894D01*
X122920000Y-167472498D01*
X122934142Y-167458356D01*
X123461644Y-167985858D01*
X123447502Y-168000000D01*
X123461644Y-168014142D01*
X122934142Y-168541644D01*
X122920000Y-168527502D01*
X122051396Y-169396106D01*
X122111117Y-169747918D01*
X122841589Y-169924411D01*
X123583997Y-169807931D01*
X123728883Y-169747918D01*
X123788604Y-169396108D01*
X124016382Y-169623886D01*
X124214330Y-169425938D01*
X124388570Y-169600483D01*
X125082606Y-169888672D01*
X125834097Y-169889327D01*
X125873000Y-169873253D01*
X125873000Y-171356404D01*
X124844702Y-172384702D01*
X124573303Y-172790880D01*
X124478000Y-173270000D01*
X124478000Y-174699438D01*
X124414174Y-174673000D01*
X123844750Y-174673000D01*
X123563000Y-174954750D01*
X123563000Y-177427000D01*
X123583000Y-177427000D01*
X123583000Y-178173000D01*
X123563000Y-178173000D01*
X123563000Y-178193000D01*
X122817000Y-178193000D01*
X122817000Y-178173000D01*
X121344750Y-178173000D01*
X121063000Y-178454750D01*
X121063000Y-180024174D01*
X121234575Y-180438394D01*
X121551606Y-180755424D01*
X121654393Y-180798000D01*
X120202000Y-180798000D01*
X120202000Y-175575826D01*
X121063000Y-175575826D01*
X121063000Y-177145250D01*
X121344750Y-177427000D01*
X122817000Y-177427000D01*
X122817000Y-174954750D01*
X122535250Y-174673000D01*
X121965826Y-174673000D01*
X121551606Y-174844576D01*
X121234575Y-175161606D01*
X121063000Y-175575826D01*
X120202000Y-175575826D01*
X120202000Y-167921589D01*
X120995589Y-167921589D01*
X121112069Y-168663997D01*
X121172082Y-168808883D01*
X121523894Y-168868604D01*
X122392498Y-168000000D01*
X121523894Y-167131396D01*
X121172082Y-167191117D01*
X120995589Y-167921589D01*
X120202000Y-167921589D01*
X120202000Y-156531750D01*
X120248000Y-156531750D01*
X120248000Y-156724174D01*
X120419575Y-157138394D01*
X120736606Y-157455424D01*
X121150826Y-157627000D01*
X121405750Y-157627000D01*
X121687500Y-157345250D01*
X121687500Y-156250000D01*
X120529750Y-156250000D01*
X120248000Y-156531750D01*
X120202000Y-156531750D01*
X120202000Y-148508003D01*
X120326331Y-148701219D01*
X120326331Y-148701219D01*
G37*
X120326331Y-148701219D02*
X120431703Y-148773217D01*
X120342012Y-148904484D01*
X120251481Y-149351540D01*
X120251481Y-150550420D01*
X120330066Y-150968061D01*
X120347281Y-150994813D01*
X120342012Y-151002524D01*
X120251481Y-151449580D01*
X120251481Y-152648460D01*
X120325185Y-153040162D01*
X120316452Y-153052944D01*
X120225921Y-153500000D01*
X120225921Y-154500000D01*
X120304506Y-154917641D01*
X120360391Y-155004489D01*
X120248000Y-155275826D01*
X120248000Y-155468250D01*
X120529750Y-155750000D01*
X121687500Y-155750000D01*
X121687500Y-155649079D01*
X122312500Y-155649079D01*
X122312500Y-155750000D01*
X122393000Y-155750000D01*
X122393000Y-156250000D01*
X122312500Y-156250000D01*
X122312500Y-157345250D01*
X122379439Y-157412189D01*
X122361606Y-157419575D01*
X122044576Y-157736606D01*
X121873000Y-158150826D01*
X121873000Y-158405750D01*
X122154750Y-158687500D01*
X123248000Y-158687500D01*
X123248000Y-159312500D01*
X122154750Y-159312500D01*
X121873000Y-159594250D01*
X121873000Y-159849174D01*
X122044576Y-160263394D01*
X122361606Y-160580425D01*
X122775826Y-160752000D01*
X122968250Y-160752000D01*
X123126998Y-160593252D01*
X123126998Y-160752000D01*
X123248000Y-160752000D01*
X123248000Y-166135893D01*
X122998411Y-166075589D01*
X122256003Y-166192069D01*
X122111117Y-166252082D01*
X122051396Y-166603894D01*
X122920000Y-167472498D01*
X122934142Y-167458356D01*
X123461644Y-167985858D01*
X123447502Y-168000000D01*
X123461644Y-168014142D01*
X122934142Y-168541644D01*
X122920000Y-168527502D01*
X122051396Y-169396106D01*
X122111117Y-169747918D01*
X122841589Y-169924411D01*
X123583997Y-169807931D01*
X123728883Y-169747918D01*
X123788604Y-169396108D01*
X124016382Y-169623886D01*
X124214330Y-169425938D01*
X124388570Y-169600483D01*
X125082606Y-169888672D01*
X125834097Y-169889327D01*
X125873000Y-169873253D01*
X125873000Y-171356404D01*
X124844702Y-172384702D01*
X124573303Y-172790880D01*
X124478000Y-173270000D01*
X124478000Y-174699438D01*
X124414174Y-174673000D01*
X123844750Y-174673000D01*
X123563000Y-174954750D01*
X123563000Y-177427000D01*
X123583000Y-177427000D01*
X123583000Y-178173000D01*
X123563000Y-178173000D01*
X123563000Y-178193000D01*
X122817000Y-178193000D01*
X122817000Y-178173000D01*
X121344750Y-178173000D01*
X121063000Y-178454750D01*
X121063000Y-180024174D01*
X121234575Y-180438394D01*
X121551606Y-180755424D01*
X121654393Y-180798000D01*
X120202000Y-180798000D01*
X120202000Y-175575826D01*
X121063000Y-175575826D01*
X121063000Y-177145250D01*
X121344750Y-177427000D01*
X122817000Y-177427000D01*
X122817000Y-174954750D01*
X122535250Y-174673000D01*
X121965826Y-174673000D01*
X121551606Y-174844576D01*
X121234575Y-175161606D01*
X121063000Y-175575826D01*
X120202000Y-175575826D01*
X120202000Y-167921589D01*
X120995589Y-167921589D01*
X121112069Y-168663997D01*
X121172082Y-168808883D01*
X121523894Y-168868604D01*
X122392498Y-168000000D01*
X121523894Y-167131396D01*
X121172082Y-167191117D01*
X120995589Y-167921589D01*
X120202000Y-167921589D01*
X120202000Y-156531750D01*
X120248000Y-156531750D01*
X120248000Y-156724174D01*
X120419575Y-157138394D01*
X120736606Y-157455424D01*
X121150826Y-157627000D01*
X121405750Y-157627000D01*
X121687500Y-157345250D01*
X121687500Y-156250000D01*
X120529750Y-156250000D01*
X120248000Y-156531750D01*
X120202000Y-156531750D01*
X120202000Y-148508003D01*
X120326331Y-148701219D01*
G36*
X123143124Y-131607338D02*
X123142875Y-131892911D01*
X122744142Y-132291644D01*
X122730000Y-132277502D01*
X122715858Y-132291644D01*
X122188356Y-131764142D01*
X122202498Y-131750000D01*
X122188356Y-131735858D01*
X122546823Y-131377391D01*
X122570740Y-131377412D01*
X122813069Y-131277283D01*
X123143124Y-131607338D01*
X123143124Y-131607338D01*
G37*
X123143124Y-131607338D02*
X123142875Y-131892911D01*
X122744142Y-132291644D01*
X122730000Y-132277502D01*
X122715858Y-132291644D01*
X122188356Y-131764142D01*
X122202498Y-131750000D01*
X122188356Y-131735858D01*
X122546823Y-131377391D01*
X122570740Y-131377412D01*
X122813069Y-131277283D01*
X123143124Y-131607338D01*
G36*
X123143124Y-126107338D02*
X123142875Y-126392911D01*
X122813353Y-126722433D01*
X122574889Y-126623414D01*
X122547604Y-126623390D01*
X122188356Y-126264142D01*
X122202498Y-126250000D01*
X122188356Y-126235858D01*
X122715858Y-125708356D01*
X122730000Y-125722498D01*
X122744142Y-125708356D01*
X123143124Y-126107338D01*
X123143124Y-126107338D01*
G37*
X123143124Y-126107338D02*
X123142875Y-126392911D01*
X122813353Y-126722433D01*
X122574889Y-126623414D01*
X122547604Y-126623390D01*
X122188356Y-126264142D01*
X122202498Y-126250000D01*
X122188356Y-126235858D01*
X122715858Y-125708356D01*
X122730000Y-125722498D01*
X122744142Y-125708356D01*
X123143124Y-126107338D01*
G36*
X133798000Y-180798000D02*
X131532754Y-180798000D01*
X132050265Y-180567767D01*
X132632351Y-179958575D01*
X132937000Y-179173000D01*
X132937000Y-178173000D01*
X131183000Y-178173000D01*
X131183000Y-178193000D01*
X130437000Y-178193000D01*
X130437000Y-178173000D01*
X130417000Y-178173000D01*
X130417000Y-177427000D01*
X130437000Y-177427000D01*
X130437000Y-174992842D01*
X131183000Y-174992842D01*
X131183000Y-177427000D01*
X132937000Y-177427000D01*
X132937000Y-176427000D01*
X132632351Y-175641425D01*
X132050265Y-175032233D01*
X131505988Y-174790092D01*
X131183000Y-174992842D01*
X130437000Y-174992842D01*
X130114012Y-174790092D01*
X129569735Y-175032233D01*
X129531250Y-175072510D01*
X129083968Y-174773646D01*
X128270000Y-174611738D01*
X127456032Y-174773646D01*
X127127000Y-174993498D01*
X127127000Y-173643596D01*
X128886120Y-171884476D01*
X129307275Y-171710457D01*
X129709047Y-171309386D01*
X129926752Y-170785093D01*
X129927248Y-170217397D01*
X129710457Y-169692725D01*
X129369298Y-169350970D01*
X129623886Y-169096382D01*
X129396108Y-168868604D01*
X129747918Y-168808883D01*
X129924411Y-168078411D01*
X129807931Y-167336003D01*
X129747918Y-167191117D01*
X129396106Y-167131396D01*
X128527502Y-168000000D01*
X128541644Y-168014142D01*
X128014142Y-168541644D01*
X128000000Y-168527502D01*
X127985858Y-168541644D01*
X127458356Y-168014142D01*
X127472498Y-168000000D01*
X127458356Y-167985858D01*
X127985858Y-167458356D01*
X128000000Y-167472498D01*
X128868604Y-166603894D01*
X128808883Y-166252082D01*
X128078411Y-166075589D01*
X127336003Y-166192069D01*
X127191117Y-166252082D01*
X127131396Y-166603892D01*
X127127000Y-166599496D01*
X127127000Y-165593268D01*
X127294330Y-165425938D01*
X127468570Y-165600483D01*
X128162606Y-165888672D01*
X128914097Y-165889327D01*
X129608635Y-165602350D01*
X129809885Y-165401451D01*
X130008570Y-165600483D01*
X130702606Y-165888672D01*
X131454097Y-165889327D01*
X132148635Y-165602350D01*
X132680483Y-165071430D01*
X132968672Y-164377394D01*
X132969327Y-163625903D01*
X132682350Y-162931365D01*
X132427000Y-162675569D01*
X132427000Y-160439583D01*
X132558548Y-160247056D01*
X132649079Y-159800000D01*
X132649079Y-159369004D01*
X133009042Y-159009041D01*
X133318376Y-158546089D01*
X133427000Y-158000000D01*
X133427000Y-157322526D01*
X133683548Y-156947056D01*
X133774079Y-156500000D01*
X133774079Y-155500000D01*
X133695494Y-155082359D01*
X133644862Y-155003675D01*
X133683548Y-154947056D01*
X133774079Y-154500000D01*
X133774079Y-153500000D01*
X133695494Y-153082359D01*
X133668992Y-153041174D01*
X133722484Y-152777027D01*
X133798000Y-152595163D01*
X133798000Y-180798000D01*
X133798000Y-180798000D01*
G37*
X133798000Y-180798000D02*
X131532754Y-180798000D01*
X132050265Y-180567767D01*
X132632351Y-179958575D01*
X132937000Y-179173000D01*
X132937000Y-178173000D01*
X131183000Y-178173000D01*
X131183000Y-178193000D01*
X130437000Y-178193000D01*
X130437000Y-178173000D01*
X130417000Y-178173000D01*
X130417000Y-177427000D01*
X130437000Y-177427000D01*
X130437000Y-174992842D01*
X131183000Y-174992842D01*
X131183000Y-177427000D01*
X132937000Y-177427000D01*
X132937000Y-176427000D01*
X132632351Y-175641425D01*
X132050265Y-175032233D01*
X131505988Y-174790092D01*
X131183000Y-174992842D01*
X130437000Y-174992842D01*
X130114012Y-174790092D01*
X129569735Y-175032233D01*
X129531250Y-175072510D01*
X129083968Y-174773646D01*
X128270000Y-174611738D01*
X127456032Y-174773646D01*
X127127000Y-174993498D01*
X127127000Y-173643596D01*
X128886120Y-171884476D01*
X129307275Y-171710457D01*
X129709047Y-171309386D01*
X129926752Y-170785093D01*
X129927248Y-170217397D01*
X129710457Y-169692725D01*
X129369298Y-169350970D01*
X129623886Y-169096382D01*
X129396108Y-168868604D01*
X129747918Y-168808883D01*
X129924411Y-168078411D01*
X129807931Y-167336003D01*
X129747918Y-167191117D01*
X129396106Y-167131396D01*
X128527502Y-168000000D01*
X128541644Y-168014142D01*
X128014142Y-168541644D01*
X128000000Y-168527502D01*
X127985858Y-168541644D01*
X127458356Y-168014142D01*
X127472498Y-168000000D01*
X127458356Y-167985858D01*
X127985858Y-167458356D01*
X128000000Y-167472498D01*
X128868604Y-166603894D01*
X128808883Y-166252082D01*
X128078411Y-166075589D01*
X127336003Y-166192069D01*
X127191117Y-166252082D01*
X127131396Y-166603892D01*
X127127000Y-166599496D01*
X127127000Y-165593268D01*
X127294330Y-165425938D01*
X127468570Y-165600483D01*
X128162606Y-165888672D01*
X128914097Y-165889327D01*
X129608635Y-165602350D01*
X129809885Y-165401451D01*
X130008570Y-165600483D01*
X130702606Y-165888672D01*
X131454097Y-165889327D01*
X132148635Y-165602350D01*
X132680483Y-165071430D01*
X132968672Y-164377394D01*
X132969327Y-163625903D01*
X132682350Y-162931365D01*
X132427000Y-162675569D01*
X132427000Y-160439583D01*
X132558548Y-160247056D01*
X132649079Y-159800000D01*
X132649079Y-159369004D01*
X133009042Y-159009041D01*
X133318376Y-158546089D01*
X133427000Y-158000000D01*
X133427000Y-157322526D01*
X133683548Y-156947056D01*
X133774079Y-156500000D01*
X133774079Y-155500000D01*
X133695494Y-155082359D01*
X133644862Y-155003675D01*
X133683548Y-154947056D01*
X133774079Y-154500000D01*
X133774079Y-153500000D01*
X133695494Y-153082359D01*
X133668992Y-153041174D01*
X133722484Y-152777027D01*
X133798000Y-152595163D01*
X133798000Y-180798000D01*
G36*
X128250000Y-158627000D02*
X128393000Y-158627000D01*
X128393000Y-159373000D01*
X128250000Y-159373000D01*
X128250000Y-160645250D01*
X128531750Y-160927000D01*
X128724174Y-160927000D01*
X129138394Y-160755425D01*
X129455424Y-160438394D01*
X129500904Y-160328597D01*
X129573000Y-160440638D01*
X129573000Y-162383559D01*
X128917394Y-162111328D01*
X128165903Y-162110673D01*
X127471365Y-162397650D01*
X127294487Y-162574219D01*
X127127000Y-162406732D01*
X127127000Y-160865354D01*
X127275826Y-160927000D01*
X127468250Y-160927000D01*
X127750000Y-160645250D01*
X127750000Y-159373000D01*
X127607000Y-159373000D01*
X127607000Y-158627000D01*
X127750000Y-158627000D01*
X127750000Y-158607000D01*
X128250000Y-158607000D01*
X128250000Y-158627000D01*
X128250000Y-158627000D01*
G37*
X128250000Y-158627000D02*
X128393000Y-158627000D01*
X128393000Y-159373000D01*
X128250000Y-159373000D01*
X128250000Y-160645250D01*
X128531750Y-160927000D01*
X128724174Y-160927000D01*
X129138394Y-160755425D01*
X129455424Y-160438394D01*
X129500904Y-160328597D01*
X129573000Y-160440638D01*
X129573000Y-162383559D01*
X128917394Y-162111328D01*
X128165903Y-162110673D01*
X127471365Y-162397650D01*
X127294487Y-162574219D01*
X127127000Y-162406732D01*
X127127000Y-160865354D01*
X127275826Y-160927000D01*
X127468250Y-160927000D01*
X127750000Y-160645250D01*
X127750000Y-159373000D01*
X127607000Y-159373000D01*
X127607000Y-158627000D01*
X127750000Y-158627000D01*
X127750000Y-158607000D01*
X128250000Y-158607000D01*
X128250000Y-158627000D01*
G36*
X133798000Y-151404594D02*
X133710457Y-151192725D01*
X133697803Y-151180049D01*
X133669934Y-151031939D01*
X133639461Y-150984582D01*
X133726440Y-150774594D01*
X133726440Y-150532450D01*
X133444690Y-150250700D01*
X132299720Y-150250700D01*
X132299720Y-150300501D01*
X131752000Y-150300501D01*
X131752000Y-149926784D01*
X132282603Y-149927248D01*
X132807275Y-149710457D01*
X132866575Y-149651260D01*
X133444690Y-149651260D01*
X133726440Y-149369510D01*
X133726440Y-149127366D01*
X133578584Y-148770408D01*
X133651219Y-148723669D01*
X133798000Y-148508848D01*
X133798000Y-151404594D01*
X133798000Y-151404594D01*
G37*
X133798000Y-151404594D02*
X133710457Y-151192725D01*
X133697803Y-151180049D01*
X133669934Y-151031939D01*
X133639461Y-150984582D01*
X133726440Y-150774594D01*
X133726440Y-150532450D01*
X133444690Y-150250700D01*
X132299720Y-150250700D01*
X132299720Y-150300501D01*
X131752000Y-150300501D01*
X131752000Y-149926784D01*
X132282603Y-149927248D01*
X132807275Y-149710457D01*
X132866575Y-149651260D01*
X133444690Y-149651260D01*
X133726440Y-149369510D01*
X133726440Y-149127366D01*
X133578584Y-148770408D01*
X133651219Y-148723669D01*
X133798000Y-148508848D01*
X133798000Y-151404594D01*
G36*
X129248000Y-144943000D02*
X128627000Y-144943000D01*
X128627000Y-144775000D01*
X128607000Y-144775000D01*
X128607000Y-144325000D01*
X128627000Y-144325000D01*
X128627000Y-143254750D01*
X128345250Y-142973000D01*
X127925826Y-142973000D01*
X127511606Y-143144576D01*
X127194575Y-143461606D01*
X127127000Y-143624747D01*
X127127000Y-143127112D01*
X127520250Y-143127455D01*
X128486132Y-142728361D01*
X129225764Y-141990019D01*
X129248000Y-141936469D01*
X129248000Y-144943000D01*
X129248000Y-144943000D01*
G37*
X129248000Y-144943000D02*
X128627000Y-144943000D01*
X128627000Y-144775000D01*
X128607000Y-144775000D01*
X128607000Y-144325000D01*
X128627000Y-144325000D01*
X128627000Y-143254750D01*
X128345250Y-142973000D01*
X127925826Y-142973000D01*
X127511606Y-143144576D01*
X127194575Y-143461606D01*
X127127000Y-143624747D01*
X127127000Y-143127112D01*
X127520250Y-143127455D01*
X128486132Y-142728361D01*
X129225764Y-141990019D01*
X129248000Y-141936469D01*
X129248000Y-144943000D01*
G36*
X129373000Y-135725000D02*
X129393000Y-135725000D01*
X129393000Y-136175000D01*
X129373000Y-136175000D01*
X129373000Y-136608710D01*
X129290953Y-136690614D01*
X129073248Y-137214907D01*
X129072752Y-137782603D01*
X129248000Y-138206734D01*
X129248000Y-139061398D01*
X129228361Y-139013868D01*
X128490019Y-138274236D01*
X127524835Y-137873457D01*
X127127000Y-137873110D01*
X127127000Y-136875253D01*
X127194575Y-137038394D01*
X127511606Y-137355424D01*
X127925826Y-137527000D01*
X128345250Y-137527000D01*
X128627000Y-137245250D01*
X128627000Y-136175000D01*
X128607000Y-136175000D01*
X128607000Y-135927095D01*
X128782603Y-135927248D01*
X129307275Y-135710457D01*
X129373000Y-135644847D01*
X129373000Y-135725000D01*
X129373000Y-135725000D01*
G37*
X129373000Y-135725000D02*
X129393000Y-135725000D01*
X129393000Y-136175000D01*
X129373000Y-136175000D01*
X129373000Y-136608710D01*
X129290953Y-136690614D01*
X129073248Y-137214907D01*
X129072752Y-137782603D01*
X129248000Y-138206734D01*
X129248000Y-139061398D01*
X129228361Y-139013868D01*
X128490019Y-138274236D01*
X127524835Y-137873457D01*
X127127000Y-137873110D01*
X127127000Y-136875253D01*
X127194575Y-137038394D01*
X127511606Y-137355424D01*
X127925826Y-137527000D01*
X128345250Y-137527000D01*
X128627000Y-137245250D01*
X128627000Y-136175000D01*
X128607000Y-136175000D01*
X128607000Y-135927095D01*
X128782603Y-135927248D01*
X129307275Y-135710457D01*
X129373000Y-135644847D01*
X129373000Y-135725000D01*
M02*
