G04 #@! TF.FileFunction,Soldermask,Top*
%FSLAX46Y46*%
G04 Gerber Fmt 4.6, Leading zero omitted, Abs format (unit mm)*
G04 Created by KiCad (PCBNEW 4.0.4-stable) date 03/22/17 00:22:46*
%MOMM*%
%LPD*%
G01*
G04 APERTURE LIST*
%ADD10C,0.100000*%
%ADD11R,2.100000X1.300000*%
%ADD12R,2.400000X4.400000*%
%ADD13O,2.400000X4.400000*%
%ADD14C,1.924000*%
%ADD15R,1.400000X2.000000*%
%ADD16R,1.650000X1.400000*%
%ADD17R,1.598880X1.598880*%
%ADD18R,1.400000X1.650000*%
%ADD19C,2.400000*%
%ADD20C,2.900000*%
%ADD21C,1.400000*%
%ADD22R,1.000000X1.950000*%
G04 APERTURE END LIST*
D10*
D11*
X132000000Y-133050000D03*
X132000000Y-135950000D03*
X129000000Y-135950000D03*
X129000000Y-133050000D03*
X124500000Y-136950000D03*
X124500000Y-134050000D03*
X122000000Y-136050000D03*
X122000000Y-138950000D03*
D12*
X123190000Y-177800000D03*
D13*
X125730000Y-177800000D03*
X128270000Y-177800000D03*
X130810000Y-177800000D03*
D14*
X125460000Y-168000000D03*
X122920000Y-168000000D03*
X128000000Y-168000000D03*
X128540000Y-164000000D03*
X131080000Y-164000000D03*
X126000000Y-164000000D03*
D15*
X128000000Y-159000000D03*
X131000000Y-159000000D03*
D16*
X132000000Y-154000000D03*
X132000000Y-156000000D03*
X122000000Y-154000000D03*
X122000000Y-156000000D03*
D17*
X122000000Y-149950980D03*
X122000000Y-152049020D03*
D11*
X122000000Y-147450000D03*
X122000000Y-144550000D03*
X132000000Y-147450000D03*
X132000000Y-144550000D03*
D17*
X132000000Y-149950980D03*
X132000000Y-152049020D03*
D11*
X129000000Y-144550000D03*
X129000000Y-147450000D03*
X125000000Y-144550000D03*
X125000000Y-147450000D03*
D18*
X125500000Y-159000000D03*
X123500000Y-159000000D03*
D19*
X128730000Y-124250000D03*
X131270000Y-124250000D03*
X131270000Y-129750000D03*
X128730000Y-129750000D03*
D20*
X128100000Y-127000000D03*
X131900000Y-127000000D03*
D21*
X132450000Y-131650000D03*
D19*
X125270000Y-126250000D03*
X122730000Y-126250000D03*
X122730000Y-131750000D03*
X125270000Y-131750000D03*
D20*
X125900000Y-129000000D03*
X122100000Y-129000000D03*
D21*
X121550000Y-133650000D03*
D22*
X128905000Y-150300000D03*
X127635000Y-150300000D03*
X126365000Y-150300000D03*
X125095000Y-150300000D03*
X125095000Y-155700000D03*
X126365000Y-155700000D03*
X127635000Y-155700000D03*
X128905000Y-155700000D03*
M02*
