M48
;DRILL file {KiCad 4.0.1-stable} date 5/1/2017 11:26:13 AM
;FORMAT={-:-/ absolute / inch / decimal}
FMAT,2
INCH,TZ
T1C0.055
T2C0.059
T3C0.118
%
G90
G05
M72
T1
X3.7Y-3.
X3.7Y-3.1969
X3.7Y-3.3937
X3.7Y-3.5906
X3.7Y-4.8094
X3.7Y-5.0063
X3.7Y-5.2031
X3.7Y-5.4
X4.6Y-3.
X4.6Y-3.1969
X4.6Y-3.3937
X4.6Y-3.5906
X4.6Y-4.8094
X4.6Y-5.0063
X4.6Y-5.2031
X4.6Y-5.4
X5.5Y-3.
X5.5Y-3.1969
X5.5Y-3.3937
X5.5Y-3.5906
X5.5Y-4.8094
X5.5Y-5.0063
X5.5Y-5.2031
X5.5Y-5.4
X6.4Y-3.
X6.4Y-3.1969
X6.4Y-3.3937
X6.4Y-3.5906
X6.4Y-4.8094
X6.4Y-5.0063
X6.4Y-5.2031
X6.4Y-5.4
T2
X3.85Y-2.6
X3.85Y-4.
X3.85Y-4.4
X3.85Y-5.8
X4.15Y-2.6
X4.15Y-4.
X4.15Y-4.4
X4.15Y-5.8
X4.45Y-2.6
X4.45Y-4.
X4.45Y-4.4
X4.45Y-5.8
X4.75Y-2.6
X4.75Y-4.
X4.75Y-4.4
X4.75Y-5.8
X5.05Y-2.6
X5.05Y-4.
X5.05Y-4.4
X5.05Y-5.8
X5.35Y-2.6
X5.35Y-4.
X5.35Y-4.4
X5.35Y-5.8
X5.65Y-2.6
X5.65Y-4.
X5.65Y-4.4
X5.65Y-5.8
X5.95Y-2.6
X5.95Y-4.
X5.95Y-4.4
X5.95Y-5.8
X6.25Y-2.6
X6.25Y-4.
X6.25Y-4.4
X6.25Y-5.8
T3
X3.2Y-2.6
X3.2Y-5.8
X6.9Y-2.6
X6.9Y-5.8
T0
M30
