M48
;DRILL file {KiCad 4.0.4-stable} date 04/29/17 00:29:33
;FORMAT={-:-/ absolute / inch / decimal}
FMAT,2
INCH,TZ
T1C0.055
T2C0.059
T3C0.118
%
G90
G05
M72
T1
X3.7Y-2.9
X3.7Y-3.0969
X3.7Y-3.2937
X3.7Y-3.4906
X3.7Y-4.9094
X3.7Y-5.1063
X3.7Y-5.3031
X3.7Y-5.5
X4.6Y-2.9
X4.6Y-3.0969
X4.6Y-3.2937
X4.6Y-3.4906
X4.6Y-4.9094
X4.6Y-5.1063
X4.6Y-5.3031
X4.6Y-5.5
X5.5Y-2.9
X5.5Y-3.0969
X5.5Y-3.2937
X5.5Y-3.4906
X5.5Y-4.9094
X5.5Y-5.1063
X5.5Y-5.3031
X5.5Y-5.5
X6.4Y-2.9
X6.4Y-3.0969
X6.4Y-3.2937
X6.4Y-3.4906
X6.4Y-4.9094
X6.4Y-5.1063
X6.4Y-5.3031
X6.4Y-5.5
T2
X3.85Y-2.5
X3.85Y-4.
X3.85Y-4.4
X3.85Y-5.9
X4.15Y-2.5
X4.15Y-4.
X4.15Y-4.4
X4.15Y-5.9
X4.45Y-2.5
X4.45Y-4.
X4.45Y-4.4
X4.45Y-5.9
X4.75Y-2.5
X4.75Y-4.
X4.75Y-4.4
X4.75Y-5.9
X5.05Y-2.5
X5.05Y-4.
X5.05Y-4.4
X5.05Y-5.9
X5.35Y-2.5
X5.35Y-4.
X5.35Y-4.4
X5.35Y-5.9
X5.65Y-2.5
X5.65Y-4.
X5.65Y-4.4
X5.65Y-5.9
X5.95Y-2.5
X5.95Y-4.
X5.95Y-4.4
X5.95Y-5.9
X6.25Y-2.5
X6.25Y-4.
X6.25Y-4.4
X6.25Y-5.9
T3
X3.2Y-2.5
X3.2Y-5.9
X6.9Y-2.5
X6.9Y-5.9
T0
M30
