G04 #@! TF.FileFunction,Copper,L1,Top,Signal*
%FSLAX46Y46*%
G04 Gerber Fmt 4.6, Leading zero omitted, Abs format (unit mm)*
G04 Created by KiCad (PCBNEW 4.0.4-stable) date 04/29/17 00:29:34*
%MOMM*%
%LPD*%
G01*
G04 APERTURE LIST*
%ADD10C,0.100000*%
%ADD11R,3.000000X3.000000*%
%ADD12C,3.000000*%
%ADD13R,4.000000X2.500000*%
%ADD14O,4.000000X2.500000*%
%ADD15C,1.200000*%
%ADD16C,0.900000*%
%ADD17C,0.254000*%
G04 APERTURE END LIST*
D10*
D11*
X105410000Y-63500000D03*
X97790000Y-63500000D03*
X113030000Y-63500000D03*
X120650000Y-63500000D03*
X128270000Y-63500000D03*
X135890000Y-63500000D03*
X143510000Y-63500000D03*
X151130000Y-63500000D03*
X158750000Y-63500000D03*
D12*
X105410000Y-111760000D03*
X97790000Y-111760000D03*
X113030000Y-111760000D03*
X120650000Y-111760000D03*
X128270000Y-111760000D03*
X135890000Y-111760000D03*
X143510000Y-111760000D03*
X151130000Y-111760000D03*
X158750000Y-111760000D03*
D11*
X105410000Y-149860000D03*
X97790000Y-149860000D03*
X113030000Y-149860000D03*
X120650000Y-149860000D03*
X128270000Y-149860000D03*
X135890000Y-149860000D03*
X143510000Y-149860000D03*
X151130000Y-149860000D03*
X158750000Y-149860000D03*
D13*
X93980000Y-73660000D03*
D14*
X93980000Y-78660000D03*
X93980000Y-88660000D03*
X93980000Y-83660000D03*
D13*
X116840000Y-73660000D03*
D14*
X116840000Y-78660000D03*
X116840000Y-88660000D03*
X116840000Y-83660000D03*
D13*
X139700000Y-73660000D03*
D14*
X139700000Y-78660000D03*
X139700000Y-88660000D03*
X139700000Y-83660000D03*
D13*
X162560000Y-73660000D03*
D14*
X162560000Y-78660000D03*
X162560000Y-88660000D03*
X162560000Y-83660000D03*
D13*
X162560000Y-139700000D03*
D14*
X162560000Y-134700000D03*
X162560000Y-124700000D03*
X162560000Y-129700000D03*
D13*
X139700000Y-139700000D03*
D14*
X139700000Y-134700000D03*
X139700000Y-124700000D03*
X139700000Y-129700000D03*
D12*
X105410000Y-101600000D03*
X97790000Y-101600000D03*
X113030000Y-101600000D03*
X120650000Y-101600000D03*
X128270000Y-101600000D03*
X135890000Y-101600000D03*
X143510000Y-101600000D03*
X151130000Y-101600000D03*
X158750000Y-101600000D03*
D13*
X116840000Y-139700000D03*
D14*
X116840000Y-134700000D03*
X116840000Y-124700000D03*
X116840000Y-129700000D03*
D13*
X93980000Y-139700000D03*
D14*
X93980000Y-134700000D03*
X93980000Y-124700000D03*
X93980000Y-129700000D03*
D15*
X139700000Y-139700000D02*
X162560000Y-139700000D01*
X116840000Y-139700000D02*
X139700000Y-139700000D01*
X93980000Y-139700000D02*
X116840000Y-139700000D01*
X139700000Y-73660000D02*
X158750000Y-73660000D01*
X158750000Y-73660000D02*
X162560000Y-73660000D01*
X116840000Y-73660000D02*
X139700000Y-73660000D01*
X93980000Y-73660000D02*
X116840000Y-73660000D01*
X93980000Y-73660000D02*
X83820000Y-73660000D01*
X83820000Y-139700000D02*
X93980000Y-139700000D01*
X78740000Y-134620000D02*
X83820000Y-139700000D01*
X78740000Y-78740000D02*
X78740000Y-134620000D01*
X83820000Y-73660000D02*
X78740000Y-78740000D01*
X172720000Y-139700000D02*
X177800000Y-134620000D01*
X162560000Y-73660000D02*
X172720000Y-73660000D01*
X177800000Y-78740000D02*
X177800000Y-134620000D01*
X172720000Y-73660000D02*
X177800000Y-78740000D01*
X172720000Y-139700000D02*
X162560000Y-139700000D01*
D16*
X172720000Y-81280000D02*
X172720000Y-132080000D01*
X93980000Y-78660000D02*
X86440000Y-78660000D01*
X86440000Y-134700000D02*
X93980000Y-134700000D01*
X83820000Y-132080000D02*
X86440000Y-134700000D01*
X83820000Y-81280000D02*
X83820000Y-132080000D01*
X86440000Y-78660000D02*
X83820000Y-81280000D01*
X162560000Y-78660000D02*
X170100000Y-78660000D01*
X170100000Y-134700000D02*
X162560000Y-134700000D01*
X172720000Y-132080000D02*
X170100000Y-134700000D01*
X170100000Y-78660000D02*
X172720000Y-81280000D01*
X93980000Y-134700000D02*
X116840000Y-134700000D01*
X139700000Y-134700000D02*
X116840000Y-134700000D01*
X162560000Y-134700000D02*
X139700000Y-134700000D01*
X139700000Y-78660000D02*
X162560000Y-78660000D01*
X116840000Y-78660000D02*
X139700000Y-78660000D01*
X93980000Y-78660000D02*
X116840000Y-78660000D01*
X166370000Y-129700000D02*
X168910000Y-127160000D01*
X168910000Y-127160000D02*
X168910000Y-127000000D01*
X162560000Y-83660000D02*
X166210000Y-83660000D01*
X166210000Y-83660000D02*
X168910000Y-86360000D01*
X168910000Y-86360000D02*
X168910000Y-127000000D01*
X90170000Y-129700000D02*
X87630000Y-127160000D01*
X87630000Y-127160000D02*
X87630000Y-127000000D01*
X93980000Y-83660000D02*
X90330000Y-83660000D01*
X90330000Y-83660000D02*
X87630000Y-86360000D01*
X87630000Y-86360000D02*
X87630000Y-127000000D01*
X90170000Y-129700000D02*
X93980000Y-129700000D01*
X166370000Y-129700000D02*
X162560000Y-129700000D01*
X139700000Y-129700000D02*
X162560000Y-129700000D01*
X116840000Y-129700000D02*
X139700000Y-129700000D01*
X93980000Y-129700000D02*
X116840000Y-129700000D01*
X116840000Y-83660000D02*
X139700000Y-83660000D01*
X93980000Y-83660000D02*
X116840000Y-83660000D01*
X162560000Y-83660000D02*
X139700000Y-83660000D01*
D17*
G36*
X113877235Y-86858965D02*
X114540299Y-87223488D01*
X114855946Y-87323617D01*
X114678343Y-87501173D01*
X114439674Y-87765823D01*
X114487304Y-88035000D01*
X115840000Y-88035000D01*
X115840000Y-87517163D01*
X116013481Y-87536622D01*
X116067612Y-87537000D01*
X117612388Y-87537000D01*
X117840000Y-87514682D01*
X117840000Y-88035000D01*
X119192696Y-88035000D01*
X119240326Y-87765823D01*
X119001657Y-87501173D01*
X118824885Y-87324447D01*
X119089798Y-87244465D01*
X119757887Y-86889236D01*
X119944547Y-86737000D01*
X136591883Y-86737000D01*
X136737235Y-86858965D01*
X137400299Y-87223488D01*
X137715946Y-87323617D01*
X137538343Y-87501173D01*
X137299674Y-87765823D01*
X137347304Y-88035000D01*
X138700000Y-88035000D01*
X138700000Y-87517163D01*
X138873481Y-87536622D01*
X138927612Y-87537000D01*
X140472388Y-87537000D01*
X140700000Y-87514682D01*
X140700000Y-88035000D01*
X142052696Y-88035000D01*
X142100326Y-87765823D01*
X141861657Y-87501173D01*
X141684885Y-87324447D01*
X141949798Y-87244465D01*
X142617887Y-86889236D01*
X142804547Y-86737000D01*
X159451883Y-86737000D01*
X159597235Y-86858965D01*
X160260299Y-87223488D01*
X160575946Y-87323617D01*
X160398343Y-87501173D01*
X160159674Y-87765823D01*
X160207304Y-88035000D01*
X161560000Y-88035000D01*
X161560000Y-87517163D01*
X161733481Y-87536622D01*
X161787612Y-87537000D01*
X163332388Y-87537000D01*
X163560000Y-87514682D01*
X163560000Y-88035000D01*
X164912696Y-88035000D01*
X164960326Y-87765823D01*
X164721657Y-87501173D01*
X164544885Y-87324447D01*
X164809798Y-87244465D01*
X165223148Y-87024683D01*
X165833000Y-87634535D01*
X165833000Y-125885465D01*
X165325743Y-126392721D01*
X164859701Y-126136512D01*
X164544054Y-126036383D01*
X164721657Y-125858827D01*
X164960326Y-125594177D01*
X164912696Y-125325000D01*
X163560000Y-125325000D01*
X163560000Y-125842837D01*
X163386519Y-125823378D01*
X163332388Y-125823000D01*
X161787612Y-125823000D01*
X161560000Y-125845318D01*
X161560000Y-125325000D01*
X160207304Y-125325000D01*
X160159674Y-125594177D01*
X160398343Y-125858827D01*
X160575115Y-126035553D01*
X160310202Y-126115535D01*
X159642113Y-126470764D01*
X159455453Y-126623000D01*
X142808117Y-126623000D01*
X142662765Y-126501035D01*
X141999701Y-126136512D01*
X141684054Y-126036383D01*
X141861657Y-125858827D01*
X142100326Y-125594177D01*
X142052696Y-125325000D01*
X140700000Y-125325000D01*
X140700000Y-125842837D01*
X140526519Y-125823378D01*
X140472388Y-125823000D01*
X138927612Y-125823000D01*
X138700000Y-125845318D01*
X138700000Y-125325000D01*
X137347304Y-125325000D01*
X137299674Y-125594177D01*
X137538343Y-125858827D01*
X137715115Y-126035553D01*
X137450202Y-126115535D01*
X136782113Y-126470764D01*
X136595453Y-126623000D01*
X119948117Y-126623000D01*
X119802765Y-126501035D01*
X119139701Y-126136512D01*
X118824054Y-126036383D01*
X119001657Y-125858827D01*
X119240326Y-125594177D01*
X119192696Y-125325000D01*
X117840000Y-125325000D01*
X117840000Y-125842837D01*
X117666519Y-125823378D01*
X117612388Y-125823000D01*
X116067612Y-125823000D01*
X115840000Y-125845318D01*
X115840000Y-125325000D01*
X114487304Y-125325000D01*
X114439674Y-125594177D01*
X114678343Y-125858827D01*
X114855115Y-126035553D01*
X114590202Y-126115535D01*
X113922113Y-126470764D01*
X113735453Y-126623000D01*
X97088117Y-126623000D01*
X96942765Y-126501035D01*
X96279701Y-126136512D01*
X95964054Y-126036383D01*
X96141657Y-125858827D01*
X96380326Y-125594177D01*
X96332696Y-125325000D01*
X94980000Y-125325000D01*
X94980000Y-125842837D01*
X94806519Y-125823378D01*
X94752388Y-125823000D01*
X93207612Y-125823000D01*
X92980000Y-125845318D01*
X92980000Y-125325000D01*
X91627304Y-125325000D01*
X91579674Y-125594177D01*
X91818343Y-125858827D01*
X91995115Y-126035553D01*
X91730202Y-126115535D01*
X91212394Y-126390858D01*
X90707000Y-125885464D01*
X90707000Y-123805823D01*
X91579674Y-123805823D01*
X91627304Y-124075000D01*
X92980000Y-124075000D01*
X92980000Y-123047563D01*
X94980000Y-123047563D01*
X94980000Y-124075000D01*
X96332696Y-124075000D01*
X96380326Y-123805823D01*
X114439674Y-123805823D01*
X114487304Y-124075000D01*
X115840000Y-124075000D01*
X115840000Y-123047563D01*
X117840000Y-123047563D01*
X117840000Y-124075000D01*
X119192696Y-124075000D01*
X119240326Y-123805823D01*
X137299674Y-123805823D01*
X137347304Y-124075000D01*
X138700000Y-124075000D01*
X138700000Y-123047563D01*
X140700000Y-123047563D01*
X140700000Y-124075000D01*
X142052696Y-124075000D01*
X142100326Y-123805823D01*
X160159674Y-123805823D01*
X160207304Y-124075000D01*
X161560000Y-124075000D01*
X161560000Y-123047563D01*
X163560000Y-123047563D01*
X163560000Y-124075000D01*
X164912696Y-124075000D01*
X164960326Y-123805823D01*
X164721657Y-123541173D01*
X164468457Y-123288039D01*
X164170738Y-123089166D01*
X163839941Y-122952196D01*
X163560000Y-123047563D01*
X161560000Y-123047563D01*
X161280059Y-122952196D01*
X160949262Y-123089166D01*
X160651543Y-123288039D01*
X160398343Y-123541173D01*
X160159674Y-123805823D01*
X142100326Y-123805823D01*
X141861657Y-123541173D01*
X141608457Y-123288039D01*
X141310738Y-123089166D01*
X140979941Y-122952196D01*
X140700000Y-123047563D01*
X138700000Y-123047563D01*
X138420059Y-122952196D01*
X138089262Y-123089166D01*
X137791543Y-123288039D01*
X137538343Y-123541173D01*
X137299674Y-123805823D01*
X119240326Y-123805823D01*
X119001657Y-123541173D01*
X118748457Y-123288039D01*
X118450738Y-123089166D01*
X118119941Y-122952196D01*
X117840000Y-123047563D01*
X115840000Y-123047563D01*
X115560059Y-122952196D01*
X115229262Y-123089166D01*
X114931543Y-123288039D01*
X114678343Y-123541173D01*
X114439674Y-123805823D01*
X96380326Y-123805823D01*
X96141657Y-123541173D01*
X95888457Y-123288039D01*
X95590738Y-123089166D01*
X95259941Y-122952196D01*
X94980000Y-123047563D01*
X92980000Y-123047563D01*
X92700059Y-122952196D01*
X92369262Y-123089166D01*
X92071543Y-123288039D01*
X91818343Y-123541173D01*
X91579674Y-123805823D01*
X90707000Y-123805823D01*
X90707000Y-113586487D01*
X97024173Y-113586487D01*
X97220382Y-113819989D01*
X97633210Y-113891534D01*
X98052064Y-113881165D01*
X98359618Y-113819989D01*
X98555827Y-113586487D01*
X104644173Y-113586487D01*
X104840382Y-113819989D01*
X105253210Y-113891534D01*
X105672064Y-113881165D01*
X105979618Y-113819989D01*
X106175827Y-113586487D01*
X112264173Y-113586487D01*
X112460382Y-113819989D01*
X112873210Y-113891534D01*
X113292064Y-113881165D01*
X113599618Y-113819989D01*
X113795827Y-113586487D01*
X119884173Y-113586487D01*
X120080382Y-113819989D01*
X120493210Y-113891534D01*
X120912064Y-113881165D01*
X121219618Y-113819989D01*
X121415827Y-113586487D01*
X127504173Y-113586487D01*
X127700382Y-113819989D01*
X128113210Y-113891534D01*
X128532064Y-113881165D01*
X128839618Y-113819989D01*
X129035827Y-113586487D01*
X135124173Y-113586487D01*
X135320382Y-113819989D01*
X135733210Y-113891534D01*
X136152064Y-113881165D01*
X136459618Y-113819989D01*
X136655827Y-113586487D01*
X142744173Y-113586487D01*
X142940382Y-113819989D01*
X143353210Y-113891534D01*
X143772064Y-113881165D01*
X144079618Y-113819989D01*
X144275827Y-113586487D01*
X150364173Y-113586487D01*
X150560382Y-113819989D01*
X150973210Y-113891534D01*
X151392064Y-113881165D01*
X151699618Y-113819989D01*
X151895827Y-113586487D01*
X157984173Y-113586487D01*
X158180382Y-113819989D01*
X158593210Y-113891534D01*
X159012064Y-113881165D01*
X159319618Y-113819989D01*
X159515827Y-113586487D01*
X158750000Y-112820660D01*
X157984173Y-113586487D01*
X151895827Y-113586487D01*
X151130000Y-112820660D01*
X150364173Y-113586487D01*
X144275827Y-113586487D01*
X143510000Y-112820660D01*
X142744173Y-113586487D01*
X136655827Y-113586487D01*
X135890000Y-112820660D01*
X135124173Y-113586487D01*
X129035827Y-113586487D01*
X128270000Y-112820660D01*
X127504173Y-113586487D01*
X121415827Y-113586487D01*
X120650000Y-112820660D01*
X119884173Y-113586487D01*
X113795827Y-113586487D01*
X113030000Y-112820660D01*
X112264173Y-113586487D01*
X106175827Y-113586487D01*
X105410000Y-112820660D01*
X104644173Y-113586487D01*
X98555827Y-113586487D01*
X97790000Y-112820660D01*
X97024173Y-113586487D01*
X90707000Y-113586487D01*
X90707000Y-111603210D01*
X95658466Y-111603210D01*
X95668835Y-112022064D01*
X95730011Y-112329618D01*
X95963513Y-112525827D01*
X96729340Y-111760000D01*
X98850660Y-111760000D01*
X99616487Y-112525827D01*
X99849989Y-112329618D01*
X99921534Y-111916790D01*
X99913772Y-111603210D01*
X103278466Y-111603210D01*
X103288835Y-112022064D01*
X103350011Y-112329618D01*
X103583513Y-112525827D01*
X104349340Y-111760000D01*
X106470660Y-111760000D01*
X107236487Y-112525827D01*
X107469989Y-112329618D01*
X107541534Y-111916790D01*
X107533772Y-111603210D01*
X110898466Y-111603210D01*
X110908835Y-112022064D01*
X110970011Y-112329618D01*
X111203513Y-112525827D01*
X111969340Y-111760000D01*
X114090660Y-111760000D01*
X114856487Y-112525827D01*
X115089989Y-112329618D01*
X115161534Y-111916790D01*
X115153772Y-111603210D01*
X118518466Y-111603210D01*
X118528835Y-112022064D01*
X118590011Y-112329618D01*
X118823513Y-112525827D01*
X119589340Y-111760000D01*
X121710660Y-111760000D01*
X122476487Y-112525827D01*
X122709989Y-112329618D01*
X122781534Y-111916790D01*
X122773772Y-111603210D01*
X126138466Y-111603210D01*
X126148835Y-112022064D01*
X126210011Y-112329618D01*
X126443513Y-112525827D01*
X127209340Y-111760000D01*
X129330660Y-111760000D01*
X130096487Y-112525827D01*
X130329989Y-112329618D01*
X130401534Y-111916790D01*
X130393772Y-111603210D01*
X133758466Y-111603210D01*
X133768835Y-112022064D01*
X133830011Y-112329618D01*
X134063513Y-112525827D01*
X134829340Y-111760000D01*
X136950660Y-111760000D01*
X137716487Y-112525827D01*
X137949989Y-112329618D01*
X138021534Y-111916790D01*
X138013772Y-111603210D01*
X141378466Y-111603210D01*
X141388835Y-112022064D01*
X141450011Y-112329618D01*
X141683513Y-112525827D01*
X142449340Y-111760000D01*
X144570660Y-111760000D01*
X145336487Y-112525827D01*
X145569989Y-112329618D01*
X145641534Y-111916790D01*
X145633772Y-111603210D01*
X148998466Y-111603210D01*
X149008835Y-112022064D01*
X149070011Y-112329618D01*
X149303513Y-112525827D01*
X150069340Y-111760000D01*
X152190660Y-111760000D01*
X152956487Y-112525827D01*
X153189989Y-112329618D01*
X153261534Y-111916790D01*
X153253772Y-111603210D01*
X156618466Y-111603210D01*
X156628835Y-112022064D01*
X156690011Y-112329618D01*
X156923513Y-112525827D01*
X157689340Y-111760000D01*
X159810660Y-111760000D01*
X160576487Y-112525827D01*
X160809989Y-112329618D01*
X160881534Y-111916790D01*
X160871165Y-111497936D01*
X160809989Y-111190382D01*
X160576487Y-110994173D01*
X159810660Y-111760000D01*
X157689340Y-111760000D01*
X156923513Y-110994173D01*
X156690011Y-111190382D01*
X156618466Y-111603210D01*
X153253772Y-111603210D01*
X153251165Y-111497936D01*
X153189989Y-111190382D01*
X152956487Y-110994173D01*
X152190660Y-111760000D01*
X150069340Y-111760000D01*
X149303513Y-110994173D01*
X149070011Y-111190382D01*
X148998466Y-111603210D01*
X145633772Y-111603210D01*
X145631165Y-111497936D01*
X145569989Y-111190382D01*
X145336487Y-110994173D01*
X144570660Y-111760000D01*
X142449340Y-111760000D01*
X141683513Y-110994173D01*
X141450011Y-111190382D01*
X141378466Y-111603210D01*
X138013772Y-111603210D01*
X138011165Y-111497936D01*
X137949989Y-111190382D01*
X137716487Y-110994173D01*
X136950660Y-111760000D01*
X134829340Y-111760000D01*
X134063513Y-110994173D01*
X133830011Y-111190382D01*
X133758466Y-111603210D01*
X130393772Y-111603210D01*
X130391165Y-111497936D01*
X130329989Y-111190382D01*
X130096487Y-110994173D01*
X129330660Y-111760000D01*
X127209340Y-111760000D01*
X126443513Y-110994173D01*
X126210011Y-111190382D01*
X126138466Y-111603210D01*
X122773772Y-111603210D01*
X122771165Y-111497936D01*
X122709989Y-111190382D01*
X122476487Y-110994173D01*
X121710660Y-111760000D01*
X119589340Y-111760000D01*
X118823513Y-110994173D01*
X118590011Y-111190382D01*
X118518466Y-111603210D01*
X115153772Y-111603210D01*
X115151165Y-111497936D01*
X115089989Y-111190382D01*
X114856487Y-110994173D01*
X114090660Y-111760000D01*
X111969340Y-111760000D01*
X111203513Y-110994173D01*
X110970011Y-111190382D01*
X110898466Y-111603210D01*
X107533772Y-111603210D01*
X107531165Y-111497936D01*
X107469989Y-111190382D01*
X107236487Y-110994173D01*
X106470660Y-111760000D01*
X104349340Y-111760000D01*
X103583513Y-110994173D01*
X103350011Y-111190382D01*
X103278466Y-111603210D01*
X99913772Y-111603210D01*
X99911165Y-111497936D01*
X99849989Y-111190382D01*
X99616487Y-110994173D01*
X98850660Y-111760000D01*
X96729340Y-111760000D01*
X95963513Y-110994173D01*
X95730011Y-111190382D01*
X95658466Y-111603210D01*
X90707000Y-111603210D01*
X90707000Y-109933513D01*
X97024173Y-109933513D01*
X97790000Y-110699340D01*
X98555827Y-109933513D01*
X104644173Y-109933513D01*
X105410000Y-110699340D01*
X106175827Y-109933513D01*
X112264173Y-109933513D01*
X113030000Y-110699340D01*
X113795827Y-109933513D01*
X119884173Y-109933513D01*
X120650000Y-110699340D01*
X121415827Y-109933513D01*
X127504173Y-109933513D01*
X128270000Y-110699340D01*
X129035827Y-109933513D01*
X135124173Y-109933513D01*
X135890000Y-110699340D01*
X136655827Y-109933513D01*
X142744173Y-109933513D01*
X143510000Y-110699340D01*
X144275827Y-109933513D01*
X150364173Y-109933513D01*
X151130000Y-110699340D01*
X151895827Y-109933513D01*
X157984173Y-109933513D01*
X158750000Y-110699340D01*
X159515827Y-109933513D01*
X159319618Y-109700011D01*
X158906790Y-109628466D01*
X158487936Y-109638835D01*
X158180382Y-109700011D01*
X157984173Y-109933513D01*
X151895827Y-109933513D01*
X151699618Y-109700011D01*
X151286790Y-109628466D01*
X150867936Y-109638835D01*
X150560382Y-109700011D01*
X150364173Y-109933513D01*
X144275827Y-109933513D01*
X144079618Y-109700011D01*
X143666790Y-109628466D01*
X143247936Y-109638835D01*
X142940382Y-109700011D01*
X142744173Y-109933513D01*
X136655827Y-109933513D01*
X136459618Y-109700011D01*
X136046790Y-109628466D01*
X135627936Y-109638835D01*
X135320382Y-109700011D01*
X135124173Y-109933513D01*
X129035827Y-109933513D01*
X128839618Y-109700011D01*
X128426790Y-109628466D01*
X128007936Y-109638835D01*
X127700382Y-109700011D01*
X127504173Y-109933513D01*
X121415827Y-109933513D01*
X121219618Y-109700011D01*
X120806790Y-109628466D01*
X120387936Y-109638835D01*
X120080382Y-109700011D01*
X119884173Y-109933513D01*
X113795827Y-109933513D01*
X113599618Y-109700011D01*
X113186790Y-109628466D01*
X112767936Y-109638835D01*
X112460382Y-109700011D01*
X112264173Y-109933513D01*
X106175827Y-109933513D01*
X105979618Y-109700011D01*
X105566790Y-109628466D01*
X105147936Y-109638835D01*
X104840382Y-109700011D01*
X104644173Y-109933513D01*
X98555827Y-109933513D01*
X98359618Y-109700011D01*
X97946790Y-109628466D01*
X97527936Y-109638835D01*
X97220382Y-109700011D01*
X97024173Y-109933513D01*
X90707000Y-109933513D01*
X90707000Y-103426487D01*
X97024173Y-103426487D01*
X97220382Y-103659989D01*
X97633210Y-103731534D01*
X98052064Y-103721165D01*
X98359618Y-103659989D01*
X98555827Y-103426487D01*
X104644173Y-103426487D01*
X104840382Y-103659989D01*
X105253210Y-103731534D01*
X105672064Y-103721165D01*
X105979618Y-103659989D01*
X106175827Y-103426487D01*
X112264173Y-103426487D01*
X112460382Y-103659989D01*
X112873210Y-103731534D01*
X113292064Y-103721165D01*
X113599618Y-103659989D01*
X113795827Y-103426487D01*
X119884173Y-103426487D01*
X120080382Y-103659989D01*
X120493210Y-103731534D01*
X120912064Y-103721165D01*
X121219618Y-103659989D01*
X121415827Y-103426487D01*
X127504173Y-103426487D01*
X127700382Y-103659989D01*
X128113210Y-103731534D01*
X128532064Y-103721165D01*
X128839618Y-103659989D01*
X129035827Y-103426487D01*
X135124173Y-103426487D01*
X135320382Y-103659989D01*
X135733210Y-103731534D01*
X136152064Y-103721165D01*
X136459618Y-103659989D01*
X136655827Y-103426487D01*
X142744173Y-103426487D01*
X142940382Y-103659989D01*
X143353210Y-103731534D01*
X143772064Y-103721165D01*
X144079618Y-103659989D01*
X144275827Y-103426487D01*
X150364173Y-103426487D01*
X150560382Y-103659989D01*
X150973210Y-103731534D01*
X151392064Y-103721165D01*
X151699618Y-103659989D01*
X151895827Y-103426487D01*
X157984173Y-103426487D01*
X158180382Y-103659989D01*
X158593210Y-103731534D01*
X159012064Y-103721165D01*
X159319618Y-103659989D01*
X159515827Y-103426487D01*
X158750000Y-102660660D01*
X157984173Y-103426487D01*
X151895827Y-103426487D01*
X151130000Y-102660660D01*
X150364173Y-103426487D01*
X144275827Y-103426487D01*
X143510000Y-102660660D01*
X142744173Y-103426487D01*
X136655827Y-103426487D01*
X135890000Y-102660660D01*
X135124173Y-103426487D01*
X129035827Y-103426487D01*
X128270000Y-102660660D01*
X127504173Y-103426487D01*
X121415827Y-103426487D01*
X120650000Y-102660660D01*
X119884173Y-103426487D01*
X113795827Y-103426487D01*
X113030000Y-102660660D01*
X112264173Y-103426487D01*
X106175827Y-103426487D01*
X105410000Y-102660660D01*
X104644173Y-103426487D01*
X98555827Y-103426487D01*
X97790000Y-102660660D01*
X97024173Y-103426487D01*
X90707000Y-103426487D01*
X90707000Y-101443210D01*
X95658466Y-101443210D01*
X95668835Y-101862064D01*
X95730011Y-102169618D01*
X95963513Y-102365827D01*
X96729340Y-101600000D01*
X98850660Y-101600000D01*
X99616487Y-102365827D01*
X99849989Y-102169618D01*
X99921534Y-101756790D01*
X99913772Y-101443210D01*
X103278466Y-101443210D01*
X103288835Y-101862064D01*
X103350011Y-102169618D01*
X103583513Y-102365827D01*
X104349340Y-101600000D01*
X106470660Y-101600000D01*
X107236487Y-102365827D01*
X107469989Y-102169618D01*
X107541534Y-101756790D01*
X107533772Y-101443210D01*
X110898466Y-101443210D01*
X110908835Y-101862064D01*
X110970011Y-102169618D01*
X111203513Y-102365827D01*
X111969340Y-101600000D01*
X114090660Y-101600000D01*
X114856487Y-102365827D01*
X115089989Y-102169618D01*
X115161534Y-101756790D01*
X115153772Y-101443210D01*
X118518466Y-101443210D01*
X118528835Y-101862064D01*
X118590011Y-102169618D01*
X118823513Y-102365827D01*
X119589340Y-101600000D01*
X121710660Y-101600000D01*
X122476487Y-102365827D01*
X122709989Y-102169618D01*
X122781534Y-101756790D01*
X122773772Y-101443210D01*
X126138466Y-101443210D01*
X126148835Y-101862064D01*
X126210011Y-102169618D01*
X126443513Y-102365827D01*
X127209340Y-101600000D01*
X129330660Y-101600000D01*
X130096487Y-102365827D01*
X130329989Y-102169618D01*
X130401534Y-101756790D01*
X130393772Y-101443210D01*
X133758466Y-101443210D01*
X133768835Y-101862064D01*
X133830011Y-102169618D01*
X134063513Y-102365827D01*
X134829340Y-101600000D01*
X136950660Y-101600000D01*
X137716487Y-102365827D01*
X137949989Y-102169618D01*
X138021534Y-101756790D01*
X138013772Y-101443210D01*
X141378466Y-101443210D01*
X141388835Y-101862064D01*
X141450011Y-102169618D01*
X141683513Y-102365827D01*
X142449340Y-101600000D01*
X144570660Y-101600000D01*
X145336487Y-102365827D01*
X145569989Y-102169618D01*
X145641534Y-101756790D01*
X145633772Y-101443210D01*
X148998466Y-101443210D01*
X149008835Y-101862064D01*
X149070011Y-102169618D01*
X149303513Y-102365827D01*
X150069340Y-101600000D01*
X152190660Y-101600000D01*
X152956487Y-102365827D01*
X153189989Y-102169618D01*
X153261534Y-101756790D01*
X153253772Y-101443210D01*
X156618466Y-101443210D01*
X156628835Y-101862064D01*
X156690011Y-102169618D01*
X156923513Y-102365827D01*
X157689340Y-101600000D01*
X159810660Y-101600000D01*
X160576487Y-102365827D01*
X160809989Y-102169618D01*
X160881534Y-101756790D01*
X160871165Y-101337936D01*
X160809989Y-101030382D01*
X160576487Y-100834173D01*
X159810660Y-101600000D01*
X157689340Y-101600000D01*
X156923513Y-100834173D01*
X156690011Y-101030382D01*
X156618466Y-101443210D01*
X153253772Y-101443210D01*
X153251165Y-101337936D01*
X153189989Y-101030382D01*
X152956487Y-100834173D01*
X152190660Y-101600000D01*
X150069340Y-101600000D01*
X149303513Y-100834173D01*
X149070011Y-101030382D01*
X148998466Y-101443210D01*
X145633772Y-101443210D01*
X145631165Y-101337936D01*
X145569989Y-101030382D01*
X145336487Y-100834173D01*
X144570660Y-101600000D01*
X142449340Y-101600000D01*
X141683513Y-100834173D01*
X141450011Y-101030382D01*
X141378466Y-101443210D01*
X138013772Y-101443210D01*
X138011165Y-101337936D01*
X137949989Y-101030382D01*
X137716487Y-100834173D01*
X136950660Y-101600000D01*
X134829340Y-101600000D01*
X134063513Y-100834173D01*
X133830011Y-101030382D01*
X133758466Y-101443210D01*
X130393772Y-101443210D01*
X130391165Y-101337936D01*
X130329989Y-101030382D01*
X130096487Y-100834173D01*
X129330660Y-101600000D01*
X127209340Y-101600000D01*
X126443513Y-100834173D01*
X126210011Y-101030382D01*
X126138466Y-101443210D01*
X122773772Y-101443210D01*
X122771165Y-101337936D01*
X122709989Y-101030382D01*
X122476487Y-100834173D01*
X121710660Y-101600000D01*
X119589340Y-101600000D01*
X118823513Y-100834173D01*
X118590011Y-101030382D01*
X118518466Y-101443210D01*
X115153772Y-101443210D01*
X115151165Y-101337936D01*
X115089989Y-101030382D01*
X114856487Y-100834173D01*
X114090660Y-101600000D01*
X111969340Y-101600000D01*
X111203513Y-100834173D01*
X110970011Y-101030382D01*
X110898466Y-101443210D01*
X107533772Y-101443210D01*
X107531165Y-101337936D01*
X107469989Y-101030382D01*
X107236487Y-100834173D01*
X106470660Y-101600000D01*
X104349340Y-101600000D01*
X103583513Y-100834173D01*
X103350011Y-101030382D01*
X103278466Y-101443210D01*
X99913772Y-101443210D01*
X99911165Y-101337936D01*
X99849989Y-101030382D01*
X99616487Y-100834173D01*
X98850660Y-101600000D01*
X96729340Y-101600000D01*
X95963513Y-100834173D01*
X95730011Y-101030382D01*
X95658466Y-101443210D01*
X90707000Y-101443210D01*
X90707000Y-99773513D01*
X97024173Y-99773513D01*
X97790000Y-100539340D01*
X98555827Y-99773513D01*
X104644173Y-99773513D01*
X105410000Y-100539340D01*
X106175827Y-99773513D01*
X112264173Y-99773513D01*
X113030000Y-100539340D01*
X113795827Y-99773513D01*
X119884173Y-99773513D01*
X120650000Y-100539340D01*
X121415827Y-99773513D01*
X127504173Y-99773513D01*
X128270000Y-100539340D01*
X129035827Y-99773513D01*
X135124173Y-99773513D01*
X135890000Y-100539340D01*
X136655827Y-99773513D01*
X142744173Y-99773513D01*
X143510000Y-100539340D01*
X144275827Y-99773513D01*
X150364173Y-99773513D01*
X151130000Y-100539340D01*
X151895827Y-99773513D01*
X157984173Y-99773513D01*
X158750000Y-100539340D01*
X159515827Y-99773513D01*
X159319618Y-99540011D01*
X158906790Y-99468466D01*
X158487936Y-99478835D01*
X158180382Y-99540011D01*
X157984173Y-99773513D01*
X151895827Y-99773513D01*
X151699618Y-99540011D01*
X151286790Y-99468466D01*
X150867936Y-99478835D01*
X150560382Y-99540011D01*
X150364173Y-99773513D01*
X144275827Y-99773513D01*
X144079618Y-99540011D01*
X143666790Y-99468466D01*
X143247936Y-99478835D01*
X142940382Y-99540011D01*
X142744173Y-99773513D01*
X136655827Y-99773513D01*
X136459618Y-99540011D01*
X136046790Y-99468466D01*
X135627936Y-99478835D01*
X135320382Y-99540011D01*
X135124173Y-99773513D01*
X129035827Y-99773513D01*
X128839618Y-99540011D01*
X128426790Y-99468466D01*
X128007936Y-99478835D01*
X127700382Y-99540011D01*
X127504173Y-99773513D01*
X121415827Y-99773513D01*
X121219618Y-99540011D01*
X120806790Y-99468466D01*
X120387936Y-99478835D01*
X120080382Y-99540011D01*
X119884173Y-99773513D01*
X113795827Y-99773513D01*
X113599618Y-99540011D01*
X113186790Y-99468466D01*
X112767936Y-99478835D01*
X112460382Y-99540011D01*
X112264173Y-99773513D01*
X106175827Y-99773513D01*
X105979618Y-99540011D01*
X105566790Y-99468466D01*
X105147936Y-99478835D01*
X104840382Y-99540011D01*
X104644173Y-99773513D01*
X98555827Y-99773513D01*
X98359618Y-99540011D01*
X97946790Y-99468466D01*
X97527936Y-99478835D01*
X97220382Y-99540011D01*
X97024173Y-99773513D01*
X90707000Y-99773513D01*
X90707000Y-89554177D01*
X91579674Y-89554177D01*
X91818343Y-89818827D01*
X92071543Y-90071961D01*
X92369262Y-90270834D01*
X92700059Y-90407804D01*
X92980000Y-90312437D01*
X92980000Y-89285000D01*
X94980000Y-89285000D01*
X94980000Y-90312437D01*
X95259941Y-90407804D01*
X95590738Y-90270834D01*
X95888457Y-90071961D01*
X96141657Y-89818827D01*
X96380326Y-89554177D01*
X114439674Y-89554177D01*
X114678343Y-89818827D01*
X114931543Y-90071961D01*
X115229262Y-90270834D01*
X115560059Y-90407804D01*
X115840000Y-90312437D01*
X115840000Y-89285000D01*
X117840000Y-89285000D01*
X117840000Y-90312437D01*
X118119941Y-90407804D01*
X118450738Y-90270834D01*
X118748457Y-90071961D01*
X119001657Y-89818827D01*
X119240326Y-89554177D01*
X137299674Y-89554177D01*
X137538343Y-89818827D01*
X137791543Y-90071961D01*
X138089262Y-90270834D01*
X138420059Y-90407804D01*
X138700000Y-90312437D01*
X138700000Y-89285000D01*
X140700000Y-89285000D01*
X140700000Y-90312437D01*
X140979941Y-90407804D01*
X141310738Y-90270834D01*
X141608457Y-90071961D01*
X141861657Y-89818827D01*
X142100326Y-89554177D01*
X160159674Y-89554177D01*
X160398343Y-89818827D01*
X160651543Y-90071961D01*
X160949262Y-90270834D01*
X161280059Y-90407804D01*
X161560000Y-90312437D01*
X161560000Y-89285000D01*
X163560000Y-89285000D01*
X163560000Y-90312437D01*
X163839941Y-90407804D01*
X164170738Y-90270834D01*
X164468457Y-90071961D01*
X164721657Y-89818827D01*
X164960326Y-89554177D01*
X164912696Y-89285000D01*
X163560000Y-89285000D01*
X161560000Y-89285000D01*
X160207304Y-89285000D01*
X160159674Y-89554177D01*
X142100326Y-89554177D01*
X142052696Y-89285000D01*
X140700000Y-89285000D01*
X138700000Y-89285000D01*
X137347304Y-89285000D01*
X137299674Y-89554177D01*
X119240326Y-89554177D01*
X119192696Y-89285000D01*
X117840000Y-89285000D01*
X115840000Y-89285000D01*
X114487304Y-89285000D01*
X114439674Y-89554177D01*
X96380326Y-89554177D01*
X96332696Y-89285000D01*
X94980000Y-89285000D01*
X92980000Y-89285000D01*
X91627304Y-89285000D01*
X91579674Y-89554177D01*
X90707000Y-89554177D01*
X90707000Y-87634536D01*
X91317499Y-87024037D01*
X91680299Y-87223488D01*
X91995946Y-87323617D01*
X91818343Y-87501173D01*
X91579674Y-87765823D01*
X91627304Y-88035000D01*
X92980000Y-88035000D01*
X92980000Y-87517163D01*
X93153481Y-87536622D01*
X93207612Y-87537000D01*
X94752388Y-87537000D01*
X94980000Y-87514682D01*
X94980000Y-88035000D01*
X96332696Y-88035000D01*
X96380326Y-87765823D01*
X96141657Y-87501173D01*
X95964885Y-87324447D01*
X96229798Y-87244465D01*
X96897887Y-86889236D01*
X97084547Y-86737000D01*
X113731883Y-86737000D01*
X113877235Y-86858965D01*
X113877235Y-86858965D01*
G37*
X113877235Y-86858965D02*
X114540299Y-87223488D01*
X114855946Y-87323617D01*
X114678343Y-87501173D01*
X114439674Y-87765823D01*
X114487304Y-88035000D01*
X115840000Y-88035000D01*
X115840000Y-87517163D01*
X116013481Y-87536622D01*
X116067612Y-87537000D01*
X117612388Y-87537000D01*
X117840000Y-87514682D01*
X117840000Y-88035000D01*
X119192696Y-88035000D01*
X119240326Y-87765823D01*
X119001657Y-87501173D01*
X118824885Y-87324447D01*
X119089798Y-87244465D01*
X119757887Y-86889236D01*
X119944547Y-86737000D01*
X136591883Y-86737000D01*
X136737235Y-86858965D01*
X137400299Y-87223488D01*
X137715946Y-87323617D01*
X137538343Y-87501173D01*
X137299674Y-87765823D01*
X137347304Y-88035000D01*
X138700000Y-88035000D01*
X138700000Y-87517163D01*
X138873481Y-87536622D01*
X138927612Y-87537000D01*
X140472388Y-87537000D01*
X140700000Y-87514682D01*
X140700000Y-88035000D01*
X142052696Y-88035000D01*
X142100326Y-87765823D01*
X141861657Y-87501173D01*
X141684885Y-87324447D01*
X141949798Y-87244465D01*
X142617887Y-86889236D01*
X142804547Y-86737000D01*
X159451883Y-86737000D01*
X159597235Y-86858965D01*
X160260299Y-87223488D01*
X160575946Y-87323617D01*
X160398343Y-87501173D01*
X160159674Y-87765823D01*
X160207304Y-88035000D01*
X161560000Y-88035000D01*
X161560000Y-87517163D01*
X161733481Y-87536622D01*
X161787612Y-87537000D01*
X163332388Y-87537000D01*
X163560000Y-87514682D01*
X163560000Y-88035000D01*
X164912696Y-88035000D01*
X164960326Y-87765823D01*
X164721657Y-87501173D01*
X164544885Y-87324447D01*
X164809798Y-87244465D01*
X165223148Y-87024683D01*
X165833000Y-87634535D01*
X165833000Y-125885465D01*
X165325743Y-126392721D01*
X164859701Y-126136512D01*
X164544054Y-126036383D01*
X164721657Y-125858827D01*
X164960326Y-125594177D01*
X164912696Y-125325000D01*
X163560000Y-125325000D01*
X163560000Y-125842837D01*
X163386519Y-125823378D01*
X163332388Y-125823000D01*
X161787612Y-125823000D01*
X161560000Y-125845318D01*
X161560000Y-125325000D01*
X160207304Y-125325000D01*
X160159674Y-125594177D01*
X160398343Y-125858827D01*
X160575115Y-126035553D01*
X160310202Y-126115535D01*
X159642113Y-126470764D01*
X159455453Y-126623000D01*
X142808117Y-126623000D01*
X142662765Y-126501035D01*
X141999701Y-126136512D01*
X141684054Y-126036383D01*
X141861657Y-125858827D01*
X142100326Y-125594177D01*
X142052696Y-125325000D01*
X140700000Y-125325000D01*
X140700000Y-125842837D01*
X140526519Y-125823378D01*
X140472388Y-125823000D01*
X138927612Y-125823000D01*
X138700000Y-125845318D01*
X138700000Y-125325000D01*
X137347304Y-125325000D01*
X137299674Y-125594177D01*
X137538343Y-125858827D01*
X137715115Y-126035553D01*
X137450202Y-126115535D01*
X136782113Y-126470764D01*
X136595453Y-126623000D01*
X119948117Y-126623000D01*
X119802765Y-126501035D01*
X119139701Y-126136512D01*
X118824054Y-126036383D01*
X119001657Y-125858827D01*
X119240326Y-125594177D01*
X119192696Y-125325000D01*
X117840000Y-125325000D01*
X117840000Y-125842837D01*
X117666519Y-125823378D01*
X117612388Y-125823000D01*
X116067612Y-125823000D01*
X115840000Y-125845318D01*
X115840000Y-125325000D01*
X114487304Y-125325000D01*
X114439674Y-125594177D01*
X114678343Y-125858827D01*
X114855115Y-126035553D01*
X114590202Y-126115535D01*
X113922113Y-126470764D01*
X113735453Y-126623000D01*
X97088117Y-126623000D01*
X96942765Y-126501035D01*
X96279701Y-126136512D01*
X95964054Y-126036383D01*
X96141657Y-125858827D01*
X96380326Y-125594177D01*
X96332696Y-125325000D01*
X94980000Y-125325000D01*
X94980000Y-125842837D01*
X94806519Y-125823378D01*
X94752388Y-125823000D01*
X93207612Y-125823000D01*
X92980000Y-125845318D01*
X92980000Y-125325000D01*
X91627304Y-125325000D01*
X91579674Y-125594177D01*
X91818343Y-125858827D01*
X91995115Y-126035553D01*
X91730202Y-126115535D01*
X91212394Y-126390858D01*
X90707000Y-125885464D01*
X90707000Y-123805823D01*
X91579674Y-123805823D01*
X91627304Y-124075000D01*
X92980000Y-124075000D01*
X92980000Y-123047563D01*
X94980000Y-123047563D01*
X94980000Y-124075000D01*
X96332696Y-124075000D01*
X96380326Y-123805823D01*
X114439674Y-123805823D01*
X114487304Y-124075000D01*
X115840000Y-124075000D01*
X115840000Y-123047563D01*
X117840000Y-123047563D01*
X117840000Y-124075000D01*
X119192696Y-124075000D01*
X119240326Y-123805823D01*
X137299674Y-123805823D01*
X137347304Y-124075000D01*
X138700000Y-124075000D01*
X138700000Y-123047563D01*
X140700000Y-123047563D01*
X140700000Y-124075000D01*
X142052696Y-124075000D01*
X142100326Y-123805823D01*
X160159674Y-123805823D01*
X160207304Y-124075000D01*
X161560000Y-124075000D01*
X161560000Y-123047563D01*
X163560000Y-123047563D01*
X163560000Y-124075000D01*
X164912696Y-124075000D01*
X164960326Y-123805823D01*
X164721657Y-123541173D01*
X164468457Y-123288039D01*
X164170738Y-123089166D01*
X163839941Y-122952196D01*
X163560000Y-123047563D01*
X161560000Y-123047563D01*
X161280059Y-122952196D01*
X160949262Y-123089166D01*
X160651543Y-123288039D01*
X160398343Y-123541173D01*
X160159674Y-123805823D01*
X142100326Y-123805823D01*
X141861657Y-123541173D01*
X141608457Y-123288039D01*
X141310738Y-123089166D01*
X140979941Y-122952196D01*
X140700000Y-123047563D01*
X138700000Y-123047563D01*
X138420059Y-122952196D01*
X138089262Y-123089166D01*
X137791543Y-123288039D01*
X137538343Y-123541173D01*
X137299674Y-123805823D01*
X119240326Y-123805823D01*
X119001657Y-123541173D01*
X118748457Y-123288039D01*
X118450738Y-123089166D01*
X118119941Y-122952196D01*
X117840000Y-123047563D01*
X115840000Y-123047563D01*
X115560059Y-122952196D01*
X115229262Y-123089166D01*
X114931543Y-123288039D01*
X114678343Y-123541173D01*
X114439674Y-123805823D01*
X96380326Y-123805823D01*
X96141657Y-123541173D01*
X95888457Y-123288039D01*
X95590738Y-123089166D01*
X95259941Y-122952196D01*
X94980000Y-123047563D01*
X92980000Y-123047563D01*
X92700059Y-122952196D01*
X92369262Y-123089166D01*
X92071543Y-123288039D01*
X91818343Y-123541173D01*
X91579674Y-123805823D01*
X90707000Y-123805823D01*
X90707000Y-113586487D01*
X97024173Y-113586487D01*
X97220382Y-113819989D01*
X97633210Y-113891534D01*
X98052064Y-113881165D01*
X98359618Y-113819989D01*
X98555827Y-113586487D01*
X104644173Y-113586487D01*
X104840382Y-113819989D01*
X105253210Y-113891534D01*
X105672064Y-113881165D01*
X105979618Y-113819989D01*
X106175827Y-113586487D01*
X112264173Y-113586487D01*
X112460382Y-113819989D01*
X112873210Y-113891534D01*
X113292064Y-113881165D01*
X113599618Y-113819989D01*
X113795827Y-113586487D01*
X119884173Y-113586487D01*
X120080382Y-113819989D01*
X120493210Y-113891534D01*
X120912064Y-113881165D01*
X121219618Y-113819989D01*
X121415827Y-113586487D01*
X127504173Y-113586487D01*
X127700382Y-113819989D01*
X128113210Y-113891534D01*
X128532064Y-113881165D01*
X128839618Y-113819989D01*
X129035827Y-113586487D01*
X135124173Y-113586487D01*
X135320382Y-113819989D01*
X135733210Y-113891534D01*
X136152064Y-113881165D01*
X136459618Y-113819989D01*
X136655827Y-113586487D01*
X142744173Y-113586487D01*
X142940382Y-113819989D01*
X143353210Y-113891534D01*
X143772064Y-113881165D01*
X144079618Y-113819989D01*
X144275827Y-113586487D01*
X150364173Y-113586487D01*
X150560382Y-113819989D01*
X150973210Y-113891534D01*
X151392064Y-113881165D01*
X151699618Y-113819989D01*
X151895827Y-113586487D01*
X157984173Y-113586487D01*
X158180382Y-113819989D01*
X158593210Y-113891534D01*
X159012064Y-113881165D01*
X159319618Y-113819989D01*
X159515827Y-113586487D01*
X158750000Y-112820660D01*
X157984173Y-113586487D01*
X151895827Y-113586487D01*
X151130000Y-112820660D01*
X150364173Y-113586487D01*
X144275827Y-113586487D01*
X143510000Y-112820660D01*
X142744173Y-113586487D01*
X136655827Y-113586487D01*
X135890000Y-112820660D01*
X135124173Y-113586487D01*
X129035827Y-113586487D01*
X128270000Y-112820660D01*
X127504173Y-113586487D01*
X121415827Y-113586487D01*
X120650000Y-112820660D01*
X119884173Y-113586487D01*
X113795827Y-113586487D01*
X113030000Y-112820660D01*
X112264173Y-113586487D01*
X106175827Y-113586487D01*
X105410000Y-112820660D01*
X104644173Y-113586487D01*
X98555827Y-113586487D01*
X97790000Y-112820660D01*
X97024173Y-113586487D01*
X90707000Y-113586487D01*
X90707000Y-111603210D01*
X95658466Y-111603210D01*
X95668835Y-112022064D01*
X95730011Y-112329618D01*
X95963513Y-112525827D01*
X96729340Y-111760000D01*
X98850660Y-111760000D01*
X99616487Y-112525827D01*
X99849989Y-112329618D01*
X99921534Y-111916790D01*
X99913772Y-111603210D01*
X103278466Y-111603210D01*
X103288835Y-112022064D01*
X103350011Y-112329618D01*
X103583513Y-112525827D01*
X104349340Y-111760000D01*
X106470660Y-111760000D01*
X107236487Y-112525827D01*
X107469989Y-112329618D01*
X107541534Y-111916790D01*
X107533772Y-111603210D01*
X110898466Y-111603210D01*
X110908835Y-112022064D01*
X110970011Y-112329618D01*
X111203513Y-112525827D01*
X111969340Y-111760000D01*
X114090660Y-111760000D01*
X114856487Y-112525827D01*
X115089989Y-112329618D01*
X115161534Y-111916790D01*
X115153772Y-111603210D01*
X118518466Y-111603210D01*
X118528835Y-112022064D01*
X118590011Y-112329618D01*
X118823513Y-112525827D01*
X119589340Y-111760000D01*
X121710660Y-111760000D01*
X122476487Y-112525827D01*
X122709989Y-112329618D01*
X122781534Y-111916790D01*
X122773772Y-111603210D01*
X126138466Y-111603210D01*
X126148835Y-112022064D01*
X126210011Y-112329618D01*
X126443513Y-112525827D01*
X127209340Y-111760000D01*
X129330660Y-111760000D01*
X130096487Y-112525827D01*
X130329989Y-112329618D01*
X130401534Y-111916790D01*
X130393772Y-111603210D01*
X133758466Y-111603210D01*
X133768835Y-112022064D01*
X133830011Y-112329618D01*
X134063513Y-112525827D01*
X134829340Y-111760000D01*
X136950660Y-111760000D01*
X137716487Y-112525827D01*
X137949989Y-112329618D01*
X138021534Y-111916790D01*
X138013772Y-111603210D01*
X141378466Y-111603210D01*
X141388835Y-112022064D01*
X141450011Y-112329618D01*
X141683513Y-112525827D01*
X142449340Y-111760000D01*
X144570660Y-111760000D01*
X145336487Y-112525827D01*
X145569989Y-112329618D01*
X145641534Y-111916790D01*
X145633772Y-111603210D01*
X148998466Y-111603210D01*
X149008835Y-112022064D01*
X149070011Y-112329618D01*
X149303513Y-112525827D01*
X150069340Y-111760000D01*
X152190660Y-111760000D01*
X152956487Y-112525827D01*
X153189989Y-112329618D01*
X153261534Y-111916790D01*
X153253772Y-111603210D01*
X156618466Y-111603210D01*
X156628835Y-112022064D01*
X156690011Y-112329618D01*
X156923513Y-112525827D01*
X157689340Y-111760000D01*
X159810660Y-111760000D01*
X160576487Y-112525827D01*
X160809989Y-112329618D01*
X160881534Y-111916790D01*
X160871165Y-111497936D01*
X160809989Y-111190382D01*
X160576487Y-110994173D01*
X159810660Y-111760000D01*
X157689340Y-111760000D01*
X156923513Y-110994173D01*
X156690011Y-111190382D01*
X156618466Y-111603210D01*
X153253772Y-111603210D01*
X153251165Y-111497936D01*
X153189989Y-111190382D01*
X152956487Y-110994173D01*
X152190660Y-111760000D01*
X150069340Y-111760000D01*
X149303513Y-110994173D01*
X149070011Y-111190382D01*
X148998466Y-111603210D01*
X145633772Y-111603210D01*
X145631165Y-111497936D01*
X145569989Y-111190382D01*
X145336487Y-110994173D01*
X144570660Y-111760000D01*
X142449340Y-111760000D01*
X141683513Y-110994173D01*
X141450011Y-111190382D01*
X141378466Y-111603210D01*
X138013772Y-111603210D01*
X138011165Y-111497936D01*
X137949989Y-111190382D01*
X137716487Y-110994173D01*
X136950660Y-111760000D01*
X134829340Y-111760000D01*
X134063513Y-110994173D01*
X133830011Y-111190382D01*
X133758466Y-111603210D01*
X130393772Y-111603210D01*
X130391165Y-111497936D01*
X130329989Y-111190382D01*
X130096487Y-110994173D01*
X129330660Y-111760000D01*
X127209340Y-111760000D01*
X126443513Y-110994173D01*
X126210011Y-111190382D01*
X126138466Y-111603210D01*
X122773772Y-111603210D01*
X122771165Y-111497936D01*
X122709989Y-111190382D01*
X122476487Y-110994173D01*
X121710660Y-111760000D01*
X119589340Y-111760000D01*
X118823513Y-110994173D01*
X118590011Y-111190382D01*
X118518466Y-111603210D01*
X115153772Y-111603210D01*
X115151165Y-111497936D01*
X115089989Y-111190382D01*
X114856487Y-110994173D01*
X114090660Y-111760000D01*
X111969340Y-111760000D01*
X111203513Y-110994173D01*
X110970011Y-111190382D01*
X110898466Y-111603210D01*
X107533772Y-111603210D01*
X107531165Y-111497936D01*
X107469989Y-111190382D01*
X107236487Y-110994173D01*
X106470660Y-111760000D01*
X104349340Y-111760000D01*
X103583513Y-110994173D01*
X103350011Y-111190382D01*
X103278466Y-111603210D01*
X99913772Y-111603210D01*
X99911165Y-111497936D01*
X99849989Y-111190382D01*
X99616487Y-110994173D01*
X98850660Y-111760000D01*
X96729340Y-111760000D01*
X95963513Y-110994173D01*
X95730011Y-111190382D01*
X95658466Y-111603210D01*
X90707000Y-111603210D01*
X90707000Y-109933513D01*
X97024173Y-109933513D01*
X97790000Y-110699340D01*
X98555827Y-109933513D01*
X104644173Y-109933513D01*
X105410000Y-110699340D01*
X106175827Y-109933513D01*
X112264173Y-109933513D01*
X113030000Y-110699340D01*
X113795827Y-109933513D01*
X119884173Y-109933513D01*
X120650000Y-110699340D01*
X121415827Y-109933513D01*
X127504173Y-109933513D01*
X128270000Y-110699340D01*
X129035827Y-109933513D01*
X135124173Y-109933513D01*
X135890000Y-110699340D01*
X136655827Y-109933513D01*
X142744173Y-109933513D01*
X143510000Y-110699340D01*
X144275827Y-109933513D01*
X150364173Y-109933513D01*
X151130000Y-110699340D01*
X151895827Y-109933513D01*
X157984173Y-109933513D01*
X158750000Y-110699340D01*
X159515827Y-109933513D01*
X159319618Y-109700011D01*
X158906790Y-109628466D01*
X158487936Y-109638835D01*
X158180382Y-109700011D01*
X157984173Y-109933513D01*
X151895827Y-109933513D01*
X151699618Y-109700011D01*
X151286790Y-109628466D01*
X150867936Y-109638835D01*
X150560382Y-109700011D01*
X150364173Y-109933513D01*
X144275827Y-109933513D01*
X144079618Y-109700011D01*
X143666790Y-109628466D01*
X143247936Y-109638835D01*
X142940382Y-109700011D01*
X142744173Y-109933513D01*
X136655827Y-109933513D01*
X136459618Y-109700011D01*
X136046790Y-109628466D01*
X135627936Y-109638835D01*
X135320382Y-109700011D01*
X135124173Y-109933513D01*
X129035827Y-109933513D01*
X128839618Y-109700011D01*
X128426790Y-109628466D01*
X128007936Y-109638835D01*
X127700382Y-109700011D01*
X127504173Y-109933513D01*
X121415827Y-109933513D01*
X121219618Y-109700011D01*
X120806790Y-109628466D01*
X120387936Y-109638835D01*
X120080382Y-109700011D01*
X119884173Y-109933513D01*
X113795827Y-109933513D01*
X113599618Y-109700011D01*
X113186790Y-109628466D01*
X112767936Y-109638835D01*
X112460382Y-109700011D01*
X112264173Y-109933513D01*
X106175827Y-109933513D01*
X105979618Y-109700011D01*
X105566790Y-109628466D01*
X105147936Y-109638835D01*
X104840382Y-109700011D01*
X104644173Y-109933513D01*
X98555827Y-109933513D01*
X98359618Y-109700011D01*
X97946790Y-109628466D01*
X97527936Y-109638835D01*
X97220382Y-109700011D01*
X97024173Y-109933513D01*
X90707000Y-109933513D01*
X90707000Y-103426487D01*
X97024173Y-103426487D01*
X97220382Y-103659989D01*
X97633210Y-103731534D01*
X98052064Y-103721165D01*
X98359618Y-103659989D01*
X98555827Y-103426487D01*
X104644173Y-103426487D01*
X104840382Y-103659989D01*
X105253210Y-103731534D01*
X105672064Y-103721165D01*
X105979618Y-103659989D01*
X106175827Y-103426487D01*
X112264173Y-103426487D01*
X112460382Y-103659989D01*
X112873210Y-103731534D01*
X113292064Y-103721165D01*
X113599618Y-103659989D01*
X113795827Y-103426487D01*
X119884173Y-103426487D01*
X120080382Y-103659989D01*
X120493210Y-103731534D01*
X120912064Y-103721165D01*
X121219618Y-103659989D01*
X121415827Y-103426487D01*
X127504173Y-103426487D01*
X127700382Y-103659989D01*
X128113210Y-103731534D01*
X128532064Y-103721165D01*
X128839618Y-103659989D01*
X129035827Y-103426487D01*
X135124173Y-103426487D01*
X135320382Y-103659989D01*
X135733210Y-103731534D01*
X136152064Y-103721165D01*
X136459618Y-103659989D01*
X136655827Y-103426487D01*
X142744173Y-103426487D01*
X142940382Y-103659989D01*
X143353210Y-103731534D01*
X143772064Y-103721165D01*
X144079618Y-103659989D01*
X144275827Y-103426487D01*
X150364173Y-103426487D01*
X150560382Y-103659989D01*
X150973210Y-103731534D01*
X151392064Y-103721165D01*
X151699618Y-103659989D01*
X151895827Y-103426487D01*
X157984173Y-103426487D01*
X158180382Y-103659989D01*
X158593210Y-103731534D01*
X159012064Y-103721165D01*
X159319618Y-103659989D01*
X159515827Y-103426487D01*
X158750000Y-102660660D01*
X157984173Y-103426487D01*
X151895827Y-103426487D01*
X151130000Y-102660660D01*
X150364173Y-103426487D01*
X144275827Y-103426487D01*
X143510000Y-102660660D01*
X142744173Y-103426487D01*
X136655827Y-103426487D01*
X135890000Y-102660660D01*
X135124173Y-103426487D01*
X129035827Y-103426487D01*
X128270000Y-102660660D01*
X127504173Y-103426487D01*
X121415827Y-103426487D01*
X120650000Y-102660660D01*
X119884173Y-103426487D01*
X113795827Y-103426487D01*
X113030000Y-102660660D01*
X112264173Y-103426487D01*
X106175827Y-103426487D01*
X105410000Y-102660660D01*
X104644173Y-103426487D01*
X98555827Y-103426487D01*
X97790000Y-102660660D01*
X97024173Y-103426487D01*
X90707000Y-103426487D01*
X90707000Y-101443210D01*
X95658466Y-101443210D01*
X95668835Y-101862064D01*
X95730011Y-102169618D01*
X95963513Y-102365827D01*
X96729340Y-101600000D01*
X98850660Y-101600000D01*
X99616487Y-102365827D01*
X99849989Y-102169618D01*
X99921534Y-101756790D01*
X99913772Y-101443210D01*
X103278466Y-101443210D01*
X103288835Y-101862064D01*
X103350011Y-102169618D01*
X103583513Y-102365827D01*
X104349340Y-101600000D01*
X106470660Y-101600000D01*
X107236487Y-102365827D01*
X107469989Y-102169618D01*
X107541534Y-101756790D01*
X107533772Y-101443210D01*
X110898466Y-101443210D01*
X110908835Y-101862064D01*
X110970011Y-102169618D01*
X111203513Y-102365827D01*
X111969340Y-101600000D01*
X114090660Y-101600000D01*
X114856487Y-102365827D01*
X115089989Y-102169618D01*
X115161534Y-101756790D01*
X115153772Y-101443210D01*
X118518466Y-101443210D01*
X118528835Y-101862064D01*
X118590011Y-102169618D01*
X118823513Y-102365827D01*
X119589340Y-101600000D01*
X121710660Y-101600000D01*
X122476487Y-102365827D01*
X122709989Y-102169618D01*
X122781534Y-101756790D01*
X122773772Y-101443210D01*
X126138466Y-101443210D01*
X126148835Y-101862064D01*
X126210011Y-102169618D01*
X126443513Y-102365827D01*
X127209340Y-101600000D01*
X129330660Y-101600000D01*
X130096487Y-102365827D01*
X130329989Y-102169618D01*
X130401534Y-101756790D01*
X130393772Y-101443210D01*
X133758466Y-101443210D01*
X133768835Y-101862064D01*
X133830011Y-102169618D01*
X134063513Y-102365827D01*
X134829340Y-101600000D01*
X136950660Y-101600000D01*
X137716487Y-102365827D01*
X137949989Y-102169618D01*
X138021534Y-101756790D01*
X138013772Y-101443210D01*
X141378466Y-101443210D01*
X141388835Y-101862064D01*
X141450011Y-102169618D01*
X141683513Y-102365827D01*
X142449340Y-101600000D01*
X144570660Y-101600000D01*
X145336487Y-102365827D01*
X145569989Y-102169618D01*
X145641534Y-101756790D01*
X145633772Y-101443210D01*
X148998466Y-101443210D01*
X149008835Y-101862064D01*
X149070011Y-102169618D01*
X149303513Y-102365827D01*
X150069340Y-101600000D01*
X152190660Y-101600000D01*
X152956487Y-102365827D01*
X153189989Y-102169618D01*
X153261534Y-101756790D01*
X153253772Y-101443210D01*
X156618466Y-101443210D01*
X156628835Y-101862064D01*
X156690011Y-102169618D01*
X156923513Y-102365827D01*
X157689340Y-101600000D01*
X159810660Y-101600000D01*
X160576487Y-102365827D01*
X160809989Y-102169618D01*
X160881534Y-101756790D01*
X160871165Y-101337936D01*
X160809989Y-101030382D01*
X160576487Y-100834173D01*
X159810660Y-101600000D01*
X157689340Y-101600000D01*
X156923513Y-100834173D01*
X156690011Y-101030382D01*
X156618466Y-101443210D01*
X153253772Y-101443210D01*
X153251165Y-101337936D01*
X153189989Y-101030382D01*
X152956487Y-100834173D01*
X152190660Y-101600000D01*
X150069340Y-101600000D01*
X149303513Y-100834173D01*
X149070011Y-101030382D01*
X148998466Y-101443210D01*
X145633772Y-101443210D01*
X145631165Y-101337936D01*
X145569989Y-101030382D01*
X145336487Y-100834173D01*
X144570660Y-101600000D01*
X142449340Y-101600000D01*
X141683513Y-100834173D01*
X141450011Y-101030382D01*
X141378466Y-101443210D01*
X138013772Y-101443210D01*
X138011165Y-101337936D01*
X137949989Y-101030382D01*
X137716487Y-100834173D01*
X136950660Y-101600000D01*
X134829340Y-101600000D01*
X134063513Y-100834173D01*
X133830011Y-101030382D01*
X133758466Y-101443210D01*
X130393772Y-101443210D01*
X130391165Y-101337936D01*
X130329989Y-101030382D01*
X130096487Y-100834173D01*
X129330660Y-101600000D01*
X127209340Y-101600000D01*
X126443513Y-100834173D01*
X126210011Y-101030382D01*
X126138466Y-101443210D01*
X122773772Y-101443210D01*
X122771165Y-101337936D01*
X122709989Y-101030382D01*
X122476487Y-100834173D01*
X121710660Y-101600000D01*
X119589340Y-101600000D01*
X118823513Y-100834173D01*
X118590011Y-101030382D01*
X118518466Y-101443210D01*
X115153772Y-101443210D01*
X115151165Y-101337936D01*
X115089989Y-101030382D01*
X114856487Y-100834173D01*
X114090660Y-101600000D01*
X111969340Y-101600000D01*
X111203513Y-100834173D01*
X110970011Y-101030382D01*
X110898466Y-101443210D01*
X107533772Y-101443210D01*
X107531165Y-101337936D01*
X107469989Y-101030382D01*
X107236487Y-100834173D01*
X106470660Y-101600000D01*
X104349340Y-101600000D01*
X103583513Y-100834173D01*
X103350011Y-101030382D01*
X103278466Y-101443210D01*
X99913772Y-101443210D01*
X99911165Y-101337936D01*
X99849989Y-101030382D01*
X99616487Y-100834173D01*
X98850660Y-101600000D01*
X96729340Y-101600000D01*
X95963513Y-100834173D01*
X95730011Y-101030382D01*
X95658466Y-101443210D01*
X90707000Y-101443210D01*
X90707000Y-99773513D01*
X97024173Y-99773513D01*
X97790000Y-100539340D01*
X98555827Y-99773513D01*
X104644173Y-99773513D01*
X105410000Y-100539340D01*
X106175827Y-99773513D01*
X112264173Y-99773513D01*
X113030000Y-100539340D01*
X113795827Y-99773513D01*
X119884173Y-99773513D01*
X120650000Y-100539340D01*
X121415827Y-99773513D01*
X127504173Y-99773513D01*
X128270000Y-100539340D01*
X129035827Y-99773513D01*
X135124173Y-99773513D01*
X135890000Y-100539340D01*
X136655827Y-99773513D01*
X142744173Y-99773513D01*
X143510000Y-100539340D01*
X144275827Y-99773513D01*
X150364173Y-99773513D01*
X151130000Y-100539340D01*
X151895827Y-99773513D01*
X157984173Y-99773513D01*
X158750000Y-100539340D01*
X159515827Y-99773513D01*
X159319618Y-99540011D01*
X158906790Y-99468466D01*
X158487936Y-99478835D01*
X158180382Y-99540011D01*
X157984173Y-99773513D01*
X151895827Y-99773513D01*
X151699618Y-99540011D01*
X151286790Y-99468466D01*
X150867936Y-99478835D01*
X150560382Y-99540011D01*
X150364173Y-99773513D01*
X144275827Y-99773513D01*
X144079618Y-99540011D01*
X143666790Y-99468466D01*
X143247936Y-99478835D01*
X142940382Y-99540011D01*
X142744173Y-99773513D01*
X136655827Y-99773513D01*
X136459618Y-99540011D01*
X136046790Y-99468466D01*
X135627936Y-99478835D01*
X135320382Y-99540011D01*
X135124173Y-99773513D01*
X129035827Y-99773513D01*
X128839618Y-99540011D01*
X128426790Y-99468466D01*
X128007936Y-99478835D01*
X127700382Y-99540011D01*
X127504173Y-99773513D01*
X121415827Y-99773513D01*
X121219618Y-99540011D01*
X120806790Y-99468466D01*
X120387936Y-99478835D01*
X120080382Y-99540011D01*
X119884173Y-99773513D01*
X113795827Y-99773513D01*
X113599618Y-99540011D01*
X113186790Y-99468466D01*
X112767936Y-99478835D01*
X112460382Y-99540011D01*
X112264173Y-99773513D01*
X106175827Y-99773513D01*
X105979618Y-99540011D01*
X105566790Y-99468466D01*
X105147936Y-99478835D01*
X104840382Y-99540011D01*
X104644173Y-99773513D01*
X98555827Y-99773513D01*
X98359618Y-99540011D01*
X97946790Y-99468466D01*
X97527936Y-99478835D01*
X97220382Y-99540011D01*
X97024173Y-99773513D01*
X90707000Y-99773513D01*
X90707000Y-89554177D01*
X91579674Y-89554177D01*
X91818343Y-89818827D01*
X92071543Y-90071961D01*
X92369262Y-90270834D01*
X92700059Y-90407804D01*
X92980000Y-90312437D01*
X92980000Y-89285000D01*
X94980000Y-89285000D01*
X94980000Y-90312437D01*
X95259941Y-90407804D01*
X95590738Y-90270834D01*
X95888457Y-90071961D01*
X96141657Y-89818827D01*
X96380326Y-89554177D01*
X114439674Y-89554177D01*
X114678343Y-89818827D01*
X114931543Y-90071961D01*
X115229262Y-90270834D01*
X115560059Y-90407804D01*
X115840000Y-90312437D01*
X115840000Y-89285000D01*
X117840000Y-89285000D01*
X117840000Y-90312437D01*
X118119941Y-90407804D01*
X118450738Y-90270834D01*
X118748457Y-90071961D01*
X119001657Y-89818827D01*
X119240326Y-89554177D01*
X137299674Y-89554177D01*
X137538343Y-89818827D01*
X137791543Y-90071961D01*
X138089262Y-90270834D01*
X138420059Y-90407804D01*
X138700000Y-90312437D01*
X138700000Y-89285000D01*
X140700000Y-89285000D01*
X140700000Y-90312437D01*
X140979941Y-90407804D01*
X141310738Y-90270834D01*
X141608457Y-90071961D01*
X141861657Y-89818827D01*
X142100326Y-89554177D01*
X160159674Y-89554177D01*
X160398343Y-89818827D01*
X160651543Y-90071961D01*
X160949262Y-90270834D01*
X161280059Y-90407804D01*
X161560000Y-90312437D01*
X161560000Y-89285000D01*
X163560000Y-89285000D01*
X163560000Y-90312437D01*
X163839941Y-90407804D01*
X164170738Y-90270834D01*
X164468457Y-90071961D01*
X164721657Y-89818827D01*
X164960326Y-89554177D01*
X164912696Y-89285000D01*
X163560000Y-89285000D01*
X161560000Y-89285000D01*
X160207304Y-89285000D01*
X160159674Y-89554177D01*
X142100326Y-89554177D01*
X142052696Y-89285000D01*
X140700000Y-89285000D01*
X138700000Y-89285000D01*
X137347304Y-89285000D01*
X137299674Y-89554177D01*
X119240326Y-89554177D01*
X119192696Y-89285000D01*
X117840000Y-89285000D01*
X115840000Y-89285000D01*
X114487304Y-89285000D01*
X114439674Y-89554177D01*
X96380326Y-89554177D01*
X96332696Y-89285000D01*
X94980000Y-89285000D01*
X92980000Y-89285000D01*
X91627304Y-89285000D01*
X91579674Y-89554177D01*
X90707000Y-89554177D01*
X90707000Y-87634536D01*
X91317499Y-87024037D01*
X91680299Y-87223488D01*
X91995946Y-87323617D01*
X91818343Y-87501173D01*
X91579674Y-87765823D01*
X91627304Y-88035000D01*
X92980000Y-88035000D01*
X92980000Y-87517163D01*
X93153481Y-87536622D01*
X93207612Y-87537000D01*
X94752388Y-87537000D01*
X94980000Y-87514682D01*
X94980000Y-88035000D01*
X96332696Y-88035000D01*
X96380326Y-87765823D01*
X96141657Y-87501173D01*
X95964885Y-87324447D01*
X96229798Y-87244465D01*
X96897887Y-86889236D01*
X97084547Y-86737000D01*
X113731883Y-86737000D01*
X113877235Y-86858965D01*
G36*
X182693000Y-154753000D02*
X73847000Y-154753000D01*
X73847000Y-150207009D01*
X77147575Y-150207009D01*
X77293678Y-151003060D01*
X77591618Y-151755571D01*
X78030048Y-152435881D01*
X78592267Y-153018076D01*
X79256861Y-153479981D01*
X79998516Y-153804002D01*
X80788982Y-153977797D01*
X81598151Y-153994747D01*
X82395202Y-153854205D01*
X83149775Y-153561526D01*
X83833129Y-153127856D01*
X84419235Y-152569715D01*
X84885769Y-151908362D01*
X85214959Y-151168987D01*
X85306345Y-150766750D01*
X95663000Y-150766750D01*
X95663000Y-151421754D01*
X95687095Y-151542889D01*
X95734360Y-151656996D01*
X95802977Y-151759689D01*
X95890311Y-151847023D01*
X95993004Y-151915640D01*
X96107111Y-151962905D01*
X96228246Y-151987000D01*
X96883250Y-151987000D01*
X97040000Y-151830250D01*
X97040000Y-150610000D01*
X98540000Y-150610000D01*
X98540000Y-151830250D01*
X98696750Y-151987000D01*
X99351754Y-151987000D01*
X99472889Y-151962905D01*
X99586996Y-151915640D01*
X99689689Y-151847023D01*
X99777023Y-151759689D01*
X99845640Y-151656996D01*
X99892905Y-151542889D01*
X99917000Y-151421754D01*
X99917000Y-150766750D01*
X103283000Y-150766750D01*
X103283000Y-151421754D01*
X103307095Y-151542889D01*
X103354360Y-151656996D01*
X103422977Y-151759689D01*
X103510311Y-151847023D01*
X103613004Y-151915640D01*
X103727111Y-151962905D01*
X103848246Y-151987000D01*
X104503250Y-151987000D01*
X104660000Y-151830250D01*
X104660000Y-150610000D01*
X106160000Y-150610000D01*
X106160000Y-151830250D01*
X106316750Y-151987000D01*
X106971754Y-151987000D01*
X107092889Y-151962905D01*
X107206996Y-151915640D01*
X107309689Y-151847023D01*
X107397023Y-151759689D01*
X107465640Y-151656996D01*
X107512905Y-151542889D01*
X107537000Y-151421754D01*
X107537000Y-150766750D01*
X110903000Y-150766750D01*
X110903000Y-151421754D01*
X110927095Y-151542889D01*
X110974360Y-151656996D01*
X111042977Y-151759689D01*
X111130311Y-151847023D01*
X111233004Y-151915640D01*
X111347111Y-151962905D01*
X111468246Y-151987000D01*
X112123250Y-151987000D01*
X112280000Y-151830250D01*
X112280000Y-150610000D01*
X113780000Y-150610000D01*
X113780000Y-151830250D01*
X113936750Y-151987000D01*
X114591754Y-151987000D01*
X114712889Y-151962905D01*
X114826996Y-151915640D01*
X114929689Y-151847023D01*
X115017023Y-151759689D01*
X115085640Y-151656996D01*
X115132905Y-151542889D01*
X115157000Y-151421754D01*
X115157000Y-150766750D01*
X118523000Y-150766750D01*
X118523000Y-151421754D01*
X118547095Y-151542889D01*
X118594360Y-151656996D01*
X118662977Y-151759689D01*
X118750311Y-151847023D01*
X118853004Y-151915640D01*
X118967111Y-151962905D01*
X119088246Y-151987000D01*
X119743250Y-151987000D01*
X119900000Y-151830250D01*
X119900000Y-150610000D01*
X121400000Y-150610000D01*
X121400000Y-151830250D01*
X121556750Y-151987000D01*
X122211754Y-151987000D01*
X122332889Y-151962905D01*
X122446996Y-151915640D01*
X122549689Y-151847023D01*
X122637023Y-151759689D01*
X122705640Y-151656996D01*
X122752905Y-151542889D01*
X122777000Y-151421754D01*
X122777000Y-150766750D01*
X126143000Y-150766750D01*
X126143000Y-151421754D01*
X126167095Y-151542889D01*
X126214360Y-151656996D01*
X126282977Y-151759689D01*
X126370311Y-151847023D01*
X126473004Y-151915640D01*
X126587111Y-151962905D01*
X126708246Y-151987000D01*
X127363250Y-151987000D01*
X127520000Y-151830250D01*
X127520000Y-150610000D01*
X129020000Y-150610000D01*
X129020000Y-151830250D01*
X129176750Y-151987000D01*
X129831754Y-151987000D01*
X129952889Y-151962905D01*
X130066996Y-151915640D01*
X130169689Y-151847023D01*
X130257023Y-151759689D01*
X130325640Y-151656996D01*
X130372905Y-151542889D01*
X130397000Y-151421754D01*
X130397000Y-150766750D01*
X133763000Y-150766750D01*
X133763000Y-151421754D01*
X133787095Y-151542889D01*
X133834360Y-151656996D01*
X133902977Y-151759689D01*
X133990311Y-151847023D01*
X134093004Y-151915640D01*
X134207111Y-151962905D01*
X134328246Y-151987000D01*
X134983250Y-151987000D01*
X135140000Y-151830250D01*
X135140000Y-150610000D01*
X136640000Y-150610000D01*
X136640000Y-151830250D01*
X136796750Y-151987000D01*
X137451754Y-151987000D01*
X137572889Y-151962905D01*
X137686996Y-151915640D01*
X137789689Y-151847023D01*
X137877023Y-151759689D01*
X137945640Y-151656996D01*
X137992905Y-151542889D01*
X138017000Y-151421754D01*
X138017000Y-150766750D01*
X141383000Y-150766750D01*
X141383000Y-151421754D01*
X141407095Y-151542889D01*
X141454360Y-151656996D01*
X141522977Y-151759689D01*
X141610311Y-151847023D01*
X141713004Y-151915640D01*
X141827111Y-151962905D01*
X141948246Y-151987000D01*
X142603250Y-151987000D01*
X142760000Y-151830250D01*
X142760000Y-150610000D01*
X144260000Y-150610000D01*
X144260000Y-151830250D01*
X144416750Y-151987000D01*
X145071754Y-151987000D01*
X145192889Y-151962905D01*
X145306996Y-151915640D01*
X145409689Y-151847023D01*
X145497023Y-151759689D01*
X145565640Y-151656996D01*
X145612905Y-151542889D01*
X145637000Y-151421754D01*
X145637000Y-150766750D01*
X149003000Y-150766750D01*
X149003000Y-151421754D01*
X149027095Y-151542889D01*
X149074360Y-151656996D01*
X149142977Y-151759689D01*
X149230311Y-151847023D01*
X149333004Y-151915640D01*
X149447111Y-151962905D01*
X149568246Y-151987000D01*
X150223250Y-151987000D01*
X150380000Y-151830250D01*
X150380000Y-150610000D01*
X151880000Y-150610000D01*
X151880000Y-151830250D01*
X152036750Y-151987000D01*
X152691754Y-151987000D01*
X152812889Y-151962905D01*
X152926996Y-151915640D01*
X153029689Y-151847023D01*
X153117023Y-151759689D01*
X153185640Y-151656996D01*
X153232905Y-151542889D01*
X153257000Y-151421754D01*
X153257000Y-150766750D01*
X156623000Y-150766750D01*
X156623000Y-151421754D01*
X156647095Y-151542889D01*
X156694360Y-151656996D01*
X156762977Y-151759689D01*
X156850311Y-151847023D01*
X156953004Y-151915640D01*
X157067111Y-151962905D01*
X157188246Y-151987000D01*
X157843250Y-151987000D01*
X158000000Y-151830250D01*
X158000000Y-150610000D01*
X159500000Y-150610000D01*
X159500000Y-151830250D01*
X159656750Y-151987000D01*
X160311754Y-151987000D01*
X160432889Y-151962905D01*
X160546996Y-151915640D01*
X160649689Y-151847023D01*
X160737023Y-151759689D01*
X160805640Y-151656996D01*
X160852905Y-151542889D01*
X160877000Y-151421754D01*
X160877000Y-150766750D01*
X160720250Y-150610000D01*
X159500000Y-150610000D01*
X158000000Y-150610000D01*
X156779750Y-150610000D01*
X156623000Y-150766750D01*
X153257000Y-150766750D01*
X153100250Y-150610000D01*
X151880000Y-150610000D01*
X150380000Y-150610000D01*
X149159750Y-150610000D01*
X149003000Y-150766750D01*
X145637000Y-150766750D01*
X145480250Y-150610000D01*
X144260000Y-150610000D01*
X142760000Y-150610000D01*
X141539750Y-150610000D01*
X141383000Y-150766750D01*
X138017000Y-150766750D01*
X137860250Y-150610000D01*
X136640000Y-150610000D01*
X135140000Y-150610000D01*
X133919750Y-150610000D01*
X133763000Y-150766750D01*
X130397000Y-150766750D01*
X130240250Y-150610000D01*
X129020000Y-150610000D01*
X127520000Y-150610000D01*
X126299750Y-150610000D01*
X126143000Y-150766750D01*
X122777000Y-150766750D01*
X122620250Y-150610000D01*
X121400000Y-150610000D01*
X119900000Y-150610000D01*
X118679750Y-150610000D01*
X118523000Y-150766750D01*
X115157000Y-150766750D01*
X115000250Y-150610000D01*
X113780000Y-150610000D01*
X112280000Y-150610000D01*
X111059750Y-150610000D01*
X110903000Y-150766750D01*
X107537000Y-150766750D01*
X107380250Y-150610000D01*
X106160000Y-150610000D01*
X104660000Y-150610000D01*
X103439750Y-150610000D01*
X103283000Y-150766750D01*
X99917000Y-150766750D01*
X99760250Y-150610000D01*
X98540000Y-150610000D01*
X97040000Y-150610000D01*
X95819750Y-150610000D01*
X95663000Y-150766750D01*
X85306345Y-150766750D01*
X85394269Y-150379753D01*
X85396681Y-150207009D01*
X171127575Y-150207009D01*
X171273678Y-151003060D01*
X171571618Y-151755571D01*
X172010048Y-152435881D01*
X172572267Y-153018076D01*
X173236861Y-153479981D01*
X173978516Y-153804002D01*
X174768982Y-153977797D01*
X175578151Y-153994747D01*
X176375202Y-153854205D01*
X177129775Y-153561526D01*
X177813129Y-153127856D01*
X178399235Y-152569715D01*
X178865769Y-151908362D01*
X179194959Y-151168987D01*
X179374269Y-150379753D01*
X179387177Y-149455327D01*
X179229974Y-148661394D01*
X178921556Y-147913116D01*
X178473671Y-147238994D01*
X177903378Y-146664705D01*
X177232399Y-146212125D01*
X176486292Y-145898490D01*
X175693476Y-145735749D01*
X174884149Y-145730098D01*
X174089139Y-145881755D01*
X173338726Y-146184941D01*
X172661493Y-146628110D01*
X172083237Y-147194380D01*
X171625983Y-147862182D01*
X171307148Y-148606081D01*
X171138875Y-149397742D01*
X171127575Y-150207009D01*
X85396681Y-150207009D01*
X85407177Y-149455327D01*
X85249974Y-148661394D01*
X85100296Y-148298246D01*
X95663000Y-148298246D01*
X95663000Y-148953250D01*
X95819750Y-149110000D01*
X97040000Y-149110000D01*
X97040000Y-147889750D01*
X98540000Y-147889750D01*
X98540000Y-149110000D01*
X99760250Y-149110000D01*
X99917000Y-148953250D01*
X99917000Y-148298246D01*
X103283000Y-148298246D01*
X103283000Y-148953250D01*
X103439750Y-149110000D01*
X104660000Y-149110000D01*
X104660000Y-147889750D01*
X106160000Y-147889750D01*
X106160000Y-149110000D01*
X107380250Y-149110000D01*
X107537000Y-148953250D01*
X107537000Y-148298246D01*
X110903000Y-148298246D01*
X110903000Y-148953250D01*
X111059750Y-149110000D01*
X112280000Y-149110000D01*
X112280000Y-147889750D01*
X113780000Y-147889750D01*
X113780000Y-149110000D01*
X115000250Y-149110000D01*
X115157000Y-148953250D01*
X115157000Y-148298246D01*
X118523000Y-148298246D01*
X118523000Y-148953250D01*
X118679750Y-149110000D01*
X119900000Y-149110000D01*
X119900000Y-147889750D01*
X121400000Y-147889750D01*
X121400000Y-149110000D01*
X122620250Y-149110000D01*
X122777000Y-148953250D01*
X122777000Y-148298246D01*
X126143000Y-148298246D01*
X126143000Y-148953250D01*
X126299750Y-149110000D01*
X127520000Y-149110000D01*
X127520000Y-147889750D01*
X129020000Y-147889750D01*
X129020000Y-149110000D01*
X130240250Y-149110000D01*
X130397000Y-148953250D01*
X130397000Y-148298246D01*
X133763000Y-148298246D01*
X133763000Y-148953250D01*
X133919750Y-149110000D01*
X135140000Y-149110000D01*
X135140000Y-147889750D01*
X136640000Y-147889750D01*
X136640000Y-149110000D01*
X137860250Y-149110000D01*
X138017000Y-148953250D01*
X138017000Y-148298246D01*
X141383000Y-148298246D01*
X141383000Y-148953250D01*
X141539750Y-149110000D01*
X142760000Y-149110000D01*
X142760000Y-147889750D01*
X144260000Y-147889750D01*
X144260000Y-149110000D01*
X145480250Y-149110000D01*
X145637000Y-148953250D01*
X145637000Y-148298246D01*
X149003000Y-148298246D01*
X149003000Y-148953250D01*
X149159750Y-149110000D01*
X150380000Y-149110000D01*
X150380000Y-147889750D01*
X151880000Y-147889750D01*
X151880000Y-149110000D01*
X153100250Y-149110000D01*
X153257000Y-148953250D01*
X153257000Y-148298246D01*
X156623000Y-148298246D01*
X156623000Y-148953250D01*
X156779750Y-149110000D01*
X158000000Y-149110000D01*
X158000000Y-147889750D01*
X159500000Y-147889750D01*
X159500000Y-149110000D01*
X160720250Y-149110000D01*
X160877000Y-148953250D01*
X160877000Y-148298246D01*
X160852905Y-148177111D01*
X160805640Y-148063004D01*
X160737023Y-147960311D01*
X160649689Y-147872977D01*
X160546996Y-147804360D01*
X160432889Y-147757095D01*
X160311754Y-147733000D01*
X159656750Y-147733000D01*
X159500000Y-147889750D01*
X158000000Y-147889750D01*
X157843250Y-147733000D01*
X157188246Y-147733000D01*
X157067111Y-147757095D01*
X156953004Y-147804360D01*
X156850311Y-147872977D01*
X156762977Y-147960311D01*
X156694360Y-148063004D01*
X156647095Y-148177111D01*
X156623000Y-148298246D01*
X153257000Y-148298246D01*
X153232905Y-148177111D01*
X153185640Y-148063004D01*
X153117023Y-147960311D01*
X153029689Y-147872977D01*
X152926996Y-147804360D01*
X152812889Y-147757095D01*
X152691754Y-147733000D01*
X152036750Y-147733000D01*
X151880000Y-147889750D01*
X150380000Y-147889750D01*
X150223250Y-147733000D01*
X149568246Y-147733000D01*
X149447111Y-147757095D01*
X149333004Y-147804360D01*
X149230311Y-147872977D01*
X149142977Y-147960311D01*
X149074360Y-148063004D01*
X149027095Y-148177111D01*
X149003000Y-148298246D01*
X145637000Y-148298246D01*
X145612905Y-148177111D01*
X145565640Y-148063004D01*
X145497023Y-147960311D01*
X145409689Y-147872977D01*
X145306996Y-147804360D01*
X145192889Y-147757095D01*
X145071754Y-147733000D01*
X144416750Y-147733000D01*
X144260000Y-147889750D01*
X142760000Y-147889750D01*
X142603250Y-147733000D01*
X141948246Y-147733000D01*
X141827111Y-147757095D01*
X141713004Y-147804360D01*
X141610311Y-147872977D01*
X141522977Y-147960311D01*
X141454360Y-148063004D01*
X141407095Y-148177111D01*
X141383000Y-148298246D01*
X138017000Y-148298246D01*
X137992905Y-148177111D01*
X137945640Y-148063004D01*
X137877023Y-147960311D01*
X137789689Y-147872977D01*
X137686996Y-147804360D01*
X137572889Y-147757095D01*
X137451754Y-147733000D01*
X136796750Y-147733000D01*
X136640000Y-147889750D01*
X135140000Y-147889750D01*
X134983250Y-147733000D01*
X134328246Y-147733000D01*
X134207111Y-147757095D01*
X134093004Y-147804360D01*
X133990311Y-147872977D01*
X133902977Y-147960311D01*
X133834360Y-148063004D01*
X133787095Y-148177111D01*
X133763000Y-148298246D01*
X130397000Y-148298246D01*
X130372905Y-148177111D01*
X130325640Y-148063004D01*
X130257023Y-147960311D01*
X130169689Y-147872977D01*
X130066996Y-147804360D01*
X129952889Y-147757095D01*
X129831754Y-147733000D01*
X129176750Y-147733000D01*
X129020000Y-147889750D01*
X127520000Y-147889750D01*
X127363250Y-147733000D01*
X126708246Y-147733000D01*
X126587111Y-147757095D01*
X126473004Y-147804360D01*
X126370311Y-147872977D01*
X126282977Y-147960311D01*
X126214360Y-148063004D01*
X126167095Y-148177111D01*
X126143000Y-148298246D01*
X122777000Y-148298246D01*
X122752905Y-148177111D01*
X122705640Y-148063004D01*
X122637023Y-147960311D01*
X122549689Y-147872977D01*
X122446996Y-147804360D01*
X122332889Y-147757095D01*
X122211754Y-147733000D01*
X121556750Y-147733000D01*
X121400000Y-147889750D01*
X119900000Y-147889750D01*
X119743250Y-147733000D01*
X119088246Y-147733000D01*
X118967111Y-147757095D01*
X118853004Y-147804360D01*
X118750311Y-147872977D01*
X118662977Y-147960311D01*
X118594360Y-148063004D01*
X118547095Y-148177111D01*
X118523000Y-148298246D01*
X115157000Y-148298246D01*
X115132905Y-148177111D01*
X115085640Y-148063004D01*
X115017023Y-147960311D01*
X114929689Y-147872977D01*
X114826996Y-147804360D01*
X114712889Y-147757095D01*
X114591754Y-147733000D01*
X113936750Y-147733000D01*
X113780000Y-147889750D01*
X112280000Y-147889750D01*
X112123250Y-147733000D01*
X111468246Y-147733000D01*
X111347111Y-147757095D01*
X111233004Y-147804360D01*
X111130311Y-147872977D01*
X111042977Y-147960311D01*
X110974360Y-148063004D01*
X110927095Y-148177111D01*
X110903000Y-148298246D01*
X107537000Y-148298246D01*
X107512905Y-148177111D01*
X107465640Y-148063004D01*
X107397023Y-147960311D01*
X107309689Y-147872977D01*
X107206996Y-147804360D01*
X107092889Y-147757095D01*
X106971754Y-147733000D01*
X106316750Y-147733000D01*
X106160000Y-147889750D01*
X104660000Y-147889750D01*
X104503250Y-147733000D01*
X103848246Y-147733000D01*
X103727111Y-147757095D01*
X103613004Y-147804360D01*
X103510311Y-147872977D01*
X103422977Y-147960311D01*
X103354360Y-148063004D01*
X103307095Y-148177111D01*
X103283000Y-148298246D01*
X99917000Y-148298246D01*
X99892905Y-148177111D01*
X99845640Y-148063004D01*
X99777023Y-147960311D01*
X99689689Y-147872977D01*
X99586996Y-147804360D01*
X99472889Y-147757095D01*
X99351754Y-147733000D01*
X98696750Y-147733000D01*
X98540000Y-147889750D01*
X97040000Y-147889750D01*
X96883250Y-147733000D01*
X96228246Y-147733000D01*
X96107111Y-147757095D01*
X95993004Y-147804360D01*
X95890311Y-147872977D01*
X95802977Y-147960311D01*
X95734360Y-148063004D01*
X95687095Y-148177111D01*
X95663000Y-148298246D01*
X85100296Y-148298246D01*
X84941556Y-147913116D01*
X84493671Y-147238994D01*
X83923378Y-146664705D01*
X83252399Y-146212125D01*
X82506292Y-145898490D01*
X81713476Y-145735749D01*
X80904149Y-145730098D01*
X80109139Y-145881755D01*
X79358726Y-146184941D01*
X78681493Y-146628110D01*
X78103237Y-147194380D01*
X77645983Y-147862182D01*
X77327148Y-148606081D01*
X77158875Y-149397742D01*
X77147575Y-150207009D01*
X73847000Y-150207009D01*
X73847000Y-140481750D01*
X91353000Y-140481750D01*
X91353000Y-141011754D01*
X91377095Y-141132889D01*
X91424360Y-141246996D01*
X91492977Y-141349689D01*
X91580311Y-141437023D01*
X91683004Y-141505640D01*
X91797111Y-141552905D01*
X91918246Y-141577000D01*
X92823250Y-141577000D01*
X92980000Y-141420250D01*
X92980000Y-140325000D01*
X94980000Y-140325000D01*
X94980000Y-141420250D01*
X95136750Y-141577000D01*
X96041754Y-141577000D01*
X96162889Y-141552905D01*
X96276996Y-141505640D01*
X96379689Y-141437023D01*
X96467023Y-141349689D01*
X96535640Y-141246996D01*
X96582905Y-141132889D01*
X96607000Y-141011754D01*
X96607000Y-140481750D01*
X114213000Y-140481750D01*
X114213000Y-141011754D01*
X114237095Y-141132889D01*
X114284360Y-141246996D01*
X114352977Y-141349689D01*
X114440311Y-141437023D01*
X114543004Y-141505640D01*
X114657111Y-141552905D01*
X114778246Y-141577000D01*
X115683250Y-141577000D01*
X115840000Y-141420250D01*
X115840000Y-140325000D01*
X117840000Y-140325000D01*
X117840000Y-141420250D01*
X117996750Y-141577000D01*
X118901754Y-141577000D01*
X119022889Y-141552905D01*
X119136996Y-141505640D01*
X119239689Y-141437023D01*
X119327023Y-141349689D01*
X119395640Y-141246996D01*
X119442905Y-141132889D01*
X119467000Y-141011754D01*
X119467000Y-140481750D01*
X137073000Y-140481750D01*
X137073000Y-141011754D01*
X137097095Y-141132889D01*
X137144360Y-141246996D01*
X137212977Y-141349689D01*
X137300311Y-141437023D01*
X137403004Y-141505640D01*
X137517111Y-141552905D01*
X137638246Y-141577000D01*
X138543250Y-141577000D01*
X138700000Y-141420250D01*
X138700000Y-140325000D01*
X140700000Y-140325000D01*
X140700000Y-141420250D01*
X140856750Y-141577000D01*
X141761754Y-141577000D01*
X141882889Y-141552905D01*
X141996996Y-141505640D01*
X142099689Y-141437023D01*
X142187023Y-141349689D01*
X142255640Y-141246996D01*
X142302905Y-141132889D01*
X142327000Y-141011754D01*
X142327000Y-140481750D01*
X159933000Y-140481750D01*
X159933000Y-141011754D01*
X159957095Y-141132889D01*
X160004360Y-141246996D01*
X160072977Y-141349689D01*
X160160311Y-141437023D01*
X160263004Y-141505640D01*
X160377111Y-141552905D01*
X160498246Y-141577000D01*
X161403250Y-141577000D01*
X161560000Y-141420250D01*
X161560000Y-140325000D01*
X163560000Y-140325000D01*
X163560000Y-141420250D01*
X163716750Y-141577000D01*
X164621754Y-141577000D01*
X164742889Y-141552905D01*
X164856996Y-141505640D01*
X164959689Y-141437023D01*
X165047023Y-141349689D01*
X165115640Y-141246996D01*
X165162905Y-141132889D01*
X165187000Y-141011754D01*
X165187000Y-140481750D01*
X165030250Y-140325000D01*
X163560000Y-140325000D01*
X161560000Y-140325000D01*
X160089750Y-140325000D01*
X159933000Y-140481750D01*
X142327000Y-140481750D01*
X142170250Y-140325000D01*
X140700000Y-140325000D01*
X138700000Y-140325000D01*
X137229750Y-140325000D01*
X137073000Y-140481750D01*
X119467000Y-140481750D01*
X119310250Y-140325000D01*
X117840000Y-140325000D01*
X115840000Y-140325000D01*
X114369750Y-140325000D01*
X114213000Y-140481750D01*
X96607000Y-140481750D01*
X96450250Y-140325000D01*
X94980000Y-140325000D01*
X92980000Y-140325000D01*
X91509750Y-140325000D01*
X91353000Y-140481750D01*
X73847000Y-140481750D01*
X73847000Y-81280000D01*
X80743000Y-81280000D01*
X80743000Y-132080000D01*
X80770737Y-132362886D01*
X80795508Y-132646018D01*
X80800022Y-132661555D01*
X80801601Y-132677659D01*
X80883765Y-132949799D01*
X80963050Y-133222699D01*
X80970494Y-133237060D01*
X80975172Y-133252554D01*
X81108645Y-133503580D01*
X81239411Y-133755854D01*
X81249503Y-133768496D01*
X81257101Y-133782786D01*
X81436755Y-134003062D01*
X81614066Y-134225177D01*
X81636279Y-134247703D01*
X81636651Y-134248159D01*
X81637073Y-134248508D01*
X81644232Y-134255768D01*
X84264233Y-136875768D01*
X84483876Y-137056185D01*
X84701597Y-137238874D01*
X84715776Y-137246669D01*
X84728279Y-137256939D01*
X84978781Y-137391257D01*
X85227841Y-137528179D01*
X85243262Y-137533071D01*
X85257524Y-137540718D01*
X85529379Y-137623833D01*
X85800256Y-137709760D01*
X85816332Y-137711563D01*
X85831809Y-137716295D01*
X86114608Y-137745020D01*
X86397038Y-137776700D01*
X86428667Y-137776921D01*
X86429259Y-137776981D01*
X86429811Y-137776929D01*
X86440000Y-137777000D01*
X90871883Y-137777000D01*
X91017235Y-137898965D01*
X91439128Y-138130903D01*
X91424360Y-138153004D01*
X91377095Y-138267111D01*
X91353000Y-138388246D01*
X91353000Y-138918250D01*
X91509750Y-139075000D01*
X92980000Y-139075000D01*
X92980000Y-138557163D01*
X93153481Y-138576622D01*
X93207612Y-138577000D01*
X94752388Y-138577000D01*
X94980000Y-138554682D01*
X94980000Y-139075000D01*
X96450250Y-139075000D01*
X96607000Y-138918250D01*
X96607000Y-138388246D01*
X96582905Y-138267111D01*
X96535640Y-138153004D01*
X96520279Y-138130014D01*
X96897887Y-137929236D01*
X97084547Y-137777000D01*
X113731883Y-137777000D01*
X113877235Y-137898965D01*
X114299128Y-138130903D01*
X114284360Y-138153004D01*
X114237095Y-138267111D01*
X114213000Y-138388246D01*
X114213000Y-138918250D01*
X114369750Y-139075000D01*
X115840000Y-139075000D01*
X115840000Y-138557163D01*
X116013481Y-138576622D01*
X116067612Y-138577000D01*
X117612388Y-138577000D01*
X117840000Y-138554682D01*
X117840000Y-139075000D01*
X119310250Y-139075000D01*
X119467000Y-138918250D01*
X119467000Y-138388246D01*
X119442905Y-138267111D01*
X119395640Y-138153004D01*
X119380279Y-138130014D01*
X119757887Y-137929236D01*
X119944547Y-137777000D01*
X136591883Y-137777000D01*
X136737235Y-137898965D01*
X137159128Y-138130903D01*
X137144360Y-138153004D01*
X137097095Y-138267111D01*
X137073000Y-138388246D01*
X137073000Y-138918250D01*
X137229750Y-139075000D01*
X138700000Y-139075000D01*
X138700000Y-138557163D01*
X138873481Y-138576622D01*
X138927612Y-138577000D01*
X140472388Y-138577000D01*
X140700000Y-138554682D01*
X140700000Y-139075000D01*
X142170250Y-139075000D01*
X142327000Y-138918250D01*
X142327000Y-138388246D01*
X142302905Y-138267111D01*
X142255640Y-138153004D01*
X142240279Y-138130014D01*
X142617887Y-137929236D01*
X142804547Y-137777000D01*
X159451883Y-137777000D01*
X159597235Y-137898965D01*
X160019128Y-138130903D01*
X160004360Y-138153004D01*
X159957095Y-138267111D01*
X159933000Y-138388246D01*
X159933000Y-138918250D01*
X160089750Y-139075000D01*
X161560000Y-139075000D01*
X161560000Y-138557163D01*
X161733481Y-138576622D01*
X161787612Y-138577000D01*
X163332388Y-138577000D01*
X163560000Y-138554682D01*
X163560000Y-139075000D01*
X165030250Y-139075000D01*
X165187000Y-138918250D01*
X165187000Y-138388246D01*
X165162905Y-138267111D01*
X165115640Y-138153004D01*
X165100279Y-138130014D01*
X165477887Y-137929236D01*
X165664547Y-137777000D01*
X170100000Y-137777000D01*
X170382886Y-137749263D01*
X170666018Y-137724492D01*
X170681555Y-137719978D01*
X170697659Y-137718399D01*
X170969799Y-137636235D01*
X171242699Y-137556950D01*
X171257060Y-137549506D01*
X171272554Y-137544828D01*
X171523580Y-137411355D01*
X171775854Y-137280589D01*
X171788496Y-137270497D01*
X171802786Y-137262899D01*
X172023062Y-137083245D01*
X172245177Y-136905934D01*
X172267703Y-136883721D01*
X172268159Y-136883349D01*
X172268508Y-136882927D01*
X172275768Y-136875768D01*
X174895768Y-134255767D01*
X175076185Y-134036124D01*
X175258874Y-133818403D01*
X175266669Y-133804224D01*
X175276939Y-133791721D01*
X175411257Y-133541219D01*
X175548179Y-133292159D01*
X175553071Y-133276738D01*
X175560718Y-133262476D01*
X175643833Y-132990621D01*
X175729760Y-132719744D01*
X175731563Y-132703668D01*
X175736295Y-132688191D01*
X175765020Y-132405392D01*
X175796700Y-132122962D01*
X175796921Y-132091333D01*
X175796981Y-132090741D01*
X175796929Y-132090189D01*
X175797000Y-132080000D01*
X175797000Y-81280000D01*
X175769262Y-80997110D01*
X175744492Y-80713982D01*
X175739978Y-80698445D01*
X175738399Y-80682341D01*
X175656245Y-80410233D01*
X175576951Y-80137302D01*
X175569505Y-80122938D01*
X175564828Y-80107446D01*
X175431364Y-79856437D01*
X175300589Y-79604146D01*
X175290497Y-79591504D01*
X175282899Y-79577214D01*
X175103226Y-79356913D01*
X174925934Y-79134824D01*
X174903725Y-79112303D01*
X174903349Y-79111841D01*
X174902922Y-79111488D01*
X174895768Y-79104233D01*
X172275768Y-76484232D01*
X172056077Y-76303776D01*
X171838403Y-76121126D01*
X171824227Y-76113333D01*
X171811722Y-76103061D01*
X171561198Y-75968731D01*
X171312159Y-75831821D01*
X171296738Y-75826929D01*
X171282476Y-75819282D01*
X171010608Y-75736163D01*
X170739744Y-75650240D01*
X170723669Y-75648437D01*
X170708192Y-75643705D01*
X170425387Y-75614979D01*
X170142962Y-75583300D01*
X170111333Y-75583079D01*
X170110741Y-75583019D01*
X170110189Y-75583071D01*
X170100000Y-75583000D01*
X165668117Y-75583000D01*
X165522765Y-75461035D01*
X165100872Y-75229097D01*
X165115640Y-75206996D01*
X165162905Y-75092889D01*
X165187000Y-74971754D01*
X165187000Y-74441750D01*
X165030250Y-74285000D01*
X163560000Y-74285000D01*
X163560000Y-74802837D01*
X163386519Y-74783378D01*
X163332388Y-74783000D01*
X161787612Y-74783000D01*
X161560000Y-74805318D01*
X161560000Y-74285000D01*
X160089750Y-74285000D01*
X159933000Y-74441750D01*
X159933000Y-74971754D01*
X159957095Y-75092889D01*
X160004360Y-75206996D01*
X160019721Y-75229986D01*
X159642113Y-75430764D01*
X159455453Y-75583000D01*
X142808117Y-75583000D01*
X142662765Y-75461035D01*
X142240872Y-75229097D01*
X142255640Y-75206996D01*
X142302905Y-75092889D01*
X142327000Y-74971754D01*
X142327000Y-74441750D01*
X142170250Y-74285000D01*
X140700000Y-74285000D01*
X140700000Y-74802837D01*
X140526519Y-74783378D01*
X140472388Y-74783000D01*
X138927612Y-74783000D01*
X138700000Y-74805318D01*
X138700000Y-74285000D01*
X137229750Y-74285000D01*
X137073000Y-74441750D01*
X137073000Y-74971754D01*
X137097095Y-75092889D01*
X137144360Y-75206996D01*
X137159721Y-75229986D01*
X136782113Y-75430764D01*
X136595453Y-75583000D01*
X119948117Y-75583000D01*
X119802765Y-75461035D01*
X119380872Y-75229097D01*
X119395640Y-75206996D01*
X119442905Y-75092889D01*
X119467000Y-74971754D01*
X119467000Y-74441750D01*
X119310250Y-74285000D01*
X117840000Y-74285000D01*
X117840000Y-74802837D01*
X117666519Y-74783378D01*
X117612388Y-74783000D01*
X116067612Y-74783000D01*
X115840000Y-74805318D01*
X115840000Y-74285000D01*
X114369750Y-74285000D01*
X114213000Y-74441750D01*
X114213000Y-74971754D01*
X114237095Y-75092889D01*
X114284360Y-75206996D01*
X114299721Y-75229986D01*
X113922113Y-75430764D01*
X113735453Y-75583000D01*
X97088117Y-75583000D01*
X96942765Y-75461035D01*
X96520872Y-75229097D01*
X96535640Y-75206996D01*
X96582905Y-75092889D01*
X96607000Y-74971754D01*
X96607000Y-74441750D01*
X96450250Y-74285000D01*
X94980000Y-74285000D01*
X94980000Y-74802837D01*
X94806519Y-74783378D01*
X94752388Y-74783000D01*
X93207612Y-74783000D01*
X92980000Y-74805318D01*
X92980000Y-74285000D01*
X91509750Y-74285000D01*
X91353000Y-74441750D01*
X91353000Y-74971754D01*
X91377095Y-75092889D01*
X91424360Y-75206996D01*
X91439721Y-75229986D01*
X91062113Y-75430764D01*
X90875453Y-75583000D01*
X86440000Y-75583000D01*
X86157110Y-75610738D01*
X85873982Y-75635508D01*
X85858445Y-75640022D01*
X85842341Y-75641601D01*
X85570233Y-75723755D01*
X85297302Y-75803049D01*
X85282938Y-75810495D01*
X85267446Y-75815172D01*
X85016437Y-75948636D01*
X84764146Y-76079411D01*
X84751504Y-76089503D01*
X84737214Y-76097101D01*
X84516913Y-76276774D01*
X84294824Y-76454066D01*
X84272303Y-76476275D01*
X84271841Y-76476651D01*
X84271488Y-76477078D01*
X84264233Y-76484232D01*
X81644232Y-79104232D01*
X81463776Y-79323923D01*
X81281126Y-79541597D01*
X81273333Y-79555773D01*
X81263061Y-79568278D01*
X81128731Y-79818802D01*
X80991821Y-80067841D01*
X80986929Y-80083262D01*
X80979282Y-80097524D01*
X80896163Y-80369392D01*
X80810240Y-80640256D01*
X80808437Y-80656331D01*
X80803705Y-80671808D01*
X80774979Y-80954613D01*
X80743300Y-81237038D01*
X80743079Y-81268667D01*
X80743019Y-81269259D01*
X80743071Y-81269811D01*
X80743000Y-81280000D01*
X73847000Y-81280000D01*
X73847000Y-72348246D01*
X91353000Y-72348246D01*
X91353000Y-72878250D01*
X91509750Y-73035000D01*
X92980000Y-73035000D01*
X92980000Y-71939750D01*
X94980000Y-71939750D01*
X94980000Y-73035000D01*
X96450250Y-73035000D01*
X96607000Y-72878250D01*
X96607000Y-72348246D01*
X114213000Y-72348246D01*
X114213000Y-72878250D01*
X114369750Y-73035000D01*
X115840000Y-73035000D01*
X115840000Y-71939750D01*
X117840000Y-71939750D01*
X117840000Y-73035000D01*
X119310250Y-73035000D01*
X119467000Y-72878250D01*
X119467000Y-72348246D01*
X137073000Y-72348246D01*
X137073000Y-72878250D01*
X137229750Y-73035000D01*
X138700000Y-73035000D01*
X138700000Y-71939750D01*
X140700000Y-71939750D01*
X140700000Y-73035000D01*
X142170250Y-73035000D01*
X142327000Y-72878250D01*
X142327000Y-72348246D01*
X159933000Y-72348246D01*
X159933000Y-72878250D01*
X160089750Y-73035000D01*
X161560000Y-73035000D01*
X161560000Y-71939750D01*
X163560000Y-71939750D01*
X163560000Y-73035000D01*
X165030250Y-73035000D01*
X165187000Y-72878250D01*
X165187000Y-72348246D01*
X165162905Y-72227111D01*
X165115640Y-72113004D01*
X165047023Y-72010311D01*
X164959689Y-71922977D01*
X164856996Y-71854360D01*
X164742889Y-71807095D01*
X164621754Y-71783000D01*
X163716750Y-71783000D01*
X163560000Y-71939750D01*
X161560000Y-71939750D01*
X161403250Y-71783000D01*
X160498246Y-71783000D01*
X160377111Y-71807095D01*
X160263004Y-71854360D01*
X160160311Y-71922977D01*
X160072977Y-72010311D01*
X160004360Y-72113004D01*
X159957095Y-72227111D01*
X159933000Y-72348246D01*
X142327000Y-72348246D01*
X142302905Y-72227111D01*
X142255640Y-72113004D01*
X142187023Y-72010311D01*
X142099689Y-71922977D01*
X141996996Y-71854360D01*
X141882889Y-71807095D01*
X141761754Y-71783000D01*
X140856750Y-71783000D01*
X140700000Y-71939750D01*
X138700000Y-71939750D01*
X138543250Y-71783000D01*
X137638246Y-71783000D01*
X137517111Y-71807095D01*
X137403004Y-71854360D01*
X137300311Y-71922977D01*
X137212977Y-72010311D01*
X137144360Y-72113004D01*
X137097095Y-72227111D01*
X137073000Y-72348246D01*
X119467000Y-72348246D01*
X119442905Y-72227111D01*
X119395640Y-72113004D01*
X119327023Y-72010311D01*
X119239689Y-71922977D01*
X119136996Y-71854360D01*
X119022889Y-71807095D01*
X118901754Y-71783000D01*
X117996750Y-71783000D01*
X117840000Y-71939750D01*
X115840000Y-71939750D01*
X115683250Y-71783000D01*
X114778246Y-71783000D01*
X114657111Y-71807095D01*
X114543004Y-71854360D01*
X114440311Y-71922977D01*
X114352977Y-72010311D01*
X114284360Y-72113004D01*
X114237095Y-72227111D01*
X114213000Y-72348246D01*
X96607000Y-72348246D01*
X96582905Y-72227111D01*
X96535640Y-72113004D01*
X96467023Y-72010311D01*
X96379689Y-71922977D01*
X96276996Y-71854360D01*
X96162889Y-71807095D01*
X96041754Y-71783000D01*
X95136750Y-71783000D01*
X94980000Y-71939750D01*
X92980000Y-71939750D01*
X92823250Y-71783000D01*
X91918246Y-71783000D01*
X91797111Y-71807095D01*
X91683004Y-71854360D01*
X91580311Y-71922977D01*
X91492977Y-72010311D01*
X91424360Y-72113004D01*
X91377095Y-72227111D01*
X91353000Y-72348246D01*
X73847000Y-72348246D01*
X73847000Y-63847009D01*
X77147575Y-63847009D01*
X77293678Y-64643060D01*
X77591618Y-65395571D01*
X78030048Y-66075881D01*
X78592267Y-66658076D01*
X79256861Y-67119981D01*
X79998516Y-67444002D01*
X80788982Y-67617797D01*
X81598151Y-67634747D01*
X82395202Y-67494205D01*
X83149775Y-67201526D01*
X83833129Y-66767856D01*
X84419235Y-66209715D01*
X84885769Y-65548362D01*
X85214959Y-64808987D01*
X85306345Y-64406750D01*
X95663000Y-64406750D01*
X95663000Y-65061754D01*
X95687095Y-65182889D01*
X95734360Y-65296996D01*
X95802977Y-65399689D01*
X95890311Y-65487023D01*
X95993004Y-65555640D01*
X96107111Y-65602905D01*
X96228246Y-65627000D01*
X96883250Y-65627000D01*
X97040000Y-65470250D01*
X97040000Y-64250000D01*
X98540000Y-64250000D01*
X98540000Y-65470250D01*
X98696750Y-65627000D01*
X99351754Y-65627000D01*
X99472889Y-65602905D01*
X99586996Y-65555640D01*
X99689689Y-65487023D01*
X99777023Y-65399689D01*
X99845640Y-65296996D01*
X99892905Y-65182889D01*
X99917000Y-65061754D01*
X99917000Y-64406750D01*
X103283000Y-64406750D01*
X103283000Y-65061754D01*
X103307095Y-65182889D01*
X103354360Y-65296996D01*
X103422977Y-65399689D01*
X103510311Y-65487023D01*
X103613004Y-65555640D01*
X103727111Y-65602905D01*
X103848246Y-65627000D01*
X104503250Y-65627000D01*
X104660000Y-65470250D01*
X104660000Y-64250000D01*
X106160000Y-64250000D01*
X106160000Y-65470250D01*
X106316750Y-65627000D01*
X106971754Y-65627000D01*
X107092889Y-65602905D01*
X107206996Y-65555640D01*
X107309689Y-65487023D01*
X107397023Y-65399689D01*
X107465640Y-65296996D01*
X107512905Y-65182889D01*
X107537000Y-65061754D01*
X107537000Y-64406750D01*
X110903000Y-64406750D01*
X110903000Y-65061754D01*
X110927095Y-65182889D01*
X110974360Y-65296996D01*
X111042977Y-65399689D01*
X111130311Y-65487023D01*
X111233004Y-65555640D01*
X111347111Y-65602905D01*
X111468246Y-65627000D01*
X112123250Y-65627000D01*
X112280000Y-65470250D01*
X112280000Y-64250000D01*
X113780000Y-64250000D01*
X113780000Y-65470250D01*
X113936750Y-65627000D01*
X114591754Y-65627000D01*
X114712889Y-65602905D01*
X114826996Y-65555640D01*
X114929689Y-65487023D01*
X115017023Y-65399689D01*
X115085640Y-65296996D01*
X115132905Y-65182889D01*
X115157000Y-65061754D01*
X115157000Y-64406750D01*
X118523000Y-64406750D01*
X118523000Y-65061754D01*
X118547095Y-65182889D01*
X118594360Y-65296996D01*
X118662977Y-65399689D01*
X118750311Y-65487023D01*
X118853004Y-65555640D01*
X118967111Y-65602905D01*
X119088246Y-65627000D01*
X119743250Y-65627000D01*
X119900000Y-65470250D01*
X119900000Y-64250000D01*
X121400000Y-64250000D01*
X121400000Y-65470250D01*
X121556750Y-65627000D01*
X122211754Y-65627000D01*
X122332889Y-65602905D01*
X122446996Y-65555640D01*
X122549689Y-65487023D01*
X122637023Y-65399689D01*
X122705640Y-65296996D01*
X122752905Y-65182889D01*
X122777000Y-65061754D01*
X122777000Y-64406750D01*
X126143000Y-64406750D01*
X126143000Y-65061754D01*
X126167095Y-65182889D01*
X126214360Y-65296996D01*
X126282977Y-65399689D01*
X126370311Y-65487023D01*
X126473004Y-65555640D01*
X126587111Y-65602905D01*
X126708246Y-65627000D01*
X127363250Y-65627000D01*
X127520000Y-65470250D01*
X127520000Y-64250000D01*
X129020000Y-64250000D01*
X129020000Y-65470250D01*
X129176750Y-65627000D01*
X129831754Y-65627000D01*
X129952889Y-65602905D01*
X130066996Y-65555640D01*
X130169689Y-65487023D01*
X130257023Y-65399689D01*
X130325640Y-65296996D01*
X130372905Y-65182889D01*
X130397000Y-65061754D01*
X130397000Y-64406750D01*
X133763000Y-64406750D01*
X133763000Y-65061754D01*
X133787095Y-65182889D01*
X133834360Y-65296996D01*
X133902977Y-65399689D01*
X133990311Y-65487023D01*
X134093004Y-65555640D01*
X134207111Y-65602905D01*
X134328246Y-65627000D01*
X134983250Y-65627000D01*
X135140000Y-65470250D01*
X135140000Y-64250000D01*
X136640000Y-64250000D01*
X136640000Y-65470250D01*
X136796750Y-65627000D01*
X137451754Y-65627000D01*
X137572889Y-65602905D01*
X137686996Y-65555640D01*
X137789689Y-65487023D01*
X137877023Y-65399689D01*
X137945640Y-65296996D01*
X137992905Y-65182889D01*
X138017000Y-65061754D01*
X138017000Y-64406750D01*
X141383000Y-64406750D01*
X141383000Y-65061754D01*
X141407095Y-65182889D01*
X141454360Y-65296996D01*
X141522977Y-65399689D01*
X141610311Y-65487023D01*
X141713004Y-65555640D01*
X141827111Y-65602905D01*
X141948246Y-65627000D01*
X142603250Y-65627000D01*
X142760000Y-65470250D01*
X142760000Y-64250000D01*
X144260000Y-64250000D01*
X144260000Y-65470250D01*
X144416750Y-65627000D01*
X145071754Y-65627000D01*
X145192889Y-65602905D01*
X145306996Y-65555640D01*
X145409689Y-65487023D01*
X145497023Y-65399689D01*
X145565640Y-65296996D01*
X145612905Y-65182889D01*
X145637000Y-65061754D01*
X145637000Y-64406750D01*
X149003000Y-64406750D01*
X149003000Y-65061754D01*
X149027095Y-65182889D01*
X149074360Y-65296996D01*
X149142977Y-65399689D01*
X149230311Y-65487023D01*
X149333004Y-65555640D01*
X149447111Y-65602905D01*
X149568246Y-65627000D01*
X150223250Y-65627000D01*
X150380000Y-65470250D01*
X150380000Y-64250000D01*
X151880000Y-64250000D01*
X151880000Y-65470250D01*
X152036750Y-65627000D01*
X152691754Y-65627000D01*
X152812889Y-65602905D01*
X152926996Y-65555640D01*
X153029689Y-65487023D01*
X153117023Y-65399689D01*
X153185640Y-65296996D01*
X153232905Y-65182889D01*
X153257000Y-65061754D01*
X153257000Y-64406750D01*
X156623000Y-64406750D01*
X156623000Y-65061754D01*
X156647095Y-65182889D01*
X156694360Y-65296996D01*
X156762977Y-65399689D01*
X156850311Y-65487023D01*
X156953004Y-65555640D01*
X157067111Y-65602905D01*
X157188246Y-65627000D01*
X157843250Y-65627000D01*
X158000000Y-65470250D01*
X158000000Y-64250000D01*
X159500000Y-64250000D01*
X159500000Y-65470250D01*
X159656750Y-65627000D01*
X160311754Y-65627000D01*
X160432889Y-65602905D01*
X160546996Y-65555640D01*
X160649689Y-65487023D01*
X160737023Y-65399689D01*
X160805640Y-65296996D01*
X160852905Y-65182889D01*
X160877000Y-65061754D01*
X160877000Y-64406750D01*
X160720250Y-64250000D01*
X159500000Y-64250000D01*
X158000000Y-64250000D01*
X156779750Y-64250000D01*
X156623000Y-64406750D01*
X153257000Y-64406750D01*
X153100250Y-64250000D01*
X151880000Y-64250000D01*
X150380000Y-64250000D01*
X149159750Y-64250000D01*
X149003000Y-64406750D01*
X145637000Y-64406750D01*
X145480250Y-64250000D01*
X144260000Y-64250000D01*
X142760000Y-64250000D01*
X141539750Y-64250000D01*
X141383000Y-64406750D01*
X138017000Y-64406750D01*
X137860250Y-64250000D01*
X136640000Y-64250000D01*
X135140000Y-64250000D01*
X133919750Y-64250000D01*
X133763000Y-64406750D01*
X130397000Y-64406750D01*
X130240250Y-64250000D01*
X129020000Y-64250000D01*
X127520000Y-64250000D01*
X126299750Y-64250000D01*
X126143000Y-64406750D01*
X122777000Y-64406750D01*
X122620250Y-64250000D01*
X121400000Y-64250000D01*
X119900000Y-64250000D01*
X118679750Y-64250000D01*
X118523000Y-64406750D01*
X115157000Y-64406750D01*
X115000250Y-64250000D01*
X113780000Y-64250000D01*
X112280000Y-64250000D01*
X111059750Y-64250000D01*
X110903000Y-64406750D01*
X107537000Y-64406750D01*
X107380250Y-64250000D01*
X106160000Y-64250000D01*
X104660000Y-64250000D01*
X103439750Y-64250000D01*
X103283000Y-64406750D01*
X99917000Y-64406750D01*
X99760250Y-64250000D01*
X98540000Y-64250000D01*
X97040000Y-64250000D01*
X95819750Y-64250000D01*
X95663000Y-64406750D01*
X85306345Y-64406750D01*
X85394269Y-64019753D01*
X85396681Y-63847009D01*
X171127575Y-63847009D01*
X171273678Y-64643060D01*
X171571618Y-65395571D01*
X172010048Y-66075881D01*
X172572267Y-66658076D01*
X173236861Y-67119981D01*
X173978516Y-67444002D01*
X174768982Y-67617797D01*
X175578151Y-67634747D01*
X176375202Y-67494205D01*
X177129775Y-67201526D01*
X177813129Y-66767856D01*
X178399235Y-66209715D01*
X178865769Y-65548362D01*
X179194959Y-64808987D01*
X179374269Y-64019753D01*
X179387177Y-63095327D01*
X179229974Y-62301394D01*
X178921556Y-61553116D01*
X178473671Y-60878994D01*
X177903378Y-60304705D01*
X177232399Y-59852125D01*
X176486292Y-59538490D01*
X175693476Y-59375749D01*
X174884149Y-59370098D01*
X174089139Y-59521755D01*
X173338726Y-59824941D01*
X172661493Y-60268110D01*
X172083237Y-60834380D01*
X171625983Y-61502182D01*
X171307148Y-62246081D01*
X171138875Y-63037742D01*
X171127575Y-63847009D01*
X85396681Y-63847009D01*
X85407177Y-63095327D01*
X85249974Y-62301394D01*
X85100296Y-61938246D01*
X95663000Y-61938246D01*
X95663000Y-62593250D01*
X95819750Y-62750000D01*
X97040000Y-62750000D01*
X97040000Y-61529750D01*
X98540000Y-61529750D01*
X98540000Y-62750000D01*
X99760250Y-62750000D01*
X99917000Y-62593250D01*
X99917000Y-61938246D01*
X103283000Y-61938246D01*
X103283000Y-62593250D01*
X103439750Y-62750000D01*
X104660000Y-62750000D01*
X104660000Y-61529750D01*
X106160000Y-61529750D01*
X106160000Y-62750000D01*
X107380250Y-62750000D01*
X107537000Y-62593250D01*
X107537000Y-61938246D01*
X110903000Y-61938246D01*
X110903000Y-62593250D01*
X111059750Y-62750000D01*
X112280000Y-62750000D01*
X112280000Y-61529750D01*
X113780000Y-61529750D01*
X113780000Y-62750000D01*
X115000250Y-62750000D01*
X115157000Y-62593250D01*
X115157000Y-61938246D01*
X118523000Y-61938246D01*
X118523000Y-62593250D01*
X118679750Y-62750000D01*
X119900000Y-62750000D01*
X119900000Y-61529750D01*
X121400000Y-61529750D01*
X121400000Y-62750000D01*
X122620250Y-62750000D01*
X122777000Y-62593250D01*
X122777000Y-61938246D01*
X126143000Y-61938246D01*
X126143000Y-62593250D01*
X126299750Y-62750000D01*
X127520000Y-62750000D01*
X127520000Y-61529750D01*
X129020000Y-61529750D01*
X129020000Y-62750000D01*
X130240250Y-62750000D01*
X130397000Y-62593250D01*
X130397000Y-61938246D01*
X133763000Y-61938246D01*
X133763000Y-62593250D01*
X133919750Y-62750000D01*
X135140000Y-62750000D01*
X135140000Y-61529750D01*
X136640000Y-61529750D01*
X136640000Y-62750000D01*
X137860250Y-62750000D01*
X138017000Y-62593250D01*
X138017000Y-61938246D01*
X141383000Y-61938246D01*
X141383000Y-62593250D01*
X141539750Y-62750000D01*
X142760000Y-62750000D01*
X142760000Y-61529750D01*
X144260000Y-61529750D01*
X144260000Y-62750000D01*
X145480250Y-62750000D01*
X145637000Y-62593250D01*
X145637000Y-61938246D01*
X149003000Y-61938246D01*
X149003000Y-62593250D01*
X149159750Y-62750000D01*
X150380000Y-62750000D01*
X150380000Y-61529750D01*
X151880000Y-61529750D01*
X151880000Y-62750000D01*
X153100250Y-62750000D01*
X153257000Y-62593250D01*
X153257000Y-61938246D01*
X156623000Y-61938246D01*
X156623000Y-62593250D01*
X156779750Y-62750000D01*
X158000000Y-62750000D01*
X158000000Y-61529750D01*
X159500000Y-61529750D01*
X159500000Y-62750000D01*
X160720250Y-62750000D01*
X160877000Y-62593250D01*
X160877000Y-61938246D01*
X160852905Y-61817111D01*
X160805640Y-61703004D01*
X160737023Y-61600311D01*
X160649689Y-61512977D01*
X160546996Y-61444360D01*
X160432889Y-61397095D01*
X160311754Y-61373000D01*
X159656750Y-61373000D01*
X159500000Y-61529750D01*
X158000000Y-61529750D01*
X157843250Y-61373000D01*
X157188246Y-61373000D01*
X157067111Y-61397095D01*
X156953004Y-61444360D01*
X156850311Y-61512977D01*
X156762977Y-61600311D01*
X156694360Y-61703004D01*
X156647095Y-61817111D01*
X156623000Y-61938246D01*
X153257000Y-61938246D01*
X153232905Y-61817111D01*
X153185640Y-61703004D01*
X153117023Y-61600311D01*
X153029689Y-61512977D01*
X152926996Y-61444360D01*
X152812889Y-61397095D01*
X152691754Y-61373000D01*
X152036750Y-61373000D01*
X151880000Y-61529750D01*
X150380000Y-61529750D01*
X150223250Y-61373000D01*
X149568246Y-61373000D01*
X149447111Y-61397095D01*
X149333004Y-61444360D01*
X149230311Y-61512977D01*
X149142977Y-61600311D01*
X149074360Y-61703004D01*
X149027095Y-61817111D01*
X149003000Y-61938246D01*
X145637000Y-61938246D01*
X145612905Y-61817111D01*
X145565640Y-61703004D01*
X145497023Y-61600311D01*
X145409689Y-61512977D01*
X145306996Y-61444360D01*
X145192889Y-61397095D01*
X145071754Y-61373000D01*
X144416750Y-61373000D01*
X144260000Y-61529750D01*
X142760000Y-61529750D01*
X142603250Y-61373000D01*
X141948246Y-61373000D01*
X141827111Y-61397095D01*
X141713004Y-61444360D01*
X141610311Y-61512977D01*
X141522977Y-61600311D01*
X141454360Y-61703004D01*
X141407095Y-61817111D01*
X141383000Y-61938246D01*
X138017000Y-61938246D01*
X137992905Y-61817111D01*
X137945640Y-61703004D01*
X137877023Y-61600311D01*
X137789689Y-61512977D01*
X137686996Y-61444360D01*
X137572889Y-61397095D01*
X137451754Y-61373000D01*
X136796750Y-61373000D01*
X136640000Y-61529750D01*
X135140000Y-61529750D01*
X134983250Y-61373000D01*
X134328246Y-61373000D01*
X134207111Y-61397095D01*
X134093004Y-61444360D01*
X133990311Y-61512977D01*
X133902977Y-61600311D01*
X133834360Y-61703004D01*
X133787095Y-61817111D01*
X133763000Y-61938246D01*
X130397000Y-61938246D01*
X130372905Y-61817111D01*
X130325640Y-61703004D01*
X130257023Y-61600311D01*
X130169689Y-61512977D01*
X130066996Y-61444360D01*
X129952889Y-61397095D01*
X129831754Y-61373000D01*
X129176750Y-61373000D01*
X129020000Y-61529750D01*
X127520000Y-61529750D01*
X127363250Y-61373000D01*
X126708246Y-61373000D01*
X126587111Y-61397095D01*
X126473004Y-61444360D01*
X126370311Y-61512977D01*
X126282977Y-61600311D01*
X126214360Y-61703004D01*
X126167095Y-61817111D01*
X126143000Y-61938246D01*
X122777000Y-61938246D01*
X122752905Y-61817111D01*
X122705640Y-61703004D01*
X122637023Y-61600311D01*
X122549689Y-61512977D01*
X122446996Y-61444360D01*
X122332889Y-61397095D01*
X122211754Y-61373000D01*
X121556750Y-61373000D01*
X121400000Y-61529750D01*
X119900000Y-61529750D01*
X119743250Y-61373000D01*
X119088246Y-61373000D01*
X118967111Y-61397095D01*
X118853004Y-61444360D01*
X118750311Y-61512977D01*
X118662977Y-61600311D01*
X118594360Y-61703004D01*
X118547095Y-61817111D01*
X118523000Y-61938246D01*
X115157000Y-61938246D01*
X115132905Y-61817111D01*
X115085640Y-61703004D01*
X115017023Y-61600311D01*
X114929689Y-61512977D01*
X114826996Y-61444360D01*
X114712889Y-61397095D01*
X114591754Y-61373000D01*
X113936750Y-61373000D01*
X113780000Y-61529750D01*
X112280000Y-61529750D01*
X112123250Y-61373000D01*
X111468246Y-61373000D01*
X111347111Y-61397095D01*
X111233004Y-61444360D01*
X111130311Y-61512977D01*
X111042977Y-61600311D01*
X110974360Y-61703004D01*
X110927095Y-61817111D01*
X110903000Y-61938246D01*
X107537000Y-61938246D01*
X107512905Y-61817111D01*
X107465640Y-61703004D01*
X107397023Y-61600311D01*
X107309689Y-61512977D01*
X107206996Y-61444360D01*
X107092889Y-61397095D01*
X106971754Y-61373000D01*
X106316750Y-61373000D01*
X106160000Y-61529750D01*
X104660000Y-61529750D01*
X104503250Y-61373000D01*
X103848246Y-61373000D01*
X103727111Y-61397095D01*
X103613004Y-61444360D01*
X103510311Y-61512977D01*
X103422977Y-61600311D01*
X103354360Y-61703004D01*
X103307095Y-61817111D01*
X103283000Y-61938246D01*
X99917000Y-61938246D01*
X99892905Y-61817111D01*
X99845640Y-61703004D01*
X99777023Y-61600311D01*
X99689689Y-61512977D01*
X99586996Y-61444360D01*
X99472889Y-61397095D01*
X99351754Y-61373000D01*
X98696750Y-61373000D01*
X98540000Y-61529750D01*
X97040000Y-61529750D01*
X96883250Y-61373000D01*
X96228246Y-61373000D01*
X96107111Y-61397095D01*
X95993004Y-61444360D01*
X95890311Y-61512977D01*
X95802977Y-61600311D01*
X95734360Y-61703004D01*
X95687095Y-61817111D01*
X95663000Y-61938246D01*
X85100296Y-61938246D01*
X84941556Y-61553116D01*
X84493671Y-60878994D01*
X83923378Y-60304705D01*
X83252399Y-59852125D01*
X82506292Y-59538490D01*
X81713476Y-59375749D01*
X80904149Y-59370098D01*
X80109139Y-59521755D01*
X79358726Y-59824941D01*
X78681493Y-60268110D01*
X78103237Y-60834380D01*
X77645983Y-61502182D01*
X77327148Y-62246081D01*
X77158875Y-63037742D01*
X77147575Y-63847009D01*
X73847000Y-63847009D01*
X73847000Y-58607000D01*
X182693000Y-58607000D01*
X182693000Y-154753000D01*
X182693000Y-154753000D01*
G37*
X182693000Y-154753000D02*
X73847000Y-154753000D01*
X73847000Y-150207009D01*
X77147575Y-150207009D01*
X77293678Y-151003060D01*
X77591618Y-151755571D01*
X78030048Y-152435881D01*
X78592267Y-153018076D01*
X79256861Y-153479981D01*
X79998516Y-153804002D01*
X80788982Y-153977797D01*
X81598151Y-153994747D01*
X82395202Y-153854205D01*
X83149775Y-153561526D01*
X83833129Y-153127856D01*
X84419235Y-152569715D01*
X84885769Y-151908362D01*
X85214959Y-151168987D01*
X85306345Y-150766750D01*
X95663000Y-150766750D01*
X95663000Y-151421754D01*
X95687095Y-151542889D01*
X95734360Y-151656996D01*
X95802977Y-151759689D01*
X95890311Y-151847023D01*
X95993004Y-151915640D01*
X96107111Y-151962905D01*
X96228246Y-151987000D01*
X96883250Y-151987000D01*
X97040000Y-151830250D01*
X97040000Y-150610000D01*
X98540000Y-150610000D01*
X98540000Y-151830250D01*
X98696750Y-151987000D01*
X99351754Y-151987000D01*
X99472889Y-151962905D01*
X99586996Y-151915640D01*
X99689689Y-151847023D01*
X99777023Y-151759689D01*
X99845640Y-151656996D01*
X99892905Y-151542889D01*
X99917000Y-151421754D01*
X99917000Y-150766750D01*
X103283000Y-150766750D01*
X103283000Y-151421754D01*
X103307095Y-151542889D01*
X103354360Y-151656996D01*
X103422977Y-151759689D01*
X103510311Y-151847023D01*
X103613004Y-151915640D01*
X103727111Y-151962905D01*
X103848246Y-151987000D01*
X104503250Y-151987000D01*
X104660000Y-151830250D01*
X104660000Y-150610000D01*
X106160000Y-150610000D01*
X106160000Y-151830250D01*
X106316750Y-151987000D01*
X106971754Y-151987000D01*
X107092889Y-151962905D01*
X107206996Y-151915640D01*
X107309689Y-151847023D01*
X107397023Y-151759689D01*
X107465640Y-151656996D01*
X107512905Y-151542889D01*
X107537000Y-151421754D01*
X107537000Y-150766750D01*
X110903000Y-150766750D01*
X110903000Y-151421754D01*
X110927095Y-151542889D01*
X110974360Y-151656996D01*
X111042977Y-151759689D01*
X111130311Y-151847023D01*
X111233004Y-151915640D01*
X111347111Y-151962905D01*
X111468246Y-151987000D01*
X112123250Y-151987000D01*
X112280000Y-151830250D01*
X112280000Y-150610000D01*
X113780000Y-150610000D01*
X113780000Y-151830250D01*
X113936750Y-151987000D01*
X114591754Y-151987000D01*
X114712889Y-151962905D01*
X114826996Y-151915640D01*
X114929689Y-151847023D01*
X115017023Y-151759689D01*
X115085640Y-151656996D01*
X115132905Y-151542889D01*
X115157000Y-151421754D01*
X115157000Y-150766750D01*
X118523000Y-150766750D01*
X118523000Y-151421754D01*
X118547095Y-151542889D01*
X118594360Y-151656996D01*
X118662977Y-151759689D01*
X118750311Y-151847023D01*
X118853004Y-151915640D01*
X118967111Y-151962905D01*
X119088246Y-151987000D01*
X119743250Y-151987000D01*
X119900000Y-151830250D01*
X119900000Y-150610000D01*
X121400000Y-150610000D01*
X121400000Y-151830250D01*
X121556750Y-151987000D01*
X122211754Y-151987000D01*
X122332889Y-151962905D01*
X122446996Y-151915640D01*
X122549689Y-151847023D01*
X122637023Y-151759689D01*
X122705640Y-151656996D01*
X122752905Y-151542889D01*
X122777000Y-151421754D01*
X122777000Y-150766750D01*
X126143000Y-150766750D01*
X126143000Y-151421754D01*
X126167095Y-151542889D01*
X126214360Y-151656996D01*
X126282977Y-151759689D01*
X126370311Y-151847023D01*
X126473004Y-151915640D01*
X126587111Y-151962905D01*
X126708246Y-151987000D01*
X127363250Y-151987000D01*
X127520000Y-151830250D01*
X127520000Y-150610000D01*
X129020000Y-150610000D01*
X129020000Y-151830250D01*
X129176750Y-151987000D01*
X129831754Y-151987000D01*
X129952889Y-151962905D01*
X130066996Y-151915640D01*
X130169689Y-151847023D01*
X130257023Y-151759689D01*
X130325640Y-151656996D01*
X130372905Y-151542889D01*
X130397000Y-151421754D01*
X130397000Y-150766750D01*
X133763000Y-150766750D01*
X133763000Y-151421754D01*
X133787095Y-151542889D01*
X133834360Y-151656996D01*
X133902977Y-151759689D01*
X133990311Y-151847023D01*
X134093004Y-151915640D01*
X134207111Y-151962905D01*
X134328246Y-151987000D01*
X134983250Y-151987000D01*
X135140000Y-151830250D01*
X135140000Y-150610000D01*
X136640000Y-150610000D01*
X136640000Y-151830250D01*
X136796750Y-151987000D01*
X137451754Y-151987000D01*
X137572889Y-151962905D01*
X137686996Y-151915640D01*
X137789689Y-151847023D01*
X137877023Y-151759689D01*
X137945640Y-151656996D01*
X137992905Y-151542889D01*
X138017000Y-151421754D01*
X138017000Y-150766750D01*
X141383000Y-150766750D01*
X141383000Y-151421754D01*
X141407095Y-151542889D01*
X141454360Y-151656996D01*
X141522977Y-151759689D01*
X141610311Y-151847023D01*
X141713004Y-151915640D01*
X141827111Y-151962905D01*
X141948246Y-151987000D01*
X142603250Y-151987000D01*
X142760000Y-151830250D01*
X142760000Y-150610000D01*
X144260000Y-150610000D01*
X144260000Y-151830250D01*
X144416750Y-151987000D01*
X145071754Y-151987000D01*
X145192889Y-151962905D01*
X145306996Y-151915640D01*
X145409689Y-151847023D01*
X145497023Y-151759689D01*
X145565640Y-151656996D01*
X145612905Y-151542889D01*
X145637000Y-151421754D01*
X145637000Y-150766750D01*
X149003000Y-150766750D01*
X149003000Y-151421754D01*
X149027095Y-151542889D01*
X149074360Y-151656996D01*
X149142977Y-151759689D01*
X149230311Y-151847023D01*
X149333004Y-151915640D01*
X149447111Y-151962905D01*
X149568246Y-151987000D01*
X150223250Y-151987000D01*
X150380000Y-151830250D01*
X150380000Y-150610000D01*
X151880000Y-150610000D01*
X151880000Y-151830250D01*
X152036750Y-151987000D01*
X152691754Y-151987000D01*
X152812889Y-151962905D01*
X152926996Y-151915640D01*
X153029689Y-151847023D01*
X153117023Y-151759689D01*
X153185640Y-151656996D01*
X153232905Y-151542889D01*
X153257000Y-151421754D01*
X153257000Y-150766750D01*
X156623000Y-150766750D01*
X156623000Y-151421754D01*
X156647095Y-151542889D01*
X156694360Y-151656996D01*
X156762977Y-151759689D01*
X156850311Y-151847023D01*
X156953004Y-151915640D01*
X157067111Y-151962905D01*
X157188246Y-151987000D01*
X157843250Y-151987000D01*
X158000000Y-151830250D01*
X158000000Y-150610000D01*
X159500000Y-150610000D01*
X159500000Y-151830250D01*
X159656750Y-151987000D01*
X160311754Y-151987000D01*
X160432889Y-151962905D01*
X160546996Y-151915640D01*
X160649689Y-151847023D01*
X160737023Y-151759689D01*
X160805640Y-151656996D01*
X160852905Y-151542889D01*
X160877000Y-151421754D01*
X160877000Y-150766750D01*
X160720250Y-150610000D01*
X159500000Y-150610000D01*
X158000000Y-150610000D01*
X156779750Y-150610000D01*
X156623000Y-150766750D01*
X153257000Y-150766750D01*
X153100250Y-150610000D01*
X151880000Y-150610000D01*
X150380000Y-150610000D01*
X149159750Y-150610000D01*
X149003000Y-150766750D01*
X145637000Y-150766750D01*
X145480250Y-150610000D01*
X144260000Y-150610000D01*
X142760000Y-150610000D01*
X141539750Y-150610000D01*
X141383000Y-150766750D01*
X138017000Y-150766750D01*
X137860250Y-150610000D01*
X136640000Y-150610000D01*
X135140000Y-150610000D01*
X133919750Y-150610000D01*
X133763000Y-150766750D01*
X130397000Y-150766750D01*
X130240250Y-150610000D01*
X129020000Y-150610000D01*
X127520000Y-150610000D01*
X126299750Y-150610000D01*
X126143000Y-150766750D01*
X122777000Y-150766750D01*
X122620250Y-150610000D01*
X121400000Y-150610000D01*
X119900000Y-150610000D01*
X118679750Y-150610000D01*
X118523000Y-150766750D01*
X115157000Y-150766750D01*
X115000250Y-150610000D01*
X113780000Y-150610000D01*
X112280000Y-150610000D01*
X111059750Y-150610000D01*
X110903000Y-150766750D01*
X107537000Y-150766750D01*
X107380250Y-150610000D01*
X106160000Y-150610000D01*
X104660000Y-150610000D01*
X103439750Y-150610000D01*
X103283000Y-150766750D01*
X99917000Y-150766750D01*
X99760250Y-150610000D01*
X98540000Y-150610000D01*
X97040000Y-150610000D01*
X95819750Y-150610000D01*
X95663000Y-150766750D01*
X85306345Y-150766750D01*
X85394269Y-150379753D01*
X85396681Y-150207009D01*
X171127575Y-150207009D01*
X171273678Y-151003060D01*
X171571618Y-151755571D01*
X172010048Y-152435881D01*
X172572267Y-153018076D01*
X173236861Y-153479981D01*
X173978516Y-153804002D01*
X174768982Y-153977797D01*
X175578151Y-153994747D01*
X176375202Y-153854205D01*
X177129775Y-153561526D01*
X177813129Y-153127856D01*
X178399235Y-152569715D01*
X178865769Y-151908362D01*
X179194959Y-151168987D01*
X179374269Y-150379753D01*
X179387177Y-149455327D01*
X179229974Y-148661394D01*
X178921556Y-147913116D01*
X178473671Y-147238994D01*
X177903378Y-146664705D01*
X177232399Y-146212125D01*
X176486292Y-145898490D01*
X175693476Y-145735749D01*
X174884149Y-145730098D01*
X174089139Y-145881755D01*
X173338726Y-146184941D01*
X172661493Y-146628110D01*
X172083237Y-147194380D01*
X171625983Y-147862182D01*
X171307148Y-148606081D01*
X171138875Y-149397742D01*
X171127575Y-150207009D01*
X85396681Y-150207009D01*
X85407177Y-149455327D01*
X85249974Y-148661394D01*
X85100296Y-148298246D01*
X95663000Y-148298246D01*
X95663000Y-148953250D01*
X95819750Y-149110000D01*
X97040000Y-149110000D01*
X97040000Y-147889750D01*
X98540000Y-147889750D01*
X98540000Y-149110000D01*
X99760250Y-149110000D01*
X99917000Y-148953250D01*
X99917000Y-148298246D01*
X103283000Y-148298246D01*
X103283000Y-148953250D01*
X103439750Y-149110000D01*
X104660000Y-149110000D01*
X104660000Y-147889750D01*
X106160000Y-147889750D01*
X106160000Y-149110000D01*
X107380250Y-149110000D01*
X107537000Y-148953250D01*
X107537000Y-148298246D01*
X110903000Y-148298246D01*
X110903000Y-148953250D01*
X111059750Y-149110000D01*
X112280000Y-149110000D01*
X112280000Y-147889750D01*
X113780000Y-147889750D01*
X113780000Y-149110000D01*
X115000250Y-149110000D01*
X115157000Y-148953250D01*
X115157000Y-148298246D01*
X118523000Y-148298246D01*
X118523000Y-148953250D01*
X118679750Y-149110000D01*
X119900000Y-149110000D01*
X119900000Y-147889750D01*
X121400000Y-147889750D01*
X121400000Y-149110000D01*
X122620250Y-149110000D01*
X122777000Y-148953250D01*
X122777000Y-148298246D01*
X126143000Y-148298246D01*
X126143000Y-148953250D01*
X126299750Y-149110000D01*
X127520000Y-149110000D01*
X127520000Y-147889750D01*
X129020000Y-147889750D01*
X129020000Y-149110000D01*
X130240250Y-149110000D01*
X130397000Y-148953250D01*
X130397000Y-148298246D01*
X133763000Y-148298246D01*
X133763000Y-148953250D01*
X133919750Y-149110000D01*
X135140000Y-149110000D01*
X135140000Y-147889750D01*
X136640000Y-147889750D01*
X136640000Y-149110000D01*
X137860250Y-149110000D01*
X138017000Y-148953250D01*
X138017000Y-148298246D01*
X141383000Y-148298246D01*
X141383000Y-148953250D01*
X141539750Y-149110000D01*
X142760000Y-149110000D01*
X142760000Y-147889750D01*
X144260000Y-147889750D01*
X144260000Y-149110000D01*
X145480250Y-149110000D01*
X145637000Y-148953250D01*
X145637000Y-148298246D01*
X149003000Y-148298246D01*
X149003000Y-148953250D01*
X149159750Y-149110000D01*
X150380000Y-149110000D01*
X150380000Y-147889750D01*
X151880000Y-147889750D01*
X151880000Y-149110000D01*
X153100250Y-149110000D01*
X153257000Y-148953250D01*
X153257000Y-148298246D01*
X156623000Y-148298246D01*
X156623000Y-148953250D01*
X156779750Y-149110000D01*
X158000000Y-149110000D01*
X158000000Y-147889750D01*
X159500000Y-147889750D01*
X159500000Y-149110000D01*
X160720250Y-149110000D01*
X160877000Y-148953250D01*
X160877000Y-148298246D01*
X160852905Y-148177111D01*
X160805640Y-148063004D01*
X160737023Y-147960311D01*
X160649689Y-147872977D01*
X160546996Y-147804360D01*
X160432889Y-147757095D01*
X160311754Y-147733000D01*
X159656750Y-147733000D01*
X159500000Y-147889750D01*
X158000000Y-147889750D01*
X157843250Y-147733000D01*
X157188246Y-147733000D01*
X157067111Y-147757095D01*
X156953004Y-147804360D01*
X156850311Y-147872977D01*
X156762977Y-147960311D01*
X156694360Y-148063004D01*
X156647095Y-148177111D01*
X156623000Y-148298246D01*
X153257000Y-148298246D01*
X153232905Y-148177111D01*
X153185640Y-148063004D01*
X153117023Y-147960311D01*
X153029689Y-147872977D01*
X152926996Y-147804360D01*
X152812889Y-147757095D01*
X152691754Y-147733000D01*
X152036750Y-147733000D01*
X151880000Y-147889750D01*
X150380000Y-147889750D01*
X150223250Y-147733000D01*
X149568246Y-147733000D01*
X149447111Y-147757095D01*
X149333004Y-147804360D01*
X149230311Y-147872977D01*
X149142977Y-147960311D01*
X149074360Y-148063004D01*
X149027095Y-148177111D01*
X149003000Y-148298246D01*
X145637000Y-148298246D01*
X145612905Y-148177111D01*
X145565640Y-148063004D01*
X145497023Y-147960311D01*
X145409689Y-147872977D01*
X145306996Y-147804360D01*
X145192889Y-147757095D01*
X145071754Y-147733000D01*
X144416750Y-147733000D01*
X144260000Y-147889750D01*
X142760000Y-147889750D01*
X142603250Y-147733000D01*
X141948246Y-147733000D01*
X141827111Y-147757095D01*
X141713004Y-147804360D01*
X141610311Y-147872977D01*
X141522977Y-147960311D01*
X141454360Y-148063004D01*
X141407095Y-148177111D01*
X141383000Y-148298246D01*
X138017000Y-148298246D01*
X137992905Y-148177111D01*
X137945640Y-148063004D01*
X137877023Y-147960311D01*
X137789689Y-147872977D01*
X137686996Y-147804360D01*
X137572889Y-147757095D01*
X137451754Y-147733000D01*
X136796750Y-147733000D01*
X136640000Y-147889750D01*
X135140000Y-147889750D01*
X134983250Y-147733000D01*
X134328246Y-147733000D01*
X134207111Y-147757095D01*
X134093004Y-147804360D01*
X133990311Y-147872977D01*
X133902977Y-147960311D01*
X133834360Y-148063004D01*
X133787095Y-148177111D01*
X133763000Y-148298246D01*
X130397000Y-148298246D01*
X130372905Y-148177111D01*
X130325640Y-148063004D01*
X130257023Y-147960311D01*
X130169689Y-147872977D01*
X130066996Y-147804360D01*
X129952889Y-147757095D01*
X129831754Y-147733000D01*
X129176750Y-147733000D01*
X129020000Y-147889750D01*
X127520000Y-147889750D01*
X127363250Y-147733000D01*
X126708246Y-147733000D01*
X126587111Y-147757095D01*
X126473004Y-147804360D01*
X126370311Y-147872977D01*
X126282977Y-147960311D01*
X126214360Y-148063004D01*
X126167095Y-148177111D01*
X126143000Y-148298246D01*
X122777000Y-148298246D01*
X122752905Y-148177111D01*
X122705640Y-148063004D01*
X122637023Y-147960311D01*
X122549689Y-147872977D01*
X122446996Y-147804360D01*
X122332889Y-147757095D01*
X122211754Y-147733000D01*
X121556750Y-147733000D01*
X121400000Y-147889750D01*
X119900000Y-147889750D01*
X119743250Y-147733000D01*
X119088246Y-147733000D01*
X118967111Y-147757095D01*
X118853004Y-147804360D01*
X118750311Y-147872977D01*
X118662977Y-147960311D01*
X118594360Y-148063004D01*
X118547095Y-148177111D01*
X118523000Y-148298246D01*
X115157000Y-148298246D01*
X115132905Y-148177111D01*
X115085640Y-148063004D01*
X115017023Y-147960311D01*
X114929689Y-147872977D01*
X114826996Y-147804360D01*
X114712889Y-147757095D01*
X114591754Y-147733000D01*
X113936750Y-147733000D01*
X113780000Y-147889750D01*
X112280000Y-147889750D01*
X112123250Y-147733000D01*
X111468246Y-147733000D01*
X111347111Y-147757095D01*
X111233004Y-147804360D01*
X111130311Y-147872977D01*
X111042977Y-147960311D01*
X110974360Y-148063004D01*
X110927095Y-148177111D01*
X110903000Y-148298246D01*
X107537000Y-148298246D01*
X107512905Y-148177111D01*
X107465640Y-148063004D01*
X107397023Y-147960311D01*
X107309689Y-147872977D01*
X107206996Y-147804360D01*
X107092889Y-147757095D01*
X106971754Y-147733000D01*
X106316750Y-147733000D01*
X106160000Y-147889750D01*
X104660000Y-147889750D01*
X104503250Y-147733000D01*
X103848246Y-147733000D01*
X103727111Y-147757095D01*
X103613004Y-147804360D01*
X103510311Y-147872977D01*
X103422977Y-147960311D01*
X103354360Y-148063004D01*
X103307095Y-148177111D01*
X103283000Y-148298246D01*
X99917000Y-148298246D01*
X99892905Y-148177111D01*
X99845640Y-148063004D01*
X99777023Y-147960311D01*
X99689689Y-147872977D01*
X99586996Y-147804360D01*
X99472889Y-147757095D01*
X99351754Y-147733000D01*
X98696750Y-147733000D01*
X98540000Y-147889750D01*
X97040000Y-147889750D01*
X96883250Y-147733000D01*
X96228246Y-147733000D01*
X96107111Y-147757095D01*
X95993004Y-147804360D01*
X95890311Y-147872977D01*
X95802977Y-147960311D01*
X95734360Y-148063004D01*
X95687095Y-148177111D01*
X95663000Y-148298246D01*
X85100296Y-148298246D01*
X84941556Y-147913116D01*
X84493671Y-147238994D01*
X83923378Y-146664705D01*
X83252399Y-146212125D01*
X82506292Y-145898490D01*
X81713476Y-145735749D01*
X80904149Y-145730098D01*
X80109139Y-145881755D01*
X79358726Y-146184941D01*
X78681493Y-146628110D01*
X78103237Y-147194380D01*
X77645983Y-147862182D01*
X77327148Y-148606081D01*
X77158875Y-149397742D01*
X77147575Y-150207009D01*
X73847000Y-150207009D01*
X73847000Y-140481750D01*
X91353000Y-140481750D01*
X91353000Y-141011754D01*
X91377095Y-141132889D01*
X91424360Y-141246996D01*
X91492977Y-141349689D01*
X91580311Y-141437023D01*
X91683004Y-141505640D01*
X91797111Y-141552905D01*
X91918246Y-141577000D01*
X92823250Y-141577000D01*
X92980000Y-141420250D01*
X92980000Y-140325000D01*
X94980000Y-140325000D01*
X94980000Y-141420250D01*
X95136750Y-141577000D01*
X96041754Y-141577000D01*
X96162889Y-141552905D01*
X96276996Y-141505640D01*
X96379689Y-141437023D01*
X96467023Y-141349689D01*
X96535640Y-141246996D01*
X96582905Y-141132889D01*
X96607000Y-141011754D01*
X96607000Y-140481750D01*
X114213000Y-140481750D01*
X114213000Y-141011754D01*
X114237095Y-141132889D01*
X114284360Y-141246996D01*
X114352977Y-141349689D01*
X114440311Y-141437023D01*
X114543004Y-141505640D01*
X114657111Y-141552905D01*
X114778246Y-141577000D01*
X115683250Y-141577000D01*
X115840000Y-141420250D01*
X115840000Y-140325000D01*
X117840000Y-140325000D01*
X117840000Y-141420250D01*
X117996750Y-141577000D01*
X118901754Y-141577000D01*
X119022889Y-141552905D01*
X119136996Y-141505640D01*
X119239689Y-141437023D01*
X119327023Y-141349689D01*
X119395640Y-141246996D01*
X119442905Y-141132889D01*
X119467000Y-141011754D01*
X119467000Y-140481750D01*
X137073000Y-140481750D01*
X137073000Y-141011754D01*
X137097095Y-141132889D01*
X137144360Y-141246996D01*
X137212977Y-141349689D01*
X137300311Y-141437023D01*
X137403004Y-141505640D01*
X137517111Y-141552905D01*
X137638246Y-141577000D01*
X138543250Y-141577000D01*
X138700000Y-141420250D01*
X138700000Y-140325000D01*
X140700000Y-140325000D01*
X140700000Y-141420250D01*
X140856750Y-141577000D01*
X141761754Y-141577000D01*
X141882889Y-141552905D01*
X141996996Y-141505640D01*
X142099689Y-141437023D01*
X142187023Y-141349689D01*
X142255640Y-141246996D01*
X142302905Y-141132889D01*
X142327000Y-141011754D01*
X142327000Y-140481750D01*
X159933000Y-140481750D01*
X159933000Y-141011754D01*
X159957095Y-141132889D01*
X160004360Y-141246996D01*
X160072977Y-141349689D01*
X160160311Y-141437023D01*
X160263004Y-141505640D01*
X160377111Y-141552905D01*
X160498246Y-141577000D01*
X161403250Y-141577000D01*
X161560000Y-141420250D01*
X161560000Y-140325000D01*
X163560000Y-140325000D01*
X163560000Y-141420250D01*
X163716750Y-141577000D01*
X164621754Y-141577000D01*
X164742889Y-141552905D01*
X164856996Y-141505640D01*
X164959689Y-141437023D01*
X165047023Y-141349689D01*
X165115640Y-141246996D01*
X165162905Y-141132889D01*
X165187000Y-141011754D01*
X165187000Y-140481750D01*
X165030250Y-140325000D01*
X163560000Y-140325000D01*
X161560000Y-140325000D01*
X160089750Y-140325000D01*
X159933000Y-140481750D01*
X142327000Y-140481750D01*
X142170250Y-140325000D01*
X140700000Y-140325000D01*
X138700000Y-140325000D01*
X137229750Y-140325000D01*
X137073000Y-140481750D01*
X119467000Y-140481750D01*
X119310250Y-140325000D01*
X117840000Y-140325000D01*
X115840000Y-140325000D01*
X114369750Y-140325000D01*
X114213000Y-140481750D01*
X96607000Y-140481750D01*
X96450250Y-140325000D01*
X94980000Y-140325000D01*
X92980000Y-140325000D01*
X91509750Y-140325000D01*
X91353000Y-140481750D01*
X73847000Y-140481750D01*
X73847000Y-81280000D01*
X80743000Y-81280000D01*
X80743000Y-132080000D01*
X80770737Y-132362886D01*
X80795508Y-132646018D01*
X80800022Y-132661555D01*
X80801601Y-132677659D01*
X80883765Y-132949799D01*
X80963050Y-133222699D01*
X80970494Y-133237060D01*
X80975172Y-133252554D01*
X81108645Y-133503580D01*
X81239411Y-133755854D01*
X81249503Y-133768496D01*
X81257101Y-133782786D01*
X81436755Y-134003062D01*
X81614066Y-134225177D01*
X81636279Y-134247703D01*
X81636651Y-134248159D01*
X81637073Y-134248508D01*
X81644232Y-134255768D01*
X84264233Y-136875768D01*
X84483876Y-137056185D01*
X84701597Y-137238874D01*
X84715776Y-137246669D01*
X84728279Y-137256939D01*
X84978781Y-137391257D01*
X85227841Y-137528179D01*
X85243262Y-137533071D01*
X85257524Y-137540718D01*
X85529379Y-137623833D01*
X85800256Y-137709760D01*
X85816332Y-137711563D01*
X85831809Y-137716295D01*
X86114608Y-137745020D01*
X86397038Y-137776700D01*
X86428667Y-137776921D01*
X86429259Y-137776981D01*
X86429811Y-137776929D01*
X86440000Y-137777000D01*
X90871883Y-137777000D01*
X91017235Y-137898965D01*
X91439128Y-138130903D01*
X91424360Y-138153004D01*
X91377095Y-138267111D01*
X91353000Y-138388246D01*
X91353000Y-138918250D01*
X91509750Y-139075000D01*
X92980000Y-139075000D01*
X92980000Y-138557163D01*
X93153481Y-138576622D01*
X93207612Y-138577000D01*
X94752388Y-138577000D01*
X94980000Y-138554682D01*
X94980000Y-139075000D01*
X96450250Y-139075000D01*
X96607000Y-138918250D01*
X96607000Y-138388246D01*
X96582905Y-138267111D01*
X96535640Y-138153004D01*
X96520279Y-138130014D01*
X96897887Y-137929236D01*
X97084547Y-137777000D01*
X113731883Y-137777000D01*
X113877235Y-137898965D01*
X114299128Y-138130903D01*
X114284360Y-138153004D01*
X114237095Y-138267111D01*
X114213000Y-138388246D01*
X114213000Y-138918250D01*
X114369750Y-139075000D01*
X115840000Y-139075000D01*
X115840000Y-138557163D01*
X116013481Y-138576622D01*
X116067612Y-138577000D01*
X117612388Y-138577000D01*
X117840000Y-138554682D01*
X117840000Y-139075000D01*
X119310250Y-139075000D01*
X119467000Y-138918250D01*
X119467000Y-138388246D01*
X119442905Y-138267111D01*
X119395640Y-138153004D01*
X119380279Y-138130014D01*
X119757887Y-137929236D01*
X119944547Y-137777000D01*
X136591883Y-137777000D01*
X136737235Y-137898965D01*
X137159128Y-138130903D01*
X137144360Y-138153004D01*
X137097095Y-138267111D01*
X137073000Y-138388246D01*
X137073000Y-138918250D01*
X137229750Y-139075000D01*
X138700000Y-139075000D01*
X138700000Y-138557163D01*
X138873481Y-138576622D01*
X138927612Y-138577000D01*
X140472388Y-138577000D01*
X140700000Y-138554682D01*
X140700000Y-139075000D01*
X142170250Y-139075000D01*
X142327000Y-138918250D01*
X142327000Y-138388246D01*
X142302905Y-138267111D01*
X142255640Y-138153004D01*
X142240279Y-138130014D01*
X142617887Y-137929236D01*
X142804547Y-137777000D01*
X159451883Y-137777000D01*
X159597235Y-137898965D01*
X160019128Y-138130903D01*
X160004360Y-138153004D01*
X159957095Y-138267111D01*
X159933000Y-138388246D01*
X159933000Y-138918250D01*
X160089750Y-139075000D01*
X161560000Y-139075000D01*
X161560000Y-138557163D01*
X161733481Y-138576622D01*
X161787612Y-138577000D01*
X163332388Y-138577000D01*
X163560000Y-138554682D01*
X163560000Y-139075000D01*
X165030250Y-139075000D01*
X165187000Y-138918250D01*
X165187000Y-138388246D01*
X165162905Y-138267111D01*
X165115640Y-138153004D01*
X165100279Y-138130014D01*
X165477887Y-137929236D01*
X165664547Y-137777000D01*
X170100000Y-137777000D01*
X170382886Y-137749263D01*
X170666018Y-137724492D01*
X170681555Y-137719978D01*
X170697659Y-137718399D01*
X170969799Y-137636235D01*
X171242699Y-137556950D01*
X171257060Y-137549506D01*
X171272554Y-137544828D01*
X171523580Y-137411355D01*
X171775854Y-137280589D01*
X171788496Y-137270497D01*
X171802786Y-137262899D01*
X172023062Y-137083245D01*
X172245177Y-136905934D01*
X172267703Y-136883721D01*
X172268159Y-136883349D01*
X172268508Y-136882927D01*
X172275768Y-136875768D01*
X174895768Y-134255767D01*
X175076185Y-134036124D01*
X175258874Y-133818403D01*
X175266669Y-133804224D01*
X175276939Y-133791721D01*
X175411257Y-133541219D01*
X175548179Y-133292159D01*
X175553071Y-133276738D01*
X175560718Y-133262476D01*
X175643833Y-132990621D01*
X175729760Y-132719744D01*
X175731563Y-132703668D01*
X175736295Y-132688191D01*
X175765020Y-132405392D01*
X175796700Y-132122962D01*
X175796921Y-132091333D01*
X175796981Y-132090741D01*
X175796929Y-132090189D01*
X175797000Y-132080000D01*
X175797000Y-81280000D01*
X175769262Y-80997110D01*
X175744492Y-80713982D01*
X175739978Y-80698445D01*
X175738399Y-80682341D01*
X175656245Y-80410233D01*
X175576951Y-80137302D01*
X175569505Y-80122938D01*
X175564828Y-80107446D01*
X175431364Y-79856437D01*
X175300589Y-79604146D01*
X175290497Y-79591504D01*
X175282899Y-79577214D01*
X175103226Y-79356913D01*
X174925934Y-79134824D01*
X174903725Y-79112303D01*
X174903349Y-79111841D01*
X174902922Y-79111488D01*
X174895768Y-79104233D01*
X172275768Y-76484232D01*
X172056077Y-76303776D01*
X171838403Y-76121126D01*
X171824227Y-76113333D01*
X171811722Y-76103061D01*
X171561198Y-75968731D01*
X171312159Y-75831821D01*
X171296738Y-75826929D01*
X171282476Y-75819282D01*
X171010608Y-75736163D01*
X170739744Y-75650240D01*
X170723669Y-75648437D01*
X170708192Y-75643705D01*
X170425387Y-75614979D01*
X170142962Y-75583300D01*
X170111333Y-75583079D01*
X170110741Y-75583019D01*
X170110189Y-75583071D01*
X170100000Y-75583000D01*
X165668117Y-75583000D01*
X165522765Y-75461035D01*
X165100872Y-75229097D01*
X165115640Y-75206996D01*
X165162905Y-75092889D01*
X165187000Y-74971754D01*
X165187000Y-74441750D01*
X165030250Y-74285000D01*
X163560000Y-74285000D01*
X163560000Y-74802837D01*
X163386519Y-74783378D01*
X163332388Y-74783000D01*
X161787612Y-74783000D01*
X161560000Y-74805318D01*
X161560000Y-74285000D01*
X160089750Y-74285000D01*
X159933000Y-74441750D01*
X159933000Y-74971754D01*
X159957095Y-75092889D01*
X160004360Y-75206996D01*
X160019721Y-75229986D01*
X159642113Y-75430764D01*
X159455453Y-75583000D01*
X142808117Y-75583000D01*
X142662765Y-75461035D01*
X142240872Y-75229097D01*
X142255640Y-75206996D01*
X142302905Y-75092889D01*
X142327000Y-74971754D01*
X142327000Y-74441750D01*
X142170250Y-74285000D01*
X140700000Y-74285000D01*
X140700000Y-74802837D01*
X140526519Y-74783378D01*
X140472388Y-74783000D01*
X138927612Y-74783000D01*
X138700000Y-74805318D01*
X138700000Y-74285000D01*
X137229750Y-74285000D01*
X137073000Y-74441750D01*
X137073000Y-74971754D01*
X137097095Y-75092889D01*
X137144360Y-75206996D01*
X137159721Y-75229986D01*
X136782113Y-75430764D01*
X136595453Y-75583000D01*
X119948117Y-75583000D01*
X119802765Y-75461035D01*
X119380872Y-75229097D01*
X119395640Y-75206996D01*
X119442905Y-75092889D01*
X119467000Y-74971754D01*
X119467000Y-74441750D01*
X119310250Y-74285000D01*
X117840000Y-74285000D01*
X117840000Y-74802837D01*
X117666519Y-74783378D01*
X117612388Y-74783000D01*
X116067612Y-74783000D01*
X115840000Y-74805318D01*
X115840000Y-74285000D01*
X114369750Y-74285000D01*
X114213000Y-74441750D01*
X114213000Y-74971754D01*
X114237095Y-75092889D01*
X114284360Y-75206996D01*
X114299721Y-75229986D01*
X113922113Y-75430764D01*
X113735453Y-75583000D01*
X97088117Y-75583000D01*
X96942765Y-75461035D01*
X96520872Y-75229097D01*
X96535640Y-75206996D01*
X96582905Y-75092889D01*
X96607000Y-74971754D01*
X96607000Y-74441750D01*
X96450250Y-74285000D01*
X94980000Y-74285000D01*
X94980000Y-74802837D01*
X94806519Y-74783378D01*
X94752388Y-74783000D01*
X93207612Y-74783000D01*
X92980000Y-74805318D01*
X92980000Y-74285000D01*
X91509750Y-74285000D01*
X91353000Y-74441750D01*
X91353000Y-74971754D01*
X91377095Y-75092889D01*
X91424360Y-75206996D01*
X91439721Y-75229986D01*
X91062113Y-75430764D01*
X90875453Y-75583000D01*
X86440000Y-75583000D01*
X86157110Y-75610738D01*
X85873982Y-75635508D01*
X85858445Y-75640022D01*
X85842341Y-75641601D01*
X85570233Y-75723755D01*
X85297302Y-75803049D01*
X85282938Y-75810495D01*
X85267446Y-75815172D01*
X85016437Y-75948636D01*
X84764146Y-76079411D01*
X84751504Y-76089503D01*
X84737214Y-76097101D01*
X84516913Y-76276774D01*
X84294824Y-76454066D01*
X84272303Y-76476275D01*
X84271841Y-76476651D01*
X84271488Y-76477078D01*
X84264233Y-76484232D01*
X81644232Y-79104232D01*
X81463776Y-79323923D01*
X81281126Y-79541597D01*
X81273333Y-79555773D01*
X81263061Y-79568278D01*
X81128731Y-79818802D01*
X80991821Y-80067841D01*
X80986929Y-80083262D01*
X80979282Y-80097524D01*
X80896163Y-80369392D01*
X80810240Y-80640256D01*
X80808437Y-80656331D01*
X80803705Y-80671808D01*
X80774979Y-80954613D01*
X80743300Y-81237038D01*
X80743079Y-81268667D01*
X80743019Y-81269259D01*
X80743071Y-81269811D01*
X80743000Y-81280000D01*
X73847000Y-81280000D01*
X73847000Y-72348246D01*
X91353000Y-72348246D01*
X91353000Y-72878250D01*
X91509750Y-73035000D01*
X92980000Y-73035000D01*
X92980000Y-71939750D01*
X94980000Y-71939750D01*
X94980000Y-73035000D01*
X96450250Y-73035000D01*
X96607000Y-72878250D01*
X96607000Y-72348246D01*
X114213000Y-72348246D01*
X114213000Y-72878250D01*
X114369750Y-73035000D01*
X115840000Y-73035000D01*
X115840000Y-71939750D01*
X117840000Y-71939750D01*
X117840000Y-73035000D01*
X119310250Y-73035000D01*
X119467000Y-72878250D01*
X119467000Y-72348246D01*
X137073000Y-72348246D01*
X137073000Y-72878250D01*
X137229750Y-73035000D01*
X138700000Y-73035000D01*
X138700000Y-71939750D01*
X140700000Y-71939750D01*
X140700000Y-73035000D01*
X142170250Y-73035000D01*
X142327000Y-72878250D01*
X142327000Y-72348246D01*
X159933000Y-72348246D01*
X159933000Y-72878250D01*
X160089750Y-73035000D01*
X161560000Y-73035000D01*
X161560000Y-71939750D01*
X163560000Y-71939750D01*
X163560000Y-73035000D01*
X165030250Y-73035000D01*
X165187000Y-72878250D01*
X165187000Y-72348246D01*
X165162905Y-72227111D01*
X165115640Y-72113004D01*
X165047023Y-72010311D01*
X164959689Y-71922977D01*
X164856996Y-71854360D01*
X164742889Y-71807095D01*
X164621754Y-71783000D01*
X163716750Y-71783000D01*
X163560000Y-71939750D01*
X161560000Y-71939750D01*
X161403250Y-71783000D01*
X160498246Y-71783000D01*
X160377111Y-71807095D01*
X160263004Y-71854360D01*
X160160311Y-71922977D01*
X160072977Y-72010311D01*
X160004360Y-72113004D01*
X159957095Y-72227111D01*
X159933000Y-72348246D01*
X142327000Y-72348246D01*
X142302905Y-72227111D01*
X142255640Y-72113004D01*
X142187023Y-72010311D01*
X142099689Y-71922977D01*
X141996996Y-71854360D01*
X141882889Y-71807095D01*
X141761754Y-71783000D01*
X140856750Y-71783000D01*
X140700000Y-71939750D01*
X138700000Y-71939750D01*
X138543250Y-71783000D01*
X137638246Y-71783000D01*
X137517111Y-71807095D01*
X137403004Y-71854360D01*
X137300311Y-71922977D01*
X137212977Y-72010311D01*
X137144360Y-72113004D01*
X137097095Y-72227111D01*
X137073000Y-72348246D01*
X119467000Y-72348246D01*
X119442905Y-72227111D01*
X119395640Y-72113004D01*
X119327023Y-72010311D01*
X119239689Y-71922977D01*
X119136996Y-71854360D01*
X119022889Y-71807095D01*
X118901754Y-71783000D01*
X117996750Y-71783000D01*
X117840000Y-71939750D01*
X115840000Y-71939750D01*
X115683250Y-71783000D01*
X114778246Y-71783000D01*
X114657111Y-71807095D01*
X114543004Y-71854360D01*
X114440311Y-71922977D01*
X114352977Y-72010311D01*
X114284360Y-72113004D01*
X114237095Y-72227111D01*
X114213000Y-72348246D01*
X96607000Y-72348246D01*
X96582905Y-72227111D01*
X96535640Y-72113004D01*
X96467023Y-72010311D01*
X96379689Y-71922977D01*
X96276996Y-71854360D01*
X96162889Y-71807095D01*
X96041754Y-71783000D01*
X95136750Y-71783000D01*
X94980000Y-71939750D01*
X92980000Y-71939750D01*
X92823250Y-71783000D01*
X91918246Y-71783000D01*
X91797111Y-71807095D01*
X91683004Y-71854360D01*
X91580311Y-71922977D01*
X91492977Y-72010311D01*
X91424360Y-72113004D01*
X91377095Y-72227111D01*
X91353000Y-72348246D01*
X73847000Y-72348246D01*
X73847000Y-63847009D01*
X77147575Y-63847009D01*
X77293678Y-64643060D01*
X77591618Y-65395571D01*
X78030048Y-66075881D01*
X78592267Y-66658076D01*
X79256861Y-67119981D01*
X79998516Y-67444002D01*
X80788982Y-67617797D01*
X81598151Y-67634747D01*
X82395202Y-67494205D01*
X83149775Y-67201526D01*
X83833129Y-66767856D01*
X84419235Y-66209715D01*
X84885769Y-65548362D01*
X85214959Y-64808987D01*
X85306345Y-64406750D01*
X95663000Y-64406750D01*
X95663000Y-65061754D01*
X95687095Y-65182889D01*
X95734360Y-65296996D01*
X95802977Y-65399689D01*
X95890311Y-65487023D01*
X95993004Y-65555640D01*
X96107111Y-65602905D01*
X96228246Y-65627000D01*
X96883250Y-65627000D01*
X97040000Y-65470250D01*
X97040000Y-64250000D01*
X98540000Y-64250000D01*
X98540000Y-65470250D01*
X98696750Y-65627000D01*
X99351754Y-65627000D01*
X99472889Y-65602905D01*
X99586996Y-65555640D01*
X99689689Y-65487023D01*
X99777023Y-65399689D01*
X99845640Y-65296996D01*
X99892905Y-65182889D01*
X99917000Y-65061754D01*
X99917000Y-64406750D01*
X103283000Y-64406750D01*
X103283000Y-65061754D01*
X103307095Y-65182889D01*
X103354360Y-65296996D01*
X103422977Y-65399689D01*
X103510311Y-65487023D01*
X103613004Y-65555640D01*
X103727111Y-65602905D01*
X103848246Y-65627000D01*
X104503250Y-65627000D01*
X104660000Y-65470250D01*
X104660000Y-64250000D01*
X106160000Y-64250000D01*
X106160000Y-65470250D01*
X106316750Y-65627000D01*
X106971754Y-65627000D01*
X107092889Y-65602905D01*
X107206996Y-65555640D01*
X107309689Y-65487023D01*
X107397023Y-65399689D01*
X107465640Y-65296996D01*
X107512905Y-65182889D01*
X107537000Y-65061754D01*
X107537000Y-64406750D01*
X110903000Y-64406750D01*
X110903000Y-65061754D01*
X110927095Y-65182889D01*
X110974360Y-65296996D01*
X111042977Y-65399689D01*
X111130311Y-65487023D01*
X111233004Y-65555640D01*
X111347111Y-65602905D01*
X111468246Y-65627000D01*
X112123250Y-65627000D01*
X112280000Y-65470250D01*
X112280000Y-64250000D01*
X113780000Y-64250000D01*
X113780000Y-65470250D01*
X113936750Y-65627000D01*
X114591754Y-65627000D01*
X114712889Y-65602905D01*
X114826996Y-65555640D01*
X114929689Y-65487023D01*
X115017023Y-65399689D01*
X115085640Y-65296996D01*
X115132905Y-65182889D01*
X115157000Y-65061754D01*
X115157000Y-64406750D01*
X118523000Y-64406750D01*
X118523000Y-65061754D01*
X118547095Y-65182889D01*
X118594360Y-65296996D01*
X118662977Y-65399689D01*
X118750311Y-65487023D01*
X118853004Y-65555640D01*
X118967111Y-65602905D01*
X119088246Y-65627000D01*
X119743250Y-65627000D01*
X119900000Y-65470250D01*
X119900000Y-64250000D01*
X121400000Y-64250000D01*
X121400000Y-65470250D01*
X121556750Y-65627000D01*
X122211754Y-65627000D01*
X122332889Y-65602905D01*
X122446996Y-65555640D01*
X122549689Y-65487023D01*
X122637023Y-65399689D01*
X122705640Y-65296996D01*
X122752905Y-65182889D01*
X122777000Y-65061754D01*
X122777000Y-64406750D01*
X126143000Y-64406750D01*
X126143000Y-65061754D01*
X126167095Y-65182889D01*
X126214360Y-65296996D01*
X126282977Y-65399689D01*
X126370311Y-65487023D01*
X126473004Y-65555640D01*
X126587111Y-65602905D01*
X126708246Y-65627000D01*
X127363250Y-65627000D01*
X127520000Y-65470250D01*
X127520000Y-64250000D01*
X129020000Y-64250000D01*
X129020000Y-65470250D01*
X129176750Y-65627000D01*
X129831754Y-65627000D01*
X129952889Y-65602905D01*
X130066996Y-65555640D01*
X130169689Y-65487023D01*
X130257023Y-65399689D01*
X130325640Y-65296996D01*
X130372905Y-65182889D01*
X130397000Y-65061754D01*
X130397000Y-64406750D01*
X133763000Y-64406750D01*
X133763000Y-65061754D01*
X133787095Y-65182889D01*
X133834360Y-65296996D01*
X133902977Y-65399689D01*
X133990311Y-65487023D01*
X134093004Y-65555640D01*
X134207111Y-65602905D01*
X134328246Y-65627000D01*
X134983250Y-65627000D01*
X135140000Y-65470250D01*
X135140000Y-64250000D01*
X136640000Y-64250000D01*
X136640000Y-65470250D01*
X136796750Y-65627000D01*
X137451754Y-65627000D01*
X137572889Y-65602905D01*
X137686996Y-65555640D01*
X137789689Y-65487023D01*
X137877023Y-65399689D01*
X137945640Y-65296996D01*
X137992905Y-65182889D01*
X138017000Y-65061754D01*
X138017000Y-64406750D01*
X141383000Y-64406750D01*
X141383000Y-65061754D01*
X141407095Y-65182889D01*
X141454360Y-65296996D01*
X141522977Y-65399689D01*
X141610311Y-65487023D01*
X141713004Y-65555640D01*
X141827111Y-65602905D01*
X141948246Y-65627000D01*
X142603250Y-65627000D01*
X142760000Y-65470250D01*
X142760000Y-64250000D01*
X144260000Y-64250000D01*
X144260000Y-65470250D01*
X144416750Y-65627000D01*
X145071754Y-65627000D01*
X145192889Y-65602905D01*
X145306996Y-65555640D01*
X145409689Y-65487023D01*
X145497023Y-65399689D01*
X145565640Y-65296996D01*
X145612905Y-65182889D01*
X145637000Y-65061754D01*
X145637000Y-64406750D01*
X149003000Y-64406750D01*
X149003000Y-65061754D01*
X149027095Y-65182889D01*
X149074360Y-65296996D01*
X149142977Y-65399689D01*
X149230311Y-65487023D01*
X149333004Y-65555640D01*
X149447111Y-65602905D01*
X149568246Y-65627000D01*
X150223250Y-65627000D01*
X150380000Y-65470250D01*
X150380000Y-64250000D01*
X151880000Y-64250000D01*
X151880000Y-65470250D01*
X152036750Y-65627000D01*
X152691754Y-65627000D01*
X152812889Y-65602905D01*
X152926996Y-65555640D01*
X153029689Y-65487023D01*
X153117023Y-65399689D01*
X153185640Y-65296996D01*
X153232905Y-65182889D01*
X153257000Y-65061754D01*
X153257000Y-64406750D01*
X156623000Y-64406750D01*
X156623000Y-65061754D01*
X156647095Y-65182889D01*
X156694360Y-65296996D01*
X156762977Y-65399689D01*
X156850311Y-65487023D01*
X156953004Y-65555640D01*
X157067111Y-65602905D01*
X157188246Y-65627000D01*
X157843250Y-65627000D01*
X158000000Y-65470250D01*
X158000000Y-64250000D01*
X159500000Y-64250000D01*
X159500000Y-65470250D01*
X159656750Y-65627000D01*
X160311754Y-65627000D01*
X160432889Y-65602905D01*
X160546996Y-65555640D01*
X160649689Y-65487023D01*
X160737023Y-65399689D01*
X160805640Y-65296996D01*
X160852905Y-65182889D01*
X160877000Y-65061754D01*
X160877000Y-64406750D01*
X160720250Y-64250000D01*
X159500000Y-64250000D01*
X158000000Y-64250000D01*
X156779750Y-64250000D01*
X156623000Y-64406750D01*
X153257000Y-64406750D01*
X153100250Y-64250000D01*
X151880000Y-64250000D01*
X150380000Y-64250000D01*
X149159750Y-64250000D01*
X149003000Y-64406750D01*
X145637000Y-64406750D01*
X145480250Y-64250000D01*
X144260000Y-64250000D01*
X142760000Y-64250000D01*
X141539750Y-64250000D01*
X141383000Y-64406750D01*
X138017000Y-64406750D01*
X137860250Y-64250000D01*
X136640000Y-64250000D01*
X135140000Y-64250000D01*
X133919750Y-64250000D01*
X133763000Y-64406750D01*
X130397000Y-64406750D01*
X130240250Y-64250000D01*
X129020000Y-64250000D01*
X127520000Y-64250000D01*
X126299750Y-64250000D01*
X126143000Y-64406750D01*
X122777000Y-64406750D01*
X122620250Y-64250000D01*
X121400000Y-64250000D01*
X119900000Y-64250000D01*
X118679750Y-64250000D01*
X118523000Y-64406750D01*
X115157000Y-64406750D01*
X115000250Y-64250000D01*
X113780000Y-64250000D01*
X112280000Y-64250000D01*
X111059750Y-64250000D01*
X110903000Y-64406750D01*
X107537000Y-64406750D01*
X107380250Y-64250000D01*
X106160000Y-64250000D01*
X104660000Y-64250000D01*
X103439750Y-64250000D01*
X103283000Y-64406750D01*
X99917000Y-64406750D01*
X99760250Y-64250000D01*
X98540000Y-64250000D01*
X97040000Y-64250000D01*
X95819750Y-64250000D01*
X95663000Y-64406750D01*
X85306345Y-64406750D01*
X85394269Y-64019753D01*
X85396681Y-63847009D01*
X171127575Y-63847009D01*
X171273678Y-64643060D01*
X171571618Y-65395571D01*
X172010048Y-66075881D01*
X172572267Y-66658076D01*
X173236861Y-67119981D01*
X173978516Y-67444002D01*
X174768982Y-67617797D01*
X175578151Y-67634747D01*
X176375202Y-67494205D01*
X177129775Y-67201526D01*
X177813129Y-66767856D01*
X178399235Y-66209715D01*
X178865769Y-65548362D01*
X179194959Y-64808987D01*
X179374269Y-64019753D01*
X179387177Y-63095327D01*
X179229974Y-62301394D01*
X178921556Y-61553116D01*
X178473671Y-60878994D01*
X177903378Y-60304705D01*
X177232399Y-59852125D01*
X176486292Y-59538490D01*
X175693476Y-59375749D01*
X174884149Y-59370098D01*
X174089139Y-59521755D01*
X173338726Y-59824941D01*
X172661493Y-60268110D01*
X172083237Y-60834380D01*
X171625983Y-61502182D01*
X171307148Y-62246081D01*
X171138875Y-63037742D01*
X171127575Y-63847009D01*
X85396681Y-63847009D01*
X85407177Y-63095327D01*
X85249974Y-62301394D01*
X85100296Y-61938246D01*
X95663000Y-61938246D01*
X95663000Y-62593250D01*
X95819750Y-62750000D01*
X97040000Y-62750000D01*
X97040000Y-61529750D01*
X98540000Y-61529750D01*
X98540000Y-62750000D01*
X99760250Y-62750000D01*
X99917000Y-62593250D01*
X99917000Y-61938246D01*
X103283000Y-61938246D01*
X103283000Y-62593250D01*
X103439750Y-62750000D01*
X104660000Y-62750000D01*
X104660000Y-61529750D01*
X106160000Y-61529750D01*
X106160000Y-62750000D01*
X107380250Y-62750000D01*
X107537000Y-62593250D01*
X107537000Y-61938246D01*
X110903000Y-61938246D01*
X110903000Y-62593250D01*
X111059750Y-62750000D01*
X112280000Y-62750000D01*
X112280000Y-61529750D01*
X113780000Y-61529750D01*
X113780000Y-62750000D01*
X115000250Y-62750000D01*
X115157000Y-62593250D01*
X115157000Y-61938246D01*
X118523000Y-61938246D01*
X118523000Y-62593250D01*
X118679750Y-62750000D01*
X119900000Y-62750000D01*
X119900000Y-61529750D01*
X121400000Y-61529750D01*
X121400000Y-62750000D01*
X122620250Y-62750000D01*
X122777000Y-62593250D01*
X122777000Y-61938246D01*
X126143000Y-61938246D01*
X126143000Y-62593250D01*
X126299750Y-62750000D01*
X127520000Y-62750000D01*
X127520000Y-61529750D01*
X129020000Y-61529750D01*
X129020000Y-62750000D01*
X130240250Y-62750000D01*
X130397000Y-62593250D01*
X130397000Y-61938246D01*
X133763000Y-61938246D01*
X133763000Y-62593250D01*
X133919750Y-62750000D01*
X135140000Y-62750000D01*
X135140000Y-61529750D01*
X136640000Y-61529750D01*
X136640000Y-62750000D01*
X137860250Y-62750000D01*
X138017000Y-62593250D01*
X138017000Y-61938246D01*
X141383000Y-61938246D01*
X141383000Y-62593250D01*
X141539750Y-62750000D01*
X142760000Y-62750000D01*
X142760000Y-61529750D01*
X144260000Y-61529750D01*
X144260000Y-62750000D01*
X145480250Y-62750000D01*
X145637000Y-62593250D01*
X145637000Y-61938246D01*
X149003000Y-61938246D01*
X149003000Y-62593250D01*
X149159750Y-62750000D01*
X150380000Y-62750000D01*
X150380000Y-61529750D01*
X151880000Y-61529750D01*
X151880000Y-62750000D01*
X153100250Y-62750000D01*
X153257000Y-62593250D01*
X153257000Y-61938246D01*
X156623000Y-61938246D01*
X156623000Y-62593250D01*
X156779750Y-62750000D01*
X158000000Y-62750000D01*
X158000000Y-61529750D01*
X159500000Y-61529750D01*
X159500000Y-62750000D01*
X160720250Y-62750000D01*
X160877000Y-62593250D01*
X160877000Y-61938246D01*
X160852905Y-61817111D01*
X160805640Y-61703004D01*
X160737023Y-61600311D01*
X160649689Y-61512977D01*
X160546996Y-61444360D01*
X160432889Y-61397095D01*
X160311754Y-61373000D01*
X159656750Y-61373000D01*
X159500000Y-61529750D01*
X158000000Y-61529750D01*
X157843250Y-61373000D01*
X157188246Y-61373000D01*
X157067111Y-61397095D01*
X156953004Y-61444360D01*
X156850311Y-61512977D01*
X156762977Y-61600311D01*
X156694360Y-61703004D01*
X156647095Y-61817111D01*
X156623000Y-61938246D01*
X153257000Y-61938246D01*
X153232905Y-61817111D01*
X153185640Y-61703004D01*
X153117023Y-61600311D01*
X153029689Y-61512977D01*
X152926996Y-61444360D01*
X152812889Y-61397095D01*
X152691754Y-61373000D01*
X152036750Y-61373000D01*
X151880000Y-61529750D01*
X150380000Y-61529750D01*
X150223250Y-61373000D01*
X149568246Y-61373000D01*
X149447111Y-61397095D01*
X149333004Y-61444360D01*
X149230311Y-61512977D01*
X149142977Y-61600311D01*
X149074360Y-61703004D01*
X149027095Y-61817111D01*
X149003000Y-61938246D01*
X145637000Y-61938246D01*
X145612905Y-61817111D01*
X145565640Y-61703004D01*
X145497023Y-61600311D01*
X145409689Y-61512977D01*
X145306996Y-61444360D01*
X145192889Y-61397095D01*
X145071754Y-61373000D01*
X144416750Y-61373000D01*
X144260000Y-61529750D01*
X142760000Y-61529750D01*
X142603250Y-61373000D01*
X141948246Y-61373000D01*
X141827111Y-61397095D01*
X141713004Y-61444360D01*
X141610311Y-61512977D01*
X141522977Y-61600311D01*
X141454360Y-61703004D01*
X141407095Y-61817111D01*
X141383000Y-61938246D01*
X138017000Y-61938246D01*
X137992905Y-61817111D01*
X137945640Y-61703004D01*
X137877023Y-61600311D01*
X137789689Y-61512977D01*
X137686996Y-61444360D01*
X137572889Y-61397095D01*
X137451754Y-61373000D01*
X136796750Y-61373000D01*
X136640000Y-61529750D01*
X135140000Y-61529750D01*
X134983250Y-61373000D01*
X134328246Y-61373000D01*
X134207111Y-61397095D01*
X134093004Y-61444360D01*
X133990311Y-61512977D01*
X133902977Y-61600311D01*
X133834360Y-61703004D01*
X133787095Y-61817111D01*
X133763000Y-61938246D01*
X130397000Y-61938246D01*
X130372905Y-61817111D01*
X130325640Y-61703004D01*
X130257023Y-61600311D01*
X130169689Y-61512977D01*
X130066996Y-61444360D01*
X129952889Y-61397095D01*
X129831754Y-61373000D01*
X129176750Y-61373000D01*
X129020000Y-61529750D01*
X127520000Y-61529750D01*
X127363250Y-61373000D01*
X126708246Y-61373000D01*
X126587111Y-61397095D01*
X126473004Y-61444360D01*
X126370311Y-61512977D01*
X126282977Y-61600311D01*
X126214360Y-61703004D01*
X126167095Y-61817111D01*
X126143000Y-61938246D01*
X122777000Y-61938246D01*
X122752905Y-61817111D01*
X122705640Y-61703004D01*
X122637023Y-61600311D01*
X122549689Y-61512977D01*
X122446996Y-61444360D01*
X122332889Y-61397095D01*
X122211754Y-61373000D01*
X121556750Y-61373000D01*
X121400000Y-61529750D01*
X119900000Y-61529750D01*
X119743250Y-61373000D01*
X119088246Y-61373000D01*
X118967111Y-61397095D01*
X118853004Y-61444360D01*
X118750311Y-61512977D01*
X118662977Y-61600311D01*
X118594360Y-61703004D01*
X118547095Y-61817111D01*
X118523000Y-61938246D01*
X115157000Y-61938246D01*
X115132905Y-61817111D01*
X115085640Y-61703004D01*
X115017023Y-61600311D01*
X114929689Y-61512977D01*
X114826996Y-61444360D01*
X114712889Y-61397095D01*
X114591754Y-61373000D01*
X113936750Y-61373000D01*
X113780000Y-61529750D01*
X112280000Y-61529750D01*
X112123250Y-61373000D01*
X111468246Y-61373000D01*
X111347111Y-61397095D01*
X111233004Y-61444360D01*
X111130311Y-61512977D01*
X111042977Y-61600311D01*
X110974360Y-61703004D01*
X110927095Y-61817111D01*
X110903000Y-61938246D01*
X107537000Y-61938246D01*
X107512905Y-61817111D01*
X107465640Y-61703004D01*
X107397023Y-61600311D01*
X107309689Y-61512977D01*
X107206996Y-61444360D01*
X107092889Y-61397095D01*
X106971754Y-61373000D01*
X106316750Y-61373000D01*
X106160000Y-61529750D01*
X104660000Y-61529750D01*
X104503250Y-61373000D01*
X103848246Y-61373000D01*
X103727111Y-61397095D01*
X103613004Y-61444360D01*
X103510311Y-61512977D01*
X103422977Y-61600311D01*
X103354360Y-61703004D01*
X103307095Y-61817111D01*
X103283000Y-61938246D01*
X99917000Y-61938246D01*
X99892905Y-61817111D01*
X99845640Y-61703004D01*
X99777023Y-61600311D01*
X99689689Y-61512977D01*
X99586996Y-61444360D01*
X99472889Y-61397095D01*
X99351754Y-61373000D01*
X98696750Y-61373000D01*
X98540000Y-61529750D01*
X97040000Y-61529750D01*
X96883250Y-61373000D01*
X96228246Y-61373000D01*
X96107111Y-61397095D01*
X95993004Y-61444360D01*
X95890311Y-61512977D01*
X95802977Y-61600311D01*
X95734360Y-61703004D01*
X95687095Y-61817111D01*
X95663000Y-61938246D01*
X85100296Y-61938246D01*
X84941556Y-61553116D01*
X84493671Y-60878994D01*
X83923378Y-60304705D01*
X83252399Y-59852125D01*
X82506292Y-59538490D01*
X81713476Y-59375749D01*
X80904149Y-59370098D01*
X80109139Y-59521755D01*
X79358726Y-59824941D01*
X78681493Y-60268110D01*
X78103237Y-60834380D01*
X77645983Y-61502182D01*
X77327148Y-62246081D01*
X77158875Y-63037742D01*
X77147575Y-63847009D01*
X73847000Y-63847009D01*
X73847000Y-58607000D01*
X182693000Y-58607000D01*
X182693000Y-154753000D01*
M02*
