G04 #@! TF.FileFunction,Soldermask,Top*
%FSLAX46Y46*%
G04 Gerber Fmt 4.6, Leading zero omitted, Abs format (unit mm)*
G04 Created by KiCad (PCBNEW 4.0.4-stable) date 03/23/17 03:26:40*
%MOMM*%
%LPD*%
G01*
G04 APERTURE LIST*
%ADD10C,0.100000*%
%ADD11O,4.362400X2.381200*%
%ADD12R,2.000000X1.400000*%
%ADD13R,2.100000X1.300000*%
%ADD14R,4.057600X2.432000*%
%ADD15R,1.416000X2.432000*%
%ADD16R,1.000000X1.900000*%
%ADD17C,2.400000*%
%ADD18R,2.400000X2.400000*%
%ADD19R,1.200100X1.200100*%
%ADD20O,1.873200X1.009600*%
%ADD21O,2.381200X4.362400*%
%ADD22O,2.000000X2.700000*%
%ADD23R,1.400000X1.650000*%
%ADD24R,2.127200X2.432000*%
%ADD25O,2.127200X2.432000*%
%ADD26R,2.432000X2.432000*%
%ADD27R,1.300000X2.100000*%
%ADD28R,1.300000X1.300000*%
%ADD29O,2.398980X3.399740*%
%ADD30O,3.399740X2.398980*%
%ADD31R,3.400000X3.400000*%
%ADD32O,3.900120X2.200860*%
%ADD33C,4.400500*%
%ADD34C,2.398980*%
G04 APERTURE END LIST*
D10*
D11*
X130500000Y-134500000D03*
X130500000Y-129500000D03*
X130500000Y-119500000D03*
X130500000Y-124500000D03*
D12*
X123500000Y-143000000D03*
X123500000Y-140000000D03*
X126000000Y-142250000D03*
X126000000Y-139250000D03*
D13*
X94000000Y-131450000D03*
X94000000Y-128550000D03*
D14*
X118500000Y-137198000D03*
D15*
X118500000Y-143802000D03*
X120786000Y-143802000D03*
X116214000Y-143802000D03*
D16*
X93555000Y-138700000D03*
X94825000Y-138700000D03*
X96095000Y-138700000D03*
X97365000Y-138700000D03*
X98635000Y-138700000D03*
X99905000Y-138700000D03*
X101175000Y-138700000D03*
X102445000Y-138700000D03*
X102445000Y-133300000D03*
X101175000Y-133300000D03*
X99905000Y-133300000D03*
X98635000Y-133300000D03*
X97365000Y-133300000D03*
X96095000Y-133300000D03*
X94825000Y-133300000D03*
X93555000Y-133300000D03*
D17*
X142000000Y-158500000D03*
D18*
X142000000Y-154700000D03*
D19*
X150000760Y-111950000D03*
X150000760Y-110050000D03*
X148001780Y-111000000D03*
X141000760Y-114950000D03*
X141000760Y-113050000D03*
X139001780Y-114000000D03*
D13*
X153000000Y-132450000D03*
X153000000Y-129550000D03*
X149000000Y-132450000D03*
X149000000Y-129550000D03*
X145000000Y-130450000D03*
X145000000Y-127550000D03*
X152000000Y-109550000D03*
X152000000Y-112450000D03*
X143000000Y-112550000D03*
X143000000Y-115450000D03*
X146000000Y-109550000D03*
X146000000Y-112450000D03*
X137000000Y-112550000D03*
X137000000Y-115450000D03*
D17*
X160040000Y-143690000D03*
X154960000Y-143690000D03*
X160040000Y-151310000D03*
X154960000Y-151310000D03*
X150540000Y-138190000D03*
X145460000Y-138190000D03*
X150540000Y-145810000D03*
X145460000Y-145810000D03*
D20*
X104206000Y-150095000D03*
X104206000Y-151365000D03*
X104206000Y-152635000D03*
X104206000Y-153905000D03*
X109794000Y-153905000D03*
X109794000Y-152635000D03*
X109794000Y-151365000D03*
X109794000Y-150095000D03*
D17*
X112000000Y-95000000D03*
D18*
X112000000Y-98800000D03*
D21*
X134500000Y-158500000D03*
X129500000Y-158500000D03*
X119500000Y-158500000D03*
X124500000Y-158500000D03*
X119500000Y-95500000D03*
X124500000Y-95500000D03*
X134500000Y-95500000D03*
X129500000Y-95500000D03*
D19*
X122000760Y-106950000D03*
X122000760Y-105050000D03*
X120001780Y-106000000D03*
X111000760Y-108950000D03*
X111000760Y-107050000D03*
X109001780Y-108000000D03*
D13*
X124000000Y-104550000D03*
X124000000Y-107450000D03*
X113000000Y-106550000D03*
X113000000Y-109450000D03*
X118000000Y-104550000D03*
X118000000Y-107450000D03*
X107000000Y-106550000D03*
X107000000Y-109450000D03*
D19*
X100000760Y-110950000D03*
X100000760Y-109050000D03*
X98001780Y-110000000D03*
D13*
X147000000Y-121550000D03*
X147000000Y-124450000D03*
X151000000Y-121550000D03*
X151000000Y-124450000D03*
X102000000Y-108550000D03*
X102000000Y-111450000D03*
X96000000Y-108550000D03*
X96000000Y-111450000D03*
D22*
X105000000Y-116220000D03*
X107540000Y-116220000D03*
X110080000Y-116220000D03*
X112620000Y-116220000D03*
X112620000Y-159400000D03*
X110080000Y-159400000D03*
X107540000Y-159400000D03*
X105000000Y-159400000D03*
D23*
X118000000Y-146500000D03*
X116000000Y-146500000D03*
X137000000Y-143500000D03*
X135000000Y-143500000D03*
D24*
X153000000Y-104000000D03*
D25*
X150460000Y-104000000D03*
X147920000Y-104000000D03*
X145380000Y-104000000D03*
X142840000Y-104000000D03*
X140300000Y-104000000D03*
D26*
X140000000Y-145500000D03*
X140000000Y-142960000D03*
D27*
X137700000Y-139500000D03*
X134800000Y-139500000D03*
X142700000Y-139500000D03*
X139800000Y-139500000D03*
D28*
X100000000Y-128500000D03*
X96000000Y-128500000D03*
X98660000Y-128500000D03*
X97340000Y-128500000D03*
X98660000Y-131500000D03*
X100000000Y-131500000D03*
X96000000Y-131500000D03*
X97340000Y-131500000D03*
X96000000Y-143500000D03*
X100000000Y-143500000D03*
X97340000Y-143500000D03*
X98660000Y-143500000D03*
X97340000Y-140500000D03*
X96000000Y-140500000D03*
X100000000Y-140500000D03*
X98660000Y-140500000D03*
D29*
X132960000Y-144460000D03*
D30*
X135500000Y-147000000D03*
X130420000Y-147000000D03*
D27*
X135450000Y-110000000D03*
X132550000Y-110000000D03*
X144450000Y-107000000D03*
X141550000Y-107000000D03*
D31*
X123250000Y-152000000D03*
X126790000Y-152000000D03*
D26*
X150000000Y-107000000D03*
X147460000Y-107000000D03*
X141000000Y-110000000D03*
X138460000Y-110000000D03*
X122000000Y-102000000D03*
X119460000Y-102000000D03*
X111000000Y-104000000D03*
X108460000Y-104000000D03*
X100000000Y-106000000D03*
X97460000Y-106000000D03*
D32*
X118500000Y-123190000D03*
X118500000Y-125730000D03*
X118500000Y-128270000D03*
X118500000Y-130810000D03*
D26*
X114000000Y-154000000D03*
X116540000Y-154000000D03*
D27*
X113550000Y-151250000D03*
X116450000Y-151250000D03*
D23*
X149500000Y-127000000D03*
X147500000Y-127000000D03*
D33*
X138000000Y-158500000D03*
X116000000Y-158500000D03*
X116000000Y-95500000D03*
X138000000Y-95500000D03*
D34*
X131000000Y-157500000D03*
X123000000Y-157500000D03*
X123000000Y-96500000D03*
X131000000Y-96500000D03*
M02*
