G04 #@! TF.FileFunction,Legend,Bot*
%FSLAX46Y46*%
G04 Gerber Fmt 4.6, Leading zero omitted, Abs format (unit mm)*
G04 Created by KiCad (PCBNEW 4.0.4-stable) date 03/17/17 22:11:41*
%MOMM*%
%LPD*%
G01*
G04 APERTURE LIST*
%ADD10C,0.100000*%
%ADD11C,0.300000*%
%ADD12C,0.200000*%
%ADD13C,0.150000*%
G04 APERTURE END LIST*
D10*
D11*
X112000000Y-104200000D02*
X112142857Y-104128571D01*
X112357143Y-104128571D01*
X112571428Y-104200000D01*
X112714286Y-104342857D01*
X112785714Y-104485714D01*
X112857143Y-104771429D01*
X112857143Y-104985714D01*
X112785714Y-105271429D01*
X112714286Y-105414286D01*
X112571428Y-105557143D01*
X112357143Y-105628571D01*
X112214286Y-105628571D01*
X112000000Y-105557143D01*
X111928571Y-105485714D01*
X111928571Y-104985714D01*
X112214286Y-104985714D01*
X111000000Y-104128571D02*
X110714286Y-104128571D01*
X110571428Y-104200000D01*
X110428571Y-104342857D01*
X110357143Y-104628571D01*
X110357143Y-105128571D01*
X110428571Y-105414286D01*
X110571428Y-105557143D01*
X110714286Y-105628571D01*
X111000000Y-105628571D01*
X111142857Y-105557143D01*
X111285714Y-105414286D01*
X111357143Y-105128571D01*
X111357143Y-104628571D01*
X111285714Y-104342857D01*
X111142857Y-104200000D01*
X111000000Y-104128571D01*
X108999999Y-105628571D02*
X109714285Y-105628571D01*
X109714285Y-104128571D01*
X108499999Y-105628571D02*
X108499999Y-104128571D01*
X107999999Y-105200000D01*
X107499999Y-104128571D01*
X107499999Y-105628571D01*
X106142856Y-105628571D02*
X106142856Y-104842857D01*
X106214285Y-104700000D01*
X106357142Y-104628571D01*
X106642856Y-104628571D01*
X106785713Y-104700000D01*
X106142856Y-105557143D02*
X106285713Y-105628571D01*
X106642856Y-105628571D01*
X106785713Y-105557143D01*
X106857142Y-105414286D01*
X106857142Y-105271429D01*
X106785713Y-105128571D01*
X106642856Y-105057143D01*
X106285713Y-105057143D01*
X106142856Y-104985714D01*
X105428570Y-105628571D02*
X105428570Y-104628571D01*
X105428570Y-104128571D02*
X105499999Y-104200000D01*
X105428570Y-104271429D01*
X105357142Y-104200000D01*
X105428570Y-104128571D01*
X105428570Y-104271429D01*
X104714284Y-104628571D02*
X104714284Y-105628571D01*
X104714284Y-104771429D02*
X104642856Y-104700000D01*
X104499998Y-104628571D01*
X104285713Y-104628571D01*
X104142856Y-104700000D01*
X104071427Y-104842857D01*
X104071427Y-105628571D01*
X101357141Y-105628571D02*
X101857141Y-104914286D01*
X102214284Y-105628571D02*
X102214284Y-104128571D01*
X101642856Y-104128571D01*
X101499998Y-104200000D01*
X101428570Y-104271429D01*
X101357141Y-104414286D01*
X101357141Y-104628571D01*
X101428570Y-104771429D01*
X101499998Y-104842857D01*
X101642856Y-104914286D01*
X102214284Y-104914286D01*
X100142856Y-105557143D02*
X100285713Y-105628571D01*
X100571427Y-105628571D01*
X100714284Y-105557143D01*
X100785713Y-105414286D01*
X100785713Y-104842857D01*
X100714284Y-104700000D01*
X100571427Y-104628571D01*
X100285713Y-104628571D01*
X100142856Y-104700000D01*
X100071427Y-104842857D01*
X100071427Y-104985714D01*
X100785713Y-105128571D01*
X99571427Y-104628571D02*
X99214284Y-105628571D01*
X98857142Y-104628571D01*
X98357142Y-105200000D02*
X97642856Y-105200000D01*
X98499999Y-105628571D02*
X97999999Y-104128571D01*
X97499999Y-105628571D01*
X113642857Y-108178571D02*
X113642857Y-106678571D01*
X113142857Y-107750000D01*
X112642857Y-106678571D01*
X112642857Y-108178571D01*
X111285714Y-108178571D02*
X111285714Y-107392857D01*
X111357143Y-107250000D01*
X111500000Y-107178571D01*
X111785714Y-107178571D01*
X111928571Y-107250000D01*
X111285714Y-108107143D02*
X111428571Y-108178571D01*
X111785714Y-108178571D01*
X111928571Y-108107143D01*
X112000000Y-107964286D01*
X112000000Y-107821429D01*
X111928571Y-107678571D01*
X111785714Y-107607143D01*
X111428571Y-107607143D01*
X111285714Y-107535714D01*
X110785714Y-107178571D02*
X110214285Y-107178571D01*
X110571428Y-106678571D02*
X110571428Y-107964286D01*
X110500000Y-108107143D01*
X110357142Y-108178571D01*
X110214285Y-108178571D01*
X109928571Y-107178571D02*
X109357142Y-107178571D01*
X109714285Y-106678571D02*
X109714285Y-107964286D01*
X109642857Y-108107143D01*
X109499999Y-108178571D01*
X109357142Y-108178571D01*
X108857142Y-108178571D02*
X108857142Y-106678571D01*
X108214285Y-108178571D02*
X108214285Y-107392857D01*
X108285714Y-107250000D01*
X108428571Y-107178571D01*
X108642856Y-107178571D01*
X108785714Y-107250000D01*
X108857142Y-107321429D01*
X106928571Y-108107143D02*
X107071428Y-108178571D01*
X107357142Y-108178571D01*
X107499999Y-108107143D01*
X107571428Y-107964286D01*
X107571428Y-107392857D01*
X107499999Y-107250000D01*
X107357142Y-107178571D01*
X107071428Y-107178571D01*
X106928571Y-107250000D01*
X106857142Y-107392857D01*
X106857142Y-107535714D01*
X107571428Y-107678571D01*
X106357142Y-107178571D02*
X106071428Y-108178571D01*
X105785714Y-107464286D01*
X105499999Y-108178571D01*
X105214285Y-107178571D01*
X103571428Y-108107143D02*
X103357142Y-108178571D01*
X102999999Y-108178571D01*
X102857142Y-108107143D01*
X102785713Y-108035714D01*
X102714285Y-107892857D01*
X102714285Y-107750000D01*
X102785713Y-107607143D01*
X102857142Y-107535714D01*
X102999999Y-107464286D01*
X103285713Y-107392857D01*
X103428571Y-107321429D01*
X103499999Y-107250000D01*
X103571428Y-107107143D01*
X103571428Y-106964286D01*
X103499999Y-106821429D01*
X103428571Y-106750000D01*
X103285713Y-106678571D01*
X102928571Y-106678571D01*
X102714285Y-106750000D01*
X102214285Y-107178571D02*
X101928571Y-108178571D01*
X101642857Y-107464286D01*
X101357142Y-108178571D01*
X101071428Y-107178571D01*
X99857142Y-108178571D02*
X99857142Y-107392857D01*
X99928571Y-107250000D01*
X100071428Y-107178571D01*
X100357142Y-107178571D01*
X100499999Y-107250000D01*
X99857142Y-108107143D02*
X99999999Y-108178571D01*
X100357142Y-108178571D01*
X100499999Y-108107143D01*
X100571428Y-107964286D01*
X100571428Y-107821429D01*
X100499999Y-107678571D01*
X100357142Y-107607143D01*
X99999999Y-107607143D01*
X99857142Y-107535714D01*
X99142856Y-108178571D02*
X99142856Y-107178571D01*
X99142856Y-107464286D02*
X99071428Y-107321429D01*
X98999999Y-107250000D01*
X98857142Y-107178571D01*
X98714285Y-107178571D01*
X98428571Y-107178571D02*
X97857142Y-107178571D01*
X98214285Y-106678571D02*
X98214285Y-107964286D01*
X98142857Y-108107143D01*
X97999999Y-108178571D01*
X97857142Y-108178571D01*
X97428571Y-108107143D02*
X97285714Y-108178571D01*
X96999999Y-108178571D01*
X96857142Y-108107143D01*
X96785714Y-107964286D01*
X96785714Y-107892857D01*
X96857142Y-107750000D01*
X96999999Y-107678571D01*
X97214285Y-107678571D01*
X97357142Y-107607143D01*
X97428571Y-107464286D01*
X97428571Y-107392857D01*
X97357142Y-107250000D01*
X97214285Y-107178571D01*
X96999999Y-107178571D01*
X96857142Y-107250000D01*
X111392856Y-109371429D02*
X111321427Y-109300000D01*
X111178570Y-109228571D01*
X110821427Y-109228571D01*
X110678570Y-109300000D01*
X110607141Y-109371429D01*
X110535713Y-109514286D01*
X110535713Y-109657143D01*
X110607141Y-109871429D01*
X111464284Y-110728571D01*
X110535713Y-110728571D01*
X109607142Y-109228571D02*
X109464285Y-109228571D01*
X109321428Y-109300000D01*
X109249999Y-109371429D01*
X109178570Y-109514286D01*
X109107142Y-109800000D01*
X109107142Y-110157143D01*
X109178570Y-110442857D01*
X109249999Y-110585714D01*
X109321428Y-110657143D01*
X109464285Y-110728571D01*
X109607142Y-110728571D01*
X109749999Y-110657143D01*
X109821428Y-110585714D01*
X109892856Y-110442857D01*
X109964285Y-110157143D01*
X109964285Y-109800000D01*
X109892856Y-109514286D01*
X109821428Y-109371429D01*
X109749999Y-109300000D01*
X109607142Y-109228571D01*
X107678571Y-110728571D02*
X108535714Y-110728571D01*
X108107142Y-110728571D02*
X108107142Y-109228571D01*
X108249999Y-109442857D01*
X108392857Y-109585714D01*
X108535714Y-109657143D01*
X107178571Y-109228571D02*
X106178571Y-109228571D01*
X106821428Y-110728571D01*
X105607143Y-110585714D02*
X105535715Y-110657143D01*
X105607143Y-110728571D01*
X105678572Y-110657143D01*
X105607143Y-110585714D01*
X105607143Y-110728571D01*
X104607143Y-109228571D02*
X104464286Y-109228571D01*
X104321429Y-109300000D01*
X104250000Y-109371429D01*
X104178571Y-109514286D01*
X104107143Y-109800000D01*
X104107143Y-110157143D01*
X104178571Y-110442857D01*
X104250000Y-110585714D01*
X104321429Y-110657143D01*
X104464286Y-110728571D01*
X104607143Y-110728571D01*
X104750000Y-110657143D01*
X104821429Y-110585714D01*
X104892857Y-110442857D01*
X104964286Y-110157143D01*
X104964286Y-109800000D01*
X104892857Y-109514286D01*
X104821429Y-109371429D01*
X104750000Y-109300000D01*
X104607143Y-109228571D01*
X103607143Y-109228571D02*
X102678572Y-109228571D01*
X103178572Y-109800000D01*
X102964286Y-109800000D01*
X102821429Y-109871429D01*
X102750000Y-109942857D01*
X102678572Y-110085714D01*
X102678572Y-110442857D01*
X102750000Y-110585714D01*
X102821429Y-110657143D01*
X102964286Y-110728571D01*
X103392858Y-110728571D01*
X103535715Y-110657143D01*
X103607143Y-110585714D01*
X102035715Y-110585714D02*
X101964287Y-110657143D01*
X102035715Y-110728571D01*
X102107144Y-110657143D01*
X102035715Y-110585714D01*
X102035715Y-110728571D01*
X100535715Y-110728571D02*
X101392858Y-110728571D01*
X100964286Y-110728571D02*
X100964286Y-109228571D01*
X101107143Y-109442857D01*
X101250001Y-109585714D01*
X101392858Y-109657143D01*
X100035715Y-109228571D02*
X99035715Y-109228571D01*
X99678572Y-110728571D01*
X104353571Y-154000001D02*
X105853571Y-154500001D01*
X104353571Y-155000001D01*
X104353571Y-156214287D02*
X104353571Y-155500001D01*
X105067857Y-155428572D01*
X104996429Y-155500001D01*
X104925000Y-155642858D01*
X104925000Y-156000001D01*
X104996429Y-156142858D01*
X105067857Y-156214287D01*
X105210714Y-156285715D01*
X105567857Y-156285715D01*
X105710714Y-156214287D01*
X105782143Y-156142858D01*
X105853571Y-156000001D01*
X105853571Y-155642858D01*
X105782143Y-155500001D01*
X105710714Y-155428572D01*
X104353571Y-157214286D02*
X104353571Y-157357143D01*
X104425000Y-157500000D01*
X104496429Y-157571429D01*
X104639286Y-157642858D01*
X104925000Y-157714286D01*
X105282143Y-157714286D01*
X105567857Y-157642858D01*
X105710714Y-157571429D01*
X105782143Y-157500000D01*
X105853571Y-157357143D01*
X105853571Y-157214286D01*
X105782143Y-157071429D01*
X105710714Y-157000000D01*
X105567857Y-156928572D01*
X105282143Y-156857143D01*
X104925000Y-156857143D01*
X104639286Y-156928572D01*
X104496429Y-157000000D01*
X104425000Y-157071429D01*
X104353571Y-157214286D01*
X107617857Y-157357143D02*
X107689286Y-157571429D01*
X107760714Y-157642857D01*
X107903571Y-157714286D01*
X108117857Y-157714286D01*
X108260714Y-157642857D01*
X108332143Y-157571429D01*
X108403571Y-157428571D01*
X108403571Y-156857143D01*
X106903571Y-156857143D01*
X106903571Y-157357143D01*
X106975000Y-157500000D01*
X107046429Y-157571429D01*
X107189286Y-157642857D01*
X107332143Y-157642857D01*
X107475000Y-157571429D01*
X107546429Y-157500000D01*
X107617857Y-157357143D01*
X107617857Y-156857143D01*
X110525000Y-157000000D02*
X110525000Y-157714286D01*
X110953571Y-156857143D02*
X109453571Y-157357143D01*
X110953571Y-157857143D01*
X112075000Y-154571428D02*
X112003571Y-154428571D01*
X112003571Y-154214285D01*
X112075000Y-154000000D01*
X112217857Y-153857142D01*
X112360714Y-153785714D01*
X112646429Y-153714285D01*
X112860714Y-153714285D01*
X113146429Y-153785714D01*
X113289286Y-153857142D01*
X113432143Y-154000000D01*
X113503571Y-154214285D01*
X113503571Y-154357142D01*
X113432143Y-154571428D01*
X113360714Y-154642857D01*
X112860714Y-154642857D01*
X112860714Y-154357142D01*
X113503571Y-155285714D02*
X112003571Y-155285714D01*
X113503571Y-156142857D01*
X112003571Y-156142857D01*
X113503571Y-156857143D02*
X112003571Y-156857143D01*
X112003571Y-157214286D01*
X112075000Y-157428571D01*
X112217857Y-157571429D01*
X112360714Y-157642857D01*
X112646429Y-157714286D01*
X112860714Y-157714286D01*
X113146429Y-157642857D01*
X113289286Y-157571429D01*
X113432143Y-157428571D01*
X113503571Y-157214286D01*
X113503571Y-156857143D01*
X105853571Y-119214286D02*
X105139286Y-118714286D01*
X105853571Y-118357143D02*
X104353571Y-118357143D01*
X104353571Y-118928571D01*
X104425000Y-119071429D01*
X104496429Y-119142857D01*
X104639286Y-119214286D01*
X104853571Y-119214286D01*
X104996429Y-119142857D01*
X105067857Y-119071429D01*
X105139286Y-118928571D01*
X105139286Y-118357143D01*
X104353571Y-119714286D02*
X105853571Y-120714286D01*
X104353571Y-120714286D02*
X105853571Y-119714286D01*
X104353571Y-122000000D02*
X104353571Y-121285714D01*
X105067857Y-121214285D01*
X104996429Y-121285714D01*
X104925000Y-121428571D01*
X104925000Y-121785714D01*
X104996429Y-121928571D01*
X105067857Y-122000000D01*
X105210714Y-122071428D01*
X105567857Y-122071428D01*
X105710714Y-122000000D01*
X105782143Y-121928571D01*
X105853571Y-121785714D01*
X105853571Y-121428571D01*
X105782143Y-121285714D01*
X105710714Y-121214285D01*
X107617857Y-118357143D02*
X107617857Y-118857143D01*
X108403571Y-119071429D02*
X108403571Y-118357143D01*
X106903571Y-118357143D01*
X106903571Y-119071429D01*
X108403571Y-119714286D02*
X106903571Y-119714286D01*
X108403571Y-120571429D01*
X106903571Y-120571429D01*
X106903571Y-122000001D02*
X106903571Y-121285715D01*
X107617857Y-121214286D01*
X107546429Y-121285715D01*
X107475000Y-121428572D01*
X107475000Y-121785715D01*
X107546429Y-121928572D01*
X107617857Y-122000001D01*
X107760714Y-122071429D01*
X108117857Y-122071429D01*
X108260714Y-122000001D01*
X108332143Y-121928572D01*
X108403571Y-121785715D01*
X108403571Y-121428572D01*
X108332143Y-121285715D01*
X108260714Y-121214286D01*
X110167857Y-118357143D02*
X110167857Y-118857143D01*
X110953571Y-119071429D02*
X110953571Y-118357143D01*
X109453571Y-118357143D01*
X109453571Y-119071429D01*
X110953571Y-119714286D02*
X109453571Y-119714286D01*
X110953571Y-120571429D01*
X109453571Y-120571429D01*
X109453571Y-122000001D02*
X109453571Y-121285715D01*
X110167857Y-121214286D01*
X110096429Y-121285715D01*
X110025000Y-121428572D01*
X110025000Y-121785715D01*
X110096429Y-121928572D01*
X110167857Y-122000001D01*
X110310714Y-122071429D01*
X110667857Y-122071429D01*
X110810714Y-122000001D01*
X110882143Y-121928572D01*
X110953571Y-121785715D01*
X110953571Y-121428572D01*
X110882143Y-121285715D01*
X110810714Y-121214286D01*
X112003571Y-118142857D02*
X112003571Y-119000000D01*
X113503571Y-118571429D02*
X112003571Y-118571429D01*
X112003571Y-119357143D02*
X113503571Y-120357143D01*
X112003571Y-120357143D02*
X113503571Y-119357143D01*
X112003571Y-121642857D02*
X112003571Y-120928571D01*
X112717857Y-120857142D01*
X112646429Y-120928571D01*
X112575000Y-121071428D01*
X112575000Y-121428571D01*
X112646429Y-121571428D01*
X112717857Y-121642857D01*
X112860714Y-121714285D01*
X113217857Y-121714285D01*
X113360714Y-121642857D01*
X113432143Y-121571428D01*
X113503571Y-121428571D01*
X113503571Y-121071428D01*
X113432143Y-120928571D01*
X113360714Y-120857142D01*
X135857143Y-118157143D02*
X135357143Y-121157143D01*
X134857143Y-118157143D01*
X133571429Y-121157143D02*
X134428572Y-121157143D01*
X134000000Y-121157143D02*
X134000000Y-118157143D01*
X134142857Y-118585714D01*
X134285715Y-118871429D01*
X134428572Y-119014286D01*
X133000001Y-118442857D02*
X132928572Y-118300000D01*
X132785715Y-118157143D01*
X132428572Y-118157143D01*
X132285715Y-118300000D01*
X132214286Y-118442857D01*
X132142858Y-118728571D01*
X132142858Y-119014286D01*
X132214286Y-119442857D01*
X133071429Y-121157143D01*
X132142858Y-121157143D01*
X134785714Y-125671429D02*
X134857143Y-125814286D01*
X135071429Y-125957143D01*
X135214286Y-125957143D01*
X135428571Y-125814286D01*
X135571429Y-125528571D01*
X135642857Y-125242857D01*
X135714286Y-124671429D01*
X135714286Y-124242857D01*
X135642857Y-123671429D01*
X135571429Y-123385714D01*
X135428571Y-123100000D01*
X135214286Y-122957143D01*
X135071429Y-122957143D01*
X134857143Y-123100000D01*
X134785714Y-123242857D01*
X133428571Y-125957143D02*
X134142857Y-125957143D01*
X134142857Y-122957143D01*
X132928571Y-125957143D02*
X132928571Y-122957143D01*
X132071428Y-125957143D02*
X132714285Y-124242857D01*
X132071428Y-122957143D02*
X132928571Y-124671429D01*
X135642857Y-130757143D02*
X135642857Y-127757143D01*
X135285714Y-127757143D01*
X135071429Y-127900000D01*
X134928571Y-128185714D01*
X134857143Y-128471429D01*
X134785714Y-129042857D01*
X134785714Y-129471429D01*
X134857143Y-130042857D01*
X134928571Y-130328571D01*
X135071429Y-130614286D01*
X135285714Y-130757143D01*
X135642857Y-130757143D01*
X134214286Y-129900000D02*
X133500000Y-129900000D01*
X134357143Y-130757143D02*
X133857143Y-127757143D01*
X133357143Y-130757143D01*
X133071429Y-127757143D02*
X132214286Y-127757143D01*
X132642857Y-130757143D02*
X132642857Y-127757143D01*
X134857143Y-132700000D02*
X135000000Y-132557143D01*
X135214286Y-132557143D01*
X135428571Y-132700000D01*
X135571429Y-132985714D01*
X135642857Y-133271429D01*
X135714286Y-133842857D01*
X135714286Y-134271429D01*
X135642857Y-134842857D01*
X135571429Y-135128571D01*
X135428571Y-135414286D01*
X135214286Y-135557143D01*
X135071429Y-135557143D01*
X134857143Y-135414286D01*
X134785714Y-135271429D01*
X134785714Y-134271429D01*
X135071429Y-134271429D01*
X134142857Y-135557143D02*
X134142857Y-132557143D01*
X133285714Y-135557143D01*
X133285714Y-132557143D01*
X132571428Y-135557143D02*
X132571428Y-132557143D01*
X132214285Y-132557143D01*
X132000000Y-132700000D01*
X131857142Y-132985714D01*
X131785714Y-133271429D01*
X131714285Y-133842857D01*
X131714285Y-134271429D01*
X131785714Y-134842857D01*
X131857142Y-135128571D01*
X132000000Y-135414286D01*
X132214285Y-135557143D01*
X132571428Y-135557143D01*
X118300000Y-103642857D02*
X118157143Y-103500000D01*
X118157143Y-103285714D01*
X118300000Y-103071429D01*
X118585714Y-102928571D01*
X118871429Y-102857143D01*
X119442857Y-102785714D01*
X119871429Y-102785714D01*
X120442857Y-102857143D01*
X120728571Y-102928571D01*
X121014286Y-103071429D01*
X121157143Y-103285714D01*
X121157143Y-103428571D01*
X121014286Y-103642857D01*
X120871429Y-103714286D01*
X119871429Y-103714286D01*
X119871429Y-103428571D01*
X121157143Y-104357143D02*
X118157143Y-104357143D01*
X121157143Y-105214286D01*
X118157143Y-105214286D01*
X121157143Y-105928572D02*
X118157143Y-105928572D01*
X118157143Y-106285715D01*
X118300000Y-106500000D01*
X118585714Y-106642858D01*
X118871429Y-106714286D01*
X119442857Y-106785715D01*
X119871429Y-106785715D01*
X120442857Y-106714286D01*
X120728571Y-106642858D01*
X121014286Y-106500000D01*
X121157143Y-106285715D01*
X121157143Y-105928572D01*
X125100000Y-102785714D02*
X125100000Y-103500000D01*
X125957143Y-102642857D02*
X122957143Y-103142857D01*
X125957143Y-103642857D01*
X129185714Y-103357143D02*
X129328571Y-103571429D01*
X129471429Y-103642857D01*
X129757143Y-103714286D01*
X130185714Y-103714286D01*
X130471429Y-103642857D01*
X130614286Y-103571429D01*
X130757143Y-103428571D01*
X130757143Y-102857143D01*
X127757143Y-102857143D01*
X127757143Y-103357143D01*
X127900000Y-103500000D01*
X128042857Y-103571429D01*
X128328571Y-103642857D01*
X128614286Y-103642857D01*
X128900000Y-103571429D01*
X129042857Y-103500000D01*
X129185714Y-103357143D01*
X129185714Y-102857143D01*
X132557143Y-102642857D02*
X135557143Y-103142857D01*
X132557143Y-103642857D01*
X135557143Y-104928571D02*
X135557143Y-104071428D01*
X135557143Y-104500000D02*
X132557143Y-104500000D01*
X132985714Y-104357143D01*
X133271429Y-104214285D01*
X133414286Y-104071428D01*
X132842857Y-105499999D02*
X132700000Y-105571428D01*
X132557143Y-105714285D01*
X132557143Y-106071428D01*
X132700000Y-106214285D01*
X132842857Y-106285714D01*
X133128571Y-106357142D01*
X133414286Y-106357142D01*
X133842857Y-106285714D01*
X135557143Y-105428571D01*
X135557143Y-106357142D01*
X114857143Y-122425000D02*
X115000000Y-122353571D01*
X115214286Y-122353571D01*
X115428571Y-122425000D01*
X115571429Y-122567857D01*
X115642857Y-122710714D01*
X115714286Y-122996429D01*
X115714286Y-123210714D01*
X115642857Y-123496429D01*
X115571429Y-123639286D01*
X115428571Y-123782143D01*
X115214286Y-123853571D01*
X115071429Y-123853571D01*
X114857143Y-123782143D01*
X114785714Y-123710714D01*
X114785714Y-123210714D01*
X115071429Y-123210714D01*
X114142857Y-123853571D02*
X114142857Y-122353571D01*
X113285714Y-123853571D01*
X113285714Y-122353571D01*
X112571428Y-123853571D02*
X112571428Y-122353571D01*
X112214285Y-122353571D01*
X112000000Y-122425000D01*
X111857142Y-122567857D01*
X111785714Y-122710714D01*
X111714285Y-122996429D01*
X111714285Y-123210714D01*
X111785714Y-123496429D01*
X111857142Y-123639286D01*
X112000000Y-123782143D01*
X112214285Y-123853571D01*
X112571428Y-123853571D01*
X114785714Y-126403571D02*
X115285714Y-125689286D01*
X115642857Y-126403571D02*
X115642857Y-124903571D01*
X115071429Y-124903571D01*
X114928571Y-124975000D01*
X114857143Y-125046429D01*
X114785714Y-125189286D01*
X114785714Y-125403571D01*
X114857143Y-125546429D01*
X114928571Y-125617857D01*
X115071429Y-125689286D01*
X115642857Y-125689286D01*
X113357143Y-126403571D02*
X114214286Y-126403571D01*
X113785714Y-126403571D02*
X113785714Y-124903571D01*
X113928571Y-125117857D01*
X114071429Y-125260714D01*
X114214286Y-125332143D01*
X114785714Y-128953571D02*
X115285714Y-128239286D01*
X115642857Y-128953571D02*
X115642857Y-127453571D01*
X115071429Y-127453571D01*
X114928571Y-127525000D01*
X114857143Y-127596429D01*
X114785714Y-127739286D01*
X114785714Y-127953571D01*
X114857143Y-128096429D01*
X114928571Y-128167857D01*
X115071429Y-128239286D01*
X115642857Y-128239286D01*
X114214286Y-127596429D02*
X114142857Y-127525000D01*
X114000000Y-127453571D01*
X113642857Y-127453571D01*
X113500000Y-127525000D01*
X113428571Y-127596429D01*
X113357143Y-127739286D01*
X113357143Y-127882143D01*
X113428571Y-128096429D01*
X114285714Y-128953571D01*
X113357143Y-128953571D01*
X115857143Y-130003571D02*
X115357143Y-131503571D01*
X114857143Y-130003571D01*
X114500000Y-130003571D02*
X113571429Y-130003571D01*
X114071429Y-130575000D01*
X113857143Y-130575000D01*
X113714286Y-130646429D01*
X113642857Y-130717857D01*
X113571429Y-130860714D01*
X113571429Y-131217857D01*
X113642857Y-131360714D01*
X113714286Y-131432143D01*
X113857143Y-131503571D01*
X114285715Y-131503571D01*
X114428572Y-131432143D01*
X114500000Y-131360714D01*
X113071429Y-130003571D02*
X112142858Y-130003571D01*
X112642858Y-130575000D01*
X112428572Y-130575000D01*
X112285715Y-130646429D01*
X112214286Y-130717857D01*
X112142858Y-130860714D01*
X112142858Y-131217857D01*
X112214286Y-131360714D01*
X112285715Y-131432143D01*
X112428572Y-131503571D01*
X112857144Y-131503571D01*
X113000001Y-131432143D01*
X113071429Y-131360714D01*
X125857143Y-118157143D02*
X125357143Y-121157143D01*
X124857143Y-118157143D01*
X123571429Y-121157143D02*
X124428572Y-121157143D01*
X124000000Y-121157143D02*
X124000000Y-118157143D01*
X124142857Y-118585714D01*
X124285715Y-118871429D01*
X124428572Y-119014286D01*
X123000001Y-118442857D02*
X122928572Y-118300000D01*
X122785715Y-118157143D01*
X122428572Y-118157143D01*
X122285715Y-118300000D01*
X122214286Y-118442857D01*
X122142858Y-118728571D01*
X122142858Y-119014286D01*
X122214286Y-119442857D01*
X123071429Y-121157143D01*
X122142858Y-121157143D01*
X124785714Y-125671429D02*
X124857143Y-125814286D01*
X125071429Y-125957143D01*
X125214286Y-125957143D01*
X125428571Y-125814286D01*
X125571429Y-125528571D01*
X125642857Y-125242857D01*
X125714286Y-124671429D01*
X125714286Y-124242857D01*
X125642857Y-123671429D01*
X125571429Y-123385714D01*
X125428571Y-123100000D01*
X125214286Y-122957143D01*
X125071429Y-122957143D01*
X124857143Y-123100000D01*
X124785714Y-123242857D01*
X123428571Y-125957143D02*
X124142857Y-125957143D01*
X124142857Y-122957143D01*
X122928571Y-125957143D02*
X122928571Y-122957143D01*
X122071428Y-125957143D02*
X122714285Y-124242857D01*
X122071428Y-122957143D02*
X122928571Y-124671429D01*
X125642857Y-130757143D02*
X125642857Y-127757143D01*
X125285714Y-127757143D01*
X125071429Y-127900000D01*
X124928571Y-128185714D01*
X124857143Y-128471429D01*
X124785714Y-129042857D01*
X124785714Y-129471429D01*
X124857143Y-130042857D01*
X124928571Y-130328571D01*
X125071429Y-130614286D01*
X125285714Y-130757143D01*
X125642857Y-130757143D01*
X124214286Y-129900000D02*
X123500000Y-129900000D01*
X124357143Y-130757143D02*
X123857143Y-127757143D01*
X123357143Y-130757143D01*
X123071429Y-127757143D02*
X122214286Y-127757143D01*
X122642857Y-130757143D02*
X122642857Y-127757143D01*
X124857143Y-132700000D02*
X125000000Y-132557143D01*
X125214286Y-132557143D01*
X125428571Y-132700000D01*
X125571429Y-132985714D01*
X125642857Y-133271429D01*
X125714286Y-133842857D01*
X125714286Y-134271429D01*
X125642857Y-134842857D01*
X125571429Y-135128571D01*
X125428571Y-135414286D01*
X125214286Y-135557143D01*
X125071429Y-135557143D01*
X124857143Y-135414286D01*
X124785714Y-135271429D01*
X124785714Y-134271429D01*
X125071429Y-134271429D01*
X124142857Y-135557143D02*
X124142857Y-132557143D01*
X123285714Y-135557143D01*
X123285714Y-132557143D01*
X122571428Y-135557143D02*
X122571428Y-132557143D01*
X122214285Y-132557143D01*
X122000000Y-132700000D01*
X121857142Y-132985714D01*
X121785714Y-133271429D01*
X121714285Y-133842857D01*
X121714285Y-134271429D01*
X121785714Y-134842857D01*
X121857142Y-135128571D01*
X122000000Y-135414286D01*
X122214285Y-135557143D01*
X122571428Y-135557143D01*
X135700000Y-153357143D02*
X135842857Y-153500000D01*
X135842857Y-153714286D01*
X135700000Y-153928571D01*
X135414286Y-154071429D01*
X135128571Y-154142857D01*
X134557143Y-154214286D01*
X134128571Y-154214286D01*
X133557143Y-154142857D01*
X133271429Y-154071429D01*
X132985714Y-153928571D01*
X132842857Y-153714286D01*
X132842857Y-153571429D01*
X132985714Y-153357143D01*
X133128571Y-153285714D01*
X134128571Y-153285714D01*
X134128571Y-153571429D01*
X132842857Y-152642857D02*
X135842857Y-152642857D01*
X132842857Y-151785714D01*
X135842857Y-151785714D01*
X132842857Y-151071428D02*
X135842857Y-151071428D01*
X135842857Y-150714285D01*
X135700000Y-150500000D01*
X135414286Y-150357142D01*
X135128571Y-150285714D01*
X134557143Y-150214285D01*
X134128571Y-150214285D01*
X133557143Y-150285714D01*
X133271429Y-150357142D01*
X132985714Y-150500000D01*
X132842857Y-150714285D01*
X132842857Y-151071428D01*
X128900000Y-150785715D02*
X128900000Y-150071429D01*
X128042857Y-150928572D02*
X131042857Y-150428572D01*
X128042857Y-149928572D01*
X124814286Y-150214286D02*
X124671429Y-150000000D01*
X124528571Y-149928572D01*
X124242857Y-149857143D01*
X123814286Y-149857143D01*
X123528571Y-149928572D01*
X123385714Y-150000000D01*
X123242857Y-150142858D01*
X123242857Y-150714286D01*
X126242857Y-150714286D01*
X126242857Y-150214286D01*
X126100000Y-150071429D01*
X125957143Y-150000000D01*
X125671429Y-149928572D01*
X125385714Y-149928572D01*
X125100000Y-150000000D01*
X124957143Y-150071429D01*
X124814286Y-150214286D01*
X124814286Y-150714286D01*
X121442857Y-150928572D02*
X118442857Y-150428572D01*
X121442857Y-149928572D01*
X118442857Y-148642858D02*
X118442857Y-149500001D01*
X118442857Y-149071429D02*
X121442857Y-149071429D01*
X121014286Y-149214286D01*
X120728571Y-149357144D01*
X120585714Y-149500001D01*
X121157143Y-148071430D02*
X121300000Y-148000001D01*
X121442857Y-147857144D01*
X121442857Y-147500001D01*
X121300000Y-147357144D01*
X121157143Y-147285715D01*
X120871429Y-147214287D01*
X120585714Y-147214287D01*
X120157143Y-147285715D01*
X118442857Y-148142858D01*
X118442857Y-147214287D01*
D12*
X99000000Y-93000000D02*
X111000000Y-93000000D01*
X99000000Y-101000000D02*
X99000000Y-93000000D01*
X111000000Y-101000000D02*
X99000000Y-101000000D01*
X111000000Y-93000000D02*
X111000000Y-101000000D01*
X100057143Y-123285714D02*
X100057143Y-122600000D01*
X100057143Y-122171428D02*
X100057143Y-121485714D01*
X101295238Y-121185714D02*
X99295238Y-120885714D01*
X101295238Y-120585714D01*
X101295238Y-120371428D02*
X101295238Y-119814285D01*
X100533333Y-120114285D01*
X100533333Y-119985713D01*
X100438095Y-119899999D01*
X100342857Y-119857142D01*
X100152381Y-119814285D01*
X99676190Y-119814285D01*
X99485714Y-119857142D01*
X99390476Y-119899999D01*
X99295238Y-119985713D01*
X99295238Y-120242856D01*
X99390476Y-120328570D01*
X99485714Y-120371428D01*
X101295238Y-119514285D02*
X101295238Y-118957142D01*
X100533333Y-119257142D01*
X100533333Y-119128570D01*
X100438095Y-119042856D01*
X100342857Y-118999999D01*
X100152381Y-118957142D01*
X99676190Y-118957142D01*
X99485714Y-118999999D01*
X99390476Y-119042856D01*
X99295238Y-119128570D01*
X99295238Y-119385713D01*
X99390476Y-119471427D01*
X99485714Y-119514285D01*
X96857143Y-123285714D02*
X96857143Y-122600000D01*
X96857143Y-122171428D02*
X96857143Y-121485714D01*
X96095238Y-121057142D02*
X98095238Y-121057142D01*
X96095238Y-120628571D02*
X98095238Y-120628571D01*
X98095238Y-120414286D01*
X98000000Y-120285714D01*
X97809524Y-120200000D01*
X97619048Y-120157143D01*
X97238095Y-120114286D01*
X96952381Y-120114286D01*
X96571429Y-120157143D01*
X96380952Y-120200000D01*
X96190476Y-120285714D01*
X96095238Y-120414286D01*
X96095238Y-120628571D01*
X93657143Y-123285714D02*
X93657143Y-122600000D01*
X93657143Y-122171428D02*
X93657143Y-121485714D01*
X94800000Y-120585714D02*
X94895238Y-120671428D01*
X94895238Y-120799999D01*
X94800000Y-120928571D01*
X94609524Y-121014285D01*
X94419048Y-121057142D01*
X94038095Y-121099999D01*
X93752381Y-121099999D01*
X93371429Y-121057142D01*
X93180952Y-121014285D01*
X92990476Y-120928571D01*
X92895238Y-120799999D01*
X92895238Y-120714285D01*
X92990476Y-120585714D01*
X93085714Y-120542857D01*
X93752381Y-120542857D01*
X93752381Y-120714285D01*
X92895238Y-120157142D02*
X94895238Y-120157142D01*
X92895238Y-119642857D01*
X94895238Y-119642857D01*
X92895238Y-119214285D02*
X94895238Y-119214285D01*
X94895238Y-119000000D01*
X94800000Y-118871428D01*
X94609524Y-118785714D01*
X94419048Y-118742857D01*
X94038095Y-118700000D01*
X93752381Y-118700000D01*
X93371429Y-118742857D01*
X93180952Y-118785714D01*
X92990476Y-118871428D01*
X92895238Y-119000000D01*
X92895238Y-119214285D01*
X142500000Y-152500000D02*
X142500000Y-160500000D01*
X154500000Y-152500000D02*
X142500000Y-152500000D01*
X154500000Y-160500000D02*
X154500000Y-152500000D01*
X142500000Y-160500000D02*
X154500000Y-160500000D01*
X106300001Y-124465476D02*
X106261906Y-124375000D01*
X106185715Y-124284524D01*
X105995239Y-124284524D01*
X105919049Y-124375000D01*
X105880953Y-124465476D01*
X105842858Y-124646429D01*
X105842858Y-124827381D01*
X105880953Y-125098810D01*
X106338096Y-126184524D01*
X105842858Y-126184524D01*
X105614287Y-124465476D02*
X105461906Y-124194048D01*
X105309525Y-124465476D01*
X104890477Y-124284524D02*
X104814286Y-124284524D01*
X104738096Y-124375000D01*
X104700001Y-124465476D01*
X104661905Y-124646429D01*
X104623810Y-125008333D01*
X104623810Y-125460714D01*
X104661905Y-125822619D01*
X104700001Y-126003571D01*
X104738096Y-126094048D01*
X104814286Y-126184524D01*
X104890477Y-126184524D01*
X104966667Y-126094048D01*
X105004763Y-126003571D01*
X105042858Y-125822619D01*
X105080953Y-125460714D01*
X105080953Y-125008333D01*
X105042858Y-124646429D01*
X105004763Y-124465476D01*
X104966667Y-124375000D01*
X104890477Y-124284524D01*
X104280953Y-125189286D02*
X103671429Y-125189286D01*
X103671429Y-125732143D02*
X104280953Y-125732143D01*
X101652381Y-126184524D02*
X102109524Y-126184524D01*
X101880953Y-126184524D02*
X101880953Y-124284524D01*
X101957143Y-124555952D01*
X102033334Y-124736905D01*
X102109524Y-124827381D01*
X106300001Y-127515476D02*
X106261906Y-127425000D01*
X106185715Y-127334524D01*
X105995239Y-127334524D01*
X105919049Y-127425000D01*
X105880953Y-127515476D01*
X105842858Y-127696429D01*
X105842858Y-127877381D01*
X105880953Y-128148810D01*
X106338096Y-129234524D01*
X105842858Y-129234524D01*
X105614287Y-127515476D02*
X105461906Y-127244048D01*
X105309525Y-127515476D01*
X104623810Y-129234524D02*
X105080953Y-129234524D01*
X104852382Y-129234524D02*
X104852382Y-127334524D01*
X104928572Y-127605952D01*
X105004763Y-127786905D01*
X105080953Y-127877381D01*
X104280953Y-128239286D02*
X103671429Y-128239286D01*
X103671429Y-128782143D02*
X104280953Y-128782143D01*
X102109524Y-127515476D02*
X102071429Y-127425000D01*
X101995238Y-127334524D01*
X101804762Y-127334524D01*
X101728572Y-127425000D01*
X101690476Y-127515476D01*
X101652381Y-127696429D01*
X101652381Y-127877381D01*
X101690476Y-128148810D01*
X102147619Y-129234524D01*
X101652381Y-129234524D01*
X106300001Y-130565476D02*
X106261906Y-130475000D01*
X106185715Y-130384524D01*
X105995239Y-130384524D01*
X105919049Y-130475000D01*
X105880953Y-130565476D01*
X105842858Y-130746429D01*
X105842858Y-130927381D01*
X105880953Y-131198810D01*
X106338096Y-132284524D01*
X105842858Y-132284524D01*
X105614287Y-130565476D02*
X105461906Y-130294048D01*
X105309525Y-130565476D01*
X105080953Y-130565476D02*
X105042858Y-130475000D01*
X104966667Y-130384524D01*
X104776191Y-130384524D01*
X104700001Y-130475000D01*
X104661905Y-130565476D01*
X104623810Y-130746429D01*
X104623810Y-130927381D01*
X104661905Y-131198810D01*
X105119048Y-132284524D01*
X104623810Y-132284524D01*
X104280953Y-131289286D02*
X103671429Y-131289286D01*
X103671429Y-131832143D02*
X104280953Y-131832143D01*
X101728572Y-131017857D02*
X101728572Y-132284524D01*
X101919048Y-130294048D02*
X102109524Y-131651190D01*
X101614286Y-131651190D01*
X106300001Y-133615476D02*
X106261906Y-133525000D01*
X106185715Y-133434524D01*
X105995239Y-133434524D01*
X105919049Y-133525000D01*
X105880953Y-133615476D01*
X105842858Y-133796429D01*
X105842858Y-133977381D01*
X105880953Y-134248810D01*
X106338096Y-135334524D01*
X105842858Y-135334524D01*
X105614287Y-133615476D02*
X105461906Y-133344048D01*
X105309525Y-133615476D01*
X105119048Y-133434524D02*
X104623810Y-133434524D01*
X104890477Y-134158333D01*
X104776191Y-134158333D01*
X104700001Y-134248810D01*
X104661905Y-134339286D01*
X104623810Y-134520238D01*
X104623810Y-134972619D01*
X104661905Y-135153571D01*
X104700001Y-135244048D01*
X104776191Y-135334524D01*
X105004763Y-135334524D01*
X105080953Y-135244048D01*
X105119048Y-135153571D01*
X104280953Y-134339286D02*
X103671429Y-134339286D01*
X103671429Y-134882143D02*
X104280953Y-134882143D01*
X101957143Y-134248810D02*
X102033334Y-134158333D01*
X102071429Y-134067857D01*
X102109524Y-133886905D01*
X102109524Y-133796429D01*
X102071429Y-133615476D01*
X102033334Y-133525000D01*
X101957143Y-133434524D01*
X101804762Y-133434524D01*
X101728572Y-133525000D01*
X101690476Y-133615476D01*
X101652381Y-133796429D01*
X101652381Y-133886905D01*
X101690476Y-134067857D01*
X101728572Y-134158333D01*
X101804762Y-134248810D01*
X101957143Y-134248810D01*
X102033334Y-134339286D01*
X102071429Y-134429762D01*
X102109524Y-134610714D01*
X102109524Y-134972619D01*
X102071429Y-135153571D01*
X102033334Y-135244048D01*
X101957143Y-135334524D01*
X101804762Y-135334524D01*
X101728572Y-135244048D01*
X101690476Y-135153571D01*
X101652381Y-134972619D01*
X101652381Y-134610714D01*
X101690476Y-134429762D01*
X101728572Y-134339286D01*
X101804762Y-134248810D01*
X106452382Y-136665476D02*
X106414287Y-136575000D01*
X106338096Y-136484524D01*
X106147620Y-136484524D01*
X106071430Y-136575000D01*
X106033334Y-136665476D01*
X105995239Y-136846429D01*
X105995239Y-137027381D01*
X106033334Y-137298810D01*
X106490477Y-138384524D01*
X105995239Y-138384524D01*
X105766668Y-136665476D02*
X105614287Y-136394048D01*
X105461906Y-136665476D01*
X104852382Y-137117857D02*
X104852382Y-138384524D01*
X105042858Y-136394048D02*
X105233334Y-137751190D01*
X104738096Y-137751190D01*
X104433334Y-137389286D02*
X103823810Y-137389286D01*
X103823810Y-137932143D02*
X104433334Y-137932143D01*
X102414286Y-138384524D02*
X102871429Y-138384524D01*
X102642858Y-138384524D02*
X102642858Y-136484524D01*
X102719048Y-136755952D01*
X102795239Y-136936905D01*
X102871429Y-137027381D01*
X101728572Y-136484524D02*
X101880953Y-136484524D01*
X101957143Y-136575000D01*
X101995238Y-136665476D01*
X102071429Y-136936905D01*
X102109524Y-137298810D01*
X102109524Y-138022619D01*
X102071429Y-138203571D01*
X102033334Y-138294048D01*
X101957143Y-138384524D01*
X101804762Y-138384524D01*
X101728572Y-138294048D01*
X101690476Y-138203571D01*
X101652381Y-138022619D01*
X101652381Y-137570238D01*
X101690476Y-137389286D01*
X101728572Y-137298810D01*
X101804762Y-137208333D01*
X101957143Y-137208333D01*
X102033334Y-137298810D01*
X102071429Y-137389286D01*
X102109524Y-137570238D01*
X106452382Y-139715476D02*
X106414287Y-139625000D01*
X106338096Y-139534524D01*
X106147620Y-139534524D01*
X106071430Y-139625000D01*
X106033334Y-139715476D01*
X105995239Y-139896429D01*
X105995239Y-140077381D01*
X106033334Y-140348810D01*
X106490477Y-141434524D01*
X105995239Y-141434524D01*
X105766668Y-139715476D02*
X105614287Y-139444048D01*
X105461906Y-139715476D01*
X104814286Y-139534524D02*
X105195239Y-139534524D01*
X105233334Y-140439286D01*
X105195239Y-140348810D01*
X105119048Y-140258333D01*
X104928572Y-140258333D01*
X104852382Y-140348810D01*
X104814286Y-140439286D01*
X104776191Y-140620238D01*
X104776191Y-141072619D01*
X104814286Y-141253571D01*
X104852382Y-141344048D01*
X104928572Y-141434524D01*
X105119048Y-141434524D01*
X105195239Y-141344048D01*
X105233334Y-141253571D01*
X104433334Y-140439286D02*
X103823810Y-140439286D01*
X103823810Y-140982143D02*
X104433334Y-140982143D01*
X102909524Y-139534524D02*
X102414286Y-139534524D01*
X102680953Y-140258333D01*
X102566667Y-140258333D01*
X102490477Y-140348810D01*
X102452381Y-140439286D01*
X102414286Y-140620238D01*
X102414286Y-141072619D01*
X102452381Y-141253571D01*
X102490477Y-141344048D01*
X102566667Y-141434524D01*
X102795239Y-141434524D01*
X102871429Y-141344048D01*
X102909524Y-141253571D01*
X102109524Y-139715476D02*
X102071429Y-139625000D01*
X101995238Y-139534524D01*
X101804762Y-139534524D01*
X101728572Y-139625000D01*
X101690476Y-139715476D01*
X101652381Y-139896429D01*
X101652381Y-140077381D01*
X101690476Y-140348810D01*
X102147619Y-141434524D01*
X101652381Y-141434524D01*
X106452382Y-142765476D02*
X106414287Y-142675000D01*
X106338096Y-142584524D01*
X106147620Y-142584524D01*
X106071430Y-142675000D01*
X106033334Y-142765476D01*
X105995239Y-142946429D01*
X105995239Y-143127381D01*
X106033334Y-143398810D01*
X106490477Y-144484524D01*
X105995239Y-144484524D01*
X105766668Y-142765476D02*
X105614287Y-142494048D01*
X105461906Y-142765476D01*
X104852382Y-142584524D02*
X105004763Y-142584524D01*
X105080953Y-142675000D01*
X105119048Y-142765476D01*
X105195239Y-143036905D01*
X105233334Y-143398810D01*
X105233334Y-144122619D01*
X105195239Y-144303571D01*
X105157144Y-144394048D01*
X105080953Y-144484524D01*
X104928572Y-144484524D01*
X104852382Y-144394048D01*
X104814286Y-144303571D01*
X104776191Y-144122619D01*
X104776191Y-143670238D01*
X104814286Y-143489286D01*
X104852382Y-143398810D01*
X104928572Y-143308333D01*
X105080953Y-143308333D01*
X105157144Y-143398810D01*
X105195239Y-143489286D01*
X105233334Y-143670238D01*
X104433334Y-143489286D02*
X103823810Y-143489286D01*
X103823810Y-144032143D02*
X104433334Y-144032143D01*
X102490477Y-142584524D02*
X102642858Y-142584524D01*
X102719048Y-142675000D01*
X102757143Y-142765476D01*
X102833334Y-143036905D01*
X102871429Y-143398810D01*
X102871429Y-144122619D01*
X102833334Y-144303571D01*
X102795239Y-144394048D01*
X102719048Y-144484524D01*
X102566667Y-144484524D01*
X102490477Y-144394048D01*
X102452381Y-144303571D01*
X102414286Y-144122619D01*
X102414286Y-143670238D01*
X102452381Y-143489286D01*
X102490477Y-143398810D01*
X102566667Y-143308333D01*
X102719048Y-143308333D01*
X102795239Y-143398810D01*
X102833334Y-143489286D01*
X102871429Y-143670238D01*
X101728572Y-143217857D02*
X101728572Y-144484524D01*
X101919048Y-142494048D02*
X102109524Y-143851190D01*
X101614286Y-143851190D01*
X106604763Y-145815476D02*
X106566668Y-145725000D01*
X106490477Y-145634524D01*
X106300001Y-145634524D01*
X106223811Y-145725000D01*
X106185715Y-145815476D01*
X106147620Y-145996429D01*
X106147620Y-146177381D01*
X106185715Y-146448810D01*
X106642858Y-147534524D01*
X106147620Y-147534524D01*
X105919049Y-145815476D02*
X105766668Y-145544048D01*
X105614287Y-145815476D01*
X105423810Y-145634524D02*
X104890477Y-145634524D01*
X105233334Y-147534524D01*
X104585715Y-146539286D02*
X103976191Y-146539286D01*
X103976191Y-147082143D02*
X104585715Y-147082143D01*
X103176191Y-147534524D02*
X103633334Y-147534524D01*
X103404763Y-147534524D02*
X103404763Y-145634524D01*
X103480953Y-145905952D01*
X103557144Y-146086905D01*
X103633334Y-146177381D01*
X102871429Y-145815476D02*
X102833334Y-145725000D01*
X102757143Y-145634524D01*
X102566667Y-145634524D01*
X102490477Y-145725000D01*
X102452381Y-145815476D01*
X102414286Y-145996429D01*
X102414286Y-146177381D01*
X102452381Y-146448810D01*
X102909524Y-147534524D01*
X102414286Y-147534524D01*
X101957143Y-146448810D02*
X102033334Y-146358333D01*
X102071429Y-146267857D01*
X102109524Y-146086905D01*
X102109524Y-145996429D01*
X102071429Y-145815476D01*
X102033334Y-145725000D01*
X101957143Y-145634524D01*
X101804762Y-145634524D01*
X101728572Y-145725000D01*
X101690476Y-145815476D01*
X101652381Y-145996429D01*
X101652381Y-146086905D01*
X101690476Y-146267857D01*
X101728572Y-146358333D01*
X101804762Y-146448810D01*
X101957143Y-146448810D01*
X102033334Y-146539286D01*
X102071429Y-146629762D01*
X102109524Y-146810714D01*
X102109524Y-147172619D01*
X102071429Y-147353571D01*
X102033334Y-147444048D01*
X101957143Y-147534524D01*
X101804762Y-147534524D01*
X101728572Y-147444048D01*
X101690476Y-147353571D01*
X101652381Y-147172619D01*
X101652381Y-146810714D01*
X101690476Y-146629762D01*
X101728572Y-146539286D01*
X101804762Y-146448810D01*
D13*
X145999000Y-156525000D02*
X138001000Y-156525000D01*
X145994000Y-156385000D02*
X138006000Y-156385000D01*
X145984000Y-156245000D02*
X138016000Y-156245000D01*
X145969000Y-156105000D02*
X138031000Y-156105000D01*
X145949000Y-155965000D02*
X138051000Y-155965000D01*
X145924000Y-155825000D02*
X138076000Y-155825000D01*
X145894000Y-155685000D02*
X142173000Y-155685000D01*
X141827000Y-155685000D02*
X138106000Y-155685000D01*
X145858000Y-155545000D02*
X142535000Y-155545000D01*
X141465000Y-155545000D02*
X138142000Y-155545000D01*
X145817000Y-155405000D02*
X142709000Y-155405000D01*
X141291000Y-155405000D02*
X138183000Y-155405000D01*
X145771000Y-155265000D02*
X142825000Y-155265000D01*
X141175000Y-155265000D02*
X138229000Y-155265000D01*
X145718000Y-155125000D02*
X142905000Y-155125000D01*
X141095000Y-155125000D02*
X138282000Y-155125000D01*
X145659000Y-154985000D02*
X142959000Y-154985000D01*
X141041000Y-154985000D02*
X138341000Y-154985000D01*
X145594000Y-154845000D02*
X142989000Y-154845000D01*
X141011000Y-154845000D02*
X138406000Y-154845000D01*
X145523000Y-154705000D02*
X143000000Y-154705000D01*
X141000000Y-154705000D02*
X138477000Y-154705000D01*
X145444000Y-154565000D02*
X142991000Y-154565000D01*
X141009000Y-154565000D02*
X138556000Y-154565000D01*
X145357000Y-154425000D02*
X142961000Y-154425000D01*
X141039000Y-154425000D02*
X138643000Y-154425000D01*
X145262000Y-154285000D02*
X142910000Y-154285000D01*
X141090000Y-154285000D02*
X138738000Y-154285000D01*
X145158000Y-154145000D02*
X142832000Y-154145000D01*
X141168000Y-154145000D02*
X138842000Y-154145000D01*
X145044000Y-154005000D02*
X142719000Y-154005000D01*
X141281000Y-154005000D02*
X138956000Y-154005000D01*
X144919000Y-153865000D02*
X142550000Y-153865000D01*
X141450000Y-153865000D02*
X139081000Y-153865000D01*
X144781000Y-153725000D02*
X142222000Y-153725000D01*
X141778000Y-153725000D02*
X139219000Y-153725000D01*
X144629000Y-153585000D02*
X139371000Y-153585000D01*
X144459000Y-153445000D02*
X139541000Y-153445000D01*
X144268000Y-153305000D02*
X139732000Y-153305000D01*
X144050000Y-153165000D02*
X139950000Y-153165000D01*
X143794000Y-153025000D02*
X140206000Y-153025000D01*
X143483000Y-152885000D02*
X140517000Y-152885000D01*
X143067000Y-152745000D02*
X140933000Y-152745000D01*
X142200000Y-152605000D02*
X141800000Y-152605000D01*
X143000000Y-154700000D02*
G75*
G03X143000000Y-154700000I-1000000J0D01*
G01*
X146037500Y-156600000D02*
G75*
G03X146037500Y-156600000I-4037500J0D01*
G01*
X160040000Y-147500000D02*
G75*
G03X160040000Y-147500000I-2540000J0D01*
G01*
X161310000Y-151310000D02*
X161310000Y-143690000D01*
X161310000Y-143690000D02*
X153690000Y-143690000D01*
X153690000Y-143690000D02*
X153690000Y-151310000D01*
X161310000Y-151310000D02*
X153690000Y-151310000D01*
X150540000Y-142000000D02*
G75*
G03X150540000Y-142000000I-2540000J0D01*
G01*
X151810000Y-145810000D02*
X151810000Y-138190000D01*
X151810000Y-138190000D02*
X144190000Y-138190000D01*
X144190000Y-138190000D02*
X144190000Y-145810000D01*
X151810000Y-145810000D02*
X144190000Y-145810000D01*
X108001000Y-96975000D02*
X115999000Y-96975000D01*
X108006000Y-97115000D02*
X115994000Y-97115000D01*
X108016000Y-97255000D02*
X115984000Y-97255000D01*
X108031000Y-97395000D02*
X115969000Y-97395000D01*
X108051000Y-97535000D02*
X115949000Y-97535000D01*
X108076000Y-97675000D02*
X115924000Y-97675000D01*
X108106000Y-97815000D02*
X111827000Y-97815000D01*
X112173000Y-97815000D02*
X115894000Y-97815000D01*
X108142000Y-97955000D02*
X111465000Y-97955000D01*
X112535000Y-97955000D02*
X115858000Y-97955000D01*
X108183000Y-98095000D02*
X111291000Y-98095000D01*
X112709000Y-98095000D02*
X115817000Y-98095000D01*
X108229000Y-98235000D02*
X111175000Y-98235000D01*
X112825000Y-98235000D02*
X115771000Y-98235000D01*
X108282000Y-98375000D02*
X111095000Y-98375000D01*
X112905000Y-98375000D02*
X115718000Y-98375000D01*
X108341000Y-98515000D02*
X111041000Y-98515000D01*
X112959000Y-98515000D02*
X115659000Y-98515000D01*
X108406000Y-98655000D02*
X111011000Y-98655000D01*
X112989000Y-98655000D02*
X115594000Y-98655000D01*
X108477000Y-98795000D02*
X111000000Y-98795000D01*
X113000000Y-98795000D02*
X115523000Y-98795000D01*
X108556000Y-98935000D02*
X111009000Y-98935000D01*
X112991000Y-98935000D02*
X115444000Y-98935000D01*
X108643000Y-99075000D02*
X111039000Y-99075000D01*
X112961000Y-99075000D02*
X115357000Y-99075000D01*
X108738000Y-99215000D02*
X111090000Y-99215000D01*
X112910000Y-99215000D02*
X115262000Y-99215000D01*
X108842000Y-99355000D02*
X111168000Y-99355000D01*
X112832000Y-99355000D02*
X115158000Y-99355000D01*
X108956000Y-99495000D02*
X111281000Y-99495000D01*
X112719000Y-99495000D02*
X115044000Y-99495000D01*
X109081000Y-99635000D02*
X111450000Y-99635000D01*
X112550000Y-99635000D02*
X114919000Y-99635000D01*
X109219000Y-99775000D02*
X111778000Y-99775000D01*
X112222000Y-99775000D02*
X114781000Y-99775000D01*
X109371000Y-99915000D02*
X114629000Y-99915000D01*
X109541000Y-100055000D02*
X114459000Y-100055000D01*
X109732000Y-100195000D02*
X114268000Y-100195000D01*
X109950000Y-100335000D02*
X114050000Y-100335000D01*
X110206000Y-100475000D02*
X113794000Y-100475000D01*
X110517000Y-100615000D02*
X113483000Y-100615000D01*
X110933000Y-100755000D02*
X113067000Y-100755000D01*
X111800000Y-100895000D02*
X112200000Y-100895000D01*
X113000000Y-98800000D02*
G75*
G03X113000000Y-98800000I-1000000J0D01*
G01*
X116037500Y-96900000D02*
G75*
G03X116037500Y-96900000I-4037500J0D01*
G01*
X125750000Y-158246000D02*
X125750000Y-161040000D01*
X125750000Y-161040000D02*
X123210000Y-161040000D01*
X123210000Y-161040000D02*
X123210000Y-158246000D01*
X126562800Y-155071000D02*
X126562800Y-152531000D01*
X126562800Y-152531000D02*
X122498800Y-152531000D01*
X122498800Y-152531000D02*
X122498800Y-155071000D01*
X122498800Y-155071000D02*
X126562800Y-155071000D01*
X126156400Y-154055000D02*
X123108400Y-153420000D01*
X126029400Y-154182000D02*
X122981400Y-153547000D01*
X123062028Y-154414570D02*
G75*
G02X123009340Y-153447940I452772J509430D01*
G01*
X126004728Y-154334896D02*
G75*
G02X123016960Y-154382660I-1524728J1905496D01*
G01*
X123005589Y-153443156D02*
G75*
G02X126156400Y-153496200I1553151J-1348444D01*
G01*
X126105097Y-153446519D02*
G75*
G02X125963360Y-154372500I-431297J-407821D01*
G01*
X126512000Y-162818000D02*
X122448000Y-162818000D01*
X122448000Y-164723000D02*
X122448000Y-158246000D01*
X126131000Y-159008000D02*
X125750000Y-159008000D01*
X126131000Y-159008000D02*
X126131000Y-162183000D01*
X126131000Y-162183000D02*
X122829000Y-162183000D01*
X122829000Y-162183000D02*
X122829000Y-159008000D01*
X122829000Y-159008000D02*
X123210000Y-159008000D01*
X121990000Y-157865000D02*
X116910000Y-157865000D01*
X126512000Y-164723000D02*
X126512000Y-158246000D01*
X126512000Y-158246000D02*
X122448000Y-158246000D01*
X117545000Y-164723000D02*
X121482000Y-164723000D01*
X121332000Y-164723000D02*
X127428000Y-164723000D01*
X116910000Y-155452000D02*
X137080000Y-155452000D01*
X116760000Y-152277000D02*
X137080000Y-152277000D01*
X121840000Y-157865000D02*
X137016500Y-157865000D01*
X121545500Y-162500500D02*
X121545500Y-158246000D01*
X121075097Y-153446519D02*
G75*
G02X120933360Y-154372500I-431297J-407821D01*
G01*
X117975589Y-153443156D02*
G75*
G02X121126400Y-153496200I1553151J-1348444D01*
G01*
X120974728Y-154334896D02*
G75*
G02X117986960Y-154382660I-1524728J1905496D01*
G01*
X118032028Y-154414570D02*
G75*
G02X117979340Y-153447940I452772J509430D01*
G01*
X121151800Y-158246000D02*
X117849800Y-158246000D01*
X121532800Y-158246000D02*
X121151800Y-158246000D01*
X117468800Y-158246000D02*
X117849800Y-158246000D01*
X120999400Y-154182000D02*
X117951400Y-153547000D01*
X121126400Y-154055000D02*
X118078400Y-153420000D01*
X117468800Y-155071000D02*
X121532800Y-155071000D01*
X117468800Y-152531000D02*
X117468800Y-155071000D01*
X121532800Y-152531000D02*
X117468800Y-152531000D01*
X121532800Y-155071000D02*
X121532800Y-152531000D01*
X116910000Y-155325000D02*
X116910000Y-156849000D01*
X116910000Y-157865000D02*
X116910000Y-162564000D01*
X116910000Y-156849000D02*
X116910000Y-157865000D01*
X117849800Y-159008000D02*
X118230800Y-159008000D01*
X121151800Y-159008000D02*
X120770800Y-159008000D01*
X121151800Y-162183000D02*
X121151800Y-159008000D01*
X117849800Y-162183000D02*
X121151800Y-162183000D01*
X117849800Y-162183000D02*
X117849800Y-159008000D01*
X117468800Y-162818000D02*
X117468800Y-164723000D01*
X121532800Y-162818000D02*
X117468800Y-162818000D01*
X117468800Y-164723000D02*
X116910000Y-164723000D01*
X117468800Y-158246000D02*
X117468800Y-162818000D01*
X121532800Y-164723000D02*
X121532800Y-162818000D01*
X116402000Y-162310000D02*
X116402000Y-163961000D01*
X116910000Y-162564000D02*
X116910000Y-163707000D01*
X116402000Y-162310000D02*
X116910000Y-162564000D01*
X116910000Y-163707000D02*
X116910000Y-164723000D01*
X116402000Y-163961000D02*
X116910000Y-163707000D01*
X116402000Y-157103000D02*
X116910000Y-156849000D01*
X116402000Y-152277000D02*
X116402000Y-157103000D01*
X116910000Y-152277000D02*
X116402000Y-152277000D01*
X116910000Y-152277000D02*
X116910000Y-155325000D01*
X120770800Y-161040000D02*
X120770800Y-158246000D01*
X120770800Y-158246000D02*
X118230800Y-158246000D01*
X118230800Y-161040000D02*
X118230800Y-158246000D01*
X120770800Y-161040000D02*
X118230800Y-161040000D01*
X135784600Y-161040000D02*
X133244600Y-161040000D01*
X133244600Y-161040000D02*
X133244600Y-158246000D01*
X135784600Y-158246000D02*
X133244600Y-158246000D01*
X135784600Y-161040000D02*
X135784600Y-158246000D01*
X130780800Y-161040000D02*
X128240800Y-161040000D01*
X128240800Y-161040000D02*
X128240800Y-158246000D01*
X130780800Y-158246000D02*
X128240800Y-158246000D01*
X130780800Y-161040000D02*
X130780800Y-158246000D01*
X121545500Y-163707000D02*
X121545500Y-164723000D01*
X121545500Y-162564000D02*
X121545500Y-163707000D01*
X131542800Y-164723000D02*
X131542800Y-162818000D01*
X127478800Y-158246000D02*
X127478800Y-162818000D01*
X131542800Y-164723000D02*
X127478800Y-164723000D01*
X132482600Y-164723000D02*
X132482600Y-162818000D01*
X132482600Y-164723000D02*
X131542800Y-164723000D01*
X136546600Y-158246000D02*
X136546600Y-162818000D01*
X137080000Y-164723000D02*
X136546600Y-164723000D01*
X136546600Y-164723000D02*
X132482600Y-164723000D01*
X131542800Y-162818000D02*
X127478800Y-162818000D01*
X131542800Y-162818000D02*
X131542800Y-158246000D01*
X127478800Y-162818000D02*
X127478800Y-164723000D01*
X132482600Y-162818000D02*
X136546600Y-162818000D01*
X132482600Y-162818000D02*
X132482600Y-158246000D01*
X136546600Y-162818000D02*
X136546600Y-164723000D01*
X127859800Y-162183000D02*
X127859800Y-159008000D01*
X127859800Y-162183000D02*
X131161800Y-162183000D01*
X131161800Y-162183000D02*
X131161800Y-159008000D01*
X132863600Y-162183000D02*
X132863600Y-159008000D01*
X132863600Y-162183000D02*
X136165600Y-162183000D01*
X136165600Y-162183000D02*
X136165600Y-159008000D01*
X136165600Y-159008000D02*
X135784600Y-159008000D01*
X132863600Y-159008000D02*
X133244600Y-159008000D01*
X131161800Y-159008000D02*
X130780800Y-159008000D01*
X127859800Y-159008000D02*
X128240800Y-159008000D01*
X137080000Y-164723000D02*
X137080000Y-157865000D01*
X137080000Y-157865000D02*
X137080000Y-155325000D01*
X137080000Y-155325000D02*
X137080000Y-152277000D01*
X131542800Y-155071000D02*
X131542800Y-152531000D01*
X131542800Y-152531000D02*
X127478800Y-152531000D01*
X127478800Y-152531000D02*
X127478800Y-155071000D01*
X127478800Y-155071000D02*
X131542800Y-155071000D01*
X132482600Y-155071000D02*
X132482600Y-152531000D01*
X132482600Y-155071000D02*
X136546600Y-155071000D01*
X136546600Y-155071000D02*
X136546600Y-152531000D01*
X132482600Y-152531000D02*
X136546600Y-152531000D01*
X131136400Y-154055000D02*
X128088400Y-153420000D01*
X131009400Y-154182000D02*
X127961400Y-153547000D01*
X136140200Y-154055000D02*
X133089660Y-153420000D01*
X136013200Y-154182000D02*
X132965200Y-153547000D01*
X136546600Y-158246000D02*
X136165600Y-158246000D01*
X132482600Y-158246000D02*
X132863600Y-158246000D01*
X132863600Y-158246000D02*
X136165600Y-158246000D01*
X127478800Y-158246000D02*
X127859800Y-158246000D01*
X131542800Y-158246000D02*
X131161800Y-158246000D01*
X131161800Y-158246000D02*
X127859800Y-158246000D01*
X128042028Y-154414570D02*
G75*
G02X127989340Y-153447940I452772J509430D01*
G01*
X130984728Y-154334896D02*
G75*
G02X127996960Y-154382660I-1524728J1905496D01*
G01*
X127985589Y-153443156D02*
G75*
G02X131136400Y-153496200I1553151J-1348444D01*
G01*
X131085097Y-153446519D02*
G75*
G02X130943360Y-154372500I-431297J-407821D01*
G01*
X133045851Y-154417110D02*
G75*
G02X132990600Y-153447940I452749J511970D01*
G01*
X135985988Y-154334896D02*
G75*
G02X132998220Y-154382660I-1524728J1905496D01*
G01*
X132983427Y-153438153D02*
G75*
G02X136140200Y-153496200I1554033J-1353447D01*
G01*
X136089520Y-153448981D02*
G75*
G02X135944620Y-154372500I-431920J-405359D01*
G01*
X128250000Y-95754000D02*
X128250000Y-92960000D01*
X128250000Y-92960000D02*
X130790000Y-92960000D01*
X130790000Y-92960000D02*
X130790000Y-95754000D01*
X127437200Y-98929000D02*
X127437200Y-101469000D01*
X127437200Y-101469000D02*
X131501200Y-101469000D01*
X131501200Y-101469000D02*
X131501200Y-98929000D01*
X131501200Y-98929000D02*
X127437200Y-98929000D01*
X127843600Y-99945000D02*
X130891600Y-100580000D01*
X127970600Y-99818000D02*
X131018600Y-100453000D01*
X130937972Y-99585430D02*
G75*
G02X130990660Y-100552060I-452772J-509430D01*
G01*
X127995272Y-99665104D02*
G75*
G02X130983040Y-99617340I1524728J-1905496D01*
G01*
X130994411Y-100556844D02*
G75*
G02X127843600Y-100503800I-1553151J1348444D01*
G01*
X127894903Y-100553481D02*
G75*
G02X128036640Y-99627500I431297J407821D01*
G01*
X127488000Y-91182000D02*
X131552000Y-91182000D01*
X131552000Y-89277000D02*
X131552000Y-95754000D01*
X127869000Y-94992000D02*
X128250000Y-94992000D01*
X127869000Y-94992000D02*
X127869000Y-91817000D01*
X127869000Y-91817000D02*
X131171000Y-91817000D01*
X131171000Y-91817000D02*
X131171000Y-94992000D01*
X131171000Y-94992000D02*
X130790000Y-94992000D01*
X132010000Y-96135000D02*
X137090000Y-96135000D01*
X127488000Y-89277000D02*
X127488000Y-95754000D01*
X127488000Y-95754000D02*
X131552000Y-95754000D01*
X136455000Y-89277000D02*
X132518000Y-89277000D01*
X132668000Y-89277000D02*
X126572000Y-89277000D01*
X137090000Y-98548000D02*
X116920000Y-98548000D01*
X137240000Y-101723000D02*
X116920000Y-101723000D01*
X132160000Y-96135000D02*
X116983500Y-96135000D01*
X132454500Y-91499500D02*
X132454500Y-95754000D01*
X132924903Y-100553481D02*
G75*
G02X133066640Y-99627500I431297J407821D01*
G01*
X136024411Y-100556844D02*
G75*
G02X132873600Y-100503800I-1553151J1348444D01*
G01*
X133025272Y-99665104D02*
G75*
G02X136013040Y-99617340I1524728J-1905496D01*
G01*
X135967972Y-99585430D02*
G75*
G02X136020660Y-100552060I-452772J-509430D01*
G01*
X132848200Y-95754000D02*
X136150200Y-95754000D01*
X132467200Y-95754000D02*
X132848200Y-95754000D01*
X136531200Y-95754000D02*
X136150200Y-95754000D01*
X133000600Y-99818000D02*
X136048600Y-100453000D01*
X132873600Y-99945000D02*
X135921600Y-100580000D01*
X136531200Y-98929000D02*
X132467200Y-98929000D01*
X136531200Y-101469000D02*
X136531200Y-98929000D01*
X132467200Y-101469000D02*
X136531200Y-101469000D01*
X132467200Y-98929000D02*
X132467200Y-101469000D01*
X137090000Y-98675000D02*
X137090000Y-97151000D01*
X137090000Y-96135000D02*
X137090000Y-91436000D01*
X137090000Y-97151000D02*
X137090000Y-96135000D01*
X136150200Y-94992000D02*
X135769200Y-94992000D01*
X132848200Y-94992000D02*
X133229200Y-94992000D01*
X132848200Y-91817000D02*
X132848200Y-94992000D01*
X136150200Y-91817000D02*
X132848200Y-91817000D01*
X136150200Y-91817000D02*
X136150200Y-94992000D01*
X136531200Y-91182000D02*
X136531200Y-89277000D01*
X132467200Y-91182000D02*
X136531200Y-91182000D01*
X136531200Y-89277000D02*
X137090000Y-89277000D01*
X136531200Y-95754000D02*
X136531200Y-91182000D01*
X132467200Y-89277000D02*
X132467200Y-91182000D01*
X137598000Y-91690000D02*
X137598000Y-90039000D01*
X137090000Y-91436000D02*
X137090000Y-90293000D01*
X137598000Y-91690000D02*
X137090000Y-91436000D01*
X137090000Y-90293000D02*
X137090000Y-89277000D01*
X137598000Y-90039000D02*
X137090000Y-90293000D01*
X137598000Y-96897000D02*
X137090000Y-97151000D01*
X137598000Y-101723000D02*
X137598000Y-96897000D01*
X137090000Y-101723000D02*
X137598000Y-101723000D01*
X137090000Y-101723000D02*
X137090000Y-98675000D01*
X133229200Y-92960000D02*
X133229200Y-95754000D01*
X133229200Y-95754000D02*
X135769200Y-95754000D01*
X135769200Y-92960000D02*
X135769200Y-95754000D01*
X133229200Y-92960000D02*
X135769200Y-92960000D01*
X118215400Y-92960000D02*
X120755400Y-92960000D01*
X120755400Y-92960000D02*
X120755400Y-95754000D01*
X118215400Y-95754000D02*
X120755400Y-95754000D01*
X118215400Y-92960000D02*
X118215400Y-95754000D01*
X123219200Y-92960000D02*
X125759200Y-92960000D01*
X125759200Y-92960000D02*
X125759200Y-95754000D01*
X123219200Y-95754000D02*
X125759200Y-95754000D01*
X123219200Y-92960000D02*
X123219200Y-95754000D01*
X132454500Y-90293000D02*
X132454500Y-89277000D01*
X132454500Y-91436000D02*
X132454500Y-90293000D01*
X122457200Y-89277000D02*
X122457200Y-91182000D01*
X126521200Y-95754000D02*
X126521200Y-91182000D01*
X122457200Y-89277000D02*
X126521200Y-89277000D01*
X121517400Y-89277000D02*
X121517400Y-91182000D01*
X121517400Y-89277000D02*
X122457200Y-89277000D01*
X117453400Y-95754000D02*
X117453400Y-91182000D01*
X116920000Y-89277000D02*
X117453400Y-89277000D01*
X117453400Y-89277000D02*
X121517400Y-89277000D01*
X122457200Y-91182000D02*
X126521200Y-91182000D01*
X122457200Y-91182000D02*
X122457200Y-95754000D01*
X126521200Y-91182000D02*
X126521200Y-89277000D01*
X121517400Y-91182000D02*
X117453400Y-91182000D01*
X121517400Y-91182000D02*
X121517400Y-95754000D01*
X117453400Y-91182000D02*
X117453400Y-89277000D01*
X126140200Y-91817000D02*
X126140200Y-94992000D01*
X126140200Y-91817000D02*
X122838200Y-91817000D01*
X122838200Y-91817000D02*
X122838200Y-94992000D01*
X121136400Y-91817000D02*
X121136400Y-94992000D01*
X121136400Y-91817000D02*
X117834400Y-91817000D01*
X117834400Y-91817000D02*
X117834400Y-94992000D01*
X117834400Y-94992000D02*
X118215400Y-94992000D01*
X121136400Y-94992000D02*
X120755400Y-94992000D01*
X122838200Y-94992000D02*
X123219200Y-94992000D01*
X126140200Y-94992000D02*
X125759200Y-94992000D01*
X116920000Y-89277000D02*
X116920000Y-96135000D01*
X116920000Y-96135000D02*
X116920000Y-98675000D01*
X116920000Y-98675000D02*
X116920000Y-101723000D01*
X122457200Y-98929000D02*
X122457200Y-101469000D01*
X122457200Y-101469000D02*
X126521200Y-101469000D01*
X126521200Y-101469000D02*
X126521200Y-98929000D01*
X126521200Y-98929000D02*
X122457200Y-98929000D01*
X121517400Y-98929000D02*
X121517400Y-101469000D01*
X121517400Y-98929000D02*
X117453400Y-98929000D01*
X117453400Y-98929000D02*
X117453400Y-101469000D01*
X121517400Y-101469000D02*
X117453400Y-101469000D01*
X122863600Y-99945000D02*
X125911600Y-100580000D01*
X122990600Y-99818000D02*
X126038600Y-100453000D01*
X117859800Y-99945000D02*
X120910340Y-100580000D01*
X117986800Y-99818000D02*
X121034800Y-100453000D01*
X117453400Y-95754000D02*
X117834400Y-95754000D01*
X121517400Y-95754000D02*
X121136400Y-95754000D01*
X121136400Y-95754000D02*
X117834400Y-95754000D01*
X126521200Y-95754000D02*
X126140200Y-95754000D01*
X122457200Y-95754000D02*
X122838200Y-95754000D01*
X122838200Y-95754000D02*
X126140200Y-95754000D01*
X125957972Y-99585430D02*
G75*
G02X126010660Y-100552060I-452772J-509430D01*
G01*
X123015272Y-99665104D02*
G75*
G02X126003040Y-99617340I1524728J-1905496D01*
G01*
X126014411Y-100556844D02*
G75*
G02X122863600Y-100503800I-1553151J1348444D01*
G01*
X122914903Y-100553481D02*
G75*
G02X123056640Y-99627500I431297J407821D01*
G01*
X120954149Y-99582890D02*
G75*
G02X121009400Y-100552060I-452749J-511970D01*
G01*
X118014012Y-99665104D02*
G75*
G02X121001780Y-99617340I1524728J-1905496D01*
G01*
X121016573Y-100561847D02*
G75*
G02X117859800Y-100503800I-1554033J1353447D01*
G01*
X117910480Y-100551019D02*
G75*
G02X118055380Y-99627500I431920J405359D01*
G01*
X95770000Y-124230000D02*
X100850000Y-124230000D01*
X100850000Y-124230000D02*
X100850000Y-126770000D01*
X100850000Y-126770000D02*
X95770000Y-126770000D01*
X92950000Y-127050000D02*
X94500000Y-127050000D01*
X95770000Y-126770000D02*
X95770000Y-124230000D01*
X94500000Y-123950000D02*
X92950000Y-123950000D01*
X92950000Y-123950000D02*
X92950000Y-127050000D01*
X95770000Y-127230000D02*
X100850000Y-127230000D01*
X100850000Y-127230000D02*
X100850000Y-129770000D01*
X100850000Y-129770000D02*
X95770000Y-129770000D01*
X92950000Y-130050000D02*
X94500000Y-130050000D01*
X95770000Y-129770000D02*
X95770000Y-127230000D01*
X94500000Y-126950000D02*
X92950000Y-126950000D01*
X92950000Y-126950000D02*
X92950000Y-130050000D01*
X95770000Y-130230000D02*
X100850000Y-130230000D01*
X100850000Y-130230000D02*
X100850000Y-132770000D01*
X100850000Y-132770000D02*
X95770000Y-132770000D01*
X92950000Y-133050000D02*
X94500000Y-133050000D01*
X95770000Y-132770000D02*
X95770000Y-130230000D01*
X94500000Y-129950000D02*
X92950000Y-129950000D01*
X92950000Y-129950000D02*
X92950000Y-133050000D01*
X95770000Y-133230000D02*
X100850000Y-133230000D01*
X100850000Y-133230000D02*
X100850000Y-135770000D01*
X100850000Y-135770000D02*
X95770000Y-135770000D01*
X92950000Y-136050000D02*
X94500000Y-136050000D01*
X95770000Y-135770000D02*
X95770000Y-133230000D01*
X94500000Y-132950000D02*
X92950000Y-132950000D01*
X92950000Y-132950000D02*
X92950000Y-136050000D01*
X95770000Y-136230000D02*
X100850000Y-136230000D01*
X100850000Y-136230000D02*
X100850000Y-138770000D01*
X100850000Y-138770000D02*
X95770000Y-138770000D01*
X92950000Y-139050000D02*
X94500000Y-139050000D01*
X95770000Y-138770000D02*
X95770000Y-136230000D01*
X94500000Y-135950000D02*
X92950000Y-135950000D01*
X92950000Y-135950000D02*
X92950000Y-139050000D01*
X95770000Y-139230000D02*
X100850000Y-139230000D01*
X100850000Y-139230000D02*
X100850000Y-141770000D01*
X100850000Y-141770000D02*
X95770000Y-141770000D01*
X92950000Y-142050000D02*
X94500000Y-142050000D01*
X95770000Y-141770000D02*
X95770000Y-139230000D01*
X94500000Y-138950000D02*
X92950000Y-138950000D01*
X92950000Y-138950000D02*
X92950000Y-142050000D01*
X95770000Y-142230000D02*
X100850000Y-142230000D01*
X100850000Y-142230000D02*
X100850000Y-144770000D01*
X100850000Y-144770000D02*
X95770000Y-144770000D01*
X92950000Y-145050000D02*
X94500000Y-145050000D01*
X95770000Y-144770000D02*
X95770000Y-142230000D01*
X94500000Y-141950000D02*
X92950000Y-141950000D01*
X92950000Y-141950000D02*
X92950000Y-145050000D01*
X95770000Y-145230000D02*
X100850000Y-145230000D01*
X100850000Y-145230000D02*
X100850000Y-147770000D01*
X100850000Y-147770000D02*
X95770000Y-147770000D01*
X92950000Y-148050000D02*
X94500000Y-148050000D01*
X95770000Y-147770000D02*
X95770000Y-145230000D01*
X94500000Y-144950000D02*
X92950000Y-144950000D01*
X92950000Y-144950000D02*
X92950000Y-148050000D01*
X102705000Y-134135000D02*
X103975000Y-134135000D01*
X102705000Y-141485000D02*
X103975000Y-141485000D01*
X114915000Y-141485000D02*
X113645000Y-141485000D01*
X114915000Y-134135000D02*
X113645000Y-134135000D01*
X102705000Y-134135000D02*
X102705000Y-141485000D01*
X114915000Y-134135000D02*
X114915000Y-141485000D01*
X103975000Y-134135000D02*
X103975000Y-132850000D01*
X154550000Y-105300000D02*
X153000000Y-105300000D01*
X154550000Y-104000000D02*
X154550000Y-105300000D01*
X153127000Y-99809000D02*
X153127000Y-93967000D01*
X153127000Y-93967000D02*
X152873000Y-93967000D01*
X152873000Y-93967000D02*
X152873000Y-99809000D01*
X152873000Y-99809000D02*
X153000000Y-99809000D01*
X153000000Y-99809000D02*
X153000000Y-93967000D01*
X153254000Y-102476000D02*
X153254000Y-102857000D01*
X152746000Y-102476000D02*
X152746000Y-102857000D01*
X150714000Y-102476000D02*
X150714000Y-102857000D01*
X150206000Y-102476000D02*
X150206000Y-102857000D01*
X148174000Y-102476000D02*
X148174000Y-102857000D01*
X147666000Y-102476000D02*
X147666000Y-102857000D01*
X140046000Y-102476000D02*
X140046000Y-102857000D01*
X140554000Y-102476000D02*
X140554000Y-102857000D01*
X142586000Y-102476000D02*
X142586000Y-102857000D01*
X143094000Y-102476000D02*
X143094000Y-102857000D01*
X145126000Y-102476000D02*
X145126000Y-102857000D01*
X145634000Y-102476000D02*
X145634000Y-102857000D01*
X154270000Y-102476000D02*
X154270000Y-99936000D01*
X151730000Y-102476000D02*
X151730000Y-99936000D01*
X151730000Y-102476000D02*
X149190000Y-102476000D01*
X149190000Y-102476000D02*
X149190000Y-99936000D01*
X150714000Y-99936000D02*
X150714000Y-93840000D01*
X150714000Y-93840000D02*
X150206000Y-93840000D01*
X150206000Y-93840000D02*
X150206000Y-99936000D01*
X149190000Y-99936000D02*
X151730000Y-99936000D01*
X151730000Y-99936000D02*
X154270000Y-99936000D01*
X152746000Y-93840000D02*
X152746000Y-99936000D01*
X153254000Y-93840000D02*
X152746000Y-93840000D01*
X153254000Y-99936000D02*
X153254000Y-93840000D01*
X151730000Y-102476000D02*
X151730000Y-99936000D01*
X154270000Y-102476000D02*
X151730000Y-102476000D01*
X144110000Y-102476000D02*
X144110000Y-99936000D01*
X144110000Y-102476000D02*
X141570000Y-102476000D01*
X141570000Y-102476000D02*
X141570000Y-99936000D01*
X143094000Y-99936000D02*
X143094000Y-93840000D01*
X143094000Y-93840000D02*
X142586000Y-93840000D01*
X142586000Y-93840000D02*
X142586000Y-99936000D01*
X141570000Y-99936000D02*
X144110000Y-99936000D01*
X139030000Y-99936000D02*
X141570000Y-99936000D01*
X140046000Y-93840000D02*
X140046000Y-99936000D01*
X140554000Y-93840000D02*
X140046000Y-93840000D01*
X140554000Y-99936000D02*
X140554000Y-93840000D01*
X139030000Y-102476000D02*
X139030000Y-99936000D01*
X141570000Y-102476000D02*
X139030000Y-102476000D01*
X141570000Y-102476000D02*
X141570000Y-99936000D01*
X146650000Y-102476000D02*
X146650000Y-99936000D01*
X146650000Y-102476000D02*
X144110000Y-102476000D01*
X144110000Y-102476000D02*
X144110000Y-99936000D01*
X145634000Y-99936000D02*
X145634000Y-93840000D01*
X145634000Y-93840000D02*
X145126000Y-93840000D01*
X145126000Y-93840000D02*
X145126000Y-99936000D01*
X144110000Y-99936000D02*
X146650000Y-99936000D01*
X146650000Y-99936000D02*
X149190000Y-99936000D01*
X147666000Y-93840000D02*
X147666000Y-99936000D01*
X148174000Y-93840000D02*
X147666000Y-93840000D01*
X148174000Y-99936000D02*
X148174000Y-93840000D01*
X146650000Y-102476000D02*
X146650000Y-99936000D01*
X149190000Y-102476000D02*
X146650000Y-102476000D01*
X149190000Y-102476000D02*
X149190000Y-99936000D01*
X133209999Y-144950000D02*
G75*
G02X134010000Y-145750000I-1249999J-2050000D01*
G01*
X130710001Y-144950000D02*
G75*
G03X129910000Y-145750000I1249999J-2050000D01*
G01*
X133998726Y-148274203D02*
G75*
G02X133660000Y-148700000I-2038726J1274203D01*
G01*
X129921274Y-148274203D02*
G75*
G03X130260000Y-148700000I2038726J1274203D01*
G01*
X133660000Y-148700000D02*
X130260000Y-148700000D01*
X154452381Y-136238095D02*
X155261905Y-136238095D01*
X155357143Y-136285714D01*
X155404762Y-136333333D01*
X155452381Y-136428571D01*
X155452381Y-136619048D01*
X155404762Y-136714286D01*
X155357143Y-136761905D01*
X155261905Y-136809524D01*
X154452381Y-136809524D01*
X154547619Y-137238095D02*
X154500000Y-137285714D01*
X154452381Y-137380952D01*
X154452381Y-137619048D01*
X154500000Y-137714286D01*
X154547619Y-137761905D01*
X154642857Y-137809524D01*
X154738095Y-137809524D01*
X154880952Y-137761905D01*
X155452381Y-137190476D01*
X155452381Y-137809524D01*
X151928571Y-121880952D02*
X151928571Y-122214286D01*
X152452381Y-122357143D02*
X152452381Y-121880952D01*
X151452381Y-121880952D01*
X151452381Y-122357143D01*
X152404762Y-122738095D02*
X152452381Y-122880952D01*
X152452381Y-123119048D01*
X152404762Y-123214286D01*
X152357143Y-123261905D01*
X152261905Y-123309524D01*
X152166667Y-123309524D01*
X152071429Y-123261905D01*
X152023810Y-123214286D01*
X151976190Y-123119048D01*
X151928571Y-122928571D01*
X151880952Y-122833333D01*
X151833333Y-122785714D01*
X151738095Y-122738095D01*
X151642857Y-122738095D01*
X151547619Y-122785714D01*
X151500000Y-122833333D01*
X151452381Y-122928571D01*
X151452381Y-123166667D01*
X151500000Y-123309524D01*
X152452381Y-123738095D02*
X151452381Y-123738095D01*
X151452381Y-124119048D01*
X151500000Y-124214286D01*
X151547619Y-124261905D01*
X151642857Y-124309524D01*
X151785714Y-124309524D01*
X151880952Y-124261905D01*
X151928571Y-124214286D01*
X151976190Y-124119048D01*
X151976190Y-123738095D01*
X151880952Y-124880952D02*
X151833333Y-124785714D01*
X151785714Y-124738095D01*
X151690476Y-124690476D01*
X151642857Y-124690476D01*
X151547619Y-124738095D01*
X151500000Y-124785714D01*
X151452381Y-124880952D01*
X151452381Y-125071429D01*
X151500000Y-125166667D01*
X151547619Y-125214286D01*
X151642857Y-125261905D01*
X151690476Y-125261905D01*
X151785714Y-125214286D01*
X151833333Y-125166667D01*
X151880952Y-125071429D01*
X151880952Y-124880952D01*
X151928571Y-124785714D01*
X151976190Y-124738095D01*
X152071429Y-124690476D01*
X152261905Y-124690476D01*
X152357143Y-124738095D01*
X152404762Y-124785714D01*
X152452381Y-124880952D01*
X152452381Y-125071429D01*
X152404762Y-125166667D01*
X152357143Y-125214286D01*
X152261905Y-125261905D01*
X152071429Y-125261905D01*
X151976190Y-125214286D01*
X151928571Y-125166667D01*
X151880952Y-125071429D01*
X151547619Y-125642857D02*
X151500000Y-125690476D01*
X151452381Y-125785714D01*
X151452381Y-126023810D01*
X151500000Y-126119048D01*
X151547619Y-126166667D01*
X151642857Y-126214286D01*
X151738095Y-126214286D01*
X151880952Y-126166667D01*
X152452381Y-125595238D01*
X152452381Y-126214286D01*
X151452381Y-127071429D02*
X151452381Y-126880952D01*
X151500000Y-126785714D01*
X151547619Y-126738095D01*
X151690476Y-126642857D01*
X151880952Y-126595238D01*
X152261905Y-126595238D01*
X152357143Y-126642857D01*
X152404762Y-126690476D01*
X152452381Y-126785714D01*
X152452381Y-126976191D01*
X152404762Y-127071429D01*
X152357143Y-127119048D01*
X152261905Y-127166667D01*
X152023810Y-127166667D01*
X151928571Y-127119048D01*
X151880952Y-127071429D01*
X151833333Y-126976191D01*
X151833333Y-126785714D01*
X151880952Y-126690476D01*
X151928571Y-126642857D01*
X152023810Y-126595238D01*
X151452381Y-128023810D02*
X151452381Y-127833333D01*
X151500000Y-127738095D01*
X151547619Y-127690476D01*
X151690476Y-127595238D01*
X151880952Y-127547619D01*
X152261905Y-127547619D01*
X152357143Y-127595238D01*
X152404762Y-127642857D01*
X152452381Y-127738095D01*
X152452381Y-127928572D01*
X152404762Y-128023810D01*
X152357143Y-128071429D01*
X152261905Y-128119048D01*
X152023810Y-128119048D01*
X151928571Y-128071429D01*
X151880952Y-128023810D01*
X151833333Y-127928572D01*
X151833333Y-127738095D01*
X151880952Y-127642857D01*
X151928571Y-127595238D01*
X152023810Y-127547619D01*
X152071429Y-128547619D02*
X152071429Y-129309524D01*
X152452381Y-130309524D02*
X152452381Y-129738095D01*
X152452381Y-130023809D02*
X151452381Y-130023809D01*
X151595238Y-129928571D01*
X151690476Y-129833333D01*
X151738095Y-129738095D01*
X151547619Y-130690476D02*
X151500000Y-130738095D01*
X151452381Y-130833333D01*
X151452381Y-131071429D01*
X151500000Y-131166667D01*
X151547619Y-131214286D01*
X151642857Y-131261905D01*
X151738095Y-131261905D01*
X151880952Y-131214286D01*
X152452381Y-130642857D01*
X152452381Y-131261905D01*
X151928571Y-131690476D02*
X151928571Y-132023810D01*
X152452381Y-132166667D02*
X152452381Y-131690476D01*
X151452381Y-131690476D01*
X151452381Y-132166667D01*
X147657143Y-156433334D02*
X147704762Y-156385715D01*
X147752381Y-156242858D01*
X147752381Y-156147620D01*
X147704762Y-156004762D01*
X147609524Y-155909524D01*
X147514286Y-155861905D01*
X147323810Y-155814286D01*
X147180952Y-155814286D01*
X146990476Y-155861905D01*
X146895238Y-155909524D01*
X146800000Y-156004762D01*
X146752381Y-156147620D01*
X146752381Y-156242858D01*
X146800000Y-156385715D01*
X146847619Y-156433334D01*
X146752381Y-156766667D02*
X146752381Y-157385715D01*
X147133333Y-157052381D01*
X147133333Y-157195239D01*
X147180952Y-157290477D01*
X147228571Y-157338096D01*
X147323810Y-157385715D01*
X147561905Y-157385715D01*
X147657143Y-157338096D01*
X147704762Y-157290477D01*
X147752381Y-157195239D01*
X147752381Y-156909524D01*
X147704762Y-156814286D01*
X147657143Y-156766667D01*
D10*
X143654760Y-157202190D02*
X143940474Y-157202190D01*
X143797617Y-157202190D02*
X143797617Y-156702190D01*
X143845236Y-156773619D01*
X143892855Y-156821238D01*
X143940474Y-156845048D01*
X143345236Y-156702190D02*
X143297617Y-156702190D01*
X143249998Y-156726000D01*
X143226189Y-156749810D01*
X143202379Y-156797429D01*
X143178570Y-156892667D01*
X143178570Y-157011714D01*
X143202379Y-157106952D01*
X143226189Y-157154571D01*
X143249998Y-157178381D01*
X143297617Y-157202190D01*
X143345236Y-157202190D01*
X143392855Y-157178381D01*
X143416665Y-157154571D01*
X143440474Y-157106952D01*
X143464284Y-157011714D01*
X143464284Y-156892667D01*
X143440474Y-156797429D01*
X143416665Y-156749810D01*
X143392855Y-156726000D01*
X143345236Y-156702190D01*
X142869046Y-156702190D02*
X142821427Y-156702190D01*
X142773808Y-156726000D01*
X142749999Y-156749810D01*
X142726189Y-156797429D01*
X142702380Y-156892667D01*
X142702380Y-157011714D01*
X142726189Y-157106952D01*
X142749999Y-157154571D01*
X142773808Y-157178381D01*
X142821427Y-157202190D01*
X142869046Y-157202190D01*
X142916665Y-157178381D01*
X142940475Y-157154571D01*
X142964284Y-157106952D01*
X142988094Y-157011714D01*
X142988094Y-156892667D01*
X142964284Y-156797429D01*
X142940475Y-156749810D01*
X142916665Y-156726000D01*
X142869046Y-156702190D01*
X142273809Y-156868857D02*
X142273809Y-157202190D01*
X142488094Y-156868857D02*
X142488094Y-157130762D01*
X142464285Y-157178381D01*
X142416666Y-157202190D01*
X142345237Y-157202190D01*
X142297618Y-157178381D01*
X142273809Y-157154571D01*
X141869047Y-156940286D02*
X142035713Y-156940286D01*
X142035713Y-157202190D02*
X142035713Y-156702190D01*
X141797618Y-156702190D01*
X140988095Y-156702190D02*
X141226190Y-156702190D01*
X141250000Y-156940286D01*
X141226190Y-156916476D01*
X141178571Y-156892667D01*
X141059524Y-156892667D01*
X141011905Y-156916476D01*
X140988095Y-156940286D01*
X140964286Y-156987905D01*
X140964286Y-157106952D01*
X140988095Y-157154571D01*
X141011905Y-157178381D01*
X141059524Y-157202190D01*
X141178571Y-157202190D01*
X141226190Y-157178381D01*
X141250000Y-157154571D01*
X140654762Y-156702190D02*
X140607143Y-156702190D01*
X140559524Y-156726000D01*
X140535715Y-156749810D01*
X140511905Y-156797429D01*
X140488096Y-156892667D01*
X140488096Y-157011714D01*
X140511905Y-157106952D01*
X140535715Y-157154571D01*
X140559524Y-157178381D01*
X140607143Y-157202190D01*
X140654762Y-157202190D01*
X140702381Y-157178381D01*
X140726191Y-157154571D01*
X140750000Y-157106952D01*
X140773810Y-157011714D01*
X140773810Y-156892667D01*
X140750000Y-156797429D01*
X140726191Y-156749810D01*
X140702381Y-156726000D01*
X140654762Y-156702190D01*
X140345239Y-156702190D02*
X140178572Y-157202190D01*
X140011906Y-156702190D01*
D13*
X157904762Y-146166667D02*
X157952381Y-146309524D01*
X157952381Y-146547620D01*
X157904762Y-146642858D01*
X157857143Y-146690477D01*
X157761905Y-146738096D01*
X157666667Y-146738096D01*
X157571429Y-146690477D01*
X157523810Y-146642858D01*
X157476190Y-146547620D01*
X157428571Y-146357143D01*
X157380952Y-146261905D01*
X157333333Y-146214286D01*
X157238095Y-146166667D01*
X157142857Y-146166667D01*
X157047619Y-146214286D01*
X157000000Y-146261905D01*
X156952381Y-146357143D01*
X156952381Y-146595239D01*
X157000000Y-146738096D01*
X156952381Y-147071429D02*
X157952381Y-147309524D01*
X157238095Y-147500001D01*
X157952381Y-147690477D01*
X156952381Y-147928572D01*
X157952381Y-148833334D02*
X157952381Y-148261905D01*
X157952381Y-148547619D02*
X156952381Y-148547619D01*
X157095238Y-148452381D01*
X157190476Y-148357143D01*
X157238095Y-148261905D01*
X161500000Y-154404762D02*
X161357143Y-154452381D01*
X161119047Y-154452381D01*
X161023809Y-154404762D01*
X160976190Y-154357143D01*
X160928571Y-154261905D01*
X160928571Y-154166667D01*
X160976190Y-154071429D01*
X161023809Y-154023810D01*
X161119047Y-153976190D01*
X161309524Y-153928571D01*
X161404762Y-153880952D01*
X161452381Y-153833333D01*
X161500000Y-153738095D01*
X161500000Y-153642857D01*
X161452381Y-153547619D01*
X161404762Y-153500000D01*
X161309524Y-153452381D01*
X161071428Y-153452381D01*
X160928571Y-153500000D01*
X160595238Y-153452381D02*
X160357143Y-154452381D01*
X160166666Y-153738095D01*
X159976190Y-154452381D01*
X159738095Y-153452381D01*
X159595238Y-154547619D02*
X158833333Y-154547619D01*
X158023809Y-154452381D02*
X158357143Y-153976190D01*
X158595238Y-154452381D02*
X158595238Y-153452381D01*
X158214285Y-153452381D01*
X158119047Y-153500000D01*
X158071428Y-153547619D01*
X158023809Y-153642857D01*
X158023809Y-153785714D01*
X158071428Y-153880952D01*
X158119047Y-153928571D01*
X158214285Y-153976190D01*
X158595238Y-153976190D01*
X157595238Y-153928571D02*
X157261904Y-153928571D01*
X157119047Y-154452381D02*
X157595238Y-154452381D01*
X157595238Y-153452381D01*
X157119047Y-153452381D01*
X156738095Y-154404762D02*
X156595238Y-154452381D01*
X156357142Y-154452381D01*
X156261904Y-154404762D01*
X156214285Y-154357143D01*
X156166666Y-154261905D01*
X156166666Y-154166667D01*
X156214285Y-154071429D01*
X156261904Y-154023810D01*
X156357142Y-153976190D01*
X156547619Y-153928571D01*
X156642857Y-153880952D01*
X156690476Y-153833333D01*
X156738095Y-153738095D01*
X156738095Y-153642857D01*
X156690476Y-153547619D01*
X156642857Y-153500000D01*
X156547619Y-153452381D01*
X156309523Y-153452381D01*
X156166666Y-153500000D01*
X155738095Y-153928571D02*
X155404761Y-153928571D01*
X155261904Y-154452381D02*
X155738095Y-154452381D01*
X155738095Y-153452381D01*
X155261904Y-153452381D01*
X154976190Y-153452381D02*
X154404761Y-153452381D01*
X154690476Y-154452381D02*
X154690476Y-153452381D01*
X148404762Y-140666667D02*
X148452381Y-140809524D01*
X148452381Y-141047620D01*
X148404762Y-141142858D01*
X148357143Y-141190477D01*
X148261905Y-141238096D01*
X148166667Y-141238096D01*
X148071429Y-141190477D01*
X148023810Y-141142858D01*
X147976190Y-141047620D01*
X147928571Y-140857143D01*
X147880952Y-140761905D01*
X147833333Y-140714286D01*
X147738095Y-140666667D01*
X147642857Y-140666667D01*
X147547619Y-140714286D01*
X147500000Y-140761905D01*
X147452381Y-140857143D01*
X147452381Y-141095239D01*
X147500000Y-141238096D01*
X147452381Y-141571429D02*
X148452381Y-141809524D01*
X147738095Y-142000001D01*
X148452381Y-142190477D01*
X147452381Y-142428572D01*
X147547619Y-142761905D02*
X147500000Y-142809524D01*
X147452381Y-142904762D01*
X147452381Y-143142858D01*
X147500000Y-143238096D01*
X147547619Y-143285715D01*
X147642857Y-143333334D01*
X147738095Y-143333334D01*
X147880952Y-143285715D01*
X148452381Y-142714286D01*
X148452381Y-143333334D01*
X151261905Y-148404762D02*
X151119048Y-148452381D01*
X150880952Y-148452381D01*
X150785714Y-148404762D01*
X150738095Y-148357143D01*
X150690476Y-148261905D01*
X150690476Y-148166667D01*
X150738095Y-148071429D01*
X150785714Y-148023810D01*
X150880952Y-147976190D01*
X151071429Y-147928571D01*
X151166667Y-147880952D01*
X151214286Y-147833333D01*
X151261905Y-147738095D01*
X151261905Y-147642857D01*
X151214286Y-147547619D01*
X151166667Y-147500000D01*
X151071429Y-147452381D01*
X150833333Y-147452381D01*
X150690476Y-147500000D01*
X150357143Y-147452381D02*
X150119048Y-148452381D01*
X149928571Y-147738095D01*
X149738095Y-148452381D01*
X149500000Y-147452381D01*
X149357143Y-148547619D02*
X148595238Y-148547619D01*
X148357143Y-148452381D02*
X148357143Y-147452381D01*
X147976190Y-147452381D01*
X147880952Y-147500000D01*
X147833333Y-147547619D01*
X147785714Y-147642857D01*
X147785714Y-147785714D01*
X147833333Y-147880952D01*
X147880952Y-147928571D01*
X147976190Y-147976190D01*
X148357143Y-147976190D01*
X146785714Y-148452381D02*
X147119048Y-147976190D01*
X147357143Y-148452381D02*
X147357143Y-147452381D01*
X146976190Y-147452381D01*
X146880952Y-147500000D01*
X146833333Y-147547619D01*
X146785714Y-147642857D01*
X146785714Y-147785714D01*
X146833333Y-147880952D01*
X146880952Y-147928571D01*
X146976190Y-147976190D01*
X147357143Y-147976190D01*
X146166667Y-147452381D02*
X145976190Y-147452381D01*
X145880952Y-147500000D01*
X145785714Y-147595238D01*
X145738095Y-147785714D01*
X145738095Y-148119048D01*
X145785714Y-148309524D01*
X145880952Y-148404762D01*
X145976190Y-148452381D01*
X146166667Y-148452381D01*
X146261905Y-148404762D01*
X146357143Y-148309524D01*
X146404762Y-148119048D01*
X146404762Y-147785714D01*
X146357143Y-147595238D01*
X146261905Y-147500000D01*
X146166667Y-147452381D01*
X144785714Y-147500000D02*
X144880952Y-147452381D01*
X145023809Y-147452381D01*
X145166667Y-147500000D01*
X145261905Y-147595238D01*
X145309524Y-147690476D01*
X145357143Y-147880952D01*
X145357143Y-148023810D01*
X145309524Y-148214286D01*
X145261905Y-148309524D01*
X145166667Y-148404762D01*
X145023809Y-148452381D01*
X144928571Y-148452381D01*
X144785714Y-148404762D01*
X144738095Y-148357143D01*
X144738095Y-148023810D01*
X144928571Y-148023810D01*
X107057143Y-96733334D02*
X107104762Y-96685715D01*
X107152381Y-96542858D01*
X107152381Y-96447620D01*
X107104762Y-96304762D01*
X107009524Y-96209524D01*
X106914286Y-96161905D01*
X106723810Y-96114286D01*
X106580952Y-96114286D01*
X106390476Y-96161905D01*
X106295238Y-96209524D01*
X106200000Y-96304762D01*
X106152381Y-96447620D01*
X106152381Y-96542858D01*
X106200000Y-96685715D01*
X106247619Y-96733334D01*
X106485714Y-97590477D02*
X107152381Y-97590477D01*
X106104762Y-97352381D02*
X106819048Y-97114286D01*
X106819048Y-97733334D01*
D10*
X113654760Y-96726190D02*
X113940474Y-96726190D01*
X113797617Y-96726190D02*
X113797617Y-96226190D01*
X113845236Y-96297619D01*
X113892855Y-96345238D01*
X113940474Y-96369048D01*
X113345236Y-96226190D02*
X113297617Y-96226190D01*
X113249998Y-96250000D01*
X113226189Y-96273810D01*
X113202379Y-96321429D01*
X113178570Y-96416667D01*
X113178570Y-96535714D01*
X113202379Y-96630952D01*
X113226189Y-96678571D01*
X113249998Y-96702381D01*
X113297617Y-96726190D01*
X113345236Y-96726190D01*
X113392855Y-96702381D01*
X113416665Y-96678571D01*
X113440474Y-96630952D01*
X113464284Y-96535714D01*
X113464284Y-96416667D01*
X113440474Y-96321429D01*
X113416665Y-96273810D01*
X113392855Y-96250000D01*
X113345236Y-96226190D01*
X112869046Y-96226190D02*
X112821427Y-96226190D01*
X112773808Y-96250000D01*
X112749999Y-96273810D01*
X112726189Y-96321429D01*
X112702380Y-96416667D01*
X112702380Y-96535714D01*
X112726189Y-96630952D01*
X112749999Y-96678571D01*
X112773808Y-96702381D01*
X112821427Y-96726190D01*
X112869046Y-96726190D01*
X112916665Y-96702381D01*
X112940475Y-96678571D01*
X112964284Y-96630952D01*
X112988094Y-96535714D01*
X112988094Y-96416667D01*
X112964284Y-96321429D01*
X112940475Y-96273810D01*
X112916665Y-96250000D01*
X112869046Y-96226190D01*
X112273809Y-96392857D02*
X112273809Y-96726190D01*
X112488094Y-96392857D02*
X112488094Y-96654762D01*
X112464285Y-96702381D01*
X112416666Y-96726190D01*
X112345237Y-96726190D01*
X112297618Y-96702381D01*
X112273809Y-96678571D01*
X111869047Y-96464286D02*
X112035713Y-96464286D01*
X112035713Y-96726190D02*
X112035713Y-96226190D01*
X111797618Y-96226190D01*
X110988095Y-96226190D02*
X111226190Y-96226190D01*
X111250000Y-96464286D01*
X111226190Y-96440476D01*
X111178571Y-96416667D01*
X111059524Y-96416667D01*
X111011905Y-96440476D01*
X110988095Y-96464286D01*
X110964286Y-96511905D01*
X110964286Y-96630952D01*
X110988095Y-96678571D01*
X111011905Y-96702381D01*
X111059524Y-96726190D01*
X111178571Y-96726190D01*
X111226190Y-96702381D01*
X111250000Y-96678571D01*
X110654762Y-96226190D02*
X110607143Y-96226190D01*
X110559524Y-96250000D01*
X110535715Y-96273810D01*
X110511905Y-96321429D01*
X110488096Y-96416667D01*
X110488096Y-96535714D01*
X110511905Y-96630952D01*
X110535715Y-96678571D01*
X110559524Y-96702381D01*
X110607143Y-96726190D01*
X110654762Y-96726190D01*
X110702381Y-96702381D01*
X110726191Y-96678571D01*
X110750000Y-96630952D01*
X110773810Y-96535714D01*
X110773810Y-96416667D01*
X110750000Y-96321429D01*
X110726191Y-96273810D01*
X110702381Y-96250000D01*
X110654762Y-96226190D01*
X110345239Y-96226190D02*
X110178572Y-96726190D01*
X110011906Y-96226190D01*
D13*
X99232381Y-133238095D02*
X100041905Y-133238095D01*
X100137143Y-133285714D01*
X100184762Y-133333333D01*
X100232381Y-133428571D01*
X100232381Y-133619048D01*
X100184762Y-133714286D01*
X100137143Y-133761905D01*
X100041905Y-133809524D01*
X99232381Y-133809524D01*
X99232381Y-134761905D02*
X99232381Y-134285714D01*
X99708571Y-134238095D01*
X99660952Y-134285714D01*
X99613333Y-134380952D01*
X99613333Y-134619048D01*
X99660952Y-134714286D01*
X99708571Y-134761905D01*
X99803810Y-134809524D01*
X100041905Y-134809524D01*
X100137143Y-134761905D01*
X100184762Y-134714286D01*
X100232381Y-134619048D01*
X100232381Y-134380952D01*
X100184762Y-134285714D01*
X100137143Y-134238095D01*
X132721905Y-141372381D02*
X132721905Y-142181905D01*
X132674286Y-142277143D01*
X132626667Y-142324762D01*
X132531429Y-142372381D01*
X132340952Y-142372381D01*
X132245714Y-142324762D01*
X132198095Y-142277143D01*
X132150476Y-142181905D01*
X132150476Y-141372381D01*
X131245714Y-141372381D02*
X131436191Y-141372381D01*
X131531429Y-141420000D01*
X131579048Y-141467619D01*
X131674286Y-141610476D01*
X131721905Y-141800952D01*
X131721905Y-142181905D01*
X131674286Y-142277143D01*
X131626667Y-142324762D01*
X131531429Y-142372381D01*
X131340952Y-142372381D01*
X131245714Y-142324762D01*
X131198095Y-142277143D01*
X131150476Y-142181905D01*
X131150476Y-141943810D01*
X131198095Y-141848571D01*
X131245714Y-141800952D01*
X131340952Y-141753333D01*
X131531429Y-141753333D01*
X131626667Y-141800952D01*
X131674286Y-141848571D01*
X131721905Y-141943810D01*
D10*
X133948094Y-149766190D02*
X134186189Y-149766190D01*
X134186189Y-149266190D01*
X133781427Y-149766190D02*
X133781427Y-149266190D01*
X133614761Y-149623333D01*
X133448094Y-149266190D01*
X133448094Y-149766190D01*
X133257617Y-149266190D02*
X132924284Y-149266190D01*
X133138570Y-149766190D01*
X132662380Y-149480476D02*
X132709999Y-149456667D01*
X132733808Y-149432857D01*
X132757618Y-149385238D01*
X132757618Y-149361429D01*
X132733808Y-149313810D01*
X132709999Y-149290000D01*
X132662380Y-149266190D01*
X132567142Y-149266190D01*
X132519523Y-149290000D01*
X132495713Y-149313810D01*
X132471904Y-149361429D01*
X132471904Y-149385238D01*
X132495713Y-149432857D01*
X132519523Y-149456667D01*
X132567142Y-149480476D01*
X132662380Y-149480476D01*
X132709999Y-149504286D01*
X132733808Y-149528095D01*
X132757618Y-149575714D01*
X132757618Y-149670952D01*
X132733808Y-149718571D01*
X132709999Y-149742381D01*
X132662380Y-149766190D01*
X132567142Y-149766190D01*
X132519523Y-149742381D01*
X132495713Y-149718571D01*
X132471904Y-149670952D01*
X132471904Y-149575714D01*
X132495713Y-149528095D01*
X132519523Y-149504286D01*
X132567142Y-149480476D01*
X132019523Y-149766190D02*
X132257618Y-149766190D01*
X132257618Y-149266190D01*
X131757618Y-149266190D02*
X131709999Y-149266190D01*
X131662380Y-149290000D01*
X131638571Y-149313810D01*
X131614761Y-149361429D01*
X131590952Y-149456667D01*
X131590952Y-149575714D01*
X131614761Y-149670952D01*
X131638571Y-149718571D01*
X131662380Y-149742381D01*
X131709999Y-149766190D01*
X131757618Y-149766190D01*
X131805237Y-149742381D01*
X131829047Y-149718571D01*
X131852856Y-149670952D01*
X131876666Y-149575714D01*
X131876666Y-149456667D01*
X131852856Y-149361429D01*
X131829047Y-149313810D01*
X131805237Y-149290000D01*
X131757618Y-149266190D01*
X131138571Y-149266190D02*
X131376666Y-149266190D01*
X131400476Y-149504286D01*
X131376666Y-149480476D01*
X131329047Y-149456667D01*
X131210000Y-149456667D01*
X131162381Y-149480476D01*
X131138571Y-149504286D01*
X131114762Y-149551905D01*
X131114762Y-149670952D01*
X131138571Y-149718571D01*
X131162381Y-149742381D01*
X131210000Y-149766190D01*
X131329047Y-149766190D01*
X131376666Y-149742381D01*
X131400476Y-149718571D01*
X130924286Y-149623333D02*
X130686191Y-149623333D01*
X130971905Y-149766190D02*
X130805238Y-149266190D01*
X130638572Y-149766190D01*
X130186191Y-149718571D02*
X130210001Y-149742381D01*
X130281429Y-149766190D01*
X130329048Y-149766190D01*
X130400477Y-149742381D01*
X130448096Y-149694762D01*
X130471905Y-149647143D01*
X130495715Y-149551905D01*
X130495715Y-149480476D01*
X130471905Y-149385238D01*
X130448096Y-149337619D01*
X130400477Y-149290000D01*
X130329048Y-149266190D01*
X130281429Y-149266190D01*
X130210001Y-149290000D01*
X130186191Y-149313810D01*
X130019524Y-149266190D02*
X129686191Y-149266190D01*
X130019524Y-149766190D01*
X129686191Y-149766190D01*
M02*
