M48
;DRILL file {KiCad 4.0.4-stable} date 03/22/17 00:02:02
;FORMAT={-:-/ absolute / inch / decimal}
FMAT,2
INCH,TZ
T1C0.016
T2C0.039
T3C0.040
T4C0.047
T5C0.047
T6C0.052
T7C0.118
%
G90
G05
M72
T1
X3.6909Y-5.
X3.8091Y-4.3307
X3.8189Y-5.128
X3.8189Y-5.3445
X3.8189Y-5.3937
X3.8205Y-4.9409
X3.8287Y-5.0098
X3.8287Y-5.5807
X3.8287Y-5.7579
X3.8287Y-5.8957
X3.8287Y-5.935
X3.8386Y-5.6988
X3.9173Y-5.315
X3.9205Y-4.9409
X3.9272Y-4.4291
X4.0354Y-5.4134
X4.0354Y-5.689
X4.0551Y-4.5177
X4.0551Y-4.7441
X4.0846Y-5.6299
X4.1339Y-4.6752
X4.1535Y-4.311
X4.1634Y-5.4035
X4.2323Y-5.9252
X4.2618Y-5.9843
X4.3209Y-5.1575
X4.3209Y-5.7677
X4.3602Y-5.1969
X4.3602Y-5.4035
X4.3701Y-4.4291
X4.5276Y-5.6299
X4.5374Y-5.4528
X4.5472Y-5.1969
X4.5472Y-5.4035
X4.5669Y-4.1831
X4.5669Y-4.252
X4.5669Y-4.498
X4.5768Y-5.5118
X4.6949Y-5.7677
X4.7244Y-4.2323
X4.7244Y-4.3012
X4.7638Y-3.8976
X4.8031Y-4.3012
X4.8306Y-5.6615
X4.8622Y-4.2815
X4.872Y-5.876
X4.9213Y-4.0551
X5.Y-6.0039
X5.0394Y-5.5118
X5.0394Y-5.5512
X5.0984Y-5.935
X5.315Y-4.2126
X5.315Y-4.4094
X5.315Y-5.876
X5.315Y-5.935
X5.3445Y-5.0787
X5.374Y-4.9213
X5.3937Y-4.4882
X5.4429Y-3.7992
X5.4626Y-5.876
X5.4626Y-5.935
X5.502Y-4.813
X5.5413Y-5.0197
X5.5413Y-5.1181
X5.5512Y-4.7835
X5.5906Y-4.9803
X5.5906Y-5.1575
X5.6299Y-4.7835
X5.7087Y-4.8425
X5.7283Y-5.876
X5.748Y-4.3701
X5.7677Y-5.935
X5.7874Y-4.4882
X5.8071Y-5.1673
X5.8268Y-5.7382
X5.8661Y-4.4882
X5.8661Y-4.7835
X5.8661Y-5.0591
X5.8661Y-5.2461
X5.9449Y-4.8425
X5.9449Y-5.1673
X6.0236Y-5.2461
T2
X4.1339Y-4.5756
X4.1339Y-6.2756
X4.2339Y-4.5756
X4.2339Y-6.2756
X4.3339Y-4.5756
X4.3339Y-6.2756
X4.4094Y-3.7402
X4.4094Y-3.8898
X4.4339Y-4.5756
X4.4339Y-6.2756
X5.1346Y-5.7874
X5.2346Y-5.6874
X5.3346Y-5.7874
X5.5906Y-6.0906
X5.5906Y-6.2402
T3
X5.5236Y-4.0945
X5.6236Y-4.0945
X5.7236Y-4.0945
X5.8236Y-4.0945
X5.9236Y-4.0945
X6.0236Y-4.0945
T4
X4.6654Y-4.85
X4.6654Y-4.95
X4.6654Y-5.05
X4.6654Y-5.15
T5
X5.7268Y-5.4406
X5.7268Y-5.7406
X5.9268Y-5.4406
X5.9268Y-5.7406
X6.1008Y-5.6571
X6.1008Y-5.9571
X6.3008Y-5.6571
X6.3008Y-5.9571
T6
X4.7047Y-3.7598
X4.7047Y-6.2402
X4.9016Y-3.7598
X4.9016Y-6.2402
X5.0984Y-3.7598
X5.0984Y-6.2402
X5.1378Y-4.7047
X5.1378Y-4.9016
X5.1378Y-5.0984
X5.1378Y-5.2953
X5.2953Y-3.7598
X5.2953Y-6.2402
T7
X3.7795Y-3.7795
X3.7795Y-6.2205
X6.2205Y-3.7795
X6.2205Y-6.2205
T0
M30
