G04 #@! TF.FileFunction,Copper,L1,Top,Signal*
%FSLAX46Y46*%
G04 Gerber Fmt 4.6, Leading zero omitted, Abs format (unit mm)*
G04 Created by KiCad (PCBNEW 4.0.4-stable) date 03/23/17 03:26:40*
%MOMM*%
%LPD*%
G01*
G04 APERTURE LIST*
%ADD10C,0.100000*%
%ADD11O,3.962400X1.981200*%
%ADD12R,1.600000X1.000000*%
%ADD13R,1.700000X0.900000*%
%ADD14R,3.657600X2.032000*%
%ADD15R,1.016000X2.032000*%
%ADD16R,0.600000X1.500000*%
%ADD17C,2.000000*%
%ADD18R,2.000000X2.000000*%
%ADD19R,0.800100X0.800100*%
%ADD20O,1.473200X0.609600*%
%ADD21O,1.981200X3.962400*%
%ADD22O,1.600000X2.300000*%
%ADD23R,1.000000X1.250000*%
%ADD24R,1.727200X2.032000*%
%ADD25O,1.727200X2.032000*%
%ADD26R,2.032000X2.032000*%
%ADD27R,0.900000X1.700000*%
%ADD28R,0.900000X0.900000*%
%ADD29O,1.998980X2.999740*%
%ADD30O,2.999740X1.998980*%
%ADD31R,3.000000X3.000000*%
%ADD32O,3.500120X1.800860*%
%ADD33C,4.000500*%
%ADD34C,1.998980*%
%ADD35C,0.600000*%
%ADD36C,0.900000*%
%ADD37C,0.250000*%
%ADD38C,0.600000*%
%ADD39C,0.254000*%
G04 APERTURE END LIST*
D10*
D11*
X130500000Y-134500000D03*
X130500000Y-129500000D03*
X130500000Y-119500000D03*
X130500000Y-124500000D03*
D12*
X123500000Y-143000000D03*
X123500000Y-140000000D03*
X126000000Y-142250000D03*
X126000000Y-139250000D03*
D13*
X94000000Y-131450000D03*
X94000000Y-128550000D03*
D14*
X118500000Y-137198000D03*
D15*
X118500000Y-143802000D03*
X120786000Y-143802000D03*
X116214000Y-143802000D03*
D16*
X93555000Y-138700000D03*
X94825000Y-138700000D03*
X96095000Y-138700000D03*
X97365000Y-138700000D03*
X98635000Y-138700000D03*
X99905000Y-138700000D03*
X101175000Y-138700000D03*
X102445000Y-138700000D03*
X102445000Y-133300000D03*
X101175000Y-133300000D03*
X99905000Y-133300000D03*
X98635000Y-133300000D03*
X97365000Y-133300000D03*
X96095000Y-133300000D03*
X94825000Y-133300000D03*
X93555000Y-133300000D03*
D17*
X142000000Y-158500000D03*
D18*
X142000000Y-154700000D03*
D19*
X150000760Y-111950000D03*
X150000760Y-110050000D03*
X148001780Y-111000000D03*
X141000760Y-114950000D03*
X141000760Y-113050000D03*
X139001780Y-114000000D03*
D13*
X153000000Y-132450000D03*
X153000000Y-129550000D03*
X149000000Y-132450000D03*
X149000000Y-129550000D03*
X145000000Y-130450000D03*
X145000000Y-127550000D03*
X152000000Y-109550000D03*
X152000000Y-112450000D03*
X143000000Y-112550000D03*
X143000000Y-115450000D03*
X146000000Y-109550000D03*
X146000000Y-112450000D03*
X137000000Y-112550000D03*
X137000000Y-115450000D03*
D17*
X160040000Y-143690000D03*
X154960000Y-143690000D03*
X160040000Y-151310000D03*
X154960000Y-151310000D03*
X150540000Y-138190000D03*
X145460000Y-138190000D03*
X150540000Y-145810000D03*
X145460000Y-145810000D03*
D20*
X104206000Y-150095000D03*
X104206000Y-151365000D03*
X104206000Y-152635000D03*
X104206000Y-153905000D03*
X109794000Y-153905000D03*
X109794000Y-152635000D03*
X109794000Y-151365000D03*
X109794000Y-150095000D03*
D17*
X112000000Y-95000000D03*
D18*
X112000000Y-98800000D03*
D21*
X134500000Y-158500000D03*
X129500000Y-158500000D03*
X119500000Y-158500000D03*
X124500000Y-158500000D03*
X119500000Y-95500000D03*
X124500000Y-95500000D03*
X134500000Y-95500000D03*
X129500000Y-95500000D03*
D19*
X122000760Y-106950000D03*
X122000760Y-105050000D03*
X120001780Y-106000000D03*
X111000760Y-108950000D03*
X111000760Y-107050000D03*
X109001780Y-108000000D03*
D13*
X124000000Y-104550000D03*
X124000000Y-107450000D03*
X113000000Y-106550000D03*
X113000000Y-109450000D03*
X118000000Y-104550000D03*
X118000000Y-107450000D03*
X107000000Y-106550000D03*
X107000000Y-109450000D03*
D19*
X100000760Y-110950000D03*
X100000760Y-109050000D03*
X98001780Y-110000000D03*
D13*
X147000000Y-121550000D03*
X147000000Y-124450000D03*
X151000000Y-121550000D03*
X151000000Y-124450000D03*
X102000000Y-108550000D03*
X102000000Y-111450000D03*
X96000000Y-108550000D03*
X96000000Y-111450000D03*
D22*
X105000000Y-116220000D03*
X107540000Y-116220000D03*
X110080000Y-116220000D03*
X112620000Y-116220000D03*
X112620000Y-159400000D03*
X110080000Y-159400000D03*
X107540000Y-159400000D03*
X105000000Y-159400000D03*
D23*
X118000000Y-146500000D03*
X116000000Y-146500000D03*
X137000000Y-143500000D03*
X135000000Y-143500000D03*
D24*
X153000000Y-104000000D03*
D25*
X150460000Y-104000000D03*
X147920000Y-104000000D03*
X145380000Y-104000000D03*
X142840000Y-104000000D03*
X140300000Y-104000000D03*
D26*
X140000000Y-145500000D03*
X140000000Y-142960000D03*
D27*
X137700000Y-139500000D03*
X134800000Y-139500000D03*
X142700000Y-139500000D03*
X139800000Y-139500000D03*
D28*
X100000000Y-128500000D03*
X96000000Y-128500000D03*
X98660000Y-128500000D03*
X97340000Y-128500000D03*
X98660000Y-131500000D03*
X100000000Y-131500000D03*
X96000000Y-131500000D03*
X97340000Y-131500000D03*
X96000000Y-143500000D03*
X100000000Y-143500000D03*
X97340000Y-143500000D03*
X98660000Y-143500000D03*
X97340000Y-140500000D03*
X96000000Y-140500000D03*
X100000000Y-140500000D03*
X98660000Y-140500000D03*
D29*
X132960000Y-144460000D03*
D30*
X135500000Y-147000000D03*
X130420000Y-147000000D03*
D27*
X135450000Y-110000000D03*
X132550000Y-110000000D03*
X144450000Y-107000000D03*
X141550000Y-107000000D03*
D31*
X123250000Y-152000000D03*
X126790000Y-152000000D03*
D26*
X150000000Y-107000000D03*
X147460000Y-107000000D03*
X141000000Y-110000000D03*
X138460000Y-110000000D03*
X122000000Y-102000000D03*
X119460000Y-102000000D03*
X111000000Y-104000000D03*
X108460000Y-104000000D03*
X100000000Y-106000000D03*
X97460000Y-106000000D03*
D32*
X118500000Y-123190000D03*
X118500000Y-125730000D03*
X118500000Y-128270000D03*
X118500000Y-130810000D03*
D26*
X114000000Y-154000000D03*
X116540000Y-154000000D03*
D27*
X113550000Y-151250000D03*
X116450000Y-151250000D03*
D23*
X149500000Y-127000000D03*
X147500000Y-127000000D03*
D33*
X138000000Y-158500000D03*
X116000000Y-158500000D03*
X116000000Y-95500000D03*
X138000000Y-95500000D03*
D34*
X131000000Y-157500000D03*
X123000000Y-157500000D03*
X123000000Y-96500000D03*
X131000000Y-96500000D03*
D35*
X122698000Y-143802000D03*
X102500000Y-144500000D03*
X128000000Y-141000000D03*
X128000000Y-140000000D03*
X93750000Y-127000000D03*
X116250000Y-140000000D03*
X139750000Y-122250000D03*
X102500000Y-137500000D03*
X103000000Y-120500000D03*
X99580000Y-125500000D03*
X109750000Y-131000000D03*
X122000000Y-109250000D03*
X120000000Y-109250000D03*
X111000000Y-112500000D03*
X99750000Y-112500000D03*
X119250000Y-146500000D03*
X109750000Y-146500000D03*
X149000000Y-128500000D03*
X99500000Y-135000000D03*
X147000000Y-114000000D03*
X149000000Y-114000000D03*
X103750000Y-143000000D03*
X115250000Y-138500000D03*
X115000000Y-143000000D03*
X149000000Y-133250000D03*
X97040000Y-125500000D03*
X97250000Y-127250000D03*
X97000000Y-130250000D03*
X97000000Y-135750000D03*
X97000000Y-137000000D03*
X97250000Y-141750000D03*
X97500000Y-144750000D03*
X97250000Y-146250000D03*
X107500000Y-150500000D03*
X108250000Y-152000000D03*
X137000000Y-103000000D03*
X123500000Y-108750000D03*
X125000000Y-103000000D03*
X137250000Y-99250000D03*
X105000000Y-118750000D03*
X121750000Y-99250000D03*
X103000000Y-114750000D03*
X105500000Y-109500000D03*
X96750000Y-110000000D03*
X116000000Y-106250000D03*
X120000000Y-107500000D03*
X127000000Y-152500000D03*
X137000000Y-114000000D03*
X146000000Y-111000000D03*
X115500000Y-132000000D03*
X110750000Y-132000000D03*
X115500000Y-137250000D03*
X110750000Y-137250000D03*
X116000000Y-114250000D03*
X116000000Y-108000000D03*
X105750000Y-137250000D03*
X153000000Y-133250000D03*
X147500000Y-131250000D03*
X145500000Y-149250000D03*
X138750000Y-149250000D03*
X97250000Y-149750000D03*
X135000000Y-149250000D03*
X123750000Y-149250000D03*
X149000000Y-121500000D03*
X148000000Y-145750000D03*
X143000000Y-121500000D03*
X146500000Y-150750000D03*
X138750000Y-150750000D03*
X97250000Y-150750000D03*
X129500000Y-150750000D03*
X135000000Y-150750000D03*
X151000000Y-131250000D03*
X151000000Y-123000000D03*
X145000000Y-123000000D03*
X141000000Y-121500000D03*
X140750000Y-127500000D03*
X140750000Y-130000000D03*
X142000000Y-126500000D03*
X142000000Y-131000000D03*
X135750000Y-129000000D03*
X136500000Y-125000000D03*
X135000000Y-112000000D03*
X135000000Y-107000000D03*
D36*
X134500000Y-95500000D02*
X138000000Y-95500000D01*
X116000000Y-158500000D02*
X119500000Y-158500000D01*
X142000000Y-158500000D02*
X142000000Y-158000000D01*
X142000000Y-158000000D02*
X139000000Y-155000000D01*
X139000000Y-155000000D02*
X137500000Y-155000000D01*
X130420000Y-147000000D02*
X130420000Y-141580000D01*
X130420000Y-141580000D02*
X131500000Y-140500000D01*
X130500000Y-119500000D02*
X130500000Y-108250000D01*
X130500000Y-108250000D02*
X134500000Y-104250000D01*
X134800000Y-139500000D02*
X134800000Y-137800000D01*
X133500000Y-119500000D02*
X130500000Y-119500000D01*
X134500000Y-120500000D02*
X133500000Y-119500000D01*
X134500000Y-137500000D02*
X134500000Y-120500000D01*
X134800000Y-137800000D02*
X134500000Y-137500000D01*
X120786000Y-143802000D02*
X122698000Y-143802000D01*
X101500000Y-145500000D02*
X101500000Y-156500000D01*
X102500000Y-144500000D02*
X101500000Y-145500000D01*
X134500000Y-95500000D02*
X131750000Y-92750000D01*
X114250000Y-92750000D02*
X112000000Y-95000000D01*
X131750000Y-92750000D02*
X114250000Y-92750000D01*
X130420000Y-147000000D02*
X120786000Y-147000000D01*
X120786000Y-147000000D02*
X120750000Y-147000000D01*
X120750000Y-147000000D02*
X120786000Y-147000000D01*
X123250000Y-152000000D02*
X120786000Y-152000000D01*
X132500000Y-139500000D02*
X134800000Y-139500000D01*
X131500000Y-140500000D02*
X132500000Y-139500000D01*
X134500000Y-104250000D02*
X134500000Y-95500000D01*
X130500000Y-119500000D02*
X130500000Y-119500000D01*
X122698000Y-143802000D02*
X123500000Y-143000000D01*
X120786000Y-145500000D02*
X120786000Y-143802000D01*
X119500000Y-158500000D02*
X119500000Y-155000000D01*
X119500000Y-153286000D02*
X120786000Y-152000000D01*
X120786000Y-145302000D02*
X120786000Y-145500000D01*
X120786000Y-145500000D02*
X120786000Y-147000000D01*
X120786000Y-147000000D02*
X120786000Y-148500000D01*
X120786000Y-148500000D02*
X120786000Y-152000000D01*
X119500000Y-155000000D02*
X119500000Y-153286000D01*
X119500000Y-155000000D02*
X137500000Y-155000000D01*
X126000000Y-139250000D02*
X126000000Y-140000000D01*
X123500000Y-140000000D02*
X126000000Y-140000000D01*
X126000000Y-140000000D02*
X128000000Y-140000000D01*
X116250000Y-140000000D02*
X123500000Y-140000000D01*
X116250000Y-140000000D02*
X128000000Y-140000000D01*
X128000000Y-140000000D02*
X128000000Y-141000000D01*
X128000000Y-140000000D02*
X128000000Y-137250000D01*
X128000000Y-137250000D02*
X130500000Y-134500000D01*
D37*
X93750000Y-127000000D02*
X93750000Y-128300000D01*
X93750000Y-128300000D02*
X94000000Y-128550000D01*
D38*
X116250000Y-140000000D02*
X116214000Y-140000000D01*
D36*
X128000000Y-140000000D02*
X127750000Y-140000000D01*
X145460000Y-145810000D02*
X150960000Y-151310000D01*
X150960000Y-151310000D02*
X154960000Y-151310000D01*
X127750000Y-140000000D02*
X128000000Y-140000000D01*
D37*
X142700000Y-139500000D02*
X144150000Y-139500000D01*
X144150000Y-139500000D02*
X145460000Y-138190000D01*
D38*
X145000000Y-130450000D02*
X146050000Y-130450000D01*
X147000000Y-129500000D02*
X147000000Y-127500000D01*
X146050000Y-130450000D02*
X147000000Y-129500000D01*
X147000000Y-127500000D02*
X147500000Y-127000000D01*
D37*
X143250000Y-128000000D02*
X143000000Y-128000000D01*
X143000000Y-128000000D02*
X143250000Y-128000000D01*
D36*
X145000000Y-130450000D02*
X144700000Y-130450000D01*
X144700000Y-130450000D02*
X143250000Y-129000000D01*
X143250000Y-125750000D02*
X139750000Y-122250000D01*
X143250000Y-129000000D02*
X143250000Y-128000000D01*
X143250000Y-128000000D02*
X143250000Y-125750000D01*
X145460000Y-138190000D02*
X145000000Y-137730000D01*
X145000000Y-137730000D02*
X145000000Y-130450000D01*
D38*
X109794000Y-153905000D02*
X109794000Y-154544000D01*
X109794000Y-154544000D02*
X112620000Y-157370000D01*
X112620000Y-157370000D02*
X112620000Y-159400000D01*
D36*
X116214000Y-141286000D02*
X116214000Y-140000000D01*
X116214000Y-141286000D02*
X116214000Y-143802000D01*
X116000000Y-146500000D02*
X116000000Y-145000000D01*
X116000000Y-145000000D02*
X116214000Y-144786000D01*
X116214000Y-144786000D02*
X116214000Y-143802000D01*
X135000000Y-143500000D02*
X132920000Y-143500000D01*
X132920000Y-143500000D02*
X132960000Y-144460000D01*
D37*
X102445000Y-137555000D02*
X102445000Y-138700000D01*
X102500000Y-137500000D02*
X102445000Y-137555000D01*
D36*
X126000000Y-142250000D02*
X126000000Y-142000000D01*
X126000000Y-142000000D02*
X125500000Y-141500000D01*
X125500000Y-141500000D02*
X119000000Y-141500000D01*
D38*
X154500000Y-102000000D02*
X155500000Y-103000000D01*
X153550000Y-112450000D02*
X152000000Y-112450000D01*
X155500000Y-110500000D02*
X153550000Y-112450000D01*
X155500000Y-103000000D02*
X155500000Y-110500000D01*
X147920000Y-103080000D02*
X149000000Y-102000000D01*
X149000000Y-102000000D02*
X154500000Y-102000000D01*
X153500000Y-114500000D02*
X153500000Y-112500000D01*
X153500000Y-112500000D02*
X153500000Y-112450000D01*
X152000000Y-112450000D02*
X153500000Y-112450000D01*
X143000000Y-115450000D02*
X143050000Y-115500000D01*
X143050000Y-115500000D02*
X153500000Y-115500000D01*
X153000000Y-124000000D02*
X153500000Y-123500000D01*
X153500000Y-123500000D02*
X153500000Y-115500000D01*
X153500000Y-115500000D02*
X153500000Y-114500000D01*
D37*
X99580000Y-125500000D02*
X103000000Y-122080000D01*
X103000000Y-122080000D02*
X103000000Y-120500000D01*
D38*
X109750000Y-146500000D02*
X109750000Y-131000000D01*
D37*
X120000000Y-109250000D02*
X113200000Y-109250000D01*
X113200000Y-109250000D02*
X113000000Y-109450000D01*
X122000000Y-109250000D02*
X122000000Y-106950760D01*
X122000000Y-106950760D02*
X122000760Y-106950000D01*
X111000000Y-112500000D02*
X111000760Y-112499240D01*
X111000760Y-112499240D02*
X111000760Y-108950000D01*
X100000760Y-112249240D02*
X100000760Y-110950000D01*
X99750000Y-112500000D02*
X100000760Y-112249240D01*
D38*
X119250000Y-146500000D02*
X118000000Y-146500000D01*
X109794000Y-150095000D02*
X109794000Y-146544000D01*
X109794000Y-146544000D02*
X109750000Y-146500000D01*
X149500000Y-127000000D02*
X149500000Y-128000000D01*
X149500000Y-128000000D02*
X149000000Y-128500000D01*
X149000000Y-128500000D02*
X149000000Y-129550000D01*
D37*
X111000760Y-108950000D02*
X111450000Y-108950000D01*
X111450000Y-108950000D02*
X111950000Y-109450000D01*
X111950000Y-109450000D02*
X113000000Y-109450000D01*
X122000760Y-106950000D02*
X122450000Y-106950000D01*
X122950000Y-107450000D02*
X124000000Y-107450000D01*
X122450000Y-106950000D02*
X122950000Y-107450000D01*
X102000000Y-111450000D02*
X101450000Y-111450000D01*
X101450000Y-111450000D02*
X100950000Y-110950000D01*
X100950000Y-110950000D02*
X100000760Y-110950000D01*
X150000760Y-111950000D02*
X150450000Y-111950000D01*
X150450000Y-111950000D02*
X150950000Y-112450000D01*
X150950000Y-112450000D02*
X152000000Y-112450000D01*
X143000000Y-115450000D02*
X141950000Y-115450000D01*
X141450000Y-114950000D02*
X141000760Y-114950000D01*
X141950000Y-115450000D02*
X141450000Y-114950000D01*
D38*
X153000000Y-124000000D02*
X152550000Y-124450000D01*
X152550000Y-124450000D02*
X151000000Y-124450000D01*
X147920000Y-104000000D02*
X147920000Y-103080000D01*
D37*
X151050000Y-124500000D02*
X151000000Y-124450000D01*
X148950000Y-129550000D02*
X149000000Y-129550000D01*
D38*
X151000000Y-124450000D02*
X151000000Y-129550000D01*
D37*
X151000000Y-129550000D02*
X151000000Y-129500000D01*
X151000000Y-129500000D02*
X151000000Y-129550000D01*
D38*
X149000000Y-129550000D02*
X151000000Y-129550000D01*
X151000000Y-129550000D02*
X153000000Y-129550000D01*
X147000000Y-124450000D02*
X151000000Y-124450000D01*
D36*
X118500000Y-137198000D02*
X118500000Y-130810000D01*
X118000000Y-146500000D02*
X118000000Y-145500000D01*
X118000000Y-145500000D02*
X118500000Y-145000000D01*
X118500000Y-145000000D02*
X118500000Y-143802000D01*
X118500000Y-143802000D02*
X118500000Y-142000000D01*
X118500000Y-142000000D02*
X119000000Y-141500000D01*
X119000000Y-141500000D02*
X120000000Y-141500000D01*
X120000000Y-141500000D02*
X125500000Y-141500000D01*
X125500000Y-141500000D02*
X126000000Y-142000000D01*
D37*
X93555000Y-133300000D02*
X93555000Y-134305000D01*
X94250000Y-135000000D02*
X99500000Y-135000000D01*
X93555000Y-134305000D02*
X94250000Y-135000000D01*
X138460000Y-110000000D02*
X141000000Y-110000000D01*
X135450000Y-110000000D02*
X138460000Y-110000000D01*
X137000000Y-112550000D02*
X139001780Y-112550000D01*
X139000000Y-112500000D02*
X139001780Y-112500000D01*
X139000000Y-112548220D02*
X139000000Y-112500000D01*
X139001780Y-112550000D02*
X139000000Y-112548220D01*
X139001780Y-114000000D02*
X139001780Y-112500000D01*
X139001780Y-112500000D02*
X139001780Y-110541780D01*
X139001780Y-110541780D02*
X138460000Y-110000000D01*
X143000000Y-112550000D02*
X143000000Y-112000000D01*
X143000000Y-112000000D02*
X141000000Y-110000000D01*
X144000000Y-114000000D02*
X143000000Y-113000000D01*
X147000000Y-114000000D02*
X144000000Y-114000000D01*
X143000000Y-113000000D02*
X143000000Y-112550000D01*
X141000760Y-113050000D02*
X141000760Y-110000760D01*
X141000760Y-110000760D02*
X141000000Y-110000000D01*
X143000000Y-112550000D02*
X141950000Y-112550000D01*
X141450000Y-113050000D02*
X141000760Y-113050000D01*
X141950000Y-112550000D02*
X141450000Y-113050000D01*
X147460000Y-107000000D02*
X150000000Y-107000000D01*
X144450000Y-107000000D02*
X147460000Y-107000000D01*
X146000000Y-109550000D02*
X148001780Y-109550000D01*
X148000000Y-109500000D02*
X148001780Y-109500000D01*
X148000000Y-109548220D02*
X148000000Y-109500000D01*
X148001780Y-109550000D02*
X148000000Y-109548220D01*
X148001780Y-111000000D02*
X148001780Y-109500000D01*
X148001780Y-109500000D02*
X148001780Y-107541780D01*
X148001780Y-107541780D02*
X147460000Y-107000000D01*
X152000000Y-109550000D02*
X152000000Y-109000000D01*
X152000000Y-109000000D02*
X150000000Y-107000000D01*
X149000000Y-109000000D02*
X150000000Y-108000000D01*
X149000000Y-114000000D02*
X149000000Y-109000000D01*
X150000000Y-108000000D02*
X150000000Y-107000000D01*
X150000760Y-110050000D02*
X150000760Y-107000760D01*
X150000760Y-107000760D02*
X150000000Y-107000000D01*
X150000760Y-110050000D02*
X150450000Y-110050000D01*
X150950000Y-109550000D02*
X152000000Y-109550000D01*
X150450000Y-110050000D02*
X150950000Y-109550000D01*
X94825000Y-133300000D02*
X94825000Y-132275000D01*
X94825000Y-132275000D02*
X94000000Y-131450000D01*
X101175000Y-133300000D02*
X101175000Y-134675000D01*
X101175000Y-134675000D02*
X103750000Y-137250000D01*
X103750000Y-137250000D02*
X103750000Y-143000000D01*
X115000000Y-138750000D02*
X115250000Y-138500000D01*
X115000000Y-143000000D02*
X115000000Y-138750000D01*
X149000000Y-133250000D02*
X149000000Y-132450000D01*
X100000000Y-128500000D02*
X100000000Y-127750000D01*
X99500000Y-127250000D02*
X100000000Y-127750000D01*
X98790000Y-127250000D02*
X99500000Y-127250000D01*
X98790000Y-127250000D02*
X97040000Y-125500000D01*
X98660000Y-128500000D02*
X98660000Y-128160000D01*
X98660000Y-128160000D02*
X97750000Y-127250000D01*
X97750000Y-127250000D02*
X97250000Y-127250000D01*
X97340000Y-128500000D02*
X97340000Y-129910000D01*
X97340000Y-129910000D02*
X97000000Y-130250000D01*
X96000000Y-128500000D02*
X96000000Y-129750000D01*
X96250000Y-136500000D02*
X97000000Y-135750000D01*
X93250000Y-136500000D02*
X96250000Y-136500000D01*
X92500000Y-135750000D02*
X93250000Y-136500000D01*
X92500000Y-130750000D02*
X92500000Y-135750000D01*
X93250000Y-130000000D02*
X92500000Y-130750000D01*
X95750000Y-130000000D02*
X93250000Y-130000000D01*
X96000000Y-129750000D02*
X95750000Y-130000000D01*
X92500000Y-148750000D02*
X92500000Y-149250000D01*
X97750000Y-148750000D02*
X96000000Y-148750000D01*
X98500000Y-149500000D02*
X97750000Y-148750000D01*
X98500000Y-151000000D02*
X98500000Y-149500000D01*
X97750000Y-151750000D02*
X98500000Y-151000000D01*
X95000000Y-151750000D02*
X97750000Y-151750000D01*
X92500000Y-149250000D02*
X95000000Y-151750000D01*
X92500000Y-148750000D02*
X92500000Y-148750000D01*
X96000000Y-148750000D02*
X96000000Y-148750000D01*
X96000000Y-148500000D02*
X96000000Y-148750000D01*
X96000000Y-143500000D02*
X96000000Y-148500000D01*
X92500000Y-148750000D02*
X92500000Y-143000000D01*
X96750000Y-137250000D02*
X97000000Y-137000000D01*
X93250000Y-137250000D02*
X96750000Y-137250000D01*
X92500000Y-138000000D02*
X93250000Y-137250000D01*
X92500000Y-143000000D02*
X92500000Y-138000000D01*
X97340000Y-143500000D02*
X97340000Y-141840000D01*
X97340000Y-141840000D02*
X97250000Y-141750000D01*
X97500000Y-144750000D02*
X98000000Y-144750000D01*
X98000000Y-144750000D02*
X98660000Y-144090000D01*
X98660000Y-144090000D02*
X98660000Y-143500000D01*
X100000000Y-143500000D02*
X100000000Y-143750000D01*
X100000000Y-143750000D02*
X97500000Y-146250000D01*
X97500000Y-146250000D02*
X97250000Y-146250000D01*
X112620000Y-116220000D02*
X112620000Y-112880000D01*
X120750000Y-106000000D02*
X120001780Y-106000000D01*
X121000000Y-106250000D02*
X120750000Y-106000000D01*
X121000000Y-109750000D02*
X121000000Y-106250000D01*
X120000000Y-110750000D02*
X121000000Y-109750000D01*
X114750000Y-110750000D02*
X120000000Y-110750000D01*
X112620000Y-112880000D02*
X114750000Y-110750000D01*
X112620000Y-116220000D02*
X112780000Y-116220000D01*
X118000000Y-104550000D02*
X120001780Y-104550000D01*
X120000000Y-104500000D02*
X120001780Y-104500000D01*
X120000000Y-104548220D02*
X120000000Y-104500000D01*
X120001780Y-104550000D02*
X120000000Y-104548220D01*
X120001780Y-106000000D02*
X120001780Y-104500000D01*
X120001780Y-104500000D02*
X120001780Y-102541780D01*
X120001780Y-102541780D02*
X119460000Y-102000000D01*
X98001780Y-110000000D02*
X98001780Y-112501780D01*
X98001780Y-112501780D02*
X101720000Y-116220000D01*
X101720000Y-116220000D02*
X105000000Y-116220000D01*
X96000000Y-108550000D02*
X98001780Y-108550000D01*
X98000000Y-108500000D02*
X98001780Y-108500000D01*
X98000000Y-108548220D02*
X98000000Y-108500000D01*
X98001780Y-108550000D02*
X98000000Y-108548220D01*
X98001780Y-110000000D02*
X98001780Y-108500000D01*
X98001780Y-108500000D02*
X98001780Y-106541780D01*
X98001780Y-106541780D02*
X97460000Y-106000000D01*
X123000000Y-96500000D02*
X123500000Y-96500000D01*
X123500000Y-96500000D02*
X124500000Y-95500000D01*
X129500000Y-158500000D02*
X130000000Y-158500000D01*
X130000000Y-158500000D02*
X131000000Y-157500000D01*
X107500000Y-127000000D02*
X107500000Y-126500000D01*
X107500000Y-126250000D02*
X126250000Y-107500000D01*
X107500000Y-126500000D02*
X107500000Y-126250000D01*
X109794000Y-152635000D02*
X112635000Y-152635000D01*
X112635000Y-152635000D02*
X114000000Y-154000000D01*
X126250000Y-107500000D02*
X126250000Y-97250000D01*
X124500000Y-95500000D02*
X126250000Y-97250000D01*
X108250000Y-152750000D02*
X109679000Y-152750000D01*
X109679000Y-152750000D02*
X109794000Y-152635000D01*
X108250000Y-153250000D02*
X108250000Y-152750000D01*
X108250000Y-152750000D02*
X108250000Y-152000000D01*
X107500000Y-150500000D02*
X107500000Y-127000000D01*
X129500000Y-158500000D02*
X129500000Y-159750000D01*
X129500000Y-159750000D02*
X128000000Y-161250000D01*
X128000000Y-161250000D02*
X110750000Y-161250000D01*
X110750000Y-161250000D02*
X110080000Y-160580000D01*
X110080000Y-160580000D02*
X110080000Y-159400000D01*
X110080000Y-159400000D02*
X110080000Y-156830000D01*
X108250000Y-155000000D02*
X108250000Y-153250000D01*
X110080000Y-156830000D02*
X108250000Y-155000000D01*
X113635000Y-153635000D02*
X114000000Y-154000000D01*
X131000000Y-96500000D02*
X130500000Y-96500000D01*
X130500000Y-96500000D02*
X129500000Y-95500000D01*
X108500000Y-126500000D02*
X108250000Y-126750000D01*
X108500000Y-126500000D02*
X127375000Y-107625000D01*
X127375000Y-107625000D02*
X127375000Y-97625000D01*
X127375000Y-97625000D02*
X129500000Y-95500000D01*
X108250000Y-128000000D02*
X108250000Y-126750000D01*
X108250000Y-151250000D02*
X108250000Y-128000000D01*
X107540000Y-152000000D02*
X107540000Y-151710000D01*
X108000000Y-151250000D02*
X107540000Y-151710000D01*
X108000000Y-151250000D02*
X108250000Y-151250000D01*
X109794000Y-151365000D02*
X113435000Y-151365000D01*
X113435000Y-151365000D02*
X113550000Y-151250000D01*
X113435000Y-151365000D02*
X113550000Y-151250000D01*
X108250000Y-151250000D02*
X109679000Y-151250000D01*
X109679000Y-151250000D02*
X109794000Y-151365000D01*
X107540000Y-152210000D02*
X107540000Y-152000000D01*
X107540000Y-159400000D02*
X107540000Y-152210000D01*
X142840000Y-104000000D02*
X142840000Y-103090000D01*
X142840000Y-103090000D02*
X141750000Y-102000000D01*
X138000000Y-102000000D02*
X137000000Y-103000000D01*
X141750000Y-102000000D02*
X138000000Y-102000000D01*
X106500000Y-126250000D02*
X106500000Y-125750000D01*
X106500000Y-125750000D02*
X123500000Y-108750000D01*
X106095000Y-153905000D02*
X106500000Y-153500000D01*
X104206000Y-153905000D02*
X106095000Y-153905000D01*
X106500000Y-153500000D02*
X106500000Y-126250000D01*
X124000000Y-102000000D02*
X122000000Y-102000000D01*
X125000000Y-103000000D02*
X124000000Y-102000000D01*
X124000000Y-104550000D02*
X124000000Y-104000000D01*
X124000000Y-104000000D02*
X122000000Y-102000000D01*
X122000760Y-105050000D02*
X122000760Y-102000760D01*
X122000760Y-102000760D02*
X122000000Y-102000000D01*
X122000760Y-105050000D02*
X122450000Y-105050000D01*
X122950000Y-104550000D02*
X124000000Y-104550000D01*
X122450000Y-105050000D02*
X122950000Y-104550000D01*
X138750000Y-100750000D02*
X137250000Y-99250000D01*
X138750000Y-100750000D02*
X144500000Y-100750000D01*
X144500000Y-100750000D02*
X145380000Y-101630000D01*
X145380000Y-104000000D02*
X145380000Y-101630000D01*
X104206000Y-150095000D02*
X105000000Y-149301000D01*
X105000000Y-149301000D02*
X105000000Y-118750000D01*
X106250000Y-101750000D02*
X104250000Y-103750000D01*
X121750000Y-99250000D02*
X117250000Y-99250000D01*
X104250000Y-106000000D02*
X104250000Y-103750000D01*
X114750000Y-101750000D02*
X117250000Y-99250000D01*
X106250000Y-101750000D02*
X114750000Y-101750000D01*
X103000000Y-106000000D02*
X104250000Y-106000000D01*
X104250000Y-107250000D02*
X104250000Y-106000000D01*
X104250000Y-107250000D02*
X104250000Y-113500000D01*
X104250000Y-113500000D02*
X103000000Y-114750000D01*
X104206000Y-150095000D02*
X104250000Y-150051000D01*
X103000000Y-106000000D02*
X100000000Y-106000000D01*
X102000000Y-108550000D02*
X102000000Y-108000000D01*
X102000000Y-108000000D02*
X100000000Y-106000000D01*
X100000760Y-109050000D02*
X100000760Y-106000760D01*
X100000760Y-106000760D02*
X100000000Y-106000000D01*
X100000760Y-109050000D02*
X100450000Y-109050000D01*
X100950000Y-108550000D02*
X102000000Y-108550000D01*
X100450000Y-109050000D02*
X100950000Y-108550000D01*
D38*
X137000000Y-137250000D02*
X138250000Y-136000000D01*
X138250000Y-116000000D02*
X137700000Y-115450000D01*
X138250000Y-136000000D02*
X138250000Y-116000000D01*
X137700000Y-115450000D02*
X137000000Y-115450000D01*
D37*
X96750000Y-110000000D02*
X96000000Y-110750000D01*
X96000000Y-110750000D02*
X96000000Y-111450000D01*
X107000000Y-109450000D02*
X106950000Y-109500000D01*
X106950000Y-109500000D02*
X105500000Y-109500000D01*
X118000000Y-107450000D02*
X117200000Y-107450000D01*
X117200000Y-107450000D02*
X116000000Y-106250000D01*
X119950000Y-107450000D02*
X118000000Y-107450000D01*
X120000000Y-107500000D02*
X119950000Y-107450000D01*
D38*
X127000000Y-152500000D02*
X126790000Y-152290000D01*
X126790000Y-152290000D02*
X126790000Y-152000000D01*
D36*
X126790000Y-152000000D02*
X136000000Y-152000000D01*
X136000000Y-152000000D02*
X137000000Y-151000000D01*
X137000000Y-151000000D02*
X137000000Y-147000000D01*
D38*
X137000000Y-143500000D02*
X137000000Y-141750000D01*
X136250000Y-138000000D02*
X137000000Y-137250000D01*
X136250000Y-141000000D02*
X136250000Y-138000000D01*
X137000000Y-141750000D02*
X136250000Y-141000000D01*
X137000000Y-115450000D02*
X137000000Y-114000000D01*
X146000000Y-111000000D02*
X146000000Y-112450000D01*
D36*
X137000000Y-143500000D02*
X137000000Y-147000000D01*
X135500000Y-147000000D02*
X137000000Y-147000000D01*
X137000000Y-147000000D02*
X138500000Y-147000000D01*
X138500000Y-147000000D02*
X140000000Y-145500000D01*
D37*
X110750000Y-137250000D02*
X110750000Y-132000000D01*
X115500000Y-132000000D02*
X115500000Y-137250000D01*
X113000000Y-106550000D02*
X114550000Y-106550000D01*
X114550000Y-106550000D02*
X116000000Y-108000000D01*
X116000000Y-115000000D02*
X105750000Y-125250000D01*
X116000000Y-114250000D02*
X116000000Y-115000000D01*
X116000000Y-108000000D02*
X116000000Y-108000000D01*
X105750000Y-151750000D02*
X105750000Y-137250000D01*
X105750000Y-137250000D02*
X105750000Y-125250000D01*
X104865000Y-152635000D02*
X105750000Y-151750000D01*
X104206000Y-152635000D02*
X104865000Y-152635000D01*
X113000000Y-106550000D02*
X113000000Y-106000000D01*
X113000000Y-106000000D02*
X111000000Y-104000000D01*
X111000760Y-107050000D02*
X111000760Y-104000760D01*
X111000760Y-104000760D02*
X111000000Y-104000000D01*
X111000760Y-107050000D02*
X111450000Y-107050000D01*
X111450000Y-107050000D02*
X111950000Y-106550000D01*
X111950000Y-106550000D02*
X113000000Y-106550000D01*
X104206000Y-151365000D02*
X104206000Y-152635000D01*
X160040000Y-151310000D02*
X160040000Y-143690000D01*
X153000000Y-133250000D02*
X153000000Y-132450000D01*
X148000000Y-145750000D02*
X147500000Y-145250000D01*
X147500000Y-145250000D02*
X147500000Y-131250000D01*
X138750000Y-149250000D02*
X145500000Y-149250000D01*
X94825000Y-149000000D02*
X95575000Y-149750000D01*
X95575000Y-149750000D02*
X97250000Y-149750000D01*
X123750000Y-149250000D02*
X135000000Y-149250000D01*
X149000000Y-121500000D02*
X148950000Y-121550000D01*
X148950000Y-121550000D02*
X147000000Y-121550000D01*
X94825000Y-138700000D02*
X94825000Y-149000000D01*
X143000000Y-121500000D02*
X146950000Y-121500000D01*
X146950000Y-121500000D02*
X147000000Y-121550000D01*
X150540000Y-145810000D02*
X148500000Y-143770000D01*
X148500000Y-140230000D02*
X150540000Y-138190000D01*
X148500000Y-143770000D02*
X148500000Y-140230000D01*
X138750000Y-150750000D02*
X146500000Y-150750000D01*
X93555000Y-149000000D02*
X95305000Y-150750000D01*
X95305000Y-150750000D02*
X97250000Y-150750000D01*
X93555000Y-148750000D02*
X93555000Y-138700000D01*
X93555000Y-148750000D02*
X93555000Y-149000000D01*
X129500000Y-150750000D02*
X135000000Y-150750000D01*
X150500000Y-123000000D02*
X151000000Y-123000000D01*
X150540000Y-138190000D02*
X151000000Y-137730000D01*
X151000000Y-137730000D02*
X151000000Y-131250000D01*
X151000000Y-123000000D02*
X151000000Y-122500000D01*
X151000000Y-121550000D02*
X151000000Y-122500000D01*
X150500000Y-123000000D02*
X145000000Y-123000000D01*
X109000000Y-116220000D02*
X109000000Y-108001780D01*
X109000000Y-108001780D02*
X109001780Y-108000000D01*
X107000000Y-106550000D02*
X109001780Y-106550000D01*
X109000000Y-106500000D02*
X109001780Y-106500000D01*
X109000000Y-106548220D02*
X109000000Y-106500000D01*
X109001780Y-106550000D02*
X109000000Y-106548220D01*
X109001780Y-108000000D02*
X109001780Y-106500000D01*
X109001780Y-106500000D02*
X109001780Y-104541780D01*
X109001780Y-104541780D02*
X108460000Y-104000000D01*
X107540000Y-116220000D02*
X109000000Y-116220000D01*
X109000000Y-116220000D02*
X110080000Y-116220000D01*
D36*
X139800000Y-139500000D02*
X139800000Y-142760000D01*
X139800000Y-142760000D02*
X140000000Y-142960000D01*
X137700000Y-139500000D02*
X139800000Y-139500000D01*
D37*
X145000000Y-125500000D02*
X145000000Y-127550000D01*
X141000000Y-121500000D02*
X145000000Y-125500000D01*
X98635000Y-133300000D02*
X98635000Y-131525000D01*
X98635000Y-131525000D02*
X98660000Y-131500000D01*
X99905000Y-133300000D02*
X99905000Y-131595000D01*
X99905000Y-131595000D02*
X100000000Y-131500000D01*
X96095000Y-133300000D02*
X96095000Y-131595000D01*
X96095000Y-131595000D02*
X96000000Y-131500000D01*
X97365000Y-133300000D02*
X97365000Y-131525000D01*
X97365000Y-131525000D02*
X97340000Y-131500000D01*
X97365000Y-138700000D02*
X97365000Y-140475000D01*
X97365000Y-140475000D02*
X97340000Y-140500000D01*
X96095000Y-138700000D02*
X96095000Y-140405000D01*
X96095000Y-140405000D02*
X96000000Y-140500000D01*
X99905000Y-138700000D02*
X99905000Y-140405000D01*
X99905000Y-140405000D02*
X100000000Y-140500000D01*
X98635000Y-138700000D02*
X98635000Y-140475000D01*
X98635000Y-140475000D02*
X98660000Y-140500000D01*
X140750000Y-130000000D02*
X140750000Y-127500000D01*
X142000000Y-131000000D02*
X142000000Y-126500000D01*
X135750000Y-129000000D02*
X135750000Y-117750000D01*
X134000000Y-116000000D02*
X134000000Y-110500000D01*
X135750000Y-117750000D02*
X134000000Y-116000000D01*
X134000000Y-110500000D02*
X133500000Y-110000000D01*
X133500000Y-110000000D02*
X132550000Y-110000000D01*
X133500000Y-110000000D02*
X132550000Y-110000000D01*
X134000000Y-110500000D02*
X133500000Y-110000000D01*
X136500000Y-125000000D02*
X136500000Y-117250000D01*
X135000000Y-107000000D02*
X141550000Y-107000000D01*
X136500000Y-117250000D02*
X135000000Y-115750000D01*
X135000000Y-115750000D02*
X135000000Y-112000000D01*
X116450000Y-151250000D02*
X116450000Y-153910000D01*
X116450000Y-153910000D02*
X116540000Y-154000000D01*
D39*
G36*
X101829506Y-140537618D02*
X102145000Y-140582453D01*
X102498000Y-140582453D01*
X102498000Y-142302579D01*
X102493459Y-142309211D01*
X102383215Y-142566430D01*
X102325031Y-142840164D01*
X102321124Y-143119986D01*
X102371642Y-143395238D01*
X102474661Y-143655435D01*
X102626258Y-143890667D01*
X102820658Y-144091974D01*
X103050456Y-144251687D01*
X103306899Y-144363725D01*
X103580220Y-144423818D01*
X103748000Y-144427333D01*
X103748000Y-148664885D01*
X103487078Y-148690468D01*
X103219566Y-148771235D01*
X102972837Y-148902423D01*
X102756288Y-149079037D01*
X102578167Y-149294348D01*
X102445259Y-149540155D01*
X102362627Y-149807097D01*
X102333418Y-150085004D01*
X102358744Y-150363293D01*
X102437641Y-150631362D01*
X102488908Y-150729427D01*
X102445259Y-150810155D01*
X102362627Y-151077097D01*
X102333418Y-151355004D01*
X102358744Y-151633293D01*
X102437641Y-151901362D01*
X102488908Y-151999427D01*
X102445259Y-152080155D01*
X102362627Y-152347097D01*
X102333418Y-152625004D01*
X102358744Y-152903293D01*
X102437641Y-153171362D01*
X102488908Y-153269427D01*
X102445259Y-153350155D01*
X102362627Y-153617097D01*
X102333418Y-153895004D01*
X102358744Y-154173293D01*
X102437641Y-154441362D01*
X102567104Y-154689001D01*
X102742201Y-154906778D01*
X102956263Y-155086398D01*
X103201137Y-155221018D01*
X103467495Y-155305512D01*
X103745192Y-155336660D01*
X103765183Y-155336800D01*
X104646817Y-155336800D01*
X104924922Y-155309532D01*
X105192434Y-155228765D01*
X105327404Y-155157000D01*
X106095000Y-155157000D01*
X106210074Y-155145717D01*
X106288000Y-155138899D01*
X106288000Y-157584806D01*
X106269175Y-157599942D01*
X106077565Y-157441428D01*
X105746743Y-157262553D01*
X105387477Y-157151341D01*
X105013453Y-157112030D01*
X104638916Y-157146115D01*
X104278133Y-157252300D01*
X103944846Y-157426538D01*
X103651749Y-157662194D01*
X103410006Y-157950292D01*
X103228826Y-158279857D01*
X103115110Y-158638337D01*
X103073188Y-159012078D01*
X103073000Y-159038983D01*
X103073000Y-159761017D01*
X103109699Y-160135307D01*
X103218400Y-160495340D01*
X103392620Y-160823000D01*
X93177000Y-160823000D01*
X93177000Y-158220885D01*
X93369547Y-158220885D01*
X93462547Y-158727603D01*
X93652198Y-159206606D01*
X93931276Y-159639651D01*
X94289151Y-160010241D01*
X94712191Y-160304262D01*
X95184284Y-160510514D01*
X95687448Y-160621142D01*
X96202516Y-160631931D01*
X96709871Y-160542471D01*
X97190186Y-160356169D01*
X97625168Y-160080121D01*
X97998248Y-159724842D01*
X98295215Y-159303864D01*
X98504758Y-158833222D01*
X98618896Y-158330844D01*
X98627113Y-157742409D01*
X98527047Y-157237040D01*
X98330726Y-156760731D01*
X98045629Y-156331625D01*
X97682615Y-155966068D01*
X97255510Y-155677982D01*
X96780584Y-155478341D01*
X96275925Y-155374750D01*
X95760756Y-155371153D01*
X95254700Y-155467688D01*
X94777032Y-155660679D01*
X94345947Y-155942773D01*
X93977864Y-156303226D01*
X93686804Y-156728310D01*
X93483852Y-157201831D01*
X93376740Y-157705754D01*
X93369547Y-158220885D01*
X93177000Y-158220885D01*
X93177000Y-151697596D01*
X94114702Y-152635298D01*
X94204045Y-152708685D01*
X94292661Y-152783042D01*
X94298433Y-152786215D01*
X94303518Y-152790392D01*
X94405435Y-152845040D01*
X94506785Y-152900757D01*
X94513058Y-152902747D01*
X94518862Y-152905859D01*
X94629451Y-152939669D01*
X94739695Y-152974641D01*
X94746240Y-152975375D01*
X94752533Y-152977299D01*
X94867586Y-152988986D01*
X94982519Y-153001878D01*
X94995381Y-153001968D01*
X94995629Y-153001993D01*
X94995861Y-153001971D01*
X95000000Y-153002000D01*
X97750000Y-153002000D01*
X97865074Y-152990717D01*
X97980307Y-152980635D01*
X97986628Y-152978799D01*
X97993181Y-152978156D01*
X98103932Y-152944718D01*
X98214952Y-152912464D01*
X98220794Y-152909436D01*
X98227100Y-152907532D01*
X98329228Y-152853229D01*
X98431889Y-152800015D01*
X98437036Y-152795906D01*
X98442846Y-152792817D01*
X98532477Y-152719717D01*
X98622850Y-152647572D01*
X98632013Y-152638537D01*
X98632202Y-152638383D01*
X98632347Y-152638208D01*
X98635298Y-152635298D01*
X99385298Y-151885298D01*
X99458703Y-151795933D01*
X99533042Y-151707339D01*
X99536214Y-151701570D01*
X99540392Y-151696483D01*
X99595051Y-151594544D01*
X99650757Y-151493215D01*
X99652747Y-151486942D01*
X99655859Y-151481138D01*
X99689669Y-151370549D01*
X99724641Y-151260305D01*
X99725375Y-151253760D01*
X99727299Y-151247467D01*
X99738986Y-151132414D01*
X99751878Y-151017481D01*
X99751968Y-151004619D01*
X99751993Y-151004371D01*
X99751971Y-151004139D01*
X99752000Y-151000000D01*
X99752000Y-149500000D01*
X99740717Y-149384926D01*
X99730635Y-149269693D01*
X99728798Y-149263372D01*
X99728156Y-149256819D01*
X99694722Y-149146081D01*
X99662464Y-149035047D01*
X99659435Y-149029204D01*
X99657532Y-149022900D01*
X99603239Y-148920790D01*
X99550015Y-148818111D01*
X99545906Y-148812964D01*
X99542817Y-148807154D01*
X99469736Y-148717548D01*
X99397572Y-148627149D01*
X99388536Y-148617986D01*
X99388383Y-148617798D01*
X99388209Y-148617654D01*
X99385298Y-148614702D01*
X98635298Y-147864702D01*
X98545933Y-147791297D01*
X98457339Y-147716958D01*
X98451570Y-147713786D01*
X98446483Y-147709608D01*
X98344544Y-147654949D01*
X98243215Y-147599243D01*
X98236942Y-147597253D01*
X98231138Y-147594141D01*
X98120549Y-147560331D01*
X98010305Y-147525359D01*
X98003760Y-147524625D01*
X97997467Y-147522701D01*
X97920201Y-147514852D01*
X98132800Y-147379933D01*
X98335459Y-147186943D01*
X98350835Y-147165147D01*
X98372850Y-147147572D01*
X98382013Y-147138537D01*
X98382202Y-147138383D01*
X98382347Y-147138208D01*
X98385298Y-147135298D01*
X100438143Y-145082453D01*
X100450000Y-145082453D01*
X100629471Y-145068141D01*
X100933872Y-144973874D01*
X101199960Y-144798534D01*
X101406664Y-144556006D01*
X101537618Y-144265494D01*
X101582453Y-143950000D01*
X101582453Y-143050000D01*
X101568141Y-142870529D01*
X101473874Y-142566128D01*
X101298534Y-142300040D01*
X101056006Y-142093336D01*
X100849175Y-142000103D01*
X100933872Y-141973874D01*
X101199960Y-141798534D01*
X101406664Y-141556006D01*
X101537618Y-141265494D01*
X101582453Y-140950000D01*
X101582453Y-140573884D01*
X101654471Y-140568141D01*
X101798364Y-140523580D01*
X101829506Y-140537618D01*
X101829506Y-140537618D01*
G37*
X101829506Y-140537618D02*
X102145000Y-140582453D01*
X102498000Y-140582453D01*
X102498000Y-142302579D01*
X102493459Y-142309211D01*
X102383215Y-142566430D01*
X102325031Y-142840164D01*
X102321124Y-143119986D01*
X102371642Y-143395238D01*
X102474661Y-143655435D01*
X102626258Y-143890667D01*
X102820658Y-144091974D01*
X103050456Y-144251687D01*
X103306899Y-144363725D01*
X103580220Y-144423818D01*
X103748000Y-144427333D01*
X103748000Y-148664885D01*
X103487078Y-148690468D01*
X103219566Y-148771235D01*
X102972837Y-148902423D01*
X102756288Y-149079037D01*
X102578167Y-149294348D01*
X102445259Y-149540155D01*
X102362627Y-149807097D01*
X102333418Y-150085004D01*
X102358744Y-150363293D01*
X102437641Y-150631362D01*
X102488908Y-150729427D01*
X102445259Y-150810155D01*
X102362627Y-151077097D01*
X102333418Y-151355004D01*
X102358744Y-151633293D01*
X102437641Y-151901362D01*
X102488908Y-151999427D01*
X102445259Y-152080155D01*
X102362627Y-152347097D01*
X102333418Y-152625004D01*
X102358744Y-152903293D01*
X102437641Y-153171362D01*
X102488908Y-153269427D01*
X102445259Y-153350155D01*
X102362627Y-153617097D01*
X102333418Y-153895004D01*
X102358744Y-154173293D01*
X102437641Y-154441362D01*
X102567104Y-154689001D01*
X102742201Y-154906778D01*
X102956263Y-155086398D01*
X103201137Y-155221018D01*
X103467495Y-155305512D01*
X103745192Y-155336660D01*
X103765183Y-155336800D01*
X104646817Y-155336800D01*
X104924922Y-155309532D01*
X105192434Y-155228765D01*
X105327404Y-155157000D01*
X106095000Y-155157000D01*
X106210074Y-155145717D01*
X106288000Y-155138899D01*
X106288000Y-157584806D01*
X106269175Y-157599942D01*
X106077565Y-157441428D01*
X105746743Y-157262553D01*
X105387477Y-157151341D01*
X105013453Y-157112030D01*
X104638916Y-157146115D01*
X104278133Y-157252300D01*
X103944846Y-157426538D01*
X103651749Y-157662194D01*
X103410006Y-157950292D01*
X103228826Y-158279857D01*
X103115110Y-158638337D01*
X103073188Y-159012078D01*
X103073000Y-159038983D01*
X103073000Y-159761017D01*
X103109699Y-160135307D01*
X103218400Y-160495340D01*
X103392620Y-160823000D01*
X93177000Y-160823000D01*
X93177000Y-158220885D01*
X93369547Y-158220885D01*
X93462547Y-158727603D01*
X93652198Y-159206606D01*
X93931276Y-159639651D01*
X94289151Y-160010241D01*
X94712191Y-160304262D01*
X95184284Y-160510514D01*
X95687448Y-160621142D01*
X96202516Y-160631931D01*
X96709871Y-160542471D01*
X97190186Y-160356169D01*
X97625168Y-160080121D01*
X97998248Y-159724842D01*
X98295215Y-159303864D01*
X98504758Y-158833222D01*
X98618896Y-158330844D01*
X98627113Y-157742409D01*
X98527047Y-157237040D01*
X98330726Y-156760731D01*
X98045629Y-156331625D01*
X97682615Y-155966068D01*
X97255510Y-155677982D01*
X96780584Y-155478341D01*
X96275925Y-155374750D01*
X95760756Y-155371153D01*
X95254700Y-155467688D01*
X94777032Y-155660679D01*
X94345947Y-155942773D01*
X93977864Y-156303226D01*
X93686804Y-156728310D01*
X93483852Y-157201831D01*
X93376740Y-157705754D01*
X93369547Y-158220885D01*
X93177000Y-158220885D01*
X93177000Y-151697596D01*
X94114702Y-152635298D01*
X94204045Y-152708685D01*
X94292661Y-152783042D01*
X94298433Y-152786215D01*
X94303518Y-152790392D01*
X94405435Y-152845040D01*
X94506785Y-152900757D01*
X94513058Y-152902747D01*
X94518862Y-152905859D01*
X94629451Y-152939669D01*
X94739695Y-152974641D01*
X94746240Y-152975375D01*
X94752533Y-152977299D01*
X94867586Y-152988986D01*
X94982519Y-153001878D01*
X94995381Y-153001968D01*
X94995629Y-153001993D01*
X94995861Y-153001971D01*
X95000000Y-153002000D01*
X97750000Y-153002000D01*
X97865074Y-152990717D01*
X97980307Y-152980635D01*
X97986628Y-152978799D01*
X97993181Y-152978156D01*
X98103932Y-152944718D01*
X98214952Y-152912464D01*
X98220794Y-152909436D01*
X98227100Y-152907532D01*
X98329228Y-152853229D01*
X98431889Y-152800015D01*
X98437036Y-152795906D01*
X98442846Y-152792817D01*
X98532477Y-152719717D01*
X98622850Y-152647572D01*
X98632013Y-152638537D01*
X98632202Y-152638383D01*
X98632347Y-152638208D01*
X98635298Y-152635298D01*
X99385298Y-151885298D01*
X99458703Y-151795933D01*
X99533042Y-151707339D01*
X99536214Y-151701570D01*
X99540392Y-151696483D01*
X99595051Y-151594544D01*
X99650757Y-151493215D01*
X99652747Y-151486942D01*
X99655859Y-151481138D01*
X99689669Y-151370549D01*
X99724641Y-151260305D01*
X99725375Y-151253760D01*
X99727299Y-151247467D01*
X99738986Y-151132414D01*
X99751878Y-151017481D01*
X99751968Y-151004619D01*
X99751993Y-151004371D01*
X99751971Y-151004139D01*
X99752000Y-151000000D01*
X99752000Y-149500000D01*
X99740717Y-149384926D01*
X99730635Y-149269693D01*
X99728798Y-149263372D01*
X99728156Y-149256819D01*
X99694722Y-149146081D01*
X99662464Y-149035047D01*
X99659435Y-149029204D01*
X99657532Y-149022900D01*
X99603239Y-148920790D01*
X99550015Y-148818111D01*
X99545906Y-148812964D01*
X99542817Y-148807154D01*
X99469736Y-148717548D01*
X99397572Y-148627149D01*
X99388536Y-148617986D01*
X99388383Y-148617798D01*
X99388209Y-148617654D01*
X99385298Y-148614702D01*
X98635298Y-147864702D01*
X98545933Y-147791297D01*
X98457339Y-147716958D01*
X98451570Y-147713786D01*
X98446483Y-147709608D01*
X98344544Y-147654949D01*
X98243215Y-147599243D01*
X98236942Y-147597253D01*
X98231138Y-147594141D01*
X98120549Y-147560331D01*
X98010305Y-147525359D01*
X98003760Y-147524625D01*
X97997467Y-147522701D01*
X97920201Y-147514852D01*
X98132800Y-147379933D01*
X98335459Y-147186943D01*
X98350835Y-147165147D01*
X98372850Y-147147572D01*
X98382013Y-147138537D01*
X98382202Y-147138383D01*
X98382347Y-147138208D01*
X98385298Y-147135298D01*
X100438143Y-145082453D01*
X100450000Y-145082453D01*
X100629471Y-145068141D01*
X100933872Y-144973874D01*
X101199960Y-144798534D01*
X101406664Y-144556006D01*
X101537618Y-144265494D01*
X101582453Y-143950000D01*
X101582453Y-143050000D01*
X101568141Y-142870529D01*
X101473874Y-142566128D01*
X101298534Y-142300040D01*
X101056006Y-142093336D01*
X100849175Y-142000103D01*
X100933872Y-141973874D01*
X101199960Y-141798534D01*
X101406664Y-141556006D01*
X101537618Y-141265494D01*
X101582453Y-140950000D01*
X101582453Y-140573884D01*
X101654471Y-140568141D01*
X101798364Y-140523580D01*
X101829506Y-140537618D01*
G36*
X137100009Y-93185619D02*
X138000000Y-94085610D01*
X138899991Y-93185619D01*
X138890580Y-93177000D01*
X154873000Y-93177000D01*
X154873000Y-100628390D01*
X154796690Y-100604183D01*
X154789231Y-100603346D01*
X154782057Y-100601153D01*
X154650952Y-100587836D01*
X154519924Y-100573139D01*
X154505253Y-100573037D01*
X154504981Y-100573009D01*
X154504727Y-100573033D01*
X154500000Y-100573000D01*
X149000000Y-100573000D01*
X148868880Y-100585856D01*
X148737502Y-100597351D01*
X148730295Y-100599445D01*
X148722828Y-100600177D01*
X148596651Y-100638272D01*
X148470058Y-100675051D01*
X148463396Y-100678504D01*
X148456213Y-100680673D01*
X148339823Y-100742558D01*
X148222800Y-100803217D01*
X148216937Y-100807897D01*
X148210310Y-100811421D01*
X148108163Y-100894731D01*
X148005146Y-100976968D01*
X147994698Y-100987271D01*
X147994487Y-100987443D01*
X147994325Y-100987638D01*
X147990959Y-100990958D01*
X146910959Y-102070959D01*
X146827323Y-102172778D01*
X146824851Y-102175725D01*
X146649746Y-102316513D01*
X146632000Y-102301833D01*
X146632000Y-101630000D01*
X146620717Y-101514922D01*
X146610635Y-101399693D01*
X146608799Y-101393372D01*
X146608156Y-101386819D01*
X146574718Y-101276068D01*
X146542464Y-101165048D01*
X146539436Y-101159206D01*
X146537532Y-101152900D01*
X146483218Y-101050751D01*
X146430015Y-100948112D01*
X146425908Y-100942967D01*
X146422817Y-100937154D01*
X146349699Y-100847502D01*
X146277572Y-100757150D01*
X146268537Y-100747987D01*
X146268383Y-100747798D01*
X146268208Y-100747653D01*
X146265298Y-100744702D01*
X145385298Y-99864702D01*
X145295933Y-99791297D01*
X145207339Y-99716958D01*
X145201570Y-99713786D01*
X145196483Y-99709608D01*
X145094544Y-99654949D01*
X144993215Y-99599243D01*
X144986942Y-99597253D01*
X144981138Y-99594141D01*
X144870549Y-99560331D01*
X144760305Y-99525359D01*
X144753760Y-99524625D01*
X144747467Y-99522701D01*
X144632414Y-99511014D01*
X144517481Y-99498122D01*
X144504619Y-99498032D01*
X144504371Y-99498007D01*
X144504139Y-99498029D01*
X144500000Y-99498000D01*
X139268595Y-99498000D01*
X138626792Y-98856196D01*
X138622705Y-98835556D01*
X138516063Y-98576822D01*
X138361197Y-98343730D01*
X138164005Y-98145157D01*
X138132531Y-98123928D01*
X138402142Y-98109152D01*
X138626949Y-98064436D01*
X138899991Y-97814381D01*
X138000000Y-96914390D01*
X137100009Y-97814381D01*
X137110344Y-97823846D01*
X136845149Y-97874435D01*
X136585677Y-97979268D01*
X136351510Y-98132503D01*
X136151565Y-98328304D01*
X135993459Y-98559211D01*
X135883215Y-98816430D01*
X135825031Y-99090164D01*
X135821124Y-99369986D01*
X135871642Y-99645238D01*
X135974661Y-99905435D01*
X136126258Y-100140667D01*
X136320658Y-100341974D01*
X136550456Y-100501687D01*
X136806899Y-100613725D01*
X136853340Y-100623936D01*
X137240747Y-101011343D01*
X137217559Y-101030254D01*
X137127150Y-101102427D01*
X137117990Y-101111460D01*
X137117798Y-101111617D01*
X137117651Y-101111795D01*
X137114703Y-101114702D01*
X136607284Y-101622120D01*
X136595149Y-101624435D01*
X136335677Y-101729268D01*
X136101510Y-101882503D01*
X135901565Y-102078304D01*
X135743459Y-102309211D01*
X135633215Y-102566430D01*
X135575031Y-102840164D01*
X135571124Y-103119986D01*
X135621642Y-103395238D01*
X135724661Y-103655435D01*
X135876258Y-103890667D01*
X136070658Y-104091974D01*
X136300456Y-104251687D01*
X136556899Y-104363725D01*
X136830220Y-104423818D01*
X137110008Y-104429679D01*
X137385605Y-104381084D01*
X137646516Y-104279883D01*
X137882800Y-104129933D01*
X138085459Y-103936943D01*
X138246773Y-103708266D01*
X138345921Y-103485577D01*
X138309594Y-103809438D01*
X138309400Y-103837231D01*
X138309400Y-104162769D01*
X138347311Y-104549412D01*
X138459599Y-104921328D01*
X138641987Y-105264350D01*
X138887528Y-105565414D01*
X139108238Y-105748000D01*
X135695835Y-105748000D01*
X135682000Y-105738668D01*
X135424017Y-105630222D01*
X135149884Y-105573950D01*
X134870041Y-105571996D01*
X134595149Y-105624435D01*
X134335677Y-105729268D01*
X134101510Y-105882503D01*
X133901565Y-106078304D01*
X133743459Y-106309211D01*
X133633215Y-106566430D01*
X133575031Y-106840164D01*
X133571124Y-107119986D01*
X133621642Y-107395238D01*
X133724661Y-107655435D01*
X133876258Y-107890667D01*
X134070658Y-108091974D01*
X134300456Y-108251687D01*
X134315565Y-108258288D01*
X134250040Y-108301466D01*
X134043336Y-108543994D01*
X134002739Y-108634055D01*
X133848534Y-108400040D01*
X133606006Y-108193336D01*
X133315494Y-108062382D01*
X133000000Y-108017547D01*
X132100000Y-108017547D01*
X131920529Y-108031859D01*
X131616128Y-108126126D01*
X131350040Y-108301466D01*
X131143336Y-108543994D01*
X131012382Y-108834506D01*
X130967547Y-109150000D01*
X130967547Y-110850000D01*
X130981859Y-111029471D01*
X131076126Y-111333872D01*
X131251466Y-111599960D01*
X131493994Y-111806664D01*
X131784506Y-111937618D01*
X132100000Y-111982453D01*
X132748000Y-111982453D01*
X132748000Y-116000000D01*
X132759283Y-116115074D01*
X132769365Y-116230307D01*
X132771201Y-116236628D01*
X132771844Y-116243181D01*
X132805282Y-116353932D01*
X132837536Y-116464952D01*
X132840564Y-116470794D01*
X132842468Y-116477100D01*
X132896771Y-116579228D01*
X132949985Y-116681889D01*
X132954094Y-116687036D01*
X132957183Y-116692846D01*
X133030283Y-116782477D01*
X133102428Y-116872850D01*
X133111463Y-116882013D01*
X133111617Y-116882202D01*
X133111792Y-116882347D01*
X133114702Y-116885298D01*
X134498000Y-118268596D01*
X134498000Y-128302579D01*
X134493459Y-128309211D01*
X134383215Y-128566430D01*
X134325031Y-128840164D01*
X134321124Y-129119986D01*
X134371642Y-129395238D01*
X134474661Y-129655435D01*
X134626258Y-129890667D01*
X134820658Y-130091974D01*
X135050456Y-130251687D01*
X135306899Y-130363725D01*
X135580220Y-130423818D01*
X135860008Y-130429679D01*
X136135605Y-130381084D01*
X136396516Y-130279883D01*
X136632800Y-130129933D01*
X136823000Y-129948808D01*
X136823000Y-135408918D01*
X135240959Y-136990959D01*
X135157323Y-137092778D01*
X135072563Y-137193792D01*
X135068948Y-137200367D01*
X135064185Y-137206166D01*
X135001882Y-137322360D01*
X134938394Y-137437845D01*
X134936126Y-137444995D01*
X134932579Y-137451610D01*
X134894040Y-137577665D01*
X134854183Y-137703310D01*
X134853346Y-137710769D01*
X134851153Y-137717943D01*
X134837836Y-137849048D01*
X134823139Y-137980076D01*
X134823037Y-137994747D01*
X134823009Y-137995019D01*
X134823033Y-137995273D01*
X134823000Y-138000000D01*
X134823000Y-141000000D01*
X134835860Y-141131157D01*
X134847351Y-141262499D01*
X134849445Y-141269707D01*
X134850177Y-141277172D01*
X134888269Y-141403337D01*
X134925051Y-141529942D01*
X134928504Y-141536604D01*
X134930673Y-141543787D01*
X134992558Y-141660177D01*
X135035255Y-141742547D01*
X134500000Y-141742547D01*
X134320529Y-141756859D01*
X134016128Y-141851126D01*
X133907055Y-141923000D01*
X133578663Y-141923000D01*
X133387590Y-141863853D01*
X132974846Y-141820472D01*
X132561536Y-141858086D01*
X132163403Y-141975263D01*
X131795612Y-142167539D01*
X131472173Y-142427591D01*
X131205404Y-142745513D01*
X131005468Y-143109196D01*
X130879979Y-143504788D01*
X130833717Y-143917220D01*
X130833510Y-143946910D01*
X130833510Y-144973090D01*
X130874009Y-145386127D01*
X130993962Y-145783432D01*
X131169935Y-146114390D01*
X131169935Y-146500255D01*
X131485878Y-146500255D01*
X131770882Y-146736030D01*
X131813000Y-146758803D01*
X131813000Y-147499745D01*
X131169935Y-147499745D01*
X131169935Y-147998000D01*
X129670065Y-147998000D01*
X129670065Y-147499745D01*
X128537451Y-147499745D01*
X128469040Y-147735724D01*
X128672067Y-147981954D01*
X128687471Y-147998000D01*
X124445835Y-147998000D01*
X124432000Y-147988668D01*
X124174017Y-147880222D01*
X123899884Y-147823950D01*
X123620041Y-147821996D01*
X123345149Y-147874435D01*
X123085677Y-147979268D01*
X122851510Y-148132503D01*
X122651565Y-148328304D01*
X122493459Y-148559211D01*
X122383215Y-148816430D01*
X122325031Y-149090164D01*
X122321124Y-149369986D01*
X122371642Y-149645238D01*
X122461819Y-149873000D01*
X121688246Y-149873000D01*
X121567111Y-149897095D01*
X121453004Y-149944360D01*
X121350311Y-150012977D01*
X121262977Y-150100311D01*
X121194360Y-150203004D01*
X121147095Y-150317111D01*
X121123000Y-150438246D01*
X121123000Y-151093250D01*
X121279750Y-151250000D01*
X122500000Y-151250000D01*
X122500000Y-150607000D01*
X123291506Y-150607000D01*
X123306899Y-150613725D01*
X123580220Y-150673818D01*
X123860008Y-150679679D01*
X124000000Y-150654995D01*
X124000000Y-151250000D01*
X124157547Y-151250000D01*
X124157547Y-152750000D01*
X124000000Y-152750000D01*
X124000000Y-153970250D01*
X124156750Y-154127000D01*
X124360441Y-154127000D01*
X124441466Y-154249960D01*
X124683994Y-154456664D01*
X124974506Y-154587618D01*
X125290000Y-154632453D01*
X128290000Y-154632453D01*
X128469471Y-154618141D01*
X128773872Y-154523874D01*
X129039960Y-154348534D01*
X129246664Y-154106006D01*
X129377618Y-153815494D01*
X129411510Y-153577000D01*
X136000000Y-153577000D01*
X136144992Y-153562783D01*
X136290091Y-153550089D01*
X136298055Y-153547775D01*
X136306308Y-153546966D01*
X136445763Y-153504862D01*
X136585647Y-153464222D01*
X136593009Y-153460406D01*
X136600948Y-153458009D01*
X136729544Y-153389633D01*
X136858896Y-153322584D01*
X136865379Y-153317408D01*
X136872698Y-153313517D01*
X136985565Y-153221465D01*
X137099429Y-153130568D01*
X137110968Y-153119189D01*
X137111208Y-153118993D01*
X137111392Y-153118771D01*
X137115107Y-153115107D01*
X138115108Y-152115107D01*
X138166594Y-152052427D01*
X138306899Y-152113725D01*
X138580220Y-152173818D01*
X138860008Y-152179679D01*
X139135605Y-152131084D01*
X139396516Y-152029883D01*
X139440453Y-152002000D01*
X145801172Y-152002000D01*
X146056899Y-152113725D01*
X146330220Y-152173818D01*
X146610008Y-152179679D01*
X146885605Y-152131084D01*
X147146516Y-152029883D01*
X147382800Y-151879933D01*
X147585459Y-151686943D01*
X147746773Y-151458266D01*
X147860598Y-151202611D01*
X147922598Y-150929716D01*
X147927062Y-150610075D01*
X147901682Y-150481896D01*
X149844893Y-152425108D01*
X149957463Y-152517574D01*
X150069047Y-152611204D01*
X150076316Y-152615200D01*
X150082723Y-152620463D01*
X150211123Y-152689311D01*
X150338754Y-152759476D01*
X150346655Y-152761982D01*
X150353967Y-152765903D01*
X150493312Y-152808505D01*
X150632123Y-152852539D01*
X150640363Y-152853463D01*
X150648294Y-152855888D01*
X150793271Y-152870614D01*
X150937982Y-152886846D01*
X150954183Y-152886959D01*
X150954495Y-152886991D01*
X150954786Y-152886964D01*
X150960000Y-152887000D01*
X153525886Y-152887000D01*
X153574779Y-152937630D01*
X153917301Y-153175689D01*
X154299540Y-153342685D01*
X154706936Y-153432257D01*
X154873000Y-153435736D01*
X154873000Y-160823000D01*
X140095550Y-160823000D01*
X140378767Y-160553296D01*
X140732284Y-160052154D01*
X140888992Y-159700182D01*
X141815264Y-160626454D01*
X142263752Y-160177966D01*
X142202146Y-160116360D01*
X142438504Y-160074967D01*
X142510401Y-160053157D01*
X142630023Y-159837130D01*
X142000000Y-159207107D01*
X141646447Y-159560661D01*
X141092059Y-159006273D01*
X141117602Y-158893845D01*
X141120697Y-158672196D01*
X141292893Y-158500000D01*
X142707107Y-158500000D01*
X143337130Y-159130023D01*
X143553157Y-159010401D01*
X143622888Y-158697588D01*
X143630252Y-158377182D01*
X143574967Y-158061496D01*
X143553157Y-157989599D01*
X143337130Y-157869977D01*
X142707107Y-158500000D01*
X141292893Y-158500000D01*
X141125440Y-158332547D01*
X141127384Y-158193357D01*
X141088551Y-157997235D01*
X141646447Y-157439340D01*
X142000000Y-157792893D01*
X142630023Y-157162870D01*
X142510401Y-156946843D01*
X142206653Y-156879133D01*
X142253333Y-156832453D01*
X143000000Y-156832453D01*
X143179471Y-156818141D01*
X143483872Y-156723874D01*
X143749960Y-156548534D01*
X143956664Y-156306006D01*
X144087618Y-156015494D01*
X144132453Y-155700000D01*
X144132453Y-153700000D01*
X144118141Y-153520529D01*
X144023874Y-153216128D01*
X143848534Y-152950040D01*
X143606006Y-152743336D01*
X143315494Y-152612382D01*
X143000000Y-152567547D01*
X141000000Y-152567547D01*
X140820529Y-152581859D01*
X140516128Y-152676126D01*
X140250040Y-152851466D01*
X140043336Y-153093994D01*
X139912382Y-153384506D01*
X139867547Y-153700000D01*
X139867547Y-155700000D01*
X139881859Y-155879471D01*
X139927875Y-156028062D01*
X139494592Y-155735809D01*
X138929227Y-155498151D01*
X138328468Y-155374833D01*
X137715198Y-155370552D01*
X137112776Y-155485470D01*
X136544147Y-155715211D01*
X136038412Y-156046154D01*
X136002587Y-156002228D01*
X135684147Y-155738791D01*
X135320603Y-155542224D01*
X134925803Y-155420012D01*
X134514784Y-155376813D01*
X134103201Y-155414270D01*
X133706733Y-155530956D01*
X133340480Y-155722429D01*
X133018393Y-155981394D01*
X132753747Y-156296787D01*
X132655885Y-156149493D01*
X132362034Y-155853583D01*
X132016304Y-155620385D01*
X131631863Y-155458781D01*
X131223354Y-155374926D01*
X130806338Y-155372015D01*
X130396699Y-155450158D01*
X130234669Y-155515623D01*
X129925803Y-155420012D01*
X129514784Y-155376813D01*
X129103201Y-155414270D01*
X128706733Y-155530956D01*
X128340480Y-155722429D01*
X128018393Y-155981394D01*
X127752740Y-156297987D01*
X127553639Y-156660150D01*
X127428675Y-157054087D01*
X127382606Y-157464795D01*
X127382400Y-157494361D01*
X127382400Y-159505639D01*
X127422729Y-159916950D01*
X127447199Y-159998000D01*
X126554802Y-159998000D01*
X126571325Y-159945913D01*
X126617394Y-159535205D01*
X126617600Y-159505639D01*
X126617600Y-157494361D01*
X126577271Y-157083050D01*
X126457819Y-156687406D01*
X126263794Y-156322499D01*
X126002587Y-156002228D01*
X125684147Y-155738791D01*
X125320603Y-155542224D01*
X124925803Y-155420012D01*
X124514784Y-155376813D01*
X124103201Y-155414270D01*
X123763686Y-155514194D01*
X123631863Y-155458781D01*
X123223354Y-155374926D01*
X122806338Y-155372015D01*
X122396699Y-155450158D01*
X122010039Y-155606379D01*
X121661086Y-155834727D01*
X121363132Y-156126505D01*
X121127526Y-156470599D01*
X120966994Y-156845148D01*
X120879231Y-156664206D01*
X120687840Y-156411372D01*
X120450801Y-156200734D01*
X120230096Y-156065936D01*
X119995300Y-156135078D01*
X119995300Y-157509400D01*
X120490600Y-157509400D01*
X120490600Y-159490600D01*
X119995300Y-159490600D01*
X119995300Y-159893000D01*
X119004700Y-159893000D01*
X119004700Y-159490600D01*
X118742002Y-159490600D01*
X118837160Y-159395442D01*
X118564964Y-159123246D01*
X118637472Y-158614606D01*
X118609152Y-158097858D01*
X118564436Y-157873051D01*
X118509400Y-157812956D01*
X118509400Y-157509400D01*
X119004700Y-157509400D01*
X119004700Y-156135078D01*
X118769904Y-156065936D01*
X118549199Y-156200734D01*
X118312160Y-156411372D01*
X118120769Y-156664206D01*
X117982381Y-156949521D01*
X117936069Y-157126998D01*
X117882400Y-157126998D01*
X117882400Y-158031990D01*
X117414390Y-158500000D01*
X117692195Y-158777805D01*
X116472000Y-159998000D01*
X116083610Y-159998000D01*
X116000000Y-159914390D01*
X115916390Y-159998000D01*
X115528000Y-159998000D01*
X114544610Y-159014610D01*
X114510301Y-158664693D01*
X114489573Y-158596037D01*
X114585610Y-158500000D01*
X114406500Y-158320890D01*
X114401600Y-158304660D01*
X114225039Y-157972597D01*
X114047000Y-157754300D01*
X114047000Y-157370000D01*
X114034144Y-157238880D01*
X114022649Y-157107502D01*
X114020555Y-157100295D01*
X114019823Y-157092828D01*
X113981728Y-156966651D01*
X113944949Y-156840058D01*
X113941496Y-156833396D01*
X113939327Y-156826213D01*
X113877463Y-156709862D01*
X113816784Y-156592800D01*
X113812101Y-156586933D01*
X113808579Y-156580310D01*
X113725292Y-156478190D01*
X113643032Y-156375146D01*
X113632729Y-156364698D01*
X113632557Y-156364487D01*
X113632362Y-156364325D01*
X113629042Y-156360959D01*
X113416536Y-156148453D01*
X115016000Y-156148453D01*
X115152475Y-156137570D01*
X115100009Y-156185619D01*
X116000000Y-157085610D01*
X116899991Y-156185619D01*
X116859408Y-156148453D01*
X117556000Y-156148453D01*
X117735471Y-156134141D01*
X118039872Y-156039874D01*
X118305960Y-155864534D01*
X118512664Y-155622006D01*
X118643618Y-155331494D01*
X118688453Y-155016000D01*
X118688453Y-152984000D01*
X118682293Y-152906750D01*
X121123000Y-152906750D01*
X121123000Y-153561754D01*
X121147095Y-153682889D01*
X121194360Y-153796996D01*
X121262977Y-153899689D01*
X121350311Y-153987023D01*
X121453004Y-154055640D01*
X121567111Y-154102905D01*
X121688246Y-154127000D01*
X122343250Y-154127000D01*
X122500000Y-153970250D01*
X122500000Y-152750000D01*
X121279750Y-152750000D01*
X121123000Y-152906750D01*
X118682293Y-152906750D01*
X118674141Y-152804529D01*
X118579874Y-152500128D01*
X118404534Y-152234040D01*
X118162006Y-152027336D01*
X118032453Y-151968937D01*
X118032453Y-150400000D01*
X118018141Y-150220529D01*
X117923874Y-149916128D01*
X117748534Y-149650040D01*
X117506006Y-149443336D01*
X117215494Y-149312382D01*
X116900000Y-149267547D01*
X116000000Y-149267547D01*
X115820529Y-149281859D01*
X115516128Y-149376126D01*
X115250040Y-149551466D01*
X115043336Y-149793994D01*
X115002739Y-149884055D01*
X114848534Y-149650040D01*
X114606006Y-149443336D01*
X114315494Y-149312382D01*
X114000000Y-149267547D01*
X113100000Y-149267547D01*
X112920529Y-149281859D01*
X112616128Y-149376126D01*
X112350040Y-149551466D01*
X112143336Y-149793994D01*
X112012382Y-150084506D01*
X112008333Y-150113000D01*
X111665741Y-150113000D01*
X111666582Y-150104996D01*
X111641256Y-149826707D01*
X111562359Y-149558638D01*
X111432896Y-149310999D01*
X111257799Y-149093222D01*
X111221000Y-149062344D01*
X111221000Y-146544000D01*
X111208140Y-146412843D01*
X111196649Y-146281501D01*
X111194555Y-146274293D01*
X111193823Y-146266828D01*
X111177000Y-146211108D01*
X111177000Y-143119986D01*
X113571124Y-143119986D01*
X113621642Y-143395238D01*
X113724661Y-143655435D01*
X113876258Y-143890667D01*
X114070658Y-144091974D01*
X114300456Y-144251687D01*
X114556899Y-144363725D01*
X114558583Y-144364095D01*
X114550524Y-144378754D01*
X114548017Y-144386657D01*
X114544098Y-144393966D01*
X114501518Y-144533239D01*
X114457461Y-144672123D01*
X114456536Y-144680368D01*
X114454113Y-144688294D01*
X114439396Y-144833177D01*
X114423154Y-144977982D01*
X114423041Y-144994194D01*
X114423010Y-144994495D01*
X114423037Y-144994776D01*
X114423000Y-145000000D01*
X114423000Y-145535951D01*
X114412382Y-145559506D01*
X114367547Y-145875000D01*
X114367547Y-147125000D01*
X114381859Y-147304471D01*
X114476126Y-147608872D01*
X114651466Y-147874960D01*
X114893994Y-148081664D01*
X115184506Y-148212618D01*
X115500000Y-148257453D01*
X116500000Y-148257453D01*
X116679471Y-148243141D01*
X116983872Y-148148874D01*
X117007928Y-148133022D01*
X117184506Y-148212618D01*
X117500000Y-148257453D01*
X118500000Y-148257453D01*
X118679471Y-148243141D01*
X118983872Y-148148874D01*
X119249960Y-147973534D01*
X119288612Y-147928183D01*
X119360008Y-147929679D01*
X119635605Y-147881084D01*
X119896516Y-147779883D01*
X120132800Y-147629933D01*
X120335459Y-147436943D01*
X120496773Y-147208266D01*
X120610598Y-146952611D01*
X120672598Y-146679716D01*
X120674663Y-146531866D01*
X120676965Y-146509962D01*
X120675234Y-146490945D01*
X120677062Y-146360075D01*
X120658094Y-146264276D01*
X128469040Y-146264276D01*
X128537451Y-146500255D01*
X129670065Y-146500255D01*
X129670065Y-145588838D01*
X129427862Y-145490431D01*
X129142809Y-145615374D01*
X128887608Y-145793528D01*
X128672067Y-146018046D01*
X128469040Y-146264276D01*
X120658094Y-146264276D01*
X120622705Y-146085556D01*
X120516063Y-145826822D01*
X120361197Y-145593730D01*
X120212826Y-145444320D01*
X120216246Y-145445000D01*
X120375250Y-145445000D01*
X120532000Y-145288250D01*
X120532000Y-144310000D01*
X121040000Y-144310000D01*
X121040000Y-145288250D01*
X121196750Y-145445000D01*
X121355754Y-145445000D01*
X121476889Y-145420905D01*
X121590996Y-145373640D01*
X121693689Y-145305023D01*
X121781023Y-145217689D01*
X121849640Y-145114996D01*
X121896905Y-145000889D01*
X121921000Y-144879754D01*
X121921000Y-144466750D01*
X121764250Y-144310000D01*
X121040000Y-144310000D01*
X120532000Y-144310000D01*
X120278000Y-144310000D01*
X120278000Y-143294000D01*
X120532000Y-143294000D01*
X120532000Y-143077000D01*
X121040000Y-143077000D01*
X121040000Y-143294000D01*
X121764250Y-143294000D01*
X121921000Y-143137250D01*
X121921000Y-143077000D01*
X122073000Y-143077000D01*
X122073000Y-144373002D01*
X122700000Y-144373002D01*
X122700000Y-144127000D01*
X122943250Y-144127000D01*
X123100000Y-143970250D01*
X123100000Y-143250000D01*
X122700000Y-143250000D01*
X122700000Y-143077000D01*
X124127546Y-143077000D01*
X124176126Y-143233872D01*
X124186754Y-143250000D01*
X123900000Y-143250000D01*
X123900000Y-143970250D01*
X124056750Y-144127000D01*
X124300000Y-144127000D01*
X124300000Y-144373002D01*
X124927000Y-144373002D01*
X124927000Y-143843657D01*
X125200000Y-143882453D01*
X126800000Y-143882453D01*
X126979471Y-143868141D01*
X127283872Y-143773874D01*
X127549960Y-143598534D01*
X127756664Y-143356006D01*
X127887618Y-143065494D01*
X127932453Y-142750000D01*
X127932453Y-142571020D01*
X127988991Y-142576962D01*
X128295500Y-142549067D01*
X128590755Y-142462169D01*
X128863507Y-142319577D01*
X129103369Y-142126723D01*
X129301204Y-141890953D01*
X129449476Y-141621246D01*
X129542539Y-141327877D01*
X129576846Y-141022018D01*
X129577000Y-141000000D01*
X129577000Y-140081750D01*
X133723000Y-140081750D01*
X133723000Y-140411754D01*
X133747095Y-140532889D01*
X133794360Y-140646996D01*
X133862977Y-140749689D01*
X133950311Y-140837023D01*
X134053004Y-140905640D01*
X134167111Y-140952905D01*
X134288246Y-140977000D01*
X134418250Y-140977000D01*
X134575000Y-140820250D01*
X134575000Y-139925000D01*
X133879750Y-139925000D01*
X133723000Y-140081750D01*
X129577000Y-140081750D01*
X129577000Y-138588246D01*
X133723000Y-138588246D01*
X133723000Y-138918250D01*
X133879750Y-139075000D01*
X134575000Y-139075000D01*
X134575000Y-138179750D01*
X134418250Y-138023000D01*
X134288246Y-138023000D01*
X134167111Y-138047095D01*
X134053004Y-138094360D01*
X133950311Y-138162977D01*
X133862977Y-138250311D01*
X133794360Y-138353004D01*
X133747095Y-138467111D01*
X133723000Y-138588246D01*
X129577000Y-138588246D01*
X129577000Y-137859679D01*
X130706162Y-136617600D01*
X131505639Y-136617600D01*
X131916950Y-136577271D01*
X132312594Y-136457819D01*
X132677501Y-136263794D01*
X132997772Y-136002587D01*
X133261209Y-135684147D01*
X133457776Y-135320603D01*
X133579988Y-134925803D01*
X133623187Y-134514784D01*
X133585730Y-134103201D01*
X133469044Y-133706733D01*
X133277571Y-133340480D01*
X133018606Y-133018393D01*
X132702013Y-132752740D01*
X132339850Y-132553639D01*
X131945913Y-132428675D01*
X131535205Y-132382606D01*
X131505639Y-132382400D01*
X129494361Y-132382400D01*
X129083050Y-132422729D01*
X128687406Y-132542181D01*
X128322499Y-132736206D01*
X128002228Y-132997413D01*
X127738791Y-133315853D01*
X127542224Y-133679397D01*
X127420012Y-134074197D01*
X127376813Y-134485216D01*
X127414270Y-134896799D01*
X127530956Y-135293267D01*
X127573542Y-135374725D01*
X126833115Y-136189195D01*
X126768425Y-136276066D01*
X126698796Y-136359047D01*
X126676692Y-136399254D01*
X126649293Y-136436048D01*
X126602706Y-136533835D01*
X126550524Y-136628754D01*
X126536653Y-136672482D01*
X126516919Y-136713903D01*
X126490213Y-136818877D01*
X126457461Y-136922123D01*
X126452347Y-136967717D01*
X126441036Y-137012177D01*
X126435228Y-137120337D01*
X126423154Y-137227982D01*
X126423000Y-137250000D01*
X126423000Y-137617547D01*
X125200000Y-137617547D01*
X125020529Y-137631859D01*
X124716128Y-137726126D01*
X124450040Y-137901466D01*
X124243336Y-138143994D01*
X124142565Y-138367547D01*
X122700000Y-138367547D01*
X122520529Y-138381859D01*
X122387679Y-138423000D01*
X121431552Y-138423000D01*
X121461253Y-138214000D01*
X121461253Y-136182000D01*
X121446941Y-136002529D01*
X121352674Y-135698128D01*
X121177334Y-135432040D01*
X120934806Y-135225336D01*
X120644294Y-135094382D01*
X120328800Y-135049547D01*
X120077000Y-135049547D01*
X120077000Y-132702309D01*
X120136145Y-132684452D01*
X120485514Y-132498690D01*
X120792148Y-132248605D01*
X121044367Y-131943724D01*
X121232564Y-131595661D01*
X121349571Y-131217671D01*
X121390932Y-130824154D01*
X121355070Y-130430098D01*
X121243351Y-130050511D01*
X121060032Y-129699854D01*
X120931567Y-129540076D01*
X120976951Y-129485216D01*
X127376813Y-129485216D01*
X127414270Y-129896799D01*
X127530956Y-130293267D01*
X127722429Y-130659520D01*
X127981394Y-130981607D01*
X128297987Y-131247260D01*
X128660150Y-131446361D01*
X129054087Y-131571325D01*
X129464795Y-131617394D01*
X129494361Y-131617600D01*
X131505639Y-131617600D01*
X131916950Y-131577271D01*
X132312594Y-131457819D01*
X132677501Y-131263794D01*
X132997772Y-131002587D01*
X133261209Y-130684147D01*
X133457776Y-130320603D01*
X133579988Y-129925803D01*
X133623187Y-129514784D01*
X133585730Y-129103201D01*
X133469044Y-128706733D01*
X133277571Y-128340480D01*
X133018606Y-128018393D01*
X132702013Y-127752740D01*
X132339850Y-127553639D01*
X131945913Y-127428675D01*
X131535205Y-127382606D01*
X131505639Y-127382400D01*
X129494361Y-127382400D01*
X129083050Y-127422729D01*
X128687406Y-127542181D01*
X128322499Y-127736206D01*
X128002228Y-127997413D01*
X127738791Y-128315853D01*
X127542224Y-128679397D01*
X127420012Y-129074197D01*
X127376813Y-129485216D01*
X120976951Y-129485216D01*
X121044367Y-129403724D01*
X121232564Y-129055661D01*
X121349571Y-128677671D01*
X121390932Y-128284154D01*
X121355070Y-127890098D01*
X121243351Y-127510511D01*
X121060032Y-127159854D01*
X120931567Y-127000076D01*
X121044367Y-126863724D01*
X121232564Y-126515661D01*
X121349571Y-126137671D01*
X121390932Y-125744154D01*
X121355070Y-125350098D01*
X121243351Y-124970511D01*
X121060032Y-124619854D01*
X120951781Y-124485216D01*
X127376813Y-124485216D01*
X127414270Y-124896799D01*
X127530956Y-125293267D01*
X127722429Y-125659520D01*
X127981394Y-125981607D01*
X128297987Y-126247260D01*
X128660150Y-126446361D01*
X129054087Y-126571325D01*
X129464795Y-126617394D01*
X129494361Y-126617600D01*
X131505639Y-126617600D01*
X131916950Y-126577271D01*
X132312594Y-126457819D01*
X132677501Y-126263794D01*
X132997772Y-126002587D01*
X133261209Y-125684147D01*
X133457776Y-125320603D01*
X133579988Y-124925803D01*
X133623187Y-124514784D01*
X133585730Y-124103201D01*
X133469044Y-123706733D01*
X133277571Y-123340480D01*
X133018606Y-123018393D01*
X132702013Y-122752740D01*
X132339850Y-122553639D01*
X131945913Y-122428675D01*
X131535205Y-122382606D01*
X131505639Y-122382400D01*
X129494361Y-122382400D01*
X129083050Y-122422729D01*
X128687406Y-122542181D01*
X128322499Y-122736206D01*
X128002228Y-122997413D01*
X127738791Y-123315853D01*
X127542224Y-123679397D01*
X127420012Y-124074197D01*
X127376813Y-124485216D01*
X120951781Y-124485216D01*
X120931567Y-124460076D01*
X121044367Y-124323724D01*
X121232564Y-123975661D01*
X121349571Y-123597671D01*
X121390932Y-123204154D01*
X121355070Y-122810098D01*
X121243351Y-122430511D01*
X121060032Y-122079854D01*
X120812094Y-121771482D01*
X120508982Y-121517140D01*
X120162241Y-121326517D01*
X119785077Y-121206874D01*
X119391858Y-121162768D01*
X119363551Y-121162570D01*
X117636449Y-121162570D01*
X117242652Y-121201182D01*
X116863855Y-121315548D01*
X116514486Y-121501310D01*
X116207852Y-121751395D01*
X115955633Y-122056276D01*
X115767436Y-122404339D01*
X115650429Y-122782329D01*
X115609068Y-123175846D01*
X115644930Y-123569902D01*
X115756649Y-123949489D01*
X115939968Y-124300146D01*
X116068433Y-124459924D01*
X115955633Y-124596276D01*
X115767436Y-124944339D01*
X115650429Y-125322329D01*
X115609068Y-125715846D01*
X115644930Y-126109902D01*
X115756649Y-126489489D01*
X115939968Y-126840146D01*
X116068433Y-126999924D01*
X115955633Y-127136276D01*
X115767436Y-127484339D01*
X115650429Y-127862329D01*
X115609068Y-128255846D01*
X115644930Y-128649902D01*
X115756649Y-129029489D01*
X115939968Y-129380146D01*
X116068433Y-129539924D01*
X115955633Y-129676276D01*
X115767436Y-130024339D01*
X115650429Y-130402329D01*
X115632403Y-130573828D01*
X115370041Y-130571996D01*
X115095149Y-130624435D01*
X114835677Y-130729268D01*
X114601510Y-130882503D01*
X114401565Y-131078304D01*
X114243459Y-131309211D01*
X114133215Y-131566430D01*
X114075031Y-131840164D01*
X114071124Y-132119986D01*
X114121642Y-132395238D01*
X114224661Y-132655435D01*
X114248000Y-132691650D01*
X114248000Y-136552579D01*
X114243459Y-136559211D01*
X114133215Y-136816430D01*
X114075031Y-137090164D01*
X114071124Y-137369986D01*
X114118279Y-137626916D01*
X113993459Y-137809211D01*
X113883215Y-138066430D01*
X113831166Y-138311303D01*
X113810331Y-138379451D01*
X113775359Y-138489695D01*
X113774625Y-138496240D01*
X113772701Y-138502533D01*
X113761014Y-138617586D01*
X113748122Y-138732519D01*
X113748032Y-138745381D01*
X113748007Y-138745629D01*
X113748029Y-138745861D01*
X113748000Y-138750000D01*
X113748000Y-142302579D01*
X113743459Y-142309211D01*
X113633215Y-142566430D01*
X113575031Y-142840164D01*
X113571124Y-143119986D01*
X111177000Y-143119986D01*
X111177000Y-138615028D01*
X111396516Y-138529883D01*
X111632800Y-138379933D01*
X111835459Y-138186943D01*
X111996773Y-137958266D01*
X112110598Y-137702611D01*
X112172598Y-137429716D01*
X112177062Y-137110075D01*
X112122705Y-136835556D01*
X112016063Y-136576822D01*
X112002000Y-136555655D01*
X112002000Y-132696526D01*
X112110598Y-132452611D01*
X112172598Y-132179716D01*
X112177062Y-131860075D01*
X112122705Y-131585556D01*
X112016063Y-131326822D01*
X111861197Y-131093730D01*
X111664005Y-130895157D01*
X111432000Y-130738668D01*
X111174017Y-130630222D01*
X111129750Y-130621135D01*
X111122705Y-130585556D01*
X111016063Y-130326822D01*
X110861197Y-130093730D01*
X110664005Y-129895157D01*
X110432000Y-129738668D01*
X110174017Y-129630222D01*
X109899884Y-129573950D01*
X109620041Y-129571996D01*
X109502000Y-129594514D01*
X109502000Y-127268596D01*
X116540500Y-120230096D01*
X128065936Y-120230096D01*
X128200734Y-120450801D01*
X128411372Y-120687840D01*
X128664206Y-120879231D01*
X128949521Y-121017619D01*
X129256352Y-121097685D01*
X129509400Y-120960850D01*
X129509400Y-119995300D01*
X131490600Y-119995300D01*
X131490600Y-120960850D01*
X131743648Y-121097685D01*
X132050479Y-121017619D01*
X132335794Y-120879231D01*
X132588628Y-120687840D01*
X132799266Y-120450801D01*
X132934064Y-120230096D01*
X132864922Y-119995300D01*
X131490600Y-119995300D01*
X129509400Y-119995300D01*
X128135078Y-119995300D01*
X128065936Y-120230096D01*
X116540500Y-120230096D01*
X118000692Y-118769904D01*
X128065936Y-118769904D01*
X128135078Y-119004700D01*
X129509400Y-119004700D01*
X129509400Y-118039150D01*
X131490600Y-118039150D01*
X131490600Y-119004700D01*
X132864922Y-119004700D01*
X132934064Y-118769904D01*
X132799266Y-118549199D01*
X132588628Y-118312160D01*
X132335794Y-118120769D01*
X132050479Y-117982381D01*
X131743648Y-117902315D01*
X131490600Y-118039150D01*
X129509400Y-118039150D01*
X129256352Y-117902315D01*
X128949521Y-117982381D01*
X128664206Y-118120769D01*
X128411372Y-118312160D01*
X128200734Y-118549199D01*
X128065936Y-118769904D01*
X118000692Y-118769904D01*
X128260298Y-108510298D01*
X128333685Y-108420955D01*
X128408042Y-108332339D01*
X128411215Y-108326567D01*
X128415392Y-108321482D01*
X128470040Y-108219565D01*
X128525757Y-108118215D01*
X128527747Y-108111942D01*
X128530859Y-108106138D01*
X128564669Y-107995549D01*
X128599641Y-107885305D01*
X128600375Y-107878760D01*
X128602299Y-107872467D01*
X128613986Y-107757414D01*
X128626878Y-107642481D01*
X128626968Y-107629619D01*
X128626993Y-107629371D01*
X128626971Y-107629139D01*
X128627000Y-107625000D01*
X128627000Y-98429445D01*
X128679397Y-98457776D01*
X129074197Y-98579988D01*
X129485216Y-98623187D01*
X129896799Y-98585730D01*
X130234640Y-98486299D01*
X130339699Y-98532198D01*
X130746997Y-98621748D01*
X131163932Y-98630481D01*
X131574622Y-98558066D01*
X131963426Y-98407259D01*
X132315533Y-98183805D01*
X132617531Y-97896215D01*
X132857919Y-97555445D01*
X133027538Y-97174472D01*
X133032318Y-97153434D01*
X133120769Y-97335794D01*
X133312160Y-97588628D01*
X133549199Y-97799266D01*
X133769904Y-97934064D01*
X134004700Y-97864922D01*
X134004700Y-96490600D01*
X133509400Y-96490600D01*
X133509400Y-94509400D01*
X134004700Y-94509400D01*
X134004700Y-94107000D01*
X134995300Y-94107000D01*
X134995300Y-94509400D01*
X135490600Y-94509400D01*
X135490600Y-94812956D01*
X135435564Y-94873051D01*
X135362528Y-95385394D01*
X135390848Y-95902142D01*
X135435564Y-96126949D01*
X135490600Y-96187044D01*
X135490600Y-96490600D01*
X134995300Y-96490600D01*
X134995300Y-97864922D01*
X135230096Y-97934064D01*
X135450801Y-97799266D01*
X135687840Y-97588628D01*
X135879231Y-97335794D01*
X136017619Y-97050479D01*
X136063931Y-96873002D01*
X136117600Y-96873002D01*
X136117600Y-95968010D01*
X136585610Y-95500000D01*
X139414390Y-95500000D01*
X140314381Y-96399991D01*
X140564436Y-96126949D01*
X140637472Y-95614606D01*
X140609152Y-95097858D01*
X140564436Y-94873051D01*
X140314381Y-94600009D01*
X139414390Y-95500000D01*
X136585610Y-95500000D01*
X136117600Y-95031990D01*
X136117600Y-94126998D01*
X136063931Y-94126998D01*
X136017619Y-93949521D01*
X135879231Y-93664206D01*
X135873002Y-93655977D01*
X135873002Y-93177000D01*
X137109420Y-93177000D01*
X137100009Y-93185619D01*
X137100009Y-93185619D01*
G37*
X137100009Y-93185619D02*
X138000000Y-94085610D01*
X138899991Y-93185619D01*
X138890580Y-93177000D01*
X154873000Y-93177000D01*
X154873000Y-100628390D01*
X154796690Y-100604183D01*
X154789231Y-100603346D01*
X154782057Y-100601153D01*
X154650952Y-100587836D01*
X154519924Y-100573139D01*
X154505253Y-100573037D01*
X154504981Y-100573009D01*
X154504727Y-100573033D01*
X154500000Y-100573000D01*
X149000000Y-100573000D01*
X148868880Y-100585856D01*
X148737502Y-100597351D01*
X148730295Y-100599445D01*
X148722828Y-100600177D01*
X148596651Y-100638272D01*
X148470058Y-100675051D01*
X148463396Y-100678504D01*
X148456213Y-100680673D01*
X148339823Y-100742558D01*
X148222800Y-100803217D01*
X148216937Y-100807897D01*
X148210310Y-100811421D01*
X148108163Y-100894731D01*
X148005146Y-100976968D01*
X147994698Y-100987271D01*
X147994487Y-100987443D01*
X147994325Y-100987638D01*
X147990959Y-100990958D01*
X146910959Y-102070959D01*
X146827323Y-102172778D01*
X146824851Y-102175725D01*
X146649746Y-102316513D01*
X146632000Y-102301833D01*
X146632000Y-101630000D01*
X146620717Y-101514922D01*
X146610635Y-101399693D01*
X146608799Y-101393372D01*
X146608156Y-101386819D01*
X146574718Y-101276068D01*
X146542464Y-101165048D01*
X146539436Y-101159206D01*
X146537532Y-101152900D01*
X146483218Y-101050751D01*
X146430015Y-100948112D01*
X146425908Y-100942967D01*
X146422817Y-100937154D01*
X146349699Y-100847502D01*
X146277572Y-100757150D01*
X146268537Y-100747987D01*
X146268383Y-100747798D01*
X146268208Y-100747653D01*
X146265298Y-100744702D01*
X145385298Y-99864702D01*
X145295933Y-99791297D01*
X145207339Y-99716958D01*
X145201570Y-99713786D01*
X145196483Y-99709608D01*
X145094544Y-99654949D01*
X144993215Y-99599243D01*
X144986942Y-99597253D01*
X144981138Y-99594141D01*
X144870549Y-99560331D01*
X144760305Y-99525359D01*
X144753760Y-99524625D01*
X144747467Y-99522701D01*
X144632414Y-99511014D01*
X144517481Y-99498122D01*
X144504619Y-99498032D01*
X144504371Y-99498007D01*
X144504139Y-99498029D01*
X144500000Y-99498000D01*
X139268595Y-99498000D01*
X138626792Y-98856196D01*
X138622705Y-98835556D01*
X138516063Y-98576822D01*
X138361197Y-98343730D01*
X138164005Y-98145157D01*
X138132531Y-98123928D01*
X138402142Y-98109152D01*
X138626949Y-98064436D01*
X138899991Y-97814381D01*
X138000000Y-96914390D01*
X137100009Y-97814381D01*
X137110344Y-97823846D01*
X136845149Y-97874435D01*
X136585677Y-97979268D01*
X136351510Y-98132503D01*
X136151565Y-98328304D01*
X135993459Y-98559211D01*
X135883215Y-98816430D01*
X135825031Y-99090164D01*
X135821124Y-99369986D01*
X135871642Y-99645238D01*
X135974661Y-99905435D01*
X136126258Y-100140667D01*
X136320658Y-100341974D01*
X136550456Y-100501687D01*
X136806899Y-100613725D01*
X136853340Y-100623936D01*
X137240747Y-101011343D01*
X137217559Y-101030254D01*
X137127150Y-101102427D01*
X137117990Y-101111460D01*
X137117798Y-101111617D01*
X137117651Y-101111795D01*
X137114703Y-101114702D01*
X136607284Y-101622120D01*
X136595149Y-101624435D01*
X136335677Y-101729268D01*
X136101510Y-101882503D01*
X135901565Y-102078304D01*
X135743459Y-102309211D01*
X135633215Y-102566430D01*
X135575031Y-102840164D01*
X135571124Y-103119986D01*
X135621642Y-103395238D01*
X135724661Y-103655435D01*
X135876258Y-103890667D01*
X136070658Y-104091974D01*
X136300456Y-104251687D01*
X136556899Y-104363725D01*
X136830220Y-104423818D01*
X137110008Y-104429679D01*
X137385605Y-104381084D01*
X137646516Y-104279883D01*
X137882800Y-104129933D01*
X138085459Y-103936943D01*
X138246773Y-103708266D01*
X138345921Y-103485577D01*
X138309594Y-103809438D01*
X138309400Y-103837231D01*
X138309400Y-104162769D01*
X138347311Y-104549412D01*
X138459599Y-104921328D01*
X138641987Y-105264350D01*
X138887528Y-105565414D01*
X139108238Y-105748000D01*
X135695835Y-105748000D01*
X135682000Y-105738668D01*
X135424017Y-105630222D01*
X135149884Y-105573950D01*
X134870041Y-105571996D01*
X134595149Y-105624435D01*
X134335677Y-105729268D01*
X134101510Y-105882503D01*
X133901565Y-106078304D01*
X133743459Y-106309211D01*
X133633215Y-106566430D01*
X133575031Y-106840164D01*
X133571124Y-107119986D01*
X133621642Y-107395238D01*
X133724661Y-107655435D01*
X133876258Y-107890667D01*
X134070658Y-108091974D01*
X134300456Y-108251687D01*
X134315565Y-108258288D01*
X134250040Y-108301466D01*
X134043336Y-108543994D01*
X134002739Y-108634055D01*
X133848534Y-108400040D01*
X133606006Y-108193336D01*
X133315494Y-108062382D01*
X133000000Y-108017547D01*
X132100000Y-108017547D01*
X131920529Y-108031859D01*
X131616128Y-108126126D01*
X131350040Y-108301466D01*
X131143336Y-108543994D01*
X131012382Y-108834506D01*
X130967547Y-109150000D01*
X130967547Y-110850000D01*
X130981859Y-111029471D01*
X131076126Y-111333872D01*
X131251466Y-111599960D01*
X131493994Y-111806664D01*
X131784506Y-111937618D01*
X132100000Y-111982453D01*
X132748000Y-111982453D01*
X132748000Y-116000000D01*
X132759283Y-116115074D01*
X132769365Y-116230307D01*
X132771201Y-116236628D01*
X132771844Y-116243181D01*
X132805282Y-116353932D01*
X132837536Y-116464952D01*
X132840564Y-116470794D01*
X132842468Y-116477100D01*
X132896771Y-116579228D01*
X132949985Y-116681889D01*
X132954094Y-116687036D01*
X132957183Y-116692846D01*
X133030283Y-116782477D01*
X133102428Y-116872850D01*
X133111463Y-116882013D01*
X133111617Y-116882202D01*
X133111792Y-116882347D01*
X133114702Y-116885298D01*
X134498000Y-118268596D01*
X134498000Y-128302579D01*
X134493459Y-128309211D01*
X134383215Y-128566430D01*
X134325031Y-128840164D01*
X134321124Y-129119986D01*
X134371642Y-129395238D01*
X134474661Y-129655435D01*
X134626258Y-129890667D01*
X134820658Y-130091974D01*
X135050456Y-130251687D01*
X135306899Y-130363725D01*
X135580220Y-130423818D01*
X135860008Y-130429679D01*
X136135605Y-130381084D01*
X136396516Y-130279883D01*
X136632800Y-130129933D01*
X136823000Y-129948808D01*
X136823000Y-135408918D01*
X135240959Y-136990959D01*
X135157323Y-137092778D01*
X135072563Y-137193792D01*
X135068948Y-137200367D01*
X135064185Y-137206166D01*
X135001882Y-137322360D01*
X134938394Y-137437845D01*
X134936126Y-137444995D01*
X134932579Y-137451610D01*
X134894040Y-137577665D01*
X134854183Y-137703310D01*
X134853346Y-137710769D01*
X134851153Y-137717943D01*
X134837836Y-137849048D01*
X134823139Y-137980076D01*
X134823037Y-137994747D01*
X134823009Y-137995019D01*
X134823033Y-137995273D01*
X134823000Y-138000000D01*
X134823000Y-141000000D01*
X134835860Y-141131157D01*
X134847351Y-141262499D01*
X134849445Y-141269707D01*
X134850177Y-141277172D01*
X134888269Y-141403337D01*
X134925051Y-141529942D01*
X134928504Y-141536604D01*
X134930673Y-141543787D01*
X134992558Y-141660177D01*
X135035255Y-141742547D01*
X134500000Y-141742547D01*
X134320529Y-141756859D01*
X134016128Y-141851126D01*
X133907055Y-141923000D01*
X133578663Y-141923000D01*
X133387590Y-141863853D01*
X132974846Y-141820472D01*
X132561536Y-141858086D01*
X132163403Y-141975263D01*
X131795612Y-142167539D01*
X131472173Y-142427591D01*
X131205404Y-142745513D01*
X131005468Y-143109196D01*
X130879979Y-143504788D01*
X130833717Y-143917220D01*
X130833510Y-143946910D01*
X130833510Y-144973090D01*
X130874009Y-145386127D01*
X130993962Y-145783432D01*
X131169935Y-146114390D01*
X131169935Y-146500255D01*
X131485878Y-146500255D01*
X131770882Y-146736030D01*
X131813000Y-146758803D01*
X131813000Y-147499745D01*
X131169935Y-147499745D01*
X131169935Y-147998000D01*
X129670065Y-147998000D01*
X129670065Y-147499745D01*
X128537451Y-147499745D01*
X128469040Y-147735724D01*
X128672067Y-147981954D01*
X128687471Y-147998000D01*
X124445835Y-147998000D01*
X124432000Y-147988668D01*
X124174017Y-147880222D01*
X123899884Y-147823950D01*
X123620041Y-147821996D01*
X123345149Y-147874435D01*
X123085677Y-147979268D01*
X122851510Y-148132503D01*
X122651565Y-148328304D01*
X122493459Y-148559211D01*
X122383215Y-148816430D01*
X122325031Y-149090164D01*
X122321124Y-149369986D01*
X122371642Y-149645238D01*
X122461819Y-149873000D01*
X121688246Y-149873000D01*
X121567111Y-149897095D01*
X121453004Y-149944360D01*
X121350311Y-150012977D01*
X121262977Y-150100311D01*
X121194360Y-150203004D01*
X121147095Y-150317111D01*
X121123000Y-150438246D01*
X121123000Y-151093250D01*
X121279750Y-151250000D01*
X122500000Y-151250000D01*
X122500000Y-150607000D01*
X123291506Y-150607000D01*
X123306899Y-150613725D01*
X123580220Y-150673818D01*
X123860008Y-150679679D01*
X124000000Y-150654995D01*
X124000000Y-151250000D01*
X124157547Y-151250000D01*
X124157547Y-152750000D01*
X124000000Y-152750000D01*
X124000000Y-153970250D01*
X124156750Y-154127000D01*
X124360441Y-154127000D01*
X124441466Y-154249960D01*
X124683994Y-154456664D01*
X124974506Y-154587618D01*
X125290000Y-154632453D01*
X128290000Y-154632453D01*
X128469471Y-154618141D01*
X128773872Y-154523874D01*
X129039960Y-154348534D01*
X129246664Y-154106006D01*
X129377618Y-153815494D01*
X129411510Y-153577000D01*
X136000000Y-153577000D01*
X136144992Y-153562783D01*
X136290091Y-153550089D01*
X136298055Y-153547775D01*
X136306308Y-153546966D01*
X136445763Y-153504862D01*
X136585647Y-153464222D01*
X136593009Y-153460406D01*
X136600948Y-153458009D01*
X136729544Y-153389633D01*
X136858896Y-153322584D01*
X136865379Y-153317408D01*
X136872698Y-153313517D01*
X136985565Y-153221465D01*
X137099429Y-153130568D01*
X137110968Y-153119189D01*
X137111208Y-153118993D01*
X137111392Y-153118771D01*
X137115107Y-153115107D01*
X138115108Y-152115107D01*
X138166594Y-152052427D01*
X138306899Y-152113725D01*
X138580220Y-152173818D01*
X138860008Y-152179679D01*
X139135605Y-152131084D01*
X139396516Y-152029883D01*
X139440453Y-152002000D01*
X145801172Y-152002000D01*
X146056899Y-152113725D01*
X146330220Y-152173818D01*
X146610008Y-152179679D01*
X146885605Y-152131084D01*
X147146516Y-152029883D01*
X147382800Y-151879933D01*
X147585459Y-151686943D01*
X147746773Y-151458266D01*
X147860598Y-151202611D01*
X147922598Y-150929716D01*
X147927062Y-150610075D01*
X147901682Y-150481896D01*
X149844893Y-152425108D01*
X149957463Y-152517574D01*
X150069047Y-152611204D01*
X150076316Y-152615200D01*
X150082723Y-152620463D01*
X150211123Y-152689311D01*
X150338754Y-152759476D01*
X150346655Y-152761982D01*
X150353967Y-152765903D01*
X150493312Y-152808505D01*
X150632123Y-152852539D01*
X150640363Y-152853463D01*
X150648294Y-152855888D01*
X150793271Y-152870614D01*
X150937982Y-152886846D01*
X150954183Y-152886959D01*
X150954495Y-152886991D01*
X150954786Y-152886964D01*
X150960000Y-152887000D01*
X153525886Y-152887000D01*
X153574779Y-152937630D01*
X153917301Y-153175689D01*
X154299540Y-153342685D01*
X154706936Y-153432257D01*
X154873000Y-153435736D01*
X154873000Y-160823000D01*
X140095550Y-160823000D01*
X140378767Y-160553296D01*
X140732284Y-160052154D01*
X140888992Y-159700182D01*
X141815264Y-160626454D01*
X142263752Y-160177966D01*
X142202146Y-160116360D01*
X142438504Y-160074967D01*
X142510401Y-160053157D01*
X142630023Y-159837130D01*
X142000000Y-159207107D01*
X141646447Y-159560661D01*
X141092059Y-159006273D01*
X141117602Y-158893845D01*
X141120697Y-158672196D01*
X141292893Y-158500000D01*
X142707107Y-158500000D01*
X143337130Y-159130023D01*
X143553157Y-159010401D01*
X143622888Y-158697588D01*
X143630252Y-158377182D01*
X143574967Y-158061496D01*
X143553157Y-157989599D01*
X143337130Y-157869977D01*
X142707107Y-158500000D01*
X141292893Y-158500000D01*
X141125440Y-158332547D01*
X141127384Y-158193357D01*
X141088551Y-157997235D01*
X141646447Y-157439340D01*
X142000000Y-157792893D01*
X142630023Y-157162870D01*
X142510401Y-156946843D01*
X142206653Y-156879133D01*
X142253333Y-156832453D01*
X143000000Y-156832453D01*
X143179471Y-156818141D01*
X143483872Y-156723874D01*
X143749960Y-156548534D01*
X143956664Y-156306006D01*
X144087618Y-156015494D01*
X144132453Y-155700000D01*
X144132453Y-153700000D01*
X144118141Y-153520529D01*
X144023874Y-153216128D01*
X143848534Y-152950040D01*
X143606006Y-152743336D01*
X143315494Y-152612382D01*
X143000000Y-152567547D01*
X141000000Y-152567547D01*
X140820529Y-152581859D01*
X140516128Y-152676126D01*
X140250040Y-152851466D01*
X140043336Y-153093994D01*
X139912382Y-153384506D01*
X139867547Y-153700000D01*
X139867547Y-155700000D01*
X139881859Y-155879471D01*
X139927875Y-156028062D01*
X139494592Y-155735809D01*
X138929227Y-155498151D01*
X138328468Y-155374833D01*
X137715198Y-155370552D01*
X137112776Y-155485470D01*
X136544147Y-155715211D01*
X136038412Y-156046154D01*
X136002587Y-156002228D01*
X135684147Y-155738791D01*
X135320603Y-155542224D01*
X134925803Y-155420012D01*
X134514784Y-155376813D01*
X134103201Y-155414270D01*
X133706733Y-155530956D01*
X133340480Y-155722429D01*
X133018393Y-155981394D01*
X132753747Y-156296787D01*
X132655885Y-156149493D01*
X132362034Y-155853583D01*
X132016304Y-155620385D01*
X131631863Y-155458781D01*
X131223354Y-155374926D01*
X130806338Y-155372015D01*
X130396699Y-155450158D01*
X130234669Y-155515623D01*
X129925803Y-155420012D01*
X129514784Y-155376813D01*
X129103201Y-155414270D01*
X128706733Y-155530956D01*
X128340480Y-155722429D01*
X128018393Y-155981394D01*
X127752740Y-156297987D01*
X127553639Y-156660150D01*
X127428675Y-157054087D01*
X127382606Y-157464795D01*
X127382400Y-157494361D01*
X127382400Y-159505639D01*
X127422729Y-159916950D01*
X127447199Y-159998000D01*
X126554802Y-159998000D01*
X126571325Y-159945913D01*
X126617394Y-159535205D01*
X126617600Y-159505639D01*
X126617600Y-157494361D01*
X126577271Y-157083050D01*
X126457819Y-156687406D01*
X126263794Y-156322499D01*
X126002587Y-156002228D01*
X125684147Y-155738791D01*
X125320603Y-155542224D01*
X124925803Y-155420012D01*
X124514784Y-155376813D01*
X124103201Y-155414270D01*
X123763686Y-155514194D01*
X123631863Y-155458781D01*
X123223354Y-155374926D01*
X122806338Y-155372015D01*
X122396699Y-155450158D01*
X122010039Y-155606379D01*
X121661086Y-155834727D01*
X121363132Y-156126505D01*
X121127526Y-156470599D01*
X120966994Y-156845148D01*
X120879231Y-156664206D01*
X120687840Y-156411372D01*
X120450801Y-156200734D01*
X120230096Y-156065936D01*
X119995300Y-156135078D01*
X119995300Y-157509400D01*
X120490600Y-157509400D01*
X120490600Y-159490600D01*
X119995300Y-159490600D01*
X119995300Y-159893000D01*
X119004700Y-159893000D01*
X119004700Y-159490600D01*
X118742002Y-159490600D01*
X118837160Y-159395442D01*
X118564964Y-159123246D01*
X118637472Y-158614606D01*
X118609152Y-158097858D01*
X118564436Y-157873051D01*
X118509400Y-157812956D01*
X118509400Y-157509400D01*
X119004700Y-157509400D01*
X119004700Y-156135078D01*
X118769904Y-156065936D01*
X118549199Y-156200734D01*
X118312160Y-156411372D01*
X118120769Y-156664206D01*
X117982381Y-156949521D01*
X117936069Y-157126998D01*
X117882400Y-157126998D01*
X117882400Y-158031990D01*
X117414390Y-158500000D01*
X117692195Y-158777805D01*
X116472000Y-159998000D01*
X116083610Y-159998000D01*
X116000000Y-159914390D01*
X115916390Y-159998000D01*
X115528000Y-159998000D01*
X114544610Y-159014610D01*
X114510301Y-158664693D01*
X114489573Y-158596037D01*
X114585610Y-158500000D01*
X114406500Y-158320890D01*
X114401600Y-158304660D01*
X114225039Y-157972597D01*
X114047000Y-157754300D01*
X114047000Y-157370000D01*
X114034144Y-157238880D01*
X114022649Y-157107502D01*
X114020555Y-157100295D01*
X114019823Y-157092828D01*
X113981728Y-156966651D01*
X113944949Y-156840058D01*
X113941496Y-156833396D01*
X113939327Y-156826213D01*
X113877463Y-156709862D01*
X113816784Y-156592800D01*
X113812101Y-156586933D01*
X113808579Y-156580310D01*
X113725292Y-156478190D01*
X113643032Y-156375146D01*
X113632729Y-156364698D01*
X113632557Y-156364487D01*
X113632362Y-156364325D01*
X113629042Y-156360959D01*
X113416536Y-156148453D01*
X115016000Y-156148453D01*
X115152475Y-156137570D01*
X115100009Y-156185619D01*
X116000000Y-157085610D01*
X116899991Y-156185619D01*
X116859408Y-156148453D01*
X117556000Y-156148453D01*
X117735471Y-156134141D01*
X118039872Y-156039874D01*
X118305960Y-155864534D01*
X118512664Y-155622006D01*
X118643618Y-155331494D01*
X118688453Y-155016000D01*
X118688453Y-152984000D01*
X118682293Y-152906750D01*
X121123000Y-152906750D01*
X121123000Y-153561754D01*
X121147095Y-153682889D01*
X121194360Y-153796996D01*
X121262977Y-153899689D01*
X121350311Y-153987023D01*
X121453004Y-154055640D01*
X121567111Y-154102905D01*
X121688246Y-154127000D01*
X122343250Y-154127000D01*
X122500000Y-153970250D01*
X122500000Y-152750000D01*
X121279750Y-152750000D01*
X121123000Y-152906750D01*
X118682293Y-152906750D01*
X118674141Y-152804529D01*
X118579874Y-152500128D01*
X118404534Y-152234040D01*
X118162006Y-152027336D01*
X118032453Y-151968937D01*
X118032453Y-150400000D01*
X118018141Y-150220529D01*
X117923874Y-149916128D01*
X117748534Y-149650040D01*
X117506006Y-149443336D01*
X117215494Y-149312382D01*
X116900000Y-149267547D01*
X116000000Y-149267547D01*
X115820529Y-149281859D01*
X115516128Y-149376126D01*
X115250040Y-149551466D01*
X115043336Y-149793994D01*
X115002739Y-149884055D01*
X114848534Y-149650040D01*
X114606006Y-149443336D01*
X114315494Y-149312382D01*
X114000000Y-149267547D01*
X113100000Y-149267547D01*
X112920529Y-149281859D01*
X112616128Y-149376126D01*
X112350040Y-149551466D01*
X112143336Y-149793994D01*
X112012382Y-150084506D01*
X112008333Y-150113000D01*
X111665741Y-150113000D01*
X111666582Y-150104996D01*
X111641256Y-149826707D01*
X111562359Y-149558638D01*
X111432896Y-149310999D01*
X111257799Y-149093222D01*
X111221000Y-149062344D01*
X111221000Y-146544000D01*
X111208140Y-146412843D01*
X111196649Y-146281501D01*
X111194555Y-146274293D01*
X111193823Y-146266828D01*
X111177000Y-146211108D01*
X111177000Y-143119986D01*
X113571124Y-143119986D01*
X113621642Y-143395238D01*
X113724661Y-143655435D01*
X113876258Y-143890667D01*
X114070658Y-144091974D01*
X114300456Y-144251687D01*
X114556899Y-144363725D01*
X114558583Y-144364095D01*
X114550524Y-144378754D01*
X114548017Y-144386657D01*
X114544098Y-144393966D01*
X114501518Y-144533239D01*
X114457461Y-144672123D01*
X114456536Y-144680368D01*
X114454113Y-144688294D01*
X114439396Y-144833177D01*
X114423154Y-144977982D01*
X114423041Y-144994194D01*
X114423010Y-144994495D01*
X114423037Y-144994776D01*
X114423000Y-145000000D01*
X114423000Y-145535951D01*
X114412382Y-145559506D01*
X114367547Y-145875000D01*
X114367547Y-147125000D01*
X114381859Y-147304471D01*
X114476126Y-147608872D01*
X114651466Y-147874960D01*
X114893994Y-148081664D01*
X115184506Y-148212618D01*
X115500000Y-148257453D01*
X116500000Y-148257453D01*
X116679471Y-148243141D01*
X116983872Y-148148874D01*
X117007928Y-148133022D01*
X117184506Y-148212618D01*
X117500000Y-148257453D01*
X118500000Y-148257453D01*
X118679471Y-148243141D01*
X118983872Y-148148874D01*
X119249960Y-147973534D01*
X119288612Y-147928183D01*
X119360008Y-147929679D01*
X119635605Y-147881084D01*
X119896516Y-147779883D01*
X120132800Y-147629933D01*
X120335459Y-147436943D01*
X120496773Y-147208266D01*
X120610598Y-146952611D01*
X120672598Y-146679716D01*
X120674663Y-146531866D01*
X120676965Y-146509962D01*
X120675234Y-146490945D01*
X120677062Y-146360075D01*
X120658094Y-146264276D01*
X128469040Y-146264276D01*
X128537451Y-146500255D01*
X129670065Y-146500255D01*
X129670065Y-145588838D01*
X129427862Y-145490431D01*
X129142809Y-145615374D01*
X128887608Y-145793528D01*
X128672067Y-146018046D01*
X128469040Y-146264276D01*
X120658094Y-146264276D01*
X120622705Y-146085556D01*
X120516063Y-145826822D01*
X120361197Y-145593730D01*
X120212826Y-145444320D01*
X120216246Y-145445000D01*
X120375250Y-145445000D01*
X120532000Y-145288250D01*
X120532000Y-144310000D01*
X121040000Y-144310000D01*
X121040000Y-145288250D01*
X121196750Y-145445000D01*
X121355754Y-145445000D01*
X121476889Y-145420905D01*
X121590996Y-145373640D01*
X121693689Y-145305023D01*
X121781023Y-145217689D01*
X121849640Y-145114996D01*
X121896905Y-145000889D01*
X121921000Y-144879754D01*
X121921000Y-144466750D01*
X121764250Y-144310000D01*
X121040000Y-144310000D01*
X120532000Y-144310000D01*
X120278000Y-144310000D01*
X120278000Y-143294000D01*
X120532000Y-143294000D01*
X120532000Y-143077000D01*
X121040000Y-143077000D01*
X121040000Y-143294000D01*
X121764250Y-143294000D01*
X121921000Y-143137250D01*
X121921000Y-143077000D01*
X122073000Y-143077000D01*
X122073000Y-144373002D01*
X122700000Y-144373002D01*
X122700000Y-144127000D01*
X122943250Y-144127000D01*
X123100000Y-143970250D01*
X123100000Y-143250000D01*
X122700000Y-143250000D01*
X122700000Y-143077000D01*
X124127546Y-143077000D01*
X124176126Y-143233872D01*
X124186754Y-143250000D01*
X123900000Y-143250000D01*
X123900000Y-143970250D01*
X124056750Y-144127000D01*
X124300000Y-144127000D01*
X124300000Y-144373002D01*
X124927000Y-144373002D01*
X124927000Y-143843657D01*
X125200000Y-143882453D01*
X126800000Y-143882453D01*
X126979471Y-143868141D01*
X127283872Y-143773874D01*
X127549960Y-143598534D01*
X127756664Y-143356006D01*
X127887618Y-143065494D01*
X127932453Y-142750000D01*
X127932453Y-142571020D01*
X127988991Y-142576962D01*
X128295500Y-142549067D01*
X128590755Y-142462169D01*
X128863507Y-142319577D01*
X129103369Y-142126723D01*
X129301204Y-141890953D01*
X129449476Y-141621246D01*
X129542539Y-141327877D01*
X129576846Y-141022018D01*
X129577000Y-141000000D01*
X129577000Y-140081750D01*
X133723000Y-140081750D01*
X133723000Y-140411754D01*
X133747095Y-140532889D01*
X133794360Y-140646996D01*
X133862977Y-140749689D01*
X133950311Y-140837023D01*
X134053004Y-140905640D01*
X134167111Y-140952905D01*
X134288246Y-140977000D01*
X134418250Y-140977000D01*
X134575000Y-140820250D01*
X134575000Y-139925000D01*
X133879750Y-139925000D01*
X133723000Y-140081750D01*
X129577000Y-140081750D01*
X129577000Y-138588246D01*
X133723000Y-138588246D01*
X133723000Y-138918250D01*
X133879750Y-139075000D01*
X134575000Y-139075000D01*
X134575000Y-138179750D01*
X134418250Y-138023000D01*
X134288246Y-138023000D01*
X134167111Y-138047095D01*
X134053004Y-138094360D01*
X133950311Y-138162977D01*
X133862977Y-138250311D01*
X133794360Y-138353004D01*
X133747095Y-138467111D01*
X133723000Y-138588246D01*
X129577000Y-138588246D01*
X129577000Y-137859679D01*
X130706162Y-136617600D01*
X131505639Y-136617600D01*
X131916950Y-136577271D01*
X132312594Y-136457819D01*
X132677501Y-136263794D01*
X132997772Y-136002587D01*
X133261209Y-135684147D01*
X133457776Y-135320603D01*
X133579988Y-134925803D01*
X133623187Y-134514784D01*
X133585730Y-134103201D01*
X133469044Y-133706733D01*
X133277571Y-133340480D01*
X133018606Y-133018393D01*
X132702013Y-132752740D01*
X132339850Y-132553639D01*
X131945913Y-132428675D01*
X131535205Y-132382606D01*
X131505639Y-132382400D01*
X129494361Y-132382400D01*
X129083050Y-132422729D01*
X128687406Y-132542181D01*
X128322499Y-132736206D01*
X128002228Y-132997413D01*
X127738791Y-133315853D01*
X127542224Y-133679397D01*
X127420012Y-134074197D01*
X127376813Y-134485216D01*
X127414270Y-134896799D01*
X127530956Y-135293267D01*
X127573542Y-135374725D01*
X126833115Y-136189195D01*
X126768425Y-136276066D01*
X126698796Y-136359047D01*
X126676692Y-136399254D01*
X126649293Y-136436048D01*
X126602706Y-136533835D01*
X126550524Y-136628754D01*
X126536653Y-136672482D01*
X126516919Y-136713903D01*
X126490213Y-136818877D01*
X126457461Y-136922123D01*
X126452347Y-136967717D01*
X126441036Y-137012177D01*
X126435228Y-137120337D01*
X126423154Y-137227982D01*
X126423000Y-137250000D01*
X126423000Y-137617547D01*
X125200000Y-137617547D01*
X125020529Y-137631859D01*
X124716128Y-137726126D01*
X124450040Y-137901466D01*
X124243336Y-138143994D01*
X124142565Y-138367547D01*
X122700000Y-138367547D01*
X122520529Y-138381859D01*
X122387679Y-138423000D01*
X121431552Y-138423000D01*
X121461253Y-138214000D01*
X121461253Y-136182000D01*
X121446941Y-136002529D01*
X121352674Y-135698128D01*
X121177334Y-135432040D01*
X120934806Y-135225336D01*
X120644294Y-135094382D01*
X120328800Y-135049547D01*
X120077000Y-135049547D01*
X120077000Y-132702309D01*
X120136145Y-132684452D01*
X120485514Y-132498690D01*
X120792148Y-132248605D01*
X121044367Y-131943724D01*
X121232564Y-131595661D01*
X121349571Y-131217671D01*
X121390932Y-130824154D01*
X121355070Y-130430098D01*
X121243351Y-130050511D01*
X121060032Y-129699854D01*
X120931567Y-129540076D01*
X120976951Y-129485216D01*
X127376813Y-129485216D01*
X127414270Y-129896799D01*
X127530956Y-130293267D01*
X127722429Y-130659520D01*
X127981394Y-130981607D01*
X128297987Y-131247260D01*
X128660150Y-131446361D01*
X129054087Y-131571325D01*
X129464795Y-131617394D01*
X129494361Y-131617600D01*
X131505639Y-131617600D01*
X131916950Y-131577271D01*
X132312594Y-131457819D01*
X132677501Y-131263794D01*
X132997772Y-131002587D01*
X133261209Y-130684147D01*
X133457776Y-130320603D01*
X133579988Y-129925803D01*
X133623187Y-129514784D01*
X133585730Y-129103201D01*
X133469044Y-128706733D01*
X133277571Y-128340480D01*
X133018606Y-128018393D01*
X132702013Y-127752740D01*
X132339850Y-127553639D01*
X131945913Y-127428675D01*
X131535205Y-127382606D01*
X131505639Y-127382400D01*
X129494361Y-127382400D01*
X129083050Y-127422729D01*
X128687406Y-127542181D01*
X128322499Y-127736206D01*
X128002228Y-127997413D01*
X127738791Y-128315853D01*
X127542224Y-128679397D01*
X127420012Y-129074197D01*
X127376813Y-129485216D01*
X120976951Y-129485216D01*
X121044367Y-129403724D01*
X121232564Y-129055661D01*
X121349571Y-128677671D01*
X121390932Y-128284154D01*
X121355070Y-127890098D01*
X121243351Y-127510511D01*
X121060032Y-127159854D01*
X120931567Y-127000076D01*
X121044367Y-126863724D01*
X121232564Y-126515661D01*
X121349571Y-126137671D01*
X121390932Y-125744154D01*
X121355070Y-125350098D01*
X121243351Y-124970511D01*
X121060032Y-124619854D01*
X120951781Y-124485216D01*
X127376813Y-124485216D01*
X127414270Y-124896799D01*
X127530956Y-125293267D01*
X127722429Y-125659520D01*
X127981394Y-125981607D01*
X128297987Y-126247260D01*
X128660150Y-126446361D01*
X129054087Y-126571325D01*
X129464795Y-126617394D01*
X129494361Y-126617600D01*
X131505639Y-126617600D01*
X131916950Y-126577271D01*
X132312594Y-126457819D01*
X132677501Y-126263794D01*
X132997772Y-126002587D01*
X133261209Y-125684147D01*
X133457776Y-125320603D01*
X133579988Y-124925803D01*
X133623187Y-124514784D01*
X133585730Y-124103201D01*
X133469044Y-123706733D01*
X133277571Y-123340480D01*
X133018606Y-123018393D01*
X132702013Y-122752740D01*
X132339850Y-122553639D01*
X131945913Y-122428675D01*
X131535205Y-122382606D01*
X131505639Y-122382400D01*
X129494361Y-122382400D01*
X129083050Y-122422729D01*
X128687406Y-122542181D01*
X128322499Y-122736206D01*
X128002228Y-122997413D01*
X127738791Y-123315853D01*
X127542224Y-123679397D01*
X127420012Y-124074197D01*
X127376813Y-124485216D01*
X120951781Y-124485216D01*
X120931567Y-124460076D01*
X121044367Y-124323724D01*
X121232564Y-123975661D01*
X121349571Y-123597671D01*
X121390932Y-123204154D01*
X121355070Y-122810098D01*
X121243351Y-122430511D01*
X121060032Y-122079854D01*
X120812094Y-121771482D01*
X120508982Y-121517140D01*
X120162241Y-121326517D01*
X119785077Y-121206874D01*
X119391858Y-121162768D01*
X119363551Y-121162570D01*
X117636449Y-121162570D01*
X117242652Y-121201182D01*
X116863855Y-121315548D01*
X116514486Y-121501310D01*
X116207852Y-121751395D01*
X115955633Y-122056276D01*
X115767436Y-122404339D01*
X115650429Y-122782329D01*
X115609068Y-123175846D01*
X115644930Y-123569902D01*
X115756649Y-123949489D01*
X115939968Y-124300146D01*
X116068433Y-124459924D01*
X115955633Y-124596276D01*
X115767436Y-124944339D01*
X115650429Y-125322329D01*
X115609068Y-125715846D01*
X115644930Y-126109902D01*
X115756649Y-126489489D01*
X115939968Y-126840146D01*
X116068433Y-126999924D01*
X115955633Y-127136276D01*
X115767436Y-127484339D01*
X115650429Y-127862329D01*
X115609068Y-128255846D01*
X115644930Y-128649902D01*
X115756649Y-129029489D01*
X115939968Y-129380146D01*
X116068433Y-129539924D01*
X115955633Y-129676276D01*
X115767436Y-130024339D01*
X115650429Y-130402329D01*
X115632403Y-130573828D01*
X115370041Y-130571996D01*
X115095149Y-130624435D01*
X114835677Y-130729268D01*
X114601510Y-130882503D01*
X114401565Y-131078304D01*
X114243459Y-131309211D01*
X114133215Y-131566430D01*
X114075031Y-131840164D01*
X114071124Y-132119986D01*
X114121642Y-132395238D01*
X114224661Y-132655435D01*
X114248000Y-132691650D01*
X114248000Y-136552579D01*
X114243459Y-136559211D01*
X114133215Y-136816430D01*
X114075031Y-137090164D01*
X114071124Y-137369986D01*
X114118279Y-137626916D01*
X113993459Y-137809211D01*
X113883215Y-138066430D01*
X113831166Y-138311303D01*
X113810331Y-138379451D01*
X113775359Y-138489695D01*
X113774625Y-138496240D01*
X113772701Y-138502533D01*
X113761014Y-138617586D01*
X113748122Y-138732519D01*
X113748032Y-138745381D01*
X113748007Y-138745629D01*
X113748029Y-138745861D01*
X113748000Y-138750000D01*
X113748000Y-142302579D01*
X113743459Y-142309211D01*
X113633215Y-142566430D01*
X113575031Y-142840164D01*
X113571124Y-143119986D01*
X111177000Y-143119986D01*
X111177000Y-138615028D01*
X111396516Y-138529883D01*
X111632800Y-138379933D01*
X111835459Y-138186943D01*
X111996773Y-137958266D01*
X112110598Y-137702611D01*
X112172598Y-137429716D01*
X112177062Y-137110075D01*
X112122705Y-136835556D01*
X112016063Y-136576822D01*
X112002000Y-136555655D01*
X112002000Y-132696526D01*
X112110598Y-132452611D01*
X112172598Y-132179716D01*
X112177062Y-131860075D01*
X112122705Y-131585556D01*
X112016063Y-131326822D01*
X111861197Y-131093730D01*
X111664005Y-130895157D01*
X111432000Y-130738668D01*
X111174017Y-130630222D01*
X111129750Y-130621135D01*
X111122705Y-130585556D01*
X111016063Y-130326822D01*
X110861197Y-130093730D01*
X110664005Y-129895157D01*
X110432000Y-129738668D01*
X110174017Y-129630222D01*
X109899884Y-129573950D01*
X109620041Y-129571996D01*
X109502000Y-129594514D01*
X109502000Y-127268596D01*
X116540500Y-120230096D01*
X128065936Y-120230096D01*
X128200734Y-120450801D01*
X128411372Y-120687840D01*
X128664206Y-120879231D01*
X128949521Y-121017619D01*
X129256352Y-121097685D01*
X129509400Y-120960850D01*
X129509400Y-119995300D01*
X131490600Y-119995300D01*
X131490600Y-120960850D01*
X131743648Y-121097685D01*
X132050479Y-121017619D01*
X132335794Y-120879231D01*
X132588628Y-120687840D01*
X132799266Y-120450801D01*
X132934064Y-120230096D01*
X132864922Y-119995300D01*
X131490600Y-119995300D01*
X129509400Y-119995300D01*
X128135078Y-119995300D01*
X128065936Y-120230096D01*
X116540500Y-120230096D01*
X118000692Y-118769904D01*
X128065936Y-118769904D01*
X128135078Y-119004700D01*
X129509400Y-119004700D01*
X129509400Y-118039150D01*
X131490600Y-118039150D01*
X131490600Y-119004700D01*
X132864922Y-119004700D01*
X132934064Y-118769904D01*
X132799266Y-118549199D01*
X132588628Y-118312160D01*
X132335794Y-118120769D01*
X132050479Y-117982381D01*
X131743648Y-117902315D01*
X131490600Y-118039150D01*
X129509400Y-118039150D01*
X129256352Y-117902315D01*
X128949521Y-117982381D01*
X128664206Y-118120769D01*
X128411372Y-118312160D01*
X128200734Y-118549199D01*
X128065936Y-118769904D01*
X118000692Y-118769904D01*
X128260298Y-108510298D01*
X128333685Y-108420955D01*
X128408042Y-108332339D01*
X128411215Y-108326567D01*
X128415392Y-108321482D01*
X128470040Y-108219565D01*
X128525757Y-108118215D01*
X128527747Y-108111942D01*
X128530859Y-108106138D01*
X128564669Y-107995549D01*
X128599641Y-107885305D01*
X128600375Y-107878760D01*
X128602299Y-107872467D01*
X128613986Y-107757414D01*
X128626878Y-107642481D01*
X128626968Y-107629619D01*
X128626993Y-107629371D01*
X128626971Y-107629139D01*
X128627000Y-107625000D01*
X128627000Y-98429445D01*
X128679397Y-98457776D01*
X129074197Y-98579988D01*
X129485216Y-98623187D01*
X129896799Y-98585730D01*
X130234640Y-98486299D01*
X130339699Y-98532198D01*
X130746997Y-98621748D01*
X131163932Y-98630481D01*
X131574622Y-98558066D01*
X131963426Y-98407259D01*
X132315533Y-98183805D01*
X132617531Y-97896215D01*
X132857919Y-97555445D01*
X133027538Y-97174472D01*
X133032318Y-97153434D01*
X133120769Y-97335794D01*
X133312160Y-97588628D01*
X133549199Y-97799266D01*
X133769904Y-97934064D01*
X134004700Y-97864922D01*
X134004700Y-96490600D01*
X133509400Y-96490600D01*
X133509400Y-94509400D01*
X134004700Y-94509400D01*
X134004700Y-94107000D01*
X134995300Y-94107000D01*
X134995300Y-94509400D01*
X135490600Y-94509400D01*
X135490600Y-94812956D01*
X135435564Y-94873051D01*
X135362528Y-95385394D01*
X135390848Y-95902142D01*
X135435564Y-96126949D01*
X135490600Y-96187044D01*
X135490600Y-96490600D01*
X134995300Y-96490600D01*
X134995300Y-97864922D01*
X135230096Y-97934064D01*
X135450801Y-97799266D01*
X135687840Y-97588628D01*
X135879231Y-97335794D01*
X136017619Y-97050479D01*
X136063931Y-96873002D01*
X136117600Y-96873002D01*
X136117600Y-95968010D01*
X136585610Y-95500000D01*
X139414390Y-95500000D01*
X140314381Y-96399991D01*
X140564436Y-96126949D01*
X140637472Y-95614606D01*
X140609152Y-95097858D01*
X140564436Y-94873051D01*
X140314381Y-94600009D01*
X139414390Y-95500000D01*
X136585610Y-95500000D01*
X136117600Y-95031990D01*
X136117600Y-94126998D01*
X136063931Y-94126998D01*
X136017619Y-93949521D01*
X135879231Y-93664206D01*
X135873002Y-93655977D01*
X135873002Y-93177000D01*
X137109420Y-93177000D01*
X137100009Y-93185619D01*
G36*
X113592796Y-93480116D02*
X113246311Y-93986146D01*
X113004712Y-94549839D01*
X112963532Y-94743575D01*
X112707107Y-95000000D01*
X112876922Y-95169815D01*
X112871718Y-95542496D01*
X112353554Y-96060661D01*
X112000000Y-95707107D01*
X111369977Y-96337130D01*
X111489599Y-96553157D01*
X111793347Y-96620867D01*
X111746667Y-96667547D01*
X111000000Y-96667547D01*
X110820529Y-96681859D01*
X110516128Y-96776126D01*
X110250040Y-96951466D01*
X110043336Y-97193994D01*
X109912382Y-97484506D01*
X109867547Y-97800000D01*
X109867547Y-99800000D01*
X109881859Y-99979471D01*
X109976126Y-100283872D01*
X110117227Y-100498000D01*
X106250000Y-100498000D01*
X106134926Y-100509283D01*
X106019693Y-100519365D01*
X106013372Y-100521201D01*
X106006819Y-100521844D01*
X105896068Y-100555282D01*
X105785048Y-100587536D01*
X105779206Y-100590564D01*
X105772900Y-100592468D01*
X105670772Y-100646771D01*
X105568111Y-100699985D01*
X105562964Y-100704094D01*
X105557154Y-100707183D01*
X105467548Y-100780264D01*
X105377149Y-100852428D01*
X105367986Y-100861464D01*
X105367798Y-100861617D01*
X105367654Y-100861791D01*
X105364702Y-100864702D01*
X103364702Y-102864702D01*
X103291297Y-102954067D01*
X103216958Y-103042661D01*
X103213786Y-103048430D01*
X103209608Y-103053517D01*
X103154949Y-103155456D01*
X103099243Y-103256785D01*
X103097253Y-103263058D01*
X103094141Y-103268862D01*
X103060331Y-103379451D01*
X103025359Y-103489695D01*
X103024625Y-103496240D01*
X103022701Y-103502533D01*
X103011014Y-103617586D01*
X102998122Y-103732519D01*
X102998032Y-103745381D01*
X102998007Y-103745629D01*
X102998029Y-103745861D01*
X102998000Y-103750000D01*
X102998000Y-104748000D01*
X102116635Y-104748000D01*
X102039874Y-104500128D01*
X101864534Y-104234040D01*
X101622006Y-104027336D01*
X101331494Y-103896382D01*
X101016000Y-103851547D01*
X98984000Y-103851547D01*
X98804529Y-103865859D01*
X98732869Y-103888051D01*
X98476000Y-103851547D01*
X96444000Y-103851547D01*
X96264529Y-103865859D01*
X95960128Y-103960126D01*
X95694040Y-104135466D01*
X95487336Y-104377994D01*
X95356382Y-104668506D01*
X95311547Y-104984000D01*
X95311547Y-106967547D01*
X95150000Y-106967547D01*
X94970529Y-106981859D01*
X94666128Y-107076126D01*
X94400040Y-107251466D01*
X94193336Y-107493994D01*
X94062382Y-107784506D01*
X94017547Y-108100000D01*
X94017547Y-109000000D01*
X94031859Y-109179471D01*
X94126126Y-109483872D01*
X94301466Y-109749960D01*
X94543994Y-109956664D01*
X94634055Y-109997261D01*
X94400040Y-110151466D01*
X94193336Y-110393994D01*
X94062382Y-110684506D01*
X94017547Y-111000000D01*
X94017547Y-111900000D01*
X94031859Y-112079471D01*
X94126126Y-112383872D01*
X94301466Y-112649960D01*
X94543994Y-112856664D01*
X94834506Y-112987618D01*
X95150000Y-113032453D01*
X96850000Y-113032453D01*
X96871809Y-113030714D01*
X96898551Y-113081008D01*
X96951765Y-113183669D01*
X96955874Y-113188816D01*
X96958963Y-113194626D01*
X97032063Y-113284257D01*
X97104208Y-113374630D01*
X97113243Y-113383793D01*
X97113397Y-113383982D01*
X97113572Y-113384127D01*
X97116482Y-113387078D01*
X100834702Y-117105298D01*
X100924067Y-117178703D01*
X101012661Y-117253042D01*
X101018430Y-117256214D01*
X101023517Y-117260392D01*
X101125456Y-117315051D01*
X101226785Y-117370757D01*
X101233058Y-117372747D01*
X101238862Y-117375859D01*
X101349451Y-117409669D01*
X101459695Y-117444641D01*
X101466240Y-117445375D01*
X101472533Y-117447299D01*
X101587586Y-117458986D01*
X101702519Y-117471878D01*
X101715381Y-117471968D01*
X101715629Y-117471993D01*
X101715861Y-117471971D01*
X101720000Y-117472000D01*
X103301698Y-117472000D01*
X103394961Y-117647403D01*
X103632657Y-117938847D01*
X103756005Y-118040889D01*
X103743459Y-118059211D01*
X103633215Y-118316430D01*
X103575031Y-118590164D01*
X103571124Y-118869986D01*
X103621642Y-119145238D01*
X103653968Y-119226884D01*
X103424017Y-119130222D01*
X103149884Y-119073950D01*
X102870041Y-119071996D01*
X102595149Y-119124435D01*
X102335677Y-119229268D01*
X102101510Y-119382503D01*
X101901565Y-119578304D01*
X101743459Y-119809211D01*
X101633215Y-120066430D01*
X101575031Y-120340164D01*
X101571124Y-120619986D01*
X101621642Y-120895238D01*
X101724661Y-121155435D01*
X101748000Y-121191650D01*
X101748000Y-121561405D01*
X99187284Y-124122120D01*
X99175149Y-124124435D01*
X98915677Y-124229268D01*
X98681510Y-124382503D01*
X98481565Y-124578304D01*
X98323459Y-124809211D01*
X98310891Y-124838535D01*
X98306063Y-124826822D01*
X98151197Y-124593730D01*
X97954005Y-124395157D01*
X97722000Y-124238668D01*
X97464017Y-124130222D01*
X97189884Y-124073950D01*
X96910041Y-124071996D01*
X96635149Y-124124435D01*
X96375677Y-124229268D01*
X96141510Y-124382503D01*
X95941565Y-124578304D01*
X95783459Y-124809211D01*
X95673215Y-125066430D01*
X95615031Y-125340164D01*
X95611124Y-125619986D01*
X95661642Y-125895238D01*
X95764661Y-126155435D01*
X95916258Y-126390667D01*
X96028956Y-126507369D01*
X95993459Y-126559211D01*
X95883215Y-126816430D01*
X95861722Y-126917547D01*
X95550000Y-126917547D01*
X95370529Y-126931859D01*
X95175215Y-126992344D01*
X95177062Y-126860075D01*
X95122705Y-126585556D01*
X95016063Y-126326822D01*
X94861197Y-126093730D01*
X94664005Y-125895157D01*
X94432000Y-125738668D01*
X94174017Y-125630222D01*
X93899884Y-125573950D01*
X93620041Y-125571996D01*
X93345149Y-125624435D01*
X93177000Y-125692371D01*
X93177000Y-96220885D01*
X93369547Y-96220885D01*
X93462547Y-96727603D01*
X93652198Y-97206606D01*
X93931276Y-97639651D01*
X94289151Y-98010241D01*
X94712191Y-98304262D01*
X95184284Y-98510514D01*
X95687448Y-98621142D01*
X96202516Y-98631931D01*
X96709871Y-98542471D01*
X97190186Y-98356169D01*
X97625168Y-98080121D01*
X97998248Y-97724842D01*
X98295215Y-97303864D01*
X98504758Y-96833222D01*
X98618896Y-96330844D01*
X98627113Y-95742409D01*
X98527047Y-95237040D01*
X98479968Y-95122818D01*
X110369748Y-95122818D01*
X110425033Y-95438504D01*
X110446843Y-95510401D01*
X110662870Y-95630023D01*
X111292893Y-95000000D01*
X110662870Y-94369977D01*
X110446843Y-94489599D01*
X110377112Y-94802412D01*
X110369748Y-95122818D01*
X98479968Y-95122818D01*
X98330726Y-94760731D01*
X98045629Y-94331625D01*
X97682615Y-93966068D01*
X97255510Y-93677982D01*
X97219561Y-93662870D01*
X111369977Y-93662870D01*
X112000000Y-94292893D01*
X112630023Y-93662870D01*
X112510401Y-93446843D01*
X112197588Y-93377112D01*
X111877182Y-93369748D01*
X111561496Y-93425033D01*
X111489599Y-93446843D01*
X111369977Y-93662870D01*
X97219561Y-93662870D01*
X96780584Y-93478341D01*
X96275925Y-93374750D01*
X95760756Y-93371153D01*
X95254700Y-93467688D01*
X94777032Y-93660679D01*
X94345947Y-93942773D01*
X93977864Y-94303226D01*
X93686804Y-94728310D01*
X93483852Y-95201831D01*
X93376740Y-95705754D01*
X93369547Y-96220885D01*
X93177000Y-96220885D01*
X93177000Y-93177000D01*
X113902328Y-93177000D01*
X113592796Y-93480116D01*
X113592796Y-93480116D01*
G37*
X113592796Y-93480116D02*
X113246311Y-93986146D01*
X113004712Y-94549839D01*
X112963532Y-94743575D01*
X112707107Y-95000000D01*
X112876922Y-95169815D01*
X112871718Y-95542496D01*
X112353554Y-96060661D01*
X112000000Y-95707107D01*
X111369977Y-96337130D01*
X111489599Y-96553157D01*
X111793347Y-96620867D01*
X111746667Y-96667547D01*
X111000000Y-96667547D01*
X110820529Y-96681859D01*
X110516128Y-96776126D01*
X110250040Y-96951466D01*
X110043336Y-97193994D01*
X109912382Y-97484506D01*
X109867547Y-97800000D01*
X109867547Y-99800000D01*
X109881859Y-99979471D01*
X109976126Y-100283872D01*
X110117227Y-100498000D01*
X106250000Y-100498000D01*
X106134926Y-100509283D01*
X106019693Y-100519365D01*
X106013372Y-100521201D01*
X106006819Y-100521844D01*
X105896068Y-100555282D01*
X105785048Y-100587536D01*
X105779206Y-100590564D01*
X105772900Y-100592468D01*
X105670772Y-100646771D01*
X105568111Y-100699985D01*
X105562964Y-100704094D01*
X105557154Y-100707183D01*
X105467548Y-100780264D01*
X105377149Y-100852428D01*
X105367986Y-100861464D01*
X105367798Y-100861617D01*
X105367654Y-100861791D01*
X105364702Y-100864702D01*
X103364702Y-102864702D01*
X103291297Y-102954067D01*
X103216958Y-103042661D01*
X103213786Y-103048430D01*
X103209608Y-103053517D01*
X103154949Y-103155456D01*
X103099243Y-103256785D01*
X103097253Y-103263058D01*
X103094141Y-103268862D01*
X103060331Y-103379451D01*
X103025359Y-103489695D01*
X103024625Y-103496240D01*
X103022701Y-103502533D01*
X103011014Y-103617586D01*
X102998122Y-103732519D01*
X102998032Y-103745381D01*
X102998007Y-103745629D01*
X102998029Y-103745861D01*
X102998000Y-103750000D01*
X102998000Y-104748000D01*
X102116635Y-104748000D01*
X102039874Y-104500128D01*
X101864534Y-104234040D01*
X101622006Y-104027336D01*
X101331494Y-103896382D01*
X101016000Y-103851547D01*
X98984000Y-103851547D01*
X98804529Y-103865859D01*
X98732869Y-103888051D01*
X98476000Y-103851547D01*
X96444000Y-103851547D01*
X96264529Y-103865859D01*
X95960128Y-103960126D01*
X95694040Y-104135466D01*
X95487336Y-104377994D01*
X95356382Y-104668506D01*
X95311547Y-104984000D01*
X95311547Y-106967547D01*
X95150000Y-106967547D01*
X94970529Y-106981859D01*
X94666128Y-107076126D01*
X94400040Y-107251466D01*
X94193336Y-107493994D01*
X94062382Y-107784506D01*
X94017547Y-108100000D01*
X94017547Y-109000000D01*
X94031859Y-109179471D01*
X94126126Y-109483872D01*
X94301466Y-109749960D01*
X94543994Y-109956664D01*
X94634055Y-109997261D01*
X94400040Y-110151466D01*
X94193336Y-110393994D01*
X94062382Y-110684506D01*
X94017547Y-111000000D01*
X94017547Y-111900000D01*
X94031859Y-112079471D01*
X94126126Y-112383872D01*
X94301466Y-112649960D01*
X94543994Y-112856664D01*
X94834506Y-112987618D01*
X95150000Y-113032453D01*
X96850000Y-113032453D01*
X96871809Y-113030714D01*
X96898551Y-113081008D01*
X96951765Y-113183669D01*
X96955874Y-113188816D01*
X96958963Y-113194626D01*
X97032063Y-113284257D01*
X97104208Y-113374630D01*
X97113243Y-113383793D01*
X97113397Y-113383982D01*
X97113572Y-113384127D01*
X97116482Y-113387078D01*
X100834702Y-117105298D01*
X100924067Y-117178703D01*
X101012661Y-117253042D01*
X101018430Y-117256214D01*
X101023517Y-117260392D01*
X101125456Y-117315051D01*
X101226785Y-117370757D01*
X101233058Y-117372747D01*
X101238862Y-117375859D01*
X101349451Y-117409669D01*
X101459695Y-117444641D01*
X101466240Y-117445375D01*
X101472533Y-117447299D01*
X101587586Y-117458986D01*
X101702519Y-117471878D01*
X101715381Y-117471968D01*
X101715629Y-117471993D01*
X101715861Y-117471971D01*
X101720000Y-117472000D01*
X103301698Y-117472000D01*
X103394961Y-117647403D01*
X103632657Y-117938847D01*
X103756005Y-118040889D01*
X103743459Y-118059211D01*
X103633215Y-118316430D01*
X103575031Y-118590164D01*
X103571124Y-118869986D01*
X103621642Y-119145238D01*
X103653968Y-119226884D01*
X103424017Y-119130222D01*
X103149884Y-119073950D01*
X102870041Y-119071996D01*
X102595149Y-119124435D01*
X102335677Y-119229268D01*
X102101510Y-119382503D01*
X101901565Y-119578304D01*
X101743459Y-119809211D01*
X101633215Y-120066430D01*
X101575031Y-120340164D01*
X101571124Y-120619986D01*
X101621642Y-120895238D01*
X101724661Y-121155435D01*
X101748000Y-121191650D01*
X101748000Y-121561405D01*
X99187284Y-124122120D01*
X99175149Y-124124435D01*
X98915677Y-124229268D01*
X98681510Y-124382503D01*
X98481565Y-124578304D01*
X98323459Y-124809211D01*
X98310891Y-124838535D01*
X98306063Y-124826822D01*
X98151197Y-124593730D01*
X97954005Y-124395157D01*
X97722000Y-124238668D01*
X97464017Y-124130222D01*
X97189884Y-124073950D01*
X96910041Y-124071996D01*
X96635149Y-124124435D01*
X96375677Y-124229268D01*
X96141510Y-124382503D01*
X95941565Y-124578304D01*
X95783459Y-124809211D01*
X95673215Y-125066430D01*
X95615031Y-125340164D01*
X95611124Y-125619986D01*
X95661642Y-125895238D01*
X95764661Y-126155435D01*
X95916258Y-126390667D01*
X96028956Y-126507369D01*
X95993459Y-126559211D01*
X95883215Y-126816430D01*
X95861722Y-126917547D01*
X95550000Y-126917547D01*
X95370529Y-126931859D01*
X95175215Y-126992344D01*
X95177062Y-126860075D01*
X95122705Y-126585556D01*
X95016063Y-126326822D01*
X94861197Y-126093730D01*
X94664005Y-125895157D01*
X94432000Y-125738668D01*
X94174017Y-125630222D01*
X93899884Y-125573950D01*
X93620041Y-125571996D01*
X93345149Y-125624435D01*
X93177000Y-125692371D01*
X93177000Y-96220885D01*
X93369547Y-96220885D01*
X93462547Y-96727603D01*
X93652198Y-97206606D01*
X93931276Y-97639651D01*
X94289151Y-98010241D01*
X94712191Y-98304262D01*
X95184284Y-98510514D01*
X95687448Y-98621142D01*
X96202516Y-98631931D01*
X96709871Y-98542471D01*
X97190186Y-98356169D01*
X97625168Y-98080121D01*
X97998248Y-97724842D01*
X98295215Y-97303864D01*
X98504758Y-96833222D01*
X98618896Y-96330844D01*
X98627113Y-95742409D01*
X98527047Y-95237040D01*
X98479968Y-95122818D01*
X110369748Y-95122818D01*
X110425033Y-95438504D01*
X110446843Y-95510401D01*
X110662870Y-95630023D01*
X111292893Y-95000000D01*
X110662870Y-94369977D01*
X110446843Y-94489599D01*
X110377112Y-94802412D01*
X110369748Y-95122818D01*
X98479968Y-95122818D01*
X98330726Y-94760731D01*
X98045629Y-94331625D01*
X97682615Y-93966068D01*
X97255510Y-93677982D01*
X97219561Y-93662870D01*
X111369977Y-93662870D01*
X112000000Y-94292893D01*
X112630023Y-93662870D01*
X112510401Y-93446843D01*
X112197588Y-93377112D01*
X111877182Y-93369748D01*
X111561496Y-93425033D01*
X111489599Y-93446843D01*
X111369977Y-93662870D01*
X97219561Y-93662870D01*
X96780584Y-93478341D01*
X96275925Y-93374750D01*
X95760756Y-93371153D01*
X95254700Y-93467688D01*
X94777032Y-93660679D01*
X94345947Y-93942773D01*
X93977864Y-94303226D01*
X93686804Y-94728310D01*
X93483852Y-95201831D01*
X93376740Y-95705754D01*
X93369547Y-96220885D01*
X93177000Y-96220885D01*
X93177000Y-93177000D01*
X113902328Y-93177000D01*
X113592796Y-93480116D01*
M02*
