G04 #@! TF.FileFunction,Soldermask,Bot*
%FSLAX46Y46*%
G04 Gerber Fmt 4.6, Leading zero omitted, Abs format (unit mm)*
G04 Created by KiCad (PCBNEW 4.0.4-stable) date 03/22/17 00:02:01*
%MOMM*%
%LPD*%
G01*
G04 APERTURE LIST*
%ADD10C,0.100000*%
%ADD11O,4.362400X2.381200*%
%ADD12R,1.500000X2.800000*%
%ADD13O,1.500000X2.800000*%
%ADD14C,2.400000*%
%ADD15R,2.400000X2.400000*%
%ADD16O,2.381200X4.362400*%
%ADD17R,2.400000X2.432000*%
%ADD18R,2.127200X2.432000*%
%ADD19O,2.000000X2.700000*%
%ADD20O,2.127200X2.432000*%
%ADD21O,2.398980X3.399740*%
%ADD22O,3.399740X2.398980*%
%ADD23O,3.900120X2.200860*%
G04 APERTURE END LIST*
D10*
D11*
X130500000Y-134500000D03*
X130500000Y-129500000D03*
X130500000Y-119500000D03*
X130500000Y-124500000D03*
D12*
X153000000Y-135000000D03*
D13*
X151000000Y-135000000D03*
X149000000Y-135000000D03*
X147000000Y-135000000D03*
X145000000Y-135000000D03*
X143000000Y-135000000D03*
X141000000Y-135000000D03*
X139000000Y-135000000D03*
X139000000Y-119000000D03*
X141000000Y-119000000D03*
X143000000Y-119000000D03*
X145000000Y-119000000D03*
X147000000Y-119000000D03*
X149000000Y-119000000D03*
X151000000Y-119000000D03*
X153000000Y-119000000D03*
D14*
X142000000Y-158500000D03*
D15*
X142000000Y-154700000D03*
D14*
X160040000Y-143690000D03*
X154960000Y-143690000D03*
X160040000Y-151310000D03*
X154960000Y-151310000D03*
X150540000Y-138190000D03*
X145460000Y-138190000D03*
X150540000Y-145810000D03*
X145460000Y-145810000D03*
X112000000Y-95000000D03*
D15*
X112000000Y-98800000D03*
D16*
X134500000Y-158500000D03*
X129500000Y-158500000D03*
X119500000Y-158500000D03*
X124500000Y-158500000D03*
X119500000Y-95500000D03*
X124500000Y-95500000D03*
X134500000Y-95500000D03*
X129500000Y-95500000D03*
D17*
X94500000Y-125500000D03*
X97040000Y-125500000D03*
X99580000Y-125500000D03*
X94500000Y-128500000D03*
X97040000Y-128500000D03*
X99580000Y-128500000D03*
X94500000Y-131500000D03*
X97040000Y-131500000D03*
X99580000Y-131500000D03*
X94500000Y-134500000D03*
X97040000Y-134500000D03*
X99580000Y-134500000D03*
X94500000Y-137500000D03*
X97040000Y-137500000D03*
X99580000Y-137500000D03*
D18*
X94500000Y-140500000D03*
D17*
X97040000Y-140500000D03*
X99580000Y-140500000D03*
X94500000Y-143500000D03*
X97040000Y-143500000D03*
X99580000Y-143500000D03*
X94500000Y-146500000D03*
X97040000Y-146500000D03*
X99580000Y-146500000D03*
D19*
X105000000Y-116220000D03*
X107540000Y-116220000D03*
X110080000Y-116220000D03*
X112620000Y-116220000D03*
X112620000Y-159400000D03*
X110080000Y-159400000D03*
X107540000Y-159400000D03*
X105000000Y-159400000D03*
D18*
X153000000Y-104000000D03*
D20*
X150460000Y-104000000D03*
X147920000Y-104000000D03*
X145380000Y-104000000D03*
X142840000Y-104000000D03*
X140300000Y-104000000D03*
D21*
X132960000Y-144460000D03*
D22*
X135500000Y-147000000D03*
X130420000Y-147000000D03*
D23*
X118500000Y-123190000D03*
X118500000Y-125730000D03*
X118500000Y-128270000D03*
X118500000Y-130810000D03*
M02*
