G04 #@! TF.FileFunction,Copper,L1,Top,Signal*
%FSLAX46Y46*%
G04 Gerber Fmt 4.6, Leading zero omitted, Abs format (unit mm)*
G04 Created by KiCad (PCBNEW 4.0.4-stable) date 03/17/17 22:11:41*
%MOMM*%
%LPD*%
G01*
G04 APERTURE LIST*
%ADD10C,0.100000*%
%ADD11O,3.962400X1.981200*%
%ADD12R,1.600000X1.000000*%
%ADD13R,1.700000X0.900000*%
%ADD14R,3.657600X2.032000*%
%ADD15R,1.016000X2.032000*%
%ADD16R,0.600000X1.500000*%
%ADD17C,2.000000*%
%ADD18R,2.000000X2.000000*%
%ADD19R,0.800100X0.800100*%
%ADD20O,1.473200X0.609600*%
%ADD21O,1.981200X3.962400*%
%ADD22O,1.600000X2.300000*%
%ADD23R,1.000000X1.250000*%
%ADD24R,1.727200X2.032000*%
%ADD25O,1.727200X2.032000*%
%ADD26R,2.032000X2.032000*%
%ADD27R,0.900000X1.700000*%
%ADD28R,0.900000X0.900000*%
%ADD29O,1.998980X2.999740*%
%ADD30O,2.999740X1.998980*%
%ADD31R,3.000000X3.000000*%
%ADD32O,3.500120X1.800860*%
%ADD33C,0.600000*%
%ADD34C,0.900000*%
%ADD35C,0.250000*%
%ADD36C,0.600000*%
%ADD37C,0.254000*%
G04 APERTURE END LIST*
D10*
D11*
X129000000Y-134500000D03*
X129000000Y-129500000D03*
X129000000Y-119500000D03*
X129000000Y-124500000D03*
D12*
X123500000Y-143000000D03*
X123500000Y-140000000D03*
X126000000Y-143000000D03*
X126000000Y-140000000D03*
D13*
X94000000Y-131450000D03*
X94000000Y-128550000D03*
D14*
X118500000Y-137198000D03*
D15*
X118500000Y-143802000D03*
X120786000Y-143802000D03*
X116214000Y-143802000D03*
D16*
X93555000Y-138700000D03*
X94825000Y-138700000D03*
X96095000Y-138700000D03*
X97365000Y-138700000D03*
X98635000Y-138700000D03*
X99905000Y-138700000D03*
X101175000Y-138700000D03*
X102445000Y-138700000D03*
X102445000Y-133300000D03*
X101175000Y-133300000D03*
X99905000Y-133300000D03*
X98635000Y-133300000D03*
X97365000Y-133300000D03*
X96095000Y-133300000D03*
X94825000Y-133300000D03*
X93555000Y-133300000D03*
D17*
X142000000Y-158500000D03*
D18*
X142000000Y-154700000D03*
D19*
X150000760Y-111950000D03*
X150000760Y-110050000D03*
X148001780Y-111000000D03*
X141000760Y-114950000D03*
X141000760Y-113050000D03*
X139001780Y-114000000D03*
D13*
X153000000Y-132450000D03*
X153000000Y-129550000D03*
X149000000Y-132450000D03*
X149000000Y-129550000D03*
X145000000Y-130450000D03*
X145000000Y-127550000D03*
X152000000Y-109550000D03*
X152000000Y-112450000D03*
X143000000Y-112550000D03*
X143000000Y-115450000D03*
X146000000Y-109550000D03*
X146000000Y-112450000D03*
X137000000Y-112550000D03*
X137000000Y-115450000D03*
D17*
X160040000Y-143690000D03*
X154960000Y-143690000D03*
X160040000Y-151310000D03*
X154960000Y-151310000D03*
X150540000Y-138190000D03*
X145460000Y-138190000D03*
X150540000Y-145810000D03*
X145460000Y-145810000D03*
D20*
X104206000Y-150095000D03*
X104206000Y-151365000D03*
X104206000Y-152635000D03*
X104206000Y-153905000D03*
X109794000Y-153905000D03*
X109794000Y-152635000D03*
X109794000Y-151365000D03*
X109794000Y-150095000D03*
D17*
X112000000Y-95000000D03*
D18*
X112000000Y-98800000D03*
D21*
X134500000Y-158500000D03*
X129500000Y-158500000D03*
X119500000Y-158500000D03*
X124500000Y-158500000D03*
X119500000Y-95500000D03*
X124500000Y-95500000D03*
X134500000Y-95500000D03*
X129500000Y-95500000D03*
D19*
X122000760Y-106950000D03*
X122000760Y-105050000D03*
X120001780Y-106000000D03*
X111000760Y-108950000D03*
X111000760Y-107050000D03*
X109001780Y-108000000D03*
D13*
X124000000Y-104550000D03*
X124000000Y-107450000D03*
X113000000Y-106550000D03*
X113000000Y-109450000D03*
X118000000Y-104550000D03*
X118000000Y-107450000D03*
X107000000Y-106550000D03*
X107000000Y-109450000D03*
D19*
X100000760Y-110950000D03*
X100000760Y-109050000D03*
X98001780Y-110000000D03*
D13*
X147000000Y-121550000D03*
X147000000Y-124450000D03*
X151000000Y-121550000D03*
X151000000Y-124450000D03*
X102000000Y-108550000D03*
X102000000Y-111450000D03*
X96000000Y-108550000D03*
X96000000Y-111450000D03*
D22*
X105000000Y-116220000D03*
X107540000Y-116220000D03*
X110080000Y-116220000D03*
X112620000Y-116220000D03*
X112620000Y-159400000D03*
X110080000Y-159400000D03*
X107540000Y-159400000D03*
X105000000Y-159400000D03*
D23*
X118000000Y-146500000D03*
X116000000Y-146500000D03*
X137000000Y-143500000D03*
X135000000Y-143500000D03*
D24*
X153000000Y-104000000D03*
D25*
X150460000Y-104000000D03*
X147920000Y-104000000D03*
X145380000Y-104000000D03*
X142840000Y-104000000D03*
X140300000Y-104000000D03*
D26*
X140000000Y-145500000D03*
X140000000Y-142960000D03*
D27*
X137700000Y-139500000D03*
X134800000Y-139500000D03*
X142700000Y-139500000D03*
X139800000Y-139500000D03*
D28*
X100000000Y-128500000D03*
X96000000Y-128500000D03*
X98660000Y-128500000D03*
X97340000Y-128500000D03*
X98660000Y-131500000D03*
X100000000Y-131500000D03*
X96000000Y-131500000D03*
X97340000Y-131500000D03*
X96000000Y-143500000D03*
X100000000Y-143500000D03*
X97340000Y-143500000D03*
X98660000Y-143500000D03*
X97340000Y-140500000D03*
X96000000Y-140500000D03*
X100000000Y-140500000D03*
X98660000Y-140500000D03*
D29*
X131960000Y-144460000D03*
D30*
X134500000Y-147000000D03*
X129420000Y-147000000D03*
D27*
X135450000Y-110000000D03*
X132550000Y-110000000D03*
X144450000Y-107000000D03*
X141550000Y-107000000D03*
D31*
X123250000Y-152000000D03*
X126790000Y-152000000D03*
D26*
X150000000Y-107000000D03*
X147460000Y-107000000D03*
X141000000Y-110000000D03*
X138460000Y-110000000D03*
X122000000Y-102000000D03*
X119460000Y-102000000D03*
X111000000Y-104000000D03*
X108460000Y-104000000D03*
X100000000Y-106000000D03*
X97460000Y-106000000D03*
D32*
X118500000Y-123190000D03*
X118500000Y-125730000D03*
X118500000Y-128270000D03*
X118500000Y-130810000D03*
D26*
X114000000Y-153000000D03*
X116540000Y-153000000D03*
D27*
X113550000Y-150000000D03*
X116450000Y-150000000D03*
D23*
X149500000Y-127000000D03*
X147500000Y-127000000D03*
D33*
X122698000Y-143802000D03*
X102500000Y-144500000D03*
X128000000Y-141000000D03*
X128000000Y-140000000D03*
X93750000Y-127000000D03*
X116250000Y-140000000D03*
X139750000Y-122250000D03*
X102500000Y-137500000D03*
X103000000Y-120500000D03*
X99580000Y-125500000D03*
X109750000Y-131000000D03*
X122000000Y-109250000D03*
X120000000Y-109250000D03*
X111000000Y-112500000D03*
X99750000Y-112500000D03*
X119250000Y-146500000D03*
X109750000Y-146500000D03*
X149000000Y-128500000D03*
X99500000Y-135000000D03*
X147000000Y-114000000D03*
X149000000Y-114000000D03*
X115250000Y-138500000D03*
X110750000Y-138500000D03*
X103500000Y-135000000D03*
X149000000Y-133250000D03*
X97040000Y-125500000D03*
X97250000Y-127250000D03*
X97000000Y-130250000D03*
X97000000Y-135750000D03*
X97000000Y-137000000D03*
X97250000Y-141750000D03*
X97500000Y-144750000D03*
X97250000Y-146250000D03*
X107500000Y-150500000D03*
X108250000Y-152000000D03*
X123750000Y-109000000D03*
X125000000Y-103000000D03*
X104250000Y-120250000D03*
X138250000Y-96500000D03*
X103000000Y-114750000D03*
X121000000Y-99000000D03*
X105500000Y-109500000D03*
X96750000Y-110000000D03*
X116000000Y-106250000D03*
X120000000Y-107500000D03*
X127000000Y-152500000D03*
X137000000Y-114000000D03*
X146000000Y-111000000D03*
X115500000Y-137250000D03*
X110750000Y-137250000D03*
X116000000Y-114250000D03*
X116000000Y-108000000D03*
X105750000Y-137250000D03*
X153000000Y-133250000D03*
X147500000Y-131250000D03*
X145500000Y-149250000D03*
X138750000Y-149250000D03*
X97250000Y-149750000D03*
X135000000Y-149250000D03*
X123750000Y-149250000D03*
X149000000Y-121500000D03*
X148000000Y-145750000D03*
X143000000Y-121500000D03*
X146500000Y-150750000D03*
X138750000Y-150750000D03*
X97250000Y-150750000D03*
X129500000Y-150750000D03*
X135000000Y-150750000D03*
X151000000Y-131250000D03*
X151000000Y-123000000D03*
X145000000Y-123000000D03*
X141000000Y-121500000D03*
X140750000Y-127500000D03*
X140750000Y-130000000D03*
X142000000Y-126500000D03*
X142000000Y-131000000D03*
X134000000Y-129500000D03*
X135000000Y-107000000D03*
X135000000Y-112000000D03*
X135000000Y-124500000D03*
D34*
X120786000Y-143802000D02*
X122698000Y-143802000D01*
X101500000Y-145500000D02*
X101500000Y-156500000D01*
X102500000Y-144500000D02*
X101500000Y-145500000D01*
X134500000Y-95500000D02*
X131750000Y-92750000D01*
X114250000Y-92750000D02*
X112000000Y-95000000D01*
X131750000Y-92750000D02*
X114250000Y-92750000D01*
X129420000Y-147000000D02*
X120786000Y-147000000D01*
X120786000Y-147000000D02*
X120750000Y-147000000D01*
X120750000Y-147000000D02*
X120786000Y-147000000D01*
X123250000Y-152000000D02*
X120786000Y-152000000D01*
X132500000Y-139500000D02*
X132500000Y-136000000D01*
X129420000Y-147000000D02*
X129420000Y-142580000D01*
X132500000Y-139500000D02*
X134800000Y-139500000D01*
X129420000Y-142580000D02*
X132500000Y-139500000D01*
X129000000Y-119500000D02*
X129000000Y-109750000D01*
X134500000Y-104250000D02*
X134500000Y-95500000D01*
X129000000Y-109750000D02*
X134500000Y-104250000D01*
X119500000Y-155000000D02*
X137500000Y-155000000D01*
X137500000Y-155000000D02*
X141000000Y-158500000D01*
X141000000Y-158500000D02*
X142000000Y-158500000D01*
X132500000Y-136000000D02*
X132500000Y-121000000D01*
X131000000Y-119500000D02*
X129000000Y-119500000D01*
X132500000Y-121000000D02*
X131000000Y-119500000D01*
X122698000Y-143802000D02*
X123500000Y-143000000D01*
X120786000Y-145500000D02*
X120786000Y-143802000D01*
X119500000Y-158500000D02*
X119500000Y-155000000D01*
X119500000Y-155000000D02*
X119500000Y-153286000D01*
X119500000Y-153286000D02*
X120786000Y-152000000D01*
X120786000Y-145302000D02*
X120786000Y-145500000D01*
X120786000Y-145500000D02*
X120786000Y-147000000D01*
X120786000Y-147000000D02*
X120786000Y-148500000D01*
X120786000Y-148500000D02*
X120786000Y-152000000D01*
X128000000Y-140000000D02*
X128000000Y-141000000D01*
X116250000Y-140000000D02*
X128000000Y-140000000D01*
X128000000Y-140000000D02*
X129000000Y-139000000D01*
X129000000Y-139000000D02*
X129000000Y-134500000D01*
D35*
X93750000Y-127000000D02*
X93750000Y-128300000D01*
X93750000Y-128300000D02*
X94000000Y-128550000D01*
D36*
X116250000Y-140000000D02*
X116214000Y-140000000D01*
D34*
X128000000Y-140000000D02*
X127750000Y-140000000D01*
X145460000Y-145810000D02*
X150960000Y-151310000D01*
X150960000Y-151310000D02*
X154960000Y-151310000D01*
X127750000Y-140000000D02*
X128000000Y-140000000D01*
X127750000Y-140000000D02*
X126000000Y-140000000D01*
D35*
X142700000Y-139500000D02*
X144150000Y-139500000D01*
X144150000Y-139500000D02*
X145460000Y-138190000D01*
D36*
X145000000Y-130450000D02*
X146050000Y-130450000D01*
X147000000Y-129500000D02*
X147000000Y-127500000D01*
X146050000Y-130450000D02*
X147000000Y-129500000D01*
X147000000Y-127500000D02*
X147500000Y-127000000D01*
D35*
X143250000Y-128000000D02*
X143000000Y-128000000D01*
X143000000Y-128000000D02*
X143250000Y-128000000D01*
D34*
X145000000Y-130450000D02*
X144700000Y-130450000D01*
X144700000Y-130450000D02*
X143250000Y-129000000D01*
X143250000Y-125750000D02*
X139750000Y-122250000D01*
X143250000Y-129000000D02*
X143250000Y-128000000D01*
X143250000Y-128000000D02*
X143250000Y-125750000D01*
X145460000Y-138190000D02*
X145000000Y-137730000D01*
X145000000Y-137730000D02*
X145000000Y-130450000D01*
D36*
X109794000Y-153905000D02*
X109794000Y-154544000D01*
X109794000Y-154544000D02*
X112620000Y-157370000D01*
X112620000Y-157370000D02*
X112620000Y-159400000D01*
D34*
X116214000Y-141286000D02*
X116214000Y-140000000D01*
X116214000Y-141286000D02*
X116214000Y-143802000D01*
X116000000Y-146500000D02*
X116000000Y-145000000D01*
X116000000Y-145000000D02*
X116214000Y-144786000D01*
X116214000Y-144786000D02*
X116214000Y-143802000D01*
X126000000Y-140000000D02*
X123500000Y-140000000D01*
X135000000Y-143500000D02*
X132920000Y-143500000D01*
X132920000Y-143500000D02*
X131960000Y-144460000D01*
D35*
X102445000Y-137555000D02*
X102445000Y-138700000D01*
X102500000Y-137500000D02*
X102445000Y-137555000D01*
D36*
X154500000Y-102000000D02*
X155500000Y-103000000D01*
X153550000Y-112450000D02*
X152000000Y-112450000D01*
X155500000Y-110500000D02*
X153550000Y-112450000D01*
X155500000Y-103000000D02*
X155500000Y-110500000D01*
X147920000Y-103080000D02*
X149000000Y-102000000D01*
X149000000Y-102000000D02*
X154500000Y-102000000D01*
X153500000Y-114500000D02*
X153500000Y-112500000D01*
X153500000Y-112500000D02*
X153500000Y-112450000D01*
X152000000Y-112450000D02*
X153500000Y-112450000D01*
X143000000Y-115450000D02*
X143050000Y-115500000D01*
X143050000Y-115500000D02*
X153500000Y-115500000D01*
X153000000Y-124000000D02*
X153500000Y-123500000D01*
X153500000Y-123500000D02*
X153500000Y-115500000D01*
X153500000Y-115500000D02*
X153500000Y-114500000D01*
D35*
X99580000Y-125500000D02*
X103000000Y-122080000D01*
X103000000Y-122080000D02*
X103000000Y-120500000D01*
D36*
X109750000Y-146500000D02*
X109750000Y-131000000D01*
D35*
X120000000Y-109250000D02*
X113200000Y-109250000D01*
X113200000Y-109250000D02*
X113000000Y-109450000D01*
X122000000Y-109250000D02*
X122000000Y-106950760D01*
X122000000Y-106950760D02*
X122000760Y-106950000D01*
X111000000Y-112500000D02*
X111000760Y-112499240D01*
X111000760Y-112499240D02*
X111000760Y-108950000D01*
X100000760Y-112249240D02*
X100000760Y-110950000D01*
X99750000Y-112500000D02*
X100000760Y-112249240D01*
D36*
X119250000Y-146500000D02*
X118000000Y-146500000D01*
X109794000Y-150095000D02*
X109794000Y-146544000D01*
X109794000Y-146544000D02*
X109750000Y-146500000D01*
X149500000Y-127000000D02*
X149500000Y-128000000D01*
X149500000Y-128000000D02*
X149000000Y-128500000D01*
X149000000Y-128500000D02*
X149000000Y-129550000D01*
D35*
X111000760Y-108950000D02*
X111450000Y-108950000D01*
X111450000Y-108950000D02*
X111950000Y-109450000D01*
X111950000Y-109450000D02*
X113000000Y-109450000D01*
X122000760Y-106950000D02*
X122450000Y-106950000D01*
X122950000Y-107450000D02*
X124000000Y-107450000D01*
X122450000Y-106950000D02*
X122950000Y-107450000D01*
X102000000Y-111450000D02*
X101450000Y-111450000D01*
X101450000Y-111450000D02*
X100950000Y-110950000D01*
X100950000Y-110950000D02*
X100000760Y-110950000D01*
X150000760Y-111950000D02*
X150450000Y-111950000D01*
X150450000Y-111950000D02*
X150950000Y-112450000D01*
X150950000Y-112450000D02*
X152000000Y-112450000D01*
X143000000Y-115450000D02*
X141950000Y-115450000D01*
X141450000Y-114950000D02*
X141000760Y-114950000D01*
X141950000Y-115450000D02*
X141450000Y-114950000D01*
D36*
X153000000Y-124000000D02*
X152550000Y-124450000D01*
X152550000Y-124450000D02*
X151000000Y-124450000D01*
X147920000Y-104000000D02*
X147920000Y-103080000D01*
D35*
X151050000Y-124500000D02*
X151000000Y-124450000D01*
X148950000Y-129550000D02*
X149000000Y-129550000D01*
D36*
X151000000Y-124450000D02*
X151000000Y-129550000D01*
D35*
X151000000Y-129550000D02*
X151000000Y-129500000D01*
X151000000Y-129500000D02*
X151000000Y-129550000D01*
D36*
X149000000Y-129550000D02*
X151000000Y-129550000D01*
X151000000Y-129550000D02*
X153000000Y-129550000D01*
X147000000Y-124450000D02*
X151000000Y-124450000D01*
D34*
X118500000Y-137198000D02*
X118500000Y-130810000D01*
X118000000Y-146500000D02*
X118000000Y-145500000D01*
X118000000Y-145500000D02*
X118500000Y-145000000D01*
X118500000Y-145000000D02*
X118500000Y-143802000D01*
X118500000Y-143802000D02*
X118500000Y-142000000D01*
X126000000Y-142000000D02*
X126000000Y-143000000D01*
X118500000Y-142000000D02*
X119000000Y-141500000D01*
X119000000Y-141500000D02*
X120000000Y-141500000D01*
X120000000Y-141500000D02*
X125500000Y-141500000D01*
X125500000Y-141500000D02*
X126000000Y-142000000D01*
D35*
X93555000Y-133300000D02*
X93555000Y-134305000D01*
X94250000Y-135000000D02*
X99500000Y-135000000D01*
X93555000Y-134305000D02*
X94250000Y-135000000D01*
X138460000Y-110000000D02*
X141000000Y-110000000D01*
X135450000Y-110000000D02*
X138460000Y-110000000D01*
X137000000Y-112550000D02*
X139001780Y-112550000D01*
X139000000Y-112500000D02*
X139001780Y-112500000D01*
X139000000Y-112548220D02*
X139000000Y-112500000D01*
X139001780Y-112550000D02*
X139000000Y-112548220D01*
X139001780Y-114000000D02*
X139001780Y-112500000D01*
X139001780Y-112500000D02*
X139001780Y-110541780D01*
X139001780Y-110541780D02*
X138460000Y-110000000D01*
X143000000Y-112550000D02*
X143000000Y-112000000D01*
X143000000Y-112000000D02*
X141000000Y-110000000D01*
X144000000Y-114000000D02*
X143000000Y-113000000D01*
X147000000Y-114000000D02*
X144000000Y-114000000D01*
X143000000Y-113000000D02*
X143000000Y-112550000D01*
X141000760Y-113050000D02*
X141000760Y-110000760D01*
X141000760Y-110000760D02*
X141000000Y-110000000D01*
X143000000Y-112550000D02*
X141950000Y-112550000D01*
X141450000Y-113050000D02*
X141000760Y-113050000D01*
X141950000Y-112550000D02*
X141450000Y-113050000D01*
X147460000Y-107000000D02*
X150000000Y-107000000D01*
X144450000Y-107000000D02*
X147460000Y-107000000D01*
X146000000Y-109550000D02*
X148001780Y-109550000D01*
X148000000Y-109500000D02*
X148001780Y-109500000D01*
X148000000Y-109548220D02*
X148000000Y-109500000D01*
X148001780Y-109550000D02*
X148000000Y-109548220D01*
X148001780Y-111000000D02*
X148001780Y-109500000D01*
X148001780Y-109500000D02*
X148001780Y-107541780D01*
X148001780Y-107541780D02*
X147460000Y-107000000D01*
X152000000Y-109550000D02*
X152000000Y-109000000D01*
X152000000Y-109000000D02*
X150000000Y-107000000D01*
X149000000Y-109000000D02*
X150000000Y-108000000D01*
X149000000Y-114000000D02*
X149000000Y-109000000D01*
X150000000Y-108000000D02*
X150000000Y-107000000D01*
X150000760Y-110050000D02*
X150000760Y-107000760D01*
X150000760Y-107000760D02*
X150000000Y-107000000D01*
X150000760Y-110050000D02*
X150450000Y-110050000D01*
X150950000Y-109550000D02*
X152000000Y-109550000D01*
X150450000Y-110050000D02*
X150950000Y-109550000D01*
X94825000Y-133300000D02*
X94825000Y-132275000D01*
X94825000Y-132275000D02*
X94000000Y-131450000D01*
X110750000Y-138500000D02*
X115250000Y-138500000D01*
X101175000Y-133300000D02*
X101175000Y-134675000D01*
X101175000Y-134675000D02*
X101500000Y-135000000D01*
X103500000Y-135000000D02*
X101500000Y-135000000D01*
X149000000Y-133250000D02*
X149000000Y-132450000D01*
X100000000Y-128500000D02*
X100000000Y-127750000D01*
X99500000Y-127250000D02*
X100000000Y-127750000D01*
X98790000Y-127250000D02*
X99500000Y-127250000D01*
X98790000Y-127250000D02*
X97040000Y-125500000D01*
X98660000Y-128500000D02*
X98660000Y-128160000D01*
X98660000Y-128160000D02*
X97750000Y-127250000D01*
X97750000Y-127250000D02*
X97250000Y-127250000D01*
X97340000Y-128500000D02*
X97340000Y-129910000D01*
X97340000Y-129910000D02*
X97000000Y-130250000D01*
X96000000Y-128500000D02*
X96000000Y-129750000D01*
X96250000Y-136500000D02*
X97000000Y-135750000D01*
X93250000Y-136500000D02*
X96250000Y-136500000D01*
X92500000Y-135750000D02*
X93250000Y-136500000D01*
X92500000Y-130750000D02*
X92500000Y-135750000D01*
X93250000Y-130000000D02*
X92500000Y-130750000D01*
X95750000Y-130000000D02*
X93250000Y-130000000D01*
X96000000Y-129750000D02*
X95750000Y-130000000D01*
X92500000Y-148750000D02*
X92500000Y-149250000D01*
X97750000Y-148750000D02*
X96000000Y-148750000D01*
X98500000Y-149500000D02*
X97750000Y-148750000D01*
X98500000Y-151000000D02*
X98500000Y-149500000D01*
X97750000Y-151750000D02*
X98500000Y-151000000D01*
X95000000Y-151750000D02*
X97750000Y-151750000D01*
X92500000Y-149250000D02*
X95000000Y-151750000D01*
X92500000Y-148750000D02*
X92500000Y-148750000D01*
X96000000Y-148750000D02*
X96000000Y-148750000D01*
X96000000Y-148500000D02*
X96000000Y-148750000D01*
X96000000Y-143500000D02*
X96000000Y-148500000D01*
X92500000Y-148750000D02*
X92500000Y-143000000D01*
X96750000Y-137250000D02*
X97000000Y-137000000D01*
X93250000Y-137250000D02*
X96750000Y-137250000D01*
X92500000Y-138000000D02*
X93250000Y-137250000D01*
X92500000Y-143000000D02*
X92500000Y-138000000D01*
X97340000Y-143500000D02*
X97340000Y-141840000D01*
X97340000Y-141840000D02*
X97250000Y-141750000D01*
X97500000Y-144750000D02*
X98000000Y-144750000D01*
X98000000Y-144750000D02*
X98660000Y-144090000D01*
X98660000Y-144090000D02*
X98660000Y-143500000D01*
X100000000Y-143500000D02*
X100000000Y-143750000D01*
X100000000Y-143750000D02*
X97500000Y-146250000D01*
X97500000Y-146250000D02*
X97250000Y-146250000D01*
X112620000Y-116220000D02*
X112620000Y-112880000D01*
X120750000Y-106000000D02*
X120001780Y-106000000D01*
X121000000Y-106250000D02*
X120750000Y-106000000D01*
X121000000Y-109750000D02*
X121000000Y-106250000D01*
X120000000Y-110750000D02*
X121000000Y-109750000D01*
X114750000Y-110750000D02*
X120000000Y-110750000D01*
X112620000Y-112880000D02*
X114750000Y-110750000D01*
X112620000Y-116220000D02*
X112780000Y-116220000D01*
X118000000Y-104550000D02*
X120001780Y-104550000D01*
X120000000Y-104500000D02*
X120001780Y-104500000D01*
X120000000Y-104548220D02*
X120000000Y-104500000D01*
X120001780Y-104550000D02*
X120000000Y-104548220D01*
X120001780Y-106000000D02*
X120001780Y-104500000D01*
X120001780Y-104500000D02*
X120001780Y-102541780D01*
X120001780Y-102541780D02*
X119460000Y-102000000D01*
X98001780Y-110000000D02*
X98001780Y-112501780D01*
X98001780Y-112501780D02*
X101720000Y-116220000D01*
X101720000Y-116220000D02*
X105000000Y-116220000D01*
X96000000Y-108550000D02*
X98001780Y-108550000D01*
X98000000Y-108500000D02*
X98001780Y-108500000D01*
X98000000Y-108548220D02*
X98000000Y-108500000D01*
X98001780Y-108550000D02*
X98000000Y-108548220D01*
X98001780Y-110000000D02*
X98001780Y-108500000D01*
X98001780Y-108500000D02*
X98001780Y-106541780D01*
X98001780Y-106541780D02*
X97460000Y-106000000D01*
X126250000Y-108250000D02*
X126250000Y-97250000D01*
X107500000Y-127000000D02*
X126250000Y-108250000D01*
X124500000Y-95500000D02*
X126250000Y-97250000D01*
X108250000Y-152750000D02*
X109679000Y-152750000D01*
X109679000Y-152750000D02*
X109794000Y-152635000D01*
X108250000Y-153250000D02*
X108250000Y-152750000D01*
X108250000Y-152750000D02*
X108250000Y-152000000D01*
X107500000Y-150500000D02*
X107500000Y-127000000D01*
X129500000Y-158500000D02*
X129500000Y-159750000D01*
X129500000Y-159750000D02*
X128000000Y-161250000D01*
X128000000Y-161250000D02*
X110750000Y-161250000D01*
X110750000Y-161250000D02*
X110080000Y-160580000D01*
X110080000Y-160580000D02*
X110080000Y-159400000D01*
X110080000Y-159400000D02*
X110080000Y-156830000D01*
X108250000Y-155000000D02*
X108250000Y-153250000D01*
X110080000Y-156830000D02*
X108250000Y-155000000D01*
X109794000Y-152635000D02*
X113635000Y-152635000D01*
X113635000Y-152635000D02*
X114000000Y-153000000D01*
X127375000Y-108875000D02*
X127375000Y-97625000D01*
X127375000Y-97625000D02*
X129500000Y-95500000D01*
X108250000Y-128000000D02*
X127375000Y-108875000D01*
X108250000Y-151250000D02*
X108250000Y-128000000D01*
X107540000Y-152000000D02*
X107540000Y-151710000D01*
X108000000Y-151250000D02*
X107540000Y-151710000D01*
X108000000Y-151250000D02*
X108250000Y-151250000D01*
X108250000Y-151250000D02*
X109679000Y-151250000D01*
X111750000Y-151365000D02*
X113115000Y-150000000D01*
X113115000Y-150000000D02*
X113550000Y-150000000D01*
X109679000Y-151250000D02*
X109794000Y-151365000D01*
X107540000Y-152210000D02*
X107540000Y-152000000D01*
X107540000Y-159400000D02*
X107540000Y-152210000D01*
X109794000Y-151365000D02*
X111750000Y-151365000D01*
X106500000Y-126250000D02*
X123750000Y-109000000D01*
X106095000Y-153905000D02*
X106500000Y-153500000D01*
X104206000Y-153905000D02*
X106095000Y-153905000D01*
X106500000Y-153500000D02*
X106500000Y-126250000D01*
X124000000Y-102000000D02*
X122000000Y-102000000D01*
X125000000Y-103000000D02*
X124000000Y-102000000D01*
X124000000Y-104550000D02*
X124000000Y-104000000D01*
X124000000Y-104000000D02*
X122000000Y-102000000D01*
X122000760Y-105050000D02*
X122000760Y-102000760D01*
X122000760Y-102000760D02*
X122000000Y-102000000D01*
X122000760Y-105050000D02*
X122450000Y-105050000D01*
X122950000Y-104550000D02*
X124000000Y-104550000D01*
X122450000Y-105050000D02*
X122950000Y-104550000D01*
X145380000Y-104000000D02*
X145380000Y-98630000D01*
X145380000Y-98630000D02*
X143250000Y-96500000D01*
X143250000Y-96500000D02*
X138250000Y-96500000D01*
X106250000Y-101750000D02*
X114750000Y-101750000D01*
X114750000Y-101750000D02*
X117500000Y-99000000D01*
X103000000Y-106000000D02*
X104250000Y-106000000D01*
X104250000Y-107250000D02*
X104250000Y-106000000D01*
X104250000Y-106000000D02*
X104250000Y-103750000D01*
X104250000Y-113500000D02*
X103000000Y-114750000D01*
X104250000Y-107250000D02*
X104250000Y-113500000D01*
X104206000Y-150095000D02*
X104250000Y-150051000D01*
X104250000Y-150051000D02*
X104250000Y-120250000D01*
X121000000Y-99000000D02*
X117500000Y-99000000D01*
X106250000Y-101750000D02*
X104250000Y-103750000D01*
X103000000Y-106000000D02*
X100000000Y-106000000D01*
X102000000Y-108550000D02*
X102000000Y-108000000D01*
X102000000Y-108000000D02*
X100000000Y-106000000D01*
X100000760Y-109050000D02*
X100000760Y-106000760D01*
X100000760Y-106000760D02*
X100000000Y-106000000D01*
X100000760Y-109050000D02*
X100450000Y-109050000D01*
X100950000Y-108550000D02*
X102000000Y-108550000D01*
X100450000Y-109050000D02*
X100950000Y-108550000D01*
X96750000Y-110000000D02*
X96000000Y-110750000D01*
X96000000Y-110750000D02*
X96000000Y-111450000D01*
X107000000Y-109450000D02*
X106950000Y-109500000D01*
X106950000Y-109500000D02*
X105500000Y-109500000D01*
X118000000Y-107450000D02*
X117200000Y-107450000D01*
X117200000Y-107450000D02*
X116000000Y-106250000D01*
X119950000Y-107450000D02*
X118000000Y-107450000D01*
X120000000Y-107500000D02*
X119950000Y-107450000D01*
D36*
X127000000Y-152500000D02*
X126790000Y-152290000D01*
X126790000Y-152290000D02*
X126790000Y-152000000D01*
D34*
X126790000Y-152000000D02*
X136000000Y-152000000D01*
X136000000Y-152000000D02*
X137000000Y-151000000D01*
X137000000Y-151000000D02*
X137000000Y-147000000D01*
D36*
X137000000Y-143500000D02*
X137000000Y-141750000D01*
X137000000Y-137250000D02*
X137000000Y-115450000D01*
X136250000Y-138000000D02*
X137000000Y-137250000D01*
X136250000Y-141000000D02*
X136250000Y-138000000D01*
X137000000Y-141750000D02*
X136250000Y-141000000D01*
X137000000Y-115450000D02*
X137000000Y-114000000D01*
X146000000Y-111000000D02*
X146000000Y-112450000D01*
D34*
X137000000Y-143500000D02*
X137000000Y-147000000D01*
X134500000Y-147000000D02*
X137000000Y-147000000D01*
X137000000Y-147000000D02*
X138500000Y-147000000D01*
X138500000Y-147000000D02*
X140000000Y-145500000D01*
D35*
X110750000Y-137250000D02*
X115500000Y-137250000D01*
X113000000Y-106550000D02*
X114550000Y-106550000D01*
X114550000Y-106550000D02*
X116000000Y-108000000D01*
X116000000Y-115000000D02*
X105750000Y-125250000D01*
X116000000Y-114250000D02*
X116000000Y-115000000D01*
X116000000Y-108000000D02*
X116000000Y-108000000D01*
X105750000Y-151750000D02*
X105750000Y-137250000D01*
X105750000Y-137250000D02*
X105750000Y-125250000D01*
X104865000Y-152635000D02*
X105750000Y-151750000D01*
X104206000Y-152635000D02*
X104865000Y-152635000D01*
X113000000Y-106550000D02*
X113000000Y-106000000D01*
X113000000Y-106000000D02*
X111000000Y-104000000D01*
X111000760Y-107050000D02*
X111000760Y-104000760D01*
X111000760Y-104000760D02*
X111000000Y-104000000D01*
X111000760Y-107050000D02*
X111450000Y-107050000D01*
X111450000Y-107050000D02*
X111950000Y-106550000D01*
X111950000Y-106550000D02*
X113000000Y-106550000D01*
X104206000Y-151365000D02*
X104206000Y-152635000D01*
X160040000Y-151310000D02*
X160040000Y-143690000D01*
X153000000Y-133250000D02*
X153000000Y-132450000D01*
X148000000Y-145750000D02*
X147500000Y-145250000D01*
X147500000Y-145250000D02*
X147500000Y-131250000D01*
X138750000Y-149250000D02*
X145500000Y-149250000D01*
X94825000Y-149000000D02*
X95575000Y-149750000D01*
X95575000Y-149750000D02*
X97250000Y-149750000D01*
X123750000Y-149250000D02*
X135000000Y-149250000D01*
X149000000Y-121500000D02*
X148950000Y-121550000D01*
X148950000Y-121550000D02*
X147000000Y-121550000D01*
X94825000Y-138700000D02*
X94825000Y-149000000D01*
X143000000Y-121500000D02*
X146950000Y-121500000D01*
X146950000Y-121500000D02*
X147000000Y-121550000D01*
X150540000Y-145810000D02*
X148500000Y-143770000D01*
X148500000Y-140230000D02*
X150540000Y-138190000D01*
X148500000Y-143770000D02*
X148500000Y-140230000D01*
X138750000Y-150750000D02*
X146500000Y-150750000D01*
X93555000Y-149000000D02*
X95305000Y-150750000D01*
X95305000Y-150750000D02*
X97250000Y-150750000D01*
X93555000Y-148750000D02*
X93555000Y-138700000D01*
X93555000Y-148750000D02*
X93555000Y-149000000D01*
X129500000Y-150750000D02*
X135000000Y-150750000D01*
X150500000Y-123000000D02*
X151000000Y-123000000D01*
X150540000Y-138190000D02*
X151000000Y-137730000D01*
X151000000Y-137730000D02*
X151000000Y-131250000D01*
X151000000Y-123000000D02*
X151000000Y-122500000D01*
X151000000Y-121550000D02*
X151000000Y-122500000D01*
X150500000Y-123000000D02*
X145000000Y-123000000D01*
X109000000Y-116220000D02*
X109000000Y-108001780D01*
X109000000Y-108001780D02*
X109001780Y-108000000D01*
X107000000Y-106550000D02*
X109001780Y-106550000D01*
X109000000Y-106500000D02*
X109001780Y-106500000D01*
X109000000Y-106548220D02*
X109000000Y-106500000D01*
X109001780Y-106550000D02*
X109000000Y-106548220D01*
X109001780Y-108000000D02*
X109001780Y-106500000D01*
X109001780Y-106500000D02*
X109001780Y-104541780D01*
X109001780Y-104541780D02*
X108460000Y-104000000D01*
X107540000Y-116220000D02*
X109000000Y-116220000D01*
X109000000Y-116220000D02*
X110080000Y-116220000D01*
D34*
X139800000Y-139500000D02*
X139800000Y-142760000D01*
X139800000Y-142760000D02*
X140000000Y-142960000D01*
X137700000Y-139500000D02*
X139800000Y-139500000D01*
D35*
X145000000Y-125500000D02*
X145000000Y-127550000D01*
X141000000Y-121500000D02*
X145000000Y-125500000D01*
X98635000Y-133300000D02*
X98635000Y-131525000D01*
X98635000Y-131525000D02*
X98660000Y-131500000D01*
X99905000Y-133300000D02*
X99905000Y-131595000D01*
X99905000Y-131595000D02*
X100000000Y-131500000D01*
X96095000Y-133300000D02*
X96095000Y-131595000D01*
X96095000Y-131595000D02*
X96000000Y-131500000D01*
X97365000Y-133300000D02*
X97365000Y-131525000D01*
X97365000Y-131525000D02*
X97340000Y-131500000D01*
X97365000Y-138700000D02*
X97365000Y-140475000D01*
X97365000Y-140475000D02*
X97340000Y-140500000D01*
X96095000Y-138700000D02*
X96095000Y-140405000D01*
X96095000Y-140405000D02*
X96000000Y-140500000D01*
X99905000Y-138700000D02*
X99905000Y-140405000D01*
X99905000Y-140405000D02*
X100000000Y-140500000D01*
X98635000Y-138700000D02*
X98635000Y-140475000D01*
X98635000Y-140475000D02*
X98660000Y-140500000D01*
X140750000Y-130000000D02*
X140750000Y-127500000D01*
X142000000Y-131000000D02*
X142000000Y-126500000D01*
X134000000Y-129000000D02*
X134000000Y-129500000D01*
X133500000Y-110000000D02*
X132550000Y-110000000D01*
X134000000Y-110500000D02*
X133500000Y-110000000D01*
X134000000Y-129000000D02*
X134000000Y-110500000D01*
X135000000Y-124500000D02*
X135000000Y-112000000D01*
X135000000Y-107000000D02*
X141550000Y-107000000D01*
X116450000Y-150000000D02*
X116450000Y-152910000D01*
X116450000Y-152910000D02*
X116540000Y-153000000D01*
D37*
G36*
X132686334Y-93354422D02*
X132382400Y-94136400D01*
X132382400Y-95127000D01*
X134127000Y-95127000D01*
X134127000Y-95107000D01*
X134873000Y-95107000D01*
X134873000Y-95127000D01*
X136617600Y-95127000D01*
X136617600Y-94136400D01*
X136313666Y-93354422D01*
X136143882Y-93177000D01*
X160823000Y-93177000D01*
X160823000Y-109884077D01*
X160739049Y-110306125D01*
X160565645Y-110565644D01*
X160306125Y-110739049D01*
X159770379Y-110845616D01*
X157856962Y-111226218D01*
X157432677Y-111401962D01*
X155810560Y-112485826D01*
X155485827Y-112810559D01*
X154927000Y-113646902D01*
X154927000Y-113091082D01*
X156509041Y-111509042D01*
X156818376Y-111046090D01*
X156846103Y-110906697D01*
X156927000Y-110500000D01*
X156927000Y-103000000D01*
X156818376Y-102453911D01*
X156781050Y-102398049D01*
X156509042Y-101990959D01*
X155509041Y-100990959D01*
X155046089Y-100681624D01*
X154500000Y-100573000D01*
X149000000Y-100573000D01*
X148453911Y-100681624D01*
X147990959Y-100990958D01*
X146910959Y-102070959D01*
X146837563Y-102180804D01*
X146650000Y-102306130D01*
X146632000Y-102294102D01*
X146632000Y-98630005D01*
X146632001Y-98630000D01*
X146545020Y-98192725D01*
X146536697Y-98150880D01*
X146265298Y-97744702D01*
X145040846Y-96520250D01*
X155372545Y-96520250D01*
X155771639Y-97486132D01*
X156509981Y-98225764D01*
X157475165Y-98626543D01*
X158520250Y-98627455D01*
X159486132Y-98228361D01*
X160225764Y-97490019D01*
X160626543Y-96524835D01*
X160627455Y-95479750D01*
X160228361Y-94513868D01*
X159490019Y-93774236D01*
X158524835Y-93373457D01*
X157479750Y-93372545D01*
X156513868Y-93771639D01*
X155774236Y-94509981D01*
X155373457Y-95475165D01*
X155372545Y-96520250D01*
X145040846Y-96520250D01*
X144135298Y-95614702D01*
X143729120Y-95343303D01*
X143250000Y-95248000D01*
X138955943Y-95248000D01*
X138535093Y-95073248D01*
X137967397Y-95072752D01*
X137442725Y-95289543D01*
X137040953Y-95690614D01*
X136823248Y-96214907D01*
X136822752Y-96782603D01*
X137039543Y-97307275D01*
X137440614Y-97709047D01*
X137964907Y-97926752D01*
X138532603Y-97927248D01*
X138956734Y-97752000D01*
X142731404Y-97752000D01*
X144128000Y-99148596D01*
X144128000Y-102294102D01*
X144110000Y-102306130D01*
X143601770Y-101966541D01*
X142840000Y-101815016D01*
X142078230Y-101966541D01*
X141570000Y-102306130D01*
X141061770Y-101966541D01*
X140300000Y-101815016D01*
X139538230Y-101966541D01*
X138892433Y-102398049D01*
X138460925Y-103043846D01*
X138309400Y-103805616D01*
X138309400Y-104194384D01*
X138460925Y-104956154D01*
X138892433Y-105601951D01*
X139111011Y-105748000D01*
X135705943Y-105748000D01*
X135285093Y-105573248D01*
X134717397Y-105572752D01*
X134192725Y-105789543D01*
X133790953Y-106190614D01*
X133573248Y-106714907D01*
X133572752Y-107282603D01*
X133789543Y-107807275D01*
X134190614Y-108209047D01*
X134306357Y-108257108D01*
X134198781Y-108326331D01*
X133998160Y-108619949D01*
X133823669Y-108348781D01*
X133447056Y-108091452D01*
X133000000Y-108000921D01*
X132100000Y-108000921D01*
X131682359Y-108079506D01*
X131298781Y-108326331D01*
X131041452Y-108702944D01*
X130950921Y-109150000D01*
X130950921Y-110850000D01*
X131029506Y-111267641D01*
X131276331Y-111651219D01*
X131652944Y-111908548D01*
X132100000Y-111999079D01*
X132748000Y-111999079D01*
X132748000Y-128794057D01*
X132573248Y-129214907D01*
X132572752Y-129782603D01*
X132789543Y-130307275D01*
X133190614Y-130709047D01*
X133714907Y-130926752D01*
X134282603Y-130927248D01*
X134807275Y-130710457D01*
X135209047Y-130309386D01*
X135426752Y-129785093D01*
X135427248Y-129217397D01*
X135252000Y-128793266D01*
X135252000Y-125927221D01*
X135282603Y-125927248D01*
X135573000Y-125807258D01*
X135573000Y-136658918D01*
X135240959Y-136990959D01*
X134931624Y-137453911D01*
X134823000Y-138000000D01*
X134823000Y-141000000D01*
X134922125Y-141498335D01*
X134931624Y-141546089D01*
X135051784Y-141725921D01*
X134500000Y-141725921D01*
X134082359Y-141804506D01*
X133898214Y-141923000D01*
X132920000Y-141923000D01*
X132783633Y-141950125D01*
X132773772Y-141943536D01*
X131960000Y-141781667D01*
X131146228Y-141943536D01*
X130456345Y-142404502D01*
X129995379Y-143094385D01*
X129833510Y-143908157D01*
X129833510Y-145011843D01*
X129850455Y-145097033D01*
X129793000Y-145144124D01*
X129793000Y-146627000D01*
X129813000Y-146627000D01*
X129813000Y-147373000D01*
X129793000Y-147373000D01*
X129793000Y-147393000D01*
X129047000Y-147393000D01*
X129047000Y-147373000D01*
X127112983Y-147373000D01*
X126910224Y-147695907D01*
X127071780Y-147998000D01*
X124455943Y-147998000D01*
X124035093Y-147823248D01*
X123467397Y-147822752D01*
X122942725Y-148039543D01*
X122540953Y-148440614D01*
X122323248Y-148964907D01*
X122322891Y-149373000D01*
X121525826Y-149373000D01*
X121111606Y-149544576D01*
X120794575Y-149861606D01*
X120623000Y-150275826D01*
X120623000Y-151345250D01*
X120904750Y-151627000D01*
X122877000Y-151627000D01*
X122877000Y-151607000D01*
X123623000Y-151607000D01*
X123623000Y-151627000D01*
X123643000Y-151627000D01*
X123643000Y-152373000D01*
X123623000Y-152373000D01*
X123623000Y-154345250D01*
X123904750Y-154627000D01*
X124974174Y-154627000D01*
X125042077Y-154598873D01*
X125290000Y-154649079D01*
X128290000Y-154649079D01*
X128707641Y-154570494D01*
X129091219Y-154323669D01*
X129348548Y-153947056D01*
X129398577Y-153700000D01*
X139850921Y-153700000D01*
X139850921Y-155700000D01*
X139929506Y-156117641D01*
X140176331Y-156501219D01*
X140552944Y-156758548D01*
X140976010Y-156844221D01*
X140955825Y-156928324D01*
X142000000Y-157972498D01*
X143044175Y-156928324D01*
X143024069Y-156844550D01*
X143417641Y-156770494D01*
X143801219Y-156523669D01*
X144058548Y-156147056D01*
X144149079Y-155700000D01*
X144149079Y-153700000D01*
X144070494Y-153282359D01*
X143823669Y-152898781D01*
X143447056Y-152641452D01*
X143000000Y-152550921D01*
X141000000Y-152550921D01*
X140582359Y-152629506D01*
X140198781Y-152876331D01*
X139941452Y-153252944D01*
X139850921Y-153700000D01*
X129398577Y-153700000D01*
X129423486Y-153577000D01*
X136000000Y-153577000D01*
X136603492Y-153456958D01*
X137115107Y-153115107D01*
X138115108Y-152115107D01*
X138158837Y-152049661D01*
X138464907Y-152176752D01*
X139032603Y-152177248D01*
X139456734Y-152002000D01*
X145794057Y-152002000D01*
X146214907Y-152176752D01*
X146782603Y-152177248D01*
X147307275Y-151960457D01*
X147709047Y-151559386D01*
X147926752Y-151035093D01*
X147927213Y-150507428D01*
X149844893Y-152425108D01*
X150132082Y-152617001D01*
X150356508Y-152766958D01*
X150960000Y-152887000D01*
X153528840Y-152887000D01*
X153753578Y-153112131D01*
X154535057Y-153436630D01*
X155381230Y-153437368D01*
X156163274Y-153114234D01*
X156762131Y-152516422D01*
X157086630Y-151734943D01*
X157087368Y-150888770D01*
X156764234Y-150106726D01*
X156166422Y-149507869D01*
X155384943Y-149183370D01*
X154538770Y-149182632D01*
X153756726Y-149505766D01*
X153529095Y-149733000D01*
X151613215Y-149733000D01*
X149605086Y-147724871D01*
X150115057Y-147936630D01*
X150961230Y-147937368D01*
X151743274Y-147614234D01*
X152342131Y-147016422D01*
X152666630Y-146234943D01*
X152667368Y-145388770D01*
X152344234Y-144606726D01*
X151849603Y-144111230D01*
X152832632Y-144111230D01*
X153155766Y-144893274D01*
X153753578Y-145492131D01*
X154535057Y-145816630D01*
X155381230Y-145817368D01*
X156163274Y-145494234D01*
X156762131Y-144896422D01*
X157086630Y-144114943D01*
X157087368Y-143268770D01*
X156764234Y-142486726D01*
X156166422Y-141887869D01*
X155384943Y-141563370D01*
X154538770Y-141562632D01*
X153756726Y-141885766D01*
X153157869Y-142483578D01*
X152833370Y-143265057D01*
X152832632Y-144111230D01*
X151849603Y-144111230D01*
X151746422Y-144007869D01*
X150964943Y-143683370D01*
X150183284Y-143682688D01*
X149752000Y-143251404D01*
X149752000Y-140748596D01*
X150183906Y-140316690D01*
X150961230Y-140317368D01*
X151743274Y-139994234D01*
X152342131Y-139396422D01*
X152666630Y-138614943D01*
X152667368Y-137768770D01*
X152344234Y-136986726D01*
X152252000Y-136894331D01*
X152252000Y-134484537D01*
X152714907Y-134676752D01*
X153282603Y-134677248D01*
X153807275Y-134460457D01*
X153823000Y-134444759D01*
X153823000Y-137000000D01*
X153845616Y-137113698D01*
X153845616Y-137229621D01*
X154226218Y-139143038D01*
X154226218Y-139143039D01*
X154401962Y-139567323D01*
X155485827Y-141189441D01*
X155810560Y-141514174D01*
X157432677Y-142598038D01*
X157856962Y-142773782D01*
X158097498Y-142821628D01*
X157913370Y-143265057D01*
X157912632Y-144111230D01*
X158235766Y-144893274D01*
X158788000Y-145446473D01*
X158788000Y-149554407D01*
X158237869Y-150103578D01*
X157913370Y-150885057D01*
X157912632Y-151731230D01*
X158235766Y-152513274D01*
X158833578Y-153112131D01*
X159615057Y-153436630D01*
X160461230Y-153437368D01*
X160823000Y-153287888D01*
X160823000Y-160823000D01*
X136148285Y-160823000D01*
X136456407Y-160361863D01*
X136514128Y-160071676D01*
X140955825Y-160071676D01*
X141046047Y-160447589D01*
X141863972Y-160664400D01*
X142702607Y-160551700D01*
X142953953Y-160447589D01*
X143044175Y-160071676D01*
X142000000Y-159027502D01*
X140955825Y-160071676D01*
X136514128Y-160071676D01*
X136617600Y-159551493D01*
X136617600Y-158363972D01*
X139835600Y-158363972D01*
X139948300Y-159202607D01*
X140052411Y-159453953D01*
X140428324Y-159544175D01*
X141472498Y-158500000D01*
X142527502Y-158500000D01*
X143571676Y-159544175D01*
X143947589Y-159453953D01*
X144164400Y-158636028D01*
X144148842Y-158520250D01*
X155372545Y-158520250D01*
X155771639Y-159486132D01*
X156509981Y-160225764D01*
X157475165Y-160626543D01*
X158520250Y-160627455D01*
X159486132Y-160228361D01*
X160225764Y-159490019D01*
X160626543Y-158524835D01*
X160627455Y-157479750D01*
X160228361Y-156513868D01*
X159490019Y-155774236D01*
X158524835Y-155373457D01*
X157479750Y-155372545D01*
X156513868Y-155771639D01*
X155774236Y-156509981D01*
X155373457Y-157475165D01*
X155372545Y-158520250D01*
X144148842Y-158520250D01*
X144051700Y-157797393D01*
X143947589Y-157546047D01*
X143571676Y-157455825D01*
X142527502Y-158500000D01*
X141472498Y-158500000D01*
X140428324Y-157455825D01*
X140052411Y-157546047D01*
X139835600Y-158363972D01*
X136617600Y-158363972D01*
X136617600Y-157448507D01*
X136456407Y-156638137D01*
X135997369Y-155951138D01*
X135310370Y-155492100D01*
X134500000Y-155330907D01*
X133689630Y-155492100D01*
X133002631Y-155951138D01*
X132543593Y-156638137D01*
X132382400Y-157448507D01*
X132382400Y-159551493D01*
X132543593Y-160361863D01*
X132851715Y-160823000D01*
X131148285Y-160823000D01*
X131456407Y-160361863D01*
X131617600Y-159551493D01*
X131617600Y-157448507D01*
X131456407Y-156638137D01*
X130997369Y-155951138D01*
X130310370Y-155492100D01*
X129500000Y-155330907D01*
X128689630Y-155492100D01*
X128002631Y-155951138D01*
X127543593Y-156638137D01*
X127382400Y-157448507D01*
X127382400Y-159551493D01*
X127471216Y-159998000D01*
X126528784Y-159998000D01*
X126617600Y-159551493D01*
X126617600Y-157448507D01*
X126456407Y-156638137D01*
X125997369Y-155951138D01*
X125310370Y-155492100D01*
X124500000Y-155330907D01*
X123689630Y-155492100D01*
X123002631Y-155951138D01*
X122543593Y-156638137D01*
X122382400Y-157448507D01*
X122382400Y-159551493D01*
X122471216Y-159998000D01*
X121565362Y-159998000D01*
X121617600Y-159863600D01*
X121617600Y-158873000D01*
X119873000Y-158873000D01*
X119873000Y-158893000D01*
X119127000Y-158893000D01*
X119127000Y-158873000D01*
X117382400Y-158873000D01*
X117382400Y-159863600D01*
X117434638Y-159998000D01*
X114506543Y-159998000D01*
X114547000Y-159794609D01*
X114547000Y-159005391D01*
X114400316Y-158267960D01*
X114047000Y-157739185D01*
X114047000Y-157370000D01*
X114000535Y-157136400D01*
X117382400Y-157136400D01*
X117382400Y-158127000D01*
X119127000Y-158127000D01*
X119127000Y-155711842D01*
X119873000Y-155711842D01*
X119873000Y-158127000D01*
X121617600Y-158127000D01*
X121617600Y-157136400D01*
X121313666Y-156354422D01*
X120733618Y-155748280D01*
X120194494Y-155508923D01*
X119873000Y-155711842D01*
X119127000Y-155711842D01*
X118805506Y-155508923D01*
X118266382Y-155748280D01*
X117686334Y-156354422D01*
X117382400Y-157136400D01*
X114000535Y-157136400D01*
X113938376Y-156823911D01*
X113814246Y-156638137D01*
X113629042Y-156360959D01*
X111607666Y-154339584D01*
X111694110Y-153905000D01*
X111690530Y-153887000D01*
X111834921Y-153887000D01*
X111834921Y-154016000D01*
X111913506Y-154433641D01*
X112160331Y-154817219D01*
X112536944Y-155074548D01*
X112984000Y-155165079D01*
X115016000Y-155165079D01*
X115279324Y-155115531D01*
X115524000Y-155165079D01*
X117556000Y-155165079D01*
X117973641Y-155086494D01*
X118357219Y-154839669D01*
X118614548Y-154463056D01*
X118705079Y-154016000D01*
X118705079Y-152654750D01*
X120623000Y-152654750D01*
X120623000Y-153724174D01*
X120794575Y-154138394D01*
X121111606Y-154455424D01*
X121525826Y-154627000D01*
X122595250Y-154627000D01*
X122877000Y-154345250D01*
X122877000Y-152373000D01*
X120904750Y-152373000D01*
X120623000Y-152654750D01*
X118705079Y-152654750D01*
X118705079Y-151984000D01*
X118626494Y-151566359D01*
X118379669Y-151182781D01*
X118030063Y-150943905D01*
X118049079Y-150850000D01*
X118049079Y-149150000D01*
X117970494Y-148732359D01*
X117723669Y-148348781D01*
X117614339Y-148274079D01*
X118500000Y-148274079D01*
X118917641Y-148195494D01*
X119301219Y-147948669D01*
X119315985Y-147927059D01*
X119532603Y-147927248D01*
X120057275Y-147710457D01*
X120459047Y-147309386D01*
X120676752Y-146785093D01*
X120677172Y-146304093D01*
X126910224Y-146304093D01*
X127112983Y-146627000D01*
X129047000Y-146627000D01*
X129047000Y-145144124D01*
X128711033Y-144868765D01*
X127911322Y-145110818D01*
X127265115Y-145640482D01*
X126910224Y-146304093D01*
X120677172Y-146304093D01*
X120677248Y-146217397D01*
X120472757Y-145722493D01*
X120532000Y-145663250D01*
X120532000Y-144175000D01*
X120393000Y-144175000D01*
X120393000Y-143429000D01*
X120532000Y-143429000D01*
X120532000Y-143409000D01*
X121040000Y-143409000D01*
X121040000Y-143429000D01*
X121179000Y-143429000D01*
X121179000Y-144175000D01*
X121040000Y-144175000D01*
X121040000Y-145663250D01*
X121321750Y-145945000D01*
X121518174Y-145945000D01*
X121932394Y-145773425D01*
X122249424Y-145456394D01*
X122421000Y-145042174D01*
X122421000Y-144604290D01*
X122475826Y-144627000D01*
X122845250Y-144627000D01*
X123127000Y-144345250D01*
X123127000Y-143250000D01*
X123107000Y-143250000D01*
X123107000Y-143077000D01*
X123893000Y-143077000D01*
X123893000Y-143250000D01*
X123873000Y-143250000D01*
X123873000Y-144345250D01*
X124154750Y-144627000D01*
X124524174Y-144627000D01*
X124728973Y-144542169D01*
X124752944Y-144558548D01*
X125200000Y-144649079D01*
X126800000Y-144649079D01*
X127217641Y-144570494D01*
X127601219Y-144323669D01*
X127858548Y-143947056D01*
X127949079Y-143500000D01*
X127949079Y-142566871D01*
X128000000Y-142577000D01*
X128603492Y-142456958D01*
X129115107Y-142115107D01*
X129456958Y-141603492D01*
X129577000Y-141000000D01*
X129577000Y-140653214D01*
X130075464Y-140154750D01*
X133223000Y-140154750D01*
X133223000Y-140574174D01*
X133394576Y-140988394D01*
X133711606Y-141305425D01*
X134125826Y-141477000D01*
X134293250Y-141477000D01*
X134575000Y-141195250D01*
X134575000Y-139873000D01*
X133504750Y-139873000D01*
X133223000Y-140154750D01*
X130075464Y-140154750D01*
X130115108Y-140115107D01*
X130357728Y-139752000D01*
X130456958Y-139603492D01*
X130577000Y-139000000D01*
X130577000Y-138425826D01*
X133223000Y-138425826D01*
X133223000Y-138845250D01*
X133504750Y-139127000D01*
X134575000Y-139127000D01*
X134575000Y-137804750D01*
X134293250Y-137523000D01*
X134125826Y-137523000D01*
X133711606Y-137694575D01*
X133394576Y-138011606D01*
X133223000Y-138425826D01*
X130577000Y-138425826D01*
X130577000Y-136513070D01*
X130861863Y-136456407D01*
X131548862Y-135997369D01*
X132007900Y-135310370D01*
X132169093Y-134500000D01*
X132007900Y-133689630D01*
X131548862Y-133002631D01*
X130861863Y-132543593D01*
X130051493Y-132382400D01*
X127948507Y-132382400D01*
X127138137Y-132543593D01*
X126451138Y-133002631D01*
X125992100Y-133689630D01*
X125830907Y-134500000D01*
X125992100Y-135310370D01*
X126451138Y-135997369D01*
X127138137Y-136456407D01*
X127423000Y-136513070D01*
X127423000Y-138346785D01*
X127346786Y-138423000D01*
X127155937Y-138423000D01*
X126800000Y-138350921D01*
X125200000Y-138350921D01*
X124816935Y-138423000D01*
X124655937Y-138423000D01*
X124300000Y-138350921D01*
X122700000Y-138350921D01*
X122316935Y-138423000D01*
X121435555Y-138423000D01*
X121477879Y-138214000D01*
X121477879Y-136182000D01*
X121399294Y-135764359D01*
X121152469Y-135380781D01*
X120775856Y-135123452D01*
X120328800Y-135032921D01*
X120077000Y-135032921D01*
X120077000Y-132703959D01*
X120181859Y-132683101D01*
X120839605Y-132243610D01*
X121279096Y-131585864D01*
X121433425Y-130810000D01*
X121279096Y-130034136D01*
X120948926Y-129540000D01*
X120975653Y-129500000D01*
X125830907Y-129500000D01*
X125992100Y-130310370D01*
X126451138Y-130997369D01*
X127138137Y-131456407D01*
X127948507Y-131617600D01*
X130051493Y-131617600D01*
X130861863Y-131456407D01*
X131548862Y-130997369D01*
X132007900Y-130310370D01*
X132169093Y-129500000D01*
X132007900Y-128689630D01*
X131548862Y-128002631D01*
X130861863Y-127543593D01*
X130051493Y-127382400D01*
X127948507Y-127382400D01*
X127138137Y-127543593D01*
X126451138Y-128002631D01*
X125992100Y-128689630D01*
X125830907Y-129500000D01*
X120975653Y-129500000D01*
X121279096Y-129045864D01*
X121433425Y-128270000D01*
X121279096Y-127494136D01*
X120948926Y-127000000D01*
X121279096Y-126505864D01*
X121433425Y-125730000D01*
X121279096Y-124954136D01*
X120975654Y-124500000D01*
X125830907Y-124500000D01*
X125992100Y-125310370D01*
X126451138Y-125997369D01*
X127138137Y-126456407D01*
X127948507Y-126617600D01*
X130051493Y-126617600D01*
X130861863Y-126456407D01*
X131548862Y-125997369D01*
X132007900Y-125310370D01*
X132169093Y-124500000D01*
X132007900Y-123689630D01*
X131548862Y-123002631D01*
X130861863Y-122543593D01*
X130051493Y-122382400D01*
X127948507Y-122382400D01*
X127138137Y-122543593D01*
X126451138Y-123002631D01*
X125992100Y-123689630D01*
X125830907Y-124500000D01*
X120975654Y-124500000D01*
X120948926Y-124460000D01*
X121279096Y-123965864D01*
X121433425Y-123190000D01*
X121279096Y-122414136D01*
X120839605Y-121756390D01*
X120181859Y-121316899D01*
X119405995Y-121162570D01*
X117594005Y-121162570D01*
X116818141Y-121316899D01*
X116473245Y-121547351D01*
X117826101Y-120194494D01*
X126008923Y-120194494D01*
X126248280Y-120733618D01*
X126854422Y-121313666D01*
X127636400Y-121617600D01*
X128627000Y-121617600D01*
X128627000Y-119873000D01*
X129373000Y-119873000D01*
X129373000Y-121617600D01*
X130363600Y-121617600D01*
X131145578Y-121313666D01*
X131751720Y-120733618D01*
X131991077Y-120194494D01*
X131788158Y-119873000D01*
X129373000Y-119873000D01*
X128627000Y-119873000D01*
X126211842Y-119873000D01*
X126008923Y-120194494D01*
X117826101Y-120194494D01*
X119215089Y-118805506D01*
X126008923Y-118805506D01*
X126211842Y-119127000D01*
X128627000Y-119127000D01*
X128627000Y-117382400D01*
X129373000Y-117382400D01*
X129373000Y-119127000D01*
X131788158Y-119127000D01*
X131991077Y-118805506D01*
X131751720Y-118266382D01*
X131145578Y-117686334D01*
X130363600Y-117382400D01*
X129373000Y-117382400D01*
X128627000Y-117382400D01*
X127636400Y-117382400D01*
X126854422Y-117686334D01*
X126248280Y-118266382D01*
X126008923Y-118805506D01*
X119215089Y-118805506D01*
X128260295Y-109760300D01*
X128260298Y-109760298D01*
X128531697Y-109354120D01*
X128627000Y-108875000D01*
X128627000Y-98466052D01*
X128689630Y-98507900D01*
X129500000Y-98669093D01*
X130310370Y-98507900D01*
X130997369Y-98048862D01*
X131456407Y-97361863D01*
X131617600Y-96551493D01*
X131617600Y-95873000D01*
X132382400Y-95873000D01*
X132382400Y-96863600D01*
X132686334Y-97645578D01*
X133266382Y-98251720D01*
X133805506Y-98491077D01*
X134127000Y-98288158D01*
X134127000Y-95873000D01*
X134873000Y-95873000D01*
X134873000Y-98288158D01*
X135194494Y-98491077D01*
X135733618Y-98251720D01*
X136313666Y-97645578D01*
X136617600Y-96863600D01*
X136617600Y-95873000D01*
X134873000Y-95873000D01*
X134127000Y-95873000D01*
X132382400Y-95873000D01*
X131617600Y-95873000D01*
X131617600Y-94448507D01*
X131456407Y-93638137D01*
X131148285Y-93177000D01*
X132856118Y-93177000D01*
X132686334Y-93354422D01*
X132686334Y-93354422D01*
G37*
X132686334Y-93354422D02*
X132382400Y-94136400D01*
X132382400Y-95127000D01*
X134127000Y-95127000D01*
X134127000Y-95107000D01*
X134873000Y-95107000D01*
X134873000Y-95127000D01*
X136617600Y-95127000D01*
X136617600Y-94136400D01*
X136313666Y-93354422D01*
X136143882Y-93177000D01*
X160823000Y-93177000D01*
X160823000Y-109884077D01*
X160739049Y-110306125D01*
X160565645Y-110565644D01*
X160306125Y-110739049D01*
X159770379Y-110845616D01*
X157856962Y-111226218D01*
X157432677Y-111401962D01*
X155810560Y-112485826D01*
X155485827Y-112810559D01*
X154927000Y-113646902D01*
X154927000Y-113091082D01*
X156509041Y-111509042D01*
X156818376Y-111046090D01*
X156846103Y-110906697D01*
X156927000Y-110500000D01*
X156927000Y-103000000D01*
X156818376Y-102453911D01*
X156781050Y-102398049D01*
X156509042Y-101990959D01*
X155509041Y-100990959D01*
X155046089Y-100681624D01*
X154500000Y-100573000D01*
X149000000Y-100573000D01*
X148453911Y-100681624D01*
X147990959Y-100990958D01*
X146910959Y-102070959D01*
X146837563Y-102180804D01*
X146650000Y-102306130D01*
X146632000Y-102294102D01*
X146632000Y-98630005D01*
X146632001Y-98630000D01*
X146545020Y-98192725D01*
X146536697Y-98150880D01*
X146265298Y-97744702D01*
X145040846Y-96520250D01*
X155372545Y-96520250D01*
X155771639Y-97486132D01*
X156509981Y-98225764D01*
X157475165Y-98626543D01*
X158520250Y-98627455D01*
X159486132Y-98228361D01*
X160225764Y-97490019D01*
X160626543Y-96524835D01*
X160627455Y-95479750D01*
X160228361Y-94513868D01*
X159490019Y-93774236D01*
X158524835Y-93373457D01*
X157479750Y-93372545D01*
X156513868Y-93771639D01*
X155774236Y-94509981D01*
X155373457Y-95475165D01*
X155372545Y-96520250D01*
X145040846Y-96520250D01*
X144135298Y-95614702D01*
X143729120Y-95343303D01*
X143250000Y-95248000D01*
X138955943Y-95248000D01*
X138535093Y-95073248D01*
X137967397Y-95072752D01*
X137442725Y-95289543D01*
X137040953Y-95690614D01*
X136823248Y-96214907D01*
X136822752Y-96782603D01*
X137039543Y-97307275D01*
X137440614Y-97709047D01*
X137964907Y-97926752D01*
X138532603Y-97927248D01*
X138956734Y-97752000D01*
X142731404Y-97752000D01*
X144128000Y-99148596D01*
X144128000Y-102294102D01*
X144110000Y-102306130D01*
X143601770Y-101966541D01*
X142840000Y-101815016D01*
X142078230Y-101966541D01*
X141570000Y-102306130D01*
X141061770Y-101966541D01*
X140300000Y-101815016D01*
X139538230Y-101966541D01*
X138892433Y-102398049D01*
X138460925Y-103043846D01*
X138309400Y-103805616D01*
X138309400Y-104194384D01*
X138460925Y-104956154D01*
X138892433Y-105601951D01*
X139111011Y-105748000D01*
X135705943Y-105748000D01*
X135285093Y-105573248D01*
X134717397Y-105572752D01*
X134192725Y-105789543D01*
X133790953Y-106190614D01*
X133573248Y-106714907D01*
X133572752Y-107282603D01*
X133789543Y-107807275D01*
X134190614Y-108209047D01*
X134306357Y-108257108D01*
X134198781Y-108326331D01*
X133998160Y-108619949D01*
X133823669Y-108348781D01*
X133447056Y-108091452D01*
X133000000Y-108000921D01*
X132100000Y-108000921D01*
X131682359Y-108079506D01*
X131298781Y-108326331D01*
X131041452Y-108702944D01*
X130950921Y-109150000D01*
X130950921Y-110850000D01*
X131029506Y-111267641D01*
X131276331Y-111651219D01*
X131652944Y-111908548D01*
X132100000Y-111999079D01*
X132748000Y-111999079D01*
X132748000Y-128794057D01*
X132573248Y-129214907D01*
X132572752Y-129782603D01*
X132789543Y-130307275D01*
X133190614Y-130709047D01*
X133714907Y-130926752D01*
X134282603Y-130927248D01*
X134807275Y-130710457D01*
X135209047Y-130309386D01*
X135426752Y-129785093D01*
X135427248Y-129217397D01*
X135252000Y-128793266D01*
X135252000Y-125927221D01*
X135282603Y-125927248D01*
X135573000Y-125807258D01*
X135573000Y-136658918D01*
X135240959Y-136990959D01*
X134931624Y-137453911D01*
X134823000Y-138000000D01*
X134823000Y-141000000D01*
X134922125Y-141498335D01*
X134931624Y-141546089D01*
X135051784Y-141725921D01*
X134500000Y-141725921D01*
X134082359Y-141804506D01*
X133898214Y-141923000D01*
X132920000Y-141923000D01*
X132783633Y-141950125D01*
X132773772Y-141943536D01*
X131960000Y-141781667D01*
X131146228Y-141943536D01*
X130456345Y-142404502D01*
X129995379Y-143094385D01*
X129833510Y-143908157D01*
X129833510Y-145011843D01*
X129850455Y-145097033D01*
X129793000Y-145144124D01*
X129793000Y-146627000D01*
X129813000Y-146627000D01*
X129813000Y-147373000D01*
X129793000Y-147373000D01*
X129793000Y-147393000D01*
X129047000Y-147393000D01*
X129047000Y-147373000D01*
X127112983Y-147373000D01*
X126910224Y-147695907D01*
X127071780Y-147998000D01*
X124455943Y-147998000D01*
X124035093Y-147823248D01*
X123467397Y-147822752D01*
X122942725Y-148039543D01*
X122540953Y-148440614D01*
X122323248Y-148964907D01*
X122322891Y-149373000D01*
X121525826Y-149373000D01*
X121111606Y-149544576D01*
X120794575Y-149861606D01*
X120623000Y-150275826D01*
X120623000Y-151345250D01*
X120904750Y-151627000D01*
X122877000Y-151627000D01*
X122877000Y-151607000D01*
X123623000Y-151607000D01*
X123623000Y-151627000D01*
X123643000Y-151627000D01*
X123643000Y-152373000D01*
X123623000Y-152373000D01*
X123623000Y-154345250D01*
X123904750Y-154627000D01*
X124974174Y-154627000D01*
X125042077Y-154598873D01*
X125290000Y-154649079D01*
X128290000Y-154649079D01*
X128707641Y-154570494D01*
X129091219Y-154323669D01*
X129348548Y-153947056D01*
X129398577Y-153700000D01*
X139850921Y-153700000D01*
X139850921Y-155700000D01*
X139929506Y-156117641D01*
X140176331Y-156501219D01*
X140552944Y-156758548D01*
X140976010Y-156844221D01*
X140955825Y-156928324D01*
X142000000Y-157972498D01*
X143044175Y-156928324D01*
X143024069Y-156844550D01*
X143417641Y-156770494D01*
X143801219Y-156523669D01*
X144058548Y-156147056D01*
X144149079Y-155700000D01*
X144149079Y-153700000D01*
X144070494Y-153282359D01*
X143823669Y-152898781D01*
X143447056Y-152641452D01*
X143000000Y-152550921D01*
X141000000Y-152550921D01*
X140582359Y-152629506D01*
X140198781Y-152876331D01*
X139941452Y-153252944D01*
X139850921Y-153700000D01*
X129398577Y-153700000D01*
X129423486Y-153577000D01*
X136000000Y-153577000D01*
X136603492Y-153456958D01*
X137115107Y-153115107D01*
X138115108Y-152115107D01*
X138158837Y-152049661D01*
X138464907Y-152176752D01*
X139032603Y-152177248D01*
X139456734Y-152002000D01*
X145794057Y-152002000D01*
X146214907Y-152176752D01*
X146782603Y-152177248D01*
X147307275Y-151960457D01*
X147709047Y-151559386D01*
X147926752Y-151035093D01*
X147927213Y-150507428D01*
X149844893Y-152425108D01*
X150132082Y-152617001D01*
X150356508Y-152766958D01*
X150960000Y-152887000D01*
X153528840Y-152887000D01*
X153753578Y-153112131D01*
X154535057Y-153436630D01*
X155381230Y-153437368D01*
X156163274Y-153114234D01*
X156762131Y-152516422D01*
X157086630Y-151734943D01*
X157087368Y-150888770D01*
X156764234Y-150106726D01*
X156166422Y-149507869D01*
X155384943Y-149183370D01*
X154538770Y-149182632D01*
X153756726Y-149505766D01*
X153529095Y-149733000D01*
X151613215Y-149733000D01*
X149605086Y-147724871D01*
X150115057Y-147936630D01*
X150961230Y-147937368D01*
X151743274Y-147614234D01*
X152342131Y-147016422D01*
X152666630Y-146234943D01*
X152667368Y-145388770D01*
X152344234Y-144606726D01*
X151849603Y-144111230D01*
X152832632Y-144111230D01*
X153155766Y-144893274D01*
X153753578Y-145492131D01*
X154535057Y-145816630D01*
X155381230Y-145817368D01*
X156163274Y-145494234D01*
X156762131Y-144896422D01*
X157086630Y-144114943D01*
X157087368Y-143268770D01*
X156764234Y-142486726D01*
X156166422Y-141887869D01*
X155384943Y-141563370D01*
X154538770Y-141562632D01*
X153756726Y-141885766D01*
X153157869Y-142483578D01*
X152833370Y-143265057D01*
X152832632Y-144111230D01*
X151849603Y-144111230D01*
X151746422Y-144007869D01*
X150964943Y-143683370D01*
X150183284Y-143682688D01*
X149752000Y-143251404D01*
X149752000Y-140748596D01*
X150183906Y-140316690D01*
X150961230Y-140317368D01*
X151743274Y-139994234D01*
X152342131Y-139396422D01*
X152666630Y-138614943D01*
X152667368Y-137768770D01*
X152344234Y-136986726D01*
X152252000Y-136894331D01*
X152252000Y-134484537D01*
X152714907Y-134676752D01*
X153282603Y-134677248D01*
X153807275Y-134460457D01*
X153823000Y-134444759D01*
X153823000Y-137000000D01*
X153845616Y-137113698D01*
X153845616Y-137229621D01*
X154226218Y-139143038D01*
X154226218Y-139143039D01*
X154401962Y-139567323D01*
X155485827Y-141189441D01*
X155810560Y-141514174D01*
X157432677Y-142598038D01*
X157856962Y-142773782D01*
X158097498Y-142821628D01*
X157913370Y-143265057D01*
X157912632Y-144111230D01*
X158235766Y-144893274D01*
X158788000Y-145446473D01*
X158788000Y-149554407D01*
X158237869Y-150103578D01*
X157913370Y-150885057D01*
X157912632Y-151731230D01*
X158235766Y-152513274D01*
X158833578Y-153112131D01*
X159615057Y-153436630D01*
X160461230Y-153437368D01*
X160823000Y-153287888D01*
X160823000Y-160823000D01*
X136148285Y-160823000D01*
X136456407Y-160361863D01*
X136514128Y-160071676D01*
X140955825Y-160071676D01*
X141046047Y-160447589D01*
X141863972Y-160664400D01*
X142702607Y-160551700D01*
X142953953Y-160447589D01*
X143044175Y-160071676D01*
X142000000Y-159027502D01*
X140955825Y-160071676D01*
X136514128Y-160071676D01*
X136617600Y-159551493D01*
X136617600Y-158363972D01*
X139835600Y-158363972D01*
X139948300Y-159202607D01*
X140052411Y-159453953D01*
X140428324Y-159544175D01*
X141472498Y-158500000D01*
X142527502Y-158500000D01*
X143571676Y-159544175D01*
X143947589Y-159453953D01*
X144164400Y-158636028D01*
X144148842Y-158520250D01*
X155372545Y-158520250D01*
X155771639Y-159486132D01*
X156509981Y-160225764D01*
X157475165Y-160626543D01*
X158520250Y-160627455D01*
X159486132Y-160228361D01*
X160225764Y-159490019D01*
X160626543Y-158524835D01*
X160627455Y-157479750D01*
X160228361Y-156513868D01*
X159490019Y-155774236D01*
X158524835Y-155373457D01*
X157479750Y-155372545D01*
X156513868Y-155771639D01*
X155774236Y-156509981D01*
X155373457Y-157475165D01*
X155372545Y-158520250D01*
X144148842Y-158520250D01*
X144051700Y-157797393D01*
X143947589Y-157546047D01*
X143571676Y-157455825D01*
X142527502Y-158500000D01*
X141472498Y-158500000D01*
X140428324Y-157455825D01*
X140052411Y-157546047D01*
X139835600Y-158363972D01*
X136617600Y-158363972D01*
X136617600Y-157448507D01*
X136456407Y-156638137D01*
X135997369Y-155951138D01*
X135310370Y-155492100D01*
X134500000Y-155330907D01*
X133689630Y-155492100D01*
X133002631Y-155951138D01*
X132543593Y-156638137D01*
X132382400Y-157448507D01*
X132382400Y-159551493D01*
X132543593Y-160361863D01*
X132851715Y-160823000D01*
X131148285Y-160823000D01*
X131456407Y-160361863D01*
X131617600Y-159551493D01*
X131617600Y-157448507D01*
X131456407Y-156638137D01*
X130997369Y-155951138D01*
X130310370Y-155492100D01*
X129500000Y-155330907D01*
X128689630Y-155492100D01*
X128002631Y-155951138D01*
X127543593Y-156638137D01*
X127382400Y-157448507D01*
X127382400Y-159551493D01*
X127471216Y-159998000D01*
X126528784Y-159998000D01*
X126617600Y-159551493D01*
X126617600Y-157448507D01*
X126456407Y-156638137D01*
X125997369Y-155951138D01*
X125310370Y-155492100D01*
X124500000Y-155330907D01*
X123689630Y-155492100D01*
X123002631Y-155951138D01*
X122543593Y-156638137D01*
X122382400Y-157448507D01*
X122382400Y-159551493D01*
X122471216Y-159998000D01*
X121565362Y-159998000D01*
X121617600Y-159863600D01*
X121617600Y-158873000D01*
X119873000Y-158873000D01*
X119873000Y-158893000D01*
X119127000Y-158893000D01*
X119127000Y-158873000D01*
X117382400Y-158873000D01*
X117382400Y-159863600D01*
X117434638Y-159998000D01*
X114506543Y-159998000D01*
X114547000Y-159794609D01*
X114547000Y-159005391D01*
X114400316Y-158267960D01*
X114047000Y-157739185D01*
X114047000Y-157370000D01*
X114000535Y-157136400D01*
X117382400Y-157136400D01*
X117382400Y-158127000D01*
X119127000Y-158127000D01*
X119127000Y-155711842D01*
X119873000Y-155711842D01*
X119873000Y-158127000D01*
X121617600Y-158127000D01*
X121617600Y-157136400D01*
X121313666Y-156354422D01*
X120733618Y-155748280D01*
X120194494Y-155508923D01*
X119873000Y-155711842D01*
X119127000Y-155711842D01*
X118805506Y-155508923D01*
X118266382Y-155748280D01*
X117686334Y-156354422D01*
X117382400Y-157136400D01*
X114000535Y-157136400D01*
X113938376Y-156823911D01*
X113814246Y-156638137D01*
X113629042Y-156360959D01*
X111607666Y-154339584D01*
X111694110Y-153905000D01*
X111690530Y-153887000D01*
X111834921Y-153887000D01*
X111834921Y-154016000D01*
X111913506Y-154433641D01*
X112160331Y-154817219D01*
X112536944Y-155074548D01*
X112984000Y-155165079D01*
X115016000Y-155165079D01*
X115279324Y-155115531D01*
X115524000Y-155165079D01*
X117556000Y-155165079D01*
X117973641Y-155086494D01*
X118357219Y-154839669D01*
X118614548Y-154463056D01*
X118705079Y-154016000D01*
X118705079Y-152654750D01*
X120623000Y-152654750D01*
X120623000Y-153724174D01*
X120794575Y-154138394D01*
X121111606Y-154455424D01*
X121525826Y-154627000D01*
X122595250Y-154627000D01*
X122877000Y-154345250D01*
X122877000Y-152373000D01*
X120904750Y-152373000D01*
X120623000Y-152654750D01*
X118705079Y-152654750D01*
X118705079Y-151984000D01*
X118626494Y-151566359D01*
X118379669Y-151182781D01*
X118030063Y-150943905D01*
X118049079Y-150850000D01*
X118049079Y-149150000D01*
X117970494Y-148732359D01*
X117723669Y-148348781D01*
X117614339Y-148274079D01*
X118500000Y-148274079D01*
X118917641Y-148195494D01*
X119301219Y-147948669D01*
X119315985Y-147927059D01*
X119532603Y-147927248D01*
X120057275Y-147710457D01*
X120459047Y-147309386D01*
X120676752Y-146785093D01*
X120677172Y-146304093D01*
X126910224Y-146304093D01*
X127112983Y-146627000D01*
X129047000Y-146627000D01*
X129047000Y-145144124D01*
X128711033Y-144868765D01*
X127911322Y-145110818D01*
X127265115Y-145640482D01*
X126910224Y-146304093D01*
X120677172Y-146304093D01*
X120677248Y-146217397D01*
X120472757Y-145722493D01*
X120532000Y-145663250D01*
X120532000Y-144175000D01*
X120393000Y-144175000D01*
X120393000Y-143429000D01*
X120532000Y-143429000D01*
X120532000Y-143409000D01*
X121040000Y-143409000D01*
X121040000Y-143429000D01*
X121179000Y-143429000D01*
X121179000Y-144175000D01*
X121040000Y-144175000D01*
X121040000Y-145663250D01*
X121321750Y-145945000D01*
X121518174Y-145945000D01*
X121932394Y-145773425D01*
X122249424Y-145456394D01*
X122421000Y-145042174D01*
X122421000Y-144604290D01*
X122475826Y-144627000D01*
X122845250Y-144627000D01*
X123127000Y-144345250D01*
X123127000Y-143250000D01*
X123107000Y-143250000D01*
X123107000Y-143077000D01*
X123893000Y-143077000D01*
X123893000Y-143250000D01*
X123873000Y-143250000D01*
X123873000Y-144345250D01*
X124154750Y-144627000D01*
X124524174Y-144627000D01*
X124728973Y-144542169D01*
X124752944Y-144558548D01*
X125200000Y-144649079D01*
X126800000Y-144649079D01*
X127217641Y-144570494D01*
X127601219Y-144323669D01*
X127858548Y-143947056D01*
X127949079Y-143500000D01*
X127949079Y-142566871D01*
X128000000Y-142577000D01*
X128603492Y-142456958D01*
X129115107Y-142115107D01*
X129456958Y-141603492D01*
X129577000Y-141000000D01*
X129577000Y-140653214D01*
X130075464Y-140154750D01*
X133223000Y-140154750D01*
X133223000Y-140574174D01*
X133394576Y-140988394D01*
X133711606Y-141305425D01*
X134125826Y-141477000D01*
X134293250Y-141477000D01*
X134575000Y-141195250D01*
X134575000Y-139873000D01*
X133504750Y-139873000D01*
X133223000Y-140154750D01*
X130075464Y-140154750D01*
X130115108Y-140115107D01*
X130357728Y-139752000D01*
X130456958Y-139603492D01*
X130577000Y-139000000D01*
X130577000Y-138425826D01*
X133223000Y-138425826D01*
X133223000Y-138845250D01*
X133504750Y-139127000D01*
X134575000Y-139127000D01*
X134575000Y-137804750D01*
X134293250Y-137523000D01*
X134125826Y-137523000D01*
X133711606Y-137694575D01*
X133394576Y-138011606D01*
X133223000Y-138425826D01*
X130577000Y-138425826D01*
X130577000Y-136513070D01*
X130861863Y-136456407D01*
X131548862Y-135997369D01*
X132007900Y-135310370D01*
X132169093Y-134500000D01*
X132007900Y-133689630D01*
X131548862Y-133002631D01*
X130861863Y-132543593D01*
X130051493Y-132382400D01*
X127948507Y-132382400D01*
X127138137Y-132543593D01*
X126451138Y-133002631D01*
X125992100Y-133689630D01*
X125830907Y-134500000D01*
X125992100Y-135310370D01*
X126451138Y-135997369D01*
X127138137Y-136456407D01*
X127423000Y-136513070D01*
X127423000Y-138346785D01*
X127346786Y-138423000D01*
X127155937Y-138423000D01*
X126800000Y-138350921D01*
X125200000Y-138350921D01*
X124816935Y-138423000D01*
X124655937Y-138423000D01*
X124300000Y-138350921D01*
X122700000Y-138350921D01*
X122316935Y-138423000D01*
X121435555Y-138423000D01*
X121477879Y-138214000D01*
X121477879Y-136182000D01*
X121399294Y-135764359D01*
X121152469Y-135380781D01*
X120775856Y-135123452D01*
X120328800Y-135032921D01*
X120077000Y-135032921D01*
X120077000Y-132703959D01*
X120181859Y-132683101D01*
X120839605Y-132243610D01*
X121279096Y-131585864D01*
X121433425Y-130810000D01*
X121279096Y-130034136D01*
X120948926Y-129540000D01*
X120975653Y-129500000D01*
X125830907Y-129500000D01*
X125992100Y-130310370D01*
X126451138Y-130997369D01*
X127138137Y-131456407D01*
X127948507Y-131617600D01*
X130051493Y-131617600D01*
X130861863Y-131456407D01*
X131548862Y-130997369D01*
X132007900Y-130310370D01*
X132169093Y-129500000D01*
X132007900Y-128689630D01*
X131548862Y-128002631D01*
X130861863Y-127543593D01*
X130051493Y-127382400D01*
X127948507Y-127382400D01*
X127138137Y-127543593D01*
X126451138Y-128002631D01*
X125992100Y-128689630D01*
X125830907Y-129500000D01*
X120975653Y-129500000D01*
X121279096Y-129045864D01*
X121433425Y-128270000D01*
X121279096Y-127494136D01*
X120948926Y-127000000D01*
X121279096Y-126505864D01*
X121433425Y-125730000D01*
X121279096Y-124954136D01*
X120975654Y-124500000D01*
X125830907Y-124500000D01*
X125992100Y-125310370D01*
X126451138Y-125997369D01*
X127138137Y-126456407D01*
X127948507Y-126617600D01*
X130051493Y-126617600D01*
X130861863Y-126456407D01*
X131548862Y-125997369D01*
X132007900Y-125310370D01*
X132169093Y-124500000D01*
X132007900Y-123689630D01*
X131548862Y-123002631D01*
X130861863Y-122543593D01*
X130051493Y-122382400D01*
X127948507Y-122382400D01*
X127138137Y-122543593D01*
X126451138Y-123002631D01*
X125992100Y-123689630D01*
X125830907Y-124500000D01*
X120975654Y-124500000D01*
X120948926Y-124460000D01*
X121279096Y-123965864D01*
X121433425Y-123190000D01*
X121279096Y-122414136D01*
X120839605Y-121756390D01*
X120181859Y-121316899D01*
X119405995Y-121162570D01*
X117594005Y-121162570D01*
X116818141Y-121316899D01*
X116473245Y-121547351D01*
X117826101Y-120194494D01*
X126008923Y-120194494D01*
X126248280Y-120733618D01*
X126854422Y-121313666D01*
X127636400Y-121617600D01*
X128627000Y-121617600D01*
X128627000Y-119873000D01*
X129373000Y-119873000D01*
X129373000Y-121617600D01*
X130363600Y-121617600D01*
X131145578Y-121313666D01*
X131751720Y-120733618D01*
X131991077Y-120194494D01*
X131788158Y-119873000D01*
X129373000Y-119873000D01*
X128627000Y-119873000D01*
X126211842Y-119873000D01*
X126008923Y-120194494D01*
X117826101Y-120194494D01*
X119215089Y-118805506D01*
X126008923Y-118805506D01*
X126211842Y-119127000D01*
X128627000Y-119127000D01*
X128627000Y-117382400D01*
X129373000Y-117382400D01*
X129373000Y-119127000D01*
X131788158Y-119127000D01*
X131991077Y-118805506D01*
X131751720Y-118266382D01*
X131145578Y-117686334D01*
X130363600Y-117382400D01*
X129373000Y-117382400D01*
X128627000Y-117382400D01*
X127636400Y-117382400D01*
X126854422Y-117686334D01*
X126248280Y-118266382D01*
X126008923Y-118805506D01*
X119215089Y-118805506D01*
X128260295Y-109760300D01*
X128260298Y-109760298D01*
X128531697Y-109354120D01*
X128627000Y-108875000D01*
X128627000Y-98466052D01*
X128689630Y-98507900D01*
X129500000Y-98669093D01*
X130310370Y-98507900D01*
X130997369Y-98048862D01*
X131456407Y-97361863D01*
X131617600Y-96551493D01*
X131617600Y-95873000D01*
X132382400Y-95873000D01*
X132382400Y-96863600D01*
X132686334Y-97645578D01*
X133266382Y-98251720D01*
X133805506Y-98491077D01*
X134127000Y-98288158D01*
X134127000Y-95873000D01*
X134873000Y-95873000D01*
X134873000Y-98288158D01*
X135194494Y-98491077D01*
X135733618Y-98251720D01*
X136313666Y-97645578D01*
X136617600Y-96863600D01*
X136617600Y-95873000D01*
X134873000Y-95873000D01*
X134127000Y-95873000D01*
X132382400Y-95873000D01*
X131617600Y-95873000D01*
X131617600Y-94448507D01*
X131456407Y-93638137D01*
X131148285Y-93177000D01*
X132856118Y-93177000D01*
X132686334Y-93354422D01*
G36*
X102145000Y-140599079D02*
X102745000Y-140599079D01*
X102998000Y-140551474D01*
X102998000Y-148900322D01*
X102725255Y-149082565D01*
X102414879Y-149547074D01*
X102305890Y-150095000D01*
X102414879Y-150642926D01*
X102473060Y-150730000D01*
X102414879Y-150817074D01*
X102305890Y-151365000D01*
X102414879Y-151912926D01*
X102473060Y-152000000D01*
X102414879Y-152087074D01*
X102305890Y-152635000D01*
X102414879Y-153182926D01*
X102473060Y-153270000D01*
X102414879Y-153357074D01*
X102305890Y-153905000D01*
X102414879Y-154452926D01*
X102725255Y-154917435D01*
X103189764Y-155227811D01*
X103737690Y-155336800D01*
X104674310Y-155336800D01*
X105222236Y-155227811D01*
X105328212Y-155157000D01*
X106095000Y-155157000D01*
X106288000Y-155118610D01*
X106288000Y-157568899D01*
X106270000Y-157580926D01*
X105737431Y-157225075D01*
X105000000Y-157078391D01*
X104262569Y-157225075D01*
X103637405Y-157642796D01*
X103219684Y-158267960D01*
X103073000Y-159005391D01*
X103073000Y-159794609D01*
X103219684Y-160532040D01*
X103414097Y-160823000D01*
X93177000Y-160823000D01*
X93177000Y-158520250D01*
X93372545Y-158520250D01*
X93771639Y-159486132D01*
X94509981Y-160225764D01*
X95475165Y-160626543D01*
X96520250Y-160627455D01*
X97486132Y-160228361D01*
X98225764Y-159490019D01*
X98626543Y-158524835D01*
X98627455Y-157479750D01*
X98228361Y-156513868D01*
X97490019Y-155774236D01*
X96524835Y-155373457D01*
X95479750Y-155372545D01*
X94513868Y-155771639D01*
X93774236Y-156509981D01*
X93373457Y-157475165D01*
X93372545Y-158520250D01*
X93177000Y-158520250D01*
X93177000Y-151697596D01*
X94114702Y-152635298D01*
X94520880Y-152906697D01*
X94600372Y-152922509D01*
X95000000Y-153002001D01*
X95000005Y-153002000D01*
X97750000Y-153002000D01*
X98229120Y-152906697D01*
X98635298Y-152635298D01*
X99385298Y-151885298D01*
X99475900Y-151749702D01*
X99656697Y-151479120D01*
X99752000Y-151000000D01*
X99752000Y-149500000D01*
X99656697Y-149020880D01*
X99385298Y-148614702D01*
X98635298Y-147864702D01*
X98603272Y-147843303D01*
X98229120Y-147593303D01*
X97896087Y-147527059D01*
X98057275Y-147460457D01*
X98378355Y-147139937D01*
X98385298Y-147135298D01*
X100421517Y-145099079D01*
X100450000Y-145099079D01*
X100867641Y-145020494D01*
X101251219Y-144773669D01*
X101508548Y-144397056D01*
X101599079Y-143950000D01*
X101599079Y-143050000D01*
X101520494Y-142632359D01*
X101273669Y-142248781D01*
X100904679Y-141996661D01*
X101251219Y-141773669D01*
X101508548Y-141397056D01*
X101599079Y-140950000D01*
X101599079Y-140575732D01*
X101822297Y-140533730D01*
X102145000Y-140599079D01*
X102145000Y-140599079D01*
G37*
X102145000Y-140599079D02*
X102745000Y-140599079D01*
X102998000Y-140551474D01*
X102998000Y-148900322D01*
X102725255Y-149082565D01*
X102414879Y-149547074D01*
X102305890Y-150095000D01*
X102414879Y-150642926D01*
X102473060Y-150730000D01*
X102414879Y-150817074D01*
X102305890Y-151365000D01*
X102414879Y-151912926D01*
X102473060Y-152000000D01*
X102414879Y-152087074D01*
X102305890Y-152635000D01*
X102414879Y-153182926D01*
X102473060Y-153270000D01*
X102414879Y-153357074D01*
X102305890Y-153905000D01*
X102414879Y-154452926D01*
X102725255Y-154917435D01*
X103189764Y-155227811D01*
X103737690Y-155336800D01*
X104674310Y-155336800D01*
X105222236Y-155227811D01*
X105328212Y-155157000D01*
X106095000Y-155157000D01*
X106288000Y-155118610D01*
X106288000Y-157568899D01*
X106270000Y-157580926D01*
X105737431Y-157225075D01*
X105000000Y-157078391D01*
X104262569Y-157225075D01*
X103637405Y-157642796D01*
X103219684Y-158267960D01*
X103073000Y-159005391D01*
X103073000Y-159794609D01*
X103219684Y-160532040D01*
X103414097Y-160823000D01*
X93177000Y-160823000D01*
X93177000Y-158520250D01*
X93372545Y-158520250D01*
X93771639Y-159486132D01*
X94509981Y-160225764D01*
X95475165Y-160626543D01*
X96520250Y-160627455D01*
X97486132Y-160228361D01*
X98225764Y-159490019D01*
X98626543Y-158524835D01*
X98627455Y-157479750D01*
X98228361Y-156513868D01*
X97490019Y-155774236D01*
X96524835Y-155373457D01*
X95479750Y-155372545D01*
X94513868Y-155771639D01*
X93774236Y-156509981D01*
X93373457Y-157475165D01*
X93372545Y-158520250D01*
X93177000Y-158520250D01*
X93177000Y-151697596D01*
X94114702Y-152635298D01*
X94520880Y-152906697D01*
X94600372Y-152922509D01*
X95000000Y-153002001D01*
X95000005Y-153002000D01*
X97750000Y-153002000D01*
X98229120Y-152906697D01*
X98635298Y-152635298D01*
X99385298Y-151885298D01*
X99475900Y-151749702D01*
X99656697Y-151479120D01*
X99752000Y-151000000D01*
X99752000Y-149500000D01*
X99656697Y-149020880D01*
X99385298Y-148614702D01*
X98635298Y-147864702D01*
X98603272Y-147843303D01*
X98229120Y-147593303D01*
X97896087Y-147527059D01*
X98057275Y-147460457D01*
X98378355Y-147139937D01*
X98385298Y-147135298D01*
X100421517Y-145099079D01*
X100450000Y-145099079D01*
X100867641Y-145020494D01*
X101251219Y-144773669D01*
X101508548Y-144397056D01*
X101599079Y-143950000D01*
X101599079Y-143050000D01*
X101520494Y-142632359D01*
X101273669Y-142248781D01*
X100904679Y-141996661D01*
X101251219Y-141773669D01*
X101508548Y-141397056D01*
X101599079Y-140950000D01*
X101599079Y-140575732D01*
X101822297Y-140533730D01*
X102145000Y-140599079D01*
G36*
X110955825Y-93428324D02*
X112000000Y-94472498D01*
X113044175Y-93428324D01*
X112983855Y-93177000D01*
X117851715Y-93177000D01*
X117543593Y-93638137D01*
X117382400Y-94448507D01*
X117382400Y-96551493D01*
X117543593Y-97361863D01*
X117801601Y-97748000D01*
X117500000Y-97748000D01*
X117020880Y-97843303D01*
X116614702Y-98114702D01*
X116614700Y-98114705D01*
X114231404Y-100498000D01*
X113887085Y-100498000D01*
X114058548Y-100247056D01*
X114149079Y-99800000D01*
X114149079Y-97800000D01*
X114070494Y-97382359D01*
X113823669Y-96998781D01*
X113447056Y-96741452D01*
X113023990Y-96655779D01*
X113044175Y-96571676D01*
X112000000Y-95527502D01*
X110955825Y-96571676D01*
X110975931Y-96655450D01*
X110582359Y-96729506D01*
X110198781Y-96976331D01*
X109941452Y-97352944D01*
X109850921Y-97800000D01*
X109850921Y-99800000D01*
X109929506Y-100217641D01*
X110109912Y-100498000D01*
X106250000Y-100498000D01*
X105770880Y-100593303D01*
X105373912Y-100858548D01*
X105364702Y-100864702D01*
X103364702Y-102864702D01*
X103093303Y-103270880D01*
X102998000Y-103750000D01*
X102998000Y-104748000D01*
X102120672Y-104748000D01*
X102086494Y-104566359D01*
X101839669Y-104182781D01*
X101463056Y-103925452D01*
X101016000Y-103834921D01*
X98984000Y-103834921D01*
X98720676Y-103884469D01*
X98476000Y-103834921D01*
X96444000Y-103834921D01*
X96026359Y-103913506D01*
X95642781Y-104160331D01*
X95385452Y-104536944D01*
X95294921Y-104984000D01*
X95294921Y-106950921D01*
X95150000Y-106950921D01*
X94732359Y-107029506D01*
X94348781Y-107276331D01*
X94091452Y-107652944D01*
X94000921Y-108100000D01*
X94000921Y-109000000D01*
X94079506Y-109417641D01*
X94326331Y-109801219D01*
X94619949Y-110001840D01*
X94348781Y-110176331D01*
X94091452Y-110552944D01*
X94000921Y-111000000D01*
X94000921Y-111900000D01*
X94079506Y-112317641D01*
X94326331Y-112701219D01*
X94702944Y-112958548D01*
X95150000Y-113049079D01*
X96850000Y-113049079D01*
X96886100Y-113042286D01*
X97064570Y-113309386D01*
X97116482Y-113387078D01*
X100834702Y-117105298D01*
X101240880Y-117376697D01*
X101720000Y-117472000D01*
X103299839Y-117472000D01*
X103637405Y-117977204D01*
X104262569Y-118394925D01*
X105000000Y-118541609D01*
X105737431Y-118394925D01*
X106270000Y-118039074D01*
X106802569Y-118394925D01*
X107540000Y-118541609D01*
X108277431Y-118394925D01*
X108810000Y-118039074D01*
X109342569Y-118394925D01*
X110080000Y-118541609D01*
X110817431Y-118394925D01*
X110868808Y-118360596D01*
X105502000Y-123727404D01*
X105502000Y-120955943D01*
X105676752Y-120535093D01*
X105677248Y-119967397D01*
X105460457Y-119442725D01*
X105059386Y-119040953D01*
X104535093Y-118823248D01*
X103967397Y-118822752D01*
X103442725Y-119039543D01*
X103372573Y-119109573D01*
X103285093Y-119073248D01*
X102717397Y-119072752D01*
X102192725Y-119289543D01*
X101790953Y-119690614D01*
X101573248Y-120214907D01*
X101572752Y-120782603D01*
X101748000Y-121206734D01*
X101748000Y-121561405D01*
X99193879Y-124115525D01*
X98772725Y-124289543D01*
X98370953Y-124690614D01*
X98310119Y-124837118D01*
X98250457Y-124692725D01*
X97849386Y-124290953D01*
X97325093Y-124073248D01*
X96757397Y-124072752D01*
X96232725Y-124289543D01*
X95830953Y-124690614D01*
X95613248Y-125214907D01*
X95612752Y-125782603D01*
X95829543Y-126307275D01*
X96017950Y-126496011D01*
X95849817Y-126900921D01*
X95550000Y-126900921D01*
X95177026Y-126971101D01*
X95177248Y-126717397D01*
X94960457Y-126192725D01*
X94559386Y-125790953D01*
X94035093Y-125573248D01*
X93467397Y-125572752D01*
X93177000Y-125692742D01*
X93177000Y-96520250D01*
X93372545Y-96520250D01*
X93771639Y-97486132D01*
X94509981Y-98225764D01*
X95475165Y-98626543D01*
X96520250Y-98627455D01*
X97486132Y-98228361D01*
X98225764Y-97490019D01*
X98626543Y-96524835D01*
X98627455Y-95479750D01*
X98373021Y-94863972D01*
X109835600Y-94863972D01*
X109948300Y-95702607D01*
X110052411Y-95953953D01*
X110428324Y-96044175D01*
X111472498Y-95000000D01*
X112527502Y-95000000D01*
X113571676Y-96044175D01*
X113947589Y-95953953D01*
X114164400Y-95136028D01*
X114051700Y-94297393D01*
X113947589Y-94046047D01*
X113571676Y-93955825D01*
X112527502Y-95000000D01*
X111472498Y-95000000D01*
X110428324Y-93955825D01*
X110052411Y-94046047D01*
X109835600Y-94863972D01*
X98373021Y-94863972D01*
X98228361Y-94513868D01*
X97490019Y-93774236D01*
X96524835Y-93373457D01*
X95479750Y-93372545D01*
X94513868Y-93771639D01*
X93774236Y-94509981D01*
X93373457Y-95475165D01*
X93372545Y-96520250D01*
X93177000Y-96520250D01*
X93177000Y-93177000D01*
X111016145Y-93177000D01*
X110955825Y-93428324D01*
X110955825Y-93428324D01*
G37*
X110955825Y-93428324D02*
X112000000Y-94472498D01*
X113044175Y-93428324D01*
X112983855Y-93177000D01*
X117851715Y-93177000D01*
X117543593Y-93638137D01*
X117382400Y-94448507D01*
X117382400Y-96551493D01*
X117543593Y-97361863D01*
X117801601Y-97748000D01*
X117500000Y-97748000D01*
X117020880Y-97843303D01*
X116614702Y-98114702D01*
X116614700Y-98114705D01*
X114231404Y-100498000D01*
X113887085Y-100498000D01*
X114058548Y-100247056D01*
X114149079Y-99800000D01*
X114149079Y-97800000D01*
X114070494Y-97382359D01*
X113823669Y-96998781D01*
X113447056Y-96741452D01*
X113023990Y-96655779D01*
X113044175Y-96571676D01*
X112000000Y-95527502D01*
X110955825Y-96571676D01*
X110975931Y-96655450D01*
X110582359Y-96729506D01*
X110198781Y-96976331D01*
X109941452Y-97352944D01*
X109850921Y-97800000D01*
X109850921Y-99800000D01*
X109929506Y-100217641D01*
X110109912Y-100498000D01*
X106250000Y-100498000D01*
X105770880Y-100593303D01*
X105373912Y-100858548D01*
X105364702Y-100864702D01*
X103364702Y-102864702D01*
X103093303Y-103270880D01*
X102998000Y-103750000D01*
X102998000Y-104748000D01*
X102120672Y-104748000D01*
X102086494Y-104566359D01*
X101839669Y-104182781D01*
X101463056Y-103925452D01*
X101016000Y-103834921D01*
X98984000Y-103834921D01*
X98720676Y-103884469D01*
X98476000Y-103834921D01*
X96444000Y-103834921D01*
X96026359Y-103913506D01*
X95642781Y-104160331D01*
X95385452Y-104536944D01*
X95294921Y-104984000D01*
X95294921Y-106950921D01*
X95150000Y-106950921D01*
X94732359Y-107029506D01*
X94348781Y-107276331D01*
X94091452Y-107652944D01*
X94000921Y-108100000D01*
X94000921Y-109000000D01*
X94079506Y-109417641D01*
X94326331Y-109801219D01*
X94619949Y-110001840D01*
X94348781Y-110176331D01*
X94091452Y-110552944D01*
X94000921Y-111000000D01*
X94000921Y-111900000D01*
X94079506Y-112317641D01*
X94326331Y-112701219D01*
X94702944Y-112958548D01*
X95150000Y-113049079D01*
X96850000Y-113049079D01*
X96886100Y-113042286D01*
X97064570Y-113309386D01*
X97116482Y-113387078D01*
X100834702Y-117105298D01*
X101240880Y-117376697D01*
X101720000Y-117472000D01*
X103299839Y-117472000D01*
X103637405Y-117977204D01*
X104262569Y-118394925D01*
X105000000Y-118541609D01*
X105737431Y-118394925D01*
X106270000Y-118039074D01*
X106802569Y-118394925D01*
X107540000Y-118541609D01*
X108277431Y-118394925D01*
X108810000Y-118039074D01*
X109342569Y-118394925D01*
X110080000Y-118541609D01*
X110817431Y-118394925D01*
X110868808Y-118360596D01*
X105502000Y-123727404D01*
X105502000Y-120955943D01*
X105676752Y-120535093D01*
X105677248Y-119967397D01*
X105460457Y-119442725D01*
X105059386Y-119040953D01*
X104535093Y-118823248D01*
X103967397Y-118822752D01*
X103442725Y-119039543D01*
X103372573Y-119109573D01*
X103285093Y-119073248D01*
X102717397Y-119072752D01*
X102192725Y-119289543D01*
X101790953Y-119690614D01*
X101573248Y-120214907D01*
X101572752Y-120782603D01*
X101748000Y-121206734D01*
X101748000Y-121561405D01*
X99193879Y-124115525D01*
X98772725Y-124289543D01*
X98370953Y-124690614D01*
X98310119Y-124837118D01*
X98250457Y-124692725D01*
X97849386Y-124290953D01*
X97325093Y-124073248D01*
X96757397Y-124072752D01*
X96232725Y-124289543D01*
X95830953Y-124690614D01*
X95613248Y-125214907D01*
X95612752Y-125782603D01*
X95829543Y-126307275D01*
X96017950Y-126496011D01*
X95849817Y-126900921D01*
X95550000Y-126900921D01*
X95177026Y-126971101D01*
X95177248Y-126717397D01*
X94960457Y-126192725D01*
X94559386Y-125790953D01*
X94035093Y-125573248D01*
X93467397Y-125572752D01*
X93177000Y-125692742D01*
X93177000Y-96520250D01*
X93372545Y-96520250D01*
X93771639Y-97486132D01*
X94509981Y-98225764D01*
X95475165Y-98626543D01*
X96520250Y-98627455D01*
X97486132Y-98228361D01*
X98225764Y-97490019D01*
X98626543Y-96524835D01*
X98627455Y-95479750D01*
X98373021Y-94863972D01*
X109835600Y-94863972D01*
X109948300Y-95702607D01*
X110052411Y-95953953D01*
X110428324Y-96044175D01*
X111472498Y-95000000D01*
X112527502Y-95000000D01*
X113571676Y-96044175D01*
X113947589Y-95953953D01*
X114164400Y-95136028D01*
X114051700Y-94297393D01*
X113947589Y-94046047D01*
X113571676Y-93955825D01*
X112527502Y-95000000D01*
X111472498Y-95000000D01*
X110428324Y-93955825D01*
X110052411Y-94046047D01*
X109835600Y-94863972D01*
X98373021Y-94863972D01*
X98228361Y-94513868D01*
X97490019Y-93774236D01*
X96524835Y-93373457D01*
X95479750Y-93372545D01*
X94513868Y-93771639D01*
X93774236Y-94509981D01*
X93373457Y-95475165D01*
X93372545Y-96520250D01*
X93177000Y-96520250D01*
X93177000Y-93177000D01*
X111016145Y-93177000D01*
X110955825Y-93428324D01*
M02*
