G04 #@! TF.FileFunction,Copper,L2,Bot,Signal*
%FSLAX46Y46*%
G04 Gerber Fmt 4.6, Leading zero omitted, Abs format (unit mm)*
G04 Created by KiCad (PCBNEW 4.0.4-stable) date 03/23/17 03:26:40*
%MOMM*%
%LPD*%
G01*
G04 APERTURE LIST*
%ADD10C,0.100000*%
%ADD11O,3.962400X1.981200*%
%ADD12R,1.100000X2.400000*%
%ADD13O,1.100000X2.400000*%
%ADD14C,2.000000*%
%ADD15R,2.000000X2.000000*%
%ADD16O,1.981200X3.962400*%
%ADD17R,2.000000X2.032000*%
%ADD18R,1.727200X2.032000*%
%ADD19O,1.600000X2.300000*%
%ADD20O,1.727200X2.032000*%
%ADD21O,1.998980X2.999740*%
%ADD22O,2.999740X1.998980*%
%ADD23O,3.500120X1.800860*%
%ADD24C,4.000500*%
%ADD25C,1.998980*%
%ADD26C,0.600000*%
%ADD27C,0.900000*%
%ADD28C,0.250000*%
%ADD29C,0.600000*%
%ADD30C,0.254000*%
G04 APERTURE END LIST*
D10*
D11*
X130500000Y-134500000D03*
X130500000Y-129500000D03*
X130500000Y-119500000D03*
X130500000Y-124500000D03*
D12*
X153000000Y-135000000D03*
D13*
X151000000Y-135000000D03*
X149000000Y-135000000D03*
X147000000Y-135000000D03*
X145000000Y-135000000D03*
X143000000Y-135000000D03*
X141000000Y-135000000D03*
X139000000Y-135000000D03*
X139000000Y-119000000D03*
X141000000Y-119000000D03*
X143000000Y-119000000D03*
X145000000Y-119000000D03*
X147000000Y-119000000D03*
X149000000Y-119000000D03*
X151000000Y-119000000D03*
X153000000Y-119000000D03*
D14*
X142000000Y-158500000D03*
D15*
X142000000Y-154700000D03*
D14*
X160040000Y-143690000D03*
X154960000Y-143690000D03*
X160040000Y-151310000D03*
X154960000Y-151310000D03*
X150540000Y-138190000D03*
X145460000Y-138190000D03*
X150540000Y-145810000D03*
X145460000Y-145810000D03*
X112000000Y-95000000D03*
D15*
X112000000Y-98800000D03*
D16*
X134500000Y-158500000D03*
X129500000Y-158500000D03*
X119500000Y-158500000D03*
X124500000Y-158500000D03*
X119500000Y-95500000D03*
X124500000Y-95500000D03*
X134500000Y-95500000D03*
X129500000Y-95500000D03*
D17*
X94500000Y-125500000D03*
X97040000Y-125500000D03*
X99580000Y-125500000D03*
X94500000Y-128500000D03*
X97040000Y-128500000D03*
X99580000Y-128500000D03*
X94500000Y-131500000D03*
X97040000Y-131500000D03*
X99580000Y-131500000D03*
X94500000Y-134500000D03*
X97040000Y-134500000D03*
X99580000Y-134500000D03*
X94500000Y-137500000D03*
X97040000Y-137500000D03*
X99580000Y-137500000D03*
D18*
X94500000Y-140500000D03*
D17*
X97040000Y-140500000D03*
X99580000Y-140500000D03*
X94500000Y-143500000D03*
X97040000Y-143500000D03*
X99580000Y-143500000D03*
X94500000Y-146500000D03*
X97040000Y-146500000D03*
X99580000Y-146500000D03*
D19*
X105000000Y-116220000D03*
X107540000Y-116220000D03*
X110080000Y-116220000D03*
X112620000Y-116220000D03*
X112620000Y-159400000D03*
X110080000Y-159400000D03*
X107540000Y-159400000D03*
X105000000Y-159400000D03*
D18*
X153000000Y-104000000D03*
D20*
X150460000Y-104000000D03*
X147920000Y-104000000D03*
X145380000Y-104000000D03*
X142840000Y-104000000D03*
X140300000Y-104000000D03*
D21*
X132960000Y-144460000D03*
D22*
X135500000Y-147000000D03*
X130420000Y-147000000D03*
D23*
X118500000Y-123190000D03*
X118500000Y-125730000D03*
X118500000Y-128270000D03*
X118500000Y-130810000D03*
D24*
X138000000Y-158500000D03*
X116000000Y-158500000D03*
X116000000Y-95500000D03*
X138000000Y-95500000D03*
D25*
X131000000Y-157500000D03*
X123000000Y-157500000D03*
X123000000Y-96500000D03*
X131000000Y-96500000D03*
D26*
X122698000Y-143802000D03*
X102500000Y-144500000D03*
X128000000Y-141000000D03*
X128000000Y-140000000D03*
X93750000Y-127000000D03*
X116250000Y-140000000D03*
X139750000Y-122250000D03*
X102500000Y-137500000D03*
X103000000Y-120500000D03*
X99580000Y-125500000D03*
X109750000Y-131000000D03*
X122000000Y-109250000D03*
X120000000Y-109250000D03*
X111000000Y-112500000D03*
X99750000Y-112500000D03*
X119250000Y-146500000D03*
X109750000Y-146500000D03*
X149000000Y-128500000D03*
X99500000Y-135000000D03*
X147000000Y-114000000D03*
X149000000Y-114000000D03*
X103750000Y-143000000D03*
X115250000Y-138500000D03*
X115000000Y-143000000D03*
X149000000Y-133250000D03*
X97040000Y-125500000D03*
X97250000Y-127250000D03*
X97000000Y-130250000D03*
X97000000Y-135750000D03*
X97000000Y-137000000D03*
X97250000Y-141750000D03*
X97500000Y-144750000D03*
X97250000Y-146250000D03*
X107500000Y-150500000D03*
X108250000Y-152000000D03*
X137000000Y-103000000D03*
X123500000Y-108750000D03*
X125000000Y-103000000D03*
X137250000Y-99250000D03*
X105000000Y-118750000D03*
X121750000Y-99250000D03*
X103000000Y-114750000D03*
X105500000Y-109500000D03*
X96750000Y-110000000D03*
X116000000Y-106250000D03*
X120000000Y-107500000D03*
X127000000Y-152500000D03*
X137000000Y-114000000D03*
X146000000Y-111000000D03*
X115500000Y-132000000D03*
X110750000Y-132000000D03*
X115500000Y-137250000D03*
X110750000Y-137250000D03*
X116000000Y-114250000D03*
X116000000Y-108000000D03*
X105750000Y-137250000D03*
X153000000Y-133250000D03*
X147500000Y-131250000D03*
X145500000Y-149250000D03*
X138750000Y-149250000D03*
X97250000Y-149750000D03*
X135000000Y-149250000D03*
X123750000Y-149250000D03*
X149000000Y-121500000D03*
X148000000Y-145750000D03*
X143000000Y-121500000D03*
X146500000Y-150750000D03*
X138750000Y-150750000D03*
X97250000Y-150750000D03*
X129500000Y-150750000D03*
X135000000Y-150750000D03*
X151000000Y-131250000D03*
X151000000Y-123000000D03*
X145000000Y-123000000D03*
X141000000Y-121500000D03*
X140750000Y-127500000D03*
X140750000Y-130000000D03*
X142000000Y-126500000D03*
X142000000Y-131000000D03*
X135750000Y-129000000D03*
X136500000Y-125000000D03*
X135000000Y-112000000D03*
X135000000Y-107000000D03*
D27*
X121750000Y-144500000D02*
X102500000Y-144500000D01*
X122448000Y-143802000D02*
X121750000Y-144500000D01*
X122698000Y-143802000D02*
X122448000Y-143802000D01*
X119500000Y-95500000D02*
X116000000Y-95500000D01*
X134500000Y-158500000D02*
X138000000Y-158500000D01*
X132960000Y-144460000D02*
X132960000Y-154700000D01*
X133000000Y-155000000D02*
X133000000Y-154700000D01*
X133000000Y-154740000D02*
X133000000Y-155000000D01*
X132960000Y-154700000D02*
X133000000Y-154740000D01*
X128000000Y-142500000D02*
X128000000Y-140000000D01*
X129960000Y-144460000D02*
X128000000Y-142500000D01*
X132960000Y-144460000D02*
X129960000Y-144460000D01*
X145460000Y-145810000D02*
X145460000Y-138190000D01*
X142000000Y-154700000D02*
X151570000Y-154700000D01*
X151570000Y-154700000D02*
X154960000Y-151310000D01*
X154960000Y-151310000D02*
X154960000Y-143690000D01*
X112250000Y-140000000D02*
X112250000Y-136250000D01*
X111060000Y-123190000D02*
X118500000Y-123190000D01*
X107750000Y-126500000D02*
X111060000Y-123190000D01*
X107750000Y-131750000D02*
X107750000Y-126500000D01*
X112250000Y-136250000D02*
X107750000Y-131750000D01*
D28*
X94500000Y-125500000D02*
X93750000Y-126250000D01*
X93750000Y-126250000D02*
X93750000Y-127000000D01*
D27*
X112000000Y-98800000D02*
X112200000Y-99000000D01*
X112200000Y-99000000D02*
X118500000Y-99000000D01*
D29*
X102500000Y-137500000D02*
X102500000Y-139750000D01*
D27*
X102750000Y-140000000D02*
X112250000Y-140000000D01*
X112250000Y-140000000D02*
X116250000Y-140000000D01*
D29*
X102500000Y-139750000D02*
X102750000Y-140000000D01*
D27*
X134500000Y-158500000D02*
X134500000Y-154700000D01*
X142000000Y-154700000D02*
X133000000Y-154700000D01*
X133000000Y-154700000D02*
X115300000Y-154700000D01*
X118500000Y-123190000D02*
X118500000Y-99000000D01*
X118500000Y-99000000D02*
X118500000Y-96500000D01*
X118500000Y-96500000D02*
X119500000Y-95500000D01*
D29*
X153000000Y-104000000D02*
X153000000Y-107500000D01*
X139000000Y-114000000D02*
X139000000Y-119000000D01*
X140500000Y-112500000D02*
X139000000Y-114000000D01*
X148000000Y-112500000D02*
X140500000Y-112500000D01*
X153000000Y-107500000D02*
X148000000Y-112500000D01*
D27*
X134500000Y-154700000D02*
X131750000Y-154700000D01*
D29*
X131750000Y-154700000D02*
X115300000Y-154700000D01*
X112620000Y-157380000D02*
X112620000Y-159400000D01*
X115300000Y-154700000D02*
X112620000Y-157380000D01*
D27*
X139000000Y-120500000D02*
X139000000Y-119000000D01*
X139500000Y-121000000D02*
X139000000Y-120500000D01*
X139500000Y-122000000D02*
X139500000Y-121000000D01*
X139750000Y-122250000D02*
X139500000Y-122000000D01*
X142000000Y-154700000D02*
X134500000Y-154700000D01*
D28*
X94500000Y-125500000D02*
X94500000Y-124250000D01*
X102500000Y-125000000D02*
X102500000Y-137500000D01*
X101250000Y-123750000D02*
X102500000Y-125000000D01*
X95000000Y-123750000D02*
X101250000Y-123750000D01*
X94500000Y-124250000D02*
X95000000Y-123750000D01*
X94500000Y-143500000D02*
X94500000Y-146500000D01*
X94500000Y-140500000D02*
X94500000Y-143500000D01*
X94500000Y-137500000D02*
X94500000Y-140500000D01*
X94500000Y-134500000D02*
X94500000Y-137500000D01*
X94500000Y-131500000D02*
X94500000Y-134500000D01*
X94500000Y-128500000D02*
X94500000Y-131500000D01*
X94500000Y-125500000D02*
X94500000Y-128500000D01*
X99750000Y-116500000D02*
X99750000Y-117250000D01*
X99750000Y-117250000D02*
X103000000Y-120500000D01*
X99580000Y-128500000D02*
X99580000Y-125500000D01*
X99750000Y-116500000D02*
X99750000Y-112500000D01*
D29*
X109940000Y-130810000D02*
X118500000Y-130810000D01*
X109750000Y-131000000D02*
X109940000Y-130810000D01*
D28*
X120000000Y-109250000D02*
X122000000Y-109250000D01*
X99750000Y-112500000D02*
X111000000Y-112500000D01*
D27*
X139000000Y-135000000D02*
X139000000Y-132000000D01*
X118500000Y-130810000D02*
X119690000Y-132000000D01*
X119690000Y-132000000D02*
X139000000Y-132000000D01*
D29*
X119190000Y-131500000D02*
X118500000Y-130810000D01*
X109750000Y-146500000D02*
X119250000Y-146500000D01*
X109750000Y-146500000D02*
X99580000Y-146500000D01*
X139000000Y-132000000D02*
X139000000Y-131500000D01*
X139000000Y-131500000D02*
X139000000Y-129500000D01*
X139000000Y-129500000D02*
X140000000Y-128500000D01*
X140000000Y-128500000D02*
X149000000Y-128500000D01*
D28*
X99500000Y-135000000D02*
X99580000Y-134920000D01*
X99580000Y-134920000D02*
X99580000Y-134500000D01*
X99580000Y-131500000D02*
X99580000Y-128500000D01*
X99580000Y-134500000D02*
X99580000Y-131500000D01*
X99580000Y-137500000D02*
X99580000Y-134500000D01*
X99580000Y-140500000D02*
X99580000Y-137500000D01*
X99580000Y-143500000D02*
X99580000Y-140500000D01*
X99580000Y-146500000D02*
X99580000Y-143500000D01*
X147000000Y-119000000D02*
X147000000Y-114000000D01*
X149000000Y-119000000D02*
X149000000Y-114000000D01*
X103750000Y-143000000D02*
X115000000Y-143000000D01*
X143000000Y-137750000D02*
X143000000Y-135000000D01*
X142250000Y-138500000D02*
X143000000Y-137750000D01*
X116250000Y-138500000D02*
X142250000Y-138500000D01*
X115250000Y-138500000D02*
X116250000Y-138500000D01*
X149000000Y-135000000D02*
X149000000Y-133250000D01*
X97250000Y-127250000D02*
X97040000Y-127460000D01*
X97040000Y-127460000D02*
X97040000Y-128500000D01*
X97040000Y-130290000D02*
X97040000Y-131500000D01*
X97000000Y-130250000D02*
X97040000Y-130290000D01*
X97040000Y-135710000D02*
X97040000Y-134500000D01*
X97000000Y-135750000D02*
X97040000Y-135710000D01*
X97000000Y-137000000D02*
X97040000Y-137040000D01*
X97040000Y-137040000D02*
X97040000Y-137500000D01*
X97040000Y-141540000D02*
X97040000Y-140500000D01*
X97250000Y-141750000D02*
X97040000Y-141540000D01*
X97040000Y-143500000D02*
X97040000Y-144290000D01*
X97040000Y-144290000D02*
X97500000Y-144750000D01*
X97250000Y-146250000D02*
X97040000Y-146460000D01*
X97040000Y-146460000D02*
X97040000Y-146500000D01*
X108250000Y-152000000D02*
X107500000Y-150500000D01*
X124500000Y-158500000D02*
X124000000Y-158500000D01*
X124000000Y-158500000D02*
X123000000Y-157500000D01*
X124500000Y-158500000D02*
X124500000Y-160000000D01*
X124500000Y-160000000D02*
X123250000Y-161250000D01*
X123250000Y-161250000D02*
X108250000Y-161250000D01*
X108250000Y-161250000D02*
X107540000Y-160540000D01*
X107540000Y-160540000D02*
X107540000Y-159400000D01*
X125000000Y-107250000D02*
X125000000Y-107000000D01*
X123500000Y-108750000D02*
X125000000Y-107250000D01*
X125000000Y-107000000D02*
X125000000Y-106750000D01*
X125000000Y-106750000D02*
X125000000Y-106000000D01*
X125000000Y-106000000D02*
X125000000Y-103000000D01*
X125000000Y-103000000D02*
X137000000Y-103000000D01*
X142840000Y-104000000D02*
X142840000Y-102160000D01*
X142840000Y-102160000D02*
X145000000Y-100000000D01*
X153000000Y-113000000D02*
X153000000Y-119000000D01*
X145000000Y-100000000D02*
X156000000Y-100000000D01*
X156000000Y-100000000D02*
X157000000Y-101000000D01*
X157000000Y-101000000D02*
X157000000Y-109000000D01*
X157000000Y-109000000D02*
X153000000Y-113000000D01*
X121750000Y-99250000D02*
X137250000Y-99250000D01*
X105000000Y-118750000D02*
X103000000Y-116750000D01*
X103000000Y-116750000D02*
X103000000Y-114750000D01*
X145380000Y-104000000D02*
X145380000Y-102620000D01*
X151000000Y-113000000D02*
X151000000Y-119000000D01*
X156000000Y-108000000D02*
X151000000Y-113000000D01*
X156000000Y-102000000D02*
X156000000Y-108000000D01*
X155000000Y-101000000D02*
X156000000Y-102000000D01*
X147000000Y-101000000D02*
X155000000Y-101000000D01*
X145380000Y-102620000D02*
X147000000Y-101000000D01*
X107000000Y-108000000D02*
X105500000Y-109500000D01*
X105500000Y-109500000D02*
X105000000Y-110000000D01*
X105000000Y-110000000D02*
X96750000Y-110000000D01*
X108750000Y-106250000D02*
X107000000Y-108000000D01*
X116000000Y-106250000D02*
X108750000Y-106250000D01*
X137000000Y-114000000D02*
X127750000Y-114000000D01*
X121250000Y-107500000D02*
X120000000Y-107500000D01*
X127750000Y-114000000D02*
X121250000Y-107500000D01*
D29*
X105000000Y-159400000D02*
X105000000Y-157500000D01*
X115000000Y-152500000D02*
X127000000Y-152500000D01*
X111000000Y-156500000D02*
X115000000Y-152500000D01*
X106000000Y-156500000D02*
X111000000Y-156500000D01*
X105000000Y-157500000D02*
X106000000Y-156500000D01*
X137000000Y-114000000D02*
X137000000Y-112000000D01*
X137000000Y-112000000D02*
X138000000Y-111000000D01*
X138000000Y-111000000D02*
X146000000Y-111000000D01*
D28*
X110750000Y-132000000D02*
X115500000Y-132000000D01*
X105750000Y-137250000D02*
X110750000Y-137250000D01*
X115500000Y-137250000D02*
X122500000Y-137250000D01*
X140500000Y-137250000D02*
X122500000Y-137250000D01*
X141000000Y-136750000D02*
X140500000Y-137250000D01*
X141000000Y-135000000D02*
X141000000Y-136750000D01*
X116000000Y-108000000D02*
X116000000Y-114250000D01*
X153000000Y-135000000D02*
X153000000Y-138500000D01*
X158190000Y-143690000D02*
X160040000Y-143690000D01*
X153000000Y-138500000D02*
X158190000Y-143690000D01*
X153000000Y-135000000D02*
X153000000Y-133250000D01*
X135000000Y-149250000D02*
X138750000Y-149250000D01*
X145500000Y-149250000D02*
X148000000Y-146750000D01*
X97750000Y-149250000D02*
X99250000Y-149250000D01*
X97250000Y-149750000D02*
X97750000Y-149250000D01*
X99250000Y-149250000D02*
X100000000Y-149250000D01*
X145500000Y-149250000D02*
X148000000Y-146750000D01*
X100000000Y-149250000D02*
X123750000Y-149250000D01*
X150000000Y-122500000D02*
X149000000Y-121500000D01*
X150000000Y-130000000D02*
X150000000Y-122500000D01*
X148750000Y-131250000D02*
X150000000Y-130000000D01*
X147500000Y-131250000D02*
X148750000Y-131250000D01*
X148000000Y-146750000D02*
X148000000Y-145750000D01*
X143000000Y-119000000D02*
X143000000Y-121500000D01*
X135000000Y-150750000D02*
X138750000Y-150750000D01*
X146500000Y-150750000D02*
X150540000Y-146710000D01*
X150540000Y-146710000D02*
X150540000Y-145810000D01*
X105000000Y-150750000D02*
X107250000Y-153000000D01*
X97250000Y-150750000D02*
X105000000Y-150750000D01*
X150540000Y-146710000D02*
X148250000Y-149000000D01*
X107250000Y-153000000D02*
X112250000Y-153000000D01*
X112250000Y-153000000D02*
X114500000Y-150750000D01*
X146500000Y-150750000D02*
X148250000Y-149000000D01*
X114500000Y-150750000D02*
X129500000Y-150750000D01*
X150540000Y-146710000D02*
X150540000Y-145810000D01*
X150540000Y-146460000D02*
X150540000Y-145810000D01*
X151000000Y-131250000D02*
X151000000Y-123000000D01*
X145000000Y-123000000D02*
X145000000Y-119000000D01*
X141000000Y-119000000D02*
X141000000Y-121500000D01*
X141500000Y-130000000D02*
X140750000Y-130000000D01*
X126230000Y-128270000D02*
X127000000Y-127500000D01*
X118500000Y-128270000D02*
X126230000Y-128270000D01*
X127000000Y-127500000D02*
X140750000Y-127500000D01*
X144250000Y-130000000D02*
X145500000Y-131250000D01*
X141500000Y-130000000D02*
X144250000Y-130000000D01*
X147000000Y-132750000D02*
X147000000Y-135000000D01*
X145500000Y-131250000D02*
X147000000Y-132750000D01*
X145000000Y-135000000D02*
X145000000Y-132750000D01*
X143250000Y-131000000D02*
X142000000Y-131000000D01*
X145000000Y-132750000D02*
X143250000Y-131000000D01*
X118500000Y-125730000D02*
X126230000Y-125730000D01*
X127000000Y-126500000D02*
X142000000Y-126500000D01*
X126230000Y-125730000D02*
X127000000Y-126500000D01*
X130500000Y-129500000D02*
X135250000Y-129500000D01*
X135250000Y-129500000D02*
X135750000Y-129000000D01*
X130500000Y-124500000D02*
X136000000Y-124500000D01*
X136000000Y-124500000D02*
X136500000Y-125000000D01*
X135000000Y-112000000D02*
X135000000Y-107000000D01*
D30*
G36*
X110660765Y-93334327D02*
X110362739Y-93626175D01*
X110127077Y-93970352D01*
X109962753Y-94353747D01*
X109876028Y-94761758D01*
X109870204Y-95178844D01*
X109945503Y-95589118D01*
X110099058Y-95976952D01*
X110325018Y-96327574D01*
X110614779Y-96627630D01*
X110957301Y-96865689D01*
X111339540Y-97032685D01*
X111746936Y-97122257D01*
X112163971Y-97130993D01*
X112574760Y-97058560D01*
X112963657Y-96907717D01*
X113315848Y-96684209D01*
X113617919Y-96396551D01*
X113646006Y-96356736D01*
X113685619Y-96399991D01*
X114585610Y-95500000D01*
X114123648Y-95038038D01*
X114127092Y-94791437D01*
X114046071Y-94382255D01*
X113887117Y-93996602D01*
X113656283Y-93649169D01*
X113362361Y-93353188D01*
X113101152Y-93177000D01*
X115109420Y-93177000D01*
X115100009Y-93185619D01*
X116000000Y-94085610D01*
X116899991Y-93185619D01*
X116890580Y-93177000D01*
X118126998Y-93177000D01*
X118126998Y-93655977D01*
X118120769Y-93664206D01*
X117982381Y-93949521D01*
X117936069Y-94126998D01*
X117882400Y-94126998D01*
X117882400Y-95031990D01*
X117414390Y-95500000D01*
X117882400Y-95968010D01*
X117882400Y-96873002D01*
X117936069Y-96873002D01*
X117982381Y-97050479D01*
X118120769Y-97335794D01*
X118312160Y-97588628D01*
X118549199Y-97799266D01*
X118769904Y-97934064D01*
X119004700Y-97864922D01*
X119004700Y-96490600D01*
X118509400Y-96490600D01*
X118509400Y-96187044D01*
X118564436Y-96126949D01*
X118637472Y-95614606D01*
X118609152Y-95097858D01*
X118564436Y-94873051D01*
X118509400Y-94812956D01*
X118509400Y-94509400D01*
X119004700Y-94509400D01*
X119004700Y-94107000D01*
X119995300Y-94107000D01*
X119995300Y-94509400D01*
X120490600Y-94509400D01*
X120490600Y-96490600D01*
X119995300Y-96490600D01*
X119995300Y-97864922D01*
X120230096Y-97934064D01*
X120450801Y-97799266D01*
X120687840Y-97588628D01*
X120879231Y-97335794D01*
X120969793Y-97149081D01*
X121099514Y-97476717D01*
X121325420Y-97827256D01*
X121366962Y-97870274D01*
X121345149Y-97874435D01*
X121085677Y-97979268D01*
X120851510Y-98132503D01*
X120651565Y-98328304D01*
X120493459Y-98559211D01*
X120383215Y-98816430D01*
X120325031Y-99090164D01*
X120321124Y-99369986D01*
X120371642Y-99645238D01*
X120474661Y-99905435D01*
X120626258Y-100140667D01*
X120820658Y-100341974D01*
X121050456Y-100501687D01*
X121306899Y-100613725D01*
X121580220Y-100673818D01*
X121860008Y-100679679D01*
X122135605Y-100631084D01*
X122396516Y-100529883D01*
X122440453Y-100502000D01*
X136551172Y-100502000D01*
X136806899Y-100613725D01*
X137080220Y-100673818D01*
X137360008Y-100679679D01*
X137635605Y-100631084D01*
X137896516Y-100529883D01*
X138132800Y-100379933D01*
X138335459Y-100186943D01*
X138496773Y-99958266D01*
X138610598Y-99702611D01*
X138672598Y-99429716D01*
X138677062Y-99110075D01*
X138622705Y-98835556D01*
X138519064Y-98584104D01*
X138845049Y-98526624D01*
X139416829Y-98304845D01*
X139934643Y-97976230D01*
X140378767Y-97553296D01*
X140732284Y-97052154D01*
X140981730Y-96491890D01*
X141117602Y-95893845D01*
X141127384Y-95193357D01*
X141008263Y-94591752D01*
X140774558Y-94024741D01*
X140435171Y-93513923D01*
X140100592Y-93177000D01*
X154873000Y-93177000D01*
X154873000Y-98748000D01*
X145000000Y-98748000D01*
X144884926Y-98759283D01*
X144769693Y-98769365D01*
X144763372Y-98771202D01*
X144756819Y-98771844D01*
X144646081Y-98805278D01*
X144535047Y-98837536D01*
X144529204Y-98840565D01*
X144522900Y-98842468D01*
X144420790Y-98896761D01*
X144318111Y-98949985D01*
X144312964Y-98954094D01*
X144307154Y-98957183D01*
X144217548Y-99030264D01*
X144127149Y-99102428D01*
X144117990Y-99111460D01*
X144117798Y-99111617D01*
X144117651Y-99111795D01*
X144114702Y-99114703D01*
X141954702Y-101274702D01*
X141881297Y-101364067D01*
X141806958Y-101452661D01*
X141803786Y-101458430D01*
X141799608Y-101463517D01*
X141744949Y-101565456D01*
X141689243Y-101666785D01*
X141687253Y-101673058D01*
X141684141Y-101678862D01*
X141650331Y-101789451D01*
X141615359Y-101899695D01*
X141614625Y-101906240D01*
X141612701Y-101912533D01*
X141601014Y-102027586D01*
X141588122Y-102142519D01*
X141588032Y-102155381D01*
X141588007Y-102155629D01*
X141588029Y-102155860D01*
X141588000Y-102160000D01*
X141588000Y-102301836D01*
X141569746Y-102316513D01*
X141413129Y-102186949D01*
X141071389Y-102002170D01*
X140700266Y-101887289D01*
X140313897Y-101846680D01*
X139926999Y-101881890D01*
X139554308Y-101991579D01*
X139210021Y-102171568D01*
X138907250Y-102415002D01*
X138657529Y-102712608D01*
X138470369Y-103053050D01*
X138403443Y-103264027D01*
X138422598Y-103179716D01*
X138427062Y-102860075D01*
X138372705Y-102585556D01*
X138266063Y-102326822D01*
X138111197Y-102093730D01*
X137914005Y-101895157D01*
X137682000Y-101738668D01*
X137424017Y-101630222D01*
X137149884Y-101573950D01*
X136870041Y-101571996D01*
X136595149Y-101624435D01*
X136335677Y-101729268D01*
X136307052Y-101748000D01*
X125695835Y-101748000D01*
X125682000Y-101738668D01*
X125424017Y-101630222D01*
X125149884Y-101573950D01*
X124870041Y-101571996D01*
X124595149Y-101624435D01*
X124335677Y-101729268D01*
X124101510Y-101882503D01*
X123901565Y-102078304D01*
X123743459Y-102309211D01*
X123633215Y-102566430D01*
X123575031Y-102840164D01*
X123571124Y-103119986D01*
X123621642Y-103395238D01*
X123724661Y-103655435D01*
X123748000Y-103691650D01*
X123748000Y-106731405D01*
X123107284Y-107372120D01*
X123095149Y-107374435D01*
X122952617Y-107432021D01*
X122135298Y-106614702D01*
X122045933Y-106541297D01*
X121957339Y-106466958D01*
X121951570Y-106463786D01*
X121946483Y-106459608D01*
X121844544Y-106404949D01*
X121743215Y-106349243D01*
X121736942Y-106347253D01*
X121731138Y-106344141D01*
X121620549Y-106310331D01*
X121510305Y-106275359D01*
X121503760Y-106274625D01*
X121497467Y-106272701D01*
X121382414Y-106261014D01*
X121267481Y-106248122D01*
X121254619Y-106248032D01*
X121254371Y-106248007D01*
X121254139Y-106248029D01*
X121250000Y-106248000D01*
X120695835Y-106248000D01*
X120682000Y-106238668D01*
X120424017Y-106130222D01*
X120149884Y-106073950D01*
X119870041Y-106071996D01*
X119595149Y-106124435D01*
X119335677Y-106229268D01*
X119101510Y-106382503D01*
X118901565Y-106578304D01*
X118743459Y-106809211D01*
X118633215Y-107066430D01*
X118575031Y-107340164D01*
X118571124Y-107619986D01*
X118621642Y-107895238D01*
X118724661Y-108155435D01*
X118867824Y-108377581D01*
X118743459Y-108559211D01*
X118633215Y-108816430D01*
X118575031Y-109090164D01*
X118571124Y-109369986D01*
X118621642Y-109645238D01*
X118724661Y-109905435D01*
X118876258Y-110140667D01*
X119070658Y-110341974D01*
X119300456Y-110501687D01*
X119556899Y-110613725D01*
X119830220Y-110673818D01*
X120110008Y-110679679D01*
X120385605Y-110631084D01*
X120646516Y-110529883D01*
X120690453Y-110502000D01*
X121301172Y-110502000D01*
X121556899Y-110613725D01*
X121830220Y-110673818D01*
X122110008Y-110679679D01*
X122385605Y-110631084D01*
X122547639Y-110568235D01*
X126864702Y-114885298D01*
X126954067Y-114958703D01*
X127042661Y-115033042D01*
X127048430Y-115036214D01*
X127053517Y-115040392D01*
X127155456Y-115095051D01*
X127256785Y-115150757D01*
X127263058Y-115152747D01*
X127268862Y-115155859D01*
X127379451Y-115189669D01*
X127489695Y-115224641D01*
X127496240Y-115225375D01*
X127502533Y-115227299D01*
X127617586Y-115238986D01*
X127732519Y-115251878D01*
X127745381Y-115251968D01*
X127745629Y-115251993D01*
X127745861Y-115251971D01*
X127750000Y-115252000D01*
X136301172Y-115252000D01*
X136556899Y-115363725D01*
X136830220Y-115423818D01*
X137110008Y-115429679D01*
X137385605Y-115381084D01*
X137646516Y-115279883D01*
X137882800Y-115129933D01*
X138085459Y-114936943D01*
X138246773Y-114708266D01*
X138360598Y-114452611D01*
X138422598Y-114179716D01*
X138424541Y-114040610D01*
X138426861Y-114019924D01*
X138427000Y-114000000D01*
X138427000Y-113864514D01*
X138427062Y-113860075D01*
X138427000Y-113859762D01*
X138427000Y-112591082D01*
X138591083Y-112427000D01*
X145982120Y-112427000D01*
X146110008Y-112429679D01*
X146385605Y-112381084D01*
X146646516Y-112279883D01*
X146882800Y-112129933D01*
X147085459Y-111936943D01*
X147246773Y-111708266D01*
X147360598Y-111452611D01*
X147422598Y-111179716D01*
X147424663Y-111031866D01*
X147426965Y-111009962D01*
X147425234Y-110990945D01*
X147427062Y-110860075D01*
X147372705Y-110585556D01*
X147266063Y-110326822D01*
X147111197Y-110093730D01*
X146914005Y-109895157D01*
X146682000Y-109738668D01*
X146424017Y-109630222D01*
X146149884Y-109573950D01*
X145870041Y-109571996D01*
X145864778Y-109573000D01*
X138000000Y-109573000D01*
X137868880Y-109585856D01*
X137737502Y-109597351D01*
X137730295Y-109599445D01*
X137722828Y-109600177D01*
X137596651Y-109638272D01*
X137470058Y-109675051D01*
X137463396Y-109678504D01*
X137456213Y-109680673D01*
X137339823Y-109742558D01*
X137222800Y-109803217D01*
X137216937Y-109807897D01*
X137210310Y-109811421D01*
X137108163Y-109894731D01*
X137005146Y-109976968D01*
X136994698Y-109987271D01*
X136994487Y-109987443D01*
X136994325Y-109987638D01*
X136990959Y-109990958D01*
X136252000Y-110729918D01*
X136252000Y-107696526D01*
X136360598Y-107452611D01*
X136422598Y-107179716D01*
X136427062Y-106860075D01*
X136372705Y-106585556D01*
X136266063Y-106326822D01*
X136111197Y-106093730D01*
X135914005Y-105895157D01*
X135682000Y-105738668D01*
X135424017Y-105630222D01*
X135149884Y-105573950D01*
X134870041Y-105571996D01*
X134595149Y-105624435D01*
X134335677Y-105729268D01*
X134101510Y-105882503D01*
X133901565Y-106078304D01*
X133743459Y-106309211D01*
X133633215Y-106566430D01*
X133575031Y-106840164D01*
X133571124Y-107119986D01*
X133621642Y-107395238D01*
X133724661Y-107655435D01*
X133748000Y-107691650D01*
X133748000Y-111302579D01*
X133743459Y-111309211D01*
X133633215Y-111566430D01*
X133575031Y-111840164D01*
X133571124Y-112119986D01*
X133621642Y-112395238D01*
X133724661Y-112655435D01*
X133784315Y-112748000D01*
X128268596Y-112748000D01*
X124818272Y-109297676D01*
X124860598Y-109202611D01*
X124873126Y-109147470D01*
X125885297Y-108135298D01*
X125958678Y-108045962D01*
X126033042Y-107957339D01*
X126036214Y-107951570D01*
X126040392Y-107946483D01*
X126095051Y-107844544D01*
X126150757Y-107743215D01*
X126152747Y-107736942D01*
X126155859Y-107731138D01*
X126189669Y-107620549D01*
X126224641Y-107510305D01*
X126225375Y-107503760D01*
X126227299Y-107497467D01*
X126238981Y-107382459D01*
X126251878Y-107267481D01*
X126251968Y-107254609D01*
X126251992Y-107254371D01*
X126251971Y-107254149D01*
X126252000Y-107250000D01*
X126252000Y-104252000D01*
X136301172Y-104252000D01*
X136556899Y-104363725D01*
X136830220Y-104423818D01*
X137110008Y-104429679D01*
X137385605Y-104381084D01*
X137646516Y-104279883D01*
X137882800Y-104129933D01*
X138085459Y-103936943D01*
X138246773Y-103708266D01*
X138345921Y-103485577D01*
X138309594Y-103809438D01*
X138309400Y-103837231D01*
X138309400Y-104162769D01*
X138347311Y-104549412D01*
X138459599Y-104921328D01*
X138641987Y-105264350D01*
X138887528Y-105565414D01*
X139186871Y-105813051D01*
X139528611Y-105997830D01*
X139899734Y-106112711D01*
X140286103Y-106153320D01*
X140673001Y-106118110D01*
X141045692Y-106008421D01*
X141389979Y-105828432D01*
X141570254Y-105683487D01*
X141726871Y-105813051D01*
X142068611Y-105997830D01*
X142439734Y-106112711D01*
X142826103Y-106153320D01*
X143213001Y-106118110D01*
X143585692Y-106008421D01*
X143929979Y-105828432D01*
X144110254Y-105683487D01*
X144266871Y-105813051D01*
X144608611Y-105997830D01*
X144979734Y-106112711D01*
X145366103Y-106153320D01*
X145753001Y-106118110D01*
X146125692Y-106008421D01*
X146469979Y-105828432D01*
X146650254Y-105683487D01*
X146806871Y-105813051D01*
X147148611Y-105997830D01*
X147519734Y-106112711D01*
X147906103Y-106153320D01*
X148293001Y-106118110D01*
X148665692Y-106008421D01*
X149009979Y-105828432D01*
X149190254Y-105683487D01*
X149346871Y-105813051D01*
X149688611Y-105997830D01*
X150059734Y-106112711D01*
X150446103Y-106153320D01*
X150833001Y-106118110D01*
X151205692Y-106008421D01*
X151549979Y-105828432D01*
X151852750Y-105584998D01*
X151857625Y-105579188D01*
X151953511Y-105618905D01*
X152074646Y-105643000D01*
X152411450Y-105643000D01*
X152568200Y-105486250D01*
X152568200Y-104508000D01*
X153431800Y-104508000D01*
X153431800Y-105486250D01*
X153588550Y-105643000D01*
X153925354Y-105643000D01*
X154046489Y-105618905D01*
X154160596Y-105571640D01*
X154263289Y-105503023D01*
X154350623Y-105415689D01*
X154419240Y-105312996D01*
X154466505Y-105198889D01*
X154490600Y-105077754D01*
X154490600Y-104664750D01*
X154333850Y-104508000D01*
X153431800Y-104508000D01*
X152568200Y-104508000D01*
X152414800Y-104508000D01*
X152450406Y-104190562D01*
X152450600Y-104162769D01*
X152450600Y-103837231D01*
X152416750Y-103492000D01*
X152568200Y-103492000D01*
X152568200Y-102513750D01*
X153431800Y-102513750D01*
X153431800Y-103492000D01*
X154333850Y-103492000D01*
X154490600Y-103335250D01*
X154490600Y-102922246D01*
X154466505Y-102801111D01*
X154419240Y-102687004D01*
X154350623Y-102584311D01*
X154263289Y-102496977D01*
X154160596Y-102428360D01*
X154046489Y-102381095D01*
X153925354Y-102357000D01*
X153588550Y-102357000D01*
X153431800Y-102513750D01*
X152568200Y-102513750D01*
X152411450Y-102357000D01*
X152074646Y-102357000D01*
X151953511Y-102381095D01*
X151856424Y-102421310D01*
X151651762Y-102252000D01*
X154481404Y-102252000D01*
X154748000Y-102518595D01*
X154748000Y-107481404D01*
X150114702Y-112114702D01*
X150041297Y-112204067D01*
X149966958Y-112292661D01*
X149963786Y-112298430D01*
X149959608Y-112303517D01*
X149904949Y-112405456D01*
X149849243Y-112506785D01*
X149847253Y-112513058D01*
X149844141Y-112518862D01*
X149810331Y-112629451D01*
X149775359Y-112739695D01*
X149774625Y-112746240D01*
X149772701Y-112752533D01*
X149768203Y-112796813D01*
X149682000Y-112738668D01*
X149424017Y-112630222D01*
X149149884Y-112573950D01*
X148870041Y-112571996D01*
X148595149Y-112624435D01*
X148335677Y-112729268D01*
X148101510Y-112882503D01*
X148000078Y-112981833D01*
X147914005Y-112895157D01*
X147682000Y-112738668D01*
X147424017Y-112630222D01*
X147149884Y-112573950D01*
X146870041Y-112571996D01*
X146595149Y-112624435D01*
X146335677Y-112729268D01*
X146101510Y-112882503D01*
X145901565Y-113078304D01*
X145743459Y-113309211D01*
X145633215Y-113566430D01*
X145575031Y-113840164D01*
X145571124Y-114119986D01*
X145621642Y-114395238D01*
X145724661Y-114655435D01*
X145748000Y-114691650D01*
X145748000Y-116845838D01*
X145649864Y-116792776D01*
X145337208Y-116695993D01*
X145011708Y-116661782D01*
X144685762Y-116691445D01*
X144371785Y-116783854D01*
X144081736Y-116935487D01*
X144000782Y-117000576D01*
X143937766Y-116948445D01*
X143649864Y-116792776D01*
X143337208Y-116695993D01*
X143011708Y-116661782D01*
X142685762Y-116691445D01*
X142371785Y-116783854D01*
X142081736Y-116935487D01*
X142000782Y-117000576D01*
X141937766Y-116948445D01*
X141649864Y-116792776D01*
X141337208Y-116695993D01*
X141011708Y-116661782D01*
X140685762Y-116691445D01*
X140371785Y-116783854D01*
X140081736Y-116935487D01*
X139826665Y-117140570D01*
X139645627Y-117356323D01*
X139543476Y-117290538D01*
X139450641Y-117262686D01*
X139275000Y-117367511D01*
X139275000Y-118400000D01*
X139323000Y-118400000D01*
X139323000Y-119600000D01*
X139275000Y-119600000D01*
X139275000Y-120632489D01*
X139450641Y-120737314D01*
X139543476Y-120709462D01*
X139646883Y-120642868D01*
X139748000Y-120766850D01*
X139748000Y-120802579D01*
X139743459Y-120809211D01*
X139633215Y-121066430D01*
X139575031Y-121340164D01*
X139571124Y-121619986D01*
X139621642Y-121895238D01*
X139724661Y-122155435D01*
X139876258Y-122390667D01*
X140070658Y-122591974D01*
X140300456Y-122751687D01*
X140556899Y-122863725D01*
X140830220Y-122923818D01*
X141110008Y-122929679D01*
X141385605Y-122881084D01*
X141646516Y-122779883D01*
X141882800Y-122629933D01*
X141999758Y-122518555D01*
X142070658Y-122591974D01*
X142300456Y-122751687D01*
X142556899Y-122863725D01*
X142830220Y-122923818D01*
X143110008Y-122929679D01*
X143385605Y-122881084D01*
X143582572Y-122804685D01*
X143575031Y-122840164D01*
X143571124Y-123119986D01*
X143621642Y-123395238D01*
X143724661Y-123655435D01*
X143876258Y-123890667D01*
X144070658Y-124091974D01*
X144300456Y-124251687D01*
X144556899Y-124363725D01*
X144830220Y-124423818D01*
X145110008Y-124429679D01*
X145385605Y-124381084D01*
X145646516Y-124279883D01*
X145882800Y-124129933D01*
X146085459Y-123936943D01*
X146246773Y-123708266D01*
X146360598Y-123452611D01*
X146422598Y-123179716D01*
X146427062Y-122860075D01*
X146372705Y-122585556D01*
X146266063Y-122326822D01*
X146252000Y-122305655D01*
X146252000Y-121154162D01*
X146350136Y-121207224D01*
X146662792Y-121304007D01*
X146988292Y-121338218D01*
X147314238Y-121308555D01*
X147599602Y-121224567D01*
X147575031Y-121340164D01*
X147571124Y-121619986D01*
X147621642Y-121895238D01*
X147724661Y-122155435D01*
X147876258Y-122390667D01*
X148070658Y-122591974D01*
X148300456Y-122751687D01*
X148556899Y-122863725D01*
X148603340Y-122873936D01*
X148748000Y-123018595D01*
X148748000Y-127073000D01*
X143306997Y-127073000D01*
X143360598Y-126952611D01*
X143422598Y-126679716D01*
X143427062Y-126360075D01*
X143372705Y-126085556D01*
X143266063Y-125826822D01*
X143111197Y-125593730D01*
X142914005Y-125395157D01*
X142682000Y-125238668D01*
X142424017Y-125130222D01*
X142149884Y-125073950D01*
X141870041Y-125071996D01*
X141595149Y-125124435D01*
X141335677Y-125229268D01*
X141307052Y-125248000D01*
X137907084Y-125248000D01*
X137922598Y-125179716D01*
X137927062Y-124860075D01*
X137872705Y-124585556D01*
X137766063Y-124326822D01*
X137611197Y-124093730D01*
X137414005Y-123895157D01*
X137182000Y-123738668D01*
X136924017Y-123630222D01*
X136894826Y-123624230D01*
X136885298Y-123614702D01*
X136795933Y-123541297D01*
X136707339Y-123466958D01*
X136701570Y-123463786D01*
X136696483Y-123459608D01*
X136594544Y-123404949D01*
X136493215Y-123349243D01*
X136486942Y-123347253D01*
X136481138Y-123344141D01*
X136370549Y-123310331D01*
X136260305Y-123275359D01*
X136253760Y-123274625D01*
X136247467Y-123272701D01*
X136132414Y-123261014D01*
X136017481Y-123248122D01*
X136004619Y-123248032D01*
X136004371Y-123248007D01*
X136004139Y-123248029D01*
X136000000Y-123248000D01*
X133203215Y-123248000D01*
X133018606Y-123018393D01*
X132702013Y-122752740D01*
X132339850Y-122553639D01*
X131945913Y-122428675D01*
X131535205Y-122382606D01*
X131505639Y-122382400D01*
X129494361Y-122382400D01*
X129083050Y-122422729D01*
X128687406Y-122542181D01*
X128322499Y-122736206D01*
X128002228Y-122997413D01*
X127738791Y-123315853D01*
X127542224Y-123679397D01*
X127420012Y-124074197D01*
X127376813Y-124485216D01*
X127414270Y-124896799D01*
X127517232Y-125246637D01*
X127115298Y-124844702D01*
X127025933Y-124771297D01*
X126937339Y-124696958D01*
X126931570Y-124693786D01*
X126926483Y-124689608D01*
X126824544Y-124634949D01*
X126723215Y-124579243D01*
X126716942Y-124577253D01*
X126711138Y-124574141D01*
X126600549Y-124540331D01*
X126490305Y-124505359D01*
X126483760Y-124504625D01*
X126477467Y-124502701D01*
X126362414Y-124491014D01*
X126247481Y-124478122D01*
X126234619Y-124478032D01*
X126234371Y-124478007D01*
X126234139Y-124478029D01*
X126230000Y-124478000D01*
X120945978Y-124478000D01*
X120812094Y-124311482D01*
X120561512Y-124101218D01*
X120594377Y-124062966D01*
X120720802Y-123862999D01*
X120644261Y-123640215D01*
X119375030Y-123640215D01*
X119375030Y-123702650D01*
X119363551Y-123702570D01*
X117636449Y-123702570D01*
X117624970Y-123703696D01*
X117624970Y-123640215D01*
X116355739Y-123640215D01*
X116279198Y-123862999D01*
X116405623Y-124062966D01*
X116439536Y-124102438D01*
X116207852Y-124291395D01*
X115955633Y-124596276D01*
X115767436Y-124944339D01*
X115650429Y-125322329D01*
X115609068Y-125715846D01*
X115644930Y-126109902D01*
X115756649Y-126489489D01*
X115939968Y-126840146D01*
X116068433Y-126999924D01*
X115955633Y-127136276D01*
X115767436Y-127484339D01*
X115650429Y-127862329D01*
X115609068Y-128255846D01*
X115644930Y-128649902D01*
X115756649Y-129029489D01*
X115939968Y-129380146D01*
X115942263Y-129383000D01*
X109940000Y-129383000D01*
X109808880Y-129395856D01*
X109677502Y-129407351D01*
X109670295Y-129409445D01*
X109662828Y-129410177D01*
X109536651Y-129448272D01*
X109410058Y-129485051D01*
X109403396Y-129488504D01*
X109396213Y-129490673D01*
X109279823Y-129552558D01*
X109162800Y-129613217D01*
X109156937Y-129617897D01*
X109150310Y-129621421D01*
X109048163Y-129704731D01*
X108945146Y-129786968D01*
X108934698Y-129797271D01*
X108934487Y-129797443D01*
X108934325Y-129797638D01*
X108930959Y-129800958D01*
X108750425Y-129981493D01*
X108651565Y-130078304D01*
X108493459Y-130309211D01*
X108383215Y-130566430D01*
X108325031Y-130840164D01*
X108321124Y-131119986D01*
X108371642Y-131395238D01*
X108474661Y-131655435D01*
X108626258Y-131890667D01*
X108820658Y-132091974D01*
X109050456Y-132251687D01*
X109306899Y-132363725D01*
X109368337Y-132377233D01*
X109371642Y-132395238D01*
X109474661Y-132655435D01*
X109626258Y-132890667D01*
X109820658Y-133091974D01*
X110050456Y-133251687D01*
X110306899Y-133363725D01*
X110580220Y-133423818D01*
X110860008Y-133429679D01*
X111135605Y-133381084D01*
X111396516Y-133279883D01*
X111440453Y-133252000D01*
X114801172Y-133252000D01*
X115056899Y-133363725D01*
X115330220Y-133423818D01*
X115610008Y-133429679D01*
X115885605Y-133381084D01*
X116146516Y-133279883D01*
X116382800Y-133129933D01*
X116585459Y-132936943D01*
X116746773Y-132708266D01*
X116777105Y-132640138D01*
X116837759Y-132673483D01*
X117214923Y-132793126D01*
X117608142Y-132837232D01*
X117636449Y-132837430D01*
X118297216Y-132837430D01*
X118574893Y-133115107D01*
X118687455Y-133207567D01*
X118799047Y-133301204D01*
X118806313Y-133305198D01*
X118812722Y-133310463D01*
X118941128Y-133379313D01*
X119068754Y-133449476D01*
X119076657Y-133451983D01*
X119083966Y-133455902D01*
X119223239Y-133498482D01*
X119362123Y-133542539D01*
X119370368Y-133543464D01*
X119378294Y-133545887D01*
X119523177Y-133560604D01*
X119667982Y-133576846D01*
X119684194Y-133576959D01*
X119684495Y-133576990D01*
X119684776Y-133576963D01*
X119690000Y-133577000D01*
X128183754Y-133577000D01*
X128065936Y-133769904D01*
X128135078Y-134004700D01*
X129509400Y-134004700D01*
X129509400Y-133577000D01*
X131490600Y-133577000D01*
X131490600Y-134004700D01*
X132864922Y-134004700D01*
X132934064Y-133769904D01*
X132816246Y-133577000D01*
X137423000Y-133577000D01*
X137423000Y-133790357D01*
X137359646Y-133990073D01*
X137323163Y-134315326D01*
X137323000Y-134338741D01*
X137323000Y-135661259D01*
X137354938Y-135986990D01*
X137358262Y-135998000D01*
X132090928Y-135998000D01*
X132335794Y-135879231D01*
X132588628Y-135687840D01*
X132799266Y-135450801D01*
X132934064Y-135230096D01*
X132864922Y-134995300D01*
X131490600Y-134995300D01*
X131490600Y-135490600D01*
X129509400Y-135490600D01*
X129509400Y-134995300D01*
X128135078Y-134995300D01*
X128065936Y-135230096D01*
X128200734Y-135450801D01*
X128411372Y-135687840D01*
X128664206Y-135879231D01*
X128909072Y-135998000D01*
X116195835Y-135998000D01*
X116182000Y-135988668D01*
X115924017Y-135880222D01*
X115649884Y-135823950D01*
X115370041Y-135821996D01*
X115095149Y-135874435D01*
X114835677Y-135979268D01*
X114601510Y-136132503D01*
X114401565Y-136328304D01*
X114243459Y-136559211D01*
X114133215Y-136816430D01*
X114075031Y-137090164D01*
X114071124Y-137369986D01*
X114118279Y-137626916D01*
X113993459Y-137809211D01*
X113883215Y-138066430D01*
X113825031Y-138340164D01*
X113821124Y-138619986D01*
X113871642Y-138895238D01*
X113974661Y-139155435D01*
X114126258Y-139390667D01*
X114320658Y-139591974D01*
X114550456Y-139751687D01*
X114806899Y-139863725D01*
X115080220Y-139923818D01*
X115360008Y-139929679D01*
X115635605Y-139881084D01*
X115896516Y-139779883D01*
X115940453Y-139752000D01*
X142250000Y-139752000D01*
X142365074Y-139740717D01*
X142480307Y-139730635D01*
X142486628Y-139728799D01*
X142493181Y-139728156D01*
X142603932Y-139694718D01*
X142714952Y-139662464D01*
X142720794Y-139659436D01*
X142727100Y-139657532D01*
X142829228Y-139603229D01*
X142931889Y-139550015D01*
X142937036Y-139545906D01*
X142942846Y-139542817D01*
X142962080Y-139527130D01*
X144829977Y-139527130D01*
X144949599Y-139743157D01*
X145262412Y-139812888D01*
X145582818Y-139820252D01*
X145898504Y-139764967D01*
X145970401Y-139743157D01*
X146090023Y-139527130D01*
X145460000Y-138897107D01*
X144829977Y-139527130D01*
X142962080Y-139527130D01*
X143032477Y-139469717D01*
X143122850Y-139397572D01*
X143132013Y-139388537D01*
X143132202Y-139388383D01*
X143132347Y-139388208D01*
X143135298Y-139385298D01*
X143885298Y-138635298D01*
X143886610Y-138633701D01*
X143906843Y-138700401D01*
X144122870Y-138820023D01*
X144752893Y-138190000D01*
X144399340Y-137836447D01*
X144906196Y-137329590D01*
X144988292Y-137338218D01*
X145288046Y-137310939D01*
X145460000Y-137482893D01*
X145813554Y-137129340D01*
X146520661Y-137836447D01*
X146167107Y-138190000D01*
X146797130Y-138820023D01*
X147013157Y-138700401D01*
X147080867Y-138396653D01*
X147137966Y-138453752D01*
X147586454Y-138005264D01*
X146911318Y-137330128D01*
X146988292Y-137338218D01*
X147314238Y-137308555D01*
X147628215Y-137216146D01*
X147918264Y-137064513D01*
X147999218Y-136999424D01*
X148062234Y-137051555D01*
X148350136Y-137207224D01*
X148612216Y-137288351D01*
X148502753Y-137543747D01*
X148416028Y-137951758D01*
X148410204Y-138368844D01*
X148485503Y-138779118D01*
X148639058Y-139166952D01*
X148865018Y-139517574D01*
X149154779Y-139817630D01*
X149497301Y-140055689D01*
X149879540Y-140222685D01*
X150286936Y-140312257D01*
X150703971Y-140320993D01*
X151114760Y-140248560D01*
X151503657Y-140097717D01*
X151855848Y-139874209D01*
X152157919Y-139586551D01*
X152223288Y-139493884D01*
X154718843Y-141989439D01*
X154696248Y-142012034D01*
X154757855Y-142073641D01*
X154521496Y-142115033D01*
X154449599Y-142136843D01*
X154329977Y-142352870D01*
X154873000Y-142895893D01*
X154873000Y-144484107D01*
X154329977Y-145027130D01*
X154449599Y-145243157D01*
X154753347Y-145310867D01*
X154696248Y-145367966D01*
X154873000Y-145544718D01*
X154873000Y-149455282D01*
X154696248Y-149632034D01*
X154757854Y-149693640D01*
X154521496Y-149735033D01*
X154449599Y-149756843D01*
X154329977Y-149972870D01*
X154873000Y-150515893D01*
X154873000Y-152104107D01*
X154329977Y-152647130D01*
X154449599Y-152863157D01*
X154753347Y-152930867D01*
X154696248Y-152987966D01*
X154873000Y-153164718D01*
X154873000Y-160823000D01*
X138890580Y-160823000D01*
X138899991Y-160814381D01*
X138000000Y-159914390D01*
X137100009Y-160814381D01*
X137109420Y-160823000D01*
X135873002Y-160823000D01*
X135873002Y-160344023D01*
X135879231Y-160335794D01*
X136017619Y-160050479D01*
X136063931Y-159873002D01*
X136117600Y-159873002D01*
X136117600Y-158968010D01*
X136585610Y-158500000D01*
X139414390Y-158500000D01*
X139932464Y-159018074D01*
X139945503Y-159089118D01*
X140099058Y-159476952D01*
X140325018Y-159827574D01*
X140614779Y-160127630D01*
X140957301Y-160365689D01*
X141339540Y-160532685D01*
X141746936Y-160622257D01*
X142163971Y-160630993D01*
X142574760Y-160558560D01*
X142963657Y-160407717D01*
X143315848Y-160184209D01*
X143617919Y-159896551D01*
X143858365Y-159555698D01*
X144028025Y-159174634D01*
X144120439Y-158767874D01*
X144127092Y-158291437D01*
X144046071Y-157882255D01*
X143887117Y-157496602D01*
X143656283Y-157149169D01*
X143362361Y-156853188D01*
X143016548Y-156619934D01*
X142632014Y-156458291D01*
X142223408Y-156374416D01*
X141806292Y-156371504D01*
X141396554Y-156449666D01*
X141009801Y-156605924D01*
X140660765Y-156834327D01*
X140362739Y-157126175D01*
X140127077Y-157470352D01*
X139962753Y-157853747D01*
X139936329Y-157978061D01*
X139414390Y-158500000D01*
X136585610Y-158500000D01*
X136117600Y-158031990D01*
X136117600Y-157126998D01*
X136063931Y-157126998D01*
X136017619Y-156949521D01*
X135879231Y-156664206D01*
X135687840Y-156411372D01*
X135450801Y-156200734D01*
X135426054Y-156185619D01*
X137100009Y-156185619D01*
X138000000Y-157085610D01*
X138899991Y-156185619D01*
X138626949Y-155935564D01*
X138114606Y-155862528D01*
X137597858Y-155890848D01*
X137373051Y-155935564D01*
X137100009Y-156185619D01*
X135426054Y-156185619D01*
X135230096Y-156065936D01*
X134995300Y-156135078D01*
X134995300Y-157509400D01*
X135490600Y-157509400D01*
X135490600Y-157812956D01*
X135435564Y-157873051D01*
X135362528Y-158385394D01*
X135390848Y-158902142D01*
X135435564Y-159126949D01*
X135490600Y-159187044D01*
X135490600Y-159490600D01*
X134995300Y-159490600D01*
X134995300Y-159893000D01*
X134004700Y-159893000D01*
X134004700Y-159490600D01*
X133509400Y-159490600D01*
X133509400Y-157509400D01*
X134004700Y-157509400D01*
X134004700Y-156135078D01*
X133769904Y-156065936D01*
X133549199Y-156200734D01*
X133312160Y-156411372D01*
X133120769Y-156664206D01*
X133031502Y-156848248D01*
X132886664Y-156496843D01*
X132655885Y-156149493D01*
X132362034Y-155853583D01*
X132016304Y-155620385D01*
X131631863Y-155458781D01*
X131223354Y-155374926D01*
X130806338Y-155372015D01*
X130396699Y-155450158D01*
X130234669Y-155515623D01*
X129925803Y-155420012D01*
X129514784Y-155376813D01*
X129103201Y-155414270D01*
X128706733Y-155530956D01*
X128340480Y-155722429D01*
X128018393Y-155981394D01*
X127752740Y-156297987D01*
X127553639Y-156660150D01*
X127428675Y-157054087D01*
X127382606Y-157464795D01*
X127382400Y-157494361D01*
X127382400Y-159505639D01*
X127422729Y-159916950D01*
X127542181Y-160312594D01*
X127736206Y-160677501D01*
X127854872Y-160823000D01*
X126145740Y-160823000D01*
X126247260Y-160702013D01*
X126446361Y-160339850D01*
X126571325Y-159945913D01*
X126617394Y-159535205D01*
X126617600Y-159505639D01*
X126617600Y-157494361D01*
X126577271Y-157083050D01*
X126457819Y-156687406D01*
X126263794Y-156322499D01*
X126002587Y-156002228D01*
X125684147Y-155738791D01*
X125320603Y-155542224D01*
X124925803Y-155420012D01*
X124514784Y-155376813D01*
X124103201Y-155414270D01*
X123763686Y-155514194D01*
X123631863Y-155458781D01*
X123223354Y-155374926D01*
X122806338Y-155372015D01*
X122396699Y-155450158D01*
X122010039Y-155606379D01*
X121661086Y-155834727D01*
X121363132Y-156126505D01*
X121244843Y-156299262D01*
X121002587Y-156002228D01*
X120684147Y-155738791D01*
X120320603Y-155542224D01*
X119925803Y-155420012D01*
X119514784Y-155376813D01*
X119103201Y-155414270D01*
X118706733Y-155530956D01*
X118340480Y-155722429D01*
X118018393Y-155981394D01*
X117960672Y-156050184D01*
X117494592Y-155735809D01*
X116929227Y-155498151D01*
X116328468Y-155374833D01*
X115715198Y-155370552D01*
X115112776Y-155485470D01*
X114544147Y-155715211D01*
X114030972Y-156051023D01*
X113592796Y-156480116D01*
X113246311Y-156986146D01*
X113004712Y-157549839D01*
X112877203Y-158149722D01*
X112868640Y-158762948D01*
X112979350Y-159366158D01*
X113205115Y-159936376D01*
X113230007Y-159975000D01*
X113020000Y-159975000D01*
X113020000Y-159998000D01*
X112220000Y-159998000D01*
X112220000Y-159975000D01*
X111985828Y-159975000D01*
X112006812Y-159787922D01*
X112007000Y-159761017D01*
X112007000Y-159038983D01*
X111986019Y-158825000D01*
X112220000Y-158825000D01*
X112220000Y-157844374D01*
X112010642Y-157759646D01*
X111990336Y-157800549D01*
X111758679Y-157947398D01*
X111700912Y-158002449D01*
X111685039Y-157972597D01*
X111555120Y-157813301D01*
X111660177Y-157757442D01*
X111777200Y-157696783D01*
X111783063Y-157692103D01*
X111789690Y-157688579D01*
X111891843Y-157605264D01*
X111994855Y-157523031D01*
X112005298Y-157512733D01*
X112005513Y-157512557D01*
X112005678Y-157512357D01*
X112009041Y-157509041D01*
X114161332Y-155356750D01*
X140373000Y-155356750D01*
X140373000Y-155761754D01*
X140397095Y-155882889D01*
X140444360Y-155996996D01*
X140512977Y-156099689D01*
X140600311Y-156187023D01*
X140703004Y-156255640D01*
X140817111Y-156302905D01*
X140938246Y-156327000D01*
X141343250Y-156327000D01*
X141500000Y-156170250D01*
X141500000Y-155200000D01*
X142500000Y-155200000D01*
X142500000Y-156170250D01*
X142656750Y-156327000D01*
X143061754Y-156327000D01*
X143182889Y-156302905D01*
X143296996Y-156255640D01*
X143399689Y-156187023D01*
X143487023Y-156099689D01*
X143555640Y-155996996D01*
X143602905Y-155882889D01*
X143627000Y-155761754D01*
X143627000Y-155356750D01*
X143470250Y-155200000D01*
X142500000Y-155200000D01*
X141500000Y-155200000D01*
X140529750Y-155200000D01*
X140373000Y-155356750D01*
X114161332Y-155356750D01*
X115591083Y-153927000D01*
X126982120Y-153927000D01*
X127110008Y-153929679D01*
X127385605Y-153881084D01*
X127646516Y-153779883D01*
X127869700Y-153638246D01*
X140373000Y-153638246D01*
X140373000Y-154043250D01*
X140529750Y-154200000D01*
X141500000Y-154200000D01*
X141500000Y-153229750D01*
X142500000Y-153229750D01*
X142500000Y-154200000D01*
X143470250Y-154200000D01*
X143627000Y-154043250D01*
X143627000Y-153638246D01*
X143602905Y-153517111D01*
X143555640Y-153403004D01*
X143487023Y-153300311D01*
X143399689Y-153212977D01*
X143296996Y-153144360D01*
X143182889Y-153097095D01*
X143061754Y-153073000D01*
X142656750Y-153073000D01*
X142500000Y-153229750D01*
X141500000Y-153229750D01*
X141343250Y-153073000D01*
X140938246Y-153073000D01*
X140817111Y-153097095D01*
X140703004Y-153144360D01*
X140600311Y-153212977D01*
X140512977Y-153300311D01*
X140444360Y-153403004D01*
X140397095Y-153517111D01*
X140373000Y-153638246D01*
X127869700Y-153638246D01*
X127882800Y-153629933D01*
X128085459Y-153436943D01*
X128246773Y-153208266D01*
X128360598Y-152952611D01*
X128422598Y-152679716D01*
X128424663Y-152531866D01*
X128426965Y-152509962D01*
X128425234Y-152490945D01*
X128427062Y-152360075D01*
X128372705Y-152085556D01*
X128338266Y-152002000D01*
X128801172Y-152002000D01*
X129056899Y-152113725D01*
X129330220Y-152173818D01*
X129610008Y-152179679D01*
X129885605Y-152131084D01*
X130146516Y-152029883D01*
X130382800Y-151879933D01*
X130585459Y-151686943D01*
X130746773Y-151458266D01*
X130860598Y-151202611D01*
X130922598Y-150929716D01*
X130927062Y-150610075D01*
X130872705Y-150335556D01*
X130766063Y-150076822D01*
X130611197Y-149843730D01*
X130414005Y-149645157D01*
X130182000Y-149488668D01*
X129924017Y-149380222D01*
X129649884Y-149323950D01*
X129370041Y-149321996D01*
X129095149Y-149374435D01*
X128835677Y-149479268D01*
X128807052Y-149498000D01*
X125157084Y-149498000D01*
X125172598Y-149429716D01*
X125177062Y-149110075D01*
X125122705Y-148835556D01*
X125016063Y-148576822D01*
X124861197Y-148343730D01*
X124664005Y-148145157D01*
X124432000Y-147988668D01*
X124174017Y-147880222D01*
X123899884Y-147823950D01*
X123620041Y-147821996D01*
X123345149Y-147874435D01*
X123085677Y-147979268D01*
X123057052Y-147998000D01*
X101592562Y-147998000D01*
X101624567Y-147927000D01*
X109732120Y-147927000D01*
X109860008Y-147929679D01*
X109875201Y-147927000D01*
X119232120Y-147927000D01*
X119360008Y-147929679D01*
X119635605Y-147881084D01*
X119896516Y-147779883D01*
X120132800Y-147629933D01*
X120335459Y-147436943D01*
X120496773Y-147208266D01*
X120596108Y-146985154D01*
X127780472Y-146985154D01*
X127818086Y-147398464D01*
X127935263Y-147796597D01*
X128127539Y-148164388D01*
X128387591Y-148487827D01*
X128705513Y-148754596D01*
X129069196Y-148954532D01*
X129464788Y-149080021D01*
X129877220Y-149126283D01*
X129906910Y-149126490D01*
X130933090Y-149126490D01*
X131346127Y-149085991D01*
X131743432Y-148966038D01*
X132109872Y-148771199D01*
X132431488Y-148508895D01*
X132696030Y-148189118D01*
X132893423Y-147824048D01*
X132960021Y-147608903D01*
X133015263Y-147796597D01*
X133207539Y-148164388D01*
X133467591Y-148487827D01*
X133692991Y-148676961D01*
X133633215Y-148816430D01*
X133575031Y-149090164D01*
X133571124Y-149369986D01*
X133621642Y-149645238D01*
X133724661Y-149905435D01*
X133784827Y-149998794D01*
X133743459Y-150059211D01*
X133633215Y-150316430D01*
X133575031Y-150590164D01*
X133571124Y-150869986D01*
X133621642Y-151145238D01*
X133724661Y-151405435D01*
X133876258Y-151640667D01*
X134070658Y-151841974D01*
X134300456Y-152001687D01*
X134556899Y-152113725D01*
X134830220Y-152173818D01*
X135110008Y-152179679D01*
X135385605Y-152131084D01*
X135646516Y-152029883D01*
X135690453Y-152002000D01*
X138051172Y-152002000D01*
X138306899Y-152113725D01*
X138580220Y-152173818D01*
X138860008Y-152179679D01*
X139135605Y-152131084D01*
X139396516Y-152029883D01*
X139632800Y-151879933D01*
X139835459Y-151686943D01*
X139996773Y-151458266D01*
X140110598Y-151202611D01*
X140172598Y-150929716D01*
X140177062Y-150610075D01*
X140122705Y-150335556D01*
X140016063Y-150076822D01*
X139966143Y-150001687D01*
X139996773Y-149958266D01*
X140110598Y-149702611D01*
X140172598Y-149429716D01*
X140173432Y-149369986D01*
X144071124Y-149369986D01*
X144121642Y-149645238D01*
X144224661Y-149905435D01*
X144376258Y-150140667D01*
X144570658Y-150341974D01*
X144800456Y-150501687D01*
X145056899Y-150613725D01*
X145074648Y-150617627D01*
X145071124Y-150869986D01*
X145121642Y-151145238D01*
X145224661Y-151405435D01*
X145376258Y-151640667D01*
X145570658Y-151841974D01*
X145800456Y-152001687D01*
X146056899Y-152113725D01*
X146330220Y-152173818D01*
X146610008Y-152179679D01*
X146885605Y-152131084D01*
X147146516Y-152029883D01*
X147382800Y-151879933D01*
X147585459Y-151686943D01*
X147746773Y-151458266D01*
X147758103Y-151432818D01*
X153329748Y-151432818D01*
X153385033Y-151748504D01*
X153406843Y-151820401D01*
X153622870Y-151940023D01*
X154252893Y-151310000D01*
X153622870Y-150679977D01*
X153406843Y-150799599D01*
X153337112Y-151112412D01*
X153329748Y-151432818D01*
X147758103Y-151432818D01*
X147860598Y-151202611D01*
X147873126Y-151147470D01*
X151175656Y-147844940D01*
X151503657Y-147717717D01*
X151855848Y-147494209D01*
X152157919Y-147206551D01*
X152398365Y-146865698D01*
X152568025Y-146484634D01*
X152660439Y-146077874D01*
X152667092Y-145601437D01*
X152586071Y-145192255D01*
X152427117Y-144806602D01*
X152196283Y-144459169D01*
X151902361Y-144163188D01*
X151556548Y-143929934D01*
X151277940Y-143812818D01*
X153329748Y-143812818D01*
X153385033Y-144128504D01*
X153406843Y-144200401D01*
X153622870Y-144320023D01*
X154252893Y-143690000D01*
X153622870Y-143059977D01*
X153406843Y-143179599D01*
X153337112Y-143492412D01*
X153329748Y-143812818D01*
X151277940Y-143812818D01*
X151172014Y-143768291D01*
X150763408Y-143684416D01*
X150346292Y-143681504D01*
X149936554Y-143759666D01*
X149549801Y-143915924D01*
X149200765Y-144144327D01*
X148902739Y-144436175D01*
X148808413Y-144573935D01*
X148682000Y-144488668D01*
X148424017Y-144380222D01*
X148149884Y-144323950D01*
X147870041Y-144321996D01*
X147595149Y-144374435D01*
X147335677Y-144479268D01*
X147101510Y-144632503D01*
X146901565Y-144828304D01*
X146743459Y-145059211D01*
X146633215Y-145316430D01*
X146625802Y-145351305D01*
X146167107Y-145810000D01*
X146520661Y-146163554D01*
X145813554Y-146870661D01*
X145460000Y-146517107D01*
X144829977Y-147147130D01*
X144949599Y-147363157D01*
X145253347Y-147430867D01*
X145196248Y-147487966D01*
X145343843Y-147635561D01*
X145107284Y-147872120D01*
X145095149Y-147874435D01*
X144835677Y-147979268D01*
X144601510Y-148132503D01*
X144401565Y-148328304D01*
X144243459Y-148559211D01*
X144133215Y-148816430D01*
X144075031Y-149090164D01*
X144071124Y-149369986D01*
X140173432Y-149369986D01*
X140177062Y-149110075D01*
X140122705Y-148835556D01*
X140016063Y-148576822D01*
X139861197Y-148343730D01*
X139664005Y-148145157D01*
X139432000Y-147988668D01*
X139174017Y-147880222D01*
X138899884Y-147823950D01*
X138620041Y-147821996D01*
X138345149Y-147874435D01*
X138085677Y-147979268D01*
X138057052Y-147998000D01*
X137879367Y-147998000D01*
X137973423Y-147824048D01*
X138096147Y-147427590D01*
X138139528Y-147014846D01*
X138101914Y-146601536D01*
X137984737Y-146203403D01*
X137843279Y-145932818D01*
X143829748Y-145932818D01*
X143885033Y-146248504D01*
X143906843Y-146320401D01*
X144122870Y-146440023D01*
X144752893Y-145810000D01*
X144122870Y-145179977D01*
X143906843Y-145299599D01*
X143837112Y-145612412D01*
X143829748Y-145932818D01*
X137843279Y-145932818D01*
X137792461Y-145835612D01*
X137532409Y-145512173D01*
X137214487Y-145245404D01*
X136850804Y-145045468D01*
X136455212Y-144919979D01*
X136042780Y-144873717D01*
X136013090Y-144873510D01*
X134986910Y-144873510D01*
X134573873Y-144914009D01*
X134176568Y-145033962D01*
X133845610Y-145209935D01*
X133459745Y-145209935D01*
X133459745Y-145525878D01*
X133223970Y-145810882D01*
X133201197Y-145853000D01*
X132721551Y-145853000D01*
X132712461Y-145835612D01*
X132460255Y-145521931D01*
X132460255Y-145209935D01*
X132069969Y-145209935D01*
X131770804Y-145045468D01*
X131375212Y-144919979D01*
X130962780Y-144873717D01*
X130933090Y-144873510D01*
X129906910Y-144873510D01*
X129493873Y-144914009D01*
X129096568Y-145033962D01*
X128730128Y-145228801D01*
X128408512Y-145491105D01*
X128143970Y-145810882D01*
X127946577Y-146175952D01*
X127823853Y-146572410D01*
X127780472Y-146985154D01*
X120596108Y-146985154D01*
X120610598Y-146952611D01*
X120672598Y-146679716D01*
X120674663Y-146531866D01*
X120676965Y-146509962D01*
X120675234Y-146490945D01*
X120677062Y-146360075D01*
X120622705Y-146085556D01*
X120619178Y-146077000D01*
X121750000Y-146077000D01*
X121894992Y-146062783D01*
X122040091Y-146050089D01*
X122048055Y-146047775D01*
X122056308Y-146046966D01*
X122195763Y-146004862D01*
X122335647Y-145964222D01*
X122343009Y-145960406D01*
X122350948Y-145958009D01*
X122479544Y-145889633D01*
X122608896Y-145822584D01*
X122615379Y-145817408D01*
X122622698Y-145813517D01*
X122735565Y-145721465D01*
X122849429Y-145630568D01*
X122860968Y-145619189D01*
X122861208Y-145618993D01*
X122861392Y-145618771D01*
X122865107Y-145615107D01*
X123186149Y-145294065D01*
X123298948Y-145260009D01*
X123570698Y-145115517D01*
X123809208Y-144920993D01*
X124005392Y-144683847D01*
X124119466Y-144472870D01*
X144829977Y-144472870D01*
X145460000Y-145102893D01*
X146090023Y-144472870D01*
X145970401Y-144256843D01*
X145657588Y-144187112D01*
X145337182Y-144179748D01*
X145021496Y-144235033D01*
X144949599Y-144256843D01*
X144829977Y-144472870D01*
X124119466Y-144472870D01*
X124151778Y-144413112D01*
X124242790Y-144119100D01*
X124274962Y-143813009D01*
X124247067Y-143506500D01*
X124235696Y-143467862D01*
X131450431Y-143467862D01*
X131548838Y-143710065D01*
X132460255Y-143710065D01*
X132460255Y-142577451D01*
X133459745Y-142577451D01*
X133459745Y-143710065D01*
X134371162Y-143710065D01*
X134469569Y-143467862D01*
X134344626Y-143182809D01*
X134166472Y-142927608D01*
X133941954Y-142712067D01*
X133695724Y-142509040D01*
X133459745Y-142577451D01*
X132460255Y-142577451D01*
X132224276Y-142509040D01*
X131978046Y-142712067D01*
X131753528Y-142927608D01*
X131575374Y-143182809D01*
X131450431Y-143467862D01*
X124235696Y-143467862D01*
X124160169Y-143211245D01*
X124017577Y-142938493D01*
X123824723Y-142698631D01*
X123588953Y-142500796D01*
X123319246Y-142352524D01*
X123025877Y-142259461D01*
X122720018Y-142225154D01*
X122698000Y-142225000D01*
X122448000Y-142225000D01*
X122303008Y-142239217D01*
X122157909Y-142251911D01*
X122149945Y-142254225D01*
X122141692Y-142255034D01*
X122002237Y-142297138D01*
X121862353Y-142337778D01*
X121854991Y-142341594D01*
X121847052Y-142343991D01*
X121718456Y-142412367D01*
X121589104Y-142479416D01*
X121582621Y-142484592D01*
X121575302Y-142488483D01*
X121462435Y-142580535D01*
X121348571Y-142671432D01*
X121337032Y-142682811D01*
X121336792Y-142683007D01*
X121336608Y-142683229D01*
X121332893Y-142686893D01*
X121096786Y-142923000D01*
X116426183Y-142923000D01*
X116427062Y-142860075D01*
X116372705Y-142585556D01*
X116266063Y-142326822D01*
X116111197Y-142093730D01*
X115914005Y-141895157D01*
X115682000Y-141738668D01*
X115424017Y-141630222D01*
X115149884Y-141573950D01*
X114870041Y-141571996D01*
X114595149Y-141624435D01*
X114335677Y-141729268D01*
X114307052Y-141748000D01*
X104445835Y-141748000D01*
X104432000Y-141738668D01*
X104174017Y-141630222D01*
X103899884Y-141573950D01*
X103620041Y-141571996D01*
X103345149Y-141624435D01*
X103085677Y-141729268D01*
X102851510Y-141882503D01*
X102651565Y-142078304D01*
X102493459Y-142309211D01*
X102383215Y-142566430D01*
X102325031Y-142840164D01*
X102323633Y-142940293D01*
X102193692Y-142953034D01*
X101899052Y-143041991D01*
X101712453Y-143141207D01*
X101712453Y-142484000D01*
X101698141Y-142304529D01*
X101603874Y-142000128D01*
X101596587Y-141989070D01*
X101667618Y-141831494D01*
X101712453Y-141516000D01*
X101712453Y-139484000D01*
X101698141Y-139304529D01*
X101603874Y-139000128D01*
X101596587Y-138989070D01*
X101667618Y-138831494D01*
X101712453Y-138516000D01*
X101712453Y-137369986D01*
X104321124Y-137369986D01*
X104371642Y-137645238D01*
X104474661Y-137905435D01*
X104626258Y-138140667D01*
X104820658Y-138341974D01*
X105050456Y-138501687D01*
X105306899Y-138613725D01*
X105580220Y-138673818D01*
X105860008Y-138679679D01*
X106135605Y-138631084D01*
X106396516Y-138529883D01*
X106440453Y-138502000D01*
X110051172Y-138502000D01*
X110306899Y-138613725D01*
X110580220Y-138673818D01*
X110860008Y-138679679D01*
X111135605Y-138631084D01*
X111396516Y-138529883D01*
X111632800Y-138379933D01*
X111835459Y-138186943D01*
X111996773Y-137958266D01*
X112110598Y-137702611D01*
X112172598Y-137429716D01*
X112177062Y-137110075D01*
X112122705Y-136835556D01*
X112016063Y-136576822D01*
X111861197Y-136343730D01*
X111664005Y-136145157D01*
X111432000Y-135988668D01*
X111174017Y-135880222D01*
X110899884Y-135823950D01*
X110620041Y-135821996D01*
X110345149Y-135874435D01*
X110085677Y-135979268D01*
X110057052Y-135998000D01*
X106445835Y-135998000D01*
X106432000Y-135988668D01*
X106174017Y-135880222D01*
X105899884Y-135823950D01*
X105620041Y-135821996D01*
X105345149Y-135874435D01*
X105085677Y-135979268D01*
X104851510Y-136132503D01*
X104651565Y-136328304D01*
X104493459Y-136559211D01*
X104383215Y-136816430D01*
X104325031Y-137090164D01*
X104321124Y-137369986D01*
X101712453Y-137369986D01*
X101712453Y-136484000D01*
X101698141Y-136304529D01*
X101603874Y-136000128D01*
X101596587Y-135989070D01*
X101667618Y-135831494D01*
X101712453Y-135516000D01*
X101712453Y-133484000D01*
X101698141Y-133304529D01*
X101603874Y-133000128D01*
X101596587Y-132989070D01*
X101667618Y-132831494D01*
X101712453Y-132516000D01*
X101712453Y-130484000D01*
X101698141Y-130304529D01*
X101603874Y-130000128D01*
X101596587Y-129989070D01*
X101667618Y-129831494D01*
X101712453Y-129516000D01*
X101712453Y-127484000D01*
X101698141Y-127304529D01*
X101603874Y-127000128D01*
X101596587Y-126989070D01*
X101667618Y-126831494D01*
X101712453Y-126516000D01*
X101712453Y-124484000D01*
X101698141Y-124304529D01*
X101603874Y-124000128D01*
X101428534Y-123734040D01*
X101186006Y-123527336D01*
X100895494Y-123396382D01*
X100580000Y-123351547D01*
X98580000Y-123351547D01*
X98400529Y-123365859D01*
X98318803Y-123391168D01*
X98040000Y-123351547D01*
X96040000Y-123351547D01*
X95860529Y-123365859D01*
X95556128Y-123460126D01*
X95290040Y-123635466D01*
X95083336Y-123877994D01*
X95040313Y-123973437D01*
X95000000Y-124013750D01*
X95000000Y-124062869D01*
X94952382Y-124168506D01*
X94907547Y-124484000D01*
X94907547Y-126516000D01*
X94921859Y-126695471D01*
X95000000Y-126947799D01*
X95000000Y-126986250D01*
X95013750Y-127000000D01*
X95000000Y-127013750D01*
X95000000Y-127062869D01*
X94952382Y-127168506D01*
X94907547Y-127484000D01*
X94907547Y-129516000D01*
X94921859Y-129695471D01*
X95000000Y-129947799D01*
X95000000Y-129986250D01*
X95013750Y-130000000D01*
X95000000Y-130013750D01*
X95000000Y-130062869D01*
X94952382Y-130168506D01*
X94907547Y-130484000D01*
X94907547Y-132516000D01*
X94921859Y-132695471D01*
X95000000Y-132947799D01*
X95000000Y-132986250D01*
X95013750Y-133000000D01*
X95000000Y-133013750D01*
X95000000Y-133062869D01*
X94952382Y-133168506D01*
X94907547Y-133484000D01*
X94907547Y-135516000D01*
X94921859Y-135695471D01*
X95000000Y-135947799D01*
X95000000Y-135986250D01*
X95013750Y-136000000D01*
X95000000Y-136013750D01*
X95000000Y-136062869D01*
X94952382Y-136168506D01*
X94907547Y-136484000D01*
X94907547Y-138516000D01*
X94921859Y-138695471D01*
X94999468Y-138946082D01*
X94931800Y-139013750D01*
X94931800Y-139313337D01*
X94907547Y-139484000D01*
X94907547Y-141516000D01*
X94921859Y-141695471D01*
X94931800Y-141727572D01*
X94931800Y-141986250D01*
X95000000Y-142054450D01*
X95000000Y-142062869D01*
X94952382Y-142168506D01*
X94907547Y-142484000D01*
X94907547Y-144516000D01*
X94921859Y-144695471D01*
X95000000Y-144947799D01*
X95000000Y-144986250D01*
X95013750Y-145000000D01*
X95000000Y-145013750D01*
X95000000Y-145062869D01*
X94952382Y-145168506D01*
X94907547Y-145484000D01*
X94907547Y-147516000D01*
X94921859Y-147695471D01*
X95000000Y-147947799D01*
X95000000Y-147986250D01*
X95020964Y-148007214D01*
X95191466Y-148265960D01*
X95433994Y-148472664D01*
X95724506Y-148603618D01*
X96040000Y-148648453D01*
X96335222Y-148648453D01*
X96151565Y-148828304D01*
X95993459Y-149059211D01*
X95883215Y-149316430D01*
X95825031Y-149590164D01*
X95821124Y-149869986D01*
X95871642Y-150145238D01*
X95912432Y-150248262D01*
X95883215Y-150316430D01*
X95825031Y-150590164D01*
X95821124Y-150869986D01*
X95871642Y-151145238D01*
X95974661Y-151405435D01*
X96126258Y-151640667D01*
X96320658Y-151841974D01*
X96550456Y-152001687D01*
X96806899Y-152113725D01*
X97080220Y-152173818D01*
X97360008Y-152179679D01*
X97635605Y-152131084D01*
X97896516Y-152029883D01*
X97940453Y-152002000D01*
X104481404Y-152002000D01*
X106364703Y-153885298D01*
X106454048Y-153958687D01*
X106542661Y-154033042D01*
X106548429Y-154036213D01*
X106553518Y-154040393D01*
X106655509Y-154095080D01*
X106756785Y-154150757D01*
X106763054Y-154152746D01*
X106768862Y-154155860D01*
X106879497Y-154189684D01*
X106989695Y-154224641D01*
X106996240Y-154225375D01*
X107002533Y-154227299D01*
X107117581Y-154238986D01*
X107232519Y-154251878D01*
X107245382Y-154251968D01*
X107245630Y-154251993D01*
X107245861Y-154251971D01*
X107250000Y-154252000D01*
X111229918Y-154252000D01*
X110408918Y-155073000D01*
X106000000Y-155073000D01*
X105868880Y-155085856D01*
X105737502Y-155097351D01*
X105730295Y-155099445D01*
X105722828Y-155100177D01*
X105596651Y-155138272D01*
X105470058Y-155175051D01*
X105463396Y-155178504D01*
X105456213Y-155180673D01*
X105339823Y-155242558D01*
X105222800Y-155303217D01*
X105216937Y-155307897D01*
X105210310Y-155311421D01*
X105108163Y-155394731D01*
X105005146Y-155476968D01*
X104994698Y-155487271D01*
X104994487Y-155487443D01*
X104994325Y-155487638D01*
X104990959Y-155490958D01*
X103990959Y-156490959D01*
X103907323Y-156592778D01*
X103822563Y-156693792D01*
X103818948Y-156700367D01*
X103814185Y-156706166D01*
X103751882Y-156822360D01*
X103688394Y-156937845D01*
X103686126Y-156944995D01*
X103682579Y-156951610D01*
X103644040Y-157077665D01*
X103604183Y-157203310D01*
X103603346Y-157210769D01*
X103601153Y-157217943D01*
X103587836Y-157349048D01*
X103573139Y-157480076D01*
X103573037Y-157494747D01*
X103573009Y-157495019D01*
X103573033Y-157495273D01*
X103573000Y-157500000D01*
X103573000Y-157756043D01*
X103410006Y-157950292D01*
X103228826Y-158279857D01*
X103115110Y-158638337D01*
X103073188Y-159012078D01*
X103073000Y-159038983D01*
X103073000Y-159761017D01*
X103109699Y-160135307D01*
X103218400Y-160495340D01*
X103392620Y-160823000D01*
X93177000Y-160823000D01*
X93177000Y-158220885D01*
X93369547Y-158220885D01*
X93462547Y-158727603D01*
X93652198Y-159206606D01*
X93931276Y-159639651D01*
X94289151Y-160010241D01*
X94712191Y-160304262D01*
X95184284Y-160510514D01*
X95687448Y-160621142D01*
X96202516Y-160631931D01*
X96709871Y-160542471D01*
X97190186Y-160356169D01*
X97625168Y-160080121D01*
X97998248Y-159724842D01*
X98295215Y-159303864D01*
X98504758Y-158833222D01*
X98618896Y-158330844D01*
X98627113Y-157742409D01*
X98527047Y-157237040D01*
X98330726Y-156760731D01*
X98045629Y-156331625D01*
X97682615Y-155966068D01*
X97255510Y-155677982D01*
X96780584Y-155478341D01*
X96275925Y-155374750D01*
X95760756Y-155371153D01*
X95254700Y-155467688D01*
X94777032Y-155660679D01*
X94345947Y-155942773D01*
X93977864Y-156303226D01*
X93686804Y-156728310D01*
X93483852Y-157201831D01*
X93376740Y-157705754D01*
X93369547Y-158220885D01*
X93177000Y-158220885D01*
X93177000Y-148054265D01*
X93203004Y-148071640D01*
X93317111Y-148118905D01*
X93438246Y-148143000D01*
X93843250Y-148143000D01*
X94000000Y-147986250D01*
X94000000Y-147008000D01*
X93500000Y-147008000D01*
X93500000Y-145992000D01*
X94000000Y-145992000D01*
X94000000Y-145013750D01*
X93986250Y-145000000D01*
X94000000Y-144986250D01*
X94000000Y-144008000D01*
X93500000Y-144008000D01*
X93500000Y-142992000D01*
X94000000Y-142992000D01*
X94000000Y-142054450D01*
X94068200Y-141986250D01*
X94068200Y-141008000D01*
X93636400Y-141008000D01*
X93636400Y-139992000D01*
X94068200Y-139992000D01*
X94068200Y-139013750D01*
X94000000Y-138945550D01*
X94000000Y-138008000D01*
X93500000Y-138008000D01*
X93500000Y-136992000D01*
X94000000Y-136992000D01*
X94000000Y-136013750D01*
X93986250Y-136000000D01*
X94000000Y-135986250D01*
X94000000Y-135008000D01*
X93500000Y-135008000D01*
X93500000Y-133992000D01*
X94000000Y-133992000D01*
X94000000Y-133013750D01*
X93986250Y-133000000D01*
X94000000Y-132986250D01*
X94000000Y-132008000D01*
X93500000Y-132008000D01*
X93500000Y-130992000D01*
X94000000Y-130992000D01*
X94000000Y-130013750D01*
X93986250Y-130000000D01*
X94000000Y-129986250D01*
X94000000Y-129008000D01*
X93500000Y-129008000D01*
X93500000Y-127992000D01*
X94000000Y-127992000D01*
X94000000Y-127013750D01*
X93986250Y-127000000D01*
X94000000Y-126986250D01*
X94000000Y-126008000D01*
X93500000Y-126008000D01*
X93500000Y-124992000D01*
X94000000Y-124992000D01*
X94000000Y-124013750D01*
X93843250Y-123857000D01*
X93438246Y-123857000D01*
X93317111Y-123881095D01*
X93203004Y-123928360D01*
X93177000Y-123945735D01*
X93177000Y-122517001D01*
X116279198Y-122517001D01*
X116355739Y-122739785D01*
X117624970Y-122739785D01*
X117624970Y-121826612D01*
X119375030Y-121826612D01*
X119375030Y-122739785D01*
X120644261Y-122739785D01*
X120720802Y-122517001D01*
X120594377Y-122317034D01*
X120400152Y-122090970D01*
X120165556Y-121907141D01*
X119899605Y-121772611D01*
X119612519Y-121692551D01*
X119375030Y-121826612D01*
X117624970Y-121826612D01*
X117387481Y-121692551D01*
X117100395Y-121772611D01*
X116834444Y-121907141D01*
X116599848Y-122090970D01*
X116405623Y-122317034D01*
X116279198Y-122517001D01*
X93177000Y-122517001D01*
X93177000Y-110119986D01*
X95321124Y-110119986D01*
X95371642Y-110395238D01*
X95474661Y-110655435D01*
X95626258Y-110890667D01*
X95820658Y-111091974D01*
X96050456Y-111251687D01*
X96306899Y-111363725D01*
X96580220Y-111423818D01*
X96860008Y-111429679D01*
X97135605Y-111381084D01*
X97396516Y-111279883D01*
X97440453Y-111252000D01*
X99050939Y-111252000D01*
X98851510Y-111382503D01*
X98651565Y-111578304D01*
X98493459Y-111809211D01*
X98383215Y-112066430D01*
X98325031Y-112340164D01*
X98321124Y-112619986D01*
X98371642Y-112895238D01*
X98474661Y-113155435D01*
X98498000Y-113191650D01*
X98498000Y-117250000D01*
X98509283Y-117365074D01*
X98519365Y-117480307D01*
X98521201Y-117486628D01*
X98521844Y-117493181D01*
X98555282Y-117603932D01*
X98587536Y-117714952D01*
X98590564Y-117720794D01*
X98592468Y-117727100D01*
X98646771Y-117829228D01*
X98699985Y-117931889D01*
X98704094Y-117937036D01*
X98707183Y-117942846D01*
X98780283Y-118032477D01*
X98852428Y-118122850D01*
X98861463Y-118132013D01*
X98861617Y-118132202D01*
X98861792Y-118132347D01*
X98864702Y-118135298D01*
X101620968Y-120891564D01*
X101621642Y-120895238D01*
X101724661Y-121155435D01*
X101876258Y-121390667D01*
X102070658Y-121591974D01*
X102300456Y-121751687D01*
X102556899Y-121863725D01*
X102830220Y-121923818D01*
X103110008Y-121929679D01*
X103385605Y-121881084D01*
X103646516Y-121779883D01*
X103882800Y-121629933D01*
X104085459Y-121436943D01*
X104246773Y-121208266D01*
X104360598Y-120952611D01*
X104422598Y-120679716D01*
X104427062Y-120360075D01*
X104372705Y-120085556D01*
X104346412Y-120021765D01*
X104556899Y-120113725D01*
X104830220Y-120173818D01*
X105110008Y-120179679D01*
X105385605Y-120131084D01*
X105646516Y-120029883D01*
X105882800Y-119879933D01*
X106085459Y-119686943D01*
X106227761Y-119485216D01*
X127376813Y-119485216D01*
X127414270Y-119896799D01*
X127530956Y-120293267D01*
X127722429Y-120659520D01*
X127981394Y-120981607D01*
X128297987Y-121247260D01*
X128660150Y-121446361D01*
X129054087Y-121571325D01*
X129464795Y-121617394D01*
X129494361Y-121617600D01*
X131505639Y-121617600D01*
X131916950Y-121577271D01*
X132312594Y-121457819D01*
X132677501Y-121263794D01*
X132997772Y-121002587D01*
X133261209Y-120684147D01*
X133457776Y-120320603D01*
X133579988Y-119925803D01*
X133594605Y-119786722D01*
X137817151Y-119786722D01*
X137866552Y-120014857D01*
X137959511Y-120228971D01*
X138092455Y-120420836D01*
X138260276Y-120583078D01*
X138456524Y-120709462D01*
X138549359Y-120737314D01*
X138725000Y-120632489D01*
X138725000Y-119600000D01*
X137967076Y-119600000D01*
X137817151Y-119786722D01*
X133594605Y-119786722D01*
X133623187Y-119514784D01*
X133585730Y-119103201D01*
X133469044Y-118706733D01*
X133277571Y-118340480D01*
X133175298Y-118213278D01*
X137817151Y-118213278D01*
X137967076Y-118400000D01*
X138725000Y-118400000D01*
X138725000Y-117367511D01*
X138549359Y-117262686D01*
X138456524Y-117290538D01*
X138260276Y-117416922D01*
X138092455Y-117579164D01*
X137959511Y-117771029D01*
X137866552Y-117985143D01*
X137817151Y-118213278D01*
X133175298Y-118213278D01*
X133018606Y-118018393D01*
X132702013Y-117752740D01*
X132339850Y-117553639D01*
X131945913Y-117428675D01*
X131535205Y-117382606D01*
X131505639Y-117382400D01*
X129494361Y-117382400D01*
X129083050Y-117422729D01*
X128687406Y-117542181D01*
X128322499Y-117736206D01*
X128002228Y-117997413D01*
X127738791Y-118315853D01*
X127542224Y-118679397D01*
X127420012Y-119074197D01*
X127376813Y-119485216D01*
X106227761Y-119485216D01*
X106246773Y-119458266D01*
X106360598Y-119202611D01*
X106422598Y-118929716D01*
X106427062Y-118610075D01*
X106372705Y-118335556D01*
X106266063Y-118076822D01*
X106243139Y-118042318D01*
X106270825Y-118020058D01*
X106462435Y-118178572D01*
X106793257Y-118357447D01*
X107152523Y-118468659D01*
X107526547Y-118507970D01*
X107901084Y-118473885D01*
X108261867Y-118367700D01*
X108595154Y-118193462D01*
X108810825Y-118020058D01*
X109002435Y-118178572D01*
X109333257Y-118357447D01*
X109692523Y-118468659D01*
X110066547Y-118507970D01*
X110441084Y-118473885D01*
X110801867Y-118367700D01*
X111135154Y-118193462D01*
X111350825Y-118020058D01*
X111542435Y-118178572D01*
X111873257Y-118357447D01*
X112232523Y-118468659D01*
X112606547Y-118507970D01*
X112981084Y-118473885D01*
X113341867Y-118367700D01*
X113675154Y-118193462D01*
X113968251Y-117957806D01*
X114209994Y-117669708D01*
X114391174Y-117340143D01*
X114504890Y-116981663D01*
X114546812Y-116607922D01*
X114547000Y-116581017D01*
X114547000Y-115858983D01*
X114510301Y-115484693D01*
X114401600Y-115124660D01*
X114225039Y-114792597D01*
X113987343Y-114501153D01*
X113697565Y-114261428D01*
X113366743Y-114082553D01*
X113007477Y-113971341D01*
X112633453Y-113932030D01*
X112258916Y-113966115D01*
X111898133Y-114072300D01*
X111564846Y-114246538D01*
X111349175Y-114419942D01*
X111157565Y-114261428D01*
X110826743Y-114082553D01*
X110467477Y-113971341D01*
X110093453Y-113932030D01*
X109718916Y-113966115D01*
X109358133Y-114072300D01*
X109024846Y-114246538D01*
X108809175Y-114419942D01*
X108617565Y-114261428D01*
X108286743Y-114082553D01*
X107927477Y-113971341D01*
X107553453Y-113932030D01*
X107178916Y-113966115D01*
X106818133Y-114072300D01*
X106484846Y-114246538D01*
X106269175Y-114419942D01*
X106077565Y-114261428D01*
X105746743Y-114082553D01*
X105387477Y-113971341D01*
X105013453Y-113932030D01*
X104638916Y-113966115D01*
X104278133Y-114072300D01*
X104266669Y-114078293D01*
X104266063Y-114076822D01*
X104111197Y-113843730D01*
X104020105Y-113752000D01*
X110301172Y-113752000D01*
X110556899Y-113863725D01*
X110830220Y-113923818D01*
X111110008Y-113929679D01*
X111385605Y-113881084D01*
X111646516Y-113779883D01*
X111882800Y-113629933D01*
X112085459Y-113436943D01*
X112246773Y-113208266D01*
X112360598Y-112952611D01*
X112422598Y-112679716D01*
X112427062Y-112360075D01*
X112372705Y-112085556D01*
X112266063Y-111826822D01*
X112111197Y-111593730D01*
X111914005Y-111395157D01*
X111682000Y-111238668D01*
X111424017Y-111130222D01*
X111149884Y-111073950D01*
X110870041Y-111071996D01*
X110595149Y-111124435D01*
X110335677Y-111229268D01*
X110307052Y-111248000D01*
X105040795Y-111248000D01*
X105115074Y-111240717D01*
X105230307Y-111230635D01*
X105236628Y-111228799D01*
X105243181Y-111228156D01*
X105353932Y-111194718D01*
X105464952Y-111162464D01*
X105470794Y-111159436D01*
X105477100Y-111157532D01*
X105579228Y-111103229D01*
X105681889Y-111050015D01*
X105687036Y-111045906D01*
X105692846Y-111042817D01*
X105782477Y-110969717D01*
X105872850Y-110897572D01*
X105882013Y-110888537D01*
X105882202Y-110888383D01*
X105882347Y-110888208D01*
X105885298Y-110885298D01*
X105891988Y-110878608D01*
X106146516Y-110779883D01*
X106382800Y-110629933D01*
X106585459Y-110436943D01*
X106746773Y-110208266D01*
X106860598Y-109952611D01*
X106873126Y-109897470D01*
X107885226Y-108885369D01*
X107885298Y-108885298D01*
X109268596Y-107502000D01*
X114660830Y-107502000D01*
X114633215Y-107566430D01*
X114575031Y-107840164D01*
X114571124Y-108119986D01*
X114621642Y-108395238D01*
X114724661Y-108655435D01*
X114748000Y-108691650D01*
X114748000Y-113552579D01*
X114743459Y-113559211D01*
X114633215Y-113816430D01*
X114575031Y-114090164D01*
X114571124Y-114369986D01*
X114621642Y-114645238D01*
X114724661Y-114905435D01*
X114876258Y-115140667D01*
X115070658Y-115341974D01*
X115300456Y-115501687D01*
X115556899Y-115613725D01*
X115830220Y-115673818D01*
X116110008Y-115679679D01*
X116385605Y-115631084D01*
X116646516Y-115529883D01*
X116882800Y-115379933D01*
X117085459Y-115186943D01*
X117246773Y-114958266D01*
X117360598Y-114702611D01*
X117422598Y-114429716D01*
X117427062Y-114110075D01*
X117372705Y-113835556D01*
X117266063Y-113576822D01*
X117252000Y-113555655D01*
X117252000Y-108696526D01*
X117360598Y-108452611D01*
X117422598Y-108179716D01*
X117427062Y-107860075D01*
X117372705Y-107585556D01*
X117266063Y-107326822D01*
X117130606Y-107122943D01*
X117246773Y-106958266D01*
X117360598Y-106702611D01*
X117422598Y-106429716D01*
X117427062Y-106110075D01*
X117372705Y-105835556D01*
X117266063Y-105576822D01*
X117111197Y-105343730D01*
X116914005Y-105145157D01*
X116682000Y-104988668D01*
X116424017Y-104880222D01*
X116149884Y-104823950D01*
X115870041Y-104821996D01*
X115595149Y-104874435D01*
X115335677Y-104979268D01*
X115307052Y-104998000D01*
X108750000Y-104998000D01*
X108634922Y-105009283D01*
X108519693Y-105019365D01*
X108513372Y-105021201D01*
X108506819Y-105021844D01*
X108396068Y-105055282D01*
X108285048Y-105087536D01*
X108279206Y-105090564D01*
X108272900Y-105092468D01*
X108170791Y-105146761D01*
X108068112Y-105199984D01*
X108062963Y-105204094D01*
X108057154Y-105207183D01*
X107967559Y-105280254D01*
X107877150Y-105352427D01*
X107867986Y-105361464D01*
X107867798Y-105361617D01*
X107867654Y-105361791D01*
X107864702Y-105364702D01*
X106114702Y-107114702D01*
X106114697Y-107114708D01*
X105107284Y-108122120D01*
X105095149Y-108124435D01*
X104835677Y-108229268D01*
X104601510Y-108382503D01*
X104401565Y-108578304D01*
X104285371Y-108748000D01*
X97445835Y-108748000D01*
X97432000Y-108738668D01*
X97174017Y-108630222D01*
X96899884Y-108573950D01*
X96620041Y-108571996D01*
X96345149Y-108624435D01*
X96085677Y-108729268D01*
X95851510Y-108882503D01*
X95651565Y-109078304D01*
X95493459Y-109309211D01*
X95383215Y-109566430D01*
X95325031Y-109840164D01*
X95321124Y-110119986D01*
X93177000Y-110119986D01*
X93177000Y-99456750D01*
X110373000Y-99456750D01*
X110373000Y-99861754D01*
X110397095Y-99982889D01*
X110444360Y-100096996D01*
X110512977Y-100199689D01*
X110600311Y-100287023D01*
X110703004Y-100355640D01*
X110817111Y-100402905D01*
X110938246Y-100427000D01*
X111343250Y-100427000D01*
X111500000Y-100270250D01*
X111500000Y-99300000D01*
X112500000Y-99300000D01*
X112500000Y-100270250D01*
X112656750Y-100427000D01*
X113061754Y-100427000D01*
X113182889Y-100402905D01*
X113296996Y-100355640D01*
X113399689Y-100287023D01*
X113487023Y-100199689D01*
X113555640Y-100096996D01*
X113602905Y-99982889D01*
X113627000Y-99861754D01*
X113627000Y-99456750D01*
X113470250Y-99300000D01*
X112500000Y-99300000D01*
X111500000Y-99300000D01*
X110529750Y-99300000D01*
X110373000Y-99456750D01*
X93177000Y-99456750D01*
X93177000Y-96220885D01*
X93369547Y-96220885D01*
X93462547Y-96727603D01*
X93652198Y-97206606D01*
X93931276Y-97639651D01*
X94289151Y-98010241D01*
X94712191Y-98304262D01*
X95184284Y-98510514D01*
X95687448Y-98621142D01*
X96202516Y-98631931D01*
X96709871Y-98542471D01*
X97190186Y-98356169D01*
X97625168Y-98080121D01*
X97984172Y-97738246D01*
X110373000Y-97738246D01*
X110373000Y-98143250D01*
X110529750Y-98300000D01*
X111500000Y-98300000D01*
X111500000Y-97329750D01*
X112500000Y-97329750D01*
X112500000Y-98300000D01*
X113470250Y-98300000D01*
X113627000Y-98143250D01*
X113627000Y-97814381D01*
X115100009Y-97814381D01*
X115373051Y-98064436D01*
X115885394Y-98137472D01*
X116402142Y-98109152D01*
X116626949Y-98064436D01*
X116899991Y-97814381D01*
X116000000Y-96914390D01*
X115100009Y-97814381D01*
X113627000Y-97814381D01*
X113627000Y-97738246D01*
X113602905Y-97617111D01*
X113555640Y-97503004D01*
X113487023Y-97400311D01*
X113399689Y-97312977D01*
X113296996Y-97244360D01*
X113182889Y-97197095D01*
X113061754Y-97173000D01*
X112656750Y-97173000D01*
X112500000Y-97329750D01*
X111500000Y-97329750D01*
X111343250Y-97173000D01*
X110938246Y-97173000D01*
X110817111Y-97197095D01*
X110703004Y-97244360D01*
X110600311Y-97312977D01*
X110512977Y-97400311D01*
X110444360Y-97503004D01*
X110397095Y-97617111D01*
X110373000Y-97738246D01*
X97984172Y-97738246D01*
X97998248Y-97724842D01*
X98295215Y-97303864D01*
X98504758Y-96833222D01*
X98618896Y-96330844D01*
X98627113Y-95742409D01*
X98527047Y-95237040D01*
X98330726Y-94760731D01*
X98045629Y-94331625D01*
X97682615Y-93966068D01*
X97255510Y-93677982D01*
X96780584Y-93478341D01*
X96275925Y-93374750D01*
X95760756Y-93371153D01*
X95254700Y-93467688D01*
X94777032Y-93660679D01*
X94345947Y-93942773D01*
X93977864Y-94303226D01*
X93686804Y-94728310D01*
X93483852Y-95201831D01*
X93376740Y-95705754D01*
X93369547Y-96220885D01*
X93177000Y-96220885D01*
X93177000Y-93177000D01*
X110901186Y-93177000D01*
X110660765Y-93334327D01*
X110660765Y-93334327D01*
G37*
X110660765Y-93334327D02*
X110362739Y-93626175D01*
X110127077Y-93970352D01*
X109962753Y-94353747D01*
X109876028Y-94761758D01*
X109870204Y-95178844D01*
X109945503Y-95589118D01*
X110099058Y-95976952D01*
X110325018Y-96327574D01*
X110614779Y-96627630D01*
X110957301Y-96865689D01*
X111339540Y-97032685D01*
X111746936Y-97122257D01*
X112163971Y-97130993D01*
X112574760Y-97058560D01*
X112963657Y-96907717D01*
X113315848Y-96684209D01*
X113617919Y-96396551D01*
X113646006Y-96356736D01*
X113685619Y-96399991D01*
X114585610Y-95500000D01*
X114123648Y-95038038D01*
X114127092Y-94791437D01*
X114046071Y-94382255D01*
X113887117Y-93996602D01*
X113656283Y-93649169D01*
X113362361Y-93353188D01*
X113101152Y-93177000D01*
X115109420Y-93177000D01*
X115100009Y-93185619D01*
X116000000Y-94085610D01*
X116899991Y-93185619D01*
X116890580Y-93177000D01*
X118126998Y-93177000D01*
X118126998Y-93655977D01*
X118120769Y-93664206D01*
X117982381Y-93949521D01*
X117936069Y-94126998D01*
X117882400Y-94126998D01*
X117882400Y-95031990D01*
X117414390Y-95500000D01*
X117882400Y-95968010D01*
X117882400Y-96873002D01*
X117936069Y-96873002D01*
X117982381Y-97050479D01*
X118120769Y-97335794D01*
X118312160Y-97588628D01*
X118549199Y-97799266D01*
X118769904Y-97934064D01*
X119004700Y-97864922D01*
X119004700Y-96490600D01*
X118509400Y-96490600D01*
X118509400Y-96187044D01*
X118564436Y-96126949D01*
X118637472Y-95614606D01*
X118609152Y-95097858D01*
X118564436Y-94873051D01*
X118509400Y-94812956D01*
X118509400Y-94509400D01*
X119004700Y-94509400D01*
X119004700Y-94107000D01*
X119995300Y-94107000D01*
X119995300Y-94509400D01*
X120490600Y-94509400D01*
X120490600Y-96490600D01*
X119995300Y-96490600D01*
X119995300Y-97864922D01*
X120230096Y-97934064D01*
X120450801Y-97799266D01*
X120687840Y-97588628D01*
X120879231Y-97335794D01*
X120969793Y-97149081D01*
X121099514Y-97476717D01*
X121325420Y-97827256D01*
X121366962Y-97870274D01*
X121345149Y-97874435D01*
X121085677Y-97979268D01*
X120851510Y-98132503D01*
X120651565Y-98328304D01*
X120493459Y-98559211D01*
X120383215Y-98816430D01*
X120325031Y-99090164D01*
X120321124Y-99369986D01*
X120371642Y-99645238D01*
X120474661Y-99905435D01*
X120626258Y-100140667D01*
X120820658Y-100341974D01*
X121050456Y-100501687D01*
X121306899Y-100613725D01*
X121580220Y-100673818D01*
X121860008Y-100679679D01*
X122135605Y-100631084D01*
X122396516Y-100529883D01*
X122440453Y-100502000D01*
X136551172Y-100502000D01*
X136806899Y-100613725D01*
X137080220Y-100673818D01*
X137360008Y-100679679D01*
X137635605Y-100631084D01*
X137896516Y-100529883D01*
X138132800Y-100379933D01*
X138335459Y-100186943D01*
X138496773Y-99958266D01*
X138610598Y-99702611D01*
X138672598Y-99429716D01*
X138677062Y-99110075D01*
X138622705Y-98835556D01*
X138519064Y-98584104D01*
X138845049Y-98526624D01*
X139416829Y-98304845D01*
X139934643Y-97976230D01*
X140378767Y-97553296D01*
X140732284Y-97052154D01*
X140981730Y-96491890D01*
X141117602Y-95893845D01*
X141127384Y-95193357D01*
X141008263Y-94591752D01*
X140774558Y-94024741D01*
X140435171Y-93513923D01*
X140100592Y-93177000D01*
X154873000Y-93177000D01*
X154873000Y-98748000D01*
X145000000Y-98748000D01*
X144884926Y-98759283D01*
X144769693Y-98769365D01*
X144763372Y-98771202D01*
X144756819Y-98771844D01*
X144646081Y-98805278D01*
X144535047Y-98837536D01*
X144529204Y-98840565D01*
X144522900Y-98842468D01*
X144420790Y-98896761D01*
X144318111Y-98949985D01*
X144312964Y-98954094D01*
X144307154Y-98957183D01*
X144217548Y-99030264D01*
X144127149Y-99102428D01*
X144117990Y-99111460D01*
X144117798Y-99111617D01*
X144117651Y-99111795D01*
X144114702Y-99114703D01*
X141954702Y-101274702D01*
X141881297Y-101364067D01*
X141806958Y-101452661D01*
X141803786Y-101458430D01*
X141799608Y-101463517D01*
X141744949Y-101565456D01*
X141689243Y-101666785D01*
X141687253Y-101673058D01*
X141684141Y-101678862D01*
X141650331Y-101789451D01*
X141615359Y-101899695D01*
X141614625Y-101906240D01*
X141612701Y-101912533D01*
X141601014Y-102027586D01*
X141588122Y-102142519D01*
X141588032Y-102155381D01*
X141588007Y-102155629D01*
X141588029Y-102155860D01*
X141588000Y-102160000D01*
X141588000Y-102301836D01*
X141569746Y-102316513D01*
X141413129Y-102186949D01*
X141071389Y-102002170D01*
X140700266Y-101887289D01*
X140313897Y-101846680D01*
X139926999Y-101881890D01*
X139554308Y-101991579D01*
X139210021Y-102171568D01*
X138907250Y-102415002D01*
X138657529Y-102712608D01*
X138470369Y-103053050D01*
X138403443Y-103264027D01*
X138422598Y-103179716D01*
X138427062Y-102860075D01*
X138372705Y-102585556D01*
X138266063Y-102326822D01*
X138111197Y-102093730D01*
X137914005Y-101895157D01*
X137682000Y-101738668D01*
X137424017Y-101630222D01*
X137149884Y-101573950D01*
X136870041Y-101571996D01*
X136595149Y-101624435D01*
X136335677Y-101729268D01*
X136307052Y-101748000D01*
X125695835Y-101748000D01*
X125682000Y-101738668D01*
X125424017Y-101630222D01*
X125149884Y-101573950D01*
X124870041Y-101571996D01*
X124595149Y-101624435D01*
X124335677Y-101729268D01*
X124101510Y-101882503D01*
X123901565Y-102078304D01*
X123743459Y-102309211D01*
X123633215Y-102566430D01*
X123575031Y-102840164D01*
X123571124Y-103119986D01*
X123621642Y-103395238D01*
X123724661Y-103655435D01*
X123748000Y-103691650D01*
X123748000Y-106731405D01*
X123107284Y-107372120D01*
X123095149Y-107374435D01*
X122952617Y-107432021D01*
X122135298Y-106614702D01*
X122045933Y-106541297D01*
X121957339Y-106466958D01*
X121951570Y-106463786D01*
X121946483Y-106459608D01*
X121844544Y-106404949D01*
X121743215Y-106349243D01*
X121736942Y-106347253D01*
X121731138Y-106344141D01*
X121620549Y-106310331D01*
X121510305Y-106275359D01*
X121503760Y-106274625D01*
X121497467Y-106272701D01*
X121382414Y-106261014D01*
X121267481Y-106248122D01*
X121254619Y-106248032D01*
X121254371Y-106248007D01*
X121254139Y-106248029D01*
X121250000Y-106248000D01*
X120695835Y-106248000D01*
X120682000Y-106238668D01*
X120424017Y-106130222D01*
X120149884Y-106073950D01*
X119870041Y-106071996D01*
X119595149Y-106124435D01*
X119335677Y-106229268D01*
X119101510Y-106382503D01*
X118901565Y-106578304D01*
X118743459Y-106809211D01*
X118633215Y-107066430D01*
X118575031Y-107340164D01*
X118571124Y-107619986D01*
X118621642Y-107895238D01*
X118724661Y-108155435D01*
X118867824Y-108377581D01*
X118743459Y-108559211D01*
X118633215Y-108816430D01*
X118575031Y-109090164D01*
X118571124Y-109369986D01*
X118621642Y-109645238D01*
X118724661Y-109905435D01*
X118876258Y-110140667D01*
X119070658Y-110341974D01*
X119300456Y-110501687D01*
X119556899Y-110613725D01*
X119830220Y-110673818D01*
X120110008Y-110679679D01*
X120385605Y-110631084D01*
X120646516Y-110529883D01*
X120690453Y-110502000D01*
X121301172Y-110502000D01*
X121556899Y-110613725D01*
X121830220Y-110673818D01*
X122110008Y-110679679D01*
X122385605Y-110631084D01*
X122547639Y-110568235D01*
X126864702Y-114885298D01*
X126954067Y-114958703D01*
X127042661Y-115033042D01*
X127048430Y-115036214D01*
X127053517Y-115040392D01*
X127155456Y-115095051D01*
X127256785Y-115150757D01*
X127263058Y-115152747D01*
X127268862Y-115155859D01*
X127379451Y-115189669D01*
X127489695Y-115224641D01*
X127496240Y-115225375D01*
X127502533Y-115227299D01*
X127617586Y-115238986D01*
X127732519Y-115251878D01*
X127745381Y-115251968D01*
X127745629Y-115251993D01*
X127745861Y-115251971D01*
X127750000Y-115252000D01*
X136301172Y-115252000D01*
X136556899Y-115363725D01*
X136830220Y-115423818D01*
X137110008Y-115429679D01*
X137385605Y-115381084D01*
X137646516Y-115279883D01*
X137882800Y-115129933D01*
X138085459Y-114936943D01*
X138246773Y-114708266D01*
X138360598Y-114452611D01*
X138422598Y-114179716D01*
X138424541Y-114040610D01*
X138426861Y-114019924D01*
X138427000Y-114000000D01*
X138427000Y-113864514D01*
X138427062Y-113860075D01*
X138427000Y-113859762D01*
X138427000Y-112591082D01*
X138591083Y-112427000D01*
X145982120Y-112427000D01*
X146110008Y-112429679D01*
X146385605Y-112381084D01*
X146646516Y-112279883D01*
X146882800Y-112129933D01*
X147085459Y-111936943D01*
X147246773Y-111708266D01*
X147360598Y-111452611D01*
X147422598Y-111179716D01*
X147424663Y-111031866D01*
X147426965Y-111009962D01*
X147425234Y-110990945D01*
X147427062Y-110860075D01*
X147372705Y-110585556D01*
X147266063Y-110326822D01*
X147111197Y-110093730D01*
X146914005Y-109895157D01*
X146682000Y-109738668D01*
X146424017Y-109630222D01*
X146149884Y-109573950D01*
X145870041Y-109571996D01*
X145864778Y-109573000D01*
X138000000Y-109573000D01*
X137868880Y-109585856D01*
X137737502Y-109597351D01*
X137730295Y-109599445D01*
X137722828Y-109600177D01*
X137596651Y-109638272D01*
X137470058Y-109675051D01*
X137463396Y-109678504D01*
X137456213Y-109680673D01*
X137339823Y-109742558D01*
X137222800Y-109803217D01*
X137216937Y-109807897D01*
X137210310Y-109811421D01*
X137108163Y-109894731D01*
X137005146Y-109976968D01*
X136994698Y-109987271D01*
X136994487Y-109987443D01*
X136994325Y-109987638D01*
X136990959Y-109990958D01*
X136252000Y-110729918D01*
X136252000Y-107696526D01*
X136360598Y-107452611D01*
X136422598Y-107179716D01*
X136427062Y-106860075D01*
X136372705Y-106585556D01*
X136266063Y-106326822D01*
X136111197Y-106093730D01*
X135914005Y-105895157D01*
X135682000Y-105738668D01*
X135424017Y-105630222D01*
X135149884Y-105573950D01*
X134870041Y-105571996D01*
X134595149Y-105624435D01*
X134335677Y-105729268D01*
X134101510Y-105882503D01*
X133901565Y-106078304D01*
X133743459Y-106309211D01*
X133633215Y-106566430D01*
X133575031Y-106840164D01*
X133571124Y-107119986D01*
X133621642Y-107395238D01*
X133724661Y-107655435D01*
X133748000Y-107691650D01*
X133748000Y-111302579D01*
X133743459Y-111309211D01*
X133633215Y-111566430D01*
X133575031Y-111840164D01*
X133571124Y-112119986D01*
X133621642Y-112395238D01*
X133724661Y-112655435D01*
X133784315Y-112748000D01*
X128268596Y-112748000D01*
X124818272Y-109297676D01*
X124860598Y-109202611D01*
X124873126Y-109147470D01*
X125885297Y-108135298D01*
X125958678Y-108045962D01*
X126033042Y-107957339D01*
X126036214Y-107951570D01*
X126040392Y-107946483D01*
X126095051Y-107844544D01*
X126150757Y-107743215D01*
X126152747Y-107736942D01*
X126155859Y-107731138D01*
X126189669Y-107620549D01*
X126224641Y-107510305D01*
X126225375Y-107503760D01*
X126227299Y-107497467D01*
X126238981Y-107382459D01*
X126251878Y-107267481D01*
X126251968Y-107254609D01*
X126251992Y-107254371D01*
X126251971Y-107254149D01*
X126252000Y-107250000D01*
X126252000Y-104252000D01*
X136301172Y-104252000D01*
X136556899Y-104363725D01*
X136830220Y-104423818D01*
X137110008Y-104429679D01*
X137385605Y-104381084D01*
X137646516Y-104279883D01*
X137882800Y-104129933D01*
X138085459Y-103936943D01*
X138246773Y-103708266D01*
X138345921Y-103485577D01*
X138309594Y-103809438D01*
X138309400Y-103837231D01*
X138309400Y-104162769D01*
X138347311Y-104549412D01*
X138459599Y-104921328D01*
X138641987Y-105264350D01*
X138887528Y-105565414D01*
X139186871Y-105813051D01*
X139528611Y-105997830D01*
X139899734Y-106112711D01*
X140286103Y-106153320D01*
X140673001Y-106118110D01*
X141045692Y-106008421D01*
X141389979Y-105828432D01*
X141570254Y-105683487D01*
X141726871Y-105813051D01*
X142068611Y-105997830D01*
X142439734Y-106112711D01*
X142826103Y-106153320D01*
X143213001Y-106118110D01*
X143585692Y-106008421D01*
X143929979Y-105828432D01*
X144110254Y-105683487D01*
X144266871Y-105813051D01*
X144608611Y-105997830D01*
X144979734Y-106112711D01*
X145366103Y-106153320D01*
X145753001Y-106118110D01*
X146125692Y-106008421D01*
X146469979Y-105828432D01*
X146650254Y-105683487D01*
X146806871Y-105813051D01*
X147148611Y-105997830D01*
X147519734Y-106112711D01*
X147906103Y-106153320D01*
X148293001Y-106118110D01*
X148665692Y-106008421D01*
X149009979Y-105828432D01*
X149190254Y-105683487D01*
X149346871Y-105813051D01*
X149688611Y-105997830D01*
X150059734Y-106112711D01*
X150446103Y-106153320D01*
X150833001Y-106118110D01*
X151205692Y-106008421D01*
X151549979Y-105828432D01*
X151852750Y-105584998D01*
X151857625Y-105579188D01*
X151953511Y-105618905D01*
X152074646Y-105643000D01*
X152411450Y-105643000D01*
X152568200Y-105486250D01*
X152568200Y-104508000D01*
X153431800Y-104508000D01*
X153431800Y-105486250D01*
X153588550Y-105643000D01*
X153925354Y-105643000D01*
X154046489Y-105618905D01*
X154160596Y-105571640D01*
X154263289Y-105503023D01*
X154350623Y-105415689D01*
X154419240Y-105312996D01*
X154466505Y-105198889D01*
X154490600Y-105077754D01*
X154490600Y-104664750D01*
X154333850Y-104508000D01*
X153431800Y-104508000D01*
X152568200Y-104508000D01*
X152414800Y-104508000D01*
X152450406Y-104190562D01*
X152450600Y-104162769D01*
X152450600Y-103837231D01*
X152416750Y-103492000D01*
X152568200Y-103492000D01*
X152568200Y-102513750D01*
X153431800Y-102513750D01*
X153431800Y-103492000D01*
X154333850Y-103492000D01*
X154490600Y-103335250D01*
X154490600Y-102922246D01*
X154466505Y-102801111D01*
X154419240Y-102687004D01*
X154350623Y-102584311D01*
X154263289Y-102496977D01*
X154160596Y-102428360D01*
X154046489Y-102381095D01*
X153925354Y-102357000D01*
X153588550Y-102357000D01*
X153431800Y-102513750D01*
X152568200Y-102513750D01*
X152411450Y-102357000D01*
X152074646Y-102357000D01*
X151953511Y-102381095D01*
X151856424Y-102421310D01*
X151651762Y-102252000D01*
X154481404Y-102252000D01*
X154748000Y-102518595D01*
X154748000Y-107481404D01*
X150114702Y-112114702D01*
X150041297Y-112204067D01*
X149966958Y-112292661D01*
X149963786Y-112298430D01*
X149959608Y-112303517D01*
X149904949Y-112405456D01*
X149849243Y-112506785D01*
X149847253Y-112513058D01*
X149844141Y-112518862D01*
X149810331Y-112629451D01*
X149775359Y-112739695D01*
X149774625Y-112746240D01*
X149772701Y-112752533D01*
X149768203Y-112796813D01*
X149682000Y-112738668D01*
X149424017Y-112630222D01*
X149149884Y-112573950D01*
X148870041Y-112571996D01*
X148595149Y-112624435D01*
X148335677Y-112729268D01*
X148101510Y-112882503D01*
X148000078Y-112981833D01*
X147914005Y-112895157D01*
X147682000Y-112738668D01*
X147424017Y-112630222D01*
X147149884Y-112573950D01*
X146870041Y-112571996D01*
X146595149Y-112624435D01*
X146335677Y-112729268D01*
X146101510Y-112882503D01*
X145901565Y-113078304D01*
X145743459Y-113309211D01*
X145633215Y-113566430D01*
X145575031Y-113840164D01*
X145571124Y-114119986D01*
X145621642Y-114395238D01*
X145724661Y-114655435D01*
X145748000Y-114691650D01*
X145748000Y-116845838D01*
X145649864Y-116792776D01*
X145337208Y-116695993D01*
X145011708Y-116661782D01*
X144685762Y-116691445D01*
X144371785Y-116783854D01*
X144081736Y-116935487D01*
X144000782Y-117000576D01*
X143937766Y-116948445D01*
X143649864Y-116792776D01*
X143337208Y-116695993D01*
X143011708Y-116661782D01*
X142685762Y-116691445D01*
X142371785Y-116783854D01*
X142081736Y-116935487D01*
X142000782Y-117000576D01*
X141937766Y-116948445D01*
X141649864Y-116792776D01*
X141337208Y-116695993D01*
X141011708Y-116661782D01*
X140685762Y-116691445D01*
X140371785Y-116783854D01*
X140081736Y-116935487D01*
X139826665Y-117140570D01*
X139645627Y-117356323D01*
X139543476Y-117290538D01*
X139450641Y-117262686D01*
X139275000Y-117367511D01*
X139275000Y-118400000D01*
X139323000Y-118400000D01*
X139323000Y-119600000D01*
X139275000Y-119600000D01*
X139275000Y-120632489D01*
X139450641Y-120737314D01*
X139543476Y-120709462D01*
X139646883Y-120642868D01*
X139748000Y-120766850D01*
X139748000Y-120802579D01*
X139743459Y-120809211D01*
X139633215Y-121066430D01*
X139575031Y-121340164D01*
X139571124Y-121619986D01*
X139621642Y-121895238D01*
X139724661Y-122155435D01*
X139876258Y-122390667D01*
X140070658Y-122591974D01*
X140300456Y-122751687D01*
X140556899Y-122863725D01*
X140830220Y-122923818D01*
X141110008Y-122929679D01*
X141385605Y-122881084D01*
X141646516Y-122779883D01*
X141882800Y-122629933D01*
X141999758Y-122518555D01*
X142070658Y-122591974D01*
X142300456Y-122751687D01*
X142556899Y-122863725D01*
X142830220Y-122923818D01*
X143110008Y-122929679D01*
X143385605Y-122881084D01*
X143582572Y-122804685D01*
X143575031Y-122840164D01*
X143571124Y-123119986D01*
X143621642Y-123395238D01*
X143724661Y-123655435D01*
X143876258Y-123890667D01*
X144070658Y-124091974D01*
X144300456Y-124251687D01*
X144556899Y-124363725D01*
X144830220Y-124423818D01*
X145110008Y-124429679D01*
X145385605Y-124381084D01*
X145646516Y-124279883D01*
X145882800Y-124129933D01*
X146085459Y-123936943D01*
X146246773Y-123708266D01*
X146360598Y-123452611D01*
X146422598Y-123179716D01*
X146427062Y-122860075D01*
X146372705Y-122585556D01*
X146266063Y-122326822D01*
X146252000Y-122305655D01*
X146252000Y-121154162D01*
X146350136Y-121207224D01*
X146662792Y-121304007D01*
X146988292Y-121338218D01*
X147314238Y-121308555D01*
X147599602Y-121224567D01*
X147575031Y-121340164D01*
X147571124Y-121619986D01*
X147621642Y-121895238D01*
X147724661Y-122155435D01*
X147876258Y-122390667D01*
X148070658Y-122591974D01*
X148300456Y-122751687D01*
X148556899Y-122863725D01*
X148603340Y-122873936D01*
X148748000Y-123018595D01*
X148748000Y-127073000D01*
X143306997Y-127073000D01*
X143360598Y-126952611D01*
X143422598Y-126679716D01*
X143427062Y-126360075D01*
X143372705Y-126085556D01*
X143266063Y-125826822D01*
X143111197Y-125593730D01*
X142914005Y-125395157D01*
X142682000Y-125238668D01*
X142424017Y-125130222D01*
X142149884Y-125073950D01*
X141870041Y-125071996D01*
X141595149Y-125124435D01*
X141335677Y-125229268D01*
X141307052Y-125248000D01*
X137907084Y-125248000D01*
X137922598Y-125179716D01*
X137927062Y-124860075D01*
X137872705Y-124585556D01*
X137766063Y-124326822D01*
X137611197Y-124093730D01*
X137414005Y-123895157D01*
X137182000Y-123738668D01*
X136924017Y-123630222D01*
X136894826Y-123624230D01*
X136885298Y-123614702D01*
X136795933Y-123541297D01*
X136707339Y-123466958D01*
X136701570Y-123463786D01*
X136696483Y-123459608D01*
X136594544Y-123404949D01*
X136493215Y-123349243D01*
X136486942Y-123347253D01*
X136481138Y-123344141D01*
X136370549Y-123310331D01*
X136260305Y-123275359D01*
X136253760Y-123274625D01*
X136247467Y-123272701D01*
X136132414Y-123261014D01*
X136017481Y-123248122D01*
X136004619Y-123248032D01*
X136004371Y-123248007D01*
X136004139Y-123248029D01*
X136000000Y-123248000D01*
X133203215Y-123248000D01*
X133018606Y-123018393D01*
X132702013Y-122752740D01*
X132339850Y-122553639D01*
X131945913Y-122428675D01*
X131535205Y-122382606D01*
X131505639Y-122382400D01*
X129494361Y-122382400D01*
X129083050Y-122422729D01*
X128687406Y-122542181D01*
X128322499Y-122736206D01*
X128002228Y-122997413D01*
X127738791Y-123315853D01*
X127542224Y-123679397D01*
X127420012Y-124074197D01*
X127376813Y-124485216D01*
X127414270Y-124896799D01*
X127517232Y-125246637D01*
X127115298Y-124844702D01*
X127025933Y-124771297D01*
X126937339Y-124696958D01*
X126931570Y-124693786D01*
X126926483Y-124689608D01*
X126824544Y-124634949D01*
X126723215Y-124579243D01*
X126716942Y-124577253D01*
X126711138Y-124574141D01*
X126600549Y-124540331D01*
X126490305Y-124505359D01*
X126483760Y-124504625D01*
X126477467Y-124502701D01*
X126362414Y-124491014D01*
X126247481Y-124478122D01*
X126234619Y-124478032D01*
X126234371Y-124478007D01*
X126234139Y-124478029D01*
X126230000Y-124478000D01*
X120945978Y-124478000D01*
X120812094Y-124311482D01*
X120561512Y-124101218D01*
X120594377Y-124062966D01*
X120720802Y-123862999D01*
X120644261Y-123640215D01*
X119375030Y-123640215D01*
X119375030Y-123702650D01*
X119363551Y-123702570D01*
X117636449Y-123702570D01*
X117624970Y-123703696D01*
X117624970Y-123640215D01*
X116355739Y-123640215D01*
X116279198Y-123862999D01*
X116405623Y-124062966D01*
X116439536Y-124102438D01*
X116207852Y-124291395D01*
X115955633Y-124596276D01*
X115767436Y-124944339D01*
X115650429Y-125322329D01*
X115609068Y-125715846D01*
X115644930Y-126109902D01*
X115756649Y-126489489D01*
X115939968Y-126840146D01*
X116068433Y-126999924D01*
X115955633Y-127136276D01*
X115767436Y-127484339D01*
X115650429Y-127862329D01*
X115609068Y-128255846D01*
X115644930Y-128649902D01*
X115756649Y-129029489D01*
X115939968Y-129380146D01*
X115942263Y-129383000D01*
X109940000Y-129383000D01*
X109808880Y-129395856D01*
X109677502Y-129407351D01*
X109670295Y-129409445D01*
X109662828Y-129410177D01*
X109536651Y-129448272D01*
X109410058Y-129485051D01*
X109403396Y-129488504D01*
X109396213Y-129490673D01*
X109279823Y-129552558D01*
X109162800Y-129613217D01*
X109156937Y-129617897D01*
X109150310Y-129621421D01*
X109048163Y-129704731D01*
X108945146Y-129786968D01*
X108934698Y-129797271D01*
X108934487Y-129797443D01*
X108934325Y-129797638D01*
X108930959Y-129800958D01*
X108750425Y-129981493D01*
X108651565Y-130078304D01*
X108493459Y-130309211D01*
X108383215Y-130566430D01*
X108325031Y-130840164D01*
X108321124Y-131119986D01*
X108371642Y-131395238D01*
X108474661Y-131655435D01*
X108626258Y-131890667D01*
X108820658Y-132091974D01*
X109050456Y-132251687D01*
X109306899Y-132363725D01*
X109368337Y-132377233D01*
X109371642Y-132395238D01*
X109474661Y-132655435D01*
X109626258Y-132890667D01*
X109820658Y-133091974D01*
X110050456Y-133251687D01*
X110306899Y-133363725D01*
X110580220Y-133423818D01*
X110860008Y-133429679D01*
X111135605Y-133381084D01*
X111396516Y-133279883D01*
X111440453Y-133252000D01*
X114801172Y-133252000D01*
X115056899Y-133363725D01*
X115330220Y-133423818D01*
X115610008Y-133429679D01*
X115885605Y-133381084D01*
X116146516Y-133279883D01*
X116382800Y-133129933D01*
X116585459Y-132936943D01*
X116746773Y-132708266D01*
X116777105Y-132640138D01*
X116837759Y-132673483D01*
X117214923Y-132793126D01*
X117608142Y-132837232D01*
X117636449Y-132837430D01*
X118297216Y-132837430D01*
X118574893Y-133115107D01*
X118687455Y-133207567D01*
X118799047Y-133301204D01*
X118806313Y-133305198D01*
X118812722Y-133310463D01*
X118941128Y-133379313D01*
X119068754Y-133449476D01*
X119076657Y-133451983D01*
X119083966Y-133455902D01*
X119223239Y-133498482D01*
X119362123Y-133542539D01*
X119370368Y-133543464D01*
X119378294Y-133545887D01*
X119523177Y-133560604D01*
X119667982Y-133576846D01*
X119684194Y-133576959D01*
X119684495Y-133576990D01*
X119684776Y-133576963D01*
X119690000Y-133577000D01*
X128183754Y-133577000D01*
X128065936Y-133769904D01*
X128135078Y-134004700D01*
X129509400Y-134004700D01*
X129509400Y-133577000D01*
X131490600Y-133577000D01*
X131490600Y-134004700D01*
X132864922Y-134004700D01*
X132934064Y-133769904D01*
X132816246Y-133577000D01*
X137423000Y-133577000D01*
X137423000Y-133790357D01*
X137359646Y-133990073D01*
X137323163Y-134315326D01*
X137323000Y-134338741D01*
X137323000Y-135661259D01*
X137354938Y-135986990D01*
X137358262Y-135998000D01*
X132090928Y-135998000D01*
X132335794Y-135879231D01*
X132588628Y-135687840D01*
X132799266Y-135450801D01*
X132934064Y-135230096D01*
X132864922Y-134995300D01*
X131490600Y-134995300D01*
X131490600Y-135490600D01*
X129509400Y-135490600D01*
X129509400Y-134995300D01*
X128135078Y-134995300D01*
X128065936Y-135230096D01*
X128200734Y-135450801D01*
X128411372Y-135687840D01*
X128664206Y-135879231D01*
X128909072Y-135998000D01*
X116195835Y-135998000D01*
X116182000Y-135988668D01*
X115924017Y-135880222D01*
X115649884Y-135823950D01*
X115370041Y-135821996D01*
X115095149Y-135874435D01*
X114835677Y-135979268D01*
X114601510Y-136132503D01*
X114401565Y-136328304D01*
X114243459Y-136559211D01*
X114133215Y-136816430D01*
X114075031Y-137090164D01*
X114071124Y-137369986D01*
X114118279Y-137626916D01*
X113993459Y-137809211D01*
X113883215Y-138066430D01*
X113825031Y-138340164D01*
X113821124Y-138619986D01*
X113871642Y-138895238D01*
X113974661Y-139155435D01*
X114126258Y-139390667D01*
X114320658Y-139591974D01*
X114550456Y-139751687D01*
X114806899Y-139863725D01*
X115080220Y-139923818D01*
X115360008Y-139929679D01*
X115635605Y-139881084D01*
X115896516Y-139779883D01*
X115940453Y-139752000D01*
X142250000Y-139752000D01*
X142365074Y-139740717D01*
X142480307Y-139730635D01*
X142486628Y-139728799D01*
X142493181Y-139728156D01*
X142603932Y-139694718D01*
X142714952Y-139662464D01*
X142720794Y-139659436D01*
X142727100Y-139657532D01*
X142829228Y-139603229D01*
X142931889Y-139550015D01*
X142937036Y-139545906D01*
X142942846Y-139542817D01*
X142962080Y-139527130D01*
X144829977Y-139527130D01*
X144949599Y-139743157D01*
X145262412Y-139812888D01*
X145582818Y-139820252D01*
X145898504Y-139764967D01*
X145970401Y-139743157D01*
X146090023Y-139527130D01*
X145460000Y-138897107D01*
X144829977Y-139527130D01*
X142962080Y-139527130D01*
X143032477Y-139469717D01*
X143122850Y-139397572D01*
X143132013Y-139388537D01*
X143132202Y-139388383D01*
X143132347Y-139388208D01*
X143135298Y-139385298D01*
X143885298Y-138635298D01*
X143886610Y-138633701D01*
X143906843Y-138700401D01*
X144122870Y-138820023D01*
X144752893Y-138190000D01*
X144399340Y-137836447D01*
X144906196Y-137329590D01*
X144988292Y-137338218D01*
X145288046Y-137310939D01*
X145460000Y-137482893D01*
X145813554Y-137129340D01*
X146520661Y-137836447D01*
X146167107Y-138190000D01*
X146797130Y-138820023D01*
X147013157Y-138700401D01*
X147080867Y-138396653D01*
X147137966Y-138453752D01*
X147586454Y-138005264D01*
X146911318Y-137330128D01*
X146988292Y-137338218D01*
X147314238Y-137308555D01*
X147628215Y-137216146D01*
X147918264Y-137064513D01*
X147999218Y-136999424D01*
X148062234Y-137051555D01*
X148350136Y-137207224D01*
X148612216Y-137288351D01*
X148502753Y-137543747D01*
X148416028Y-137951758D01*
X148410204Y-138368844D01*
X148485503Y-138779118D01*
X148639058Y-139166952D01*
X148865018Y-139517574D01*
X149154779Y-139817630D01*
X149497301Y-140055689D01*
X149879540Y-140222685D01*
X150286936Y-140312257D01*
X150703971Y-140320993D01*
X151114760Y-140248560D01*
X151503657Y-140097717D01*
X151855848Y-139874209D01*
X152157919Y-139586551D01*
X152223288Y-139493884D01*
X154718843Y-141989439D01*
X154696248Y-142012034D01*
X154757855Y-142073641D01*
X154521496Y-142115033D01*
X154449599Y-142136843D01*
X154329977Y-142352870D01*
X154873000Y-142895893D01*
X154873000Y-144484107D01*
X154329977Y-145027130D01*
X154449599Y-145243157D01*
X154753347Y-145310867D01*
X154696248Y-145367966D01*
X154873000Y-145544718D01*
X154873000Y-149455282D01*
X154696248Y-149632034D01*
X154757854Y-149693640D01*
X154521496Y-149735033D01*
X154449599Y-149756843D01*
X154329977Y-149972870D01*
X154873000Y-150515893D01*
X154873000Y-152104107D01*
X154329977Y-152647130D01*
X154449599Y-152863157D01*
X154753347Y-152930867D01*
X154696248Y-152987966D01*
X154873000Y-153164718D01*
X154873000Y-160823000D01*
X138890580Y-160823000D01*
X138899991Y-160814381D01*
X138000000Y-159914390D01*
X137100009Y-160814381D01*
X137109420Y-160823000D01*
X135873002Y-160823000D01*
X135873002Y-160344023D01*
X135879231Y-160335794D01*
X136017619Y-160050479D01*
X136063931Y-159873002D01*
X136117600Y-159873002D01*
X136117600Y-158968010D01*
X136585610Y-158500000D01*
X139414390Y-158500000D01*
X139932464Y-159018074D01*
X139945503Y-159089118D01*
X140099058Y-159476952D01*
X140325018Y-159827574D01*
X140614779Y-160127630D01*
X140957301Y-160365689D01*
X141339540Y-160532685D01*
X141746936Y-160622257D01*
X142163971Y-160630993D01*
X142574760Y-160558560D01*
X142963657Y-160407717D01*
X143315848Y-160184209D01*
X143617919Y-159896551D01*
X143858365Y-159555698D01*
X144028025Y-159174634D01*
X144120439Y-158767874D01*
X144127092Y-158291437D01*
X144046071Y-157882255D01*
X143887117Y-157496602D01*
X143656283Y-157149169D01*
X143362361Y-156853188D01*
X143016548Y-156619934D01*
X142632014Y-156458291D01*
X142223408Y-156374416D01*
X141806292Y-156371504D01*
X141396554Y-156449666D01*
X141009801Y-156605924D01*
X140660765Y-156834327D01*
X140362739Y-157126175D01*
X140127077Y-157470352D01*
X139962753Y-157853747D01*
X139936329Y-157978061D01*
X139414390Y-158500000D01*
X136585610Y-158500000D01*
X136117600Y-158031990D01*
X136117600Y-157126998D01*
X136063931Y-157126998D01*
X136017619Y-156949521D01*
X135879231Y-156664206D01*
X135687840Y-156411372D01*
X135450801Y-156200734D01*
X135426054Y-156185619D01*
X137100009Y-156185619D01*
X138000000Y-157085610D01*
X138899991Y-156185619D01*
X138626949Y-155935564D01*
X138114606Y-155862528D01*
X137597858Y-155890848D01*
X137373051Y-155935564D01*
X137100009Y-156185619D01*
X135426054Y-156185619D01*
X135230096Y-156065936D01*
X134995300Y-156135078D01*
X134995300Y-157509400D01*
X135490600Y-157509400D01*
X135490600Y-157812956D01*
X135435564Y-157873051D01*
X135362528Y-158385394D01*
X135390848Y-158902142D01*
X135435564Y-159126949D01*
X135490600Y-159187044D01*
X135490600Y-159490600D01*
X134995300Y-159490600D01*
X134995300Y-159893000D01*
X134004700Y-159893000D01*
X134004700Y-159490600D01*
X133509400Y-159490600D01*
X133509400Y-157509400D01*
X134004700Y-157509400D01*
X134004700Y-156135078D01*
X133769904Y-156065936D01*
X133549199Y-156200734D01*
X133312160Y-156411372D01*
X133120769Y-156664206D01*
X133031502Y-156848248D01*
X132886664Y-156496843D01*
X132655885Y-156149493D01*
X132362034Y-155853583D01*
X132016304Y-155620385D01*
X131631863Y-155458781D01*
X131223354Y-155374926D01*
X130806338Y-155372015D01*
X130396699Y-155450158D01*
X130234669Y-155515623D01*
X129925803Y-155420012D01*
X129514784Y-155376813D01*
X129103201Y-155414270D01*
X128706733Y-155530956D01*
X128340480Y-155722429D01*
X128018393Y-155981394D01*
X127752740Y-156297987D01*
X127553639Y-156660150D01*
X127428675Y-157054087D01*
X127382606Y-157464795D01*
X127382400Y-157494361D01*
X127382400Y-159505639D01*
X127422729Y-159916950D01*
X127542181Y-160312594D01*
X127736206Y-160677501D01*
X127854872Y-160823000D01*
X126145740Y-160823000D01*
X126247260Y-160702013D01*
X126446361Y-160339850D01*
X126571325Y-159945913D01*
X126617394Y-159535205D01*
X126617600Y-159505639D01*
X126617600Y-157494361D01*
X126577271Y-157083050D01*
X126457819Y-156687406D01*
X126263794Y-156322499D01*
X126002587Y-156002228D01*
X125684147Y-155738791D01*
X125320603Y-155542224D01*
X124925803Y-155420012D01*
X124514784Y-155376813D01*
X124103201Y-155414270D01*
X123763686Y-155514194D01*
X123631863Y-155458781D01*
X123223354Y-155374926D01*
X122806338Y-155372015D01*
X122396699Y-155450158D01*
X122010039Y-155606379D01*
X121661086Y-155834727D01*
X121363132Y-156126505D01*
X121244843Y-156299262D01*
X121002587Y-156002228D01*
X120684147Y-155738791D01*
X120320603Y-155542224D01*
X119925803Y-155420012D01*
X119514784Y-155376813D01*
X119103201Y-155414270D01*
X118706733Y-155530956D01*
X118340480Y-155722429D01*
X118018393Y-155981394D01*
X117960672Y-156050184D01*
X117494592Y-155735809D01*
X116929227Y-155498151D01*
X116328468Y-155374833D01*
X115715198Y-155370552D01*
X115112776Y-155485470D01*
X114544147Y-155715211D01*
X114030972Y-156051023D01*
X113592796Y-156480116D01*
X113246311Y-156986146D01*
X113004712Y-157549839D01*
X112877203Y-158149722D01*
X112868640Y-158762948D01*
X112979350Y-159366158D01*
X113205115Y-159936376D01*
X113230007Y-159975000D01*
X113020000Y-159975000D01*
X113020000Y-159998000D01*
X112220000Y-159998000D01*
X112220000Y-159975000D01*
X111985828Y-159975000D01*
X112006812Y-159787922D01*
X112007000Y-159761017D01*
X112007000Y-159038983D01*
X111986019Y-158825000D01*
X112220000Y-158825000D01*
X112220000Y-157844374D01*
X112010642Y-157759646D01*
X111990336Y-157800549D01*
X111758679Y-157947398D01*
X111700912Y-158002449D01*
X111685039Y-157972597D01*
X111555120Y-157813301D01*
X111660177Y-157757442D01*
X111777200Y-157696783D01*
X111783063Y-157692103D01*
X111789690Y-157688579D01*
X111891843Y-157605264D01*
X111994855Y-157523031D01*
X112005298Y-157512733D01*
X112005513Y-157512557D01*
X112005678Y-157512357D01*
X112009041Y-157509041D01*
X114161332Y-155356750D01*
X140373000Y-155356750D01*
X140373000Y-155761754D01*
X140397095Y-155882889D01*
X140444360Y-155996996D01*
X140512977Y-156099689D01*
X140600311Y-156187023D01*
X140703004Y-156255640D01*
X140817111Y-156302905D01*
X140938246Y-156327000D01*
X141343250Y-156327000D01*
X141500000Y-156170250D01*
X141500000Y-155200000D01*
X142500000Y-155200000D01*
X142500000Y-156170250D01*
X142656750Y-156327000D01*
X143061754Y-156327000D01*
X143182889Y-156302905D01*
X143296996Y-156255640D01*
X143399689Y-156187023D01*
X143487023Y-156099689D01*
X143555640Y-155996996D01*
X143602905Y-155882889D01*
X143627000Y-155761754D01*
X143627000Y-155356750D01*
X143470250Y-155200000D01*
X142500000Y-155200000D01*
X141500000Y-155200000D01*
X140529750Y-155200000D01*
X140373000Y-155356750D01*
X114161332Y-155356750D01*
X115591083Y-153927000D01*
X126982120Y-153927000D01*
X127110008Y-153929679D01*
X127385605Y-153881084D01*
X127646516Y-153779883D01*
X127869700Y-153638246D01*
X140373000Y-153638246D01*
X140373000Y-154043250D01*
X140529750Y-154200000D01*
X141500000Y-154200000D01*
X141500000Y-153229750D01*
X142500000Y-153229750D01*
X142500000Y-154200000D01*
X143470250Y-154200000D01*
X143627000Y-154043250D01*
X143627000Y-153638246D01*
X143602905Y-153517111D01*
X143555640Y-153403004D01*
X143487023Y-153300311D01*
X143399689Y-153212977D01*
X143296996Y-153144360D01*
X143182889Y-153097095D01*
X143061754Y-153073000D01*
X142656750Y-153073000D01*
X142500000Y-153229750D01*
X141500000Y-153229750D01*
X141343250Y-153073000D01*
X140938246Y-153073000D01*
X140817111Y-153097095D01*
X140703004Y-153144360D01*
X140600311Y-153212977D01*
X140512977Y-153300311D01*
X140444360Y-153403004D01*
X140397095Y-153517111D01*
X140373000Y-153638246D01*
X127869700Y-153638246D01*
X127882800Y-153629933D01*
X128085459Y-153436943D01*
X128246773Y-153208266D01*
X128360598Y-152952611D01*
X128422598Y-152679716D01*
X128424663Y-152531866D01*
X128426965Y-152509962D01*
X128425234Y-152490945D01*
X128427062Y-152360075D01*
X128372705Y-152085556D01*
X128338266Y-152002000D01*
X128801172Y-152002000D01*
X129056899Y-152113725D01*
X129330220Y-152173818D01*
X129610008Y-152179679D01*
X129885605Y-152131084D01*
X130146516Y-152029883D01*
X130382800Y-151879933D01*
X130585459Y-151686943D01*
X130746773Y-151458266D01*
X130860598Y-151202611D01*
X130922598Y-150929716D01*
X130927062Y-150610075D01*
X130872705Y-150335556D01*
X130766063Y-150076822D01*
X130611197Y-149843730D01*
X130414005Y-149645157D01*
X130182000Y-149488668D01*
X129924017Y-149380222D01*
X129649884Y-149323950D01*
X129370041Y-149321996D01*
X129095149Y-149374435D01*
X128835677Y-149479268D01*
X128807052Y-149498000D01*
X125157084Y-149498000D01*
X125172598Y-149429716D01*
X125177062Y-149110075D01*
X125122705Y-148835556D01*
X125016063Y-148576822D01*
X124861197Y-148343730D01*
X124664005Y-148145157D01*
X124432000Y-147988668D01*
X124174017Y-147880222D01*
X123899884Y-147823950D01*
X123620041Y-147821996D01*
X123345149Y-147874435D01*
X123085677Y-147979268D01*
X123057052Y-147998000D01*
X101592562Y-147998000D01*
X101624567Y-147927000D01*
X109732120Y-147927000D01*
X109860008Y-147929679D01*
X109875201Y-147927000D01*
X119232120Y-147927000D01*
X119360008Y-147929679D01*
X119635605Y-147881084D01*
X119896516Y-147779883D01*
X120132800Y-147629933D01*
X120335459Y-147436943D01*
X120496773Y-147208266D01*
X120596108Y-146985154D01*
X127780472Y-146985154D01*
X127818086Y-147398464D01*
X127935263Y-147796597D01*
X128127539Y-148164388D01*
X128387591Y-148487827D01*
X128705513Y-148754596D01*
X129069196Y-148954532D01*
X129464788Y-149080021D01*
X129877220Y-149126283D01*
X129906910Y-149126490D01*
X130933090Y-149126490D01*
X131346127Y-149085991D01*
X131743432Y-148966038D01*
X132109872Y-148771199D01*
X132431488Y-148508895D01*
X132696030Y-148189118D01*
X132893423Y-147824048D01*
X132960021Y-147608903D01*
X133015263Y-147796597D01*
X133207539Y-148164388D01*
X133467591Y-148487827D01*
X133692991Y-148676961D01*
X133633215Y-148816430D01*
X133575031Y-149090164D01*
X133571124Y-149369986D01*
X133621642Y-149645238D01*
X133724661Y-149905435D01*
X133784827Y-149998794D01*
X133743459Y-150059211D01*
X133633215Y-150316430D01*
X133575031Y-150590164D01*
X133571124Y-150869986D01*
X133621642Y-151145238D01*
X133724661Y-151405435D01*
X133876258Y-151640667D01*
X134070658Y-151841974D01*
X134300456Y-152001687D01*
X134556899Y-152113725D01*
X134830220Y-152173818D01*
X135110008Y-152179679D01*
X135385605Y-152131084D01*
X135646516Y-152029883D01*
X135690453Y-152002000D01*
X138051172Y-152002000D01*
X138306899Y-152113725D01*
X138580220Y-152173818D01*
X138860008Y-152179679D01*
X139135605Y-152131084D01*
X139396516Y-152029883D01*
X139632800Y-151879933D01*
X139835459Y-151686943D01*
X139996773Y-151458266D01*
X140110598Y-151202611D01*
X140172598Y-150929716D01*
X140177062Y-150610075D01*
X140122705Y-150335556D01*
X140016063Y-150076822D01*
X139966143Y-150001687D01*
X139996773Y-149958266D01*
X140110598Y-149702611D01*
X140172598Y-149429716D01*
X140173432Y-149369986D01*
X144071124Y-149369986D01*
X144121642Y-149645238D01*
X144224661Y-149905435D01*
X144376258Y-150140667D01*
X144570658Y-150341974D01*
X144800456Y-150501687D01*
X145056899Y-150613725D01*
X145074648Y-150617627D01*
X145071124Y-150869986D01*
X145121642Y-151145238D01*
X145224661Y-151405435D01*
X145376258Y-151640667D01*
X145570658Y-151841974D01*
X145800456Y-152001687D01*
X146056899Y-152113725D01*
X146330220Y-152173818D01*
X146610008Y-152179679D01*
X146885605Y-152131084D01*
X147146516Y-152029883D01*
X147382800Y-151879933D01*
X147585459Y-151686943D01*
X147746773Y-151458266D01*
X147758103Y-151432818D01*
X153329748Y-151432818D01*
X153385033Y-151748504D01*
X153406843Y-151820401D01*
X153622870Y-151940023D01*
X154252893Y-151310000D01*
X153622870Y-150679977D01*
X153406843Y-150799599D01*
X153337112Y-151112412D01*
X153329748Y-151432818D01*
X147758103Y-151432818D01*
X147860598Y-151202611D01*
X147873126Y-151147470D01*
X151175656Y-147844940D01*
X151503657Y-147717717D01*
X151855848Y-147494209D01*
X152157919Y-147206551D01*
X152398365Y-146865698D01*
X152568025Y-146484634D01*
X152660439Y-146077874D01*
X152667092Y-145601437D01*
X152586071Y-145192255D01*
X152427117Y-144806602D01*
X152196283Y-144459169D01*
X151902361Y-144163188D01*
X151556548Y-143929934D01*
X151277940Y-143812818D01*
X153329748Y-143812818D01*
X153385033Y-144128504D01*
X153406843Y-144200401D01*
X153622870Y-144320023D01*
X154252893Y-143690000D01*
X153622870Y-143059977D01*
X153406843Y-143179599D01*
X153337112Y-143492412D01*
X153329748Y-143812818D01*
X151277940Y-143812818D01*
X151172014Y-143768291D01*
X150763408Y-143684416D01*
X150346292Y-143681504D01*
X149936554Y-143759666D01*
X149549801Y-143915924D01*
X149200765Y-144144327D01*
X148902739Y-144436175D01*
X148808413Y-144573935D01*
X148682000Y-144488668D01*
X148424017Y-144380222D01*
X148149884Y-144323950D01*
X147870041Y-144321996D01*
X147595149Y-144374435D01*
X147335677Y-144479268D01*
X147101510Y-144632503D01*
X146901565Y-144828304D01*
X146743459Y-145059211D01*
X146633215Y-145316430D01*
X146625802Y-145351305D01*
X146167107Y-145810000D01*
X146520661Y-146163554D01*
X145813554Y-146870661D01*
X145460000Y-146517107D01*
X144829977Y-147147130D01*
X144949599Y-147363157D01*
X145253347Y-147430867D01*
X145196248Y-147487966D01*
X145343843Y-147635561D01*
X145107284Y-147872120D01*
X145095149Y-147874435D01*
X144835677Y-147979268D01*
X144601510Y-148132503D01*
X144401565Y-148328304D01*
X144243459Y-148559211D01*
X144133215Y-148816430D01*
X144075031Y-149090164D01*
X144071124Y-149369986D01*
X140173432Y-149369986D01*
X140177062Y-149110075D01*
X140122705Y-148835556D01*
X140016063Y-148576822D01*
X139861197Y-148343730D01*
X139664005Y-148145157D01*
X139432000Y-147988668D01*
X139174017Y-147880222D01*
X138899884Y-147823950D01*
X138620041Y-147821996D01*
X138345149Y-147874435D01*
X138085677Y-147979268D01*
X138057052Y-147998000D01*
X137879367Y-147998000D01*
X137973423Y-147824048D01*
X138096147Y-147427590D01*
X138139528Y-147014846D01*
X138101914Y-146601536D01*
X137984737Y-146203403D01*
X137843279Y-145932818D01*
X143829748Y-145932818D01*
X143885033Y-146248504D01*
X143906843Y-146320401D01*
X144122870Y-146440023D01*
X144752893Y-145810000D01*
X144122870Y-145179977D01*
X143906843Y-145299599D01*
X143837112Y-145612412D01*
X143829748Y-145932818D01*
X137843279Y-145932818D01*
X137792461Y-145835612D01*
X137532409Y-145512173D01*
X137214487Y-145245404D01*
X136850804Y-145045468D01*
X136455212Y-144919979D01*
X136042780Y-144873717D01*
X136013090Y-144873510D01*
X134986910Y-144873510D01*
X134573873Y-144914009D01*
X134176568Y-145033962D01*
X133845610Y-145209935D01*
X133459745Y-145209935D01*
X133459745Y-145525878D01*
X133223970Y-145810882D01*
X133201197Y-145853000D01*
X132721551Y-145853000D01*
X132712461Y-145835612D01*
X132460255Y-145521931D01*
X132460255Y-145209935D01*
X132069969Y-145209935D01*
X131770804Y-145045468D01*
X131375212Y-144919979D01*
X130962780Y-144873717D01*
X130933090Y-144873510D01*
X129906910Y-144873510D01*
X129493873Y-144914009D01*
X129096568Y-145033962D01*
X128730128Y-145228801D01*
X128408512Y-145491105D01*
X128143970Y-145810882D01*
X127946577Y-146175952D01*
X127823853Y-146572410D01*
X127780472Y-146985154D01*
X120596108Y-146985154D01*
X120610598Y-146952611D01*
X120672598Y-146679716D01*
X120674663Y-146531866D01*
X120676965Y-146509962D01*
X120675234Y-146490945D01*
X120677062Y-146360075D01*
X120622705Y-146085556D01*
X120619178Y-146077000D01*
X121750000Y-146077000D01*
X121894992Y-146062783D01*
X122040091Y-146050089D01*
X122048055Y-146047775D01*
X122056308Y-146046966D01*
X122195763Y-146004862D01*
X122335647Y-145964222D01*
X122343009Y-145960406D01*
X122350948Y-145958009D01*
X122479544Y-145889633D01*
X122608896Y-145822584D01*
X122615379Y-145817408D01*
X122622698Y-145813517D01*
X122735565Y-145721465D01*
X122849429Y-145630568D01*
X122860968Y-145619189D01*
X122861208Y-145618993D01*
X122861392Y-145618771D01*
X122865107Y-145615107D01*
X123186149Y-145294065D01*
X123298948Y-145260009D01*
X123570698Y-145115517D01*
X123809208Y-144920993D01*
X124005392Y-144683847D01*
X124119466Y-144472870D01*
X144829977Y-144472870D01*
X145460000Y-145102893D01*
X146090023Y-144472870D01*
X145970401Y-144256843D01*
X145657588Y-144187112D01*
X145337182Y-144179748D01*
X145021496Y-144235033D01*
X144949599Y-144256843D01*
X144829977Y-144472870D01*
X124119466Y-144472870D01*
X124151778Y-144413112D01*
X124242790Y-144119100D01*
X124274962Y-143813009D01*
X124247067Y-143506500D01*
X124235696Y-143467862D01*
X131450431Y-143467862D01*
X131548838Y-143710065D01*
X132460255Y-143710065D01*
X132460255Y-142577451D01*
X133459745Y-142577451D01*
X133459745Y-143710065D01*
X134371162Y-143710065D01*
X134469569Y-143467862D01*
X134344626Y-143182809D01*
X134166472Y-142927608D01*
X133941954Y-142712067D01*
X133695724Y-142509040D01*
X133459745Y-142577451D01*
X132460255Y-142577451D01*
X132224276Y-142509040D01*
X131978046Y-142712067D01*
X131753528Y-142927608D01*
X131575374Y-143182809D01*
X131450431Y-143467862D01*
X124235696Y-143467862D01*
X124160169Y-143211245D01*
X124017577Y-142938493D01*
X123824723Y-142698631D01*
X123588953Y-142500796D01*
X123319246Y-142352524D01*
X123025877Y-142259461D01*
X122720018Y-142225154D01*
X122698000Y-142225000D01*
X122448000Y-142225000D01*
X122303008Y-142239217D01*
X122157909Y-142251911D01*
X122149945Y-142254225D01*
X122141692Y-142255034D01*
X122002237Y-142297138D01*
X121862353Y-142337778D01*
X121854991Y-142341594D01*
X121847052Y-142343991D01*
X121718456Y-142412367D01*
X121589104Y-142479416D01*
X121582621Y-142484592D01*
X121575302Y-142488483D01*
X121462435Y-142580535D01*
X121348571Y-142671432D01*
X121337032Y-142682811D01*
X121336792Y-142683007D01*
X121336608Y-142683229D01*
X121332893Y-142686893D01*
X121096786Y-142923000D01*
X116426183Y-142923000D01*
X116427062Y-142860075D01*
X116372705Y-142585556D01*
X116266063Y-142326822D01*
X116111197Y-142093730D01*
X115914005Y-141895157D01*
X115682000Y-141738668D01*
X115424017Y-141630222D01*
X115149884Y-141573950D01*
X114870041Y-141571996D01*
X114595149Y-141624435D01*
X114335677Y-141729268D01*
X114307052Y-141748000D01*
X104445835Y-141748000D01*
X104432000Y-141738668D01*
X104174017Y-141630222D01*
X103899884Y-141573950D01*
X103620041Y-141571996D01*
X103345149Y-141624435D01*
X103085677Y-141729268D01*
X102851510Y-141882503D01*
X102651565Y-142078304D01*
X102493459Y-142309211D01*
X102383215Y-142566430D01*
X102325031Y-142840164D01*
X102323633Y-142940293D01*
X102193692Y-142953034D01*
X101899052Y-143041991D01*
X101712453Y-143141207D01*
X101712453Y-142484000D01*
X101698141Y-142304529D01*
X101603874Y-142000128D01*
X101596587Y-141989070D01*
X101667618Y-141831494D01*
X101712453Y-141516000D01*
X101712453Y-139484000D01*
X101698141Y-139304529D01*
X101603874Y-139000128D01*
X101596587Y-138989070D01*
X101667618Y-138831494D01*
X101712453Y-138516000D01*
X101712453Y-137369986D01*
X104321124Y-137369986D01*
X104371642Y-137645238D01*
X104474661Y-137905435D01*
X104626258Y-138140667D01*
X104820658Y-138341974D01*
X105050456Y-138501687D01*
X105306899Y-138613725D01*
X105580220Y-138673818D01*
X105860008Y-138679679D01*
X106135605Y-138631084D01*
X106396516Y-138529883D01*
X106440453Y-138502000D01*
X110051172Y-138502000D01*
X110306899Y-138613725D01*
X110580220Y-138673818D01*
X110860008Y-138679679D01*
X111135605Y-138631084D01*
X111396516Y-138529883D01*
X111632800Y-138379933D01*
X111835459Y-138186943D01*
X111996773Y-137958266D01*
X112110598Y-137702611D01*
X112172598Y-137429716D01*
X112177062Y-137110075D01*
X112122705Y-136835556D01*
X112016063Y-136576822D01*
X111861197Y-136343730D01*
X111664005Y-136145157D01*
X111432000Y-135988668D01*
X111174017Y-135880222D01*
X110899884Y-135823950D01*
X110620041Y-135821996D01*
X110345149Y-135874435D01*
X110085677Y-135979268D01*
X110057052Y-135998000D01*
X106445835Y-135998000D01*
X106432000Y-135988668D01*
X106174017Y-135880222D01*
X105899884Y-135823950D01*
X105620041Y-135821996D01*
X105345149Y-135874435D01*
X105085677Y-135979268D01*
X104851510Y-136132503D01*
X104651565Y-136328304D01*
X104493459Y-136559211D01*
X104383215Y-136816430D01*
X104325031Y-137090164D01*
X104321124Y-137369986D01*
X101712453Y-137369986D01*
X101712453Y-136484000D01*
X101698141Y-136304529D01*
X101603874Y-136000128D01*
X101596587Y-135989070D01*
X101667618Y-135831494D01*
X101712453Y-135516000D01*
X101712453Y-133484000D01*
X101698141Y-133304529D01*
X101603874Y-133000128D01*
X101596587Y-132989070D01*
X101667618Y-132831494D01*
X101712453Y-132516000D01*
X101712453Y-130484000D01*
X101698141Y-130304529D01*
X101603874Y-130000128D01*
X101596587Y-129989070D01*
X101667618Y-129831494D01*
X101712453Y-129516000D01*
X101712453Y-127484000D01*
X101698141Y-127304529D01*
X101603874Y-127000128D01*
X101596587Y-126989070D01*
X101667618Y-126831494D01*
X101712453Y-126516000D01*
X101712453Y-124484000D01*
X101698141Y-124304529D01*
X101603874Y-124000128D01*
X101428534Y-123734040D01*
X101186006Y-123527336D01*
X100895494Y-123396382D01*
X100580000Y-123351547D01*
X98580000Y-123351547D01*
X98400529Y-123365859D01*
X98318803Y-123391168D01*
X98040000Y-123351547D01*
X96040000Y-123351547D01*
X95860529Y-123365859D01*
X95556128Y-123460126D01*
X95290040Y-123635466D01*
X95083336Y-123877994D01*
X95040313Y-123973437D01*
X95000000Y-124013750D01*
X95000000Y-124062869D01*
X94952382Y-124168506D01*
X94907547Y-124484000D01*
X94907547Y-126516000D01*
X94921859Y-126695471D01*
X95000000Y-126947799D01*
X95000000Y-126986250D01*
X95013750Y-127000000D01*
X95000000Y-127013750D01*
X95000000Y-127062869D01*
X94952382Y-127168506D01*
X94907547Y-127484000D01*
X94907547Y-129516000D01*
X94921859Y-129695471D01*
X95000000Y-129947799D01*
X95000000Y-129986250D01*
X95013750Y-130000000D01*
X95000000Y-130013750D01*
X95000000Y-130062869D01*
X94952382Y-130168506D01*
X94907547Y-130484000D01*
X94907547Y-132516000D01*
X94921859Y-132695471D01*
X95000000Y-132947799D01*
X95000000Y-132986250D01*
X95013750Y-133000000D01*
X95000000Y-133013750D01*
X95000000Y-133062869D01*
X94952382Y-133168506D01*
X94907547Y-133484000D01*
X94907547Y-135516000D01*
X94921859Y-135695471D01*
X95000000Y-135947799D01*
X95000000Y-135986250D01*
X95013750Y-136000000D01*
X95000000Y-136013750D01*
X95000000Y-136062869D01*
X94952382Y-136168506D01*
X94907547Y-136484000D01*
X94907547Y-138516000D01*
X94921859Y-138695471D01*
X94999468Y-138946082D01*
X94931800Y-139013750D01*
X94931800Y-139313337D01*
X94907547Y-139484000D01*
X94907547Y-141516000D01*
X94921859Y-141695471D01*
X94931800Y-141727572D01*
X94931800Y-141986250D01*
X95000000Y-142054450D01*
X95000000Y-142062869D01*
X94952382Y-142168506D01*
X94907547Y-142484000D01*
X94907547Y-144516000D01*
X94921859Y-144695471D01*
X95000000Y-144947799D01*
X95000000Y-144986250D01*
X95013750Y-145000000D01*
X95000000Y-145013750D01*
X95000000Y-145062869D01*
X94952382Y-145168506D01*
X94907547Y-145484000D01*
X94907547Y-147516000D01*
X94921859Y-147695471D01*
X95000000Y-147947799D01*
X95000000Y-147986250D01*
X95020964Y-148007214D01*
X95191466Y-148265960D01*
X95433994Y-148472664D01*
X95724506Y-148603618D01*
X96040000Y-148648453D01*
X96335222Y-148648453D01*
X96151565Y-148828304D01*
X95993459Y-149059211D01*
X95883215Y-149316430D01*
X95825031Y-149590164D01*
X95821124Y-149869986D01*
X95871642Y-150145238D01*
X95912432Y-150248262D01*
X95883215Y-150316430D01*
X95825031Y-150590164D01*
X95821124Y-150869986D01*
X95871642Y-151145238D01*
X95974661Y-151405435D01*
X96126258Y-151640667D01*
X96320658Y-151841974D01*
X96550456Y-152001687D01*
X96806899Y-152113725D01*
X97080220Y-152173818D01*
X97360008Y-152179679D01*
X97635605Y-152131084D01*
X97896516Y-152029883D01*
X97940453Y-152002000D01*
X104481404Y-152002000D01*
X106364703Y-153885298D01*
X106454048Y-153958687D01*
X106542661Y-154033042D01*
X106548429Y-154036213D01*
X106553518Y-154040393D01*
X106655509Y-154095080D01*
X106756785Y-154150757D01*
X106763054Y-154152746D01*
X106768862Y-154155860D01*
X106879497Y-154189684D01*
X106989695Y-154224641D01*
X106996240Y-154225375D01*
X107002533Y-154227299D01*
X107117581Y-154238986D01*
X107232519Y-154251878D01*
X107245382Y-154251968D01*
X107245630Y-154251993D01*
X107245861Y-154251971D01*
X107250000Y-154252000D01*
X111229918Y-154252000D01*
X110408918Y-155073000D01*
X106000000Y-155073000D01*
X105868880Y-155085856D01*
X105737502Y-155097351D01*
X105730295Y-155099445D01*
X105722828Y-155100177D01*
X105596651Y-155138272D01*
X105470058Y-155175051D01*
X105463396Y-155178504D01*
X105456213Y-155180673D01*
X105339823Y-155242558D01*
X105222800Y-155303217D01*
X105216937Y-155307897D01*
X105210310Y-155311421D01*
X105108163Y-155394731D01*
X105005146Y-155476968D01*
X104994698Y-155487271D01*
X104994487Y-155487443D01*
X104994325Y-155487638D01*
X104990959Y-155490958D01*
X103990959Y-156490959D01*
X103907323Y-156592778D01*
X103822563Y-156693792D01*
X103818948Y-156700367D01*
X103814185Y-156706166D01*
X103751882Y-156822360D01*
X103688394Y-156937845D01*
X103686126Y-156944995D01*
X103682579Y-156951610D01*
X103644040Y-157077665D01*
X103604183Y-157203310D01*
X103603346Y-157210769D01*
X103601153Y-157217943D01*
X103587836Y-157349048D01*
X103573139Y-157480076D01*
X103573037Y-157494747D01*
X103573009Y-157495019D01*
X103573033Y-157495273D01*
X103573000Y-157500000D01*
X103573000Y-157756043D01*
X103410006Y-157950292D01*
X103228826Y-158279857D01*
X103115110Y-158638337D01*
X103073188Y-159012078D01*
X103073000Y-159038983D01*
X103073000Y-159761017D01*
X103109699Y-160135307D01*
X103218400Y-160495340D01*
X103392620Y-160823000D01*
X93177000Y-160823000D01*
X93177000Y-158220885D01*
X93369547Y-158220885D01*
X93462547Y-158727603D01*
X93652198Y-159206606D01*
X93931276Y-159639651D01*
X94289151Y-160010241D01*
X94712191Y-160304262D01*
X95184284Y-160510514D01*
X95687448Y-160621142D01*
X96202516Y-160631931D01*
X96709871Y-160542471D01*
X97190186Y-160356169D01*
X97625168Y-160080121D01*
X97998248Y-159724842D01*
X98295215Y-159303864D01*
X98504758Y-158833222D01*
X98618896Y-158330844D01*
X98627113Y-157742409D01*
X98527047Y-157237040D01*
X98330726Y-156760731D01*
X98045629Y-156331625D01*
X97682615Y-155966068D01*
X97255510Y-155677982D01*
X96780584Y-155478341D01*
X96275925Y-155374750D01*
X95760756Y-155371153D01*
X95254700Y-155467688D01*
X94777032Y-155660679D01*
X94345947Y-155942773D01*
X93977864Y-156303226D01*
X93686804Y-156728310D01*
X93483852Y-157201831D01*
X93376740Y-157705754D01*
X93369547Y-158220885D01*
X93177000Y-158220885D01*
X93177000Y-148054265D01*
X93203004Y-148071640D01*
X93317111Y-148118905D01*
X93438246Y-148143000D01*
X93843250Y-148143000D01*
X94000000Y-147986250D01*
X94000000Y-147008000D01*
X93500000Y-147008000D01*
X93500000Y-145992000D01*
X94000000Y-145992000D01*
X94000000Y-145013750D01*
X93986250Y-145000000D01*
X94000000Y-144986250D01*
X94000000Y-144008000D01*
X93500000Y-144008000D01*
X93500000Y-142992000D01*
X94000000Y-142992000D01*
X94000000Y-142054450D01*
X94068200Y-141986250D01*
X94068200Y-141008000D01*
X93636400Y-141008000D01*
X93636400Y-139992000D01*
X94068200Y-139992000D01*
X94068200Y-139013750D01*
X94000000Y-138945550D01*
X94000000Y-138008000D01*
X93500000Y-138008000D01*
X93500000Y-136992000D01*
X94000000Y-136992000D01*
X94000000Y-136013750D01*
X93986250Y-136000000D01*
X94000000Y-135986250D01*
X94000000Y-135008000D01*
X93500000Y-135008000D01*
X93500000Y-133992000D01*
X94000000Y-133992000D01*
X94000000Y-133013750D01*
X93986250Y-133000000D01*
X94000000Y-132986250D01*
X94000000Y-132008000D01*
X93500000Y-132008000D01*
X93500000Y-130992000D01*
X94000000Y-130992000D01*
X94000000Y-130013750D01*
X93986250Y-130000000D01*
X94000000Y-129986250D01*
X94000000Y-129008000D01*
X93500000Y-129008000D01*
X93500000Y-127992000D01*
X94000000Y-127992000D01*
X94000000Y-127013750D01*
X93986250Y-127000000D01*
X94000000Y-126986250D01*
X94000000Y-126008000D01*
X93500000Y-126008000D01*
X93500000Y-124992000D01*
X94000000Y-124992000D01*
X94000000Y-124013750D01*
X93843250Y-123857000D01*
X93438246Y-123857000D01*
X93317111Y-123881095D01*
X93203004Y-123928360D01*
X93177000Y-123945735D01*
X93177000Y-122517001D01*
X116279198Y-122517001D01*
X116355739Y-122739785D01*
X117624970Y-122739785D01*
X117624970Y-121826612D01*
X119375030Y-121826612D01*
X119375030Y-122739785D01*
X120644261Y-122739785D01*
X120720802Y-122517001D01*
X120594377Y-122317034D01*
X120400152Y-122090970D01*
X120165556Y-121907141D01*
X119899605Y-121772611D01*
X119612519Y-121692551D01*
X119375030Y-121826612D01*
X117624970Y-121826612D01*
X117387481Y-121692551D01*
X117100395Y-121772611D01*
X116834444Y-121907141D01*
X116599848Y-122090970D01*
X116405623Y-122317034D01*
X116279198Y-122517001D01*
X93177000Y-122517001D01*
X93177000Y-110119986D01*
X95321124Y-110119986D01*
X95371642Y-110395238D01*
X95474661Y-110655435D01*
X95626258Y-110890667D01*
X95820658Y-111091974D01*
X96050456Y-111251687D01*
X96306899Y-111363725D01*
X96580220Y-111423818D01*
X96860008Y-111429679D01*
X97135605Y-111381084D01*
X97396516Y-111279883D01*
X97440453Y-111252000D01*
X99050939Y-111252000D01*
X98851510Y-111382503D01*
X98651565Y-111578304D01*
X98493459Y-111809211D01*
X98383215Y-112066430D01*
X98325031Y-112340164D01*
X98321124Y-112619986D01*
X98371642Y-112895238D01*
X98474661Y-113155435D01*
X98498000Y-113191650D01*
X98498000Y-117250000D01*
X98509283Y-117365074D01*
X98519365Y-117480307D01*
X98521201Y-117486628D01*
X98521844Y-117493181D01*
X98555282Y-117603932D01*
X98587536Y-117714952D01*
X98590564Y-117720794D01*
X98592468Y-117727100D01*
X98646771Y-117829228D01*
X98699985Y-117931889D01*
X98704094Y-117937036D01*
X98707183Y-117942846D01*
X98780283Y-118032477D01*
X98852428Y-118122850D01*
X98861463Y-118132013D01*
X98861617Y-118132202D01*
X98861792Y-118132347D01*
X98864702Y-118135298D01*
X101620968Y-120891564D01*
X101621642Y-120895238D01*
X101724661Y-121155435D01*
X101876258Y-121390667D01*
X102070658Y-121591974D01*
X102300456Y-121751687D01*
X102556899Y-121863725D01*
X102830220Y-121923818D01*
X103110008Y-121929679D01*
X103385605Y-121881084D01*
X103646516Y-121779883D01*
X103882800Y-121629933D01*
X104085459Y-121436943D01*
X104246773Y-121208266D01*
X104360598Y-120952611D01*
X104422598Y-120679716D01*
X104427062Y-120360075D01*
X104372705Y-120085556D01*
X104346412Y-120021765D01*
X104556899Y-120113725D01*
X104830220Y-120173818D01*
X105110008Y-120179679D01*
X105385605Y-120131084D01*
X105646516Y-120029883D01*
X105882800Y-119879933D01*
X106085459Y-119686943D01*
X106227761Y-119485216D01*
X127376813Y-119485216D01*
X127414270Y-119896799D01*
X127530956Y-120293267D01*
X127722429Y-120659520D01*
X127981394Y-120981607D01*
X128297987Y-121247260D01*
X128660150Y-121446361D01*
X129054087Y-121571325D01*
X129464795Y-121617394D01*
X129494361Y-121617600D01*
X131505639Y-121617600D01*
X131916950Y-121577271D01*
X132312594Y-121457819D01*
X132677501Y-121263794D01*
X132997772Y-121002587D01*
X133261209Y-120684147D01*
X133457776Y-120320603D01*
X133579988Y-119925803D01*
X133594605Y-119786722D01*
X137817151Y-119786722D01*
X137866552Y-120014857D01*
X137959511Y-120228971D01*
X138092455Y-120420836D01*
X138260276Y-120583078D01*
X138456524Y-120709462D01*
X138549359Y-120737314D01*
X138725000Y-120632489D01*
X138725000Y-119600000D01*
X137967076Y-119600000D01*
X137817151Y-119786722D01*
X133594605Y-119786722D01*
X133623187Y-119514784D01*
X133585730Y-119103201D01*
X133469044Y-118706733D01*
X133277571Y-118340480D01*
X133175298Y-118213278D01*
X137817151Y-118213278D01*
X137967076Y-118400000D01*
X138725000Y-118400000D01*
X138725000Y-117367511D01*
X138549359Y-117262686D01*
X138456524Y-117290538D01*
X138260276Y-117416922D01*
X138092455Y-117579164D01*
X137959511Y-117771029D01*
X137866552Y-117985143D01*
X137817151Y-118213278D01*
X133175298Y-118213278D01*
X133018606Y-118018393D01*
X132702013Y-117752740D01*
X132339850Y-117553639D01*
X131945913Y-117428675D01*
X131535205Y-117382606D01*
X131505639Y-117382400D01*
X129494361Y-117382400D01*
X129083050Y-117422729D01*
X128687406Y-117542181D01*
X128322499Y-117736206D01*
X128002228Y-117997413D01*
X127738791Y-118315853D01*
X127542224Y-118679397D01*
X127420012Y-119074197D01*
X127376813Y-119485216D01*
X106227761Y-119485216D01*
X106246773Y-119458266D01*
X106360598Y-119202611D01*
X106422598Y-118929716D01*
X106427062Y-118610075D01*
X106372705Y-118335556D01*
X106266063Y-118076822D01*
X106243139Y-118042318D01*
X106270825Y-118020058D01*
X106462435Y-118178572D01*
X106793257Y-118357447D01*
X107152523Y-118468659D01*
X107526547Y-118507970D01*
X107901084Y-118473885D01*
X108261867Y-118367700D01*
X108595154Y-118193462D01*
X108810825Y-118020058D01*
X109002435Y-118178572D01*
X109333257Y-118357447D01*
X109692523Y-118468659D01*
X110066547Y-118507970D01*
X110441084Y-118473885D01*
X110801867Y-118367700D01*
X111135154Y-118193462D01*
X111350825Y-118020058D01*
X111542435Y-118178572D01*
X111873257Y-118357447D01*
X112232523Y-118468659D01*
X112606547Y-118507970D01*
X112981084Y-118473885D01*
X113341867Y-118367700D01*
X113675154Y-118193462D01*
X113968251Y-117957806D01*
X114209994Y-117669708D01*
X114391174Y-117340143D01*
X114504890Y-116981663D01*
X114546812Y-116607922D01*
X114547000Y-116581017D01*
X114547000Y-115858983D01*
X114510301Y-115484693D01*
X114401600Y-115124660D01*
X114225039Y-114792597D01*
X113987343Y-114501153D01*
X113697565Y-114261428D01*
X113366743Y-114082553D01*
X113007477Y-113971341D01*
X112633453Y-113932030D01*
X112258916Y-113966115D01*
X111898133Y-114072300D01*
X111564846Y-114246538D01*
X111349175Y-114419942D01*
X111157565Y-114261428D01*
X110826743Y-114082553D01*
X110467477Y-113971341D01*
X110093453Y-113932030D01*
X109718916Y-113966115D01*
X109358133Y-114072300D01*
X109024846Y-114246538D01*
X108809175Y-114419942D01*
X108617565Y-114261428D01*
X108286743Y-114082553D01*
X107927477Y-113971341D01*
X107553453Y-113932030D01*
X107178916Y-113966115D01*
X106818133Y-114072300D01*
X106484846Y-114246538D01*
X106269175Y-114419942D01*
X106077565Y-114261428D01*
X105746743Y-114082553D01*
X105387477Y-113971341D01*
X105013453Y-113932030D01*
X104638916Y-113966115D01*
X104278133Y-114072300D01*
X104266669Y-114078293D01*
X104266063Y-114076822D01*
X104111197Y-113843730D01*
X104020105Y-113752000D01*
X110301172Y-113752000D01*
X110556899Y-113863725D01*
X110830220Y-113923818D01*
X111110008Y-113929679D01*
X111385605Y-113881084D01*
X111646516Y-113779883D01*
X111882800Y-113629933D01*
X112085459Y-113436943D01*
X112246773Y-113208266D01*
X112360598Y-112952611D01*
X112422598Y-112679716D01*
X112427062Y-112360075D01*
X112372705Y-112085556D01*
X112266063Y-111826822D01*
X112111197Y-111593730D01*
X111914005Y-111395157D01*
X111682000Y-111238668D01*
X111424017Y-111130222D01*
X111149884Y-111073950D01*
X110870041Y-111071996D01*
X110595149Y-111124435D01*
X110335677Y-111229268D01*
X110307052Y-111248000D01*
X105040795Y-111248000D01*
X105115074Y-111240717D01*
X105230307Y-111230635D01*
X105236628Y-111228799D01*
X105243181Y-111228156D01*
X105353932Y-111194718D01*
X105464952Y-111162464D01*
X105470794Y-111159436D01*
X105477100Y-111157532D01*
X105579228Y-111103229D01*
X105681889Y-111050015D01*
X105687036Y-111045906D01*
X105692846Y-111042817D01*
X105782477Y-110969717D01*
X105872850Y-110897572D01*
X105882013Y-110888537D01*
X105882202Y-110888383D01*
X105882347Y-110888208D01*
X105885298Y-110885298D01*
X105891988Y-110878608D01*
X106146516Y-110779883D01*
X106382800Y-110629933D01*
X106585459Y-110436943D01*
X106746773Y-110208266D01*
X106860598Y-109952611D01*
X106873126Y-109897470D01*
X107885226Y-108885369D01*
X107885298Y-108885298D01*
X109268596Y-107502000D01*
X114660830Y-107502000D01*
X114633215Y-107566430D01*
X114575031Y-107840164D01*
X114571124Y-108119986D01*
X114621642Y-108395238D01*
X114724661Y-108655435D01*
X114748000Y-108691650D01*
X114748000Y-113552579D01*
X114743459Y-113559211D01*
X114633215Y-113816430D01*
X114575031Y-114090164D01*
X114571124Y-114369986D01*
X114621642Y-114645238D01*
X114724661Y-114905435D01*
X114876258Y-115140667D01*
X115070658Y-115341974D01*
X115300456Y-115501687D01*
X115556899Y-115613725D01*
X115830220Y-115673818D01*
X116110008Y-115679679D01*
X116385605Y-115631084D01*
X116646516Y-115529883D01*
X116882800Y-115379933D01*
X117085459Y-115186943D01*
X117246773Y-114958266D01*
X117360598Y-114702611D01*
X117422598Y-114429716D01*
X117427062Y-114110075D01*
X117372705Y-113835556D01*
X117266063Y-113576822D01*
X117252000Y-113555655D01*
X117252000Y-108696526D01*
X117360598Y-108452611D01*
X117422598Y-108179716D01*
X117427062Y-107860075D01*
X117372705Y-107585556D01*
X117266063Y-107326822D01*
X117130606Y-107122943D01*
X117246773Y-106958266D01*
X117360598Y-106702611D01*
X117422598Y-106429716D01*
X117427062Y-106110075D01*
X117372705Y-105835556D01*
X117266063Y-105576822D01*
X117111197Y-105343730D01*
X116914005Y-105145157D01*
X116682000Y-104988668D01*
X116424017Y-104880222D01*
X116149884Y-104823950D01*
X115870041Y-104821996D01*
X115595149Y-104874435D01*
X115335677Y-104979268D01*
X115307052Y-104998000D01*
X108750000Y-104998000D01*
X108634922Y-105009283D01*
X108519693Y-105019365D01*
X108513372Y-105021201D01*
X108506819Y-105021844D01*
X108396068Y-105055282D01*
X108285048Y-105087536D01*
X108279206Y-105090564D01*
X108272900Y-105092468D01*
X108170791Y-105146761D01*
X108068112Y-105199984D01*
X108062963Y-105204094D01*
X108057154Y-105207183D01*
X107967559Y-105280254D01*
X107877150Y-105352427D01*
X107867986Y-105361464D01*
X107867798Y-105361617D01*
X107867654Y-105361791D01*
X107864702Y-105364702D01*
X106114702Y-107114702D01*
X106114697Y-107114708D01*
X105107284Y-108122120D01*
X105095149Y-108124435D01*
X104835677Y-108229268D01*
X104601510Y-108382503D01*
X104401565Y-108578304D01*
X104285371Y-108748000D01*
X97445835Y-108748000D01*
X97432000Y-108738668D01*
X97174017Y-108630222D01*
X96899884Y-108573950D01*
X96620041Y-108571996D01*
X96345149Y-108624435D01*
X96085677Y-108729268D01*
X95851510Y-108882503D01*
X95651565Y-109078304D01*
X95493459Y-109309211D01*
X95383215Y-109566430D01*
X95325031Y-109840164D01*
X95321124Y-110119986D01*
X93177000Y-110119986D01*
X93177000Y-99456750D01*
X110373000Y-99456750D01*
X110373000Y-99861754D01*
X110397095Y-99982889D01*
X110444360Y-100096996D01*
X110512977Y-100199689D01*
X110600311Y-100287023D01*
X110703004Y-100355640D01*
X110817111Y-100402905D01*
X110938246Y-100427000D01*
X111343250Y-100427000D01*
X111500000Y-100270250D01*
X111500000Y-99300000D01*
X112500000Y-99300000D01*
X112500000Y-100270250D01*
X112656750Y-100427000D01*
X113061754Y-100427000D01*
X113182889Y-100402905D01*
X113296996Y-100355640D01*
X113399689Y-100287023D01*
X113487023Y-100199689D01*
X113555640Y-100096996D01*
X113602905Y-99982889D01*
X113627000Y-99861754D01*
X113627000Y-99456750D01*
X113470250Y-99300000D01*
X112500000Y-99300000D01*
X111500000Y-99300000D01*
X110529750Y-99300000D01*
X110373000Y-99456750D01*
X93177000Y-99456750D01*
X93177000Y-96220885D01*
X93369547Y-96220885D01*
X93462547Y-96727603D01*
X93652198Y-97206606D01*
X93931276Y-97639651D01*
X94289151Y-98010241D01*
X94712191Y-98304262D01*
X95184284Y-98510514D01*
X95687448Y-98621142D01*
X96202516Y-98631931D01*
X96709871Y-98542471D01*
X97190186Y-98356169D01*
X97625168Y-98080121D01*
X97984172Y-97738246D01*
X110373000Y-97738246D01*
X110373000Y-98143250D01*
X110529750Y-98300000D01*
X111500000Y-98300000D01*
X111500000Y-97329750D01*
X112500000Y-97329750D01*
X112500000Y-98300000D01*
X113470250Y-98300000D01*
X113627000Y-98143250D01*
X113627000Y-97814381D01*
X115100009Y-97814381D01*
X115373051Y-98064436D01*
X115885394Y-98137472D01*
X116402142Y-98109152D01*
X116626949Y-98064436D01*
X116899991Y-97814381D01*
X116000000Y-96914390D01*
X115100009Y-97814381D01*
X113627000Y-97814381D01*
X113627000Y-97738246D01*
X113602905Y-97617111D01*
X113555640Y-97503004D01*
X113487023Y-97400311D01*
X113399689Y-97312977D01*
X113296996Y-97244360D01*
X113182889Y-97197095D01*
X113061754Y-97173000D01*
X112656750Y-97173000D01*
X112500000Y-97329750D01*
X111500000Y-97329750D01*
X111343250Y-97173000D01*
X110938246Y-97173000D01*
X110817111Y-97197095D01*
X110703004Y-97244360D01*
X110600311Y-97312977D01*
X110512977Y-97400311D01*
X110444360Y-97503004D01*
X110397095Y-97617111D01*
X110373000Y-97738246D01*
X97984172Y-97738246D01*
X97998248Y-97724842D01*
X98295215Y-97303864D01*
X98504758Y-96833222D01*
X98618896Y-96330844D01*
X98627113Y-95742409D01*
X98527047Y-95237040D01*
X98330726Y-94760731D01*
X98045629Y-94331625D01*
X97682615Y-93966068D01*
X97255510Y-93677982D01*
X96780584Y-93478341D01*
X96275925Y-93374750D01*
X95760756Y-93371153D01*
X95254700Y-93467688D01*
X94777032Y-93660679D01*
X94345947Y-93942773D01*
X93977864Y-94303226D01*
X93686804Y-94728310D01*
X93483852Y-95201831D01*
X93376740Y-95705754D01*
X93369547Y-96220885D01*
X93177000Y-96220885D01*
X93177000Y-93177000D01*
X110901186Y-93177000D01*
X110660765Y-93334327D01*
M02*
