G04 #@! TF.FileFunction,Soldermask,Top*
%FSLAX46Y46*%
G04 Gerber Fmt 4.6, Leading zero omitted, Abs format (unit mm)*
G04 Created by KiCad (PCBNEW 4.0.4-stable) date 03/22/17 00:45:15*
%MOMM*%
%LPD*%
G01*
G04 APERTURE LIST*
%ADD10C,0.100000*%
%ADD11R,1.000000X1.950000*%
%ADD12C,2.400000*%
%ADD13C,2.900000*%
%ADD14C,1.400000*%
%ADD15R,1.400000X1.650000*%
%ADD16R,2.100000X1.300000*%
%ADD17R,1.598880X1.598880*%
%ADD18R,1.650000X1.400000*%
%ADD19R,1.400000X2.000000*%
%ADD20C,1.924000*%
%ADD21R,2.400000X4.400000*%
%ADD22O,2.400000X4.400000*%
G04 APERTURE END LIST*
D10*
D11*
X64905000Y-150300000D03*
X63635000Y-150300000D03*
X62365000Y-150300000D03*
X61095000Y-150300000D03*
X61095000Y-155700000D03*
X62365000Y-155700000D03*
X63635000Y-155700000D03*
X64905000Y-155700000D03*
D12*
X61270000Y-126250000D03*
X58730000Y-126250000D03*
X58730000Y-131750000D03*
X61270000Y-131750000D03*
D13*
X61900000Y-129000000D03*
X58100000Y-129000000D03*
D14*
X57550000Y-133650000D03*
D12*
X64730000Y-124250000D03*
X67270000Y-124250000D03*
X67270000Y-129750000D03*
X64730000Y-129750000D03*
D13*
X64100000Y-127000000D03*
X67900000Y-127000000D03*
D14*
X68450000Y-131650000D03*
D15*
X61500000Y-159000000D03*
X59500000Y-159000000D03*
D16*
X61000000Y-144550000D03*
X61000000Y-147450000D03*
X65000000Y-144550000D03*
X65000000Y-147450000D03*
D17*
X68000000Y-149950980D03*
X68000000Y-152049020D03*
D16*
X68000000Y-147450000D03*
X68000000Y-144550000D03*
X58000000Y-147450000D03*
X58000000Y-144550000D03*
D17*
X58000000Y-149950980D03*
X58000000Y-152049020D03*
D18*
X58000000Y-154000000D03*
X58000000Y-156000000D03*
X68000000Y-154000000D03*
X68000000Y-156000000D03*
D19*
X64000000Y-159000000D03*
X67000000Y-159000000D03*
D20*
X64540000Y-164000000D03*
X67080000Y-164000000D03*
X62000000Y-164000000D03*
X61460000Y-168000000D03*
X58920000Y-168000000D03*
X64000000Y-168000000D03*
D21*
X59190000Y-177800000D03*
D22*
X61730000Y-177800000D03*
X64270000Y-177800000D03*
X66810000Y-177800000D03*
D16*
X58000000Y-136050000D03*
X58000000Y-138950000D03*
X60500000Y-136950000D03*
X60500000Y-134050000D03*
X65000000Y-135950000D03*
X65000000Y-133050000D03*
X68000000Y-133050000D03*
X68000000Y-135950000D03*
X84000000Y-133050000D03*
X84000000Y-135950000D03*
X81000000Y-135950000D03*
X81000000Y-133050000D03*
X76500000Y-136950000D03*
X76500000Y-134050000D03*
X74000000Y-136050000D03*
X74000000Y-138950000D03*
D21*
X75190000Y-177800000D03*
D22*
X77730000Y-177800000D03*
X80270000Y-177800000D03*
X82810000Y-177800000D03*
D20*
X77460000Y-168000000D03*
X74920000Y-168000000D03*
X80000000Y-168000000D03*
X80540000Y-164000000D03*
X83080000Y-164000000D03*
X78000000Y-164000000D03*
D19*
X80000000Y-159000000D03*
X83000000Y-159000000D03*
D18*
X84000000Y-154000000D03*
X84000000Y-156000000D03*
X74000000Y-154000000D03*
X74000000Y-156000000D03*
D17*
X74000000Y-149950980D03*
X74000000Y-152049020D03*
D16*
X74000000Y-147450000D03*
X74000000Y-144550000D03*
X84000000Y-147450000D03*
X84000000Y-144550000D03*
D17*
X84000000Y-149950980D03*
X84000000Y-152049020D03*
D16*
X81000000Y-144550000D03*
X81000000Y-147450000D03*
X77000000Y-144550000D03*
X77000000Y-147450000D03*
D15*
X77500000Y-159000000D03*
X75500000Y-159000000D03*
D12*
X80730000Y-124250000D03*
X83270000Y-124250000D03*
X83270000Y-129750000D03*
X80730000Y-129750000D03*
D13*
X80100000Y-127000000D03*
X83900000Y-127000000D03*
D14*
X84450000Y-131650000D03*
D12*
X77270000Y-126250000D03*
X74730000Y-126250000D03*
X74730000Y-131750000D03*
X77270000Y-131750000D03*
D13*
X77900000Y-129000000D03*
X74100000Y-129000000D03*
D14*
X73550000Y-133650000D03*
D11*
X80905000Y-150300000D03*
X79635000Y-150300000D03*
X78365000Y-150300000D03*
X77095000Y-150300000D03*
X77095000Y-155700000D03*
X78365000Y-155700000D03*
X79635000Y-155700000D03*
X80905000Y-155700000D03*
X112905000Y-150300000D03*
X111635000Y-150300000D03*
X110365000Y-150300000D03*
X109095000Y-150300000D03*
X109095000Y-155700000D03*
X110365000Y-155700000D03*
X111635000Y-155700000D03*
X112905000Y-155700000D03*
D12*
X109270000Y-126250000D03*
X106730000Y-126250000D03*
X106730000Y-131750000D03*
X109270000Y-131750000D03*
D13*
X109900000Y-129000000D03*
X106100000Y-129000000D03*
D14*
X105550000Y-133650000D03*
D12*
X112730000Y-124250000D03*
X115270000Y-124250000D03*
X115270000Y-129750000D03*
X112730000Y-129750000D03*
D13*
X112100000Y-127000000D03*
X115900000Y-127000000D03*
D14*
X116450000Y-131650000D03*
D15*
X109500000Y-159000000D03*
X107500000Y-159000000D03*
D16*
X109000000Y-144550000D03*
X109000000Y-147450000D03*
X113000000Y-144550000D03*
X113000000Y-147450000D03*
D17*
X116000000Y-149950980D03*
X116000000Y-152049020D03*
D16*
X116000000Y-147450000D03*
X116000000Y-144550000D03*
X106000000Y-147450000D03*
X106000000Y-144550000D03*
D17*
X106000000Y-149950980D03*
X106000000Y-152049020D03*
D18*
X106000000Y-154000000D03*
X106000000Y-156000000D03*
X116000000Y-154000000D03*
X116000000Y-156000000D03*
D19*
X112000000Y-159000000D03*
X115000000Y-159000000D03*
D20*
X112540000Y-164000000D03*
X115080000Y-164000000D03*
X110000000Y-164000000D03*
X109460000Y-168000000D03*
X106920000Y-168000000D03*
X112000000Y-168000000D03*
D21*
X107190000Y-177800000D03*
D22*
X109730000Y-177800000D03*
X112270000Y-177800000D03*
X114810000Y-177800000D03*
D16*
X106000000Y-136050000D03*
X106000000Y-138950000D03*
X108500000Y-136950000D03*
X108500000Y-134050000D03*
X113000000Y-135950000D03*
X113000000Y-133050000D03*
X116000000Y-133050000D03*
X116000000Y-135950000D03*
X100000000Y-133050000D03*
X100000000Y-135950000D03*
X97000000Y-135950000D03*
X97000000Y-133050000D03*
X92500000Y-136950000D03*
X92500000Y-134050000D03*
X90000000Y-136050000D03*
X90000000Y-138950000D03*
D21*
X91190000Y-177800000D03*
D22*
X93730000Y-177800000D03*
X96270000Y-177800000D03*
X98810000Y-177800000D03*
D20*
X93460000Y-168000000D03*
X90920000Y-168000000D03*
X96000000Y-168000000D03*
X96540000Y-164000000D03*
X99080000Y-164000000D03*
X94000000Y-164000000D03*
D19*
X96000000Y-159000000D03*
X99000000Y-159000000D03*
D18*
X100000000Y-154000000D03*
X100000000Y-156000000D03*
X90000000Y-154000000D03*
X90000000Y-156000000D03*
D17*
X90000000Y-149950980D03*
X90000000Y-152049020D03*
D16*
X90000000Y-147450000D03*
X90000000Y-144550000D03*
X100000000Y-147450000D03*
X100000000Y-144550000D03*
D17*
X100000000Y-149950980D03*
X100000000Y-152049020D03*
D16*
X97000000Y-144550000D03*
X97000000Y-147450000D03*
X93000000Y-144550000D03*
X93000000Y-147450000D03*
D15*
X93500000Y-159000000D03*
X91500000Y-159000000D03*
D12*
X96730000Y-124250000D03*
X99270000Y-124250000D03*
X99270000Y-129750000D03*
X96730000Y-129750000D03*
D13*
X96100000Y-127000000D03*
X99900000Y-127000000D03*
D14*
X100450000Y-131650000D03*
D12*
X93270000Y-126250000D03*
X90730000Y-126250000D03*
X90730000Y-131750000D03*
X93270000Y-131750000D03*
D13*
X93900000Y-129000000D03*
X90100000Y-129000000D03*
D14*
X89550000Y-133650000D03*
D11*
X96905000Y-150300000D03*
X95635000Y-150300000D03*
X94365000Y-150300000D03*
X93095000Y-150300000D03*
X93095000Y-155700000D03*
X94365000Y-155700000D03*
X95635000Y-155700000D03*
X96905000Y-155700000D03*
X192905000Y-150300000D03*
X191635000Y-150300000D03*
X190365000Y-150300000D03*
X189095000Y-150300000D03*
X189095000Y-155700000D03*
X190365000Y-155700000D03*
X191635000Y-155700000D03*
X192905000Y-155700000D03*
D12*
X189270000Y-126250000D03*
X186730000Y-126250000D03*
X186730000Y-131750000D03*
X189270000Y-131750000D03*
D13*
X189900000Y-129000000D03*
X186100000Y-129000000D03*
D14*
X185550000Y-133650000D03*
D12*
X192730000Y-124250000D03*
X195270000Y-124250000D03*
X195270000Y-129750000D03*
X192730000Y-129750000D03*
D13*
X192100000Y-127000000D03*
X195900000Y-127000000D03*
D14*
X196450000Y-131650000D03*
D15*
X189500000Y-159000000D03*
X187500000Y-159000000D03*
D16*
X189000000Y-144550000D03*
X189000000Y-147450000D03*
X193000000Y-144550000D03*
X193000000Y-147450000D03*
D17*
X196000000Y-149950980D03*
X196000000Y-152049020D03*
D16*
X196000000Y-147450000D03*
X196000000Y-144550000D03*
X186000000Y-147450000D03*
X186000000Y-144550000D03*
D17*
X186000000Y-149950980D03*
X186000000Y-152049020D03*
D18*
X186000000Y-154000000D03*
X186000000Y-156000000D03*
X196000000Y-154000000D03*
X196000000Y-156000000D03*
D19*
X192000000Y-159000000D03*
X195000000Y-159000000D03*
D20*
X192540000Y-164000000D03*
X195080000Y-164000000D03*
X190000000Y-164000000D03*
X189460000Y-168000000D03*
X186920000Y-168000000D03*
X192000000Y-168000000D03*
D21*
X187190000Y-177800000D03*
D22*
X189730000Y-177800000D03*
X192270000Y-177800000D03*
X194810000Y-177800000D03*
D16*
X186000000Y-136050000D03*
X186000000Y-138950000D03*
X188500000Y-136950000D03*
X188500000Y-134050000D03*
X193000000Y-135950000D03*
X193000000Y-133050000D03*
X196000000Y-133050000D03*
X196000000Y-135950000D03*
X212000000Y-133050000D03*
X212000000Y-135950000D03*
X209000000Y-135950000D03*
X209000000Y-133050000D03*
X204500000Y-136950000D03*
X204500000Y-134050000D03*
X202000000Y-136050000D03*
X202000000Y-138950000D03*
D21*
X203190000Y-177800000D03*
D22*
X205730000Y-177800000D03*
X208270000Y-177800000D03*
X210810000Y-177800000D03*
D20*
X205460000Y-168000000D03*
X202920000Y-168000000D03*
X208000000Y-168000000D03*
X208540000Y-164000000D03*
X211080000Y-164000000D03*
X206000000Y-164000000D03*
D19*
X208000000Y-159000000D03*
X211000000Y-159000000D03*
D18*
X212000000Y-154000000D03*
X212000000Y-156000000D03*
X202000000Y-154000000D03*
X202000000Y-156000000D03*
D17*
X202000000Y-149950980D03*
X202000000Y-152049020D03*
D16*
X202000000Y-147450000D03*
X202000000Y-144550000D03*
X212000000Y-147450000D03*
X212000000Y-144550000D03*
D17*
X212000000Y-149950980D03*
X212000000Y-152049020D03*
D16*
X209000000Y-144550000D03*
X209000000Y-147450000D03*
X205000000Y-144550000D03*
X205000000Y-147450000D03*
D15*
X205500000Y-159000000D03*
X203500000Y-159000000D03*
D12*
X208730000Y-124250000D03*
X211270000Y-124250000D03*
X211270000Y-129750000D03*
X208730000Y-129750000D03*
D13*
X208100000Y-127000000D03*
X211900000Y-127000000D03*
D14*
X212450000Y-131650000D03*
D12*
X205270000Y-126250000D03*
X202730000Y-126250000D03*
X202730000Y-131750000D03*
X205270000Y-131750000D03*
D13*
X205900000Y-129000000D03*
X202100000Y-129000000D03*
D14*
X201550000Y-133650000D03*
D11*
X208905000Y-150300000D03*
X207635000Y-150300000D03*
X206365000Y-150300000D03*
X205095000Y-150300000D03*
X205095000Y-155700000D03*
X206365000Y-155700000D03*
X207635000Y-155700000D03*
X208905000Y-155700000D03*
X240905000Y-150300000D03*
X239635000Y-150300000D03*
X238365000Y-150300000D03*
X237095000Y-150300000D03*
X237095000Y-155700000D03*
X238365000Y-155700000D03*
X239635000Y-155700000D03*
X240905000Y-155700000D03*
D12*
X237270000Y-126250000D03*
X234730000Y-126250000D03*
X234730000Y-131750000D03*
X237270000Y-131750000D03*
D13*
X237900000Y-129000000D03*
X234100000Y-129000000D03*
D14*
X233550000Y-133650000D03*
D12*
X240730000Y-124250000D03*
X243270000Y-124250000D03*
X243270000Y-129750000D03*
X240730000Y-129750000D03*
D13*
X240100000Y-127000000D03*
X243900000Y-127000000D03*
D14*
X244450000Y-131650000D03*
D15*
X237500000Y-159000000D03*
X235500000Y-159000000D03*
D16*
X237000000Y-144550000D03*
X237000000Y-147450000D03*
X241000000Y-144550000D03*
X241000000Y-147450000D03*
D17*
X244000000Y-149950980D03*
X244000000Y-152049020D03*
D16*
X244000000Y-147450000D03*
X244000000Y-144550000D03*
X234000000Y-147450000D03*
X234000000Y-144550000D03*
D17*
X234000000Y-149950980D03*
X234000000Y-152049020D03*
D18*
X234000000Y-154000000D03*
X234000000Y-156000000D03*
X244000000Y-154000000D03*
X244000000Y-156000000D03*
D19*
X240000000Y-159000000D03*
X243000000Y-159000000D03*
D20*
X240540000Y-164000000D03*
X243080000Y-164000000D03*
X238000000Y-164000000D03*
X237460000Y-168000000D03*
X234920000Y-168000000D03*
X240000000Y-168000000D03*
D21*
X235190000Y-177800000D03*
D22*
X237730000Y-177800000D03*
X240270000Y-177800000D03*
X242810000Y-177800000D03*
D16*
X234000000Y-136050000D03*
X234000000Y-138950000D03*
X236500000Y-136950000D03*
X236500000Y-134050000D03*
X241000000Y-135950000D03*
X241000000Y-133050000D03*
X244000000Y-133050000D03*
X244000000Y-135950000D03*
X228000000Y-133050000D03*
X228000000Y-135950000D03*
X225000000Y-135950000D03*
X225000000Y-133050000D03*
X220500000Y-136950000D03*
X220500000Y-134050000D03*
X218000000Y-136050000D03*
X218000000Y-138950000D03*
D21*
X219190000Y-177800000D03*
D22*
X221730000Y-177800000D03*
X224270000Y-177800000D03*
X226810000Y-177800000D03*
D20*
X221460000Y-168000000D03*
X218920000Y-168000000D03*
X224000000Y-168000000D03*
X224540000Y-164000000D03*
X227080000Y-164000000D03*
X222000000Y-164000000D03*
D19*
X224000000Y-159000000D03*
X227000000Y-159000000D03*
D18*
X228000000Y-154000000D03*
X228000000Y-156000000D03*
X218000000Y-154000000D03*
X218000000Y-156000000D03*
D17*
X218000000Y-149950980D03*
X218000000Y-152049020D03*
D16*
X218000000Y-147450000D03*
X218000000Y-144550000D03*
X228000000Y-147450000D03*
X228000000Y-144550000D03*
D17*
X228000000Y-149950980D03*
X228000000Y-152049020D03*
D16*
X225000000Y-144550000D03*
X225000000Y-147450000D03*
X221000000Y-144550000D03*
X221000000Y-147450000D03*
D15*
X221500000Y-159000000D03*
X219500000Y-159000000D03*
D12*
X224730000Y-124250000D03*
X227270000Y-124250000D03*
X227270000Y-129750000D03*
X224730000Y-129750000D03*
D13*
X224100000Y-127000000D03*
X227900000Y-127000000D03*
D14*
X228450000Y-131650000D03*
D12*
X221270000Y-126250000D03*
X218730000Y-126250000D03*
X218730000Y-131750000D03*
X221270000Y-131750000D03*
D13*
X221900000Y-129000000D03*
X218100000Y-129000000D03*
D14*
X217550000Y-133650000D03*
D11*
X224905000Y-150300000D03*
X223635000Y-150300000D03*
X222365000Y-150300000D03*
X221095000Y-150300000D03*
X221095000Y-155700000D03*
X222365000Y-155700000D03*
X223635000Y-155700000D03*
X224905000Y-155700000D03*
X160905000Y-150300000D03*
X159635000Y-150300000D03*
X158365000Y-150300000D03*
X157095000Y-150300000D03*
X157095000Y-155700000D03*
X158365000Y-155700000D03*
X159635000Y-155700000D03*
X160905000Y-155700000D03*
D12*
X157270000Y-126250000D03*
X154730000Y-126250000D03*
X154730000Y-131750000D03*
X157270000Y-131750000D03*
D13*
X157900000Y-129000000D03*
X154100000Y-129000000D03*
D14*
X153550000Y-133650000D03*
D12*
X160730000Y-124250000D03*
X163270000Y-124250000D03*
X163270000Y-129750000D03*
X160730000Y-129750000D03*
D13*
X160100000Y-127000000D03*
X163900000Y-127000000D03*
D14*
X164450000Y-131650000D03*
D15*
X157500000Y-159000000D03*
X155500000Y-159000000D03*
D16*
X157000000Y-144550000D03*
X157000000Y-147450000D03*
X161000000Y-144550000D03*
X161000000Y-147450000D03*
D17*
X164000000Y-149950980D03*
X164000000Y-152049020D03*
D16*
X164000000Y-147450000D03*
X164000000Y-144550000D03*
X154000000Y-147450000D03*
X154000000Y-144550000D03*
D17*
X154000000Y-149950980D03*
X154000000Y-152049020D03*
D18*
X154000000Y-154000000D03*
X154000000Y-156000000D03*
X164000000Y-154000000D03*
X164000000Y-156000000D03*
D19*
X160000000Y-159000000D03*
X163000000Y-159000000D03*
D20*
X160540000Y-164000000D03*
X163080000Y-164000000D03*
X158000000Y-164000000D03*
X157460000Y-168000000D03*
X154920000Y-168000000D03*
X160000000Y-168000000D03*
D21*
X155190000Y-177800000D03*
D22*
X157730000Y-177800000D03*
X160270000Y-177800000D03*
X162810000Y-177800000D03*
D16*
X154000000Y-136050000D03*
X154000000Y-138950000D03*
X156500000Y-136950000D03*
X156500000Y-134050000D03*
X161000000Y-135950000D03*
X161000000Y-133050000D03*
X164000000Y-133050000D03*
X164000000Y-135950000D03*
X180000000Y-133050000D03*
X180000000Y-135950000D03*
X177000000Y-135950000D03*
X177000000Y-133050000D03*
X172500000Y-136950000D03*
X172500000Y-134050000D03*
X170000000Y-136050000D03*
X170000000Y-138950000D03*
D21*
X171190000Y-177800000D03*
D22*
X173730000Y-177800000D03*
X176270000Y-177800000D03*
X178810000Y-177800000D03*
D20*
X173460000Y-168000000D03*
X170920000Y-168000000D03*
X176000000Y-168000000D03*
X176540000Y-164000000D03*
X179080000Y-164000000D03*
X174000000Y-164000000D03*
D19*
X176000000Y-159000000D03*
X179000000Y-159000000D03*
D18*
X180000000Y-154000000D03*
X180000000Y-156000000D03*
X170000000Y-154000000D03*
X170000000Y-156000000D03*
D17*
X170000000Y-149950980D03*
X170000000Y-152049020D03*
D16*
X170000000Y-147450000D03*
X170000000Y-144550000D03*
X180000000Y-147450000D03*
X180000000Y-144550000D03*
D17*
X180000000Y-149950980D03*
X180000000Y-152049020D03*
D16*
X177000000Y-144550000D03*
X177000000Y-147450000D03*
X173000000Y-144550000D03*
X173000000Y-147450000D03*
D15*
X173500000Y-159000000D03*
X171500000Y-159000000D03*
D12*
X176730000Y-124250000D03*
X179270000Y-124250000D03*
X179270000Y-129750000D03*
X176730000Y-129750000D03*
D13*
X176100000Y-127000000D03*
X179900000Y-127000000D03*
D14*
X180450000Y-131650000D03*
D12*
X173270000Y-126250000D03*
X170730000Y-126250000D03*
X170730000Y-131750000D03*
X173270000Y-131750000D03*
D13*
X173900000Y-129000000D03*
X170100000Y-129000000D03*
D14*
X169550000Y-133650000D03*
D11*
X176905000Y-150300000D03*
X175635000Y-150300000D03*
X174365000Y-150300000D03*
X173095000Y-150300000D03*
X173095000Y-155700000D03*
X174365000Y-155700000D03*
X175635000Y-155700000D03*
X176905000Y-155700000D03*
X144905000Y-150300000D03*
X143635000Y-150300000D03*
X142365000Y-150300000D03*
X141095000Y-150300000D03*
X141095000Y-155700000D03*
X142365000Y-155700000D03*
X143635000Y-155700000D03*
X144905000Y-155700000D03*
D12*
X141270000Y-126250000D03*
X138730000Y-126250000D03*
X138730000Y-131750000D03*
X141270000Y-131750000D03*
D13*
X141900000Y-129000000D03*
X138100000Y-129000000D03*
D14*
X137550000Y-133650000D03*
D12*
X144730000Y-124250000D03*
X147270000Y-124250000D03*
X147270000Y-129750000D03*
X144730000Y-129750000D03*
D13*
X144100000Y-127000000D03*
X147900000Y-127000000D03*
D14*
X148450000Y-131650000D03*
D15*
X141500000Y-159000000D03*
X139500000Y-159000000D03*
D16*
X141000000Y-144550000D03*
X141000000Y-147450000D03*
X145000000Y-144550000D03*
X145000000Y-147450000D03*
D17*
X148000000Y-149950980D03*
X148000000Y-152049020D03*
D16*
X148000000Y-147450000D03*
X148000000Y-144550000D03*
X138000000Y-147450000D03*
X138000000Y-144550000D03*
D17*
X138000000Y-149950980D03*
X138000000Y-152049020D03*
D18*
X138000000Y-154000000D03*
X138000000Y-156000000D03*
X148000000Y-154000000D03*
X148000000Y-156000000D03*
D19*
X144000000Y-159000000D03*
X147000000Y-159000000D03*
D20*
X144540000Y-164000000D03*
X147080000Y-164000000D03*
X142000000Y-164000000D03*
X141460000Y-168000000D03*
X138920000Y-168000000D03*
X144000000Y-168000000D03*
D21*
X139190000Y-177800000D03*
D22*
X141730000Y-177800000D03*
X144270000Y-177800000D03*
X146810000Y-177800000D03*
D16*
X138000000Y-136050000D03*
X138000000Y-138950000D03*
X140500000Y-136950000D03*
X140500000Y-134050000D03*
X145000000Y-135950000D03*
X145000000Y-133050000D03*
X148000000Y-133050000D03*
X148000000Y-135950000D03*
X132000000Y-133050000D03*
X132000000Y-135950000D03*
X129000000Y-135950000D03*
X129000000Y-133050000D03*
X124500000Y-136950000D03*
X124500000Y-134050000D03*
X122000000Y-136050000D03*
X122000000Y-138950000D03*
D21*
X123190000Y-177800000D03*
D22*
X125730000Y-177800000D03*
X128270000Y-177800000D03*
X130810000Y-177800000D03*
D20*
X125460000Y-168000000D03*
X122920000Y-168000000D03*
X128000000Y-168000000D03*
X128540000Y-164000000D03*
X131080000Y-164000000D03*
X126000000Y-164000000D03*
D19*
X128000000Y-159000000D03*
X131000000Y-159000000D03*
D18*
X132000000Y-154000000D03*
X132000000Y-156000000D03*
X122000000Y-154000000D03*
X122000000Y-156000000D03*
D17*
X122000000Y-149950980D03*
X122000000Y-152049020D03*
D16*
X122000000Y-147450000D03*
X122000000Y-144550000D03*
X132000000Y-147450000D03*
X132000000Y-144550000D03*
D17*
X132000000Y-149950980D03*
X132000000Y-152049020D03*
D16*
X129000000Y-144550000D03*
X129000000Y-147450000D03*
X125000000Y-144550000D03*
X125000000Y-147450000D03*
D15*
X125500000Y-159000000D03*
X123500000Y-159000000D03*
D12*
X128730000Y-124250000D03*
X131270000Y-124250000D03*
X131270000Y-129750000D03*
X128730000Y-129750000D03*
D13*
X128100000Y-127000000D03*
X131900000Y-127000000D03*
D14*
X132450000Y-131650000D03*
D12*
X125270000Y-126250000D03*
X122730000Y-126250000D03*
X122730000Y-131750000D03*
X125270000Y-131750000D03*
D13*
X125900000Y-129000000D03*
X122100000Y-129000000D03*
D14*
X121550000Y-133650000D03*
D11*
X128905000Y-150300000D03*
X127635000Y-150300000D03*
X126365000Y-150300000D03*
X125095000Y-150300000D03*
X125095000Y-155700000D03*
X126365000Y-155700000D03*
X127635000Y-155700000D03*
X128905000Y-155700000D03*
M02*
