G04 #@! TF.FileFunction,Soldermask,Bot*
%FSLAX46Y46*%
G04 Gerber Fmt 4.6, Leading zero omitted, Abs format (unit mm)*
G04 Created by KiCad (PCBNEW 4.0.4-stable) date 03/22/17 00:45:15*
%MOMM*%
%LPD*%
G01*
G04 APERTURE LIST*
%ADD10C,0.100000*%
%ADD11C,2.400000*%
%ADD12C,2.900000*%
%ADD13C,1.400000*%
%ADD14C,1.924000*%
%ADD15R,2.400000X4.400000*%
%ADD16O,2.400000X4.400000*%
G04 APERTURE END LIST*
D10*
D11*
X61270000Y-126250000D03*
X58730000Y-126250000D03*
X58730000Y-131750000D03*
X61270000Y-131750000D03*
D12*
X61900000Y-129000000D03*
X58100000Y-129000000D03*
D13*
X57550000Y-133650000D03*
D11*
X64730000Y-124250000D03*
X67270000Y-124250000D03*
X67270000Y-129750000D03*
X64730000Y-129750000D03*
D12*
X64100000Y-127000000D03*
X67900000Y-127000000D03*
D13*
X68450000Y-131650000D03*
D14*
X64540000Y-164000000D03*
X67080000Y-164000000D03*
X62000000Y-164000000D03*
X61460000Y-168000000D03*
X58920000Y-168000000D03*
X64000000Y-168000000D03*
D15*
X59190000Y-177800000D03*
D16*
X61730000Y-177800000D03*
X64270000Y-177800000D03*
X66810000Y-177800000D03*
D15*
X75190000Y-177800000D03*
D16*
X77730000Y-177800000D03*
X80270000Y-177800000D03*
X82810000Y-177800000D03*
D14*
X77460000Y-168000000D03*
X74920000Y-168000000D03*
X80000000Y-168000000D03*
X80540000Y-164000000D03*
X83080000Y-164000000D03*
X78000000Y-164000000D03*
D11*
X80730000Y-124250000D03*
X83270000Y-124250000D03*
X83270000Y-129750000D03*
X80730000Y-129750000D03*
D12*
X80100000Y-127000000D03*
X83900000Y-127000000D03*
D13*
X84450000Y-131650000D03*
D11*
X77270000Y-126250000D03*
X74730000Y-126250000D03*
X74730000Y-131750000D03*
X77270000Y-131750000D03*
D12*
X77900000Y-129000000D03*
X74100000Y-129000000D03*
D13*
X73550000Y-133650000D03*
D11*
X109270000Y-126250000D03*
X106730000Y-126250000D03*
X106730000Y-131750000D03*
X109270000Y-131750000D03*
D12*
X109900000Y-129000000D03*
X106100000Y-129000000D03*
D13*
X105550000Y-133650000D03*
D11*
X112730000Y-124250000D03*
X115270000Y-124250000D03*
X115270000Y-129750000D03*
X112730000Y-129750000D03*
D12*
X112100000Y-127000000D03*
X115900000Y-127000000D03*
D13*
X116450000Y-131650000D03*
D14*
X112540000Y-164000000D03*
X115080000Y-164000000D03*
X110000000Y-164000000D03*
X109460000Y-168000000D03*
X106920000Y-168000000D03*
X112000000Y-168000000D03*
D15*
X107190000Y-177800000D03*
D16*
X109730000Y-177800000D03*
X112270000Y-177800000D03*
X114810000Y-177800000D03*
D15*
X91190000Y-177800000D03*
D16*
X93730000Y-177800000D03*
X96270000Y-177800000D03*
X98810000Y-177800000D03*
D14*
X93460000Y-168000000D03*
X90920000Y-168000000D03*
X96000000Y-168000000D03*
X96540000Y-164000000D03*
X99080000Y-164000000D03*
X94000000Y-164000000D03*
D11*
X96730000Y-124250000D03*
X99270000Y-124250000D03*
X99270000Y-129750000D03*
X96730000Y-129750000D03*
D12*
X96100000Y-127000000D03*
X99900000Y-127000000D03*
D13*
X100450000Y-131650000D03*
D11*
X93270000Y-126250000D03*
X90730000Y-126250000D03*
X90730000Y-131750000D03*
X93270000Y-131750000D03*
D12*
X93900000Y-129000000D03*
X90100000Y-129000000D03*
D13*
X89550000Y-133650000D03*
D11*
X189270000Y-126250000D03*
X186730000Y-126250000D03*
X186730000Y-131750000D03*
X189270000Y-131750000D03*
D12*
X189900000Y-129000000D03*
X186100000Y-129000000D03*
D13*
X185550000Y-133650000D03*
D11*
X192730000Y-124250000D03*
X195270000Y-124250000D03*
X195270000Y-129750000D03*
X192730000Y-129750000D03*
D12*
X192100000Y-127000000D03*
X195900000Y-127000000D03*
D13*
X196450000Y-131650000D03*
D14*
X192540000Y-164000000D03*
X195080000Y-164000000D03*
X190000000Y-164000000D03*
X189460000Y-168000000D03*
X186920000Y-168000000D03*
X192000000Y-168000000D03*
D15*
X187190000Y-177800000D03*
D16*
X189730000Y-177800000D03*
X192270000Y-177800000D03*
X194810000Y-177800000D03*
D15*
X203190000Y-177800000D03*
D16*
X205730000Y-177800000D03*
X208270000Y-177800000D03*
X210810000Y-177800000D03*
D14*
X205460000Y-168000000D03*
X202920000Y-168000000D03*
X208000000Y-168000000D03*
X208540000Y-164000000D03*
X211080000Y-164000000D03*
X206000000Y-164000000D03*
D11*
X208730000Y-124250000D03*
X211270000Y-124250000D03*
X211270000Y-129750000D03*
X208730000Y-129750000D03*
D12*
X208100000Y-127000000D03*
X211900000Y-127000000D03*
D13*
X212450000Y-131650000D03*
D11*
X205270000Y-126250000D03*
X202730000Y-126250000D03*
X202730000Y-131750000D03*
X205270000Y-131750000D03*
D12*
X205900000Y-129000000D03*
X202100000Y-129000000D03*
D13*
X201550000Y-133650000D03*
D11*
X237270000Y-126250000D03*
X234730000Y-126250000D03*
X234730000Y-131750000D03*
X237270000Y-131750000D03*
D12*
X237900000Y-129000000D03*
X234100000Y-129000000D03*
D13*
X233550000Y-133650000D03*
D11*
X240730000Y-124250000D03*
X243270000Y-124250000D03*
X243270000Y-129750000D03*
X240730000Y-129750000D03*
D12*
X240100000Y-127000000D03*
X243900000Y-127000000D03*
D13*
X244450000Y-131650000D03*
D14*
X240540000Y-164000000D03*
X243080000Y-164000000D03*
X238000000Y-164000000D03*
X237460000Y-168000000D03*
X234920000Y-168000000D03*
X240000000Y-168000000D03*
D15*
X235190000Y-177800000D03*
D16*
X237730000Y-177800000D03*
X240270000Y-177800000D03*
X242810000Y-177800000D03*
D15*
X219190000Y-177800000D03*
D16*
X221730000Y-177800000D03*
X224270000Y-177800000D03*
X226810000Y-177800000D03*
D14*
X221460000Y-168000000D03*
X218920000Y-168000000D03*
X224000000Y-168000000D03*
X224540000Y-164000000D03*
X227080000Y-164000000D03*
X222000000Y-164000000D03*
D11*
X224730000Y-124250000D03*
X227270000Y-124250000D03*
X227270000Y-129750000D03*
X224730000Y-129750000D03*
D12*
X224100000Y-127000000D03*
X227900000Y-127000000D03*
D13*
X228450000Y-131650000D03*
D11*
X221270000Y-126250000D03*
X218730000Y-126250000D03*
X218730000Y-131750000D03*
X221270000Y-131750000D03*
D12*
X221900000Y-129000000D03*
X218100000Y-129000000D03*
D13*
X217550000Y-133650000D03*
D11*
X157270000Y-126250000D03*
X154730000Y-126250000D03*
X154730000Y-131750000D03*
X157270000Y-131750000D03*
D12*
X157900000Y-129000000D03*
X154100000Y-129000000D03*
D13*
X153550000Y-133650000D03*
D11*
X160730000Y-124250000D03*
X163270000Y-124250000D03*
X163270000Y-129750000D03*
X160730000Y-129750000D03*
D12*
X160100000Y-127000000D03*
X163900000Y-127000000D03*
D13*
X164450000Y-131650000D03*
D14*
X160540000Y-164000000D03*
X163080000Y-164000000D03*
X158000000Y-164000000D03*
X157460000Y-168000000D03*
X154920000Y-168000000D03*
X160000000Y-168000000D03*
D15*
X155190000Y-177800000D03*
D16*
X157730000Y-177800000D03*
X160270000Y-177800000D03*
X162810000Y-177800000D03*
D15*
X171190000Y-177800000D03*
D16*
X173730000Y-177800000D03*
X176270000Y-177800000D03*
X178810000Y-177800000D03*
D14*
X173460000Y-168000000D03*
X170920000Y-168000000D03*
X176000000Y-168000000D03*
X176540000Y-164000000D03*
X179080000Y-164000000D03*
X174000000Y-164000000D03*
D11*
X176730000Y-124250000D03*
X179270000Y-124250000D03*
X179270000Y-129750000D03*
X176730000Y-129750000D03*
D12*
X176100000Y-127000000D03*
X179900000Y-127000000D03*
D13*
X180450000Y-131650000D03*
D11*
X173270000Y-126250000D03*
X170730000Y-126250000D03*
X170730000Y-131750000D03*
X173270000Y-131750000D03*
D12*
X173900000Y-129000000D03*
X170100000Y-129000000D03*
D13*
X169550000Y-133650000D03*
D11*
X141270000Y-126250000D03*
X138730000Y-126250000D03*
X138730000Y-131750000D03*
X141270000Y-131750000D03*
D12*
X141900000Y-129000000D03*
X138100000Y-129000000D03*
D13*
X137550000Y-133650000D03*
D11*
X144730000Y-124250000D03*
X147270000Y-124250000D03*
X147270000Y-129750000D03*
X144730000Y-129750000D03*
D12*
X144100000Y-127000000D03*
X147900000Y-127000000D03*
D13*
X148450000Y-131650000D03*
D14*
X144540000Y-164000000D03*
X147080000Y-164000000D03*
X142000000Y-164000000D03*
X141460000Y-168000000D03*
X138920000Y-168000000D03*
X144000000Y-168000000D03*
D15*
X139190000Y-177800000D03*
D16*
X141730000Y-177800000D03*
X144270000Y-177800000D03*
X146810000Y-177800000D03*
D15*
X123190000Y-177800000D03*
D16*
X125730000Y-177800000D03*
X128270000Y-177800000D03*
X130810000Y-177800000D03*
D14*
X125460000Y-168000000D03*
X122920000Y-168000000D03*
X128000000Y-168000000D03*
X128540000Y-164000000D03*
X131080000Y-164000000D03*
X126000000Y-164000000D03*
D11*
X128730000Y-124250000D03*
X131270000Y-124250000D03*
X131270000Y-129750000D03*
X128730000Y-129750000D03*
D12*
X128100000Y-127000000D03*
X131900000Y-127000000D03*
D13*
X132450000Y-131650000D03*
D11*
X125270000Y-126250000D03*
X122730000Y-126250000D03*
X122730000Y-131750000D03*
X125270000Y-131750000D03*
D12*
X125900000Y-129000000D03*
X122100000Y-129000000D03*
D13*
X121550000Y-133650000D03*
M02*
