G04 #@! TF.FileFunction,Profile,NP*
%FSLAX46Y46*%
G04 Gerber Fmt 4.6, Leading zero omitted, Abs format (unit mm)*
G04 Created by KiCad (PCBNEW 4.0.4-stable) date 03/22/17 00:45:15*
%MOMM*%
%LPD*%
G01*
G04 APERTURE LIST*
%ADD10C,0.100000*%
%ADD11C,0.150000*%
G04 APERTURE END LIST*
D10*
D11*
X183000000Y-126000000D02*
X183000000Y-128000000D01*
X119000000Y-126000000D02*
X119000000Y-128000000D01*
X55000000Y-182000000D02*
X71000000Y-182000000D01*
X71000000Y-126000000D02*
G75*
G03X67000000Y-122000000I-4000000J0D01*
G01*
X59000000Y-124000000D02*
G75*
G03X55000000Y-128000000I0J-4000000D01*
G01*
X55000000Y-128000000D02*
X55000000Y-182000000D01*
X64000000Y-122000000D02*
G75*
G03X63000000Y-123000000I0J-1000000D01*
G01*
X62000000Y-124000000D02*
G75*
G03X63000000Y-123000000I0J1000000D01*
G01*
X64000000Y-122000000D02*
X67000000Y-122000000D01*
X62000000Y-124000000D02*
X59000000Y-124000000D01*
X78000000Y-124000000D02*
X75000000Y-124000000D01*
X80000000Y-122000000D02*
X83000000Y-122000000D01*
X78000000Y-124000000D02*
G75*
G03X79000000Y-123000000I0J1000000D01*
G01*
X80000000Y-122000000D02*
G75*
G03X79000000Y-123000000I0J-1000000D01*
G01*
X75000000Y-124000000D02*
G75*
G03X71000000Y-128000000I0J-4000000D01*
G01*
X87000000Y-126000000D02*
G75*
G03X83000000Y-122000000I-4000000J0D01*
G01*
X71000000Y-182000000D02*
X87000000Y-182000000D01*
X103000000Y-182000000D02*
X119000000Y-182000000D01*
X119000000Y-126000000D02*
G75*
G03X115000000Y-122000000I-4000000J0D01*
G01*
X107000000Y-124000000D02*
G75*
G03X103000000Y-128000000I0J-4000000D01*
G01*
X112000000Y-122000000D02*
G75*
G03X111000000Y-123000000I0J-1000000D01*
G01*
X110000000Y-124000000D02*
G75*
G03X111000000Y-123000000I0J1000000D01*
G01*
X112000000Y-122000000D02*
X115000000Y-122000000D01*
X110000000Y-124000000D02*
X107000000Y-124000000D01*
X94000000Y-124000000D02*
X91000000Y-124000000D01*
X96000000Y-122000000D02*
X99000000Y-122000000D01*
X94000000Y-124000000D02*
G75*
G03X95000000Y-123000000I0J1000000D01*
G01*
X96000000Y-122000000D02*
G75*
G03X95000000Y-123000000I0J-1000000D01*
G01*
X91000000Y-124000000D02*
G75*
G03X87000000Y-128000000I0J-4000000D01*
G01*
X103000000Y-126000000D02*
G75*
G03X99000000Y-122000000I-4000000J0D01*
G01*
X87000000Y-182000000D02*
X103000000Y-182000000D01*
X71000000Y-126000000D02*
X71000000Y-128000000D01*
X87000000Y-126000000D02*
X87000000Y-128000000D01*
X103000000Y-126000000D02*
X103000000Y-128000000D01*
X183000000Y-182000000D02*
X199000000Y-182000000D01*
X199000000Y-126000000D02*
G75*
G03X195000000Y-122000000I-4000000J0D01*
G01*
X187000000Y-124000000D02*
G75*
G03X183000000Y-128000000I0J-4000000D01*
G01*
X192000000Y-122000000D02*
G75*
G03X191000000Y-123000000I0J-1000000D01*
G01*
X190000000Y-124000000D02*
G75*
G03X191000000Y-123000000I0J1000000D01*
G01*
X192000000Y-122000000D02*
X195000000Y-122000000D01*
X190000000Y-124000000D02*
X187000000Y-124000000D01*
X206000000Y-124000000D02*
X203000000Y-124000000D01*
X208000000Y-122000000D02*
X211000000Y-122000000D01*
X206000000Y-124000000D02*
G75*
G03X207000000Y-123000000I0J1000000D01*
G01*
X208000000Y-122000000D02*
G75*
G03X207000000Y-123000000I0J-1000000D01*
G01*
X203000000Y-124000000D02*
G75*
G03X199000000Y-128000000I0J-4000000D01*
G01*
X215000000Y-126000000D02*
G75*
G03X211000000Y-122000000I-4000000J0D01*
G01*
X199000000Y-182000000D02*
X215000000Y-182000000D01*
X231000000Y-182000000D02*
X247000000Y-182000000D01*
X247000000Y-126000000D02*
G75*
G03X243000000Y-122000000I-4000000J0D01*
G01*
X235000000Y-124000000D02*
G75*
G03X231000000Y-128000000I0J-4000000D01*
G01*
X240000000Y-122000000D02*
G75*
G03X239000000Y-123000000I0J-1000000D01*
G01*
X238000000Y-124000000D02*
G75*
G03X239000000Y-123000000I0J1000000D01*
G01*
X240000000Y-122000000D02*
X243000000Y-122000000D01*
X238000000Y-124000000D02*
X235000000Y-124000000D01*
X247000000Y-126000000D02*
X247000000Y-182000000D01*
X222000000Y-124000000D02*
X219000000Y-124000000D01*
X224000000Y-122000000D02*
X227000000Y-122000000D01*
X222000000Y-124000000D02*
G75*
G03X223000000Y-123000000I0J1000000D01*
G01*
X224000000Y-122000000D02*
G75*
G03X223000000Y-123000000I0J-1000000D01*
G01*
X219000000Y-124000000D02*
G75*
G03X215000000Y-128000000I0J-4000000D01*
G01*
X231000000Y-126000000D02*
G75*
G03X227000000Y-122000000I-4000000J0D01*
G01*
X215000000Y-182000000D02*
X231000000Y-182000000D01*
X199000000Y-126000000D02*
X199000000Y-128000000D01*
X215000000Y-126000000D02*
X215000000Y-128000000D01*
X231000000Y-126000000D02*
X231000000Y-128000000D01*
X167000000Y-126000000D02*
X167000000Y-128000000D01*
X151000000Y-126000000D02*
X151000000Y-128000000D01*
X135000000Y-126000000D02*
X135000000Y-128000000D01*
X151000000Y-182000000D02*
X167000000Y-182000000D01*
X167000000Y-126000000D02*
G75*
G03X163000000Y-122000000I-4000000J0D01*
G01*
X155000000Y-124000000D02*
G75*
G03X151000000Y-128000000I0J-4000000D01*
G01*
X160000000Y-122000000D02*
G75*
G03X159000000Y-123000000I0J-1000000D01*
G01*
X158000000Y-124000000D02*
G75*
G03X159000000Y-123000000I0J1000000D01*
G01*
X160000000Y-122000000D02*
X163000000Y-122000000D01*
X158000000Y-124000000D02*
X155000000Y-124000000D01*
X174000000Y-124000000D02*
X171000000Y-124000000D01*
X176000000Y-122000000D02*
X179000000Y-122000000D01*
X174000000Y-124000000D02*
G75*
G03X175000000Y-123000000I0J1000000D01*
G01*
X176000000Y-122000000D02*
G75*
G03X175000000Y-123000000I0J-1000000D01*
G01*
X171000000Y-124000000D02*
G75*
G03X167000000Y-128000000I0J-4000000D01*
G01*
X183000000Y-126000000D02*
G75*
G03X179000000Y-122000000I-4000000J0D01*
G01*
X167000000Y-182000000D02*
X183000000Y-182000000D01*
X135000000Y-182000000D02*
X151000000Y-182000000D01*
X151000000Y-126000000D02*
G75*
G03X147000000Y-122000000I-4000000J0D01*
G01*
X139000000Y-124000000D02*
G75*
G03X135000000Y-128000000I0J-4000000D01*
G01*
X144000000Y-122000000D02*
G75*
G03X143000000Y-123000000I0J-1000000D01*
G01*
X142000000Y-124000000D02*
G75*
G03X143000000Y-123000000I0J1000000D01*
G01*
X144000000Y-122000000D02*
X147000000Y-122000000D01*
X142000000Y-124000000D02*
X139000000Y-124000000D01*
X126000000Y-124000000D02*
X123000000Y-124000000D01*
X128000000Y-122000000D02*
X131000000Y-122000000D01*
X126000000Y-124000000D02*
G75*
G03X127000000Y-123000000I0J1000000D01*
G01*
X128000000Y-122000000D02*
G75*
G03X127000000Y-123000000I0J-1000000D01*
G01*
X123000000Y-124000000D02*
G75*
G03X119000000Y-128000000I0J-4000000D01*
G01*
X135000000Y-126000000D02*
G75*
G03X131000000Y-122000000I-4000000J0D01*
G01*
X119000000Y-182000000D02*
X135000000Y-182000000D01*
M02*
