M48
;DRILL file {KiCad 4.0.4-stable} date 03/22/17 00:45:17
;FORMAT={-:-/ absolute / inch / decimal}
FMAT,2
INCH,TZ
T1C0.016
T2C0.032
T3C0.039
T4C0.040
T5C0.118
T6C0.039
T7C0.098
%
G90
G05
M72
T1
X2.2638Y-5.748
X2.2835Y-5.8465
X2.3228Y-5.2953
X2.3228Y-5.6102
X2.3228Y-5.9055
X2.3228Y-5.9843
X2.4016Y-5.7283
X2.4409Y-5.7677
X2.4606Y-5.9843
X2.5Y-6.063
X2.5197Y-5.7677
X2.5394Y-5.2953
X2.5394Y-6.7126
X2.5591Y-5.9646
X2.5787Y-5.7283
X2.6181Y-5.4134
X2.6772Y-5.7638
X2.6772Y-5.8465
X2.6969Y-5.9843
X2.7559Y-5.7283
X2.8937Y-5.748
X2.9134Y-5.8465
X2.9528Y-5.2953
X2.9528Y-5.6102
X2.9528Y-5.9055
X2.9528Y-5.9843
X3.0315Y-5.7283
X3.0709Y-5.7677
X3.0906Y-5.9843
X3.1299Y-6.063
X3.1496Y-5.7677
X3.1693Y-5.2953
X3.1693Y-6.7126
X3.189Y-5.9646
X3.2087Y-5.7283
X3.248Y-5.4134
X3.3071Y-5.7638
X3.3071Y-5.8465
X3.3268Y-5.9843
X3.3858Y-5.7283
X3.5236Y-5.748
X3.5433Y-5.8465
X3.5827Y-5.2953
X3.5827Y-5.6102
X3.5827Y-5.9055
X3.5827Y-5.9843
X3.6614Y-5.7283
X3.7008Y-5.7677
X3.7205Y-5.9843
X3.7598Y-6.063
X3.7795Y-5.7677
X3.7992Y-5.2953
X3.7992Y-6.7126
X3.8189Y-5.9646
X3.8386Y-5.7283
X3.878Y-5.4134
X3.937Y-5.7638
X3.937Y-5.8465
X3.9567Y-5.9843
X4.0157Y-5.7283
X4.1535Y-5.748
X4.1732Y-5.8465
X4.2126Y-5.2953
X4.2126Y-5.6102
X4.2126Y-5.9055
X4.2126Y-5.9843
X4.2913Y-5.7283
X4.3307Y-5.7677
X4.3504Y-5.9843
X4.3898Y-6.063
X4.4094Y-5.7677
X4.4291Y-5.2953
X4.4291Y-6.7126
X4.4488Y-5.9646
X4.4685Y-5.7283
X4.5079Y-5.4134
X4.5669Y-5.7638
X4.5669Y-5.8465
X4.5866Y-5.9843
X4.6457Y-5.7283
X4.7835Y-5.748
X4.8031Y-5.8465
X4.8425Y-5.2953
X4.8425Y-5.6102
X4.8425Y-5.9055
X4.8425Y-5.9843
X4.9213Y-5.7283
X4.9606Y-5.7677
X4.9803Y-5.9843
X5.0197Y-6.063
X5.0394Y-5.7677
X5.0591Y-5.2953
X5.0591Y-6.7126
X5.0787Y-5.9646
X5.0984Y-5.7283
X5.1378Y-5.4134
X5.1969Y-5.7638
X5.1969Y-5.8465
X5.2165Y-5.9843
X5.2756Y-5.7283
X5.4134Y-5.748
X5.4331Y-5.8465
X5.4724Y-5.2953
X5.4724Y-5.6102
X5.4724Y-5.9055
X5.4724Y-5.9843
X5.5512Y-5.7283
X5.5906Y-5.7677
X5.6102Y-5.9843
X5.6496Y-6.063
X5.6693Y-5.7677
X5.689Y-5.2953
X5.689Y-6.7126
X5.7087Y-5.9646
X5.7283Y-5.7283
X5.7677Y-5.4134
X5.8268Y-5.7638
X5.8268Y-5.8465
X5.8465Y-5.9843
X5.9055Y-5.7283
X6.0433Y-5.748
X6.063Y-5.8465
X6.1024Y-5.2953
X6.1024Y-5.6102
X6.1024Y-5.9055
X6.1024Y-5.9843
X6.1811Y-5.7283
X6.2205Y-5.7677
X6.2402Y-5.9843
X6.2795Y-6.063
X6.2992Y-5.7677
X6.3189Y-5.2953
X6.3189Y-6.7126
X6.3386Y-5.9646
X6.3583Y-5.7283
X6.3976Y-5.4134
X6.4567Y-5.7638
X6.4567Y-5.8465
X6.4764Y-5.9843
X6.5354Y-5.7283
X6.6732Y-5.748
X6.6929Y-5.8465
X6.7323Y-5.2953
X6.7323Y-5.6102
X6.7323Y-5.9055
X6.7323Y-5.9843
X6.811Y-5.7283
X6.8504Y-5.7677
X6.8701Y-5.9843
X6.9094Y-6.063
X6.9291Y-5.7677
X6.9488Y-5.2953
X6.9488Y-6.7126
X6.9685Y-5.9646
X6.9882Y-5.7283
X7.0276Y-5.4134
X7.0866Y-5.7638
X7.0866Y-5.8465
X7.1063Y-5.9843
X7.1654Y-5.7283
X7.3031Y-5.748
X7.3228Y-5.8465
X7.3622Y-5.2953
X7.3622Y-5.6102
X7.3622Y-5.9055
X7.3622Y-5.9843
X7.4409Y-5.7283
X7.4803Y-5.7677
X7.5Y-5.9843
X7.5394Y-6.063
X7.5591Y-5.7677
X7.5787Y-5.2953
X7.5787Y-6.7126
X7.5984Y-5.9646
X7.6181Y-5.7283
X7.6575Y-5.4134
X7.7165Y-5.7638
X7.7165Y-5.8465
X7.7362Y-5.9843
X7.7953Y-5.7283
X7.9331Y-5.748
X7.9528Y-5.8465
X7.9921Y-5.2953
X7.9921Y-5.6102
X7.9921Y-5.9055
X7.9921Y-5.9843
X8.0709Y-5.7283
X8.1102Y-5.7677
X8.1299Y-5.9843
X8.1693Y-6.063
X8.189Y-5.7677
X8.2087Y-5.2953
X8.2087Y-6.7126
X8.2283Y-5.9646
X8.248Y-5.7283
X8.2874Y-5.4134
X8.3465Y-5.7638
X8.3465Y-5.8465
X8.3661Y-5.9843
X8.4252Y-5.7283
X8.563Y-5.748
X8.5827Y-5.8465
X8.622Y-5.2953
X8.622Y-5.6102
X8.622Y-5.9055
X8.622Y-5.9843
X8.7008Y-5.7283
X8.7402Y-5.7677
X8.7598Y-5.9843
X8.7992Y-6.063
X8.8189Y-5.7677
X8.8386Y-5.2953
X8.8386Y-6.7126
X8.8583Y-5.9646
X8.878Y-5.7283
X8.9173Y-5.4134
X8.9764Y-5.7638
X8.9764Y-5.8465
X8.9961Y-5.9843
X9.0551Y-5.7283
X9.1929Y-5.748
X9.2126Y-5.8465
X9.252Y-5.2953
X9.252Y-5.6102
X9.252Y-5.9055
X9.252Y-5.9843
X9.3307Y-5.7283
X9.3701Y-5.7677
X9.3898Y-5.9843
X9.4291Y-6.063
X9.4488Y-5.7677
X9.4685Y-5.2953
X9.4685Y-6.7126
X9.4882Y-5.9646
X9.5079Y-5.7283
X9.5472Y-5.4134
X9.6063Y-5.7638
X9.6063Y-5.8465
X9.626Y-5.9843
X9.685Y-5.7283
T2
X2.3197Y-6.6142
X2.4197Y-6.6142
X2.4409Y-6.4567
X2.5197Y-6.6142
X2.5409Y-6.4567
X2.6409Y-6.4567
X2.9496Y-6.6142
X3.0496Y-6.6142
X3.0709Y-6.4567
X3.1496Y-6.6142
X3.1709Y-6.4567
X3.2709Y-6.4567
X3.5795Y-6.6142
X3.6795Y-6.6142
X3.7008Y-6.4567
X3.7795Y-6.6142
X3.8008Y-6.4567
X3.9008Y-6.4567
X4.2094Y-6.6142
X4.3094Y-6.6142
X4.3307Y-6.4567
X4.4094Y-6.6142
X4.4307Y-6.4567
X4.5307Y-6.4567
X4.8394Y-6.6142
X4.9394Y-6.6142
X4.9606Y-6.4567
X5.0394Y-6.6142
X5.0606Y-6.4567
X5.1606Y-6.4567
X5.4693Y-6.6142
X5.5693Y-6.6142
X5.5906Y-6.4567
X5.6693Y-6.6142
X5.6906Y-6.4567
X5.7906Y-6.4567
X6.0992Y-6.6142
X6.1992Y-6.6142
X6.2205Y-6.4567
X6.2992Y-6.6142
X6.3205Y-6.4567
X6.4205Y-6.4567
X6.7291Y-6.6142
X6.8291Y-6.6142
X6.8504Y-6.4567
X6.9291Y-6.6142
X6.9504Y-6.4567
X7.0504Y-6.4567
X7.3591Y-6.6142
X7.4591Y-6.6142
X7.4803Y-6.4567
X7.5591Y-6.6142
X7.5803Y-6.4567
X7.6803Y-6.4567
X7.989Y-6.6142
X8.089Y-6.6142
X8.1102Y-6.4567
X8.189Y-6.6142
X8.2102Y-6.4567
X8.3102Y-6.4567
X8.6189Y-6.6142
X8.7189Y-6.6142
X8.7402Y-6.4567
X8.8189Y-6.6142
X8.8402Y-6.4567
X8.9402Y-6.4567
X9.2488Y-6.6142
X9.3488Y-6.6142
X9.3701Y-6.4567
X9.4488Y-6.6142
X9.4701Y-6.4567
X9.5701Y-6.4567
T3
X2.3122Y-4.9705
X2.3122Y-5.187
X2.4122Y-4.9705
X2.4122Y-5.187
X2.5484Y-4.8917
X2.5484Y-5.1083
X2.6484Y-4.8917
X2.6484Y-5.1083
X2.9421Y-4.9705
X2.9421Y-5.187
X3.0421Y-4.9705
X3.0421Y-5.187
X3.1783Y-4.8917
X3.1783Y-5.1083
X3.2783Y-4.8917
X3.2783Y-5.1083
X3.572Y-4.9705
X3.572Y-5.187
X3.672Y-4.9705
X3.672Y-5.187
X3.8083Y-4.8917
X3.8083Y-5.1083
X3.9083Y-4.8917
X3.9083Y-5.1083
X4.202Y-4.9705
X4.202Y-5.187
X4.302Y-4.9705
X4.302Y-5.187
X4.4382Y-4.8917
X4.4382Y-5.1083
X4.5382Y-4.8917
X4.5382Y-5.1083
X4.8319Y-4.9705
X4.8319Y-5.187
X4.9319Y-4.9705
X4.9319Y-5.187
X5.0681Y-4.8917
X5.0681Y-5.1083
X5.1681Y-4.8917
X5.1681Y-5.1083
X5.4618Y-4.9705
X5.4618Y-5.187
X5.5618Y-4.9705
X5.5618Y-5.187
X5.698Y-4.8917
X5.698Y-5.1083
X5.798Y-4.8917
X5.798Y-5.1083
X6.0917Y-4.9705
X6.0917Y-5.187
X6.1917Y-4.9705
X6.1917Y-5.187
X6.328Y-4.8917
X6.328Y-5.1083
X6.428Y-4.8917
X6.428Y-5.1083
X6.7217Y-4.9705
X6.7217Y-5.187
X6.8217Y-4.9705
X6.8217Y-5.187
X6.9579Y-4.8917
X6.9579Y-5.1083
X7.0579Y-4.8917
X7.0579Y-5.1083
X7.3516Y-4.9705
X7.3516Y-5.187
X7.4516Y-4.9705
X7.4516Y-5.187
X7.5878Y-4.8917
X7.5878Y-5.1083
X7.6878Y-4.8917
X7.6878Y-5.1083
X7.9815Y-4.9705
X7.9815Y-5.187
X8.0815Y-4.9705
X8.0815Y-5.187
X8.2177Y-4.8917
X8.2177Y-5.1083
X8.3177Y-4.8917
X8.3177Y-5.1083
X8.6114Y-4.9705
X8.6114Y-5.187
X8.7114Y-4.9705
X8.7114Y-5.187
X8.8476Y-4.8917
X8.8476Y-5.1083
X8.9476Y-4.8917
X8.9476Y-5.1083
X9.2413Y-4.9705
X9.2413Y-5.187
X9.3413Y-4.9705
X9.3413Y-5.187
X9.4776Y-4.8917
X9.4776Y-5.1083
X9.5776Y-4.8917
X9.5776Y-5.1083
T4
X2.3303Y-7.
X2.4303Y-7.
X2.5303Y-7.
X2.6303Y-7.
X2.9602Y-7.
X3.0602Y-7.
X3.1602Y-7.
X3.2602Y-7.
X3.5902Y-7.
X3.6902Y-7.
X3.7902Y-7.
X3.8902Y-7.
X4.2201Y-7.
X4.3201Y-7.
X4.4201Y-7.
X4.5201Y-7.
X4.85Y-7.
X4.95Y-7.
X5.05Y-7.
X5.15Y-7.
X5.4799Y-7.
X5.5799Y-7.
X5.6799Y-7.
X5.7799Y-7.
X6.1098Y-7.
X6.2098Y-7.
X6.3098Y-7.
X6.4098Y-7.
X6.7398Y-7.
X6.8398Y-7.
X6.9398Y-7.
X7.0398Y-7.
X7.3697Y-7.
X7.4697Y-7.
X7.5697Y-7.
X7.6697Y-7.
X7.9996Y-7.
X8.0996Y-7.
X8.1996Y-7.
X8.2996Y-7.
X8.6295Y-7.
X8.7295Y-7.
X8.8295Y-7.
X8.9295Y-7.
X9.2594Y-7.
X9.3594Y-7.
X9.4594Y-7.
X9.5594Y-7.
T5
X2.4803Y-5.5315
X3.1102Y-5.5315
X3.7402Y-5.5315
X4.3701Y-5.5315
X5.Y-5.5315
X5.6299Y-5.5315
X6.2598Y-5.5315
X6.8898Y-5.5315
X7.5197Y-5.5315
X8.1496Y-5.5315
X8.7795Y-5.5315
X9.4094Y-5.5315
T6
X2.2657Y-5.2618
X2.6949Y-5.1831
X2.8957Y-5.2618
X3.3248Y-5.1831
X3.5256Y-5.2618
X3.9547Y-5.1831
X4.1555Y-5.2618
X4.5846Y-5.1831
X4.7854Y-5.2618
X5.2146Y-5.1831
X5.4154Y-5.2618
X5.8445Y-5.1831
X6.0453Y-5.2618
X6.4744Y-5.1831
X6.6752Y-5.2618
X7.1043Y-5.1831
X7.3051Y-5.2618
X7.7343Y-5.1831
X7.935Y-5.2618
X8.3642Y-5.1831
X8.565Y-5.2618
X8.9941Y-5.1831
X9.1949Y-5.2618
X9.624Y-5.1831
T7
X2.2874Y-5.0787
X2.437Y-5.0787
X2.5236Y-5.
X2.6732Y-5.
X2.9173Y-5.0787
X3.0669Y-5.0787
X3.1535Y-5.
X3.3031Y-5.
X3.5472Y-5.0787
X3.6969Y-5.0787
X3.7835Y-5.
X3.9331Y-5.
X4.1772Y-5.0787
X4.3268Y-5.0787
X4.4134Y-5.
X4.563Y-5.
X4.8071Y-5.0787
X4.9567Y-5.0787
X5.0433Y-5.
X5.1929Y-5.
X5.437Y-5.0787
X5.5866Y-5.0787
X5.6732Y-5.
X5.8228Y-5.
X6.0669Y-5.0787
X6.2165Y-5.0787
X6.3031Y-5.
X6.4528Y-5.
X6.6969Y-5.0787
X6.8465Y-5.0787
X6.9331Y-5.
X7.0827Y-5.
X7.3268Y-5.0787
X7.4764Y-5.0787
X7.563Y-5.
X7.7126Y-5.
X7.9567Y-5.0787
X8.1063Y-5.0787
X8.1929Y-5.
X8.3425Y-5.
X8.5866Y-5.0787
X8.7362Y-5.0787
X8.8228Y-5.
X8.9724Y-5.
X9.2165Y-5.0787
X9.3661Y-5.0787
X9.4528Y-5.
X9.6024Y-5.
T0
M30
